%TF.GenerationSoftware,KiCad,Pcbnew,(6.0.8-1)-1*%
%TF.CreationDate,2022-10-28T23:41:02-05:00*%
%TF.ProjectId,VT105_ATX_DCDC,56543130-355f-4415-9458-5f444344432e,rev?*%
%TF.SameCoordinates,Original*%
%TF.FileFunction,Soldermask,Bot*%
%TF.FilePolarity,Negative*%
%FSLAX46Y46*%
G04 Gerber Fmt 4.6, Leading zero omitted, Abs format (unit mm)*
G04 Created by KiCad (PCBNEW (6.0.8-1)-1) date 2022-10-28 23:41:02*
%MOMM*%
%LPD*%
G01*
G04 APERTURE LIST*
G04 Aperture macros list*
%AMRoundRect*
0 Rectangle with rounded corners*
0 $1 Rounding radius*
0 $2 $3 $4 $5 $6 $7 $8 $9 X,Y pos of 4 corners*
0 Add a 4 corners polygon primitive as box body*
4,1,4,$2,$3,$4,$5,$6,$7,$8,$9,$2,$3,0*
0 Add four circle primitives for the rounded corners*
1,1,$1+$1,$2,$3*
1,1,$1+$1,$4,$5*
1,1,$1+$1,$6,$7*
1,1,$1+$1,$8,$9*
0 Add four rect primitives between the rounded corners*
20,1,$1+$1,$2,$3,$4,$5,0*
20,1,$1+$1,$4,$5,$6,$7,0*
20,1,$1+$1,$6,$7,$8,$9,0*
20,1,$1+$1,$8,$9,$2,$3,0*%
G04 Aperture macros list end*
%ADD10C,0.175000*%
%ADD11C,0.375000*%
%ADD12C,0.120000*%
%ADD13C,1.600000*%
%ADD14C,2.000000*%
%ADD15C,4.203200*%
%ADD16O,4.267200X2.235200*%
%ADD17RoundRect,0.120000X4.980000X1.080000X-4.980000X1.080000X-4.980000X-1.080000X4.980000X-1.080000X0*%
%ADD18C,2.400000*%
%ADD19O,2.400000X2.400000*%
%ADD20C,3.202940*%
%ADD21C,3.101340*%
G04 APERTURE END LIST*
D10*
X74683166Y-63629583D02*
X74216500Y-63629583D01*
X74283166Y-63629583D02*
X74249833Y-63662916D01*
X74216500Y-63729583D01*
X74216500Y-63829583D01*
X74249833Y-63896250D01*
X74316500Y-63929583D01*
X74683166Y-63929583D01*
X74316500Y-63929583D02*
X74249833Y-63962916D01*
X74216500Y-64029583D01*
X74216500Y-64129583D01*
X74249833Y-64196250D01*
X74316500Y-64229583D01*
X74683166Y-64229583D01*
X74683166Y-64862916D02*
X74316500Y-64862916D01*
X74249833Y-64829583D01*
X74216500Y-64762916D01*
X74216500Y-64629583D01*
X74249833Y-64562916D01*
X74649833Y-64862916D02*
X74683166Y-64796250D01*
X74683166Y-64629583D01*
X74649833Y-64562916D01*
X74583166Y-64529583D01*
X74516500Y-64529583D01*
X74449833Y-64562916D01*
X74416500Y-64629583D01*
X74416500Y-64796250D01*
X74383166Y-64862916D01*
X74683166Y-65496250D02*
X73983166Y-65496250D01*
X74649833Y-65496250D02*
X74683166Y-65429583D01*
X74683166Y-65296250D01*
X74649833Y-65229583D01*
X74616500Y-65196250D01*
X74549833Y-65162916D01*
X74349833Y-65162916D01*
X74283166Y-65196250D01*
X74249833Y-65229583D01*
X74216500Y-65296250D01*
X74216500Y-65429583D01*
X74249833Y-65496250D01*
X74649833Y-66096250D02*
X74683166Y-66029583D01*
X74683166Y-65896250D01*
X74649833Y-65829583D01*
X74583166Y-65796250D01*
X74316500Y-65796250D01*
X74249833Y-65829583D01*
X74216500Y-65896250D01*
X74216500Y-66029583D01*
X74249833Y-66096250D01*
X74316500Y-66129583D01*
X74383166Y-66129583D01*
X74449833Y-65796250D01*
X74683166Y-66962916D02*
X73983166Y-66962916D01*
X74249833Y-66962916D02*
X74216500Y-67029583D01*
X74216500Y-67162916D01*
X74249833Y-67229583D01*
X74283166Y-67262916D01*
X74349833Y-67296250D01*
X74549833Y-67296250D01*
X74616500Y-67262916D01*
X74649833Y-67229583D01*
X74683166Y-67162916D01*
X74683166Y-67029583D01*
X74649833Y-66962916D01*
X74216500Y-67529583D02*
X74683166Y-67696250D01*
X74216500Y-67862916D02*
X74683166Y-67696250D01*
X74849833Y-67629583D01*
X74883166Y-67596250D01*
X74916500Y-67529583D01*
X74683166Y-68962916D02*
X73983166Y-68962916D01*
X74649833Y-68962916D02*
X74683166Y-68896250D01*
X74683166Y-68762916D01*
X74649833Y-68696250D01*
X74616500Y-68662916D01*
X74549833Y-68629583D01*
X74349833Y-68629583D01*
X74283166Y-68662916D01*
X74249833Y-68696250D01*
X74216500Y-68762916D01*
X74216500Y-68896250D01*
X74249833Y-68962916D01*
X74649833Y-69562916D02*
X74683166Y-69496250D01*
X74683166Y-69362916D01*
X74649833Y-69296250D01*
X74583166Y-69262916D01*
X74316500Y-69262916D01*
X74249833Y-69296250D01*
X74216500Y-69362916D01*
X74216500Y-69496250D01*
X74249833Y-69562916D01*
X74316500Y-69596250D01*
X74383166Y-69596250D01*
X74449833Y-69262916D01*
X74683166Y-69896250D02*
X74216500Y-69896250D01*
X74349833Y-69896250D02*
X74283166Y-69929583D01*
X74249833Y-69962916D01*
X74216500Y-70029583D01*
X74216500Y-70096250D01*
X74649833Y-70596250D02*
X74683166Y-70529583D01*
X74683166Y-70396250D01*
X74649833Y-70329583D01*
X74583166Y-70296250D01*
X74316500Y-70296250D01*
X74249833Y-70329583D01*
X74216500Y-70396250D01*
X74216500Y-70529583D01*
X74249833Y-70596250D01*
X74316500Y-70629583D01*
X74383166Y-70629583D01*
X74449833Y-70296250D01*
X74683166Y-70929583D02*
X73983166Y-70929583D01*
X74416500Y-70996250D02*
X74683166Y-71196250D01*
X74216500Y-71196250D02*
X74483166Y-70929583D01*
X74683166Y-72329583D02*
X74316500Y-72329583D01*
X74249833Y-72296250D01*
X74216500Y-72229583D01*
X74216500Y-72096250D01*
X74249833Y-72029583D01*
X74649833Y-72329583D02*
X74683166Y-72262916D01*
X74683166Y-72096250D01*
X74649833Y-72029583D01*
X74583166Y-71996250D01*
X74516500Y-71996250D01*
X74449833Y-72029583D01*
X74416500Y-72096250D01*
X74416500Y-72262916D01*
X74383166Y-72329583D01*
X74683166Y-72662916D02*
X74216500Y-72662916D01*
X74349833Y-72662916D02*
X74283166Y-72696250D01*
X74249833Y-72729583D01*
X74216500Y-72796250D01*
X74216500Y-72862916D01*
X74216500Y-73096250D02*
X74683166Y-73096250D01*
X74283166Y-73096250D02*
X74249833Y-73129583D01*
X74216500Y-73196250D01*
X74216500Y-73296250D01*
X74249833Y-73362916D01*
X74316500Y-73396250D01*
X74683166Y-73396250D01*
X74683166Y-73829583D02*
X74649833Y-73762916D01*
X74616500Y-73729583D01*
X74549833Y-73696250D01*
X74349833Y-73696250D01*
X74283166Y-73729583D01*
X74249833Y-73762916D01*
X74216500Y-73829583D01*
X74216500Y-73929583D01*
X74249833Y-73996250D01*
X74283166Y-74029583D01*
X74349833Y-74062916D01*
X74549833Y-74062916D01*
X74616500Y-74029583D01*
X74649833Y-73996250D01*
X74683166Y-73929583D01*
X74683166Y-73829583D01*
X74683166Y-74462916D02*
X74649833Y-74396250D01*
X74583166Y-74362916D01*
X73983166Y-74362916D01*
X74683166Y-75029583D02*
X73983166Y-75029583D01*
X74649833Y-75029583D02*
X74683166Y-74962916D01*
X74683166Y-74829583D01*
X74649833Y-74762916D01*
X74616500Y-74729583D01*
X74549833Y-74696250D01*
X74349833Y-74696250D01*
X74283166Y-74729583D01*
X74249833Y-74762916D01*
X74216500Y-74829583D01*
X74216500Y-74962916D01*
X74249833Y-75029583D01*
X74683166Y-75896250D02*
X74216500Y-75896250D01*
X73983166Y-75896250D02*
X74016500Y-75862916D01*
X74049833Y-75896250D01*
X74016500Y-75929583D01*
X73983166Y-75896250D01*
X74049833Y-75896250D01*
X74216500Y-76229583D02*
X74683166Y-76229583D01*
X74283166Y-76229583D02*
X74249833Y-76262916D01*
X74216500Y-76329583D01*
X74216500Y-76429583D01*
X74249833Y-76496250D01*
X74316500Y-76529583D01*
X74683166Y-76529583D01*
X74049833Y-77362916D02*
X74016500Y-77396250D01*
X73983166Y-77462916D01*
X73983166Y-77629583D01*
X74016500Y-77696250D01*
X74049833Y-77729583D01*
X74116500Y-77762916D01*
X74183166Y-77762916D01*
X74283166Y-77729583D01*
X74683166Y-77329583D01*
X74683166Y-77762916D01*
X73983166Y-78196250D02*
X73983166Y-78262916D01*
X74016500Y-78329583D01*
X74049833Y-78362916D01*
X74116500Y-78396250D01*
X74249833Y-78429583D01*
X74416500Y-78429583D01*
X74549833Y-78396250D01*
X74616500Y-78362916D01*
X74649833Y-78329583D01*
X74683166Y-78262916D01*
X74683166Y-78196250D01*
X74649833Y-78129583D01*
X74616500Y-78096250D01*
X74549833Y-78062916D01*
X74416500Y-78029583D01*
X74249833Y-78029583D01*
X74116500Y-78062916D01*
X74049833Y-78096250D01*
X74016500Y-78129583D01*
X73983166Y-78196250D01*
X74049833Y-78696250D02*
X74016500Y-78729583D01*
X73983166Y-78796250D01*
X73983166Y-78962916D01*
X74016500Y-79029583D01*
X74049833Y-79062916D01*
X74116500Y-79096250D01*
X74183166Y-79096250D01*
X74283166Y-79062916D01*
X74683166Y-78662916D01*
X74683166Y-79096250D01*
X74049833Y-79362916D02*
X74016500Y-79396250D01*
X73983166Y-79462916D01*
X73983166Y-79629583D01*
X74016500Y-79696250D01*
X74049833Y-79729583D01*
X74116500Y-79762916D01*
X74183166Y-79762916D01*
X74283166Y-79729583D01*
X74683166Y-79329583D01*
X74683166Y-79762916D01*
X75810166Y-69229583D02*
X75110166Y-69229583D01*
X75810166Y-69529583D02*
X75443500Y-69529583D01*
X75376833Y-69496250D01*
X75343500Y-69429583D01*
X75343500Y-69329583D01*
X75376833Y-69262916D01*
X75410166Y-69229583D01*
X75343500Y-69762916D02*
X75343500Y-70029583D01*
X75110166Y-69862916D02*
X75710166Y-69862916D01*
X75776833Y-69896250D01*
X75810166Y-69962916D01*
X75810166Y-70029583D01*
X75343500Y-70162916D02*
X75343500Y-70429583D01*
X75110166Y-70262916D02*
X75710166Y-70262916D01*
X75776833Y-70296250D01*
X75810166Y-70362916D01*
X75810166Y-70429583D01*
X75343500Y-70662916D02*
X76043500Y-70662916D01*
X75376833Y-70662916D02*
X75343500Y-70729583D01*
X75343500Y-70862916D01*
X75376833Y-70929583D01*
X75410166Y-70962916D01*
X75476833Y-70996250D01*
X75676833Y-70996250D01*
X75743500Y-70962916D01*
X75776833Y-70929583D01*
X75810166Y-70862916D01*
X75810166Y-70729583D01*
X75776833Y-70662916D01*
X75776833Y-71262916D02*
X75810166Y-71329583D01*
X75810166Y-71462916D01*
X75776833Y-71529583D01*
X75710166Y-71562916D01*
X75676833Y-71562916D01*
X75610166Y-71529583D01*
X75576833Y-71462916D01*
X75576833Y-71362916D01*
X75543500Y-71296250D01*
X75476833Y-71262916D01*
X75443500Y-71262916D01*
X75376833Y-71296250D01*
X75343500Y-71362916D01*
X75343500Y-71462916D01*
X75376833Y-71529583D01*
X75743500Y-71862916D02*
X75776833Y-71896250D01*
X75810166Y-71862916D01*
X75776833Y-71829583D01*
X75743500Y-71862916D01*
X75810166Y-71862916D01*
X75376833Y-71862916D02*
X75410166Y-71896250D01*
X75443500Y-71862916D01*
X75410166Y-71829583D01*
X75376833Y-71862916D01*
X75443500Y-71862916D01*
X75076833Y-72696250D02*
X75976833Y-72096250D01*
X75076833Y-73429583D02*
X75976833Y-72829583D01*
X75343500Y-73562916D02*
X75343500Y-73829583D01*
X75810166Y-73662916D02*
X75210166Y-73662916D01*
X75143500Y-73696250D01*
X75110166Y-73762916D01*
X75110166Y-73829583D01*
X75343500Y-74362916D02*
X75810166Y-74362916D01*
X75343500Y-74062916D02*
X75710166Y-74062916D01*
X75776833Y-74096250D01*
X75810166Y-74162916D01*
X75810166Y-74262916D01*
X75776833Y-74329583D01*
X75743500Y-74362916D01*
X75810166Y-74796250D02*
X75776833Y-74729583D01*
X75710166Y-74696250D01*
X75110166Y-74696250D01*
X75810166Y-75162916D02*
X75776833Y-75096250D01*
X75710166Y-75062916D01*
X75110166Y-75062916D01*
X75776833Y-75696250D02*
X75810166Y-75629583D01*
X75810166Y-75496250D01*
X75776833Y-75429583D01*
X75710166Y-75396250D01*
X75443500Y-75396250D01*
X75376833Y-75429583D01*
X75343500Y-75496250D01*
X75343500Y-75629583D01*
X75376833Y-75696250D01*
X75443500Y-75729583D01*
X75510166Y-75729583D01*
X75576833Y-75396250D01*
X75810166Y-76029583D02*
X75343500Y-76029583D01*
X75410166Y-76029583D02*
X75376833Y-76062916D01*
X75343500Y-76129583D01*
X75343500Y-76229583D01*
X75376833Y-76296250D01*
X75443500Y-76329583D01*
X75810166Y-76329583D01*
X75443500Y-76329583D02*
X75376833Y-76362916D01*
X75343500Y-76429583D01*
X75343500Y-76529583D01*
X75376833Y-76596250D01*
X75443500Y-76629583D01*
X75810166Y-76629583D01*
X75343500Y-76962916D02*
X76043500Y-76962916D01*
X75376833Y-76962916D02*
X75343500Y-77029583D01*
X75343500Y-77162916D01*
X75376833Y-77229583D01*
X75410166Y-77262916D01*
X75476833Y-77296250D01*
X75676833Y-77296250D01*
X75743500Y-77262916D01*
X75776833Y-77229583D01*
X75810166Y-77162916D01*
X75810166Y-77029583D01*
X75776833Y-76962916D01*
X75343500Y-77496250D02*
X75343500Y-77762916D01*
X75110166Y-77596250D02*
X75710166Y-77596250D01*
X75776833Y-77629583D01*
X75810166Y-77696250D01*
X75810166Y-77762916D01*
X75343500Y-77929583D02*
X75810166Y-78096250D01*
X75343500Y-78262916D02*
X75810166Y-78096250D01*
X75976833Y-78029583D01*
X76010166Y-77996250D01*
X76043500Y-77929583D01*
X75743500Y-78529583D02*
X75776833Y-78562916D01*
X75810166Y-78529583D01*
X75776833Y-78496250D01*
X75743500Y-78529583D01*
X75810166Y-78529583D01*
X75776833Y-78829583D02*
X75810166Y-78896250D01*
X75810166Y-79029583D01*
X75776833Y-79096250D01*
X75710166Y-79129583D01*
X75676833Y-79129583D01*
X75610166Y-79096250D01*
X75576833Y-79029583D01*
X75576833Y-78929583D01*
X75543500Y-78862916D01*
X75476833Y-78829583D01*
X75443500Y-78829583D01*
X75376833Y-78862916D01*
X75343500Y-78929583D01*
X75343500Y-79029583D01*
X75376833Y-79096250D01*
X75810166Y-79429583D02*
X75110166Y-79429583D01*
X75810166Y-79729583D02*
X75443500Y-79729583D01*
X75376833Y-79696250D01*
X75343500Y-79629583D01*
X75343500Y-79529583D01*
X75376833Y-79462916D01*
X75410166Y-79429583D01*
D11*
X76648571Y-49886919D02*
X78148571Y-50199419D01*
X76648571Y-50886919D01*
X76648571Y-51172633D02*
X76648571Y-52029776D01*
X78148571Y-51413705D02*
X76648571Y-51601205D01*
X78148571Y-53127991D02*
X78148571Y-52270848D01*
X78148571Y-52699419D02*
X76648571Y-52886919D01*
X76862857Y-52717276D01*
X77005714Y-52556562D01*
X77077142Y-52404776D01*
X76648571Y-54244062D02*
X76648571Y-54386919D01*
X76720000Y-54520848D01*
X76791428Y-54583348D01*
X76934285Y-54636919D01*
X77220000Y-54672633D01*
X77577142Y-54627991D01*
X77862857Y-54520848D01*
X78005714Y-54431562D01*
X78077142Y-54351205D01*
X78148571Y-54199419D01*
X78148571Y-54056562D01*
X78077142Y-53922633D01*
X78005714Y-53860133D01*
X77862857Y-53806562D01*
X77577142Y-53770848D01*
X77220000Y-53815491D01*
X76934285Y-53922633D01*
X76791428Y-54011919D01*
X76720000Y-54092276D01*
X76648571Y-54244062D01*
X76648571Y-55672633D02*
X76648571Y-55815491D01*
X76720000Y-55949419D01*
X76791428Y-56011919D01*
X76934285Y-56065491D01*
X77220000Y-56101205D01*
X77577142Y-56056562D01*
X77862857Y-55949419D01*
X78005714Y-55860133D01*
X78077142Y-55779776D01*
X78148571Y-55627991D01*
X78148571Y-55485133D01*
X78077142Y-55351205D01*
X78005714Y-55288705D01*
X77862857Y-55235133D01*
X77577142Y-55199419D01*
X77220000Y-55244062D01*
X76934285Y-55351205D01*
X76791428Y-55440491D01*
X76720000Y-55520848D01*
X76648571Y-55672633D01*
X77720000Y-57752991D02*
X77720000Y-58467276D01*
X78148571Y-57556562D02*
X76648571Y-58244062D01*
X78148571Y-58556562D01*
X76648571Y-59029776D02*
X76648571Y-59886919D01*
X78148571Y-59270848D02*
X76648571Y-59458348D01*
X76648571Y-60244062D02*
X78148571Y-61056562D01*
X76648571Y-61244062D02*
X78148571Y-60056562D01*
X78148571Y-62770848D02*
X76648571Y-62958348D01*
X76648571Y-63529776D01*
X76720000Y-63663705D01*
X76791428Y-63726205D01*
X76934285Y-63779776D01*
X77148571Y-63752991D01*
X77291428Y-63663705D01*
X77362857Y-63583348D01*
X77434285Y-63431562D01*
X77434285Y-62860133D01*
X76648571Y-64744062D02*
X76648571Y-65029776D01*
X76720000Y-65163705D01*
X76862857Y-65288705D01*
X77148571Y-65324419D01*
X77648571Y-65261919D01*
X77934285Y-65154776D01*
X78077142Y-64994062D01*
X78148571Y-64842276D01*
X78148571Y-64556562D01*
X78077142Y-64422633D01*
X77934285Y-64297633D01*
X77648571Y-64261919D01*
X77148571Y-64324419D01*
X76862857Y-64431562D01*
X76720000Y-64592276D01*
X76648571Y-64744062D01*
X76648571Y-65886919D02*
X78148571Y-66056562D01*
X77077142Y-66476205D01*
X78148571Y-66627991D01*
X76648571Y-67172633D01*
X77362857Y-67654776D02*
X77362857Y-68154776D01*
X78148571Y-68270848D02*
X78148571Y-67556562D01*
X76648571Y-67744062D01*
X76648571Y-68458348D01*
X78148571Y-69770848D02*
X77434285Y-69360133D01*
X78148571Y-68913705D02*
X76648571Y-69101205D01*
X76648571Y-69672633D01*
X76720000Y-69806562D01*
X76791428Y-69869062D01*
X76934285Y-69922633D01*
X77148571Y-69895848D01*
X77291428Y-69806562D01*
X77362857Y-69726205D01*
X77434285Y-69574419D01*
X77434285Y-69002991D01*
X78077142Y-71494062D02*
X78148571Y-71699419D01*
X78148571Y-72056562D01*
X78077142Y-72208348D01*
X78005714Y-72288705D01*
X77862857Y-72377991D01*
X77720000Y-72395848D01*
X77577142Y-72342276D01*
X77505714Y-72279776D01*
X77434285Y-72145848D01*
X77362857Y-71869062D01*
X77291428Y-71735133D01*
X77220000Y-71672633D01*
X77077142Y-71619062D01*
X76934285Y-71636919D01*
X76791428Y-71726205D01*
X76720000Y-71806562D01*
X76648571Y-71958348D01*
X76648571Y-72315491D01*
X76720000Y-72520848D01*
X76648571Y-73172633D02*
X77862857Y-73020848D01*
X78005714Y-73074419D01*
X78077142Y-73136919D01*
X78148571Y-73270848D01*
X78148571Y-73556562D01*
X78077142Y-73708348D01*
X78005714Y-73788705D01*
X77862857Y-73877991D01*
X76648571Y-74029776D01*
X78148571Y-74556562D02*
X76648571Y-74744062D01*
X76648571Y-75315491D01*
X76720000Y-75449419D01*
X76791428Y-75511919D01*
X76934285Y-75565491D01*
X77148571Y-75538705D01*
X77291428Y-75449419D01*
X77362857Y-75369062D01*
X77434285Y-75217276D01*
X77434285Y-74645848D01*
X78148571Y-76056562D02*
X76648571Y-76244062D01*
X76648571Y-76815491D01*
X76720000Y-76949419D01*
X76791428Y-77011919D01*
X76934285Y-77065491D01*
X77148571Y-77038705D01*
X77291428Y-76949419D01*
X77362857Y-76869062D01*
X77434285Y-76717276D01*
X77434285Y-76145848D01*
X78148571Y-78270848D02*
X78148571Y-77556562D01*
X76648571Y-77744062D01*
X77434285Y-79145848D02*
X78148571Y-79056562D01*
X76648571Y-78744062D02*
X77434285Y-79145848D01*
X76648571Y-79744062D01*
%TO.C,U2*%
G36*
X49231000Y-125733000D02*
G01*
X40481000Y-125733000D01*
X40481000Y-50733000D01*
X49231000Y-50733000D01*
X49231000Y-125733000D01*
G37*
D12*
X49231000Y-125733000D02*
X40481000Y-125733000D01*
X40481000Y-50733000D01*
X49231000Y-50733000D01*
X49231000Y-125733000D01*
%TD*%
D13*
%TO.C,C1*%
X58293000Y-103505000D03*
X63293000Y-103505000D03*
%TD*%
D14*
%TO.C,U1*%
X57912000Y-118967000D03*
X60452000Y-118967000D03*
X68072000Y-118967000D03*
X70612000Y-118967000D03*
X73152000Y-118967000D03*
X75692000Y-118967000D03*
%TD*%
D15*
%TO.C,J1*%
X76668000Y-104648000D03*
D16*
X69668000Y-107148000D03*
X69668000Y-102148000D03*
%TD*%
D17*
%TO.C,U2*%
X45931000Y-54233000D03*
X45931000Y-58233000D03*
X45931000Y-62233000D03*
X45931000Y-66233000D03*
X45931000Y-70233000D03*
X45931000Y-74233000D03*
X45931000Y-78233000D03*
X45931000Y-82233000D03*
X45931000Y-86233000D03*
X45931000Y-90233000D03*
X45931000Y-94233000D03*
X45931000Y-98233000D03*
X45931000Y-102233000D03*
X45931000Y-106233000D03*
X45931000Y-110233000D03*
X45931000Y-114233000D03*
X45931000Y-118233000D03*
X45931000Y-122233000D03*
%TD*%
D18*
%TO.C,R1*%
X77494000Y-126238000D03*
D19*
X55094000Y-126238000D03*
%TD*%
D20*
%TO.C,J2*%
X71628000Y-48783240D03*
X71628000Y-94980760D03*
D21*
X64328040Y-48783240D03*
X64328040Y-52984400D03*
X64328040Y-57183020D03*
X64328040Y-61384180D03*
X64328040Y-65582800D03*
X64328040Y-69783960D03*
X64328040Y-73980040D03*
X64328040Y-78181200D03*
X64328040Y-82379820D03*
X64328040Y-86580980D03*
X64328040Y-90779600D03*
X64328040Y-94980760D03*
X58828940Y-48783240D03*
X58828940Y-52984400D03*
X58828940Y-57183020D03*
X58828940Y-61384180D03*
X58828940Y-65582800D03*
X58828940Y-69783960D03*
X58828940Y-73980040D03*
X58828940Y-78181200D03*
X58828940Y-82379820D03*
X58828940Y-86580980D03*
X58828940Y-90779600D03*
X58828940Y-94980760D03*
%TD*%
G36*
X78911945Y-45729591D02*
G01*
X79453782Y-45954027D01*
X79509063Y-45998575D01*
X79521973Y-46022218D01*
X79746409Y-46564055D01*
X79756000Y-46612273D01*
X79756000Y-129917727D01*
X79746409Y-129965945D01*
X79521973Y-130507782D01*
X79477425Y-130563063D01*
X79453782Y-130575973D01*
X78911945Y-130800409D01*
X78863727Y-130810000D01*
X51909076Y-130810000D01*
X51860858Y-130800409D01*
X51165718Y-130512473D01*
X51110437Y-130467925D01*
X51097527Y-130444282D01*
X50809591Y-129749142D01*
X50800000Y-129700924D01*
X50800000Y-125782648D01*
X50792601Y-125757448D01*
X50778585Y-125744029D01*
X50754853Y-125731731D01*
X50697848Y-125732970D01*
X50695111Y-125733000D01*
X41359616Y-125733000D01*
X41311398Y-125723409D01*
X40779218Y-125502973D01*
X40723937Y-125458425D01*
X40711027Y-125434782D01*
X40490591Y-124902602D01*
X40481000Y-124854384D01*
X40481000Y-51611616D01*
X40490591Y-51563398D01*
X40711027Y-51031218D01*
X40755575Y-50975937D01*
X40779218Y-50963027D01*
X41311398Y-50742591D01*
X41359616Y-50733000D01*
X50281885Y-50733000D01*
X50307530Y-50725470D01*
X50787188Y-50245812D01*
X50800000Y-50222350D01*
X50800000Y-46829076D01*
X50809591Y-46780858D01*
X51097527Y-46085718D01*
X51142075Y-46030437D01*
X51165718Y-46017527D01*
X51860858Y-45729591D01*
X51909076Y-45720000D01*
X78863727Y-45720000D01*
X78911945Y-45729591D01*
G37*
M02*
