%TF.GenerationSoftware,KiCad,Pcbnew,(6.0.8-1)-1*%
%TF.CreationDate,2022-11-10T09:52:18-06:00*%
%TF.ProjectId,VT100_ATX_DCDC,56543130-305f-4415-9458-5f444344432e,rev?*%
%TF.SameCoordinates,Original*%
%TF.FileFunction,Copper,L1,Top*%
%TF.FilePolarity,Positive*%
%FSLAX46Y46*%
G04 Gerber Fmt 4.6, Leading zero omitted, Abs format (unit mm)*
G04 Created by KiCad (PCBNEW (6.0.8-1)-1) date 2022-11-10 09:52:18*
%MOMM*%
%LPD*%
G01*
G04 APERTURE LIST*
G04 Aperture macros list*
%AMRoundRect*
0 Rectangle with rounded corners*
0 $1 Rounding radius*
0 $2 $3 $4 $5 $6 $7 $8 $9 X,Y pos of 4 corners*
0 Add a 4 corners polygon primitive as box body*
4,1,4,$2,$3,$4,$5,$6,$7,$8,$9,$2,$3,0*
0 Add four circle primitives for the rounded corners*
1,1,$1+$1,$2,$3*
1,1,$1+$1,$4,$5*
1,1,$1+$1,$6,$7*
1,1,$1+$1,$8,$9*
0 Add four rect primitives between the rounded corners*
20,1,$1+$1,$2,$3,$4,$5,0*
20,1,$1+$1,$4,$5,$6,$7,0*
20,1,$1+$1,$6,$7,$8,$9,0*
20,1,$1+$1,$8,$9,$2,$3,0*%
G04 Aperture macros list end*
%TA.AperFunction,ComponentPad*%
%ADD10C,2.000000*%
%TD*%
%TA.AperFunction,ComponentPad*%
%ADD11C,1.600000*%
%TD*%
%TA.AperFunction,ComponentPad*%
%ADD12RoundRect,0.250000X-0.750000X0.600000X-0.750000X-0.600000X0.750000X-0.600000X0.750000X0.600000X0*%
%TD*%
%TA.AperFunction,ComponentPad*%
%ADD13O,2.000000X1.700000*%
%TD*%
%TA.AperFunction,ComponentPad*%
%ADD14R,1.600000X1.600000*%
%TD*%
%TA.AperFunction,ComponentPad*%
%ADD15RoundRect,0.120000X4.980000X1.080000X-4.980000X1.080000X-4.980000X-1.080000X4.980000X-1.080000X0*%
%TD*%
%TA.AperFunction,SMDPad,CuDef*%
%ADD16R,1.000000X1.500000*%
%TD*%
%TA.AperFunction,ComponentPad*%
%ADD17RoundRect,0.437500X-0.437500X0.437500X-0.437500X-0.437500X0.437500X-0.437500X0.437500X0.437500X0*%
%TD*%
%TA.AperFunction,ComponentPad*%
%ADD18R,1.500000X1.050000*%
%TD*%
%TA.AperFunction,ComponentPad*%
%ADD19O,1.500000X1.050000*%
%TD*%
%TA.AperFunction,ComponentPad*%
%ADD20C,2.898140*%
%TD*%
%TA.AperFunction,Conductor*%
%ADD21C,0.250000*%
%TD*%
%TA.AperFunction,Conductor*%
%ADD22C,1.000000*%
%TD*%
G04 APERTURE END LIST*
%TO.C,JP1*%
G36*
X52970000Y-82769000D02*
G01*
X52470000Y-82769000D01*
X52470000Y-82369000D01*
X52970000Y-82369000D01*
X52970000Y-82769000D01*
G37*
G36*
X52970000Y-81969000D02*
G01*
X52470000Y-81969000D01*
X52470000Y-81569000D01*
X52970000Y-81569000D01*
X52970000Y-81969000D01*
G37*
%TD*%
D10*
%TO.P,U1,1,Vin*%
%TO.N,+3.3V*%
X64770000Y-54959000D03*
%TO.P,U1,2,GND*%
%TO.N,GND*%
X67310000Y-54959000D03*
%TO.P,U1,4,-Vo*%
%TO.N,Net-(C3-Pad2)*%
X72390000Y-54959000D03*
%TO.P,U1,5,0V*%
%TO.N,GND*%
X74930000Y-54959000D03*
%TO.P,U1,6,+Vo*%
%TO.N,unconnected-(U1-Pad6)*%
X77470000Y-54959000D03*
%TD*%
D11*
%TO.P,C1,1*%
%TO.N,GND*%
X58674000Y-79268000D03*
%TO.P,C1,2*%
%TO.N,-23V*%
X58674000Y-81768000D03*
%TD*%
D12*
%TO.P,J1,1,Pin_1*%
%TO.N,GND*%
X79248000Y-65532000D03*
D13*
%TO.P,J1,2,Pin_2*%
%TO.N,Net-(J1-Pad2)*%
X79248000Y-68032000D03*
%TD*%
D14*
%TO.P,C3,1*%
%TO.N,GND*%
X58674000Y-56073100D03*
D11*
%TO.P,C3,2*%
%TO.N,Net-(C3-Pad2)*%
X58674000Y-54073100D03*
%TD*%
D15*
%TO.P,U2,1,A_+12V*%
%TO.N,+12V*%
X45931000Y-54233000D03*
%TO.P,U2,2,B_GND*%
%TO.N,GND*%
X45931000Y-58233000D03*
%TO.P,U2,3,C_+12V*%
%TO.N,+12V*%
X45931000Y-62233000D03*
%TO.P,U2,4,D_GND*%
%TO.N,GND*%
X45931000Y-66233000D03*
%TO.P,U2,5,E_-12V*%
%TO.N,-12V*%
X45931000Y-70233000D03*
%TO.P,U2,6,F_-23V*%
%TO.N,-23V*%
X45931000Y-74233000D03*
%TO.P,U2,7,H_NC*%
%TO.N,unconnected-(U2-Pad7)*%
X45931000Y-78233000D03*
%TO.P,U2,8,J_GND_+12V*%
%TO.N,GND_+12V*%
X45931000Y-82233000D03*
%TO.P,U2,9,K_GND*%
%TO.N,GND*%
X45931000Y-86233000D03*
%TO.P,U2,10,L_GND*%
X45931000Y-90233000D03*
%TO.P,U2,11,M_GND*%
X45931000Y-94233000D03*
%TO.P,U2,12,N_GND*%
X45931000Y-98233000D03*
%TO.P,U2,13,P_GND*%
X45931000Y-102233000D03*
%TO.P,U2,14,R_+5V*%
%TO.N,+5V*%
X45931000Y-106233000D03*
%TO.P,U2,15,S_+5V*%
X45931000Y-110233000D03*
%TO.P,U2,16,T_+5V*%
X45931000Y-114233000D03*
%TO.P,U2,17,U_+5V*%
X45931000Y-118233000D03*
%TO.P,U2,18,V_+5V*%
X45931000Y-122233000D03*
%TD*%
D16*
%TO.P,JP1,1,A*%
%TO.N,GND*%
X53370000Y-82169000D03*
%TO.P,JP1,2,B*%
%TO.N,GND_+12V*%
X52070000Y-82169000D03*
%TD*%
D17*
%TO.P,R1,1*%
%TO.N,+5V*%
X57912000Y-99252000D03*
%TO.P,R1,2*%
%TO.N,GND*%
X57912000Y-123252000D03*
%TD*%
D14*
%TO.P,C2,1*%
%TO.N,+3.3V*%
X65973900Y-69088000D03*
D11*
%TO.P,C2,2*%
%TO.N,GND*%
X67973900Y-69088000D03*
%TD*%
D18*
%TO.P,U3,1,Ground*%
%TO.N,GND*%
X58674000Y-65786000D03*
D19*
%TO.P,U3,2,Input*%
%TO.N,Net-(C3-Pad2)*%
X58674000Y-67056000D03*
%TO.P,U3,3,Output*%
%TO.N,-23V*%
X58674000Y-68326000D03*
%TD*%
D20*
%TO.P,J2,1,+3.3V*%
%TO.N,+3.3V*%
X69662040Y-76215240D03*
%TO.P,J2,2,+3.3V*%
X69662040Y-80416400D03*
%TO.P,J2,3,GND*%
%TO.N,GND*%
X69662040Y-84615020D03*
%TO.P,J2,4,+5V*%
%TO.N,+5V*%
X69662040Y-88816180D03*
%TO.P,J2,5,GND*%
%TO.N,GND*%
X69662040Y-93014800D03*
%TO.P,J2,6,+5V*%
%TO.N,+5V*%
X69662040Y-97215960D03*
%TO.P,J2,7,GND*%
%TO.N,GND*%
X69662040Y-101412040D03*
%TO.P,J2,8,PWR_OK*%
%TO.N,unconnected-(J2-Pad8)*%
X69662040Y-105613200D03*
%TO.P,J2,9,+5VSB*%
%TO.N,unconnected-(J2-Pad9)*%
X69662040Y-109811820D03*
%TO.P,J2,10,+12V*%
%TO.N,+12V*%
X69662040Y-114012980D03*
%TO.P,J2,11,+12V*%
X69662040Y-118211600D03*
%TO.P,J2,12,+3.3V*%
%TO.N,+3.3V*%
X69662040Y-122412760D03*
%TO.P,J2,13,+3.3V*%
X64162940Y-76215240D03*
%TO.P,J2,14,-12V*%
%TO.N,-12V*%
X64162940Y-80416400D03*
%TO.P,J2,15,GND*%
%TO.N,GND*%
X64162940Y-84615020D03*
%TO.P,J2,16,PS_ON#*%
%TO.N,Net-(J1-Pad2)*%
X64162940Y-88816180D03*
%TO.P,J2,17,GND*%
%TO.N,GND*%
X64162940Y-93014800D03*
%TO.P,J2,18,GND*%
X64162940Y-97215960D03*
%TO.P,J2,19,GND*%
X64162940Y-101412040D03*
%TO.P,J2,20,NC*%
%TO.N,unconnected-(J2-Pad20)*%
X64162940Y-105613200D03*
%TO.P,J2,21,+5V*%
%TO.N,+5V*%
X64162940Y-109811820D03*
%TO.P,J2,22,+5V*%
X64162940Y-114012980D03*
%TO.P,J2,23,+5V*%
X64162940Y-118211600D03*
%TO.P,J2,24,GND*%
%TO.N,GND*%
X64162940Y-122412760D03*
%TD*%
D21*
%TO.N,Net-(J1-Pad2)*%
X67183000Y-73279000D02*
X67183000Y-85796120D01*
X67183000Y-85796120D02*
X64162940Y-88816180D01*
%TO.N,+3.3V*%
X71486110Y-120588690D02*
X71486110Y-117456045D01*
X64162940Y-70898960D02*
X65973900Y-69088000D01*
X68906485Y-115837050D02*
X67837970Y-114768535D01*
X64770000Y-54959000D02*
X64770000Y-67884100D01*
X64162940Y-76215240D02*
X64162940Y-70898960D01*
X69662040Y-122412760D02*
X71486110Y-120588690D01*
X71486110Y-117456045D02*
X69867115Y-115837050D01*
X64770000Y-67884100D02*
X65973900Y-69088000D01*
X69867115Y-115837050D02*
X68906485Y-115837050D01*
X67837970Y-82240470D02*
X69662040Y-80416400D01*
X69662040Y-80416400D02*
X69662040Y-76215240D01*
X67837970Y-114768535D02*
X67837970Y-82240470D01*
%TO.N,-23V*%
X55838000Y-68326000D02*
X58674000Y-68326000D01*
X59799000Y-69451000D02*
X58674000Y-68326000D01*
X58674000Y-81768000D02*
X59799000Y-80643000D01*
X49931000Y-74233000D02*
X55838000Y-68326000D01*
X59799000Y-80643000D02*
X59799000Y-69451000D01*
%TO.N,Net-(J1-Pad2)*%
X67183000Y-73279000D02*
X72430000Y-68032000D01*
X72430000Y-68032000D02*
X79248000Y-68032000D01*
D22*
%TO.N,+5V*%
X64162940Y-118211600D02*
X64162940Y-114012980D01*
X64162940Y-114012980D02*
X64162940Y-109811820D01*
%TO.N,GND_+12V*%
X52006000Y-82233000D02*
X52070000Y-82169000D01*
X49931000Y-82233000D02*
X52006000Y-82233000D01*
D21*
%TO.N,Net-(C3-Pad2)*%
X59799000Y-66820000D02*
X59563000Y-67056000D01*
X58674000Y-54073100D02*
X58924000Y-54073100D01*
X58924000Y-54073100D02*
X59799000Y-54948100D01*
X59563000Y-67056000D02*
X58674000Y-67056000D01*
X59799000Y-54948100D02*
X59799000Y-66820000D01*
%TD*%
%TA.AperFunction,Conductor*%
%TO.N,GND*%
G36*
X83075898Y-51259515D02*
G01*
X83100141Y-51279808D01*
X83151363Y-51335008D01*
X83183035Y-51398546D01*
X83185000Y-51420711D01*
X83185000Y-125085683D01*
X83164998Y-125153804D01*
X83148095Y-125174778D01*
X83138278Y-125184595D01*
X83075966Y-125218621D01*
X83049183Y-125221500D01*
X53720000Y-125221500D01*
X53651879Y-125201498D01*
X53605386Y-125147842D01*
X53594000Y-125095500D01*
X53594000Y-123741330D01*
X56529001Y-123741330D01*
X56529251Y-123746930D01*
X56538611Y-123851826D01*
X56540796Y-123863558D01*
X56590331Y-124036309D01*
X56595042Y-124048087D01*
X56678127Y-124207014D01*
X56685112Y-124217607D01*
X56798454Y-124356577D01*
X56807423Y-124365546D01*
X56946393Y-124478888D01*
X56956986Y-124485873D01*
X57115913Y-124568958D01*
X57127691Y-124573669D01*
X57300439Y-124623203D01*
X57312175Y-124625389D01*
X57417072Y-124634751D01*
X57422667Y-124635000D01*
X57639885Y-124635000D01*
X57655124Y-124630525D01*
X57656329Y-124629135D01*
X57658000Y-124621452D01*
X57658000Y-124616884D01*
X58166000Y-124616884D01*
X58170475Y-124632123D01*
X58171865Y-124633328D01*
X58179548Y-124634999D01*
X58401330Y-124634999D01*
X58406930Y-124634749D01*
X58511826Y-124625389D01*
X58523558Y-124623204D01*
X58696309Y-124573669D01*
X58708087Y-124568958D01*
X58867014Y-124485873D01*
X58877607Y-124478888D01*
X59016577Y-124365546D01*
X59025546Y-124356577D01*
X59138888Y-124217607D01*
X59145873Y-124207014D01*
X59228958Y-124048087D01*
X59233669Y-124036309D01*
X59253988Y-123965447D01*
X62975420Y-123965447D01*
X62982810Y-123975749D01*
X63031283Y-124015212D01*
X63038562Y-124020327D01*
X63268360Y-124158677D01*
X63276284Y-124162714D01*
X63523289Y-124267308D01*
X63531694Y-124270186D01*
X63790983Y-124338934D01*
X63799704Y-124340598D01*
X64066098Y-124372128D01*
X64074963Y-124372546D01*
X64343128Y-124366226D01*
X64351988Y-124365389D01*
X64616574Y-124321350D01*
X64625231Y-124319271D01*
X64880980Y-124238389D01*
X64889241Y-124235118D01*
X65131045Y-124119005D01*
X65138770Y-124114599D01*
X65343587Y-123977745D01*
X65351875Y-123967827D01*
X65344618Y-123953648D01*
X64175752Y-122784782D01*
X64161808Y-122777168D01*
X64159975Y-122777299D01*
X64153360Y-122781550D01*
X62982586Y-123952324D01*
X62975420Y-123965447D01*
X59253988Y-123965447D01*
X59283203Y-123863561D01*
X59285389Y-123851825D01*
X59294751Y-123746928D01*
X59295000Y-123741333D01*
X59295000Y-123524115D01*
X59290525Y-123508876D01*
X59289135Y-123507671D01*
X59281452Y-123506000D01*
X58184115Y-123506000D01*
X58168876Y-123510475D01*
X58167671Y-123511865D01*
X58166000Y-123519548D01*
X58166000Y-124616884D01*
X57658000Y-124616884D01*
X57658000Y-123524115D01*
X57653525Y-123508876D01*
X57652135Y-123507671D01*
X57644452Y-123506000D01*
X56547116Y-123506000D01*
X56531877Y-123510475D01*
X56530672Y-123511865D01*
X56529001Y-123519548D01*
X56529001Y-123741330D01*
X53594000Y-123741330D01*
X53594000Y-122979885D01*
X56529000Y-122979885D01*
X56533475Y-122995124D01*
X56534865Y-122996329D01*
X56542548Y-122998000D01*
X57639885Y-122998000D01*
X57655124Y-122993525D01*
X57656329Y-122992135D01*
X57658000Y-122984452D01*
X57658000Y-122979885D01*
X58166000Y-122979885D01*
X58170475Y-122995124D01*
X58171865Y-122996329D01*
X58179548Y-122998000D01*
X59276884Y-122998000D01*
X59292123Y-122993525D01*
X59293328Y-122992135D01*
X59294999Y-122984452D01*
X59294999Y-122762670D01*
X59294749Y-122757070D01*
X59285389Y-122652174D01*
X59283204Y-122640442D01*
X59233669Y-122467691D01*
X59228958Y-122455913D01*
X59176506Y-122355582D01*
X62202014Y-122355582D01*
X62212545Y-122623617D01*
X62213520Y-122632446D01*
X62261713Y-122896327D01*
X62263922Y-122904929D01*
X62348814Y-123159382D01*
X62352218Y-123167600D01*
X62472116Y-123407554D01*
X62476634Y-123415193D01*
X62599019Y-123592271D01*
X62609337Y-123600622D01*
X62622992Y-123593498D01*
X63790918Y-122425572D01*
X63797296Y-122413892D01*
X64527348Y-122413892D01*
X64527479Y-122415725D01*
X64531730Y-122422340D01*
X65703286Y-123593896D01*
X65716686Y-123601213D01*
X65726591Y-123594226D01*
X65747422Y-123569443D01*
X65752642Y-123562258D01*
X65894595Y-123334645D01*
X65898747Y-123326805D01*
X66007215Y-123081454D01*
X66010221Y-123073104D01*
X66083034Y-122814928D01*
X66084835Y-122806235D01*
X66120710Y-122539141D01*
X66121238Y-122532748D01*
X66124908Y-122415982D01*
X66124781Y-122409539D01*
X66105750Y-122140751D01*
X66104497Y-122131948D01*
X66048039Y-121869712D01*
X66045560Y-121861179D01*
X65952717Y-121609517D01*
X65949062Y-121601422D01*
X65821686Y-121365353D01*
X65816924Y-121357848D01*
X65725787Y-121234458D01*
X65714662Y-121226018D01*
X65702066Y-121232844D01*
X64534962Y-122399948D01*
X64527348Y-122413892D01*
X63797296Y-122413892D01*
X63798532Y-122411628D01*
X63798401Y-122409795D01*
X63794150Y-122403180D01*
X62623817Y-121232847D01*
X62610977Y-121225836D01*
X62600285Y-121233633D01*
X62542910Y-121306414D01*
X62537915Y-121313763D01*
X62403179Y-121545728D01*
X62399280Y-121553686D01*
X62298575Y-121802314D01*
X62295826Y-121810776D01*
X62231163Y-122071096D01*
X62229634Y-122079857D01*
X62202293Y-122346699D01*
X62202014Y-122355582D01*
X59176506Y-122355582D01*
X59145873Y-122296986D01*
X59138888Y-122286393D01*
X59025546Y-122147423D01*
X59016577Y-122138454D01*
X58877607Y-122025112D01*
X58867014Y-122018127D01*
X58708087Y-121935042D01*
X58696309Y-121930331D01*
X58523561Y-121880797D01*
X58511825Y-121878611D01*
X58406928Y-121869249D01*
X58401333Y-121869000D01*
X58184115Y-121869000D01*
X58168876Y-121873475D01*
X58167671Y-121874865D01*
X58166000Y-121882548D01*
X58166000Y-122979885D01*
X57658000Y-122979885D01*
X57658000Y-121887116D01*
X57653525Y-121871877D01*
X57652135Y-121870672D01*
X57644452Y-121869001D01*
X57422670Y-121869001D01*
X57417070Y-121869251D01*
X57312174Y-121878611D01*
X57300442Y-121880796D01*
X57127691Y-121930331D01*
X57115913Y-121935042D01*
X56956986Y-122018127D01*
X56946393Y-122025112D01*
X56807423Y-122138454D01*
X56798454Y-122147423D01*
X56685112Y-122286393D01*
X56678127Y-122296986D01*
X56595042Y-122455913D01*
X56590331Y-122467691D01*
X56540797Y-122640439D01*
X56538611Y-122652175D01*
X56529249Y-122757072D01*
X56529000Y-122762667D01*
X56529000Y-122979885D01*
X53594000Y-122979885D01*
X53594000Y-120860272D01*
X62975807Y-120860272D01*
X62982787Y-120873397D01*
X64150128Y-122040738D01*
X64164072Y-122048352D01*
X64165905Y-122048221D01*
X64172520Y-122043970D01*
X65342755Y-120873735D01*
X65349609Y-120861183D01*
X65341402Y-120850113D01*
X65243702Y-120775550D01*
X65236277Y-120770673D01*
X65002238Y-120639605D01*
X64994185Y-120635816D01*
X64744022Y-120539035D01*
X64735532Y-120536423D01*
X64474214Y-120475853D01*
X64465436Y-120474463D01*
X64198191Y-120451317D01*
X64189320Y-120451177D01*
X63921471Y-120465918D01*
X63912661Y-120467032D01*
X63649575Y-120519362D01*
X63641000Y-120521708D01*
X63387916Y-120610584D01*
X63379749Y-120614118D01*
X63141713Y-120737769D01*
X63134141Y-120742409D01*
X62984210Y-120849550D01*
X62975807Y-120860272D01*
X53594000Y-120860272D01*
X53594000Y-118149954D01*
X62201338Y-118149954D01*
X62212222Y-118426961D01*
X62262028Y-118699671D01*
X62349762Y-118962643D01*
X62473674Y-119210629D01*
X62631291Y-119438682D01*
X62819468Y-119642252D01*
X62822922Y-119645064D01*
X63030995Y-119814462D01*
X63030999Y-119814465D01*
X63034452Y-119817276D01*
X63271952Y-119960263D01*
X63276047Y-119961997D01*
X63276049Y-119961998D01*
X63451640Y-120036351D01*
X63527229Y-120068359D01*
X63531522Y-120069497D01*
X63531527Y-120069499D01*
X63671302Y-120106559D01*
X63795191Y-120139407D01*
X64070490Y-120171991D01*
X64347634Y-120165460D01*
X64504160Y-120139407D01*
X64616703Y-120120675D01*
X64616707Y-120120674D01*
X64621093Y-120119944D01*
X64625334Y-120118603D01*
X64625337Y-120118602D01*
X64881164Y-120037694D01*
X64881166Y-120037693D01*
X64885410Y-120036351D01*
X64889421Y-120034425D01*
X64889426Y-120034423D01*
X65131293Y-119918280D01*
X65131294Y-119918279D01*
X65135312Y-119916350D01*
X65161147Y-119899088D01*
X65362105Y-119764813D01*
X65362109Y-119764810D01*
X65365813Y-119762335D01*
X65369130Y-119759364D01*
X65369134Y-119759361D01*
X65568995Y-119580350D01*
X65568996Y-119580349D01*
X65572313Y-119577378D01*
X65750692Y-119365170D01*
X65897392Y-119129945D01*
X66009484Y-118876397D01*
X66084733Y-118609584D01*
X66108674Y-118431341D01*
X66121210Y-118338013D01*
X66121211Y-118338005D01*
X66121637Y-118334831D01*
X66125510Y-118211600D01*
X66105931Y-117935071D01*
X66047584Y-117664060D01*
X65965825Y-117442443D01*
X65953174Y-117408151D01*
X65951633Y-117403974D01*
X65819993Y-117160002D01*
X65817352Y-117156427D01*
X65817348Y-117156420D01*
X65657943Y-116940605D01*
X65655290Y-116937013D01*
X65613207Y-116894263D01*
X65463942Y-116742636D01*
X65460811Y-116739455D01*
X65457272Y-116736754D01*
X65457265Y-116736748D01*
X65243981Y-116573975D01*
X65243977Y-116573972D01*
X65240436Y-116571270D01*
X65235879Y-116568718D01*
X65235702Y-116568537D01*
X65232826Y-116566648D01*
X65233238Y-116566020D01*
X65186216Y-116517986D01*
X65171440Y-116458781D01*
X65171440Y-115760939D01*
X65191442Y-115692818D01*
X65227438Y-115656174D01*
X65362105Y-115566193D01*
X65362109Y-115566190D01*
X65365813Y-115563715D01*
X65369130Y-115560744D01*
X65369134Y-115560741D01*
X65568995Y-115381730D01*
X65568996Y-115381729D01*
X65572313Y-115378758D01*
X65750692Y-115166550D01*
X65897392Y-114931325D01*
X65902636Y-114919465D01*
X65995926Y-114708444D01*
X66009484Y-114677777D01*
X66084733Y-114410964D01*
X66108674Y-114232721D01*
X66121210Y-114139393D01*
X66121211Y-114139385D01*
X66121637Y-114136211D01*
X66125510Y-114012980D01*
X66105931Y-113736451D01*
X66047584Y-113465440D01*
X65951633Y-113205354D01*
X65819993Y-112961382D01*
X65817352Y-112957807D01*
X65817348Y-112957800D01*
X65657943Y-112741985D01*
X65655290Y-112738393D01*
X65613207Y-112695643D01*
X65463942Y-112544016D01*
X65460811Y-112540835D01*
X65457272Y-112538134D01*
X65457265Y-112538128D01*
X65243981Y-112375355D01*
X65243977Y-112375352D01*
X65240436Y-112372650D01*
X65235879Y-112370098D01*
X65235702Y-112369917D01*
X65232826Y-112368028D01*
X65233238Y-112367400D01*
X65186216Y-112319366D01*
X65171440Y-112260161D01*
X65171440Y-111559779D01*
X65191442Y-111491658D01*
X65227438Y-111455014D01*
X65362105Y-111365033D01*
X65362109Y-111365030D01*
X65365813Y-111362555D01*
X65369130Y-111359584D01*
X65369134Y-111359581D01*
X65568995Y-111180570D01*
X65568996Y-111180569D01*
X65572313Y-111177598D01*
X65750692Y-110965390D01*
X65897392Y-110730165D01*
X66009484Y-110476617D01*
X66084733Y-110209804D01*
X66108674Y-110031561D01*
X66121210Y-109938233D01*
X66121211Y-109938225D01*
X66121637Y-109935051D01*
X66125510Y-109811820D01*
X66105931Y-109535291D01*
X66047584Y-109264280D01*
X65951633Y-109004194D01*
X65819993Y-108760222D01*
X65817352Y-108756647D01*
X65817348Y-108756640D01*
X65657943Y-108540825D01*
X65655290Y-108537233D01*
X65642756Y-108524500D01*
X65463942Y-108342856D01*
X65460811Y-108339675D01*
X65457272Y-108336974D01*
X65457265Y-108336968D01*
X65243976Y-108174192D01*
X65240436Y-108171490D01*
X65188244Y-108142261D01*
X65002453Y-108038213D01*
X65002452Y-108038213D01*
X64998562Y-108036034D01*
X64948833Y-108016795D01*
X64744170Y-107937616D01*
X64744164Y-107937614D01*
X64740015Y-107936009D01*
X64735683Y-107935005D01*
X64735680Y-107935004D01*
X64625345Y-107909430D01*
X64469954Y-107873412D01*
X64193767Y-107849492D01*
X64189332Y-107849736D01*
X64189328Y-107849736D01*
X64076885Y-107855924D01*
X63916965Y-107864725D01*
X63645071Y-107918809D01*
X63523395Y-107961538D01*
X63387716Y-108009184D01*
X63387708Y-108009187D01*
X63383509Y-108010662D01*
X63379556Y-108012715D01*
X63379550Y-108012718D01*
X63330471Y-108038213D01*
X63137500Y-108138454D01*
X63133885Y-108141037D01*
X63133879Y-108141041D01*
X62991374Y-108242877D01*
X62911951Y-108299634D01*
X62711362Y-108490986D01*
X62708606Y-108494482D01*
X62708605Y-108494483D01*
X62682731Y-108527304D01*
X62539736Y-108708692D01*
X62537499Y-108712544D01*
X62402732Y-108944562D01*
X62402729Y-108944568D01*
X62400498Y-108948409D01*
X62296425Y-109205353D01*
X62295354Y-109209666D01*
X62295352Y-109209671D01*
X62249045Y-109396091D01*
X62229594Y-109474397D01*
X62201338Y-109750174D01*
X62212222Y-110027181D01*
X62262028Y-110299891D01*
X62349762Y-110562863D01*
X62473674Y-110810849D01*
X62631291Y-111038902D01*
X62819468Y-111242472D01*
X62822922Y-111245284D01*
X63030995Y-111414682D01*
X63030999Y-111414685D01*
X63034452Y-111417496D01*
X63038274Y-111419797D01*
X63093429Y-111453003D01*
X63141472Y-111505274D01*
X63154440Y-111560949D01*
X63154440Y-112262684D01*
X63134438Y-112330805D01*
X63101699Y-112365198D01*
X63000540Y-112437487D01*
X62915572Y-112498206D01*
X62915569Y-112498209D01*
X62911951Y-112500794D01*
X62872815Y-112538128D01*
X62752984Y-112652441D01*
X62711362Y-112692146D01*
X62539736Y-112909852D01*
X62537499Y-112913704D01*
X62402732Y-113145722D01*
X62402729Y-113145728D01*
X62400498Y-113149569D01*
X62296425Y-113406513D01*
X62295354Y-113410826D01*
X62295352Y-113410831D01*
X62249045Y-113597251D01*
X62229594Y-113675557D01*
X62201338Y-113951334D01*
X62212222Y-114228341D01*
X62262028Y-114501051D01*
X62349762Y-114764023D01*
X62401928Y-114868424D01*
X62457519Y-114979677D01*
X62473674Y-115012009D01*
X62631291Y-115240062D01*
X62819468Y-115443632D01*
X62822922Y-115446444D01*
X63030995Y-115615842D01*
X63030999Y-115615845D01*
X63034452Y-115618656D01*
X63038274Y-115620957D01*
X63093429Y-115654163D01*
X63141472Y-115706434D01*
X63154440Y-115762109D01*
X63154440Y-116461304D01*
X63134438Y-116529425D01*
X63101699Y-116563818D01*
X63000540Y-116636107D01*
X62915572Y-116696826D01*
X62915569Y-116696829D01*
X62911951Y-116699414D01*
X62711362Y-116890766D01*
X62708606Y-116894262D01*
X62708605Y-116894263D01*
X62568876Y-117071508D01*
X62539736Y-117108472D01*
X62485148Y-117202452D01*
X62402732Y-117344342D01*
X62402729Y-117344348D01*
X62400498Y-117348189D01*
X62398828Y-117352312D01*
X62324908Y-117534813D01*
X62296425Y-117605133D01*
X62295354Y-117609446D01*
X62295352Y-117609451D01*
X62249045Y-117795871D01*
X62229594Y-117874177D01*
X62201338Y-118149954D01*
X53594000Y-118149954D01*
X53594000Y-105551554D01*
X62201338Y-105551554D01*
X62212222Y-105828561D01*
X62262028Y-106101271D01*
X62349762Y-106364243D01*
X62473674Y-106612229D01*
X62631291Y-106840282D01*
X62819468Y-107043852D01*
X62822922Y-107046664D01*
X63030995Y-107216062D01*
X63030999Y-107216065D01*
X63034452Y-107218876D01*
X63271952Y-107361863D01*
X63276047Y-107363597D01*
X63276049Y-107363598D01*
X63451640Y-107437951D01*
X63527229Y-107469959D01*
X63531522Y-107471097D01*
X63531527Y-107471099D01*
X63671302Y-107508159D01*
X63795191Y-107541007D01*
X64070490Y-107573591D01*
X64347634Y-107567060D01*
X64504160Y-107541007D01*
X64616703Y-107522275D01*
X64616707Y-107522274D01*
X64621093Y-107521544D01*
X64625334Y-107520203D01*
X64625337Y-107520202D01*
X64881164Y-107439294D01*
X64881166Y-107439293D01*
X64885410Y-107437951D01*
X64889421Y-107436025D01*
X64889426Y-107436023D01*
X65131293Y-107319880D01*
X65131294Y-107319879D01*
X65135312Y-107317950D01*
X65139018Y-107315474D01*
X65362105Y-107166413D01*
X65362109Y-107166410D01*
X65365813Y-107163935D01*
X65369130Y-107160964D01*
X65369134Y-107160961D01*
X65568995Y-106981950D01*
X65568996Y-106981949D01*
X65572313Y-106978978D01*
X65750692Y-106766770D01*
X65897392Y-106531545D01*
X66009484Y-106277997D01*
X66084733Y-106011184D01*
X66108674Y-105832941D01*
X66121210Y-105739613D01*
X66121211Y-105739605D01*
X66121637Y-105736431D01*
X66125510Y-105613200D01*
X66105931Y-105336671D01*
X66047584Y-105065660D01*
X65951633Y-104805574D01*
X65819993Y-104561602D01*
X65817352Y-104558027D01*
X65817348Y-104558020D01*
X65657943Y-104342205D01*
X65655290Y-104338613D01*
X65613207Y-104295863D01*
X65463942Y-104144236D01*
X65460811Y-104141055D01*
X65457272Y-104138354D01*
X65457265Y-104138348D01*
X65243976Y-103975572D01*
X65240436Y-103972870D01*
X65188244Y-103943641D01*
X65002453Y-103839593D01*
X65002452Y-103839593D01*
X64998562Y-103837414D01*
X64948833Y-103818175D01*
X64744170Y-103738996D01*
X64744164Y-103738994D01*
X64740015Y-103737389D01*
X64735683Y-103736385D01*
X64735680Y-103736384D01*
X64625345Y-103710810D01*
X64469954Y-103674792D01*
X64193767Y-103650872D01*
X64189332Y-103651116D01*
X64189328Y-103651116D01*
X64076885Y-103657304D01*
X63916965Y-103666105D01*
X63645071Y-103720189D01*
X63523395Y-103762918D01*
X63387716Y-103810564D01*
X63387708Y-103810567D01*
X63383509Y-103812042D01*
X63379556Y-103814095D01*
X63379550Y-103814098D01*
X63330471Y-103839593D01*
X63137500Y-103939834D01*
X63133885Y-103942417D01*
X63133879Y-103942421D01*
X62991374Y-104044257D01*
X62911951Y-104101014D01*
X62711362Y-104292366D01*
X62539736Y-104510072D01*
X62537499Y-104513924D01*
X62402732Y-104745942D01*
X62402729Y-104745948D01*
X62400498Y-104749789D01*
X62398828Y-104753912D01*
X62339086Y-104901409D01*
X62296425Y-105006733D01*
X62295354Y-105011046D01*
X62295352Y-105011051D01*
X62275858Y-105089530D01*
X62229594Y-105275777D01*
X62201338Y-105551554D01*
X53594000Y-105551554D01*
X53594000Y-103378000D01*
X50672000Y-103378000D01*
X50603879Y-103357998D01*
X50557386Y-103304342D01*
X50546000Y-103252000D01*
X50546000Y-102964727D01*
X62975420Y-102964727D01*
X62982810Y-102975029D01*
X63031283Y-103014492D01*
X63038562Y-103019607D01*
X63268360Y-103157957D01*
X63276284Y-103161994D01*
X63523289Y-103266588D01*
X63531694Y-103269466D01*
X63790983Y-103338214D01*
X63799704Y-103339878D01*
X64066098Y-103371408D01*
X64074963Y-103371826D01*
X64343128Y-103365506D01*
X64351988Y-103364669D01*
X64616574Y-103320630D01*
X64625231Y-103318551D01*
X64880980Y-103237669D01*
X64889241Y-103234398D01*
X65131045Y-103118285D01*
X65138770Y-103113879D01*
X65343587Y-102977025D01*
X65351875Y-102967107D01*
X65344618Y-102952928D01*
X64175752Y-101784062D01*
X64161808Y-101776448D01*
X64159975Y-101776579D01*
X64153360Y-101780830D01*
X62982586Y-102951604D01*
X62975420Y-102964727D01*
X50546000Y-102964727D01*
X50546000Y-101354862D01*
X62202014Y-101354862D01*
X62212545Y-101622897D01*
X62213520Y-101631726D01*
X62261713Y-101895607D01*
X62263922Y-101904209D01*
X62348814Y-102158662D01*
X62352218Y-102166880D01*
X62472116Y-102406834D01*
X62476634Y-102414473D01*
X62599019Y-102591551D01*
X62609337Y-102599902D01*
X62622992Y-102592778D01*
X63790918Y-101424852D01*
X63797296Y-101413172D01*
X64527348Y-101413172D01*
X64527479Y-101415005D01*
X64531730Y-101421620D01*
X65703286Y-102593176D01*
X65716686Y-102600493D01*
X65726591Y-102593506D01*
X65747422Y-102568723D01*
X65752642Y-102561538D01*
X65894595Y-102333925D01*
X65898747Y-102326085D01*
X66007215Y-102080734D01*
X66010221Y-102072384D01*
X66083034Y-101814208D01*
X66084835Y-101805515D01*
X66120710Y-101538421D01*
X66121238Y-101532028D01*
X66124908Y-101415262D01*
X66124781Y-101408819D01*
X66105750Y-101140031D01*
X66104497Y-101131228D01*
X66048039Y-100868992D01*
X66045560Y-100860459D01*
X65952717Y-100608797D01*
X65949062Y-100600702D01*
X65821686Y-100364633D01*
X65816924Y-100357128D01*
X65725787Y-100233738D01*
X65714662Y-100225298D01*
X65702066Y-100232124D01*
X64534962Y-101399228D01*
X64527348Y-101413172D01*
X63797296Y-101413172D01*
X63798532Y-101410908D01*
X63798401Y-101409075D01*
X63794150Y-101402460D01*
X62623817Y-100232127D01*
X62610977Y-100225116D01*
X62600285Y-100232913D01*
X62542910Y-100305694D01*
X62537915Y-100313043D01*
X62403179Y-100545008D01*
X62399280Y-100552966D01*
X62298575Y-100801594D01*
X62295826Y-100810056D01*
X62231163Y-101070376D01*
X62229634Y-101079137D01*
X62202293Y-101345979D01*
X62202014Y-101354862D01*
X50546000Y-101354862D01*
X50546000Y-99744168D01*
X56528500Y-99744168D01*
X56538649Y-99857886D01*
X56591622Y-100042626D01*
X56680661Y-100212941D01*
X56684690Y-100217881D01*
X56684692Y-100217884D01*
X56762302Y-100313043D01*
X56802127Y-100361873D01*
X56807067Y-100365902D01*
X56946116Y-100479308D01*
X56946119Y-100479310D01*
X56951059Y-100483339D01*
X57121374Y-100572378D01*
X57127502Y-100574135D01*
X57127504Y-100574136D01*
X57220152Y-100600702D01*
X57306114Y-100625351D01*
X57312086Y-100625884D01*
X57417039Y-100635251D01*
X57417045Y-100635251D01*
X57419832Y-100635500D01*
X58404168Y-100635500D01*
X58406955Y-100635251D01*
X58406961Y-100635251D01*
X58511914Y-100625884D01*
X58517886Y-100625351D01*
X58603848Y-100600702D01*
X58696496Y-100574136D01*
X58696498Y-100574135D01*
X58702626Y-100572378D01*
X58872941Y-100483339D01*
X58877881Y-100479310D01*
X58877884Y-100479308D01*
X59016933Y-100365902D01*
X59021873Y-100361873D01*
X59061698Y-100313043D01*
X59139308Y-100217884D01*
X59139310Y-100217881D01*
X59143339Y-100212941D01*
X59232378Y-100042626D01*
X59284873Y-99859552D01*
X62975807Y-99859552D01*
X62982787Y-99872677D01*
X64150128Y-101040018D01*
X64164072Y-101047632D01*
X64165905Y-101047501D01*
X64172520Y-101043250D01*
X65342755Y-99873015D01*
X65349609Y-99860463D01*
X65341402Y-99849393D01*
X65243702Y-99774830D01*
X65236277Y-99769953D01*
X65002238Y-99638885D01*
X64994185Y-99635096D01*
X64744022Y-99538315D01*
X64735532Y-99535703D01*
X64474214Y-99475133D01*
X64465436Y-99473743D01*
X64198191Y-99450597D01*
X64189320Y-99450457D01*
X63921471Y-99465198D01*
X63912661Y-99466312D01*
X63649575Y-99518642D01*
X63641000Y-99520988D01*
X63387916Y-99609864D01*
X63379749Y-99613398D01*
X63141713Y-99737049D01*
X63134141Y-99741689D01*
X62984210Y-99848830D01*
X62975807Y-99859552D01*
X59284873Y-99859552D01*
X59285351Y-99857886D01*
X59295500Y-99744168D01*
X59295500Y-98768647D01*
X62975420Y-98768647D01*
X62982810Y-98778949D01*
X63031283Y-98818412D01*
X63038562Y-98823527D01*
X63268360Y-98961877D01*
X63276284Y-98965914D01*
X63523289Y-99070508D01*
X63531694Y-99073386D01*
X63790983Y-99142134D01*
X63799704Y-99143798D01*
X64066098Y-99175328D01*
X64074963Y-99175746D01*
X64343128Y-99169426D01*
X64351988Y-99168589D01*
X64616574Y-99124550D01*
X64625231Y-99122471D01*
X64880980Y-99041589D01*
X64889241Y-99038318D01*
X65131045Y-98922205D01*
X65138770Y-98917799D01*
X65343587Y-98780945D01*
X65351875Y-98771027D01*
X65344618Y-98756848D01*
X64175752Y-97587982D01*
X64161808Y-97580368D01*
X64159975Y-97580499D01*
X64153360Y-97584750D01*
X62982586Y-98755524D01*
X62975420Y-98768647D01*
X59295500Y-98768647D01*
X59295500Y-98759832D01*
X59285351Y-98646114D01*
X59232378Y-98461374D01*
X59143339Y-98291059D01*
X59021873Y-98142127D01*
X59007010Y-98130005D01*
X58877884Y-98024692D01*
X58877881Y-98024690D01*
X58872941Y-98020661D01*
X58702626Y-97931622D01*
X58696498Y-97929865D01*
X58696496Y-97929864D01*
X58600585Y-97902362D01*
X58517886Y-97878649D01*
X58511914Y-97878116D01*
X58406961Y-97868749D01*
X58406955Y-97868749D01*
X58404168Y-97868500D01*
X57419832Y-97868500D01*
X57417045Y-97868749D01*
X57417039Y-97868749D01*
X57312086Y-97878116D01*
X57306114Y-97878649D01*
X57223415Y-97902362D01*
X57127504Y-97929864D01*
X57127502Y-97929865D01*
X57121374Y-97931622D01*
X56951059Y-98020661D01*
X56946119Y-98024690D01*
X56946116Y-98024692D01*
X56816990Y-98130005D01*
X56802127Y-98142127D01*
X56680661Y-98291059D01*
X56591622Y-98461374D01*
X56538649Y-98646114D01*
X56528500Y-98759832D01*
X56528500Y-99744168D01*
X50546000Y-99744168D01*
X50546000Y-97158782D01*
X62202014Y-97158782D01*
X62212545Y-97426817D01*
X62213520Y-97435646D01*
X62261713Y-97699527D01*
X62263922Y-97708129D01*
X62348814Y-97962582D01*
X62352218Y-97970800D01*
X62472116Y-98210754D01*
X62476634Y-98218393D01*
X62599019Y-98395471D01*
X62609337Y-98403822D01*
X62622992Y-98396698D01*
X63790918Y-97228772D01*
X63797296Y-97217092D01*
X64527348Y-97217092D01*
X64527479Y-97218925D01*
X64531730Y-97225540D01*
X65703286Y-98397096D01*
X65716686Y-98404413D01*
X65726591Y-98397426D01*
X65747422Y-98372643D01*
X65752642Y-98365458D01*
X65894595Y-98137845D01*
X65898747Y-98130005D01*
X66007215Y-97884654D01*
X66010221Y-97876304D01*
X66083034Y-97618128D01*
X66084835Y-97609435D01*
X66120710Y-97342341D01*
X66121238Y-97335948D01*
X66124908Y-97219182D01*
X66124781Y-97212739D01*
X66105750Y-96943951D01*
X66104497Y-96935148D01*
X66048039Y-96672912D01*
X66045560Y-96664379D01*
X65952717Y-96412717D01*
X65949062Y-96404622D01*
X65821686Y-96168553D01*
X65816924Y-96161048D01*
X65725787Y-96037658D01*
X65714662Y-96029218D01*
X65702066Y-96036044D01*
X64534962Y-97203148D01*
X64527348Y-97217092D01*
X63797296Y-97217092D01*
X63798532Y-97214828D01*
X63798401Y-97212995D01*
X63794150Y-97206380D01*
X62623817Y-96036047D01*
X62610977Y-96029036D01*
X62600285Y-96036833D01*
X62542910Y-96109614D01*
X62537915Y-96116963D01*
X62403179Y-96348928D01*
X62399280Y-96356886D01*
X62298575Y-96605514D01*
X62295826Y-96613976D01*
X62231163Y-96874296D01*
X62229634Y-96883057D01*
X62202293Y-97149899D01*
X62202014Y-97158782D01*
X50546000Y-97158782D01*
X50546000Y-95663472D01*
X62975807Y-95663472D01*
X62982787Y-95676597D01*
X64150128Y-96843938D01*
X64164072Y-96851552D01*
X64165905Y-96851421D01*
X64172520Y-96847170D01*
X65342755Y-95676935D01*
X65349609Y-95664383D01*
X65341402Y-95653313D01*
X65243702Y-95578750D01*
X65236277Y-95573873D01*
X65002238Y-95442805D01*
X64994185Y-95439016D01*
X64744022Y-95342235D01*
X64735532Y-95339623D01*
X64474214Y-95279053D01*
X64465436Y-95277663D01*
X64198191Y-95254517D01*
X64189320Y-95254377D01*
X63921471Y-95269118D01*
X63912661Y-95270232D01*
X63649575Y-95322562D01*
X63641000Y-95324908D01*
X63387916Y-95413784D01*
X63379749Y-95417318D01*
X63141713Y-95540969D01*
X63134141Y-95545609D01*
X62984210Y-95652750D01*
X62975807Y-95663472D01*
X50546000Y-95663472D01*
X50546000Y-94567487D01*
X62975420Y-94567487D01*
X62982810Y-94577789D01*
X63031283Y-94617252D01*
X63038562Y-94622367D01*
X63268360Y-94760717D01*
X63276284Y-94764754D01*
X63523289Y-94869348D01*
X63531694Y-94872226D01*
X63790983Y-94940974D01*
X63799704Y-94942638D01*
X64066098Y-94974168D01*
X64074963Y-94974586D01*
X64343128Y-94968266D01*
X64351988Y-94967429D01*
X64616574Y-94923390D01*
X64625231Y-94921311D01*
X64880980Y-94840429D01*
X64889241Y-94837158D01*
X65131045Y-94721045D01*
X65138770Y-94716639D01*
X65343587Y-94579785D01*
X65351875Y-94569867D01*
X65344618Y-94555688D01*
X64175752Y-93386822D01*
X64161808Y-93379208D01*
X64159975Y-93379339D01*
X64153360Y-93383590D01*
X62982586Y-94554364D01*
X62975420Y-94567487D01*
X50546000Y-94567487D01*
X50546000Y-92957622D01*
X62202014Y-92957622D01*
X62212545Y-93225657D01*
X62213520Y-93234486D01*
X62261713Y-93498367D01*
X62263922Y-93506969D01*
X62348814Y-93761422D01*
X62352218Y-93769640D01*
X62472116Y-94009594D01*
X62476634Y-94017233D01*
X62599019Y-94194311D01*
X62609337Y-94202662D01*
X62622992Y-94195538D01*
X63790918Y-93027612D01*
X63797296Y-93015932D01*
X64527348Y-93015932D01*
X64527479Y-93017765D01*
X64531730Y-93024380D01*
X65703286Y-94195936D01*
X65716686Y-94203253D01*
X65726591Y-94196266D01*
X65747422Y-94171483D01*
X65752642Y-94164298D01*
X65894595Y-93936685D01*
X65898747Y-93928845D01*
X66007215Y-93683494D01*
X66010221Y-93675144D01*
X66083034Y-93416968D01*
X66084835Y-93408275D01*
X66120710Y-93141181D01*
X66121238Y-93134788D01*
X66124908Y-93018022D01*
X66124781Y-93011579D01*
X66105750Y-92742791D01*
X66104497Y-92733988D01*
X66048039Y-92471752D01*
X66045560Y-92463219D01*
X65952717Y-92211557D01*
X65949062Y-92203462D01*
X65821686Y-91967393D01*
X65816924Y-91959888D01*
X65725787Y-91836498D01*
X65714662Y-91828058D01*
X65702066Y-91834884D01*
X64534962Y-93001988D01*
X64527348Y-93015932D01*
X63797296Y-93015932D01*
X63798532Y-93013668D01*
X63798401Y-93011835D01*
X63794150Y-93005220D01*
X62623817Y-91834887D01*
X62610977Y-91827876D01*
X62600285Y-91835673D01*
X62542910Y-91908454D01*
X62537915Y-91915803D01*
X62403179Y-92147768D01*
X62399280Y-92155726D01*
X62298575Y-92404354D01*
X62295826Y-92412816D01*
X62231163Y-92673136D01*
X62229634Y-92681897D01*
X62202293Y-92948739D01*
X62202014Y-92957622D01*
X50546000Y-92957622D01*
X50546000Y-91462312D01*
X62975807Y-91462312D01*
X62982787Y-91475437D01*
X64150128Y-92642778D01*
X64164072Y-92650392D01*
X64165905Y-92650261D01*
X64172520Y-92646010D01*
X65342755Y-91475775D01*
X65349609Y-91463223D01*
X65341402Y-91452153D01*
X65243702Y-91377590D01*
X65236277Y-91372713D01*
X65002238Y-91241645D01*
X64994185Y-91237856D01*
X64744022Y-91141075D01*
X64735532Y-91138463D01*
X64474214Y-91077893D01*
X64465436Y-91076503D01*
X64198191Y-91053357D01*
X64189320Y-91053217D01*
X63921471Y-91067958D01*
X63912661Y-91069072D01*
X63649575Y-91121402D01*
X63641000Y-91123748D01*
X63387916Y-91212624D01*
X63379749Y-91216158D01*
X63141713Y-91339809D01*
X63134141Y-91344449D01*
X62984210Y-91451590D01*
X62975807Y-91462312D01*
X50546000Y-91462312D01*
X50546000Y-88754534D01*
X62201338Y-88754534D01*
X62212222Y-89031541D01*
X62262028Y-89304251D01*
X62349762Y-89567223D01*
X62473674Y-89815209D01*
X62631291Y-90043262D01*
X62819468Y-90246832D01*
X62822922Y-90249644D01*
X63030995Y-90419042D01*
X63030999Y-90419045D01*
X63034452Y-90421856D01*
X63271952Y-90564843D01*
X63276047Y-90566577D01*
X63276049Y-90566578D01*
X63451640Y-90640931D01*
X63527229Y-90672939D01*
X63531522Y-90674077D01*
X63531527Y-90674079D01*
X63671302Y-90711139D01*
X63795191Y-90743987D01*
X64070490Y-90776571D01*
X64347634Y-90770040D01*
X64504160Y-90743987D01*
X64616703Y-90725255D01*
X64616707Y-90725254D01*
X64621093Y-90724524D01*
X64625334Y-90723183D01*
X64625337Y-90723182D01*
X64881164Y-90642274D01*
X64881166Y-90642273D01*
X64885410Y-90640931D01*
X64889421Y-90639005D01*
X64889426Y-90639003D01*
X65131293Y-90522860D01*
X65131294Y-90522859D01*
X65135312Y-90520930D01*
X65139018Y-90518454D01*
X65362105Y-90369393D01*
X65362109Y-90369390D01*
X65365813Y-90366915D01*
X65369130Y-90363944D01*
X65369134Y-90363941D01*
X65568995Y-90184930D01*
X65568996Y-90184929D01*
X65572313Y-90181958D01*
X65750692Y-89969750D01*
X65897392Y-89734525D01*
X66009484Y-89480977D01*
X66084733Y-89214164D01*
X66108674Y-89035921D01*
X66121210Y-88942593D01*
X66121211Y-88942585D01*
X66121637Y-88939411D01*
X66125510Y-88816180D01*
X66105931Y-88539651D01*
X66047584Y-88268640D01*
X65956599Y-88022014D01*
X65951787Y-87951180D01*
X65985716Y-87889308D01*
X66989375Y-86885650D01*
X67051687Y-86851624D01*
X67122503Y-86856689D01*
X67179338Y-86899236D01*
X67204149Y-86965756D01*
X67204470Y-86974745D01*
X67204470Y-114689768D01*
X67203943Y-114700951D01*
X67202268Y-114708444D01*
X67202517Y-114716370D01*
X67202517Y-114716371D01*
X67204408Y-114776521D01*
X67204470Y-114780480D01*
X67204470Y-114808391D01*
X67204967Y-114812325D01*
X67204967Y-114812326D01*
X67204975Y-114812391D01*
X67205908Y-114824228D01*
X67207297Y-114868424D01*
X67212948Y-114887874D01*
X67216957Y-114907235D01*
X67219496Y-114927332D01*
X67222415Y-114934703D01*
X67222415Y-114934705D01*
X67235774Y-114968447D01*
X67239619Y-114979677D01*
X67251952Y-115022128D01*
X67255985Y-115028947D01*
X67255987Y-115028952D01*
X67262263Y-115039563D01*
X67270958Y-115057311D01*
X67278418Y-115076152D01*
X67283080Y-115082568D01*
X67283080Y-115082569D01*
X67304406Y-115111922D01*
X67310922Y-115121842D01*
X67333428Y-115159897D01*
X67347749Y-115174218D01*
X67360589Y-115189251D01*
X67372498Y-115205642D01*
X67378604Y-115210693D01*
X67406575Y-115233833D01*
X67415354Y-115241823D01*
X68402828Y-116229297D01*
X68410372Y-116237587D01*
X68414485Y-116244068D01*
X68420262Y-116249493D01*
X68464152Y-116290708D01*
X68466994Y-116293463D01*
X68486715Y-116313184D01*
X68489910Y-116315662D01*
X68498932Y-116323368D01*
X68531164Y-116353636D01*
X68538113Y-116357456D01*
X68548917Y-116363396D01*
X68565438Y-116374248D01*
X68575903Y-116382365D01*
X68617472Y-116439920D01*
X68621324Y-116510812D01*
X68586238Y-116572533D01*
X68571938Y-116584442D01*
X68411051Y-116699414D01*
X68210462Y-116890766D01*
X68207706Y-116894262D01*
X68207705Y-116894263D01*
X68067976Y-117071508D01*
X68038836Y-117108472D01*
X67984248Y-117202452D01*
X67901832Y-117344342D01*
X67901829Y-117344348D01*
X67899598Y-117348189D01*
X67897928Y-117352312D01*
X67824008Y-117534813D01*
X67795525Y-117605133D01*
X67794454Y-117609446D01*
X67794452Y-117609451D01*
X67748145Y-117795871D01*
X67728694Y-117874177D01*
X67700438Y-118149954D01*
X67711322Y-118426961D01*
X67761128Y-118699671D01*
X67848862Y-118962643D01*
X67972774Y-119210629D01*
X68130391Y-119438682D01*
X68318568Y-119642252D01*
X68322022Y-119645064D01*
X68530095Y-119814462D01*
X68530099Y-119814465D01*
X68533552Y-119817276D01*
X68771052Y-119960263D01*
X68775147Y-119961997D01*
X68775149Y-119961998D01*
X68950740Y-120036351D01*
X69026329Y-120068359D01*
X69030622Y-120069497D01*
X69030627Y-120069499D01*
X69170402Y-120106559D01*
X69294291Y-120139407D01*
X69569590Y-120171991D01*
X69846734Y-120165460D01*
X70003260Y-120139407D01*
X70115803Y-120120675D01*
X70115807Y-120120674D01*
X70120193Y-120119944D01*
X70124434Y-120118603D01*
X70124437Y-120118602D01*
X70380264Y-120037694D01*
X70380266Y-120037693D01*
X70384510Y-120036351D01*
X70388521Y-120034425D01*
X70388526Y-120034423D01*
X70630384Y-119918284D01*
X70634412Y-119916350D01*
X70656610Y-119901518D01*
X70724363Y-119880304D01*
X70792830Y-119899088D01*
X70840272Y-119951906D01*
X70852610Y-120006284D01*
X70852610Y-120274096D01*
X70832608Y-120342217D01*
X70815705Y-120363191D01*
X70587601Y-120591295D01*
X70525289Y-120625321D01*
X70453044Y-120619712D01*
X70243270Y-120538556D01*
X70243264Y-120538554D01*
X70239115Y-120536949D01*
X70234783Y-120535945D01*
X70234780Y-120535944D01*
X70124445Y-120510370D01*
X69969054Y-120474352D01*
X69692867Y-120450432D01*
X69688432Y-120450676D01*
X69688428Y-120450676D01*
X69575985Y-120456864D01*
X69416065Y-120465665D01*
X69411702Y-120466533D01*
X69411701Y-120466533D01*
X69374324Y-120473968D01*
X69144171Y-120519749D01*
X69032926Y-120558815D01*
X68886816Y-120610124D01*
X68886808Y-120610127D01*
X68882609Y-120611602D01*
X68878656Y-120613655D01*
X68878650Y-120613658D01*
X68757866Y-120676401D01*
X68636600Y-120739394D01*
X68632985Y-120741977D01*
X68632979Y-120741981D01*
X68508831Y-120830699D01*
X68411051Y-120900574D01*
X68407831Y-120903646D01*
X68234407Y-121069084D01*
X68210462Y-121091926D01*
X68207706Y-121095422D01*
X68207705Y-121095423D01*
X68059453Y-121283480D01*
X68038836Y-121309632D01*
X68036599Y-121313484D01*
X67901832Y-121545502D01*
X67901829Y-121545508D01*
X67899598Y-121549349D01*
X67897928Y-121553472D01*
X67800142Y-121794895D01*
X67795525Y-121806293D01*
X67794454Y-121810606D01*
X67794452Y-121810611D01*
X67748145Y-121997031D01*
X67728694Y-122075337D01*
X67700438Y-122351114D01*
X67700613Y-122355566D01*
X67705793Y-122487391D01*
X67711322Y-122628121D01*
X67761128Y-122900831D01*
X67848862Y-123163803D01*
X67972774Y-123411789D01*
X68130391Y-123639842D01*
X68318568Y-123843412D01*
X68322022Y-123846224D01*
X68530095Y-124015622D01*
X68530099Y-124015625D01*
X68533552Y-124018436D01*
X68771052Y-124161423D01*
X68775147Y-124163157D01*
X68775149Y-124163158D01*
X69021108Y-124267308D01*
X69026329Y-124269519D01*
X69030622Y-124270657D01*
X69030627Y-124270659D01*
X69151971Y-124302832D01*
X69294291Y-124340567D01*
X69569590Y-124373151D01*
X69846734Y-124366620D01*
X70003260Y-124340567D01*
X70115803Y-124321835D01*
X70115807Y-124321834D01*
X70120193Y-124321104D01*
X70124434Y-124319763D01*
X70124437Y-124319762D01*
X70380264Y-124238854D01*
X70380266Y-124238853D01*
X70384510Y-124237511D01*
X70388521Y-124235585D01*
X70388526Y-124235583D01*
X70630393Y-124119440D01*
X70630394Y-124119439D01*
X70634412Y-124117510D01*
X70638769Y-124114599D01*
X70861205Y-123965973D01*
X70861209Y-123965970D01*
X70864913Y-123963495D01*
X70868230Y-123960524D01*
X70868234Y-123960521D01*
X71068095Y-123781510D01*
X71068096Y-123781509D01*
X71071413Y-123778538D01*
X71249792Y-123566330D01*
X71396492Y-123331105D01*
X71508584Y-123077557D01*
X71583833Y-122810744D01*
X71605132Y-122652174D01*
X71620310Y-122539173D01*
X71620311Y-122539165D01*
X71620737Y-122535991D01*
X71620839Y-122532748D01*
X71624509Y-122415982D01*
X71624509Y-122415977D01*
X71624610Y-122412760D01*
X71619635Y-122342498D01*
X74949952Y-122342498D01*
X74950105Y-122346886D01*
X74950105Y-122346892D01*
X74954324Y-122467691D01*
X74959755Y-122623204D01*
X75008529Y-122899815D01*
X75009884Y-122903986D01*
X75009886Y-122903993D01*
X75081803Y-123125330D01*
X75095325Y-123166946D01*
X75218454Y-123419397D01*
X75375518Y-123652255D01*
X75378462Y-123655524D01*
X75378463Y-123655526D01*
X75550168Y-123846224D01*
X75563462Y-123860988D01*
X75778627Y-124041533D01*
X76016825Y-124190375D01*
X76273420Y-124304619D01*
X76277648Y-124305831D01*
X76277647Y-124305831D01*
X76512055Y-124373046D01*
X76543417Y-124382039D01*
X76547767Y-124382650D01*
X76547770Y-124382651D01*
X76649800Y-124396990D01*
X76821561Y-124421130D01*
X77032131Y-124421130D01*
X77034317Y-124420977D01*
X77034321Y-124420977D01*
X77237809Y-124406748D01*
X77237814Y-124406747D01*
X77242194Y-124406441D01*
X77246488Y-124405528D01*
X77246490Y-124405528D01*
X77362698Y-124380827D01*
X77516934Y-124348043D01*
X77521065Y-124346539D01*
X77521070Y-124346538D01*
X77666104Y-124293749D01*
X77780872Y-124251977D01*
X77896729Y-124190375D01*
X78024981Y-124122183D01*
X78024987Y-124122179D01*
X78028873Y-124120113D01*
X78032433Y-124117526D01*
X78032437Y-124117524D01*
X78252545Y-123957606D01*
X78252548Y-123957604D01*
X78256108Y-123955017D01*
X78259275Y-123951959D01*
X78454989Y-123762960D01*
X78454993Y-123762955D01*
X78458154Y-123759903D01*
X78631080Y-123538569D01*
X78668278Y-123474140D01*
X78769314Y-123299141D01*
X78769317Y-123299136D01*
X78771519Y-123295321D01*
X78773169Y-123291237D01*
X78773172Y-123291231D01*
X78875088Y-123038978D01*
X78875089Y-123038975D01*
X78876737Y-123034896D01*
X78944688Y-122762361D01*
X78957503Y-122640442D01*
X78973589Y-122487391D01*
X78973589Y-122487388D01*
X78974048Y-122483022D01*
X78973102Y-122455913D01*
X78964399Y-122206714D01*
X78964398Y-122206708D01*
X78964245Y-122202316D01*
X78915471Y-121925705D01*
X78914116Y-121921534D01*
X78914114Y-121921527D01*
X78830036Y-121662763D01*
X78828675Y-121658574D01*
X78809176Y-121618594D01*
X78744450Y-121485888D01*
X78705546Y-121406123D01*
X78548482Y-121173265D01*
X78469998Y-121086099D01*
X78363486Y-120967806D01*
X78363485Y-120967805D01*
X78360538Y-120964532D01*
X78145373Y-120783987D01*
X77907175Y-120635145D01*
X77722385Y-120552871D01*
X77654594Y-120522688D01*
X77654592Y-120522687D01*
X77650580Y-120520901D01*
X77407422Y-120451177D01*
X77384810Y-120444693D01*
X77384809Y-120444693D01*
X77380583Y-120443481D01*
X77376233Y-120442870D01*
X77376230Y-120442869D01*
X77274200Y-120428530D01*
X77102439Y-120404390D01*
X76891869Y-120404390D01*
X76889683Y-120404543D01*
X76889679Y-120404543D01*
X76686191Y-120418772D01*
X76686186Y-120418773D01*
X76681806Y-120419079D01*
X76677512Y-120419992D01*
X76677510Y-120419992D01*
X76569883Y-120442869D01*
X76407066Y-120477477D01*
X76402935Y-120478981D01*
X76402930Y-120478982D01*
X76293307Y-120518882D01*
X76143128Y-120573543D01*
X76076919Y-120608747D01*
X75899019Y-120703337D01*
X75899013Y-120703341D01*
X75895127Y-120705407D01*
X75891567Y-120707994D01*
X75891563Y-120707996D01*
X75678904Y-120862502D01*
X75667892Y-120870503D01*
X75664728Y-120873559D01*
X75664725Y-120873561D01*
X75469011Y-121062560D01*
X75469007Y-121062565D01*
X75465846Y-121065617D01*
X75463139Y-121069082D01*
X75463137Y-121069084D01*
X75447691Y-121088854D01*
X75292920Y-121286951D01*
X75290717Y-121290767D01*
X75226221Y-121402478D01*
X75152481Y-121530199D01*
X75150831Y-121534283D01*
X75150828Y-121534289D01*
X75100614Y-121658574D01*
X75047263Y-121790624D01*
X75046198Y-121794893D01*
X75046198Y-121794895D01*
X75029705Y-121861046D01*
X74979312Y-122063159D01*
X74978853Y-122067529D01*
X74978852Y-122067533D01*
X74950411Y-122338129D01*
X74949952Y-122342498D01*
X71619635Y-122342498D01*
X71605031Y-122136231D01*
X71550038Y-121880796D01*
X71547620Y-121869567D01*
X71547620Y-121869565D01*
X71546684Y-121865220D01*
X71455699Y-121618594D01*
X71450887Y-121547760D01*
X71484816Y-121485888D01*
X71878357Y-121092347D01*
X71886647Y-121084803D01*
X71893128Y-121080690D01*
X71939769Y-121031022D01*
X71942523Y-121028181D01*
X71962245Y-121008459D01*
X71964722Y-121005266D01*
X71972427Y-120996245D01*
X71997269Y-120969790D01*
X72002696Y-120964011D01*
X72006517Y-120957061D01*
X72012456Y-120946258D01*
X72023312Y-120929731D01*
X72030867Y-120919992D01*
X72030868Y-120919990D01*
X72035724Y-120913730D01*
X72053284Y-120873150D01*
X72058501Y-120862502D01*
X72075985Y-120830699D01*
X72075986Y-120830697D01*
X72079805Y-120823750D01*
X72084843Y-120804127D01*
X72091247Y-120785424D01*
X72096143Y-120774110D01*
X72096143Y-120774109D01*
X72099291Y-120766835D01*
X72100530Y-120759012D01*
X72100533Y-120759002D01*
X72106209Y-120723166D01*
X72108615Y-120711546D01*
X72117638Y-120676401D01*
X72117638Y-120676400D01*
X72119610Y-120668720D01*
X72119610Y-120648466D01*
X72121161Y-120628755D01*
X72123090Y-120616576D01*
X72124330Y-120608747D01*
X72120169Y-120564728D01*
X72119610Y-120552871D01*
X72119610Y-117534813D01*
X72120137Y-117523630D01*
X72121812Y-117516137D01*
X72119672Y-117448046D01*
X72119610Y-117444089D01*
X72119610Y-117416189D01*
X72119106Y-117412198D01*
X72118173Y-117400356D01*
X72117033Y-117364081D01*
X72116784Y-117356156D01*
X72114571Y-117348538D01*
X72111131Y-117336697D01*
X72107122Y-117317338D01*
X72106956Y-117316028D01*
X72104584Y-117297248D01*
X72101668Y-117289882D01*
X72101666Y-117289876D01*
X72088310Y-117256143D01*
X72084465Y-117244913D01*
X72074340Y-117210062D01*
X72074340Y-117210061D01*
X72072129Y-117202452D01*
X72061815Y-117185011D01*
X72053118Y-117167258D01*
X72048582Y-117155803D01*
X72045662Y-117148428D01*
X72019673Y-117112657D01*
X72013157Y-117102737D01*
X71990652Y-117064683D01*
X71976331Y-117050362D01*
X71963490Y-117035328D01*
X71956241Y-117025351D01*
X71951582Y-117018938D01*
X71917505Y-116990747D01*
X71908726Y-116982757D01*
X70748543Y-115822573D01*
X70714517Y-115760261D01*
X70719582Y-115689445D01*
X70767636Y-115628713D01*
X70861205Y-115566193D01*
X70861209Y-115566190D01*
X70864913Y-115563715D01*
X70868230Y-115560744D01*
X70868234Y-115560741D01*
X71068095Y-115381730D01*
X71068096Y-115381729D01*
X71071413Y-115378758D01*
X71249792Y-115166550D01*
X71396492Y-114931325D01*
X71401736Y-114919465D01*
X71495026Y-114708444D01*
X71508584Y-114677777D01*
X71583833Y-114410964D01*
X71607774Y-114232721D01*
X71620310Y-114139393D01*
X71620311Y-114139385D01*
X71620737Y-114136211D01*
X71624610Y-114012980D01*
X71605031Y-113736451D01*
X71546684Y-113465440D01*
X71450733Y-113205354D01*
X71319093Y-112961382D01*
X71316452Y-112957807D01*
X71316448Y-112957800D01*
X71157043Y-112741985D01*
X71154390Y-112738393D01*
X71112307Y-112695643D01*
X70963042Y-112544016D01*
X70959911Y-112540835D01*
X70956372Y-112538134D01*
X70956365Y-112538128D01*
X70743076Y-112375352D01*
X70739536Y-112372650D01*
X70731283Y-112368028D01*
X70501553Y-112239373D01*
X70501552Y-112239373D01*
X70497662Y-112237194D01*
X70447933Y-112217955D01*
X70243270Y-112138776D01*
X70243264Y-112138774D01*
X70239115Y-112137169D01*
X70234783Y-112136165D01*
X70234780Y-112136164D01*
X70124445Y-112110590D01*
X69969054Y-112074572D01*
X69692867Y-112050652D01*
X69688432Y-112050896D01*
X69688428Y-112050896D01*
X69575985Y-112057084D01*
X69416065Y-112065885D01*
X69144171Y-112119969D01*
X69022495Y-112162698D01*
X68886816Y-112210344D01*
X68886808Y-112210347D01*
X68882609Y-112211822D01*
X68878651Y-112213878D01*
X68863100Y-112221956D01*
X68655552Y-112329769D01*
X68585881Y-112343421D01*
X68519889Y-112317238D01*
X68478528Y-112259534D01*
X68471470Y-112217955D01*
X68471470Y-111603051D01*
X68491472Y-111534930D01*
X68545128Y-111488437D01*
X68615402Y-111478333D01*
X68662457Y-111495103D01*
X68771052Y-111560483D01*
X68775147Y-111562217D01*
X68775149Y-111562218D01*
X68950740Y-111636571D01*
X69026329Y-111668579D01*
X69030622Y-111669717D01*
X69030627Y-111669719D01*
X69149640Y-111701274D01*
X69294291Y-111739627D01*
X69569590Y-111772211D01*
X69846734Y-111765680D01*
X70003260Y-111739627D01*
X70115803Y-111720895D01*
X70115807Y-111720894D01*
X70120193Y-111720164D01*
X70124434Y-111718823D01*
X70124437Y-111718822D01*
X70380264Y-111637914D01*
X70380266Y-111637913D01*
X70384510Y-111636571D01*
X70388521Y-111634645D01*
X70388526Y-111634643D01*
X70630393Y-111518500D01*
X70630394Y-111518499D01*
X70634412Y-111516570D01*
X70651318Y-111505274D01*
X70861205Y-111365033D01*
X70861209Y-111365030D01*
X70864913Y-111362555D01*
X70868230Y-111359584D01*
X70868234Y-111359581D01*
X71068095Y-111180570D01*
X71068096Y-111180569D01*
X71071413Y-111177598D01*
X71249792Y-110965390D01*
X71396492Y-110730165D01*
X71508584Y-110476617D01*
X71583833Y-110209804D01*
X71607774Y-110031561D01*
X71620310Y-109938233D01*
X71620311Y-109938225D01*
X71620737Y-109935051D01*
X71624610Y-109811820D01*
X71605031Y-109535291D01*
X71546684Y-109264280D01*
X71450733Y-109004194D01*
X71319093Y-108760222D01*
X71316452Y-108756647D01*
X71316448Y-108756640D01*
X71157043Y-108540825D01*
X71154390Y-108537233D01*
X71141856Y-108524500D01*
X70963042Y-108342856D01*
X70959911Y-108339675D01*
X70956372Y-108336974D01*
X70956365Y-108336968D01*
X70743076Y-108174192D01*
X70739536Y-108171490D01*
X70687344Y-108142261D01*
X70501553Y-108038213D01*
X70501552Y-108038213D01*
X70497662Y-108036034D01*
X70447933Y-108016795D01*
X70243270Y-107937616D01*
X70243264Y-107937614D01*
X70239115Y-107936009D01*
X70234783Y-107935005D01*
X70234780Y-107935004D01*
X70124445Y-107909430D01*
X69969054Y-107873412D01*
X69692867Y-107849492D01*
X69688432Y-107849736D01*
X69688428Y-107849736D01*
X69575985Y-107855924D01*
X69416065Y-107864725D01*
X69144171Y-107918809D01*
X69022495Y-107961538D01*
X68886816Y-108009184D01*
X68886808Y-108009187D01*
X68882609Y-108010662D01*
X68878651Y-108012718D01*
X68863100Y-108020796D01*
X68655552Y-108128609D01*
X68585881Y-108142261D01*
X68519889Y-108116078D01*
X68478528Y-108058374D01*
X68471470Y-108016795D01*
X68471470Y-107404431D01*
X68491472Y-107336310D01*
X68545128Y-107289817D01*
X68615402Y-107279713D01*
X68662457Y-107296483D01*
X68771052Y-107361863D01*
X68775147Y-107363597D01*
X68775149Y-107363598D01*
X68950740Y-107437951D01*
X69026329Y-107469959D01*
X69030622Y-107471097D01*
X69030627Y-107471099D01*
X69170402Y-107508159D01*
X69294291Y-107541007D01*
X69569590Y-107573591D01*
X69846734Y-107567060D01*
X70003260Y-107541007D01*
X70115803Y-107522275D01*
X70115807Y-107522274D01*
X70120193Y-107521544D01*
X70124434Y-107520203D01*
X70124437Y-107520202D01*
X70380264Y-107439294D01*
X70380266Y-107439293D01*
X70384510Y-107437951D01*
X70388521Y-107436025D01*
X70388526Y-107436023D01*
X70630393Y-107319880D01*
X70630394Y-107319879D01*
X70634412Y-107317950D01*
X70638118Y-107315474D01*
X70861205Y-107166413D01*
X70861209Y-107166410D01*
X70864913Y-107163935D01*
X70868230Y-107160964D01*
X70868234Y-107160961D01*
X71068095Y-106981950D01*
X71068096Y-106981949D01*
X71071413Y-106978978D01*
X71249792Y-106766770D01*
X71396492Y-106531545D01*
X71508584Y-106277997D01*
X71583833Y-106011184D01*
X71607774Y-105832941D01*
X71620310Y-105739613D01*
X71620311Y-105739605D01*
X71620737Y-105736431D01*
X71624610Y-105613200D01*
X71605031Y-105336671D01*
X71546684Y-105065660D01*
X71450733Y-104805574D01*
X71319093Y-104561602D01*
X71316452Y-104558027D01*
X71316448Y-104558020D01*
X71157043Y-104342205D01*
X71154390Y-104338613D01*
X71112307Y-104295863D01*
X70963042Y-104144236D01*
X70959911Y-104141055D01*
X70956372Y-104138354D01*
X70956365Y-104138348D01*
X70743076Y-103975572D01*
X70739536Y-103972870D01*
X70687344Y-103943641D01*
X70501553Y-103839593D01*
X70501552Y-103839593D01*
X70497662Y-103837414D01*
X70447933Y-103818175D01*
X70243270Y-103738996D01*
X70243264Y-103738994D01*
X70239115Y-103737389D01*
X70234783Y-103736385D01*
X70234780Y-103736384D01*
X70124445Y-103710810D01*
X69969054Y-103674792D01*
X69692867Y-103650872D01*
X69688432Y-103651116D01*
X69688428Y-103651116D01*
X69575985Y-103657304D01*
X69416065Y-103666105D01*
X69144171Y-103720189D01*
X69022495Y-103762918D01*
X68886816Y-103810564D01*
X68886808Y-103810567D01*
X68882609Y-103812042D01*
X68878651Y-103814098D01*
X68863100Y-103822176D01*
X68655552Y-103929989D01*
X68585881Y-103943641D01*
X68519889Y-103917458D01*
X68478528Y-103859754D01*
X68471470Y-103818175D01*
X68471470Y-103202687D01*
X68491472Y-103134566D01*
X68545128Y-103088073D01*
X68615402Y-103077969D01*
X68662459Y-103094741D01*
X68767460Y-103157957D01*
X68775384Y-103161994D01*
X69022389Y-103266588D01*
X69030794Y-103269466D01*
X69290083Y-103338214D01*
X69298804Y-103339878D01*
X69565198Y-103371408D01*
X69574063Y-103371826D01*
X69842228Y-103365506D01*
X69851088Y-103364669D01*
X70115674Y-103320630D01*
X70124331Y-103318551D01*
X70380080Y-103237669D01*
X70388341Y-103234398D01*
X70630145Y-103118285D01*
X70637870Y-103113879D01*
X70842687Y-102977025D01*
X70850975Y-102967107D01*
X70843718Y-102952928D01*
X69391925Y-101501135D01*
X69357899Y-101438823D01*
X69359734Y-101413172D01*
X70026448Y-101413172D01*
X70026579Y-101415005D01*
X70030830Y-101421620D01*
X71202386Y-102593176D01*
X71215786Y-102600493D01*
X71225691Y-102593506D01*
X71246522Y-102568723D01*
X71251742Y-102561538D01*
X71393695Y-102333925D01*
X71397847Y-102326085D01*
X71506315Y-102080734D01*
X71509321Y-102072384D01*
X71582134Y-101814208D01*
X71583935Y-101805515D01*
X71619810Y-101538421D01*
X71620338Y-101532028D01*
X71624008Y-101415262D01*
X71623881Y-101408819D01*
X71604850Y-101140031D01*
X71603597Y-101131228D01*
X71547139Y-100868992D01*
X71544660Y-100860459D01*
X71451817Y-100608797D01*
X71448162Y-100600702D01*
X71320786Y-100364633D01*
X71316024Y-100357128D01*
X71224887Y-100233738D01*
X71213762Y-100225298D01*
X71201166Y-100232124D01*
X70034062Y-101399228D01*
X70026448Y-101413172D01*
X69359734Y-101413172D01*
X69362964Y-101368008D01*
X69391925Y-101322945D01*
X70841855Y-99873015D01*
X70848709Y-99860463D01*
X70840502Y-99849393D01*
X70742802Y-99774830D01*
X70735377Y-99769953D01*
X70501338Y-99638885D01*
X70493285Y-99635096D01*
X70243122Y-99538315D01*
X70234632Y-99535703D01*
X69973314Y-99475133D01*
X69964536Y-99473743D01*
X69697291Y-99450597D01*
X69688420Y-99450457D01*
X69420571Y-99465198D01*
X69411761Y-99466312D01*
X69148675Y-99518642D01*
X69140100Y-99520988D01*
X68887016Y-99609864D01*
X68878849Y-99613398D01*
X68655553Y-99729392D01*
X68585881Y-99743044D01*
X68519889Y-99716861D01*
X68478528Y-99659157D01*
X68471470Y-99617578D01*
X68471470Y-99007191D01*
X68491472Y-98939070D01*
X68545128Y-98892577D01*
X68615402Y-98882473D01*
X68662457Y-98899243D01*
X68771052Y-98964623D01*
X68775147Y-98966357D01*
X68775149Y-98966358D01*
X69021108Y-99070508D01*
X69026329Y-99072719D01*
X69030622Y-99073857D01*
X69030627Y-99073859D01*
X69170402Y-99110919D01*
X69294291Y-99143767D01*
X69569590Y-99176351D01*
X69846734Y-99169820D01*
X70003260Y-99143767D01*
X70115803Y-99125035D01*
X70115807Y-99125034D01*
X70120193Y-99124304D01*
X70124434Y-99122963D01*
X70124437Y-99122962D01*
X70380264Y-99042054D01*
X70380266Y-99042053D01*
X70384510Y-99040711D01*
X70388521Y-99038785D01*
X70388526Y-99038783D01*
X70630393Y-98922640D01*
X70630394Y-98922639D01*
X70634412Y-98920710D01*
X70638769Y-98917799D01*
X70861205Y-98769173D01*
X70861209Y-98769170D01*
X70864913Y-98766695D01*
X70868230Y-98763724D01*
X70868234Y-98763721D01*
X71068095Y-98584710D01*
X71068096Y-98584709D01*
X71071413Y-98581738D01*
X71249792Y-98369530D01*
X71396492Y-98134305D01*
X71508584Y-97880757D01*
X71583833Y-97613944D01*
X71588343Y-97580368D01*
X71620310Y-97342373D01*
X71620311Y-97342365D01*
X71620737Y-97339191D01*
X71620839Y-97335948D01*
X71624509Y-97219182D01*
X71624509Y-97219177D01*
X71624610Y-97215960D01*
X71605031Y-96939431D01*
X71546684Y-96668420D01*
X71450733Y-96408334D01*
X71319093Y-96164362D01*
X71316452Y-96160787D01*
X71316448Y-96160780D01*
X71157043Y-95944965D01*
X71154390Y-95941373D01*
X70959911Y-95743815D01*
X70956372Y-95741114D01*
X70956365Y-95741108D01*
X70743076Y-95578332D01*
X70739536Y-95575630D01*
X70677644Y-95540969D01*
X70501553Y-95442353D01*
X70501552Y-95442353D01*
X70497662Y-95440174D01*
X70447933Y-95420935D01*
X70243270Y-95341756D01*
X70243264Y-95341754D01*
X70239115Y-95340149D01*
X70234783Y-95339145D01*
X70234780Y-95339144D01*
X70124445Y-95313570D01*
X69969054Y-95277552D01*
X69692867Y-95253632D01*
X69688432Y-95253876D01*
X69688428Y-95253876D01*
X69575985Y-95260064D01*
X69416065Y-95268865D01*
X69411702Y-95269733D01*
X69411701Y-95269733D01*
X69374324Y-95277168D01*
X69144171Y-95322949D01*
X69022495Y-95365678D01*
X68886816Y-95413324D01*
X68886808Y-95413327D01*
X68882609Y-95414802D01*
X68878651Y-95416858D01*
X68863100Y-95424936D01*
X68655552Y-95532749D01*
X68585881Y-95546401D01*
X68519889Y-95520218D01*
X68478528Y-95462514D01*
X68471470Y-95420935D01*
X68471470Y-94805447D01*
X68491472Y-94737326D01*
X68545128Y-94690833D01*
X68615402Y-94680729D01*
X68662459Y-94697501D01*
X68767460Y-94760717D01*
X68775384Y-94764754D01*
X69022389Y-94869348D01*
X69030794Y-94872226D01*
X69290083Y-94940974D01*
X69298804Y-94942638D01*
X69565198Y-94974168D01*
X69574063Y-94974586D01*
X69842228Y-94968266D01*
X69851088Y-94967429D01*
X70115674Y-94923390D01*
X70124331Y-94921311D01*
X70380080Y-94840429D01*
X70388341Y-94837158D01*
X70630145Y-94721045D01*
X70637870Y-94716639D01*
X70842687Y-94579785D01*
X70850975Y-94569867D01*
X70843718Y-94555688D01*
X69391925Y-93103895D01*
X69357899Y-93041583D01*
X69359734Y-93015932D01*
X70026448Y-93015932D01*
X70026579Y-93017765D01*
X70030830Y-93024380D01*
X71202386Y-94195936D01*
X71215786Y-94203253D01*
X71225691Y-94196266D01*
X71246522Y-94171483D01*
X71251742Y-94164298D01*
X71393695Y-93936685D01*
X71397847Y-93928845D01*
X71506315Y-93683494D01*
X71509321Y-93675144D01*
X71582134Y-93416968D01*
X71583935Y-93408275D01*
X71619810Y-93141181D01*
X71620338Y-93134788D01*
X71624008Y-93018022D01*
X71623881Y-93011579D01*
X71604850Y-92742791D01*
X71603597Y-92733988D01*
X71547139Y-92471752D01*
X71544660Y-92463219D01*
X71451817Y-92211557D01*
X71448162Y-92203462D01*
X71320786Y-91967393D01*
X71316024Y-91959888D01*
X71224887Y-91836498D01*
X71213762Y-91828058D01*
X71201166Y-91834884D01*
X70034062Y-93001988D01*
X70026448Y-93015932D01*
X69359734Y-93015932D01*
X69362964Y-92970768D01*
X69391925Y-92925705D01*
X70841855Y-91475775D01*
X70848709Y-91463223D01*
X70840502Y-91452153D01*
X70742802Y-91377590D01*
X70735377Y-91372713D01*
X70501338Y-91241645D01*
X70493285Y-91237856D01*
X70243122Y-91141075D01*
X70234632Y-91138463D01*
X69973314Y-91077893D01*
X69964536Y-91076503D01*
X69697291Y-91053357D01*
X69688420Y-91053217D01*
X69420571Y-91067958D01*
X69411761Y-91069072D01*
X69148675Y-91121402D01*
X69140100Y-91123748D01*
X68887016Y-91212624D01*
X68878849Y-91216158D01*
X68655553Y-91332152D01*
X68585881Y-91345804D01*
X68519889Y-91319621D01*
X68478528Y-91261917D01*
X68471470Y-91220338D01*
X68471470Y-90607411D01*
X68491472Y-90539290D01*
X68545128Y-90492797D01*
X68615402Y-90482693D01*
X68662457Y-90499463D01*
X68771052Y-90564843D01*
X68775147Y-90566577D01*
X68775149Y-90566578D01*
X68950740Y-90640931D01*
X69026329Y-90672939D01*
X69030622Y-90674077D01*
X69030627Y-90674079D01*
X69170402Y-90711139D01*
X69294291Y-90743987D01*
X69569590Y-90776571D01*
X69846734Y-90770040D01*
X70003260Y-90743987D01*
X70115803Y-90725255D01*
X70115807Y-90725254D01*
X70120193Y-90724524D01*
X70124434Y-90723183D01*
X70124437Y-90723182D01*
X70380264Y-90642274D01*
X70380266Y-90642273D01*
X70384510Y-90640931D01*
X70388521Y-90639005D01*
X70388526Y-90639003D01*
X70630393Y-90522860D01*
X70630394Y-90522859D01*
X70634412Y-90520930D01*
X70638118Y-90518454D01*
X70861205Y-90369393D01*
X70861209Y-90369390D01*
X70864913Y-90366915D01*
X70868230Y-90363944D01*
X70868234Y-90363941D01*
X71068095Y-90184930D01*
X71068096Y-90184929D01*
X71071413Y-90181958D01*
X71249792Y-89969750D01*
X71396492Y-89734525D01*
X71508584Y-89480977D01*
X71583833Y-89214164D01*
X71607774Y-89035921D01*
X71620310Y-88942593D01*
X71620311Y-88942585D01*
X71620737Y-88939411D01*
X71624610Y-88816180D01*
X71605031Y-88539651D01*
X71546684Y-88268640D01*
X71450733Y-88008554D01*
X71319093Y-87764582D01*
X71316452Y-87761007D01*
X71316448Y-87761000D01*
X71157043Y-87545185D01*
X71154390Y-87541593D01*
X71112307Y-87498843D01*
X70963042Y-87347216D01*
X70959911Y-87344035D01*
X70956372Y-87341334D01*
X70956365Y-87341328D01*
X70743076Y-87178552D01*
X70739536Y-87175850D01*
X70687344Y-87146621D01*
X70501553Y-87042573D01*
X70501552Y-87042573D01*
X70497662Y-87040394D01*
X70447933Y-87021155D01*
X70243270Y-86941976D01*
X70243264Y-86941974D01*
X70239115Y-86940369D01*
X70234783Y-86939365D01*
X70234780Y-86939364D01*
X70124445Y-86913790D01*
X69969054Y-86877772D01*
X69692867Y-86853852D01*
X69688432Y-86854096D01*
X69688428Y-86854096D01*
X69575985Y-86860284D01*
X69416065Y-86869085D01*
X69144171Y-86923169D01*
X69022900Y-86965756D01*
X68886816Y-87013544D01*
X68886808Y-87013547D01*
X68882609Y-87015022D01*
X68878651Y-87017078D01*
X68866997Y-87023132D01*
X68655552Y-87132969D01*
X68585881Y-87146621D01*
X68519889Y-87120438D01*
X68478528Y-87062734D01*
X68471470Y-87021155D01*
X68471470Y-86405667D01*
X68491472Y-86337546D01*
X68545128Y-86291053D01*
X68615402Y-86280949D01*
X68662459Y-86297721D01*
X68767460Y-86360937D01*
X68775384Y-86364974D01*
X69022389Y-86469568D01*
X69030794Y-86472446D01*
X69290083Y-86541194D01*
X69298804Y-86542858D01*
X69565198Y-86574388D01*
X69574063Y-86574806D01*
X69842228Y-86568486D01*
X69851088Y-86567649D01*
X70115674Y-86523610D01*
X70124331Y-86521531D01*
X70380080Y-86440649D01*
X70388341Y-86437378D01*
X70630145Y-86321265D01*
X70637870Y-86316859D01*
X70842687Y-86180005D01*
X70850975Y-86170087D01*
X70843718Y-86155908D01*
X69391925Y-84704115D01*
X69357899Y-84641803D01*
X69359734Y-84616152D01*
X70026448Y-84616152D01*
X70026579Y-84617985D01*
X70030830Y-84624600D01*
X71202386Y-85796156D01*
X71215786Y-85803473D01*
X71225691Y-85796486D01*
X71246522Y-85771703D01*
X71251742Y-85764518D01*
X71393695Y-85536905D01*
X71397847Y-85529065D01*
X71506315Y-85283714D01*
X71509321Y-85275364D01*
X71582134Y-85017188D01*
X71583935Y-85008495D01*
X71619810Y-84741401D01*
X71620338Y-84735008D01*
X71624008Y-84618242D01*
X71623881Y-84611799D01*
X71604850Y-84343011D01*
X71603597Y-84334208D01*
X71547139Y-84071972D01*
X71544660Y-84063439D01*
X71451817Y-83811777D01*
X71448162Y-83803682D01*
X71320786Y-83567613D01*
X71316024Y-83560108D01*
X71224887Y-83436718D01*
X71213762Y-83428278D01*
X71201166Y-83435104D01*
X70034062Y-84602208D01*
X70026448Y-84616152D01*
X69359734Y-84616152D01*
X69362964Y-84570988D01*
X69391925Y-84525925D01*
X70841855Y-83075995D01*
X70848709Y-83063443D01*
X70840502Y-83052373D01*
X70742802Y-82977810D01*
X70735377Y-82972933D01*
X70501338Y-82841865D01*
X70493285Y-82838076D01*
X70243122Y-82741295D01*
X70234632Y-82738683D01*
X69973314Y-82678113D01*
X69964536Y-82676723D01*
X69697291Y-82653577D01*
X69688420Y-82653437D01*
X69420571Y-82668178D01*
X69411761Y-82669292D01*
X69148675Y-82721622D01*
X69140100Y-82723968D01*
X68887016Y-82812844D01*
X68878849Y-82816378D01*
X68655553Y-82932372D01*
X68585881Y-82946024D01*
X68519889Y-82919841D01*
X68478528Y-82862137D01*
X68471470Y-82820558D01*
X68471470Y-82555064D01*
X68491472Y-82486943D01*
X68508375Y-82465969D01*
X68737870Y-82236474D01*
X68800182Y-82202448D01*
X68876096Y-82209543D01*
X69022226Y-82271422D01*
X69022231Y-82271424D01*
X69026329Y-82273159D01*
X69030626Y-82274298D01*
X69030631Y-82274300D01*
X69160310Y-82308683D01*
X69294291Y-82344207D01*
X69569590Y-82376791D01*
X69846734Y-82370260D01*
X70003260Y-82344207D01*
X70115803Y-82325475D01*
X70115807Y-82325474D01*
X70120193Y-82324744D01*
X70124434Y-82323403D01*
X70124437Y-82323402D01*
X70380264Y-82242494D01*
X70380266Y-82242493D01*
X70384510Y-82241151D01*
X70388521Y-82239225D01*
X70388526Y-82239223D01*
X70630393Y-82123080D01*
X70630394Y-82123079D01*
X70634412Y-82121150D01*
X70782688Y-82022076D01*
X70861205Y-81969613D01*
X70861209Y-81969610D01*
X70864913Y-81967135D01*
X70868230Y-81964164D01*
X70868234Y-81964161D01*
X71068095Y-81785150D01*
X71068096Y-81785149D01*
X71071413Y-81782178D01*
X71249792Y-81569970D01*
X71396492Y-81334745D01*
X71403561Y-81318757D01*
X71472325Y-81163214D01*
X71508584Y-81081197D01*
X71516005Y-81054886D01*
X71556584Y-80911000D01*
X71583833Y-80814384D01*
X71595072Y-80730711D01*
X71620310Y-80542813D01*
X71620311Y-80542805D01*
X71620737Y-80539631D01*
X71621050Y-80529687D01*
X71624509Y-80419622D01*
X71624509Y-80419617D01*
X71624610Y-80416400D01*
X71605031Y-80139871D01*
X71570838Y-79981048D01*
X71547620Y-79873207D01*
X71547620Y-79873205D01*
X71546684Y-79868860D01*
X71450733Y-79608774D01*
X71319093Y-79364802D01*
X71316452Y-79361227D01*
X71316448Y-79361220D01*
X71157043Y-79145405D01*
X71154390Y-79141813D01*
X71112307Y-79099063D01*
X70963042Y-78947436D01*
X70959911Y-78944255D01*
X70956372Y-78941554D01*
X70956365Y-78941548D01*
X70743076Y-78778772D01*
X70739536Y-78776070D01*
X70497662Y-78640614D01*
X70437395Y-78617298D01*
X70376078Y-78593576D01*
X70319763Y-78550343D01*
X70295761Y-78483526D01*
X70295540Y-78476064D01*
X70295540Y-78160431D01*
X70315542Y-78092310D01*
X70369198Y-78045817D01*
X70376180Y-78043130D01*
X70376119Y-78042975D01*
X70380265Y-78041333D01*
X70384510Y-78039991D01*
X70388521Y-78038065D01*
X70388526Y-78038063D01*
X70630393Y-77921920D01*
X70630394Y-77921919D01*
X70634412Y-77919990D01*
X70692243Y-77881349D01*
X70861205Y-77768453D01*
X70861209Y-77768450D01*
X70864913Y-77765975D01*
X70868230Y-77763004D01*
X70868234Y-77763001D01*
X71068095Y-77583990D01*
X71068096Y-77583989D01*
X71071413Y-77581018D01*
X71249792Y-77368810D01*
X71396492Y-77133585D01*
X71415969Y-77089530D01*
X71472325Y-76962054D01*
X71508584Y-76880037D01*
X71583833Y-76613224D01*
X71607774Y-76434981D01*
X71620310Y-76341653D01*
X71620311Y-76341645D01*
X71620737Y-76338471D01*
X71620838Y-76335260D01*
X71624509Y-76218462D01*
X71624509Y-76218457D01*
X71624610Y-76215240D01*
X71619635Y-76144978D01*
X74949952Y-76144978D01*
X74950105Y-76149366D01*
X74950105Y-76149372D01*
X74952518Y-76218462D01*
X74959755Y-76425684D01*
X75008529Y-76702295D01*
X75009884Y-76706466D01*
X75009886Y-76706473D01*
X75073225Y-76901409D01*
X75095325Y-76969426D01*
X75218454Y-77221877D01*
X75375518Y-77454735D01*
X75378462Y-77458004D01*
X75378463Y-77458006D01*
X75550168Y-77648704D01*
X75563462Y-77663468D01*
X75778627Y-77844013D01*
X76016825Y-77992855D01*
X76122694Y-78039991D01*
X76240204Y-78092310D01*
X76273420Y-78107099D01*
X76367476Y-78134069D01*
X76512055Y-78175526D01*
X76543417Y-78184519D01*
X76547767Y-78185130D01*
X76547770Y-78185131D01*
X76613965Y-78194434D01*
X76821561Y-78223610D01*
X77032131Y-78223610D01*
X77034317Y-78223457D01*
X77034321Y-78223457D01*
X77237809Y-78209228D01*
X77237814Y-78209227D01*
X77242194Y-78208921D01*
X77246488Y-78208008D01*
X77246490Y-78208008D01*
X77373608Y-78180988D01*
X77516934Y-78150523D01*
X77521065Y-78149019D01*
X77521070Y-78149018D01*
X77676872Y-78092310D01*
X77780872Y-78054457D01*
X77896729Y-77992855D01*
X78024981Y-77924663D01*
X78024987Y-77924659D01*
X78028873Y-77922593D01*
X78032433Y-77920006D01*
X78032437Y-77920004D01*
X78252545Y-77760086D01*
X78252548Y-77760084D01*
X78256108Y-77757497D01*
X78259275Y-77754439D01*
X78454989Y-77565440D01*
X78454993Y-77565435D01*
X78458154Y-77562383D01*
X78631080Y-77341049D01*
X78673624Y-77267361D01*
X78769314Y-77101621D01*
X78769317Y-77101616D01*
X78771519Y-77097801D01*
X78773169Y-77093717D01*
X78773172Y-77093711D01*
X78875088Y-76841458D01*
X78875089Y-76841455D01*
X78876737Y-76837376D01*
X78944688Y-76564841D01*
X78948634Y-76527304D01*
X78973589Y-76289871D01*
X78973589Y-76289868D01*
X78974048Y-76285502D01*
X78971595Y-76215240D01*
X78964399Y-76009194D01*
X78964398Y-76009188D01*
X78964245Y-76004796D01*
X78915471Y-75728185D01*
X78914116Y-75724014D01*
X78914114Y-75724007D01*
X78830036Y-75465243D01*
X78828675Y-75461054D01*
X78804799Y-75412100D01*
X78764199Y-75328859D01*
X78705546Y-75208603D01*
X78548482Y-74975745D01*
X78360538Y-74767012D01*
X78145373Y-74586467D01*
X77907175Y-74437625D01*
X77650580Y-74323381D01*
X77457097Y-74267901D01*
X77384810Y-74247173D01*
X77384809Y-74247173D01*
X77380583Y-74245961D01*
X77376233Y-74245350D01*
X77376230Y-74245349D01*
X77274200Y-74231010D01*
X77102439Y-74206870D01*
X76891869Y-74206870D01*
X76889683Y-74207023D01*
X76889679Y-74207023D01*
X76686191Y-74221252D01*
X76686186Y-74221253D01*
X76681806Y-74221559D01*
X76677512Y-74222472D01*
X76677510Y-74222472D01*
X76569883Y-74245349D01*
X76407066Y-74279957D01*
X76402935Y-74281461D01*
X76402930Y-74281462D01*
X76293307Y-74321362D01*
X76143128Y-74376023D01*
X76139241Y-74378090D01*
X75899019Y-74505817D01*
X75899013Y-74505821D01*
X75895127Y-74507887D01*
X75891567Y-74510474D01*
X75891563Y-74510476D01*
X75671455Y-74670394D01*
X75667892Y-74672983D01*
X75664728Y-74676039D01*
X75664725Y-74676041D01*
X75469011Y-74865040D01*
X75469007Y-74865045D01*
X75465846Y-74868097D01*
X75292920Y-75089431D01*
X75290717Y-75093247D01*
X75226221Y-75204958D01*
X75152481Y-75332679D01*
X75150831Y-75336763D01*
X75150828Y-75336769D01*
X75058783Y-75564591D01*
X75047263Y-75593104D01*
X74979312Y-75865639D01*
X74978853Y-75870009D01*
X74978852Y-75870013D01*
X74950411Y-76140609D01*
X74949952Y-76144978D01*
X71619635Y-76144978D01*
X71605031Y-75938711D01*
X71546684Y-75667700D01*
X71450733Y-75407614D01*
X71319093Y-75163642D01*
X71316452Y-75160067D01*
X71316448Y-75160060D01*
X71157043Y-74944245D01*
X71154390Y-74940653D01*
X71112307Y-74897903D01*
X70963042Y-74746276D01*
X70959911Y-74743095D01*
X70956372Y-74740394D01*
X70956365Y-74740388D01*
X70810064Y-74628735D01*
X70739536Y-74574910D01*
X70735647Y-74572732D01*
X70501553Y-74441633D01*
X70501552Y-74441633D01*
X70497662Y-74439454D01*
X70488320Y-74435840D01*
X70243270Y-74341036D01*
X70243264Y-74341034D01*
X70239115Y-74339429D01*
X70234783Y-74338425D01*
X70234780Y-74338424D01*
X70124445Y-74312850D01*
X69969054Y-74276832D01*
X69692867Y-74252912D01*
X69688432Y-74253156D01*
X69688428Y-74253156D01*
X69575985Y-74259344D01*
X69416065Y-74268145D01*
X69144171Y-74322229D01*
X69028541Y-74362835D01*
X68886816Y-74412604D01*
X68886808Y-74412607D01*
X68882609Y-74414082D01*
X68878656Y-74416135D01*
X68878650Y-74416138D01*
X68832807Y-74439952D01*
X68636600Y-74541874D01*
X68632985Y-74544457D01*
X68632979Y-74544461D01*
X68490474Y-74646297D01*
X68411051Y-74703054D01*
X68407831Y-74706126D01*
X68234407Y-74871564D01*
X68210462Y-74894406D01*
X68207706Y-74897902D01*
X68207705Y-74897903D01*
X68041450Y-75108796D01*
X67983569Y-75149909D01*
X67912648Y-75153203D01*
X67851206Y-75117631D01*
X67818749Y-75054488D01*
X67816500Y-75030790D01*
X67816500Y-73593594D01*
X67836502Y-73525473D01*
X67853405Y-73504499D01*
X72655499Y-68702405D01*
X72717811Y-68668379D01*
X72744594Y-68665500D01*
X77822404Y-68665500D01*
X77890525Y-68685502D01*
X77930122Y-68726133D01*
X77996377Y-68835317D01*
X77999874Y-68839347D01*
X78136162Y-68996405D01*
X78147477Y-69009445D01*
X78151608Y-69012832D01*
X78321627Y-69152240D01*
X78321633Y-69152244D01*
X78325755Y-69155624D01*
X78330391Y-69158263D01*
X78330394Y-69158265D01*
X78378851Y-69185848D01*
X78526114Y-69269675D01*
X78742825Y-69348337D01*
X78748074Y-69349286D01*
X78748077Y-69349287D01*
X78965608Y-69388623D01*
X78965615Y-69388624D01*
X78969692Y-69389361D01*
X78987414Y-69390197D01*
X78992356Y-69390430D01*
X78992363Y-69390430D01*
X78993844Y-69390500D01*
X79455890Y-69390500D01*
X79522809Y-69384822D01*
X79622409Y-69376371D01*
X79622413Y-69376370D01*
X79627720Y-69375920D01*
X79632875Y-69374582D01*
X79632881Y-69374581D01*
X79845703Y-69319343D01*
X79845707Y-69319342D01*
X79850872Y-69318001D01*
X79855738Y-69315809D01*
X79855741Y-69315808D01*
X80056202Y-69225507D01*
X80061075Y-69223312D01*
X80252319Y-69094559D01*
X80281778Y-69066457D01*
X80330157Y-69020305D01*
X80419135Y-68935424D01*
X80556754Y-68750458D01*
X80581186Y-68702405D01*
X80647686Y-68571607D01*
X80661240Y-68544949D01*
X80729607Y-68324773D01*
X80733315Y-68296797D01*
X80759198Y-68101511D01*
X80759198Y-68101506D01*
X80759898Y-68096226D01*
X80759440Y-68084012D01*
X80753919Y-67936971D01*
X80751249Y-67865842D01*
X80749157Y-67855869D01*
X80705002Y-67645428D01*
X80703907Y-67640209D01*
X80698556Y-67626659D01*
X80621185Y-67430744D01*
X80621184Y-67430742D01*
X80619224Y-67425779D01*
X80613560Y-67416444D01*
X80502390Y-67233243D01*
X80499623Y-67228683D01*
X80432479Y-67151306D01*
X80352023Y-67058588D01*
X80352021Y-67058586D01*
X80348523Y-67054555D01*
X80312471Y-67024994D01*
X80272476Y-66966334D01*
X80270545Y-66895364D01*
X80307290Y-66834616D01*
X80326059Y-66820416D01*
X80465807Y-66733937D01*
X80477208Y-66724901D01*
X80591739Y-66610171D01*
X80600751Y-66598760D01*
X80685816Y-66460757D01*
X80691963Y-66447576D01*
X80743138Y-66293290D01*
X80746005Y-66279914D01*
X80755672Y-66185562D01*
X80756000Y-66179146D01*
X80756000Y-65804115D01*
X80751525Y-65788876D01*
X80750135Y-65787671D01*
X80742452Y-65786000D01*
X77758116Y-65786000D01*
X77742877Y-65790475D01*
X77741672Y-65791865D01*
X77740001Y-65799548D01*
X77740001Y-66179095D01*
X77740338Y-66185614D01*
X77750257Y-66281206D01*
X77753149Y-66294600D01*
X77804588Y-66448784D01*
X77810761Y-66461962D01*
X77896063Y-66599807D01*
X77905099Y-66611208D01*
X78019829Y-66725739D01*
X78031243Y-66734753D01*
X78170713Y-66820723D01*
X78218207Y-66873495D01*
X78229631Y-66943566D01*
X78201357Y-67008690D01*
X78191574Y-67019149D01*
X78076865Y-67128576D01*
X77939246Y-67313542D01*
X77936830Y-67318294D01*
X77936825Y-67318302D01*
X77931078Y-67329606D01*
X77882375Y-67381263D01*
X77818762Y-67398500D01*
X72508768Y-67398500D01*
X72497585Y-67397973D01*
X72490092Y-67396298D01*
X72482166Y-67396547D01*
X72482165Y-67396547D01*
X72422002Y-67398438D01*
X72418044Y-67398500D01*
X72390144Y-67398500D01*
X72386154Y-67399004D01*
X72374320Y-67399936D01*
X72330111Y-67401326D01*
X72322495Y-67403539D01*
X72322493Y-67403539D01*
X72310652Y-67406979D01*
X72291293Y-67410988D01*
X72289983Y-67411154D01*
X72271203Y-67413526D01*
X72263837Y-67416442D01*
X72263831Y-67416444D01*
X72230098Y-67429800D01*
X72218868Y-67433645D01*
X72207320Y-67437000D01*
X72176407Y-67445981D01*
X72169584Y-67450016D01*
X72158966Y-67456295D01*
X72141213Y-67464992D01*
X72133568Y-67468019D01*
X72122383Y-67472448D01*
X72108098Y-67482827D01*
X72086612Y-67498437D01*
X72076695Y-67504951D01*
X72038638Y-67527458D01*
X72024317Y-67541779D01*
X72009284Y-67554619D01*
X71992893Y-67566528D01*
X71976724Y-67586073D01*
X71964702Y-67600605D01*
X71956712Y-67609384D01*
X66790747Y-72775348D01*
X66782461Y-72782888D01*
X66775982Y-72787000D01*
X66770557Y-72792777D01*
X66729357Y-72836651D01*
X66726602Y-72839493D01*
X66706865Y-72859230D01*
X66704385Y-72862427D01*
X66696682Y-72871447D01*
X66666414Y-72903679D01*
X66662595Y-72910625D01*
X66662593Y-72910628D01*
X66656652Y-72921434D01*
X66645801Y-72937953D01*
X66633386Y-72953959D01*
X66630241Y-72961228D01*
X66630238Y-72961232D01*
X66615826Y-72994537D01*
X66610609Y-73005187D01*
X66589305Y-73043940D01*
X66587334Y-73051615D01*
X66587334Y-73051616D01*
X66584267Y-73063562D01*
X66577863Y-73082266D01*
X66569819Y-73100855D01*
X66568580Y-73108678D01*
X66568577Y-73108688D01*
X66562901Y-73144524D01*
X66560495Y-73156144D01*
X66549500Y-73198970D01*
X66549500Y-73219224D01*
X66547949Y-73238934D01*
X66544780Y-73258943D01*
X66545526Y-73266835D01*
X66548941Y-73302961D01*
X66549500Y-73314819D01*
X66549500Y-85481526D01*
X66529498Y-85549647D01*
X66512595Y-85570621D01*
X65088500Y-86994715D01*
X65026188Y-87028741D01*
X64953943Y-87023132D01*
X64744170Y-86941976D01*
X64744164Y-86941974D01*
X64740015Y-86940369D01*
X64735683Y-86939365D01*
X64735680Y-86939364D01*
X64625345Y-86913790D01*
X64469954Y-86877772D01*
X64193767Y-86853852D01*
X64189332Y-86854096D01*
X64189328Y-86854096D01*
X64076885Y-86860284D01*
X63916965Y-86869085D01*
X63645071Y-86923169D01*
X63523800Y-86965756D01*
X63387716Y-87013544D01*
X63387708Y-87013547D01*
X63383509Y-87015022D01*
X63379556Y-87017075D01*
X63379550Y-87017078D01*
X63330471Y-87042573D01*
X63137500Y-87142814D01*
X63133885Y-87145397D01*
X63133879Y-87145401D01*
X62991374Y-87247237D01*
X62911951Y-87303994D01*
X62711362Y-87495346D01*
X62539736Y-87713052D01*
X62537499Y-87716904D01*
X62402732Y-87948922D01*
X62402729Y-87948928D01*
X62400498Y-87952769D01*
X62296425Y-88209713D01*
X62295354Y-88214026D01*
X62295352Y-88214031D01*
X62249045Y-88400451D01*
X62229594Y-88478757D01*
X62201338Y-88754534D01*
X50546000Y-88754534D01*
X50546000Y-86167707D01*
X62975420Y-86167707D01*
X62982810Y-86178009D01*
X63031283Y-86217472D01*
X63038562Y-86222587D01*
X63268360Y-86360937D01*
X63276284Y-86364974D01*
X63523289Y-86469568D01*
X63531694Y-86472446D01*
X63790983Y-86541194D01*
X63799704Y-86542858D01*
X64066098Y-86574388D01*
X64074963Y-86574806D01*
X64343128Y-86568486D01*
X64351988Y-86567649D01*
X64616574Y-86523610D01*
X64625231Y-86521531D01*
X64880980Y-86440649D01*
X64889241Y-86437378D01*
X65131045Y-86321265D01*
X65138770Y-86316859D01*
X65343587Y-86180005D01*
X65351875Y-86170087D01*
X65344618Y-86155908D01*
X64175752Y-84987042D01*
X64161808Y-84979428D01*
X64159975Y-84979559D01*
X64153360Y-84983810D01*
X62982586Y-86154584D01*
X62975420Y-86167707D01*
X50546000Y-86167707D01*
X50546000Y-85216000D01*
X50566002Y-85147879D01*
X50619658Y-85101386D01*
X50672000Y-85090000D01*
X53594000Y-85090000D01*
X53594000Y-84557842D01*
X62202014Y-84557842D01*
X62212545Y-84825877D01*
X62213520Y-84834706D01*
X62261713Y-85098587D01*
X62263922Y-85107189D01*
X62348814Y-85361642D01*
X62352218Y-85369860D01*
X62472116Y-85609814D01*
X62476634Y-85617453D01*
X62599019Y-85794531D01*
X62609337Y-85802882D01*
X62622992Y-85795758D01*
X63790918Y-84627832D01*
X63797296Y-84616152D01*
X64527348Y-84616152D01*
X64527479Y-84617985D01*
X64531730Y-84624600D01*
X65703286Y-85796156D01*
X65716686Y-85803473D01*
X65726591Y-85796486D01*
X65747422Y-85771703D01*
X65752642Y-85764518D01*
X65894595Y-85536905D01*
X65898747Y-85529065D01*
X66007215Y-85283714D01*
X66010221Y-85275364D01*
X66083034Y-85017188D01*
X66084835Y-85008495D01*
X66120710Y-84741401D01*
X66121238Y-84735008D01*
X66124908Y-84618242D01*
X66124781Y-84611799D01*
X66105750Y-84343011D01*
X66104497Y-84334208D01*
X66048039Y-84071972D01*
X66045560Y-84063439D01*
X65952717Y-83811777D01*
X65949062Y-83803682D01*
X65821686Y-83567613D01*
X65816924Y-83560108D01*
X65725787Y-83436718D01*
X65714662Y-83428278D01*
X65702066Y-83435104D01*
X64534962Y-84602208D01*
X64527348Y-84616152D01*
X63797296Y-84616152D01*
X63798532Y-84613888D01*
X63798401Y-84612055D01*
X63794150Y-84605440D01*
X62623817Y-83435107D01*
X62610977Y-83428096D01*
X62600285Y-83435893D01*
X62542910Y-83508674D01*
X62537915Y-83516023D01*
X62403179Y-83747988D01*
X62399280Y-83755946D01*
X62298575Y-84004574D01*
X62295826Y-84013036D01*
X62231163Y-84273356D01*
X62229634Y-84282117D01*
X62202293Y-84548959D01*
X62202014Y-84557842D01*
X53594000Y-84557842D01*
X53594000Y-83552999D01*
X53614002Y-83484878D01*
X53667658Y-83438385D01*
X53720000Y-83426999D01*
X53914669Y-83426999D01*
X53921490Y-83426629D01*
X53972352Y-83421105D01*
X53987604Y-83417479D01*
X54108054Y-83372324D01*
X54123649Y-83363786D01*
X54225724Y-83287285D01*
X54238285Y-83274724D01*
X54314786Y-83172649D01*
X54323324Y-83157054D01*
X54368478Y-83036606D01*
X54372105Y-83021351D01*
X54377631Y-82970484D01*
X54378000Y-82963672D01*
X54378000Y-82441115D01*
X54373525Y-82425876D01*
X54372135Y-82424671D01*
X54364452Y-82423000D01*
X53594000Y-82423000D01*
X53594000Y-81915000D01*
X54359884Y-81915000D01*
X54375123Y-81910525D01*
X54376328Y-81909135D01*
X54377999Y-81901452D01*
X54377999Y-81374331D01*
X54377629Y-81367510D01*
X54372105Y-81316648D01*
X54368479Y-81301396D01*
X54323324Y-81180946D01*
X54314786Y-81165351D01*
X54238285Y-81063276D01*
X54225724Y-81050715D01*
X54123649Y-80974214D01*
X54108054Y-80965676D01*
X53987606Y-80920522D01*
X53972351Y-80916895D01*
X53921486Y-80911369D01*
X53914672Y-80911000D01*
X53720000Y-80911000D01*
X53651879Y-80890998D01*
X53605386Y-80837342D01*
X53594000Y-80785000D01*
X53594000Y-79273475D01*
X57361483Y-79273475D01*
X57380472Y-79490519D01*
X57382375Y-79501312D01*
X57438764Y-79711761D01*
X57442510Y-79722053D01*
X57534586Y-79919511D01*
X57540069Y-79929006D01*
X57576509Y-79981048D01*
X57586988Y-79989424D01*
X57600434Y-79982356D01*
X58301978Y-79280812D01*
X58309592Y-79266868D01*
X58309461Y-79265035D01*
X58305210Y-79258420D01*
X57599713Y-78552923D01*
X57587938Y-78546493D01*
X57575923Y-78555789D01*
X57540069Y-78606994D01*
X57534586Y-78616489D01*
X57442510Y-78813947D01*
X57438764Y-78824239D01*
X57382375Y-79034688D01*
X57380472Y-79045481D01*
X57361483Y-79262525D01*
X57361483Y-79273475D01*
X53594000Y-79273475D01*
X53594000Y-71518094D01*
X53614002Y-71449973D01*
X53630905Y-71428999D01*
X56063499Y-68996405D01*
X56125811Y-68962379D01*
X56152594Y-68959500D01*
X57571794Y-68959500D01*
X57639915Y-68979502D01*
X57669990Y-69006547D01*
X57703158Y-69047800D01*
X57703163Y-69047805D01*
X57707019Y-69052601D01*
X57862281Y-69182881D01*
X57867673Y-69185845D01*
X57867677Y-69185848D01*
X58023473Y-69271497D01*
X58039891Y-69280523D01*
X58233084Y-69341807D01*
X58239201Y-69342493D01*
X58239205Y-69342494D01*
X58299768Y-69349287D01*
X58390817Y-69359500D01*
X58759406Y-69359500D01*
X58827527Y-69379502D01*
X58848501Y-69396405D01*
X59128595Y-69676499D01*
X59162621Y-69738811D01*
X59165500Y-69765594D01*
X59165500Y-77881349D01*
X59145498Y-77949470D01*
X59091842Y-77995963D01*
X59021568Y-78006067D01*
X59006889Y-78003056D01*
X58907312Y-77976375D01*
X58896519Y-77974472D01*
X58679475Y-77955483D01*
X58668525Y-77955483D01*
X58451481Y-77974472D01*
X58440688Y-77976375D01*
X58230239Y-78032764D01*
X58219947Y-78036510D01*
X58022489Y-78128586D01*
X58012994Y-78134069D01*
X57960952Y-78170509D01*
X57952576Y-78180988D01*
X57959644Y-78194434D01*
X58944115Y-79178905D01*
X58978141Y-79241217D01*
X58973076Y-79312032D01*
X58944115Y-79357095D01*
X57958923Y-80342287D01*
X57952493Y-80354062D01*
X57961789Y-80366077D01*
X58012998Y-80401934D01*
X58024528Y-80408591D01*
X58073521Y-80459973D01*
X58086958Y-80529687D01*
X58060571Y-80595598D01*
X58024528Y-80626829D01*
X58022235Y-80628153D01*
X58017251Y-80630477D01*
X58012747Y-80633631D01*
X57834211Y-80758643D01*
X57834208Y-80758645D01*
X57829700Y-80761802D01*
X57667802Y-80923700D01*
X57664645Y-80928208D01*
X57664643Y-80928211D01*
X57632367Y-80974306D01*
X57536477Y-81111251D01*
X57534154Y-81116233D01*
X57534151Y-81116238D01*
X57444413Y-81308684D01*
X57439716Y-81318757D01*
X57438294Y-81324065D01*
X57438293Y-81324067D01*
X57381883Y-81534591D01*
X57380457Y-81539913D01*
X57360502Y-81768000D01*
X57380457Y-81996087D01*
X57381881Y-82001400D01*
X57381881Y-82001402D01*
X57435752Y-82202448D01*
X57439716Y-82217243D01*
X57442039Y-82222224D01*
X57442039Y-82222225D01*
X57534151Y-82419762D01*
X57534154Y-82419767D01*
X57536477Y-82424749D01*
X57667802Y-82612300D01*
X57829700Y-82774198D01*
X57834208Y-82777355D01*
X57834211Y-82777357D01*
X57884892Y-82812844D01*
X58017251Y-82905523D01*
X58022233Y-82907846D01*
X58022238Y-82907849D01*
X58156561Y-82970484D01*
X58224757Y-83002284D01*
X58230065Y-83003706D01*
X58230067Y-83003707D01*
X58440598Y-83060119D01*
X58440600Y-83060119D01*
X58445913Y-83061543D01*
X58674000Y-83081498D01*
X58890783Y-83062532D01*
X62975807Y-83062532D01*
X62982787Y-83075657D01*
X64150128Y-84242998D01*
X64164072Y-84250612D01*
X64165905Y-84250481D01*
X64172520Y-84246230D01*
X65342755Y-83075995D01*
X65349609Y-83063443D01*
X65341402Y-83052373D01*
X65243702Y-82977810D01*
X65236277Y-82972933D01*
X65002238Y-82841865D01*
X64994185Y-82838076D01*
X64744022Y-82741295D01*
X64735532Y-82738683D01*
X64474214Y-82678113D01*
X64465436Y-82676723D01*
X64198191Y-82653577D01*
X64189320Y-82653437D01*
X63921471Y-82668178D01*
X63912661Y-82669292D01*
X63649575Y-82721622D01*
X63641000Y-82723968D01*
X63387916Y-82812844D01*
X63379749Y-82816378D01*
X63141713Y-82940029D01*
X63134141Y-82944669D01*
X62984210Y-83051810D01*
X62975807Y-83062532D01*
X58890783Y-83062532D01*
X58902087Y-83061543D01*
X58907400Y-83060119D01*
X58907402Y-83060119D01*
X59117933Y-83003707D01*
X59117935Y-83003706D01*
X59123243Y-83002284D01*
X59191439Y-82970484D01*
X59325762Y-82907849D01*
X59325767Y-82907846D01*
X59330749Y-82905523D01*
X59463108Y-82812844D01*
X59513789Y-82777357D01*
X59513792Y-82777355D01*
X59518300Y-82774198D01*
X59680198Y-82612300D01*
X59811523Y-82424749D01*
X59813846Y-82419767D01*
X59813849Y-82419762D01*
X59905961Y-82222225D01*
X59905961Y-82222224D01*
X59908284Y-82217243D01*
X59912249Y-82202448D01*
X59966119Y-82001402D01*
X59966119Y-82001400D01*
X59967543Y-81996087D01*
X59987498Y-81768000D01*
X59967543Y-81539913D01*
X59966119Y-81534598D01*
X59966118Y-81534591D01*
X59950541Y-81476459D01*
X59952230Y-81405483D01*
X59983152Y-81354752D01*
X60191247Y-81146657D01*
X60199537Y-81139113D01*
X60206018Y-81135000D01*
X60252659Y-81085332D01*
X60255413Y-81082491D01*
X60275134Y-81062770D01*
X60277612Y-81059575D01*
X60285318Y-81050553D01*
X60310158Y-81024101D01*
X60315586Y-81018321D01*
X60325346Y-81000568D01*
X60336199Y-80984045D01*
X60343753Y-80974306D01*
X60348613Y-80968041D01*
X60366176Y-80927457D01*
X60371383Y-80916827D01*
X60392695Y-80878060D01*
X60394666Y-80870383D01*
X60394668Y-80870378D01*
X60397732Y-80858442D01*
X60404138Y-80839730D01*
X60405172Y-80837342D01*
X60412181Y-80821145D01*
X60413421Y-80813317D01*
X60413423Y-80813310D01*
X60419099Y-80777476D01*
X60421505Y-80765856D01*
X60430528Y-80730711D01*
X60430528Y-80730710D01*
X60432500Y-80723030D01*
X60432500Y-80702776D01*
X60434051Y-80683065D01*
X60435980Y-80670886D01*
X60437220Y-80663057D01*
X60433059Y-80619038D01*
X60432500Y-80607181D01*
X60432500Y-80354754D01*
X62201338Y-80354754D01*
X62201513Y-80359206D01*
X62208008Y-80524500D01*
X62212222Y-80631761D01*
X62262028Y-80904471D01*
X62349762Y-81167443D01*
X62356509Y-81180946D01*
X62469059Y-81406192D01*
X62473674Y-81415429D01*
X62631291Y-81643482D01*
X62634313Y-81646751D01*
X62751455Y-81773475D01*
X62819468Y-81847052D01*
X62822922Y-81849864D01*
X63030995Y-82019262D01*
X63030999Y-82019265D01*
X63034452Y-82022076D01*
X63271952Y-82165063D01*
X63276047Y-82166797D01*
X63276049Y-82166798D01*
X63451640Y-82241151D01*
X63527229Y-82273159D01*
X63531522Y-82274297D01*
X63531527Y-82274299D01*
X63671302Y-82311359D01*
X63795191Y-82344207D01*
X64070490Y-82376791D01*
X64347634Y-82370260D01*
X64504160Y-82344207D01*
X64616703Y-82325475D01*
X64616707Y-82325474D01*
X64621093Y-82324744D01*
X64625334Y-82323403D01*
X64625337Y-82323402D01*
X64881164Y-82242494D01*
X64881166Y-82242493D01*
X64885410Y-82241151D01*
X64889421Y-82239225D01*
X64889426Y-82239223D01*
X65131293Y-82123080D01*
X65131294Y-82123079D01*
X65135312Y-82121150D01*
X65283588Y-82022076D01*
X65362105Y-81969613D01*
X65362109Y-81969610D01*
X65365813Y-81967135D01*
X65369130Y-81964164D01*
X65369134Y-81964161D01*
X65568995Y-81785150D01*
X65568996Y-81785149D01*
X65572313Y-81782178D01*
X65750692Y-81569970D01*
X65897392Y-81334745D01*
X65904461Y-81318757D01*
X65973225Y-81163214D01*
X66009484Y-81081197D01*
X66016905Y-81054886D01*
X66057484Y-80911000D01*
X66084733Y-80814384D01*
X66095972Y-80730711D01*
X66121210Y-80542813D01*
X66121211Y-80542805D01*
X66121637Y-80539631D01*
X66121950Y-80529687D01*
X66125409Y-80419622D01*
X66125409Y-80419617D01*
X66125510Y-80416400D01*
X66105931Y-80139871D01*
X66071738Y-79981048D01*
X66048520Y-79873207D01*
X66048520Y-79873205D01*
X66047584Y-79868860D01*
X65951633Y-79608774D01*
X65819993Y-79364802D01*
X65817352Y-79361227D01*
X65817348Y-79361220D01*
X65657943Y-79145405D01*
X65655290Y-79141813D01*
X65613207Y-79099063D01*
X65463942Y-78947436D01*
X65460811Y-78944255D01*
X65457272Y-78941554D01*
X65457265Y-78941548D01*
X65243976Y-78778772D01*
X65240436Y-78776070D01*
X65236547Y-78773892D01*
X65002453Y-78642793D01*
X65002452Y-78642793D01*
X64998562Y-78640614D01*
X64990563Y-78637520D01*
X64744170Y-78542196D01*
X64744164Y-78542194D01*
X64740015Y-78540589D01*
X64735683Y-78539585D01*
X64735680Y-78539584D01*
X64625345Y-78514010D01*
X64469954Y-78477992D01*
X64193767Y-78454072D01*
X64189332Y-78454316D01*
X64189328Y-78454316D01*
X64076885Y-78460504D01*
X63916965Y-78469305D01*
X63645071Y-78523389D01*
X63529441Y-78563995D01*
X63387716Y-78613764D01*
X63387708Y-78613767D01*
X63383509Y-78615242D01*
X63379556Y-78617295D01*
X63379550Y-78617298D01*
X63330471Y-78642793D01*
X63137500Y-78743034D01*
X63133885Y-78745617D01*
X63133879Y-78745621D01*
X63038267Y-78813947D01*
X62911951Y-78904214D01*
X62711362Y-79095566D01*
X62708606Y-79099062D01*
X62708605Y-79099063D01*
X62565325Y-79280812D01*
X62539736Y-79313272D01*
X62517782Y-79351069D01*
X62402732Y-79549142D01*
X62402729Y-79549148D01*
X62400498Y-79552989D01*
X62296425Y-79809933D01*
X62295354Y-79814246D01*
X62295352Y-79814251D01*
X62253920Y-79981048D01*
X62229594Y-80078977D01*
X62201338Y-80354754D01*
X60432500Y-80354754D01*
X60432500Y-76153594D01*
X62201338Y-76153594D01*
X62201513Y-76158046D01*
X62206693Y-76289871D01*
X62212222Y-76430601D01*
X62262028Y-76703311D01*
X62349762Y-76966283D01*
X62473674Y-77214269D01*
X62631291Y-77442322D01*
X62819468Y-77645892D01*
X62822922Y-77648704D01*
X63030995Y-77818102D01*
X63030999Y-77818105D01*
X63034452Y-77820916D01*
X63271952Y-77963903D01*
X63276047Y-77965637D01*
X63276049Y-77965638D01*
X63518090Y-78068129D01*
X63527229Y-78071999D01*
X63531522Y-78073137D01*
X63531527Y-78073139D01*
X63652871Y-78105312D01*
X63795191Y-78143047D01*
X64070490Y-78175631D01*
X64347634Y-78169100D01*
X64504160Y-78143047D01*
X64616703Y-78124315D01*
X64616707Y-78124314D01*
X64621093Y-78123584D01*
X64625334Y-78122243D01*
X64625337Y-78122242D01*
X64881164Y-78041334D01*
X64881166Y-78041333D01*
X64885410Y-78039991D01*
X64889421Y-78038065D01*
X64889426Y-78038063D01*
X65131293Y-77921920D01*
X65131294Y-77921919D01*
X65135312Y-77919990D01*
X65193143Y-77881349D01*
X65362105Y-77768453D01*
X65362109Y-77768450D01*
X65365813Y-77765975D01*
X65369130Y-77763004D01*
X65369134Y-77763001D01*
X65568995Y-77583990D01*
X65568996Y-77583989D01*
X65572313Y-77581018D01*
X65750692Y-77368810D01*
X65897392Y-77133585D01*
X65916869Y-77089530D01*
X65973225Y-76962054D01*
X66009484Y-76880037D01*
X66084733Y-76613224D01*
X66108674Y-76434981D01*
X66121210Y-76341653D01*
X66121211Y-76341645D01*
X66121637Y-76338471D01*
X66121738Y-76335260D01*
X66125409Y-76218462D01*
X66125409Y-76218457D01*
X66125510Y-76215240D01*
X66105931Y-75938711D01*
X66047584Y-75667700D01*
X65951633Y-75407614D01*
X65819993Y-75163642D01*
X65817352Y-75160067D01*
X65817348Y-75160060D01*
X65657943Y-74944245D01*
X65655290Y-74940653D01*
X65613207Y-74897903D01*
X65463942Y-74746276D01*
X65460811Y-74743095D01*
X65457272Y-74740394D01*
X65457265Y-74740388D01*
X65310964Y-74628735D01*
X65240436Y-74574910D01*
X64998562Y-74439454D01*
X64994398Y-74437843D01*
X64876978Y-74392416D01*
X64820663Y-74349183D01*
X64796661Y-74282366D01*
X64796440Y-74274904D01*
X64796440Y-71213554D01*
X64816442Y-71145433D01*
X64833345Y-71124459D01*
X65524399Y-70433405D01*
X65586711Y-70399379D01*
X65613494Y-70396500D01*
X66822034Y-70396500D01*
X66884216Y-70389745D01*
X67020605Y-70338615D01*
X67066402Y-70304292D01*
X67129978Y-70256645D01*
X67129981Y-70256642D01*
X67137161Y-70251261D01*
X67142542Y-70244081D01*
X67148893Y-70237730D01*
X67151035Y-70239872D01*
X67195746Y-70206436D01*
X67266564Y-70201406D01*
X67307935Y-70219523D01*
X67308132Y-70219182D01*
X67311198Y-70220952D01*
X67311990Y-70221299D01*
X67312889Y-70221929D01*
X67322389Y-70227414D01*
X67519847Y-70319490D01*
X67530139Y-70323236D01*
X67740588Y-70379625D01*
X67751381Y-70381528D01*
X67968425Y-70400517D01*
X67979375Y-70400517D01*
X68196419Y-70381528D01*
X68207212Y-70379625D01*
X68417661Y-70323236D01*
X68427953Y-70319490D01*
X68625411Y-70227414D01*
X68634906Y-70221931D01*
X68686948Y-70185491D01*
X68695324Y-70175012D01*
X68688256Y-70161566D01*
X67703785Y-69177095D01*
X67669759Y-69114783D01*
X67671594Y-69089132D01*
X68338308Y-69089132D01*
X68338439Y-69090965D01*
X68342690Y-69097580D01*
X69048187Y-69803077D01*
X69059962Y-69809507D01*
X69071977Y-69800211D01*
X69107831Y-69749006D01*
X69113314Y-69739511D01*
X69205390Y-69542053D01*
X69209136Y-69531761D01*
X69265525Y-69321312D01*
X69267428Y-69310519D01*
X69286417Y-69093475D01*
X69286417Y-69082525D01*
X69267428Y-68865481D01*
X69265525Y-68854688D01*
X69209136Y-68644239D01*
X69205390Y-68633947D01*
X69113314Y-68436489D01*
X69107831Y-68426994D01*
X69071391Y-68374952D01*
X69060912Y-68366576D01*
X69047466Y-68373644D01*
X68345922Y-69075188D01*
X68338308Y-69089132D01*
X67671594Y-69089132D01*
X67674824Y-69043968D01*
X67703785Y-68998905D01*
X68688977Y-68013713D01*
X68695407Y-68001938D01*
X68686111Y-67989923D01*
X68634906Y-67954069D01*
X68625411Y-67948586D01*
X68427953Y-67856510D01*
X68417661Y-67852764D01*
X68207212Y-67796375D01*
X68196419Y-67794472D01*
X67979375Y-67775483D01*
X67968425Y-67775483D01*
X67751381Y-67794472D01*
X67740588Y-67796375D01*
X67530139Y-67852764D01*
X67519847Y-67856510D01*
X67322389Y-67948586D01*
X67312889Y-67954071D01*
X67311990Y-67954701D01*
X67311530Y-67954856D01*
X67308132Y-67956818D01*
X67307738Y-67956135D01*
X67244716Y-67977388D01*
X67175856Y-67960102D01*
X67150097Y-67937066D01*
X67148893Y-67938270D01*
X67142542Y-67931919D01*
X67137161Y-67924739D01*
X67129981Y-67919358D01*
X67129978Y-67919355D01*
X67051611Y-67860623D01*
X67020605Y-67837385D01*
X66884216Y-67786255D01*
X66822034Y-67779500D01*
X65613495Y-67779500D01*
X65545374Y-67759498D01*
X65524400Y-67742595D01*
X65440405Y-67658600D01*
X65406379Y-67596288D01*
X65403500Y-67569505D01*
X65403500Y-65259885D01*
X77740000Y-65259885D01*
X77744475Y-65275124D01*
X77745865Y-65276329D01*
X77753548Y-65278000D01*
X78975885Y-65278000D01*
X78991124Y-65273525D01*
X78992329Y-65272135D01*
X78994000Y-65264452D01*
X78994000Y-65259885D01*
X79502000Y-65259885D01*
X79506475Y-65275124D01*
X79507865Y-65276329D01*
X79515548Y-65278000D01*
X80737884Y-65278000D01*
X80753123Y-65273525D01*
X80754328Y-65272135D01*
X80755999Y-65264452D01*
X80755999Y-64884905D01*
X80755662Y-64878386D01*
X80745743Y-64782794D01*
X80742851Y-64769400D01*
X80691412Y-64615216D01*
X80685239Y-64602038D01*
X80599937Y-64464193D01*
X80590901Y-64452792D01*
X80476171Y-64338261D01*
X80464760Y-64329249D01*
X80326757Y-64244184D01*
X80313576Y-64238037D01*
X80159290Y-64186862D01*
X80145914Y-64183995D01*
X80051562Y-64174328D01*
X80045145Y-64174000D01*
X79520115Y-64174000D01*
X79504876Y-64178475D01*
X79503671Y-64179865D01*
X79502000Y-64187548D01*
X79502000Y-65259885D01*
X78994000Y-65259885D01*
X78994000Y-64192116D01*
X78989525Y-64176877D01*
X78988135Y-64175672D01*
X78980452Y-64174001D01*
X78450905Y-64174001D01*
X78444386Y-64174338D01*
X78348794Y-64184257D01*
X78335400Y-64187149D01*
X78181216Y-64238588D01*
X78168038Y-64244761D01*
X78030193Y-64330063D01*
X78018792Y-64339099D01*
X77904261Y-64453829D01*
X77895249Y-64465240D01*
X77810184Y-64603243D01*
X77804037Y-64616424D01*
X77752862Y-64770710D01*
X77749995Y-64784086D01*
X77740328Y-64878438D01*
X77740000Y-64884855D01*
X77740000Y-65259885D01*
X65403500Y-65259885D01*
X65403500Y-56410566D01*
X65423502Y-56342445D01*
X65463665Y-56303133D01*
X65645556Y-56191670D01*
X66442160Y-56191670D01*
X66447887Y-56199320D01*
X66619042Y-56304205D01*
X66627837Y-56308687D01*
X66837988Y-56395734D01*
X66847373Y-56398783D01*
X67068554Y-56451885D01*
X67078301Y-56453428D01*
X67305070Y-56471275D01*
X67314930Y-56471275D01*
X67541699Y-56453428D01*
X67551446Y-56451885D01*
X67772627Y-56398783D01*
X67782012Y-56395734D01*
X67992163Y-56308687D01*
X68000958Y-56304205D01*
X68168445Y-56201568D01*
X68177907Y-56191110D01*
X68174124Y-56182334D01*
X67322812Y-55331022D01*
X67308868Y-55323408D01*
X67307035Y-55323539D01*
X67300420Y-55327790D01*
X66448920Y-56179290D01*
X66442160Y-56191670D01*
X65645556Y-56191670D01*
X65655202Y-56185759D01*
X65655208Y-56185755D01*
X65659416Y-56183176D01*
X65839969Y-56028969D01*
X65843177Y-56025213D01*
X65843182Y-56025208D01*
X65973706Y-55872384D01*
X66033156Y-55833574D01*
X66067558Y-55831360D01*
X66086667Y-55823123D01*
X66937978Y-54971812D01*
X66944356Y-54960132D01*
X67674408Y-54960132D01*
X67674539Y-54961965D01*
X67678790Y-54968580D01*
X68530290Y-55820080D01*
X68542670Y-55826840D01*
X68550320Y-55821113D01*
X68655205Y-55649958D01*
X68659687Y-55641163D01*
X68746734Y-55431012D01*
X68749783Y-55421627D01*
X68802885Y-55200446D01*
X68804428Y-55190699D01*
X68822275Y-54963930D01*
X68822275Y-54959000D01*
X70876835Y-54959000D01*
X70895465Y-55195711D01*
X70896619Y-55200518D01*
X70896620Y-55200524D01*
X70922275Y-55307384D01*
X70950895Y-55426594D01*
X70952788Y-55431165D01*
X70952789Y-55431167D01*
X71039772Y-55641163D01*
X71041760Y-55645963D01*
X71044346Y-55650183D01*
X71163241Y-55844202D01*
X71163245Y-55844208D01*
X71165824Y-55848416D01*
X71320031Y-56028969D01*
X71500584Y-56183176D01*
X71504792Y-56185755D01*
X71504798Y-56185759D01*
X71696335Y-56303133D01*
X71703037Y-56307240D01*
X71707607Y-56309133D01*
X71707611Y-56309135D01*
X71917833Y-56396211D01*
X71922406Y-56398105D01*
X71974310Y-56410566D01*
X72148476Y-56452380D01*
X72148482Y-56452381D01*
X72153289Y-56453535D01*
X72390000Y-56472165D01*
X72626711Y-56453535D01*
X72631518Y-56452381D01*
X72631524Y-56452380D01*
X72805690Y-56410566D01*
X72857594Y-56398105D01*
X72862167Y-56396211D01*
X73072389Y-56309135D01*
X73072393Y-56309133D01*
X73076963Y-56307240D01*
X73083665Y-56303133D01*
X73265556Y-56191670D01*
X74062160Y-56191670D01*
X74067887Y-56199320D01*
X74239042Y-56304205D01*
X74247837Y-56308687D01*
X74457988Y-56395734D01*
X74467373Y-56398783D01*
X74688554Y-56451885D01*
X74698301Y-56453428D01*
X74925070Y-56471275D01*
X74934930Y-56471275D01*
X75161699Y-56453428D01*
X75171446Y-56451885D01*
X75392627Y-56398783D01*
X75402012Y-56395734D01*
X75612163Y-56308687D01*
X75620958Y-56304205D01*
X75788445Y-56201568D01*
X75797907Y-56191110D01*
X75794124Y-56182334D01*
X74942812Y-55331022D01*
X74928868Y-55323408D01*
X74927035Y-55323539D01*
X74920420Y-55327790D01*
X74068920Y-56179290D01*
X74062160Y-56191670D01*
X73265556Y-56191670D01*
X73275202Y-56185759D01*
X73275208Y-56185755D01*
X73279416Y-56183176D01*
X73459969Y-56028969D01*
X73463177Y-56025213D01*
X73463182Y-56025208D01*
X73593706Y-55872384D01*
X73653156Y-55833574D01*
X73687558Y-55831360D01*
X73706667Y-55823123D01*
X74557978Y-54971812D01*
X74564356Y-54960132D01*
X75294408Y-54960132D01*
X75294539Y-54961965D01*
X75298790Y-54968580D01*
X76150290Y-55820080D01*
X76167102Y-55829260D01*
X76230350Y-55843020D01*
X76265775Y-55871776D01*
X76285092Y-55894393D01*
X76400031Y-56028969D01*
X76580584Y-56183176D01*
X76584792Y-56185755D01*
X76584798Y-56185759D01*
X76776335Y-56303133D01*
X76783037Y-56307240D01*
X76787607Y-56309133D01*
X76787611Y-56309135D01*
X76997833Y-56396211D01*
X77002406Y-56398105D01*
X77054310Y-56410566D01*
X77228476Y-56452380D01*
X77228482Y-56452381D01*
X77233289Y-56453535D01*
X77470000Y-56472165D01*
X77706711Y-56453535D01*
X77711518Y-56452381D01*
X77711524Y-56452380D01*
X77885690Y-56410566D01*
X77937594Y-56398105D01*
X77942167Y-56396211D01*
X78152389Y-56309135D01*
X78152393Y-56309133D01*
X78156963Y-56307240D01*
X78163665Y-56303133D01*
X78355202Y-56185759D01*
X78355208Y-56185755D01*
X78359416Y-56183176D01*
X78539969Y-56028969D01*
X78694176Y-55848416D01*
X78696755Y-55844208D01*
X78696759Y-55844202D01*
X78815654Y-55650183D01*
X78818240Y-55645963D01*
X78820229Y-55641163D01*
X78907211Y-55431167D01*
X78907212Y-55431165D01*
X78909105Y-55426594D01*
X78937725Y-55307384D01*
X78963380Y-55200524D01*
X78963381Y-55200518D01*
X78964535Y-55195711D01*
X78983165Y-54959000D01*
X78964535Y-54722289D01*
X78959694Y-54702122D01*
X78913807Y-54510993D01*
X78909105Y-54491406D01*
X78903976Y-54479023D01*
X78820135Y-54276611D01*
X78820133Y-54276607D01*
X78818240Y-54272037D01*
X78815654Y-54267817D01*
X78696759Y-54073798D01*
X78696755Y-54073792D01*
X78694176Y-54069584D01*
X78539969Y-53889031D01*
X78359416Y-53734824D01*
X78355208Y-53732245D01*
X78355202Y-53732241D01*
X78161183Y-53613346D01*
X78156963Y-53610760D01*
X78152393Y-53608867D01*
X78152389Y-53608865D01*
X77942167Y-53521789D01*
X77942165Y-53521788D01*
X77937594Y-53519895D01*
X77857391Y-53500640D01*
X77711524Y-53465620D01*
X77711518Y-53465619D01*
X77706711Y-53464465D01*
X77470000Y-53445835D01*
X77233289Y-53464465D01*
X77228482Y-53465619D01*
X77228476Y-53465620D01*
X77082609Y-53500640D01*
X77002406Y-53519895D01*
X76997835Y-53521788D01*
X76997833Y-53521789D01*
X76787611Y-53608865D01*
X76787607Y-53608867D01*
X76783037Y-53610760D01*
X76778817Y-53613346D01*
X76584798Y-53732241D01*
X76584792Y-53732245D01*
X76580584Y-53734824D01*
X76400031Y-53889031D01*
X76396823Y-53892787D01*
X76396818Y-53892792D01*
X76266294Y-54045616D01*
X76206844Y-54084426D01*
X76172442Y-54086640D01*
X76153333Y-54094877D01*
X75302022Y-54946188D01*
X75294408Y-54960132D01*
X74564356Y-54960132D01*
X74565592Y-54957868D01*
X74565461Y-54956035D01*
X74561210Y-54949420D01*
X73709710Y-54097920D01*
X73692898Y-54088740D01*
X73629650Y-54074980D01*
X73594225Y-54046224D01*
X73463177Y-53892787D01*
X73459969Y-53889031D01*
X73279416Y-53734824D01*
X73275208Y-53732245D01*
X73275202Y-53732241D01*
X73266470Y-53726890D01*
X74062093Y-53726890D01*
X74065876Y-53735666D01*
X74917188Y-54586978D01*
X74931132Y-54594592D01*
X74932965Y-54594461D01*
X74939580Y-54590210D01*
X75791080Y-53738710D01*
X75797840Y-53726330D01*
X75792113Y-53718680D01*
X75620958Y-53613795D01*
X75612163Y-53609313D01*
X75402012Y-53522266D01*
X75392627Y-53519217D01*
X75171446Y-53466115D01*
X75161699Y-53464572D01*
X74934930Y-53446725D01*
X74925070Y-53446725D01*
X74698301Y-53464572D01*
X74688554Y-53466115D01*
X74467373Y-53519217D01*
X74457988Y-53522266D01*
X74247837Y-53609313D01*
X74239042Y-53613795D01*
X74071555Y-53716432D01*
X74062093Y-53726890D01*
X73266470Y-53726890D01*
X73081183Y-53613346D01*
X73076963Y-53610760D01*
X73072393Y-53608867D01*
X73072389Y-53608865D01*
X72862167Y-53521789D01*
X72862165Y-53521788D01*
X72857594Y-53519895D01*
X72777391Y-53500640D01*
X72631524Y-53465620D01*
X72631518Y-53465619D01*
X72626711Y-53464465D01*
X72390000Y-53445835D01*
X72153289Y-53464465D01*
X72148482Y-53465619D01*
X72148476Y-53465620D01*
X72002609Y-53500640D01*
X71922406Y-53519895D01*
X71917835Y-53521788D01*
X71917833Y-53521789D01*
X71707611Y-53608865D01*
X71707607Y-53608867D01*
X71703037Y-53610760D01*
X71698817Y-53613346D01*
X71504798Y-53732241D01*
X71504792Y-53732245D01*
X71500584Y-53734824D01*
X71320031Y-53889031D01*
X71165824Y-54069584D01*
X71163245Y-54073792D01*
X71163241Y-54073798D01*
X71044346Y-54267817D01*
X71041760Y-54272037D01*
X71039867Y-54276607D01*
X71039865Y-54276611D01*
X70956024Y-54479023D01*
X70950895Y-54491406D01*
X70946193Y-54510993D01*
X70900307Y-54702122D01*
X70895465Y-54722289D01*
X70876835Y-54959000D01*
X68822275Y-54959000D01*
X68822275Y-54954070D01*
X68804428Y-54727301D01*
X68802885Y-54717554D01*
X68749783Y-54496373D01*
X68746734Y-54486988D01*
X68659687Y-54276837D01*
X68655205Y-54268042D01*
X68552568Y-54100555D01*
X68542110Y-54091093D01*
X68533334Y-54094876D01*
X67682022Y-54946188D01*
X67674408Y-54960132D01*
X66944356Y-54960132D01*
X66945592Y-54957868D01*
X66945461Y-54956035D01*
X66941210Y-54949420D01*
X66089710Y-54097920D01*
X66072898Y-54088740D01*
X66009650Y-54074980D01*
X65974225Y-54046224D01*
X65843177Y-53892787D01*
X65839969Y-53889031D01*
X65659416Y-53734824D01*
X65655208Y-53732245D01*
X65655202Y-53732241D01*
X65646470Y-53726890D01*
X66442093Y-53726890D01*
X66445876Y-53735666D01*
X67297188Y-54586978D01*
X67311132Y-54594592D01*
X67312965Y-54594461D01*
X67319580Y-54590210D01*
X68171080Y-53738710D01*
X68177840Y-53726330D01*
X68172113Y-53718680D01*
X68000958Y-53613795D01*
X67992163Y-53609313D01*
X67782012Y-53522266D01*
X67772627Y-53519217D01*
X67551446Y-53466115D01*
X67541699Y-53464572D01*
X67314930Y-53446725D01*
X67305070Y-53446725D01*
X67078301Y-53464572D01*
X67068554Y-53466115D01*
X66847373Y-53519217D01*
X66837988Y-53522266D01*
X66627837Y-53609313D01*
X66619042Y-53613795D01*
X66451555Y-53716432D01*
X66442093Y-53726890D01*
X65646470Y-53726890D01*
X65461183Y-53613346D01*
X65456963Y-53610760D01*
X65452393Y-53608867D01*
X65452389Y-53608865D01*
X65242167Y-53521789D01*
X65242165Y-53521788D01*
X65237594Y-53519895D01*
X65157391Y-53500640D01*
X65011524Y-53465620D01*
X65011518Y-53465619D01*
X65006711Y-53464465D01*
X64770000Y-53445835D01*
X64533289Y-53464465D01*
X64528482Y-53465619D01*
X64528476Y-53465620D01*
X64382609Y-53500640D01*
X64302406Y-53519895D01*
X64297835Y-53521788D01*
X64297833Y-53521789D01*
X64087611Y-53608865D01*
X64087607Y-53608867D01*
X64083037Y-53610760D01*
X64078817Y-53613346D01*
X63884798Y-53732241D01*
X63884792Y-53732245D01*
X63880584Y-53734824D01*
X63700031Y-53889031D01*
X63545824Y-54069584D01*
X63543245Y-54073792D01*
X63543241Y-54073798D01*
X63424346Y-54267817D01*
X63421760Y-54272037D01*
X63419867Y-54276607D01*
X63419865Y-54276611D01*
X63336024Y-54479023D01*
X63330895Y-54491406D01*
X63326193Y-54510993D01*
X63280307Y-54702122D01*
X63275465Y-54722289D01*
X63256835Y-54959000D01*
X63275465Y-55195711D01*
X63276619Y-55200518D01*
X63276620Y-55200524D01*
X63302275Y-55307384D01*
X63330895Y-55426594D01*
X63332788Y-55431165D01*
X63332789Y-55431167D01*
X63419772Y-55641163D01*
X63421760Y-55645963D01*
X63424346Y-55650183D01*
X63543241Y-55844202D01*
X63543245Y-55844208D01*
X63545824Y-55848416D01*
X63700031Y-56028969D01*
X63880584Y-56183176D01*
X63884792Y-56185755D01*
X63884798Y-56185759D01*
X64076335Y-56303133D01*
X64123966Y-56355781D01*
X64136500Y-56410566D01*
X64136500Y-67805333D01*
X64135973Y-67816516D01*
X64134298Y-67824009D01*
X64134547Y-67831935D01*
X64134547Y-67831936D01*
X64136438Y-67892086D01*
X64136500Y-67896045D01*
X64136500Y-67923956D01*
X64136997Y-67927890D01*
X64136997Y-67927891D01*
X64137005Y-67927956D01*
X64137938Y-67939793D01*
X64139327Y-67983989D01*
X64144542Y-68001938D01*
X64144978Y-68003439D01*
X64148987Y-68022800D01*
X64151526Y-68042897D01*
X64154445Y-68050268D01*
X64154445Y-68050270D01*
X64167804Y-68084012D01*
X64171649Y-68095242D01*
X64183982Y-68137693D01*
X64188015Y-68144512D01*
X64188017Y-68144517D01*
X64194293Y-68155128D01*
X64202988Y-68172876D01*
X64210448Y-68191717D01*
X64215110Y-68198133D01*
X64215110Y-68198134D01*
X64236436Y-68227487D01*
X64242952Y-68237407D01*
X64265458Y-68275462D01*
X64279779Y-68289783D01*
X64292619Y-68304816D01*
X64304528Y-68321207D01*
X64326493Y-68339378D01*
X64338605Y-68349398D01*
X64347384Y-68357388D01*
X64628495Y-68638499D01*
X64662521Y-68700811D01*
X64665400Y-68727594D01*
X64665400Y-69448405D01*
X64645398Y-69516526D01*
X64628495Y-69537500D01*
X63770687Y-70395308D01*
X63762401Y-70402848D01*
X63755922Y-70406960D01*
X63750497Y-70412737D01*
X63709297Y-70456611D01*
X63706542Y-70459453D01*
X63686805Y-70479190D01*
X63684325Y-70482387D01*
X63676622Y-70491407D01*
X63646354Y-70523639D01*
X63642535Y-70530585D01*
X63642533Y-70530588D01*
X63636592Y-70541394D01*
X63625741Y-70557913D01*
X63613326Y-70573919D01*
X63610181Y-70581188D01*
X63610178Y-70581192D01*
X63595766Y-70614497D01*
X63590549Y-70625147D01*
X63569245Y-70663900D01*
X63567274Y-70671575D01*
X63567274Y-70671576D01*
X63564207Y-70683522D01*
X63557803Y-70702226D01*
X63549759Y-70720815D01*
X63548520Y-70728638D01*
X63548517Y-70728648D01*
X63542841Y-70764484D01*
X63540435Y-70776104D01*
X63529440Y-70818930D01*
X63529440Y-70839184D01*
X63527889Y-70858894D01*
X63524720Y-70878903D01*
X63525466Y-70886795D01*
X63528881Y-70922921D01*
X63529440Y-70934779D01*
X63529440Y-74273539D01*
X63509438Y-74341660D01*
X63455782Y-74388153D01*
X63445188Y-74392422D01*
X63387717Y-74412604D01*
X63387714Y-74412605D01*
X63383509Y-74414082D01*
X63379556Y-74416135D01*
X63379550Y-74416138D01*
X63333707Y-74439952D01*
X63137500Y-74541874D01*
X63133885Y-74544457D01*
X63133879Y-74544461D01*
X62991374Y-74646297D01*
X62911951Y-74703054D01*
X62908731Y-74706126D01*
X62735307Y-74871564D01*
X62711362Y-74894406D01*
X62539736Y-75112112D01*
X62517782Y-75149909D01*
X62402732Y-75347982D01*
X62402729Y-75347988D01*
X62400498Y-75351829D01*
X62398828Y-75355952D01*
X62301042Y-75597375D01*
X62296425Y-75608773D01*
X62295354Y-75613086D01*
X62295352Y-75613091D01*
X62267801Y-75724007D01*
X62229594Y-75877817D01*
X62201338Y-76153594D01*
X60432500Y-76153594D01*
X60432500Y-69529767D01*
X60433027Y-69518584D01*
X60434702Y-69511091D01*
X60432562Y-69443014D01*
X60432500Y-69439055D01*
X60432500Y-69411144D01*
X60431995Y-69407144D01*
X60431062Y-69395301D01*
X60430882Y-69389556D01*
X60429673Y-69351110D01*
X60424022Y-69331658D01*
X60420014Y-69312306D01*
X60418467Y-69300063D01*
X60417474Y-69292203D01*
X60414556Y-69284832D01*
X60401200Y-69251097D01*
X60397355Y-69239870D01*
X60391677Y-69220327D01*
X60385018Y-69197407D01*
X60380984Y-69190585D01*
X60380981Y-69190579D01*
X60374706Y-69179968D01*
X60366010Y-69162218D01*
X60361472Y-69150756D01*
X60361469Y-69150751D01*
X60358552Y-69143383D01*
X60332573Y-69107625D01*
X60326057Y-69097707D01*
X60307575Y-69066457D01*
X60303542Y-69059637D01*
X60289218Y-69045313D01*
X60276376Y-69030278D01*
X60264472Y-69013893D01*
X60230406Y-68985711D01*
X60221627Y-68977722D01*
X59937518Y-68693613D01*
X59903492Y-68631301D01*
X59906249Y-68567256D01*
X59916290Y-68534820D01*
X59933231Y-68373644D01*
X59936832Y-68339378D01*
X59936832Y-68339377D01*
X59937476Y-68333250D01*
X59923318Y-68177684D01*
X59919665Y-68137543D01*
X59919664Y-68137540D01*
X59919106Y-68131404D01*
X59907184Y-68090895D01*
X59873776Y-67977388D01*
X59861881Y-67936971D01*
X59857169Y-67927956D01*
X59788994Y-67797549D01*
X59775160Y-67727913D01*
X59801170Y-67661852D01*
X59854274Y-67622022D01*
X59870617Y-67615552D01*
X59906387Y-67589564D01*
X59916307Y-67583048D01*
X59947535Y-67564580D01*
X59947538Y-67564578D01*
X59954362Y-67560542D01*
X59968683Y-67546221D01*
X59983717Y-67533380D01*
X59993694Y-67526131D01*
X60000107Y-67521472D01*
X60028298Y-67487395D01*
X60036288Y-67478616D01*
X60191247Y-67323657D01*
X60199537Y-67316113D01*
X60206018Y-67312000D01*
X60252659Y-67262332D01*
X60255413Y-67259491D01*
X60275134Y-67239770D01*
X60277612Y-67236575D01*
X60285318Y-67227553D01*
X60310158Y-67201101D01*
X60315586Y-67195321D01*
X60325346Y-67177568D01*
X60336199Y-67161045D01*
X60343753Y-67151306D01*
X60348613Y-67145041D01*
X60366176Y-67104457D01*
X60371383Y-67093827D01*
X60392695Y-67055060D01*
X60394666Y-67047383D01*
X60394668Y-67047378D01*
X60397732Y-67035442D01*
X60404138Y-67016730D01*
X60409034Y-67005417D01*
X60412181Y-66998145D01*
X60416728Y-66969441D01*
X60419097Y-66954481D01*
X60421504Y-66942860D01*
X60430528Y-66907711D01*
X60430528Y-66907710D01*
X60432500Y-66900030D01*
X60432500Y-66879769D01*
X60434051Y-66860058D01*
X60435121Y-66853306D01*
X60437219Y-66840057D01*
X60433059Y-66796046D01*
X60432500Y-66784189D01*
X60432500Y-55026867D01*
X60433027Y-55015684D01*
X60434702Y-55008191D01*
X60432562Y-54940100D01*
X60432500Y-54936143D01*
X60432500Y-54908244D01*
X60431996Y-54904253D01*
X60431063Y-54892411D01*
X60429923Y-54856136D01*
X60429674Y-54848211D01*
X60427462Y-54840597D01*
X60427461Y-54840592D01*
X60424023Y-54828759D01*
X60420012Y-54809395D01*
X60418467Y-54797164D01*
X60417474Y-54789303D01*
X60414557Y-54781936D01*
X60414556Y-54781931D01*
X60401198Y-54748192D01*
X60397354Y-54736965D01*
X60387230Y-54702122D01*
X60385018Y-54694507D01*
X60374707Y-54677072D01*
X60366012Y-54659324D01*
X60358552Y-54640483D01*
X60332564Y-54604713D01*
X60326048Y-54594793D01*
X60307580Y-54563565D01*
X60307578Y-54563562D01*
X60303542Y-54556738D01*
X60289221Y-54542417D01*
X60276380Y-54527383D01*
X60269131Y-54517406D01*
X60264472Y-54510993D01*
X60258367Y-54505942D01*
X60258362Y-54505937D01*
X60230402Y-54482806D01*
X60221624Y-54474819D01*
X60015562Y-54268758D01*
X59981537Y-54206446D01*
X59979136Y-54168681D01*
X59987019Y-54078576D01*
X59987019Y-54078575D01*
X59987498Y-54073100D01*
X59967543Y-53845013D01*
X59938878Y-53738035D01*
X59909707Y-53629167D01*
X59909706Y-53629165D01*
X59908284Y-53623857D01*
X59860912Y-53522266D01*
X59813849Y-53421338D01*
X59813846Y-53421333D01*
X59811523Y-53416351D01*
X59680198Y-53228800D01*
X59518300Y-53066902D01*
X59513792Y-53063745D01*
X59513789Y-53063743D01*
X59435611Y-53009002D01*
X59330749Y-52935577D01*
X59325767Y-52933254D01*
X59325762Y-52933251D01*
X59128225Y-52841139D01*
X59128224Y-52841139D01*
X59123243Y-52838816D01*
X59117935Y-52837394D01*
X59117933Y-52837393D01*
X58907402Y-52780981D01*
X58907400Y-52780981D01*
X58902087Y-52779557D01*
X58674000Y-52759602D01*
X58445913Y-52779557D01*
X58440600Y-52780981D01*
X58440598Y-52780981D01*
X58230067Y-52837393D01*
X58230065Y-52837394D01*
X58224757Y-52838816D01*
X58219776Y-52841139D01*
X58219775Y-52841139D01*
X58022238Y-52933251D01*
X58022233Y-52933254D01*
X58017251Y-52935577D01*
X57912389Y-53009002D01*
X57834211Y-53063743D01*
X57834208Y-53063745D01*
X57829700Y-53066902D01*
X57667802Y-53228800D01*
X57536477Y-53416351D01*
X57534154Y-53421333D01*
X57534151Y-53421338D01*
X57487088Y-53522266D01*
X57439716Y-53623857D01*
X57438294Y-53629165D01*
X57438293Y-53629167D01*
X57409122Y-53738035D01*
X57380457Y-53845013D01*
X57360502Y-54073100D01*
X57380457Y-54301187D01*
X57381881Y-54306500D01*
X57381881Y-54306502D01*
X57430243Y-54486988D01*
X57439716Y-54522343D01*
X57442039Y-54527324D01*
X57442039Y-54527325D01*
X57534151Y-54724862D01*
X57534154Y-54724867D01*
X57536477Y-54729849D01*
X57539637Y-54734362D01*
X57540590Y-54735724D01*
X57540825Y-54736420D01*
X57542383Y-54739119D01*
X57541840Y-54739432D01*
X57563274Y-54803000D01*
X57545985Y-54871859D01*
X57523344Y-54897181D01*
X57524627Y-54898464D01*
X57505715Y-54917376D01*
X57429214Y-55019451D01*
X57420676Y-55035046D01*
X57375522Y-55155494D01*
X57371895Y-55170749D01*
X57366369Y-55221614D01*
X57366000Y-55228428D01*
X57366000Y-55800985D01*
X57370475Y-55816224D01*
X57371865Y-55817429D01*
X57379548Y-55819100D01*
X58802000Y-55819100D01*
X58870121Y-55839102D01*
X58916614Y-55892758D01*
X58928000Y-55945100D01*
X58928000Y-57362984D01*
X58932475Y-57378223D01*
X58933865Y-57379428D01*
X58941548Y-57381099D01*
X59039500Y-57381099D01*
X59107621Y-57401101D01*
X59154114Y-57454757D01*
X59165500Y-57507099D01*
X59165500Y-64627000D01*
X59145498Y-64695121D01*
X59091842Y-64741614D01*
X59039500Y-64753000D01*
X58946115Y-64753000D01*
X58930876Y-64757475D01*
X58929671Y-64758865D01*
X58928000Y-64766548D01*
X58928000Y-65896500D01*
X58907998Y-65964621D01*
X58854342Y-66011114D01*
X58802000Y-66022500D01*
X58397996Y-66022500D01*
X58247287Y-66037277D01*
X58244998Y-66037968D01*
X58224276Y-66040000D01*
X57434116Y-66040000D01*
X57418877Y-66044475D01*
X57417672Y-66045865D01*
X57416001Y-66053548D01*
X57416001Y-66355669D01*
X57416371Y-66362490D01*
X57421895Y-66413352D01*
X57425521Y-66428604D01*
X57470677Y-66549056D01*
X57479114Y-66564466D01*
X57494284Y-66633823D01*
X57488960Y-66662235D01*
X57431710Y-66847180D01*
X57431066Y-66853305D01*
X57431066Y-66853306D01*
X57413889Y-67016730D01*
X57410524Y-67048750D01*
X57414625Y-67093813D01*
X57428164Y-67242572D01*
X57428894Y-67250596D01*
X57486119Y-67445029D01*
X57488973Y-67450489D01*
X57488975Y-67450493D01*
X57519104Y-67508126D01*
X57532938Y-67577762D01*
X57506927Y-67643822D01*
X57449331Y-67685333D01*
X57407442Y-67692500D01*
X55916768Y-67692500D01*
X55905585Y-67691973D01*
X55898092Y-67690298D01*
X55890166Y-67690547D01*
X55890165Y-67690547D01*
X55830002Y-67692438D01*
X55826044Y-67692500D01*
X55798144Y-67692500D01*
X55794154Y-67693004D01*
X55782320Y-67693936D01*
X55738111Y-67695326D01*
X55730495Y-67697539D01*
X55730493Y-67697539D01*
X55718652Y-67700979D01*
X55699293Y-67704988D01*
X55697983Y-67705154D01*
X55679203Y-67707526D01*
X55671837Y-67710442D01*
X55671831Y-67710444D01*
X55638098Y-67723800D01*
X55626868Y-67727645D01*
X55625946Y-67727913D01*
X55584407Y-67739981D01*
X55577584Y-67744016D01*
X55566966Y-67750295D01*
X55549213Y-67758992D01*
X55541568Y-67762019D01*
X55530383Y-67766448D01*
X55511911Y-67779869D01*
X55494612Y-67792437D01*
X55484695Y-67798951D01*
X55446638Y-67821458D01*
X55432317Y-67835779D01*
X55417284Y-67848619D01*
X55400893Y-67860528D01*
X55395842Y-67866634D01*
X55372702Y-67894605D01*
X55364712Y-67903384D01*
X53809095Y-69459001D01*
X53746783Y-69493027D01*
X53675968Y-69487962D01*
X53619132Y-69445415D01*
X53594321Y-69378895D01*
X53594000Y-69369906D01*
X53594000Y-67437000D01*
X50799000Y-67437000D01*
X50730879Y-67416998D01*
X50684386Y-67363342D01*
X50673000Y-67311000D01*
X50673000Y-65513885D01*
X57416000Y-65513885D01*
X57420475Y-65529124D01*
X57421865Y-65530329D01*
X57429548Y-65532000D01*
X58401885Y-65532000D01*
X58417124Y-65527525D01*
X58418329Y-65526135D01*
X58420000Y-65518452D01*
X58420000Y-64771116D01*
X58415525Y-64755877D01*
X58414135Y-64754672D01*
X58406452Y-64753001D01*
X57879331Y-64753001D01*
X57872510Y-64753371D01*
X57821648Y-64758895D01*
X57806396Y-64762521D01*
X57685946Y-64807676D01*
X57670351Y-64816214D01*
X57568276Y-64892715D01*
X57555715Y-64905276D01*
X57479214Y-65007351D01*
X57470676Y-65022946D01*
X57425522Y-65143394D01*
X57421895Y-65158649D01*
X57416369Y-65209514D01*
X57416000Y-65216328D01*
X57416000Y-65513885D01*
X50673000Y-65513885D01*
X50673000Y-65150000D01*
X50693002Y-65081879D01*
X50746658Y-65035386D01*
X50799000Y-65024000D01*
X53594000Y-65024000D01*
X53594000Y-59436000D01*
X50799000Y-59436000D01*
X50730879Y-59415998D01*
X50684386Y-59362342D01*
X50673000Y-59310000D01*
X50673000Y-57149000D01*
X50693002Y-57080879D01*
X50746658Y-57034386D01*
X50799000Y-57023000D01*
X53594000Y-57023000D01*
X53594000Y-56917769D01*
X57366001Y-56917769D01*
X57366371Y-56924590D01*
X57371895Y-56975452D01*
X57375521Y-56990704D01*
X57420676Y-57111154D01*
X57429214Y-57126749D01*
X57505715Y-57228824D01*
X57518276Y-57241385D01*
X57620351Y-57317886D01*
X57635946Y-57326424D01*
X57756394Y-57371578D01*
X57771649Y-57375205D01*
X57822514Y-57380731D01*
X57829328Y-57381100D01*
X58401885Y-57381100D01*
X58417124Y-57376625D01*
X58418329Y-57375235D01*
X58420000Y-57367552D01*
X58420000Y-56345215D01*
X58415525Y-56329976D01*
X58414135Y-56328771D01*
X58406452Y-56327100D01*
X57384116Y-56327100D01*
X57368877Y-56331575D01*
X57367672Y-56332965D01*
X57366001Y-56340648D01*
X57366001Y-56917769D01*
X53594000Y-56917769D01*
X53594000Y-51367315D01*
X53614002Y-51299194D01*
X53667658Y-51252701D01*
X53719989Y-51241316D01*
X83007777Y-51239517D01*
X83075898Y-51259515D01*
G37*
%TD.AperFunction*%
%TD*%
M02*
