%TF.GenerationSoftware,KiCad,Pcbnew,(6.0.8-1)-1*%
%TF.CreationDate,2022-11-04T21:43:05-05:00*%
%TF.ProjectId,VT100_ATX_DCDC,56543130-305f-4415-9458-5f444344432e,rev?*%
%TF.SameCoordinates,Original*%
%TF.FileFunction,Copper,L1,Top*%
%TF.FilePolarity,Positive*%
%FSLAX46Y46*%
G04 Gerber Fmt 4.6, Leading zero omitted, Abs format (unit mm)*
G04 Created by KiCad (PCBNEW (6.0.8-1)-1) date 2022-11-04 21:43:05*
%MOMM*%
%LPD*%
G01*
G04 APERTURE LIST*
G04 Aperture macros list*
%AMRoundRect*
0 Rectangle with rounded corners*
0 $1 Rounding radius*
0 $2 $3 $4 $5 $6 $7 $8 $9 X,Y pos of 4 corners*
0 Add a 4 corners polygon primitive as box body*
4,1,4,$2,$3,$4,$5,$6,$7,$8,$9,$2,$3,0*
0 Add four circle primitives for the rounded corners*
1,1,$1+$1,$2,$3*
1,1,$1+$1,$4,$5*
1,1,$1+$1,$6,$7*
1,1,$1+$1,$8,$9*
0 Add four rect primitives between the rounded corners*
20,1,$1+$1,$2,$3,$4,$5,0*
20,1,$1+$1,$4,$5,$6,$7,0*
20,1,$1+$1,$6,$7,$8,$9,0*
20,1,$1+$1,$8,$9,$2,$3,0*%
G04 Aperture macros list end*
%TA.AperFunction,ComponentPad*%
%ADD10R,1.050000X1.500000*%
%TD*%
%TA.AperFunction,ComponentPad*%
%ADD11O,1.050000X1.500000*%
%TD*%
%TA.AperFunction,ComponentPad*%
%ADD12R,1.600000X1.600000*%
%TD*%
%TA.AperFunction,ComponentPad*%
%ADD13C,1.600000*%
%TD*%
%TA.AperFunction,ComponentPad*%
%ADD14C,2.000000*%
%TD*%
%TA.AperFunction,ComponentPad*%
%ADD15C,1.879600*%
%TD*%
%TA.AperFunction,ComponentPad*%
%ADD16RoundRect,0.120000X4.980000X1.080000X-4.980000X1.080000X-4.980000X-1.080000X4.980000X-1.080000X0*%
%TD*%
%TA.AperFunction,ComponentPad*%
%ADD17C,2.400000*%
%TD*%
%TA.AperFunction,ComponentPad*%
%ADD18O,2.400000X2.400000*%
%TD*%
%TA.AperFunction,ComponentPad*%
%ADD19C,2.898140*%
%TD*%
%TA.AperFunction,ViaPad*%
%ADD20C,0.800000*%
%TD*%
%TA.AperFunction,Conductor*%
%ADD21C,0.500000*%
%TD*%
%TA.AperFunction,Conductor*%
%ADD22C,1.000000*%
%TD*%
G04 APERTURE END LIST*
D10*
%TO.P,U3,1,Ground*%
%TO.N,GND*%
X66802000Y-53954000D03*
D11*
%TO.P,U3,2,Input*%
%TO.N,Net-(U1-Pad4)*%
X68072000Y-53954000D03*
%TO.P,U3,3,Output*%
%TO.N,-23V*%
X69342000Y-53954000D03*
%TD*%
D12*
%TO.P,C3,1*%
%TO.N,GND*%
X69088000Y-60960000D03*
D13*
%TO.P,C3,2*%
%TO.N,Net-(U1-Pad4)*%
X67088000Y-60960000D03*
%TD*%
%TO.P,C1,1*%
%TO.N,GND*%
X63246000Y-66528000D03*
%TO.P,C1,2*%
%TO.N,-23V*%
X63246000Y-64028000D03*
%TD*%
D14*
%TO.P,U1,1,Vin*%
%TO.N,+3.3V*%
X55975000Y-68326000D03*
%TO.P,U1,2,GND*%
%TO.N,GND*%
X55975000Y-65786000D03*
%TO.P,U1,4,-Vo*%
%TO.N,Net-(U1-Pad4)*%
X55975000Y-60706000D03*
%TO.P,U1,5,0V*%
%TO.N,GND*%
X55975000Y-58166000D03*
%TO.P,U1,6,+Vo*%
%TO.N,unconnected-(U1-Pad6)*%
X55975000Y-55626000D03*
%TD*%
D12*
%TO.P,C2,1*%
%TO.N,+3.3V*%
X69088000Y-67056000D03*
D13*
%TO.P,C2,2*%
%TO.N,GND*%
X67088000Y-67056000D03*
%TD*%
D15*
%TO.P,J1,1,Pin_1*%
%TO.N,GND*%
X76200000Y-67310000D03*
%TO.P,J1,2,Pin_2*%
%TO.N,Net-(J1-Pad2)*%
X76200000Y-69850000D03*
%TD*%
D16*
%TO.P,U2,1,A_+12V*%
%TO.N,+12V*%
X45931000Y-54233000D03*
%TO.P,U2,2,B_GND*%
%TO.N,GND*%
X45931000Y-58233000D03*
%TO.P,U2,3,C_+12V*%
%TO.N,+12V*%
X45931000Y-62233000D03*
%TO.P,U2,4,D_GND*%
%TO.N,GND*%
X45931000Y-66233000D03*
%TO.P,U2,5,E_-12V*%
%TO.N,-12V*%
X45931000Y-70233000D03*
%TO.P,U2,6,F_-23V*%
%TO.N,-23V*%
X45931000Y-74233000D03*
%TO.P,U2,7,H_NC*%
%TO.N,unconnected-(U2-Pad7)*%
X45931000Y-78233000D03*
%TO.P,U2,8,J_GND_+12V*%
%TO.N,GND_+12V*%
X45931000Y-82233000D03*
%TO.P,U2,9,K_GND*%
%TO.N,GND*%
X45931000Y-86233000D03*
%TO.P,U2,10,L_GND*%
X45931000Y-90233000D03*
%TO.P,U2,11,M_GND*%
X45931000Y-94233000D03*
%TO.P,U2,12,N_GND*%
X45931000Y-98233000D03*
%TO.P,U2,13,P_GND*%
X45931000Y-102233000D03*
%TO.P,U2,14,R_+5V*%
%TO.N,+5V*%
X45931000Y-106233000D03*
%TO.P,U2,15,S_+5V*%
X45931000Y-110233000D03*
%TO.P,U2,16,T_+5V*%
X45931000Y-114233000D03*
%TO.P,U2,17,U_+5V*%
X45931000Y-118233000D03*
%TO.P,U2,18,V_+5V*%
X45931000Y-122233000D03*
%TD*%
D17*
%TO.P,R1,1*%
%TO.N,+5V*%
X74930000Y-54610000D03*
D18*
%TO.P,R1,2*%
%TO.N,GND*%
X74930000Y-62230000D03*
%TD*%
D19*
%TO.P,J2,1,+3.3V*%
%TO.N,+3.3V*%
X64328040Y-76215240D03*
%TO.P,J2,2,+3.3V*%
X64328040Y-80416400D03*
%TO.P,J2,3,GND*%
%TO.N,GND*%
X64328040Y-84615020D03*
%TO.P,J2,4,+5V*%
%TO.N,+5V*%
X64328040Y-88816180D03*
%TO.P,J2,5,GND*%
%TO.N,GND*%
X64328040Y-93014800D03*
%TO.P,J2,6,+5V*%
%TO.N,+5V*%
X64328040Y-97215960D03*
%TO.P,J2,7,GND*%
%TO.N,GND*%
X64328040Y-101412040D03*
%TO.P,J2,8,PWR_OK*%
%TO.N,unconnected-(J2-Pad8)*%
X64328040Y-105613200D03*
%TO.P,J2,9,+5VSB*%
%TO.N,unconnected-(J2-Pad9)*%
X64328040Y-109811820D03*
%TO.P,J2,10,+12V*%
%TO.N,+12V*%
X64328040Y-114012980D03*
%TO.P,J2,11,+12V*%
X64328040Y-118211600D03*
%TO.P,J2,12,+3.3V*%
%TO.N,+3.3V*%
X64328040Y-122412760D03*
%TO.P,J2,13,+3.3V*%
X58828940Y-76215240D03*
%TO.P,J2,14,-12V*%
%TO.N,-12V*%
X58828940Y-80416400D03*
%TO.P,J2,15,GND*%
%TO.N,GND*%
X58828940Y-84615020D03*
%TO.P,J2,16,PS_ON#*%
%TO.N,Net-(J1-Pad2)*%
X58828940Y-88816180D03*
%TO.P,J2,17,GND*%
%TO.N,GND*%
X58828940Y-93014800D03*
%TO.P,J2,18,GND*%
X58828940Y-97215960D03*
%TO.P,J2,19,GND*%
X58828940Y-101412040D03*
%TO.P,J2,20,NC*%
%TO.N,unconnected-(J2-Pad20)*%
X58828940Y-105613200D03*
%TO.P,J2,21,+5V*%
%TO.N,+5V*%
X58828940Y-109811820D03*
%TO.P,J2,22,+5V*%
X58828940Y-114012980D03*
%TO.P,J2,23,+5V*%
X58828940Y-118211600D03*
%TO.P,J2,24,GND*%
%TO.N,GND*%
X58828940Y-122412760D03*
%TD*%
D20*
%TO.N,Net-(J1-Pad2)*%
X66040000Y-69850000D03*
%TD*%
D21*
%TO.N,+3.3V*%
X68072000Y-72471280D02*
X68072000Y-68072000D01*
X68072000Y-68072000D02*
X69088000Y-67056000D01*
%TO.N,-23V*%
X49931000Y-74233000D02*
X53041000Y-74233000D01*
X53041000Y-74233000D02*
X63246000Y-64028000D01*
X69342000Y-53954000D02*
X69342000Y-55204000D01*
X69342000Y-55204000D02*
X63246000Y-61300000D01*
X63246000Y-61300000D02*
X63246000Y-64028000D01*
%TO.N,+3.3V*%
X64328040Y-76215240D02*
X68072000Y-72471280D01*
%TO.N,Net-(J1-Pad2)*%
X61722000Y-74168000D02*
X61722000Y-85923120D01*
X61722000Y-85923120D02*
X58828940Y-88816180D01*
X66040000Y-69850000D02*
X61722000Y-74168000D01*
D22*
%TO.N,+5V*%
X64328040Y-88816180D02*
X69088000Y-84056220D01*
X69088000Y-70358000D02*
X71882000Y-67564000D01*
X69088000Y-84056220D02*
X69088000Y-70358000D01*
X71882000Y-67564000D02*
X71882000Y-57658000D01*
X71882000Y-57658000D02*
X74930000Y-54610000D01*
X64328040Y-88816180D02*
X66802000Y-91290140D01*
X66802000Y-91290140D02*
X66802000Y-94742000D01*
X66802000Y-94742000D02*
X64328040Y-97215960D01*
X58828940Y-109811820D02*
X61722000Y-106918760D01*
X61722000Y-106918760D02*
X61722000Y-99822000D01*
X61722000Y-99822000D02*
X64328040Y-97215960D01*
X58828940Y-118211600D02*
X58828940Y-109811820D01*
%TD*%
%TA.AperFunction,Conductor*%
%TO.N,GND*%
G36*
X77995900Y-51259517D02*
G01*
X78020147Y-51279814D01*
X78038977Y-51300106D01*
X78197861Y-51471330D01*
X78229535Y-51534870D01*
X78231500Y-51557035D01*
X78231500Y-124959181D01*
X78211498Y-125027302D01*
X78194596Y-125048276D01*
X78058278Y-125184595D01*
X77995966Y-125218620D01*
X77969182Y-125221500D01*
X53720000Y-125221500D01*
X53651879Y-125201498D01*
X53605386Y-125147842D01*
X53594000Y-125095500D01*
X53594000Y-123965447D01*
X57641420Y-123965447D01*
X57648810Y-123975749D01*
X57697283Y-124015212D01*
X57704562Y-124020327D01*
X57934360Y-124158677D01*
X57942284Y-124162714D01*
X58189289Y-124267308D01*
X58197694Y-124270186D01*
X58456983Y-124338934D01*
X58465704Y-124340598D01*
X58732098Y-124372128D01*
X58740963Y-124372546D01*
X59009128Y-124366226D01*
X59017988Y-124365389D01*
X59282574Y-124321350D01*
X59291231Y-124319271D01*
X59546980Y-124238389D01*
X59555241Y-124235118D01*
X59797045Y-124119005D01*
X59804770Y-124114599D01*
X60009587Y-123977745D01*
X60017875Y-123967827D01*
X60010618Y-123953648D01*
X58841752Y-122784782D01*
X58827808Y-122777168D01*
X58825975Y-122777299D01*
X58819360Y-122781550D01*
X57648586Y-123952324D01*
X57641420Y-123965447D01*
X53594000Y-123965447D01*
X53594000Y-122355582D01*
X56868014Y-122355582D01*
X56878545Y-122623617D01*
X56879520Y-122632446D01*
X56927713Y-122896327D01*
X56929922Y-122904929D01*
X57014814Y-123159382D01*
X57018218Y-123167600D01*
X57138116Y-123407554D01*
X57142634Y-123415193D01*
X57265019Y-123592271D01*
X57275337Y-123600622D01*
X57288992Y-123593498D01*
X58456918Y-122425572D01*
X58463296Y-122413892D01*
X59193348Y-122413892D01*
X59193479Y-122415725D01*
X59197730Y-122422340D01*
X60369286Y-123593896D01*
X60382686Y-123601213D01*
X60392591Y-123594226D01*
X60413422Y-123569443D01*
X60418642Y-123562258D01*
X60560595Y-123334645D01*
X60564747Y-123326805D01*
X60673215Y-123081454D01*
X60676221Y-123073104D01*
X60749034Y-122814928D01*
X60750835Y-122806235D01*
X60786710Y-122539141D01*
X60787238Y-122532748D01*
X60790908Y-122415982D01*
X60790781Y-122409539D01*
X60786644Y-122351114D01*
X62366438Y-122351114D01*
X62366613Y-122355566D01*
X62371793Y-122487391D01*
X62377322Y-122628121D01*
X62427128Y-122900831D01*
X62514862Y-123163803D01*
X62638774Y-123411789D01*
X62796391Y-123639842D01*
X62984568Y-123843412D01*
X62988022Y-123846224D01*
X63196095Y-124015622D01*
X63196099Y-124015625D01*
X63199552Y-124018436D01*
X63437052Y-124161423D01*
X63441147Y-124163157D01*
X63441149Y-124163158D01*
X63687108Y-124267308D01*
X63692329Y-124269519D01*
X63696622Y-124270657D01*
X63696627Y-124270659D01*
X63817971Y-124302832D01*
X63960291Y-124340567D01*
X64235590Y-124373151D01*
X64512734Y-124366620D01*
X64669260Y-124340567D01*
X64781803Y-124321835D01*
X64781807Y-124321834D01*
X64786193Y-124321104D01*
X64790434Y-124319763D01*
X64790437Y-124319762D01*
X65046264Y-124238854D01*
X65046266Y-124238853D01*
X65050510Y-124237511D01*
X65054521Y-124235585D01*
X65054526Y-124235583D01*
X65296393Y-124119440D01*
X65296394Y-124119439D01*
X65300412Y-124117510D01*
X65304769Y-124114599D01*
X65527205Y-123965973D01*
X65527209Y-123965970D01*
X65530913Y-123963495D01*
X65534230Y-123960524D01*
X65534234Y-123960521D01*
X65734095Y-123781510D01*
X65734096Y-123781509D01*
X65737413Y-123778538D01*
X65915792Y-123566330D01*
X66062492Y-123331105D01*
X66174584Y-123077557D01*
X66249833Y-122810744D01*
X66273774Y-122632501D01*
X66286310Y-122539173D01*
X66286311Y-122539165D01*
X66286737Y-122535991D01*
X66286839Y-122532748D01*
X66290509Y-122415982D01*
X66290509Y-122415977D01*
X66290610Y-122412760D01*
X66285635Y-122342498D01*
X69615952Y-122342498D01*
X69616105Y-122346886D01*
X69616105Y-122346892D01*
X69618445Y-122413892D01*
X69625755Y-122623204D01*
X69674529Y-122899815D01*
X69675884Y-122903986D01*
X69675886Y-122903993D01*
X69747803Y-123125330D01*
X69761325Y-123166946D01*
X69884454Y-123419397D01*
X70041518Y-123652255D01*
X70044462Y-123655524D01*
X70044463Y-123655526D01*
X70216168Y-123846224D01*
X70229462Y-123860988D01*
X70444627Y-124041533D01*
X70682825Y-124190375D01*
X70939420Y-124304619D01*
X70943648Y-124305831D01*
X70943647Y-124305831D01*
X71178055Y-124373046D01*
X71209417Y-124382039D01*
X71213767Y-124382650D01*
X71213770Y-124382651D01*
X71315800Y-124396990D01*
X71487561Y-124421130D01*
X71698131Y-124421130D01*
X71700317Y-124420977D01*
X71700321Y-124420977D01*
X71903809Y-124406748D01*
X71903814Y-124406747D01*
X71908194Y-124406441D01*
X71912488Y-124405528D01*
X71912490Y-124405528D01*
X72028698Y-124380827D01*
X72182934Y-124348043D01*
X72187065Y-124346539D01*
X72187070Y-124346538D01*
X72332104Y-124293749D01*
X72446872Y-124251977D01*
X72562729Y-124190375D01*
X72690981Y-124122183D01*
X72690987Y-124122179D01*
X72694873Y-124120113D01*
X72698433Y-124117526D01*
X72698437Y-124117524D01*
X72918545Y-123957606D01*
X72918548Y-123957604D01*
X72922108Y-123955017D01*
X72925275Y-123951959D01*
X73120989Y-123762960D01*
X73120993Y-123762955D01*
X73124154Y-123759903D01*
X73297080Y-123538569D01*
X73334278Y-123474140D01*
X73435314Y-123299141D01*
X73435317Y-123299136D01*
X73437519Y-123295321D01*
X73439169Y-123291237D01*
X73439172Y-123291231D01*
X73541088Y-123038978D01*
X73541089Y-123038975D01*
X73542737Y-123034896D01*
X73610688Y-122762361D01*
X73624798Y-122628121D01*
X73639589Y-122487391D01*
X73639589Y-122487388D01*
X73640048Y-122483022D01*
X73637595Y-122412760D01*
X73630399Y-122206714D01*
X73630398Y-122206708D01*
X73630245Y-122202316D01*
X73581471Y-121925705D01*
X73580116Y-121921534D01*
X73580114Y-121921527D01*
X73496036Y-121662763D01*
X73494675Y-121658574D01*
X73468611Y-121605134D01*
X73430199Y-121526379D01*
X73371546Y-121406123D01*
X73214482Y-121173265D01*
X73026538Y-120964532D01*
X72811373Y-120783987D01*
X72573175Y-120635145D01*
X72393702Y-120555238D01*
X72320594Y-120522688D01*
X72320592Y-120522687D01*
X72316580Y-120520901D01*
X72073422Y-120451177D01*
X72050810Y-120444693D01*
X72050809Y-120444693D01*
X72046583Y-120443481D01*
X72042233Y-120442870D01*
X72042230Y-120442869D01*
X71940200Y-120428530D01*
X71768439Y-120404390D01*
X71557869Y-120404390D01*
X71555683Y-120404543D01*
X71555679Y-120404543D01*
X71352191Y-120418772D01*
X71352186Y-120418773D01*
X71347806Y-120419079D01*
X71343512Y-120419992D01*
X71343510Y-120419992D01*
X71235883Y-120442869D01*
X71073066Y-120477477D01*
X71068935Y-120478981D01*
X71068930Y-120478982D01*
X70959307Y-120518882D01*
X70809128Y-120573543D01*
X70805241Y-120575610D01*
X70565019Y-120703337D01*
X70565013Y-120703341D01*
X70561127Y-120705407D01*
X70557567Y-120707994D01*
X70557563Y-120707996D01*
X70337455Y-120867914D01*
X70333892Y-120870503D01*
X70330728Y-120873559D01*
X70330725Y-120873561D01*
X70135011Y-121062560D01*
X70135007Y-121062565D01*
X70131846Y-121065617D01*
X69958920Y-121286951D01*
X69956717Y-121290767D01*
X69892221Y-121402478D01*
X69818481Y-121530199D01*
X69816831Y-121534283D01*
X69816828Y-121534289D01*
X69766614Y-121658574D01*
X69713263Y-121790624D01*
X69712198Y-121794893D01*
X69712198Y-121794895D01*
X69695705Y-121861046D01*
X69645312Y-122063159D01*
X69644853Y-122067529D01*
X69644852Y-122067533D01*
X69616411Y-122338129D01*
X69615952Y-122342498D01*
X66285635Y-122342498D01*
X66271031Y-122136231D01*
X66212684Y-121865220D01*
X66116733Y-121605134D01*
X65985093Y-121361162D01*
X65982452Y-121357587D01*
X65982448Y-121357580D01*
X65823043Y-121141765D01*
X65820390Y-121138173D01*
X65778307Y-121095423D01*
X65629042Y-120943796D01*
X65625911Y-120940615D01*
X65622372Y-120937914D01*
X65622365Y-120937908D01*
X65476064Y-120826255D01*
X65405536Y-120772430D01*
X65351930Y-120742409D01*
X65167553Y-120639153D01*
X65167552Y-120639153D01*
X65163662Y-120636974D01*
X65154320Y-120633360D01*
X64909270Y-120538556D01*
X64909264Y-120538554D01*
X64905115Y-120536949D01*
X64900783Y-120535945D01*
X64900780Y-120535944D01*
X64790445Y-120510370D01*
X64635054Y-120474352D01*
X64358867Y-120450432D01*
X64354432Y-120450676D01*
X64354428Y-120450676D01*
X64241985Y-120456864D01*
X64082065Y-120465665D01*
X64077702Y-120466533D01*
X64077701Y-120466533D01*
X64040324Y-120473968D01*
X63810171Y-120519749D01*
X63688495Y-120562478D01*
X63552816Y-120610124D01*
X63552808Y-120610127D01*
X63548609Y-120611602D01*
X63544656Y-120613655D01*
X63544650Y-120613658D01*
X63405754Y-120685809D01*
X63302600Y-120739394D01*
X63298985Y-120741977D01*
X63298979Y-120741981D01*
X63156474Y-120843817D01*
X63077051Y-120900574D01*
X63073831Y-120903646D01*
X62900407Y-121069084D01*
X62876462Y-121091926D01*
X62873706Y-121095422D01*
X62873705Y-121095423D01*
X62725453Y-121283480D01*
X62704836Y-121309632D01*
X62702599Y-121313484D01*
X62567832Y-121545502D01*
X62567829Y-121545508D01*
X62565598Y-121549349D01*
X62563928Y-121553472D01*
X62466142Y-121794895D01*
X62461525Y-121806293D01*
X62460454Y-121810606D01*
X62460452Y-121810611D01*
X62432901Y-121921527D01*
X62394694Y-122075337D01*
X62366438Y-122351114D01*
X60786644Y-122351114D01*
X60771750Y-122140751D01*
X60770497Y-122131948D01*
X60714039Y-121869712D01*
X60711560Y-121861179D01*
X60618717Y-121609517D01*
X60615062Y-121601422D01*
X60487686Y-121365353D01*
X60482924Y-121357848D01*
X60391787Y-121234458D01*
X60380662Y-121226018D01*
X60368066Y-121232844D01*
X59200962Y-122399948D01*
X59193348Y-122413892D01*
X58463296Y-122413892D01*
X58464532Y-122411628D01*
X58464401Y-122409795D01*
X58460150Y-122403180D01*
X57289817Y-121232847D01*
X57276977Y-121225836D01*
X57266285Y-121233633D01*
X57208910Y-121306414D01*
X57203915Y-121313763D01*
X57069179Y-121545728D01*
X57065280Y-121553686D01*
X56964575Y-121802314D01*
X56961826Y-121810776D01*
X56897163Y-122071096D01*
X56895634Y-122079857D01*
X56868293Y-122346699D01*
X56868014Y-122355582D01*
X53594000Y-122355582D01*
X53594000Y-120860272D01*
X57641807Y-120860272D01*
X57648787Y-120873397D01*
X58816128Y-122040738D01*
X58830072Y-122048352D01*
X58831905Y-122048221D01*
X58838520Y-122043970D01*
X60008755Y-120873735D01*
X60015609Y-120861183D01*
X60007402Y-120850113D01*
X59909702Y-120775550D01*
X59902277Y-120770673D01*
X59668238Y-120639605D01*
X59660185Y-120635816D01*
X59410022Y-120539035D01*
X59401532Y-120536423D01*
X59140214Y-120475853D01*
X59131436Y-120474463D01*
X58864191Y-120451317D01*
X58855320Y-120451177D01*
X58587471Y-120465918D01*
X58578661Y-120467032D01*
X58315575Y-120519362D01*
X58307000Y-120521708D01*
X58053916Y-120610584D01*
X58045749Y-120614118D01*
X57807713Y-120737769D01*
X57800141Y-120742409D01*
X57650210Y-120849550D01*
X57641807Y-120860272D01*
X53594000Y-120860272D01*
X53594000Y-118149954D01*
X56867338Y-118149954D01*
X56878222Y-118426961D01*
X56928028Y-118699671D01*
X57015762Y-118962643D01*
X57139674Y-119210629D01*
X57297291Y-119438682D01*
X57485468Y-119642252D01*
X57488922Y-119645064D01*
X57696995Y-119814462D01*
X57696999Y-119814465D01*
X57700452Y-119817276D01*
X57937952Y-119960263D01*
X57942047Y-119961997D01*
X57942049Y-119961998D01*
X58117640Y-120036351D01*
X58193229Y-120068359D01*
X58197522Y-120069497D01*
X58197527Y-120069499D01*
X58337302Y-120106559D01*
X58461191Y-120139407D01*
X58736490Y-120171991D01*
X59013634Y-120165460D01*
X59170160Y-120139407D01*
X59282703Y-120120675D01*
X59282707Y-120120674D01*
X59287093Y-120119944D01*
X59291334Y-120118603D01*
X59291337Y-120118602D01*
X59547164Y-120037694D01*
X59547166Y-120037693D01*
X59551410Y-120036351D01*
X59555421Y-120034425D01*
X59555426Y-120034423D01*
X59797293Y-119918280D01*
X59797294Y-119918279D01*
X59801312Y-119916350D01*
X59805018Y-119913874D01*
X60028105Y-119764813D01*
X60028109Y-119764810D01*
X60031813Y-119762335D01*
X60035130Y-119759364D01*
X60035134Y-119759361D01*
X60234995Y-119580350D01*
X60234996Y-119580349D01*
X60238313Y-119577378D01*
X60416692Y-119365170D01*
X60563392Y-119129945D01*
X60675484Y-118876397D01*
X60750733Y-118609584D01*
X60774674Y-118431341D01*
X60787210Y-118338013D01*
X60787211Y-118338005D01*
X60787637Y-118334831D01*
X60791510Y-118211600D01*
X60787145Y-118149954D01*
X62366438Y-118149954D01*
X62377322Y-118426961D01*
X62427128Y-118699671D01*
X62514862Y-118962643D01*
X62638774Y-119210629D01*
X62796391Y-119438682D01*
X62984568Y-119642252D01*
X62988022Y-119645064D01*
X63196095Y-119814462D01*
X63196099Y-119814465D01*
X63199552Y-119817276D01*
X63437052Y-119960263D01*
X63441147Y-119961997D01*
X63441149Y-119961998D01*
X63616740Y-120036351D01*
X63692329Y-120068359D01*
X63696622Y-120069497D01*
X63696627Y-120069499D01*
X63836402Y-120106559D01*
X63960291Y-120139407D01*
X64235590Y-120171991D01*
X64512734Y-120165460D01*
X64669260Y-120139407D01*
X64781803Y-120120675D01*
X64781807Y-120120674D01*
X64786193Y-120119944D01*
X64790434Y-120118603D01*
X64790437Y-120118602D01*
X65046264Y-120037694D01*
X65046266Y-120037693D01*
X65050510Y-120036351D01*
X65054521Y-120034425D01*
X65054526Y-120034423D01*
X65296393Y-119918280D01*
X65296394Y-119918279D01*
X65300412Y-119916350D01*
X65304118Y-119913874D01*
X65527205Y-119764813D01*
X65527209Y-119764810D01*
X65530913Y-119762335D01*
X65534230Y-119759364D01*
X65534234Y-119759361D01*
X65734095Y-119580350D01*
X65734096Y-119580349D01*
X65737413Y-119577378D01*
X65915792Y-119365170D01*
X66062492Y-119129945D01*
X66174584Y-118876397D01*
X66249833Y-118609584D01*
X66273774Y-118431341D01*
X66286310Y-118338013D01*
X66286311Y-118338005D01*
X66286737Y-118334831D01*
X66290610Y-118211600D01*
X66271031Y-117935071D01*
X66212684Y-117664060D01*
X66116733Y-117403974D01*
X65985093Y-117160002D01*
X65982452Y-117156427D01*
X65982448Y-117156420D01*
X65823043Y-116940605D01*
X65820390Y-116937013D01*
X65778307Y-116894263D01*
X65629042Y-116742636D01*
X65625911Y-116739455D01*
X65622372Y-116736754D01*
X65622365Y-116736748D01*
X65409076Y-116573972D01*
X65405536Y-116571270D01*
X65397283Y-116566648D01*
X65167553Y-116437993D01*
X65167552Y-116437993D01*
X65163662Y-116435814D01*
X65155663Y-116432720D01*
X64909270Y-116337396D01*
X64909264Y-116337394D01*
X64905115Y-116335789D01*
X64900783Y-116334785D01*
X64900780Y-116334784D01*
X64790445Y-116309210D01*
X64635054Y-116273192D01*
X64358867Y-116249272D01*
X64354432Y-116249516D01*
X64354428Y-116249516D01*
X64241985Y-116255704D01*
X64082065Y-116264505D01*
X63810171Y-116318589D01*
X63688495Y-116361318D01*
X63552816Y-116408964D01*
X63552808Y-116408967D01*
X63548609Y-116410442D01*
X63544656Y-116412495D01*
X63544650Y-116412498D01*
X63450696Y-116461304D01*
X63302600Y-116538234D01*
X63298985Y-116540817D01*
X63298979Y-116540821D01*
X63252585Y-116573975D01*
X63077051Y-116699414D01*
X62876462Y-116890766D01*
X62704836Y-117108472D01*
X62702599Y-117112324D01*
X62567832Y-117344342D01*
X62567829Y-117344348D01*
X62565598Y-117348189D01*
X62461525Y-117605133D01*
X62460454Y-117609446D01*
X62460452Y-117609451D01*
X62414145Y-117795871D01*
X62394694Y-117874177D01*
X62366438Y-118149954D01*
X60787145Y-118149954D01*
X60771931Y-117935071D01*
X60713584Y-117664060D01*
X60617633Y-117403974D01*
X60485993Y-117160002D01*
X60483352Y-117156427D01*
X60483348Y-117156420D01*
X60323943Y-116940605D01*
X60321290Y-116937013D01*
X60279207Y-116894263D01*
X60129942Y-116742636D01*
X60126811Y-116739455D01*
X60123272Y-116736754D01*
X60123265Y-116736748D01*
X59909981Y-116573975D01*
X59909977Y-116573972D01*
X59906436Y-116571270D01*
X59901879Y-116568718D01*
X59901702Y-116568537D01*
X59898826Y-116566648D01*
X59899238Y-116566020D01*
X59852216Y-116517986D01*
X59837440Y-116458781D01*
X59837440Y-115760939D01*
X59857442Y-115692818D01*
X59893438Y-115656174D01*
X60028105Y-115566193D01*
X60028109Y-115566190D01*
X60031813Y-115563715D01*
X60035130Y-115560744D01*
X60035134Y-115560741D01*
X60234995Y-115381730D01*
X60234996Y-115381729D01*
X60238313Y-115378758D01*
X60416692Y-115166550D01*
X60563392Y-114931325D01*
X60675484Y-114677777D01*
X60750733Y-114410964D01*
X60774674Y-114232721D01*
X60787210Y-114139393D01*
X60787211Y-114139385D01*
X60787637Y-114136211D01*
X60791510Y-114012980D01*
X60787145Y-113951334D01*
X62366438Y-113951334D01*
X62377322Y-114228341D01*
X62427128Y-114501051D01*
X62514862Y-114764023D01*
X62638774Y-115012009D01*
X62796391Y-115240062D01*
X62984568Y-115443632D01*
X62988022Y-115446444D01*
X63196095Y-115615842D01*
X63196099Y-115615845D01*
X63199552Y-115618656D01*
X63437052Y-115761643D01*
X63441147Y-115763377D01*
X63441149Y-115763378D01*
X63616740Y-115837731D01*
X63692329Y-115869739D01*
X63696622Y-115870877D01*
X63696627Y-115870879D01*
X63785313Y-115894393D01*
X63960291Y-115940787D01*
X64235590Y-115973371D01*
X64512734Y-115966840D01*
X64600257Y-115952272D01*
X64781803Y-115922055D01*
X64781807Y-115922054D01*
X64786193Y-115921324D01*
X64790434Y-115919983D01*
X64790437Y-115919982D01*
X65046264Y-115839074D01*
X65046266Y-115839073D01*
X65050510Y-115837731D01*
X65054521Y-115835805D01*
X65054526Y-115835803D01*
X65296393Y-115719660D01*
X65296394Y-115719659D01*
X65300412Y-115717730D01*
X65317318Y-115706434D01*
X65527205Y-115566193D01*
X65527209Y-115566190D01*
X65530913Y-115563715D01*
X65534230Y-115560744D01*
X65534234Y-115560741D01*
X65734095Y-115381730D01*
X65734096Y-115381729D01*
X65737413Y-115378758D01*
X65915792Y-115166550D01*
X66062492Y-114931325D01*
X66174584Y-114677777D01*
X66249833Y-114410964D01*
X66273774Y-114232721D01*
X66286310Y-114139393D01*
X66286311Y-114139385D01*
X66286737Y-114136211D01*
X66290610Y-114012980D01*
X66271031Y-113736451D01*
X66212684Y-113465440D01*
X66116733Y-113205354D01*
X65985093Y-112961382D01*
X65982452Y-112957807D01*
X65982448Y-112957800D01*
X65823043Y-112741985D01*
X65820390Y-112738393D01*
X65778307Y-112695643D01*
X65629042Y-112544016D01*
X65625911Y-112540835D01*
X65622372Y-112538134D01*
X65622365Y-112538128D01*
X65409076Y-112375352D01*
X65405536Y-112372650D01*
X65397283Y-112368028D01*
X65167553Y-112239373D01*
X65167552Y-112239373D01*
X65163662Y-112237194D01*
X65155663Y-112234100D01*
X64909270Y-112138776D01*
X64909264Y-112138774D01*
X64905115Y-112137169D01*
X64900783Y-112136165D01*
X64900780Y-112136164D01*
X64790445Y-112110590D01*
X64635054Y-112074572D01*
X64358867Y-112050652D01*
X64354432Y-112050896D01*
X64354428Y-112050896D01*
X64241985Y-112057084D01*
X64082065Y-112065885D01*
X63810171Y-112119969D01*
X63688495Y-112162698D01*
X63552816Y-112210344D01*
X63552808Y-112210347D01*
X63548609Y-112211822D01*
X63544656Y-112213875D01*
X63544650Y-112213878D01*
X63450696Y-112262684D01*
X63302600Y-112339614D01*
X63298985Y-112342197D01*
X63298979Y-112342201D01*
X63252585Y-112375355D01*
X63077051Y-112500794D01*
X63037915Y-112538128D01*
X62918084Y-112652441D01*
X62876462Y-112692146D01*
X62704836Y-112909852D01*
X62702599Y-112913704D01*
X62567832Y-113145722D01*
X62567829Y-113145728D01*
X62565598Y-113149569D01*
X62461525Y-113406513D01*
X62460454Y-113410826D01*
X62460452Y-113410831D01*
X62414145Y-113597251D01*
X62394694Y-113675557D01*
X62366438Y-113951334D01*
X60787145Y-113951334D01*
X60771931Y-113736451D01*
X60713584Y-113465440D01*
X60617633Y-113205354D01*
X60485993Y-112961382D01*
X60483352Y-112957807D01*
X60483348Y-112957800D01*
X60323943Y-112741985D01*
X60321290Y-112738393D01*
X60279207Y-112695643D01*
X60129942Y-112544016D01*
X60126811Y-112540835D01*
X60123272Y-112538134D01*
X60123265Y-112538128D01*
X59909981Y-112375355D01*
X59909977Y-112375352D01*
X59906436Y-112372650D01*
X59901879Y-112370098D01*
X59901702Y-112369917D01*
X59898826Y-112368028D01*
X59899238Y-112367400D01*
X59852216Y-112319366D01*
X59837440Y-112260161D01*
X59837440Y-111559779D01*
X59857442Y-111491658D01*
X59893438Y-111455014D01*
X60028105Y-111365033D01*
X60028109Y-111365030D01*
X60031813Y-111362555D01*
X60035130Y-111359584D01*
X60035134Y-111359581D01*
X60234995Y-111180570D01*
X60234996Y-111180569D01*
X60238313Y-111177598D01*
X60416692Y-110965390D01*
X60563392Y-110730165D01*
X60675484Y-110476617D01*
X60750733Y-110209804D01*
X60774674Y-110031561D01*
X60787210Y-109938233D01*
X60787211Y-109938225D01*
X60787637Y-109935051D01*
X60791510Y-109811820D01*
X60787145Y-109750174D01*
X62366438Y-109750174D01*
X62377322Y-110027181D01*
X62427128Y-110299891D01*
X62514862Y-110562863D01*
X62638774Y-110810849D01*
X62796391Y-111038902D01*
X62984568Y-111242472D01*
X62988022Y-111245284D01*
X63196095Y-111414682D01*
X63196099Y-111414685D01*
X63199552Y-111417496D01*
X63437052Y-111560483D01*
X63441147Y-111562217D01*
X63441149Y-111562218D01*
X63616740Y-111636571D01*
X63692329Y-111668579D01*
X63696622Y-111669717D01*
X63696627Y-111669719D01*
X63815640Y-111701274D01*
X63960291Y-111739627D01*
X64235590Y-111772211D01*
X64512734Y-111765680D01*
X64669260Y-111739627D01*
X64781803Y-111720895D01*
X64781807Y-111720894D01*
X64786193Y-111720164D01*
X64790434Y-111718823D01*
X64790437Y-111718822D01*
X65046264Y-111637914D01*
X65046266Y-111637913D01*
X65050510Y-111636571D01*
X65054521Y-111634645D01*
X65054526Y-111634643D01*
X65296393Y-111518500D01*
X65296394Y-111518499D01*
X65300412Y-111516570D01*
X65317318Y-111505274D01*
X65527205Y-111365033D01*
X65527209Y-111365030D01*
X65530913Y-111362555D01*
X65534230Y-111359584D01*
X65534234Y-111359581D01*
X65734095Y-111180570D01*
X65734096Y-111180569D01*
X65737413Y-111177598D01*
X65915792Y-110965390D01*
X66062492Y-110730165D01*
X66174584Y-110476617D01*
X66249833Y-110209804D01*
X66273774Y-110031561D01*
X66286310Y-109938233D01*
X66286311Y-109938225D01*
X66286737Y-109935051D01*
X66290610Y-109811820D01*
X66271031Y-109535291D01*
X66242918Y-109404709D01*
X66213620Y-109268627D01*
X66213620Y-109268625D01*
X66212684Y-109264280D01*
X66116733Y-109004194D01*
X65985093Y-108760222D01*
X65982452Y-108756647D01*
X65982448Y-108756640D01*
X65823043Y-108540825D01*
X65820390Y-108537233D01*
X65807856Y-108524500D01*
X65629042Y-108342856D01*
X65625911Y-108339675D01*
X65622372Y-108336974D01*
X65622365Y-108336968D01*
X65409076Y-108174192D01*
X65405536Y-108171490D01*
X65401647Y-108169312D01*
X65167553Y-108038213D01*
X65167552Y-108038213D01*
X65163662Y-108036034D01*
X65155663Y-108032940D01*
X64909270Y-107937616D01*
X64909264Y-107937614D01*
X64905115Y-107936009D01*
X64900783Y-107935005D01*
X64900780Y-107935004D01*
X64733497Y-107896230D01*
X64635054Y-107873412D01*
X64358867Y-107849492D01*
X64354432Y-107849736D01*
X64354428Y-107849736D01*
X64241985Y-107855924D01*
X64082065Y-107864725D01*
X63810171Y-107918809D01*
X63688495Y-107961538D01*
X63552816Y-108009184D01*
X63552808Y-108009187D01*
X63548609Y-108010662D01*
X63544656Y-108012715D01*
X63544650Y-108012718D01*
X63495571Y-108038213D01*
X63302600Y-108138454D01*
X63298985Y-108141037D01*
X63298979Y-108141041D01*
X63156474Y-108242877D01*
X63077051Y-108299634D01*
X62876462Y-108490986D01*
X62873706Y-108494482D01*
X62873705Y-108494483D01*
X62847831Y-108527304D01*
X62704836Y-108708692D01*
X62702599Y-108712544D01*
X62567832Y-108944562D01*
X62567829Y-108944568D01*
X62565598Y-108948409D01*
X62461525Y-109205353D01*
X62460454Y-109209666D01*
X62460452Y-109209671D01*
X62429593Y-109333904D01*
X62394694Y-109474397D01*
X62366438Y-109750174D01*
X60787145Y-109750174D01*
X60771931Y-109535291D01*
X60743817Y-109404707D01*
X60749034Y-109333904D01*
X60777898Y-109289097D01*
X62391379Y-107675615D01*
X62401522Y-107666513D01*
X62426218Y-107646657D01*
X62431025Y-107642792D01*
X62463292Y-107604338D01*
X62466472Y-107600691D01*
X62468115Y-107598879D01*
X62470309Y-107596685D01*
X62497642Y-107563411D01*
X62498348Y-107562560D01*
X62515995Y-107541530D01*
X62558154Y-107491286D01*
X62560722Y-107486616D01*
X62564103Y-107482499D01*
X62608015Y-107400602D01*
X62608624Y-107399480D01*
X62650466Y-107323371D01*
X62650468Y-107323366D01*
X62653433Y-107317973D01*
X62655044Y-107312895D01*
X62657563Y-107308197D01*
X62684753Y-107219262D01*
X62685136Y-107218032D01*
X62711371Y-107135330D01*
X62713235Y-107129454D01*
X62713828Y-107124163D01*
X62715388Y-107119062D01*
X62720688Y-107066885D01*
X62747472Y-107001134D01*
X62805551Y-106960302D01*
X62876486Y-106957351D01*
X62938568Y-106994090D01*
X62981539Y-107040576D01*
X62981544Y-107040581D01*
X62984568Y-107043852D01*
X62988022Y-107046664D01*
X63196095Y-107216062D01*
X63196099Y-107216065D01*
X63199552Y-107218876D01*
X63437052Y-107361863D01*
X63441147Y-107363597D01*
X63441149Y-107363598D01*
X63616740Y-107437951D01*
X63692329Y-107469959D01*
X63696622Y-107471097D01*
X63696627Y-107471099D01*
X63774956Y-107491867D01*
X63960291Y-107541007D01*
X64235590Y-107573591D01*
X64512734Y-107567060D01*
X64669260Y-107541007D01*
X64781803Y-107522275D01*
X64781807Y-107522274D01*
X64786193Y-107521544D01*
X64790434Y-107520203D01*
X64790437Y-107520202D01*
X65046264Y-107439294D01*
X65046266Y-107439293D01*
X65050510Y-107437951D01*
X65054521Y-107436025D01*
X65054526Y-107436023D01*
X65296393Y-107319880D01*
X65296394Y-107319879D01*
X65300412Y-107317950D01*
X65304118Y-107315474D01*
X65527205Y-107166413D01*
X65527209Y-107166410D01*
X65530913Y-107163935D01*
X65534230Y-107160964D01*
X65534234Y-107160961D01*
X65734095Y-106981950D01*
X65734096Y-106981949D01*
X65737413Y-106978978D01*
X65915792Y-106766770D01*
X66062492Y-106531545D01*
X66075985Y-106501026D01*
X66172784Y-106282068D01*
X66174584Y-106277997D01*
X66249833Y-106011184D01*
X66273774Y-105832941D01*
X66286310Y-105739613D01*
X66286311Y-105739605D01*
X66286737Y-105736431D01*
X66290610Y-105613200D01*
X66271031Y-105336671D01*
X66212684Y-105065660D01*
X66116733Y-104805574D01*
X65985093Y-104561602D01*
X65982452Y-104558027D01*
X65982448Y-104558020D01*
X65823043Y-104342205D01*
X65820390Y-104338613D01*
X65778307Y-104295863D01*
X65629042Y-104144236D01*
X65625911Y-104141055D01*
X65622372Y-104138354D01*
X65622365Y-104138348D01*
X65409076Y-103975572D01*
X65405536Y-103972870D01*
X65401647Y-103970692D01*
X65167553Y-103839593D01*
X65167552Y-103839593D01*
X65163662Y-103837414D01*
X65155663Y-103834320D01*
X64909270Y-103738996D01*
X64909264Y-103738994D01*
X64905115Y-103737389D01*
X64900783Y-103736385D01*
X64900780Y-103736384D01*
X64790445Y-103710810D01*
X64635054Y-103674792D01*
X64358867Y-103650872D01*
X64354432Y-103651116D01*
X64354428Y-103651116D01*
X64241985Y-103657304D01*
X64082065Y-103666105D01*
X63810171Y-103720189D01*
X63688495Y-103762918D01*
X63552816Y-103810564D01*
X63552808Y-103810567D01*
X63548609Y-103812042D01*
X63544656Y-103814095D01*
X63544650Y-103814098D01*
X63495571Y-103839593D01*
X63302600Y-103939834D01*
X63298985Y-103942417D01*
X63298979Y-103942421D01*
X63156474Y-104044257D01*
X63077051Y-104101014D01*
X62943472Y-104228442D01*
X62880375Y-104260989D01*
X62809698Y-104254257D01*
X62753881Y-104210384D01*
X62730500Y-104137272D01*
X62730500Y-102964727D01*
X63140520Y-102964727D01*
X63147910Y-102975029D01*
X63196383Y-103014492D01*
X63203662Y-103019607D01*
X63433460Y-103157957D01*
X63441384Y-103161994D01*
X63688389Y-103266588D01*
X63696794Y-103269466D01*
X63956083Y-103338214D01*
X63964804Y-103339878D01*
X64231198Y-103371408D01*
X64240063Y-103371826D01*
X64508228Y-103365506D01*
X64517088Y-103364669D01*
X64781674Y-103320630D01*
X64790331Y-103318551D01*
X65046080Y-103237669D01*
X65054341Y-103234398D01*
X65296145Y-103118285D01*
X65303870Y-103113879D01*
X65508687Y-102977025D01*
X65516975Y-102967107D01*
X65509718Y-102952928D01*
X64340852Y-101784062D01*
X64326908Y-101776448D01*
X64325075Y-101776579D01*
X64318460Y-101780830D01*
X63147686Y-102951604D01*
X63140520Y-102964727D01*
X62730500Y-102964727D01*
X62730500Y-102699206D01*
X62750502Y-102631085D01*
X62775873Y-102607907D01*
X62774418Y-102606452D01*
X63967698Y-101413172D01*
X64692448Y-101413172D01*
X64692579Y-101415005D01*
X64696830Y-101421620D01*
X65868386Y-102593176D01*
X65881786Y-102600493D01*
X65891691Y-102593506D01*
X65912522Y-102568723D01*
X65917742Y-102561538D01*
X66059695Y-102333925D01*
X66063847Y-102326085D01*
X66172315Y-102080734D01*
X66175321Y-102072384D01*
X66248134Y-101814208D01*
X66249935Y-101805515D01*
X66285810Y-101538421D01*
X66286338Y-101532028D01*
X66290008Y-101415262D01*
X66289881Y-101408819D01*
X66270850Y-101140031D01*
X66269597Y-101131228D01*
X66213139Y-100868992D01*
X66210660Y-100860459D01*
X66117817Y-100608797D01*
X66114162Y-100600702D01*
X65986786Y-100364633D01*
X65982024Y-100357128D01*
X65890887Y-100233738D01*
X65879762Y-100225298D01*
X65867166Y-100232124D01*
X64700062Y-101399228D01*
X64692448Y-101413172D01*
X63967698Y-101413172D01*
X65507855Y-99873015D01*
X65514709Y-99860463D01*
X65506502Y-99849393D01*
X65408802Y-99774830D01*
X65401377Y-99769953D01*
X65167338Y-99638885D01*
X65159285Y-99635096D01*
X64909122Y-99538315D01*
X64900632Y-99535703D01*
X64639314Y-99475133D01*
X64630536Y-99473743D01*
X64363291Y-99450597D01*
X64354420Y-99450457D01*
X64086571Y-99465198D01*
X64077761Y-99466312D01*
X63814675Y-99518642D01*
X63806092Y-99520990D01*
X63778309Y-99530747D01*
X63707409Y-99534446D01*
X63645764Y-99499227D01*
X63612946Y-99436270D01*
X63619375Y-99365565D01*
X63647465Y-99322770D01*
X63803230Y-99167005D01*
X63865542Y-99132979D01*
X63924618Y-99134309D01*
X63955980Y-99142625D01*
X63955994Y-99142628D01*
X63960291Y-99143767D01*
X64235590Y-99176351D01*
X64512734Y-99169820D01*
X64600257Y-99155252D01*
X64781803Y-99125035D01*
X64781807Y-99125034D01*
X64786193Y-99124304D01*
X64790434Y-99122963D01*
X64790437Y-99122962D01*
X65046264Y-99042054D01*
X65046266Y-99042053D01*
X65050510Y-99040711D01*
X65054521Y-99038785D01*
X65054526Y-99038783D01*
X65296393Y-98922640D01*
X65296394Y-98922639D01*
X65300412Y-98920710D01*
X65304769Y-98917799D01*
X65527205Y-98769173D01*
X65527209Y-98769170D01*
X65530913Y-98766695D01*
X65534230Y-98763724D01*
X65534234Y-98763721D01*
X65734095Y-98584710D01*
X65734096Y-98584709D01*
X65737413Y-98581738D01*
X65915792Y-98369530D01*
X66062492Y-98134305D01*
X66174584Y-97880757D01*
X66249833Y-97613944D01*
X66254343Y-97580368D01*
X66286310Y-97342373D01*
X66286311Y-97342365D01*
X66286737Y-97339191D01*
X66286839Y-97335948D01*
X66290509Y-97219182D01*
X66290509Y-97219177D01*
X66290610Y-97215960D01*
X66271031Y-96939431D01*
X66242917Y-96808847D01*
X66248134Y-96738044D01*
X66276998Y-96693237D01*
X67471379Y-95498855D01*
X67481522Y-95489753D01*
X67506218Y-95469897D01*
X67511025Y-95466032D01*
X67543292Y-95427578D01*
X67546472Y-95423931D01*
X67548115Y-95422119D01*
X67550309Y-95419925D01*
X67577642Y-95386651D01*
X67578348Y-95385800D01*
X67614904Y-95342235D01*
X67638154Y-95314526D01*
X67640722Y-95309856D01*
X67644103Y-95305739D01*
X67688015Y-95223842D01*
X67688624Y-95222720D01*
X67730466Y-95146611D01*
X67730468Y-95146606D01*
X67733433Y-95141213D01*
X67735044Y-95136135D01*
X67737563Y-95131437D01*
X67764753Y-95042502D01*
X67765136Y-95041272D01*
X67791371Y-94958570D01*
X67793235Y-94952694D01*
X67793828Y-94947403D01*
X67795388Y-94942302D01*
X67796011Y-94936170D01*
X67796012Y-94936164D01*
X67804785Y-94849784D01*
X67804925Y-94848470D01*
X67810108Y-94802270D01*
X67810108Y-94802265D01*
X67810500Y-94798773D01*
X67810500Y-94795248D01*
X67810555Y-94794263D01*
X67811004Y-94788559D01*
X67814752Y-94751666D01*
X67814752Y-94751661D01*
X67815374Y-94745538D01*
X67811059Y-94699889D01*
X67810500Y-94688032D01*
X67810500Y-91351983D01*
X67811237Y-91338376D01*
X67814659Y-91306878D01*
X67814659Y-91306873D01*
X67815324Y-91300752D01*
X67810950Y-91250752D01*
X67810621Y-91245926D01*
X67810500Y-91243454D01*
X67810500Y-91240371D01*
X67808126Y-91216158D01*
X67806310Y-91197634D01*
X67806188Y-91196321D01*
X67800969Y-91136674D01*
X67798087Y-91103727D01*
X67796600Y-91098608D01*
X67796080Y-91093307D01*
X67769209Y-91004306D01*
X67768874Y-91003173D01*
X67744630Y-90919726D01*
X67744628Y-90919722D01*
X67742909Y-90913804D01*
X67740456Y-90909072D01*
X67738916Y-90903971D01*
X67695269Y-90821880D01*
X67694657Y-90820714D01*
X67654729Y-90743687D01*
X67651892Y-90738214D01*
X67648569Y-90734051D01*
X67646066Y-90729344D01*
X67641041Y-90723182D01*
X67587261Y-90657242D01*
X67586433Y-90656215D01*
X67557469Y-90619932D01*
X67557464Y-90619927D01*
X67555262Y-90617168D01*
X67552761Y-90614667D01*
X67552119Y-90613949D01*
X67548406Y-90609601D01*
X67540642Y-90600081D01*
X67521065Y-90576078D01*
X67516323Y-90572155D01*
X67516321Y-90572153D01*
X67485727Y-90546843D01*
X67476947Y-90538853D01*
X66280587Y-89342493D01*
X66246561Y-89280181D01*
X66248302Y-89222928D01*
X66247721Y-89222808D01*
X66248406Y-89219499D01*
X66248416Y-89219189D01*
X66249833Y-89214164D01*
X66273774Y-89035921D01*
X66286310Y-88942593D01*
X66286311Y-88942585D01*
X66286737Y-88939411D01*
X66290610Y-88816180D01*
X66271031Y-88539651D01*
X66242917Y-88409067D01*
X66248134Y-88338265D01*
X66277000Y-88293455D01*
X69757379Y-84813075D01*
X69767522Y-84803973D01*
X69792218Y-84784117D01*
X69797025Y-84780252D01*
X69829292Y-84741798D01*
X69832472Y-84738151D01*
X69834115Y-84736339D01*
X69836309Y-84734145D01*
X69863642Y-84700871D01*
X69864348Y-84700020D01*
X69920195Y-84633464D01*
X69924154Y-84628746D01*
X69926722Y-84624076D01*
X69930103Y-84619959D01*
X69973977Y-84538134D01*
X69974606Y-84536975D01*
X70016462Y-84460839D01*
X70016465Y-84460831D01*
X70019433Y-84455433D01*
X70021045Y-84450351D01*
X70023562Y-84445657D01*
X70050762Y-84356689D01*
X70051108Y-84355578D01*
X70057888Y-84334208D01*
X70079235Y-84266914D01*
X70079829Y-84261618D01*
X70081387Y-84256522D01*
X70090790Y-84163963D01*
X70090911Y-84162827D01*
X70096500Y-84112993D01*
X70096500Y-84109466D01*
X70096555Y-84108481D01*
X70097002Y-84102801D01*
X70101374Y-84059758D01*
X70097059Y-84014111D01*
X70096500Y-84002253D01*
X70096500Y-77822108D01*
X70116502Y-77753987D01*
X70170158Y-77707494D01*
X70240432Y-77697390D01*
X70303491Y-77725586D01*
X70441256Y-77841185D01*
X70441261Y-77841189D01*
X70444627Y-77844013D01*
X70682825Y-77992855D01*
X70939420Y-78107099D01*
X70943648Y-78108311D01*
X70943647Y-78108311D01*
X71178055Y-78175526D01*
X71209417Y-78184519D01*
X71213767Y-78185130D01*
X71213770Y-78185131D01*
X71315800Y-78199470D01*
X71487561Y-78223610D01*
X71698131Y-78223610D01*
X71700317Y-78223457D01*
X71700321Y-78223457D01*
X71903809Y-78209228D01*
X71903814Y-78209227D01*
X71908194Y-78208921D01*
X71912488Y-78208008D01*
X71912490Y-78208008D01*
X72028698Y-78183307D01*
X72182934Y-78150523D01*
X72187065Y-78149019D01*
X72187070Y-78149018D01*
X72332104Y-78096229D01*
X72446872Y-78054457D01*
X72562729Y-77992855D01*
X72690981Y-77924663D01*
X72690987Y-77924659D01*
X72694873Y-77922593D01*
X72698433Y-77920006D01*
X72698437Y-77920004D01*
X72918545Y-77760086D01*
X72918548Y-77760084D01*
X72922108Y-77757497D01*
X72973888Y-77707494D01*
X73120989Y-77565440D01*
X73120993Y-77565435D01*
X73124154Y-77562383D01*
X73297080Y-77341049D01*
X73372574Y-77210289D01*
X73435314Y-77101621D01*
X73435317Y-77101616D01*
X73437519Y-77097801D01*
X73439169Y-77093717D01*
X73439172Y-77093711D01*
X73541088Y-76841458D01*
X73541089Y-76841455D01*
X73542737Y-76837376D01*
X73610688Y-76564841D01*
X73614634Y-76527304D01*
X73639589Y-76289871D01*
X73639589Y-76289868D01*
X73640048Y-76285502D01*
X73637595Y-76215240D01*
X73630399Y-76009194D01*
X73630398Y-76009188D01*
X73630245Y-76004796D01*
X73581471Y-75728185D01*
X73580116Y-75724014D01*
X73580114Y-75724007D01*
X73496036Y-75465243D01*
X73494675Y-75461054D01*
X73470799Y-75412100D01*
X73437597Y-75344027D01*
X73371546Y-75208603D01*
X73214482Y-74975745D01*
X73158291Y-74913338D01*
X73029486Y-74770286D01*
X73029485Y-74770285D01*
X73026538Y-74767012D01*
X72811373Y-74586467D01*
X72573175Y-74437625D01*
X72316580Y-74323381D01*
X72123097Y-74267901D01*
X72050810Y-74247173D01*
X72050809Y-74247173D01*
X72046583Y-74245961D01*
X72042233Y-74245350D01*
X72042230Y-74245349D01*
X71940200Y-74231010D01*
X71768439Y-74206870D01*
X71557869Y-74206870D01*
X71555683Y-74207023D01*
X71555679Y-74207023D01*
X71352191Y-74221252D01*
X71352186Y-74221253D01*
X71347806Y-74221559D01*
X71343512Y-74222472D01*
X71343510Y-74222472D01*
X71235883Y-74245349D01*
X71073066Y-74279957D01*
X71068935Y-74281461D01*
X71068930Y-74281462D01*
X70959307Y-74321362D01*
X70809128Y-74376023D01*
X70740329Y-74412604D01*
X70565019Y-74505817D01*
X70565013Y-74505821D01*
X70561127Y-74507887D01*
X70557567Y-74510474D01*
X70557563Y-74510476D01*
X70337455Y-74670394D01*
X70333892Y-74672983D01*
X70330728Y-74676039D01*
X70330725Y-74676041D01*
X70310027Y-74696029D01*
X70247130Y-74728961D01*
X70176413Y-74722661D01*
X70120329Y-74679129D01*
X70096500Y-74605392D01*
X70096500Y-70827925D01*
X70116502Y-70759804D01*
X70133405Y-70738830D01*
X71057741Y-69814494D01*
X74747170Y-69814494D01*
X74747467Y-69819646D01*
X74747467Y-69819650D01*
X74753502Y-69924313D01*
X74760879Y-70052255D01*
X74762016Y-70057301D01*
X74762017Y-70057307D01*
X74795111Y-70204156D01*
X74813237Y-70284585D01*
X74815179Y-70289367D01*
X74815180Y-70289371D01*
X74856793Y-70391852D01*
X74902837Y-70505244D01*
X75027274Y-70708306D01*
X75183204Y-70888317D01*
X75366442Y-71040444D01*
X75370894Y-71043046D01*
X75370899Y-71043049D01*
X75469333Y-71100569D01*
X75572065Y-71160601D01*
X75794552Y-71245560D01*
X75799618Y-71246591D01*
X75799619Y-71246591D01*
X75853956Y-71257646D01*
X76027928Y-71293041D01*
X76162121Y-71297962D01*
X76260760Y-71301579D01*
X76260764Y-71301579D01*
X76265924Y-71301768D01*
X76271044Y-71301112D01*
X76271046Y-71301112D01*
X76497023Y-71272164D01*
X76497024Y-71272164D01*
X76502151Y-71271507D01*
X76585200Y-71246591D01*
X76725316Y-71204554D01*
X76725317Y-71204553D01*
X76730262Y-71203070D01*
X76944133Y-71098295D01*
X76948336Y-71095297D01*
X76948341Y-71095294D01*
X77133816Y-70962996D01*
X77133818Y-70962994D01*
X77138020Y-70959997D01*
X77306716Y-70791889D01*
X77445690Y-70598486D01*
X77478180Y-70532749D01*
X77548917Y-70389624D01*
X77548918Y-70389622D01*
X77551211Y-70384982D01*
X77620443Y-70157111D01*
X77651529Y-69920992D01*
X77653264Y-69850000D01*
X77633750Y-69612644D01*
X77575731Y-69381663D01*
X77492075Y-69189266D01*
X77482827Y-69167996D01*
X77482825Y-69167993D01*
X77480767Y-69163259D01*
X77463694Y-69136867D01*
X77380577Y-69008389D01*
X77351406Y-68963298D01*
X77331572Y-68941500D01*
X77288409Y-68894065D01*
X77191124Y-68787150D01*
X77187073Y-68783951D01*
X77187069Y-68783947D01*
X77044932Y-68671695D01*
X77003869Y-68613778D01*
X77000637Y-68542855D01*
X77022406Y-68498113D01*
X77015045Y-68484256D01*
X76212811Y-67682021D01*
X76198868Y-67674408D01*
X76197034Y-67674539D01*
X76190420Y-67678790D01*
X75381083Y-68488128D01*
X75374326Y-68500503D01*
X75374760Y-68501083D01*
X75399572Y-68567603D01*
X75384481Y-68636977D01*
X75349546Y-68677353D01*
X75239275Y-68760147D01*
X75235140Y-68763252D01*
X75070602Y-68935431D01*
X74936394Y-69132172D01*
X74836122Y-69348191D01*
X74772477Y-69577685D01*
X74771928Y-69582819D01*
X74771928Y-69582821D01*
X74766449Y-69634089D01*
X74747170Y-69814494D01*
X71057741Y-69814494D01*
X72551379Y-68320855D01*
X72561522Y-68311753D01*
X72586218Y-68291897D01*
X72591025Y-68288032D01*
X72623292Y-68249578D01*
X72626472Y-68245931D01*
X72628115Y-68244119D01*
X72630309Y-68241925D01*
X72657642Y-68208651D01*
X72658348Y-68207800D01*
X72714195Y-68141244D01*
X72718154Y-68136526D01*
X72720722Y-68131856D01*
X72724103Y-68127739D01*
X72768015Y-68045842D01*
X72768624Y-68044720D01*
X72810466Y-67968611D01*
X72810468Y-67968606D01*
X72813433Y-67963213D01*
X72815044Y-67958135D01*
X72817563Y-67953437D01*
X72844753Y-67864502D01*
X72845136Y-67863272D01*
X72849525Y-67849438D01*
X72873235Y-67774694D01*
X72873828Y-67769403D01*
X72875388Y-67764302D01*
X72884795Y-67671689D01*
X72884915Y-67670569D01*
X72890500Y-67620773D01*
X72890500Y-67617244D01*
X72890555Y-67616261D01*
X72891004Y-67610556D01*
X72891918Y-67601566D01*
X72895374Y-67567537D01*
X72891059Y-67521888D01*
X72890500Y-67510031D01*
X72890500Y-67279662D01*
X74747969Y-67279662D01*
X74761078Y-67507017D01*
X74762514Y-67517237D01*
X74812580Y-67739393D01*
X74815659Y-67749221D01*
X74901338Y-67960223D01*
X74905991Y-67969434D01*
X75001153Y-68124723D01*
X75011611Y-68134185D01*
X75020387Y-68130402D01*
X75827979Y-67322811D01*
X75834356Y-67311132D01*
X76564408Y-67311132D01*
X76564539Y-67312966D01*
X76568790Y-67319580D01*
X77374826Y-68125615D01*
X77386832Y-68132171D01*
X77398571Y-68123202D01*
X77442241Y-68062429D01*
X77447551Y-68053592D01*
X77548450Y-67849438D01*
X77552249Y-67839843D01*
X77618449Y-67621957D01*
X77620628Y-67611876D01*
X77650591Y-67384288D01*
X77651110Y-67377615D01*
X77652680Y-67313365D01*
X77652486Y-67306646D01*
X77633679Y-67077887D01*
X77631994Y-67067707D01*
X77576515Y-66846837D01*
X77573195Y-66837086D01*
X77482384Y-66628233D01*
X77477518Y-66619158D01*
X77398008Y-66496256D01*
X77387322Y-66487052D01*
X77377755Y-66491456D01*
X76572021Y-67297189D01*
X76564408Y-67311132D01*
X75834356Y-67311132D01*
X75835592Y-67308868D01*
X75835461Y-67307034D01*
X75831210Y-67300420D01*
X75025220Y-66494431D01*
X75013688Y-66488134D01*
X75001406Y-66497757D01*
X74939747Y-66588146D01*
X74934654Y-66597110D01*
X74838768Y-66803679D01*
X74835211Y-66813347D01*
X74774352Y-67032797D01*
X74772421Y-67042916D01*
X74748221Y-67269373D01*
X74747969Y-67279662D01*
X72890500Y-67279662D01*
X72890500Y-66122285D01*
X75377081Y-66122285D01*
X75383825Y-66134614D01*
X76187189Y-66937979D01*
X76201132Y-66945592D01*
X76202966Y-66945461D01*
X76209580Y-66941210D01*
X77017331Y-66133458D01*
X77024348Y-66120607D01*
X77016574Y-66109937D01*
X77008004Y-66103169D01*
X76999417Y-66097464D01*
X76800055Y-65987410D01*
X76790643Y-65983180D01*
X76575971Y-65907160D01*
X76566014Y-65904530D01*
X76341805Y-65864591D01*
X76331554Y-65863622D01*
X76103830Y-65860840D01*
X76093546Y-65861560D01*
X75868437Y-65896006D01*
X75858410Y-65898395D01*
X75641951Y-65969144D01*
X75632442Y-65973141D01*
X75430451Y-66078292D01*
X75421716Y-66083793D01*
X75385535Y-66110958D01*
X75377081Y-66122285D01*
X72890500Y-66122285D01*
X72890500Y-62503460D01*
X73242852Y-62503460D01*
X73278593Y-62683143D01*
X73281082Y-62692118D01*
X73363708Y-62922250D01*
X73367505Y-62930778D01*
X73483234Y-63146160D01*
X73488245Y-63154027D01*
X73634550Y-63349953D01*
X73640656Y-63356977D01*
X73814316Y-63529127D01*
X73821398Y-63535176D01*
X74018586Y-63679760D01*
X74026505Y-63684708D01*
X74242877Y-63798547D01*
X74251451Y-63802275D01*
X74482282Y-63882885D01*
X74491291Y-63885299D01*
X74658201Y-63916988D01*
X74671261Y-63915704D01*
X74675506Y-63902360D01*
X75184000Y-63902360D01*
X75188171Y-63916565D01*
X75200933Y-63918620D01*
X75237487Y-63914617D01*
X75246649Y-63912919D01*
X75483107Y-63850665D01*
X75491926Y-63847628D01*
X75716584Y-63751107D01*
X75724856Y-63746800D01*
X75932777Y-63618135D01*
X75940317Y-63612657D01*
X76126943Y-63454668D01*
X76133593Y-63448132D01*
X76294813Y-63264295D01*
X76300420Y-63256854D01*
X76432700Y-63051202D01*
X76437147Y-63043011D01*
X76537572Y-62820076D01*
X76540767Y-62811298D01*
X76607135Y-62575973D01*
X76608993Y-62566844D01*
X76617246Y-62501969D01*
X76614958Y-62487708D01*
X76601938Y-62484000D01*
X75202115Y-62484000D01*
X75186876Y-62488475D01*
X75185671Y-62489865D01*
X75184000Y-62497548D01*
X75184000Y-63902360D01*
X74675506Y-63902360D01*
X74676000Y-63900808D01*
X74676000Y-62502115D01*
X74671525Y-62486876D01*
X74670135Y-62485671D01*
X74662452Y-62484000D01*
X73257096Y-62484000D01*
X73244695Y-62487641D01*
X73242852Y-62503460D01*
X72890500Y-62503460D01*
X72890500Y-61957976D01*
X73240675Y-61957976D01*
X73243435Y-61972703D01*
X73255614Y-61976000D01*
X74657885Y-61976000D01*
X74673124Y-61971525D01*
X74674329Y-61970135D01*
X74676000Y-61962452D01*
X74676000Y-61957885D01*
X75184000Y-61957885D01*
X75188475Y-61973124D01*
X75189865Y-61974329D01*
X75197548Y-61976000D01*
X76605671Y-61976000D01*
X76619202Y-61972027D01*
X76620634Y-61962068D01*
X76568979Y-61733786D01*
X76566255Y-61724875D01*
X76477633Y-61496983D01*
X76473619Y-61488567D01*
X76352286Y-61276281D01*
X76347070Y-61268548D01*
X76195692Y-61076525D01*
X76189399Y-61069657D01*
X76011294Y-60902112D01*
X76004060Y-60896254D01*
X75803141Y-60756872D01*
X75795115Y-60752144D01*
X75575810Y-60643995D01*
X75567177Y-60640507D01*
X75334288Y-60565958D01*
X75325238Y-60563785D01*
X75201880Y-60543696D01*
X75188286Y-60545393D01*
X75184000Y-60559500D01*
X75184000Y-61957885D01*
X74676000Y-61957885D01*
X74676000Y-60558859D01*
X74671982Y-60545175D01*
X74658290Y-60543154D01*
X74578521Y-60554010D01*
X74569403Y-60555948D01*
X74334668Y-60624367D01*
X74325915Y-60627639D01*
X74103869Y-60730004D01*
X74095714Y-60734524D01*
X73891233Y-60868587D01*
X73883828Y-60874270D01*
X73701413Y-61037082D01*
X73694935Y-61043790D01*
X73538584Y-61231781D01*
X73533163Y-61239381D01*
X73406322Y-61448409D01*
X73402084Y-61456726D01*
X73307529Y-61682214D01*
X73304572Y-61691052D01*
X73244382Y-61928048D01*
X73242764Y-61937228D01*
X73240675Y-61957976D01*
X72890500Y-61957976D01*
X72890500Y-58127925D01*
X72910502Y-58059804D01*
X72927405Y-58038830D01*
X74619931Y-56346303D01*
X74682243Y-56312278D01*
X74726718Y-56311688D01*
X74726810Y-56310877D01*
X74731461Y-56311407D01*
X74736050Y-56312278D01*
X74856532Y-56317011D01*
X74985125Y-56322064D01*
X74985130Y-56322064D01*
X74989793Y-56322247D01*
X75080821Y-56312278D01*
X75237569Y-56295112D01*
X75237575Y-56295111D01*
X75242222Y-56294602D01*
X75487793Y-56229948D01*
X75605811Y-56179244D01*
X75716807Y-56131557D01*
X75716810Y-56131555D01*
X75721110Y-56129708D01*
X75725090Y-56127245D01*
X75725094Y-56127243D01*
X75933064Y-55998547D01*
X75933066Y-55998545D01*
X75937047Y-55996082D01*
X76001522Y-55941500D01*
X76127289Y-55835031D01*
X76127291Y-55835029D01*
X76130862Y-55832006D01*
X76298295Y-55641084D01*
X76304827Y-55630930D01*
X76416413Y-55457449D01*
X76435669Y-55427512D01*
X76539967Y-55195980D01*
X76608896Y-54951575D01*
X76633227Y-54760323D01*
X76640545Y-54702798D01*
X76640545Y-54702792D01*
X76640943Y-54699667D01*
X76643291Y-54610000D01*
X76626252Y-54380713D01*
X76624818Y-54361411D01*
X76624817Y-54361407D01*
X76624472Y-54356759D01*
X76607182Y-54280346D01*
X76569459Y-54113639D01*
X76568428Y-54109082D01*
X76476391Y-53872409D01*
X76455866Y-53836498D01*
X76352702Y-53655997D01*
X76352700Y-53655995D01*
X76350383Y-53651940D01*
X76193171Y-53452517D01*
X76066394Y-53333258D01*
X76011610Y-53281722D01*
X76011608Y-53281720D01*
X76008209Y-53278523D01*
X75829145Y-53154302D01*
X75803393Y-53136437D01*
X75803390Y-53136435D01*
X75799561Y-53133779D01*
X75795384Y-53131719D01*
X75795377Y-53131715D01*
X75575996Y-53023528D01*
X75575992Y-53023527D01*
X75571810Y-53021464D01*
X75329960Y-52944047D01*
X75325355Y-52943297D01*
X75083935Y-52903980D01*
X75083934Y-52903980D01*
X75079323Y-52903229D01*
X74952365Y-52901567D01*
X74830083Y-52899966D01*
X74830080Y-52899966D01*
X74825406Y-52899905D01*
X74573787Y-52934149D01*
X74329993Y-53005208D01*
X74099380Y-53111522D01*
X74095471Y-53114085D01*
X73890928Y-53248189D01*
X73890923Y-53248193D01*
X73887015Y-53250755D01*
X73697562Y-53419848D01*
X73535183Y-53615087D01*
X73403447Y-53832182D01*
X73305246Y-54066365D01*
X73304095Y-54070897D01*
X73304094Y-54070900D01*
X73274635Y-54186895D01*
X73242738Y-54312490D01*
X73217296Y-54565151D01*
X73217520Y-54569817D01*
X73217520Y-54569822D01*
X73223908Y-54702798D01*
X73229365Y-54816411D01*
X73229365Y-54816413D01*
X73229480Y-54818798D01*
X73228968Y-54818823D01*
X73217910Y-54885872D01*
X73193497Y-54920268D01*
X71212621Y-56901145D01*
X71202478Y-56910247D01*
X71172975Y-56933968D01*
X71169008Y-56938696D01*
X71140709Y-56972421D01*
X71137528Y-56976069D01*
X71135885Y-56977881D01*
X71133691Y-56980075D01*
X71106358Y-57013349D01*
X71105696Y-57014147D01*
X71045846Y-57085474D01*
X71043278Y-57090144D01*
X71039897Y-57094261D01*
X71008860Y-57152145D01*
X70996023Y-57176086D01*
X70995394Y-57177245D01*
X70953538Y-57253381D01*
X70953535Y-57253389D01*
X70950567Y-57258787D01*
X70948955Y-57263869D01*
X70946438Y-57268563D01*
X70919238Y-57357531D01*
X70918918Y-57358559D01*
X70890765Y-57447306D01*
X70890171Y-57452602D01*
X70888613Y-57457698D01*
X70887990Y-57463834D01*
X70879218Y-57550187D01*
X70879089Y-57551393D01*
X70873500Y-57601227D01*
X70873500Y-57604754D01*
X70873445Y-57605739D01*
X70872998Y-57611419D01*
X70868626Y-57654462D01*
X70869206Y-57660593D01*
X70872941Y-57700109D01*
X70873500Y-57711967D01*
X70873500Y-67094076D01*
X70853498Y-67162197D01*
X70836595Y-67183171D01*
X70611595Y-67408171D01*
X70549283Y-67442197D01*
X70478468Y-67437132D01*
X70421632Y-67394585D01*
X70396821Y-67328065D01*
X70396500Y-67319076D01*
X70396500Y-66207866D01*
X70389745Y-66145684D01*
X70338615Y-66009295D01*
X70251261Y-65892739D01*
X70134705Y-65805385D01*
X69998316Y-65754255D01*
X69936134Y-65747500D01*
X68239866Y-65747500D01*
X68177684Y-65754255D01*
X68041295Y-65805385D01*
X68028530Y-65814952D01*
X67931922Y-65887355D01*
X67931919Y-65887358D01*
X67924739Y-65892739D01*
X67919358Y-65899919D01*
X67913007Y-65906270D01*
X67910865Y-65904128D01*
X67866154Y-65937564D01*
X67795336Y-65942594D01*
X67753965Y-65924477D01*
X67753768Y-65924818D01*
X67750702Y-65923048D01*
X67749910Y-65922701D01*
X67749011Y-65922071D01*
X67739511Y-65916586D01*
X67542053Y-65824510D01*
X67531761Y-65820764D01*
X67321312Y-65764375D01*
X67310519Y-65762472D01*
X67093475Y-65743483D01*
X67082525Y-65743483D01*
X66865481Y-65762472D01*
X66854688Y-65764375D01*
X66644239Y-65820764D01*
X66633947Y-65824510D01*
X66436489Y-65916586D01*
X66426994Y-65922069D01*
X66374952Y-65958509D01*
X66366576Y-65968988D01*
X66373644Y-65982434D01*
X67358115Y-66966905D01*
X67392141Y-67029217D01*
X67387076Y-67100032D01*
X67358115Y-67145095D01*
X66372923Y-68130287D01*
X66366493Y-68142062D01*
X66375789Y-68154077D01*
X66426994Y-68189931D01*
X66436489Y-68195414D01*
X66633947Y-68287490D01*
X66644239Y-68291236D01*
X66854688Y-68347625D01*
X66865481Y-68349528D01*
X67082525Y-68368517D01*
X67093475Y-68368517D01*
X67176519Y-68361252D01*
X67246124Y-68375242D01*
X67297116Y-68424641D01*
X67313500Y-68486773D01*
X67313500Y-72104909D01*
X67293498Y-72173030D01*
X67276595Y-72194004D01*
X65126136Y-74344463D01*
X65063824Y-74378489D01*
X64991580Y-74372880D01*
X64905115Y-74339429D01*
X64900780Y-74338424D01*
X64900776Y-74338423D01*
X64770084Y-74308130D01*
X64635054Y-74276832D01*
X64358867Y-74252912D01*
X64354432Y-74253156D01*
X64354428Y-74253156D01*
X64241985Y-74259344D01*
X64082065Y-74268145D01*
X63810171Y-74322229D01*
X63688495Y-74364958D01*
X63552816Y-74412604D01*
X63552808Y-74412607D01*
X63548609Y-74414082D01*
X63544656Y-74416135D01*
X63544650Y-74416138D01*
X63417513Y-74482181D01*
X63302600Y-74541874D01*
X63298985Y-74544457D01*
X63298979Y-74544461D01*
X63213715Y-74605392D01*
X63077051Y-74703054D01*
X63012971Y-74764183D01*
X62897214Y-74874610D01*
X62876462Y-74894406D01*
X62873706Y-74897902D01*
X62873705Y-74897903D01*
X62705450Y-75111333D01*
X62647569Y-75152446D01*
X62576648Y-75155740D01*
X62515206Y-75120168D01*
X62482749Y-75057025D01*
X62480500Y-75033327D01*
X62480500Y-74534371D01*
X62500502Y-74466250D01*
X62517405Y-74445276D01*
X66196331Y-70766350D01*
X66259228Y-70732199D01*
X66315824Y-70720169D01*
X66315833Y-70720166D01*
X66322288Y-70718794D01*
X66328319Y-70716109D01*
X66490722Y-70643803D01*
X66490724Y-70643802D01*
X66496752Y-70641118D01*
X66651253Y-70528866D01*
X66779040Y-70386944D01*
X66874527Y-70221556D01*
X66933542Y-70039928D01*
X66945694Y-69924313D01*
X66952814Y-69856565D01*
X66953504Y-69850000D01*
X66934809Y-69672128D01*
X66934232Y-69666635D01*
X66934232Y-69666633D01*
X66933542Y-69660072D01*
X66874527Y-69478444D01*
X66779040Y-69313056D01*
X66651253Y-69171134D01*
X66496752Y-69058882D01*
X66490724Y-69056198D01*
X66490722Y-69056197D01*
X66328319Y-68983891D01*
X66328318Y-68983891D01*
X66322288Y-68981206D01*
X66225274Y-68960585D01*
X66141944Y-68942872D01*
X66141939Y-68942872D01*
X66135487Y-68941500D01*
X65944513Y-68941500D01*
X65938061Y-68942872D01*
X65938056Y-68942872D01*
X65854726Y-68960585D01*
X65757712Y-68981206D01*
X65751682Y-68983891D01*
X65751681Y-68983891D01*
X65589278Y-69056197D01*
X65589276Y-69056198D01*
X65583248Y-69058882D01*
X65428747Y-69171134D01*
X65300960Y-69313056D01*
X65205473Y-69478444D01*
X65160192Y-69617805D01*
X65150613Y-69647285D01*
X65119875Y-69697444D01*
X61233089Y-73584230D01*
X61218677Y-73596616D01*
X61207082Y-73605149D01*
X61207077Y-73605154D01*
X61201182Y-73609492D01*
X61196443Y-73615070D01*
X61196440Y-73615073D01*
X61166965Y-73649768D01*
X61160035Y-73657284D01*
X61154340Y-73662979D01*
X61152060Y-73665861D01*
X61136719Y-73685251D01*
X61133928Y-73688655D01*
X61109397Y-73717530D01*
X61086667Y-73744285D01*
X61083339Y-73750801D01*
X61079972Y-73755850D01*
X61076805Y-73760979D01*
X61072266Y-73766716D01*
X61041345Y-73832875D01*
X61039442Y-73836769D01*
X61006231Y-73901808D01*
X61004492Y-73908916D01*
X61002393Y-73914559D01*
X61000476Y-73920322D01*
X60997378Y-73926950D01*
X60995888Y-73934112D01*
X60995888Y-73934113D01*
X60982514Y-73998412D01*
X60981544Y-74002696D01*
X60964192Y-74073610D01*
X60963500Y-74084764D01*
X60963464Y-74084762D01*
X60963225Y-74088755D01*
X60962851Y-74092947D01*
X60961360Y-74100115D01*
X60961558Y-74107432D01*
X60963454Y-74177521D01*
X60963500Y-74180928D01*
X60963500Y-75644609D01*
X60943498Y-75712730D01*
X60889842Y-75759223D01*
X60819568Y-75769327D01*
X60754988Y-75739833D01*
X60716604Y-75680107D01*
X60714807Y-75673034D01*
X60714519Y-75672043D01*
X60713584Y-75667700D01*
X60617633Y-75407614D01*
X60485993Y-75163642D01*
X60483352Y-75160067D01*
X60483348Y-75160060D01*
X60323943Y-74944245D01*
X60321290Y-74940653D01*
X60308196Y-74927351D01*
X60147570Y-74764183D01*
X60126811Y-74743095D01*
X60123272Y-74740394D01*
X60123265Y-74740388D01*
X59946377Y-74605392D01*
X59906436Y-74574910D01*
X59902547Y-74572732D01*
X59668453Y-74441633D01*
X59668452Y-74441633D01*
X59664562Y-74439454D01*
X59655220Y-74435840D01*
X59410170Y-74341036D01*
X59410164Y-74341034D01*
X59406015Y-74339429D01*
X59401683Y-74338425D01*
X59401680Y-74338424D01*
X59291345Y-74312850D01*
X59135954Y-74276832D01*
X58859767Y-74252912D01*
X58855332Y-74253156D01*
X58855328Y-74253156D01*
X58742885Y-74259344D01*
X58582965Y-74268145D01*
X58311071Y-74322229D01*
X58189395Y-74364958D01*
X58053716Y-74412604D01*
X58053708Y-74412607D01*
X58049509Y-74414082D01*
X58045556Y-74416135D01*
X58045550Y-74416138D01*
X57918413Y-74482181D01*
X57803500Y-74541874D01*
X57799885Y-74544457D01*
X57799879Y-74544461D01*
X57714615Y-74605392D01*
X57577951Y-74703054D01*
X57513871Y-74764183D01*
X57398114Y-74874610D01*
X57377362Y-74894406D01*
X57205736Y-75112112D01*
X57180395Y-75155740D01*
X57068732Y-75347982D01*
X57068729Y-75347988D01*
X57066498Y-75351829D01*
X57064828Y-75355952D01*
X56980321Y-75564591D01*
X56962425Y-75608773D01*
X56961354Y-75613086D01*
X56961352Y-75613091D01*
X56936602Y-75712730D01*
X56895594Y-75877817D01*
X56867338Y-76153594D01*
X56867513Y-76158046D01*
X56872693Y-76289871D01*
X56878222Y-76430601D01*
X56928028Y-76703311D01*
X57015762Y-76966283D01*
X57139674Y-77214269D01*
X57297291Y-77442322D01*
X57485468Y-77645892D01*
X57488922Y-77648704D01*
X57696995Y-77818102D01*
X57696999Y-77818105D01*
X57700452Y-77820916D01*
X57937952Y-77963903D01*
X57942047Y-77965637D01*
X57942049Y-77965638D01*
X58146921Y-78052390D01*
X58193229Y-78071999D01*
X58197522Y-78073137D01*
X58197527Y-78073139D01*
X58318871Y-78105312D01*
X58461191Y-78143047D01*
X58736490Y-78175631D01*
X59013634Y-78169100D01*
X59170160Y-78143047D01*
X59282703Y-78124315D01*
X59282707Y-78124314D01*
X59287093Y-78123584D01*
X59291334Y-78122243D01*
X59291337Y-78122242D01*
X59547164Y-78041334D01*
X59547166Y-78041333D01*
X59551410Y-78039991D01*
X59555421Y-78038065D01*
X59555426Y-78038063D01*
X59797293Y-77921920D01*
X59797294Y-77921919D01*
X59801312Y-77919990D01*
X59805018Y-77917514D01*
X60028105Y-77768453D01*
X60028109Y-77768450D01*
X60031813Y-77765975D01*
X60035130Y-77763004D01*
X60035134Y-77763001D01*
X60234995Y-77583990D01*
X60234996Y-77583989D01*
X60238313Y-77581018D01*
X60416692Y-77368810D01*
X60563392Y-77133585D01*
X60582869Y-77089530D01*
X60639225Y-76962054D01*
X60675484Y-76880037D01*
X60716231Y-76735559D01*
X60753972Y-76675425D01*
X60818234Y-76645242D01*
X60888612Y-76654592D01*
X60942762Y-76700508D01*
X60963500Y-76769760D01*
X60963500Y-79845769D01*
X60943498Y-79913890D01*
X60889842Y-79960383D01*
X60819568Y-79970487D01*
X60754988Y-79940993D01*
X60716604Y-79881267D01*
X60714807Y-79874194D01*
X60714519Y-79873203D01*
X60713584Y-79868860D01*
X60617633Y-79608774D01*
X60485993Y-79364802D01*
X60483352Y-79361227D01*
X60483348Y-79361220D01*
X60323943Y-79145405D01*
X60321290Y-79141813D01*
X60279207Y-79099063D01*
X60129942Y-78947436D01*
X60126811Y-78944255D01*
X60123272Y-78941554D01*
X60123265Y-78941548D01*
X59909976Y-78778772D01*
X59906436Y-78776070D01*
X59902547Y-78773892D01*
X59668453Y-78642793D01*
X59668452Y-78642793D01*
X59664562Y-78640614D01*
X59656563Y-78637520D01*
X59410170Y-78542196D01*
X59410164Y-78542194D01*
X59406015Y-78540589D01*
X59401683Y-78539585D01*
X59401680Y-78539584D01*
X59291345Y-78514010D01*
X59135954Y-78477992D01*
X58859767Y-78454072D01*
X58855332Y-78454316D01*
X58855328Y-78454316D01*
X58742885Y-78460504D01*
X58582965Y-78469305D01*
X58311071Y-78523389D01*
X58189395Y-78566118D01*
X58053716Y-78613764D01*
X58053708Y-78613767D01*
X58049509Y-78615242D01*
X58045556Y-78617295D01*
X58045550Y-78617298D01*
X57996471Y-78642793D01*
X57803500Y-78743034D01*
X57799885Y-78745617D01*
X57799879Y-78745621D01*
X57657374Y-78847457D01*
X57577951Y-78904214D01*
X57377362Y-79095566D01*
X57205736Y-79313272D01*
X57180395Y-79356900D01*
X57068732Y-79549142D01*
X57068729Y-79549148D01*
X57066498Y-79552989D01*
X56962425Y-79809933D01*
X56961354Y-79814246D01*
X56961352Y-79814251D01*
X56925053Y-79960383D01*
X56895594Y-80078977D01*
X56867338Y-80354754D01*
X56867513Y-80359206D01*
X56874008Y-80524500D01*
X56878222Y-80631761D01*
X56928028Y-80904471D01*
X57015762Y-81167443D01*
X57139674Y-81415429D01*
X57297291Y-81643482D01*
X57485468Y-81847052D01*
X57488922Y-81849864D01*
X57696995Y-82019262D01*
X57696999Y-82019265D01*
X57700452Y-82022076D01*
X57937952Y-82165063D01*
X57942047Y-82166797D01*
X57942049Y-82166798D01*
X58117640Y-82241151D01*
X58193229Y-82273159D01*
X58197522Y-82274297D01*
X58197527Y-82274299D01*
X58337302Y-82311359D01*
X58461191Y-82344207D01*
X58736490Y-82376791D01*
X59013634Y-82370260D01*
X59170160Y-82344207D01*
X59282703Y-82325475D01*
X59282707Y-82325474D01*
X59287093Y-82324744D01*
X59291334Y-82323403D01*
X59291337Y-82323402D01*
X59547164Y-82242494D01*
X59547166Y-82242493D01*
X59551410Y-82241151D01*
X59555421Y-82239225D01*
X59555426Y-82239223D01*
X59797293Y-82123080D01*
X59797294Y-82123079D01*
X59801312Y-82121150D01*
X59949588Y-82022076D01*
X60028105Y-81969613D01*
X60028109Y-81969610D01*
X60031813Y-81967135D01*
X60035130Y-81964164D01*
X60035134Y-81964161D01*
X60234995Y-81785150D01*
X60234996Y-81785149D01*
X60238313Y-81782178D01*
X60416692Y-81569970D01*
X60563392Y-81334745D01*
X60675484Y-81081197D01*
X60716231Y-80936719D01*
X60753972Y-80876585D01*
X60818234Y-80846402D01*
X60888612Y-80855752D01*
X60942762Y-80901668D01*
X60963500Y-80970920D01*
X60963500Y-84046767D01*
X60943498Y-84114888D01*
X60889842Y-84161381D01*
X60819568Y-84171485D01*
X60754988Y-84141991D01*
X60716604Y-84082265D01*
X60714322Y-84073285D01*
X60714040Y-84071977D01*
X60711560Y-84063439D01*
X60618717Y-83811777D01*
X60615062Y-83803682D01*
X60487686Y-83567613D01*
X60482924Y-83560108D01*
X60391787Y-83436718D01*
X60380662Y-83428278D01*
X60368066Y-83435104D01*
X59200962Y-84602208D01*
X59193348Y-84616152D01*
X59193479Y-84617985D01*
X59197730Y-84624600D01*
X60369286Y-85796156D01*
X60382686Y-85803473D01*
X60392591Y-85796486D01*
X60413422Y-85771703D01*
X60418642Y-85764518D01*
X60560595Y-85536905D01*
X60564747Y-85529065D01*
X60673215Y-85283714D01*
X60676221Y-85275364D01*
X60716231Y-85133500D01*
X60753973Y-85073367D01*
X60818234Y-85043184D01*
X60888612Y-85052534D01*
X60942762Y-85098450D01*
X60963500Y-85167702D01*
X60963500Y-85556749D01*
X60943498Y-85624870D01*
X60926595Y-85645844D01*
X59627036Y-86945403D01*
X59564724Y-86979429D01*
X59492480Y-86973820D01*
X59406015Y-86940369D01*
X59401680Y-86939364D01*
X59401676Y-86939363D01*
X59234397Y-86900590D01*
X59135954Y-86877772D01*
X58859767Y-86853852D01*
X58855332Y-86854096D01*
X58855328Y-86854096D01*
X58742885Y-86860284D01*
X58582965Y-86869085D01*
X58311071Y-86923169D01*
X58189395Y-86965898D01*
X58053716Y-87013544D01*
X58053708Y-87013547D01*
X58049509Y-87015022D01*
X58045556Y-87017075D01*
X58045550Y-87017078D01*
X57906654Y-87089229D01*
X57803500Y-87142814D01*
X57799885Y-87145397D01*
X57799879Y-87145401D01*
X57657374Y-87247237D01*
X57577951Y-87303994D01*
X57377362Y-87495346D01*
X57205736Y-87713052D01*
X57203499Y-87716904D01*
X57068732Y-87948922D01*
X57068729Y-87948928D01*
X57066498Y-87952769D01*
X56962425Y-88209713D01*
X56961354Y-88214026D01*
X56961352Y-88214031D01*
X56941623Y-88293455D01*
X56895594Y-88478757D01*
X56867338Y-88754534D01*
X56878222Y-89031541D01*
X56928028Y-89304251D01*
X57015762Y-89567223D01*
X57139674Y-89815209D01*
X57297291Y-90043262D01*
X57485468Y-90246832D01*
X57488922Y-90249644D01*
X57696995Y-90419042D01*
X57696999Y-90419045D01*
X57700452Y-90421856D01*
X57937952Y-90564843D01*
X57942047Y-90566577D01*
X57942049Y-90566578D01*
X58155045Y-90656770D01*
X58193229Y-90672939D01*
X58197522Y-90674077D01*
X58197527Y-90674079D01*
X58337302Y-90711139D01*
X58461191Y-90743987D01*
X58736490Y-90776571D01*
X59013634Y-90770040D01*
X59170160Y-90743987D01*
X59282703Y-90725255D01*
X59282707Y-90725254D01*
X59287093Y-90724524D01*
X59291334Y-90723183D01*
X59291337Y-90723182D01*
X59547164Y-90642274D01*
X59547166Y-90642273D01*
X59551410Y-90640931D01*
X59555421Y-90639005D01*
X59555426Y-90639003D01*
X59797293Y-90522860D01*
X59797294Y-90522859D01*
X59801312Y-90520930D01*
X59949588Y-90421856D01*
X60028105Y-90369393D01*
X60028109Y-90369390D01*
X60031813Y-90366915D01*
X60035130Y-90363944D01*
X60035134Y-90363941D01*
X60234995Y-90184930D01*
X60234996Y-90184929D01*
X60238313Y-90181958D01*
X60416692Y-89969750D01*
X60563392Y-89734525D01*
X60675484Y-89480977D01*
X60750733Y-89214164D01*
X60774674Y-89035921D01*
X60787210Y-88942593D01*
X60787211Y-88942585D01*
X60787637Y-88939411D01*
X60791510Y-88816180D01*
X60771931Y-88539651D01*
X60713584Y-88268640D01*
X60712046Y-88264470D01*
X60712043Y-88264461D01*
X60670240Y-88151149D01*
X60665428Y-88080316D01*
X60699357Y-88018444D01*
X62210911Y-86506890D01*
X62225323Y-86494504D01*
X62236918Y-86485971D01*
X62236923Y-86485966D01*
X62242818Y-86481628D01*
X62247557Y-86476050D01*
X62247560Y-86476047D01*
X62277035Y-86441352D01*
X62283965Y-86433836D01*
X62289661Y-86428140D01*
X62291924Y-86425279D01*
X62291929Y-86425274D01*
X62307293Y-86405854D01*
X62310082Y-86402453D01*
X62311743Y-86400498D01*
X62357333Y-86346835D01*
X62360659Y-86340322D01*
X62364020Y-86335283D01*
X62367196Y-86330141D01*
X62371734Y-86324404D01*
X62402655Y-86258245D01*
X62404561Y-86254345D01*
X62437769Y-86189312D01*
X62439508Y-86182203D01*
X62441604Y-86176569D01*
X62443523Y-86170799D01*
X62446622Y-86164170D01*
X62461491Y-86092685D01*
X62462461Y-86088402D01*
X62478473Y-86022964D01*
X62479808Y-86017510D01*
X62480500Y-86006356D01*
X62480535Y-86006358D01*
X62480775Y-86002386D01*
X62481152Y-85998165D01*
X62482641Y-85991005D01*
X62480546Y-85913578D01*
X62480500Y-85910170D01*
X62480500Y-85788087D01*
X62500502Y-85719966D01*
X62554158Y-85673473D01*
X62624432Y-85663369D01*
X62689012Y-85692863D01*
X62710153Y-85716448D01*
X62764119Y-85794531D01*
X62774437Y-85802882D01*
X62788092Y-85795758D01*
X63956018Y-84627832D01*
X63963632Y-84613888D01*
X63963501Y-84612055D01*
X63959250Y-84605440D01*
X62788917Y-83435107D01*
X62776077Y-83428096D01*
X62765388Y-83435891D01*
X62705451Y-83511922D01*
X62647570Y-83553036D01*
X62576650Y-83556330D01*
X62515207Y-83520759D01*
X62482749Y-83457616D01*
X62480500Y-83433917D01*
X62480500Y-83062532D01*
X63140907Y-83062532D01*
X63147887Y-83075657D01*
X64315228Y-84242998D01*
X64329172Y-84250612D01*
X64331005Y-84250481D01*
X64337620Y-84246230D01*
X65507855Y-83075995D01*
X65514709Y-83063443D01*
X65506502Y-83052373D01*
X65408802Y-82977810D01*
X65401377Y-82972933D01*
X65167338Y-82841865D01*
X65159285Y-82838076D01*
X64909122Y-82741295D01*
X64900632Y-82738683D01*
X64639314Y-82678113D01*
X64630536Y-82676723D01*
X64363291Y-82653577D01*
X64354420Y-82653437D01*
X64086571Y-82668178D01*
X64077761Y-82669292D01*
X63814675Y-82721622D01*
X63806100Y-82723968D01*
X63553016Y-82812844D01*
X63544849Y-82816378D01*
X63306813Y-82940029D01*
X63299241Y-82944669D01*
X63149310Y-83051810D01*
X63140907Y-83062532D01*
X62480500Y-83062532D01*
X62480500Y-81590345D01*
X62500502Y-81522224D01*
X62554158Y-81475731D01*
X62624432Y-81465627D01*
X62689012Y-81495121D01*
X62710153Y-81518706D01*
X62742973Y-81566193D01*
X62796391Y-81643482D01*
X62984568Y-81847052D01*
X62988022Y-81849864D01*
X63196095Y-82019262D01*
X63196099Y-82019265D01*
X63199552Y-82022076D01*
X63437052Y-82165063D01*
X63441147Y-82166797D01*
X63441149Y-82166798D01*
X63616740Y-82241151D01*
X63692329Y-82273159D01*
X63696622Y-82274297D01*
X63696627Y-82274299D01*
X63836402Y-82311359D01*
X63960291Y-82344207D01*
X64235590Y-82376791D01*
X64512734Y-82370260D01*
X64669260Y-82344207D01*
X64781803Y-82325475D01*
X64781807Y-82325474D01*
X64786193Y-82324744D01*
X64790434Y-82323403D01*
X64790437Y-82323402D01*
X65046264Y-82242494D01*
X65046266Y-82242493D01*
X65050510Y-82241151D01*
X65054521Y-82239225D01*
X65054526Y-82239223D01*
X65296393Y-82123080D01*
X65296394Y-82123079D01*
X65300412Y-82121150D01*
X65448688Y-82022076D01*
X65527205Y-81969613D01*
X65527209Y-81969610D01*
X65530913Y-81967135D01*
X65534230Y-81964164D01*
X65534234Y-81964161D01*
X65734095Y-81785150D01*
X65734096Y-81785149D01*
X65737413Y-81782178D01*
X65915792Y-81569970D01*
X66062492Y-81334745D01*
X66174584Y-81081197D01*
X66249833Y-80814384D01*
X66273774Y-80636141D01*
X66286310Y-80542813D01*
X66286311Y-80542805D01*
X66286737Y-80539631D01*
X66286838Y-80536420D01*
X66290509Y-80419622D01*
X66290509Y-80419617D01*
X66290610Y-80416400D01*
X66271031Y-80139871D01*
X66232389Y-79960383D01*
X66213620Y-79873207D01*
X66213620Y-79873205D01*
X66212684Y-79868860D01*
X66116733Y-79608774D01*
X65985093Y-79364802D01*
X65982452Y-79361227D01*
X65982448Y-79361220D01*
X65823043Y-79145405D01*
X65820390Y-79141813D01*
X65778307Y-79099063D01*
X65629042Y-78947436D01*
X65625911Y-78944255D01*
X65622372Y-78941554D01*
X65622365Y-78941548D01*
X65409076Y-78778772D01*
X65405536Y-78776070D01*
X65401647Y-78773892D01*
X65167553Y-78642793D01*
X65167552Y-78642793D01*
X65163662Y-78640614D01*
X65155663Y-78637520D01*
X64909270Y-78542196D01*
X64909264Y-78542194D01*
X64905115Y-78540589D01*
X64900783Y-78539585D01*
X64900780Y-78539584D01*
X64790445Y-78514010D01*
X64635054Y-78477992D01*
X64358867Y-78454072D01*
X64354432Y-78454316D01*
X64354428Y-78454316D01*
X64241985Y-78460504D01*
X64082065Y-78469305D01*
X63810171Y-78523389D01*
X63688495Y-78566118D01*
X63552816Y-78613764D01*
X63552808Y-78613767D01*
X63548609Y-78615242D01*
X63544656Y-78617295D01*
X63544650Y-78617298D01*
X63495571Y-78642793D01*
X63302600Y-78743034D01*
X63298985Y-78745617D01*
X63298979Y-78745621D01*
X63156474Y-78847457D01*
X63077051Y-78904214D01*
X62876462Y-79095566D01*
X62873706Y-79099062D01*
X62873705Y-79099063D01*
X62705450Y-79312493D01*
X62647569Y-79353606D01*
X62576648Y-79356900D01*
X62515206Y-79321328D01*
X62482749Y-79258185D01*
X62480500Y-79234487D01*
X62480500Y-77389185D01*
X62500502Y-77321064D01*
X62554158Y-77274571D01*
X62624432Y-77264467D01*
X62689012Y-77293961D01*
X62710153Y-77317546D01*
X62723760Y-77337233D01*
X62796391Y-77442322D01*
X62984568Y-77645892D01*
X62988022Y-77648704D01*
X63196095Y-77818102D01*
X63196099Y-77818105D01*
X63199552Y-77820916D01*
X63437052Y-77963903D01*
X63441147Y-77965637D01*
X63441149Y-77965638D01*
X63646021Y-78052390D01*
X63692329Y-78071999D01*
X63696622Y-78073137D01*
X63696627Y-78073139D01*
X63817971Y-78105312D01*
X63960291Y-78143047D01*
X64235590Y-78175631D01*
X64512734Y-78169100D01*
X64669260Y-78143047D01*
X64781803Y-78124315D01*
X64781807Y-78124314D01*
X64786193Y-78123584D01*
X64790434Y-78122243D01*
X64790437Y-78122242D01*
X65046264Y-78041334D01*
X65046266Y-78041333D01*
X65050510Y-78039991D01*
X65054521Y-78038065D01*
X65054526Y-78038063D01*
X65296393Y-77921920D01*
X65296394Y-77921919D01*
X65300412Y-77919990D01*
X65304118Y-77917514D01*
X65527205Y-77768453D01*
X65527209Y-77768450D01*
X65530913Y-77765975D01*
X65534230Y-77763004D01*
X65534234Y-77763001D01*
X65734095Y-77583990D01*
X65734096Y-77583989D01*
X65737413Y-77581018D01*
X65915792Y-77368810D01*
X66062492Y-77133585D01*
X66081969Y-77089530D01*
X66138325Y-76962054D01*
X66174584Y-76880037D01*
X66249833Y-76613224D01*
X66273774Y-76434981D01*
X66286310Y-76341653D01*
X66286311Y-76341645D01*
X66286737Y-76338471D01*
X66286838Y-76335260D01*
X66290509Y-76218462D01*
X66290509Y-76218457D01*
X66290610Y-76215240D01*
X66271031Y-75938711D01*
X66232389Y-75759223D01*
X66213620Y-75672047D01*
X66213620Y-75672045D01*
X66212684Y-75667700D01*
X66211144Y-75663526D01*
X66211143Y-75663521D01*
X66169340Y-75550209D01*
X66164528Y-75479376D01*
X66198457Y-75417504D01*
X67864405Y-73751556D01*
X67926717Y-73717530D01*
X67997532Y-73722595D01*
X68054368Y-73765142D01*
X68079179Y-73831662D01*
X68079500Y-73840651D01*
X68079500Y-83586295D01*
X68059498Y-83654416D01*
X68042595Y-83675390D01*
X66411753Y-85306232D01*
X66349441Y-85340258D01*
X66278626Y-85335193D01*
X66221790Y-85292646D01*
X66196979Y-85226126D01*
X66201389Y-85182935D01*
X66248134Y-85017188D01*
X66249935Y-85008495D01*
X66285810Y-84741401D01*
X66286338Y-84735008D01*
X66290008Y-84618242D01*
X66289881Y-84611799D01*
X66270850Y-84343011D01*
X66269597Y-84334208D01*
X66213139Y-84071972D01*
X66210660Y-84063439D01*
X66117817Y-83811777D01*
X66114162Y-83803682D01*
X65986786Y-83567613D01*
X65982024Y-83560108D01*
X65890887Y-83436718D01*
X65879762Y-83428278D01*
X65867166Y-83435104D01*
X63147686Y-86154584D01*
X63140520Y-86167707D01*
X63147910Y-86178009D01*
X63196383Y-86217472D01*
X63203662Y-86222587D01*
X63433460Y-86360937D01*
X63441384Y-86364974D01*
X63688389Y-86469568D01*
X63696794Y-86472446D01*
X63956083Y-86541194D01*
X63964804Y-86542858D01*
X64231198Y-86574388D01*
X64240063Y-86574806D01*
X64508228Y-86568486D01*
X64517088Y-86567649D01*
X64781674Y-86523610D01*
X64790331Y-86521531D01*
X64892422Y-86489244D01*
X64963403Y-86487774D01*
X65023912Y-86524913D01*
X65054735Y-86588869D01*
X65046089Y-86659337D01*
X65019511Y-86698474D01*
X64851046Y-86866939D01*
X64788734Y-86900965D01*
X64733501Y-86900590D01*
X64639396Y-86878778D01*
X64639390Y-86878777D01*
X64635054Y-86877772D01*
X64358867Y-86853852D01*
X64354432Y-86854096D01*
X64354428Y-86854096D01*
X64241985Y-86860284D01*
X64082065Y-86869085D01*
X63810171Y-86923169D01*
X63688495Y-86965898D01*
X63552816Y-87013544D01*
X63552808Y-87013547D01*
X63548609Y-87015022D01*
X63544656Y-87017075D01*
X63544650Y-87017078D01*
X63405754Y-87089229D01*
X63302600Y-87142814D01*
X63298985Y-87145397D01*
X63298979Y-87145401D01*
X63156474Y-87247237D01*
X63077051Y-87303994D01*
X62876462Y-87495346D01*
X62704836Y-87713052D01*
X62702599Y-87716904D01*
X62567832Y-87948922D01*
X62567829Y-87948928D01*
X62565598Y-87952769D01*
X62461525Y-88209713D01*
X62460454Y-88214026D01*
X62460452Y-88214031D01*
X62440723Y-88293455D01*
X62394694Y-88478757D01*
X62366438Y-88754534D01*
X62377322Y-89031541D01*
X62427128Y-89304251D01*
X62514862Y-89567223D01*
X62638774Y-89815209D01*
X62796391Y-90043262D01*
X62984568Y-90246832D01*
X62988022Y-90249644D01*
X63196095Y-90419042D01*
X63196099Y-90419045D01*
X63199552Y-90421856D01*
X63437052Y-90564843D01*
X63441147Y-90566577D01*
X63441149Y-90566578D01*
X63654145Y-90656770D01*
X63692329Y-90672939D01*
X63696622Y-90674077D01*
X63696627Y-90674079D01*
X63836402Y-90711139D01*
X63960291Y-90743987D01*
X64235590Y-90776571D01*
X64512734Y-90770040D01*
X64517130Y-90769308D01*
X64517133Y-90769308D01*
X64742787Y-90731749D01*
X64813267Y-90740295D01*
X64852569Y-90766944D01*
X65010458Y-90924833D01*
X65044484Y-90987145D01*
X65039419Y-91057960D01*
X64996872Y-91114796D01*
X64930352Y-91139607D01*
X64892912Y-91136674D01*
X64639313Y-91077893D01*
X64630536Y-91076503D01*
X64363291Y-91053357D01*
X64354420Y-91053217D01*
X64086571Y-91067958D01*
X64077761Y-91069072D01*
X63814675Y-91121402D01*
X63806100Y-91123748D01*
X63553016Y-91212624D01*
X63544849Y-91216158D01*
X63306813Y-91339809D01*
X63299241Y-91344449D01*
X63149310Y-91451590D01*
X63140907Y-91462312D01*
X63147887Y-91475437D01*
X64598155Y-92925705D01*
X64632181Y-92988017D01*
X64627116Y-93058832D01*
X64598155Y-93103895D01*
X63147686Y-94554364D01*
X63140520Y-94567487D01*
X63147910Y-94577789D01*
X63196383Y-94617252D01*
X63203662Y-94622367D01*
X63433460Y-94760717D01*
X63441384Y-94764754D01*
X63688389Y-94869348D01*
X63696794Y-94872226D01*
X63956083Y-94940974D01*
X63964804Y-94942638D01*
X64231198Y-94974168D01*
X64240063Y-94974586D01*
X64508228Y-94968266D01*
X64517088Y-94967429D01*
X64781674Y-94923390D01*
X64790331Y-94921311D01*
X64892423Y-94889024D01*
X64963405Y-94887554D01*
X65023913Y-94924693D01*
X65054737Y-94988649D01*
X65046090Y-95059117D01*
X65019512Y-95098254D01*
X64851047Y-95266719D01*
X64788735Y-95300745D01*
X64733502Y-95300370D01*
X64639396Y-95278558D01*
X64639390Y-95278557D01*
X64635054Y-95277552D01*
X64358867Y-95253632D01*
X64354432Y-95253876D01*
X64354428Y-95253876D01*
X64241985Y-95260064D01*
X64082065Y-95268865D01*
X64077702Y-95269733D01*
X64077701Y-95269733D01*
X64040324Y-95277168D01*
X63810171Y-95322949D01*
X63688495Y-95365678D01*
X63552816Y-95413324D01*
X63552808Y-95413327D01*
X63548609Y-95414802D01*
X63544656Y-95416855D01*
X63544650Y-95416858D01*
X63459089Y-95461304D01*
X63302600Y-95542594D01*
X63298985Y-95545177D01*
X63298979Y-95545181D01*
X63156474Y-95647017D01*
X63077051Y-95703774D01*
X62876462Y-95895126D01*
X62873706Y-95898622D01*
X62873705Y-95898623D01*
X62707592Y-96109336D01*
X62704836Y-96112832D01*
X62702599Y-96116684D01*
X62567832Y-96348702D01*
X62567829Y-96348708D01*
X62565598Y-96352549D01*
X62461525Y-96609493D01*
X62460454Y-96613806D01*
X62460452Y-96613811D01*
X62429593Y-96738044D01*
X62394694Y-96878537D01*
X62366438Y-97154314D01*
X62377322Y-97431321D01*
X62411460Y-97618237D01*
X62413188Y-97627700D01*
X62405750Y-97698306D01*
X62378333Y-97739433D01*
X61052621Y-99065145D01*
X61042478Y-99074247D01*
X61012975Y-99097968D01*
X60990670Y-99124550D01*
X60980709Y-99136421D01*
X60977528Y-99140069D01*
X60975885Y-99141881D01*
X60973691Y-99144075D01*
X60946358Y-99177349D01*
X60945696Y-99178147D01*
X60885846Y-99249474D01*
X60883278Y-99254144D01*
X60879897Y-99258261D01*
X60848860Y-99316145D01*
X60836023Y-99340086D01*
X60835394Y-99341245D01*
X60793538Y-99417381D01*
X60793535Y-99417389D01*
X60790567Y-99422787D01*
X60788955Y-99427869D01*
X60786438Y-99432563D01*
X60759238Y-99521531D01*
X60758918Y-99522559D01*
X60730765Y-99611306D01*
X60730171Y-99616602D01*
X60728613Y-99621698D01*
X60727990Y-99627834D01*
X60719218Y-99714187D01*
X60719089Y-99715393D01*
X60713500Y-99765227D01*
X60713500Y-99768754D01*
X60713445Y-99769739D01*
X60712998Y-99775419D01*
X60708626Y-99818462D01*
X60709206Y-99824593D01*
X60712941Y-99864109D01*
X60713500Y-99875967D01*
X60713500Y-100286763D01*
X60693498Y-100354884D01*
X60639842Y-100401377D01*
X60569568Y-100411481D01*
X60504988Y-100381987D01*
X60486236Y-100360219D01*
X60485570Y-100360711D01*
X60391787Y-100233738D01*
X60380662Y-100225298D01*
X60368066Y-100232124D01*
X59200962Y-101399228D01*
X59193348Y-101413172D01*
X59193479Y-101415005D01*
X59197730Y-101421620D01*
X60369286Y-102593176D01*
X60382686Y-102600493D01*
X60392591Y-102593506D01*
X60413422Y-102568723D01*
X60418642Y-102561538D01*
X60480588Y-102462212D01*
X60533608Y-102414996D01*
X60603738Y-102403940D01*
X60668713Y-102432554D01*
X60707903Y-102491754D01*
X60713500Y-102528889D01*
X60713500Y-104486989D01*
X60693498Y-104555110D01*
X60639842Y-104601603D01*
X60569568Y-104611707D01*
X60504988Y-104582213D01*
X60486753Y-104561040D01*
X60485993Y-104561602D01*
X60323943Y-104342205D01*
X60321290Y-104338613D01*
X60279207Y-104295863D01*
X60129942Y-104144236D01*
X60126811Y-104141055D01*
X60123272Y-104138354D01*
X60123265Y-104138348D01*
X59909976Y-103975572D01*
X59906436Y-103972870D01*
X59902547Y-103970692D01*
X59668453Y-103839593D01*
X59668452Y-103839593D01*
X59664562Y-103837414D01*
X59656563Y-103834320D01*
X59410170Y-103738996D01*
X59410164Y-103738994D01*
X59406015Y-103737389D01*
X59401683Y-103736385D01*
X59401680Y-103736384D01*
X59291345Y-103710810D01*
X59135954Y-103674792D01*
X58859767Y-103650872D01*
X58855332Y-103651116D01*
X58855328Y-103651116D01*
X58742885Y-103657304D01*
X58582965Y-103666105D01*
X58311071Y-103720189D01*
X58189395Y-103762918D01*
X58053716Y-103810564D01*
X58053708Y-103810567D01*
X58049509Y-103812042D01*
X58045556Y-103814095D01*
X58045550Y-103814098D01*
X57996471Y-103839593D01*
X57803500Y-103939834D01*
X57799885Y-103942417D01*
X57799879Y-103942421D01*
X57657374Y-104044257D01*
X57577951Y-104101014D01*
X57574731Y-104104086D01*
X57410254Y-104260989D01*
X57377362Y-104292366D01*
X57205736Y-104510072D01*
X57152571Y-104601603D01*
X57068732Y-104745942D01*
X57068729Y-104745948D01*
X57066498Y-104749789D01*
X57064828Y-104753912D01*
X57005086Y-104901409D01*
X56962425Y-105006733D01*
X56961354Y-105011046D01*
X56961352Y-105011051D01*
X56941858Y-105089530D01*
X56895594Y-105275777D01*
X56867338Y-105551554D01*
X56878222Y-105828561D01*
X56928028Y-106101271D01*
X57015762Y-106364243D01*
X57139674Y-106612229D01*
X57297291Y-106840282D01*
X57300313Y-106843551D01*
X57468848Y-107025872D01*
X57485468Y-107043852D01*
X57488922Y-107046664D01*
X57696995Y-107216062D01*
X57696999Y-107216065D01*
X57700452Y-107218876D01*
X57937952Y-107361863D01*
X57942047Y-107363597D01*
X57942049Y-107363598D01*
X58117640Y-107437951D01*
X58193229Y-107469959D01*
X58197522Y-107471097D01*
X58197527Y-107471099D01*
X58275856Y-107491867D01*
X58461191Y-107541007D01*
X58736490Y-107573591D01*
X59013634Y-107567060D01*
X59170160Y-107541007D01*
X59282703Y-107522275D01*
X59282707Y-107522274D01*
X59287093Y-107521544D01*
X59291334Y-107520203D01*
X59291337Y-107520202D01*
X59388842Y-107489365D01*
X59459824Y-107487895D01*
X59520332Y-107525034D01*
X59551155Y-107588990D01*
X59542509Y-107659458D01*
X59515931Y-107698595D01*
X59351947Y-107862579D01*
X59289635Y-107896605D01*
X59234402Y-107896230D01*
X59140296Y-107874418D01*
X59140290Y-107874417D01*
X59135954Y-107873412D01*
X58859767Y-107849492D01*
X58855332Y-107849736D01*
X58855328Y-107849736D01*
X58742885Y-107855924D01*
X58582965Y-107864725D01*
X58311071Y-107918809D01*
X58189395Y-107961538D01*
X58053716Y-108009184D01*
X58053708Y-108009187D01*
X58049509Y-108010662D01*
X58045556Y-108012715D01*
X58045550Y-108012718D01*
X57996471Y-108038213D01*
X57803500Y-108138454D01*
X57799885Y-108141037D01*
X57799879Y-108141041D01*
X57657374Y-108242877D01*
X57577951Y-108299634D01*
X57377362Y-108490986D01*
X57374606Y-108494482D01*
X57374605Y-108494483D01*
X57348731Y-108527304D01*
X57205736Y-108708692D01*
X57203499Y-108712544D01*
X57068732Y-108944562D01*
X57068729Y-108944568D01*
X57066498Y-108948409D01*
X56962425Y-109205353D01*
X56961354Y-109209666D01*
X56961352Y-109209671D01*
X56930493Y-109333904D01*
X56895594Y-109474397D01*
X56867338Y-109750174D01*
X56878222Y-110027181D01*
X56928028Y-110299891D01*
X57015762Y-110562863D01*
X57139674Y-110810849D01*
X57297291Y-111038902D01*
X57485468Y-111242472D01*
X57488922Y-111245284D01*
X57696995Y-111414682D01*
X57696999Y-111414685D01*
X57700452Y-111417496D01*
X57704274Y-111419797D01*
X57759429Y-111453003D01*
X57807472Y-111505274D01*
X57820440Y-111560949D01*
X57820440Y-112262684D01*
X57800438Y-112330805D01*
X57767699Y-112365198D01*
X57666540Y-112437487D01*
X57581572Y-112498206D01*
X57581569Y-112498209D01*
X57577951Y-112500794D01*
X57538815Y-112538128D01*
X57418984Y-112652441D01*
X57377362Y-112692146D01*
X57205736Y-112909852D01*
X57203499Y-112913704D01*
X57068732Y-113145722D01*
X57068729Y-113145728D01*
X57066498Y-113149569D01*
X56962425Y-113406513D01*
X56961354Y-113410826D01*
X56961352Y-113410831D01*
X56915045Y-113597251D01*
X56895594Y-113675557D01*
X56867338Y-113951334D01*
X56878222Y-114228341D01*
X56928028Y-114501051D01*
X57015762Y-114764023D01*
X57139674Y-115012009D01*
X57297291Y-115240062D01*
X57485468Y-115443632D01*
X57488922Y-115446444D01*
X57696995Y-115615842D01*
X57696999Y-115615845D01*
X57700452Y-115618656D01*
X57704274Y-115620957D01*
X57759429Y-115654163D01*
X57807472Y-115706434D01*
X57820440Y-115762109D01*
X57820440Y-116461304D01*
X57800438Y-116529425D01*
X57767699Y-116563818D01*
X57666540Y-116636107D01*
X57581572Y-116696826D01*
X57581569Y-116696829D01*
X57577951Y-116699414D01*
X57377362Y-116890766D01*
X57205736Y-117108472D01*
X57203499Y-117112324D01*
X57068732Y-117344342D01*
X57068729Y-117344348D01*
X57066498Y-117348189D01*
X56962425Y-117605133D01*
X56961354Y-117609446D01*
X56961352Y-117609451D01*
X56915045Y-117795871D01*
X56895594Y-117874177D01*
X56867338Y-118149954D01*
X53594000Y-118149954D01*
X53594000Y-103378000D01*
X50672000Y-103378000D01*
X50603879Y-103357998D01*
X50557386Y-103304342D01*
X50546000Y-103252000D01*
X50546000Y-102964727D01*
X57641420Y-102964727D01*
X57648810Y-102975029D01*
X57697283Y-103014492D01*
X57704562Y-103019607D01*
X57934360Y-103157957D01*
X57942284Y-103161994D01*
X58189289Y-103266588D01*
X58197694Y-103269466D01*
X58456983Y-103338214D01*
X58465704Y-103339878D01*
X58732098Y-103371408D01*
X58740963Y-103371826D01*
X59009128Y-103365506D01*
X59017988Y-103364669D01*
X59282574Y-103320630D01*
X59291231Y-103318551D01*
X59546980Y-103237669D01*
X59555241Y-103234398D01*
X59797045Y-103118285D01*
X59804770Y-103113879D01*
X60009587Y-102977025D01*
X60017875Y-102967107D01*
X60010618Y-102952928D01*
X58841752Y-101784062D01*
X58827808Y-101776448D01*
X58825975Y-101776579D01*
X58819360Y-101780830D01*
X57648586Y-102951604D01*
X57641420Y-102964727D01*
X50546000Y-102964727D01*
X50546000Y-101354862D01*
X56868014Y-101354862D01*
X56878545Y-101622897D01*
X56879520Y-101631726D01*
X56927713Y-101895607D01*
X56929922Y-101904209D01*
X57014814Y-102158662D01*
X57018218Y-102166880D01*
X57138116Y-102406834D01*
X57142634Y-102414473D01*
X57265019Y-102591551D01*
X57275337Y-102599902D01*
X57288992Y-102592778D01*
X58456918Y-101424852D01*
X58464532Y-101410908D01*
X58464401Y-101409075D01*
X58460150Y-101402460D01*
X57289817Y-100232127D01*
X57276977Y-100225116D01*
X57266285Y-100232913D01*
X57208910Y-100305694D01*
X57203915Y-100313043D01*
X57069179Y-100545008D01*
X57065280Y-100552966D01*
X56964575Y-100801594D01*
X56961826Y-100810056D01*
X56897163Y-101070376D01*
X56895634Y-101079137D01*
X56868293Y-101345979D01*
X56868014Y-101354862D01*
X50546000Y-101354862D01*
X50546000Y-99859552D01*
X57641807Y-99859552D01*
X57648787Y-99872677D01*
X58816128Y-101040018D01*
X58830072Y-101047632D01*
X58831905Y-101047501D01*
X58838520Y-101043250D01*
X60008755Y-99873015D01*
X60015609Y-99860463D01*
X60007402Y-99849393D01*
X59909702Y-99774830D01*
X59902277Y-99769953D01*
X59668238Y-99638885D01*
X59660185Y-99635096D01*
X59410022Y-99538315D01*
X59401532Y-99535703D01*
X59140214Y-99475133D01*
X59131436Y-99473743D01*
X58864191Y-99450597D01*
X58855320Y-99450457D01*
X58587471Y-99465198D01*
X58578661Y-99466312D01*
X58315575Y-99518642D01*
X58307000Y-99520988D01*
X58053916Y-99609864D01*
X58045749Y-99613398D01*
X57807713Y-99737049D01*
X57800141Y-99741689D01*
X57650210Y-99848830D01*
X57641807Y-99859552D01*
X50546000Y-99859552D01*
X50546000Y-98768647D01*
X57641420Y-98768647D01*
X57648810Y-98778949D01*
X57697283Y-98818412D01*
X57704562Y-98823527D01*
X57934360Y-98961877D01*
X57942284Y-98965914D01*
X58189289Y-99070508D01*
X58197694Y-99073386D01*
X58456983Y-99142134D01*
X58465704Y-99143798D01*
X58732098Y-99175328D01*
X58740963Y-99175746D01*
X59009128Y-99169426D01*
X59017988Y-99168589D01*
X59282574Y-99124550D01*
X59291231Y-99122471D01*
X59546980Y-99041589D01*
X59555241Y-99038318D01*
X59797045Y-98922205D01*
X59804770Y-98917799D01*
X60009587Y-98780945D01*
X60017875Y-98771027D01*
X60010618Y-98756848D01*
X58841752Y-97587982D01*
X58827808Y-97580368D01*
X58825975Y-97580499D01*
X58819360Y-97584750D01*
X57648586Y-98755524D01*
X57641420Y-98768647D01*
X50546000Y-98768647D01*
X50546000Y-97158782D01*
X56868014Y-97158782D01*
X56878545Y-97426817D01*
X56879520Y-97435646D01*
X56927713Y-97699527D01*
X56929922Y-97708129D01*
X57014814Y-97962582D01*
X57018218Y-97970800D01*
X57138116Y-98210754D01*
X57142634Y-98218393D01*
X57265019Y-98395471D01*
X57275337Y-98403822D01*
X57288992Y-98396698D01*
X58456918Y-97228772D01*
X58463296Y-97217092D01*
X59193348Y-97217092D01*
X59193479Y-97218925D01*
X59197730Y-97225540D01*
X60369286Y-98397096D01*
X60382686Y-98404413D01*
X60392591Y-98397426D01*
X60413422Y-98372643D01*
X60418642Y-98365458D01*
X60560595Y-98137845D01*
X60564747Y-98130005D01*
X60673215Y-97884654D01*
X60676221Y-97876304D01*
X60749034Y-97618128D01*
X60750835Y-97609435D01*
X60786710Y-97342341D01*
X60787238Y-97335948D01*
X60790908Y-97219182D01*
X60790781Y-97212739D01*
X60771750Y-96943951D01*
X60770497Y-96935148D01*
X60714039Y-96672912D01*
X60711560Y-96664379D01*
X60618717Y-96412717D01*
X60615062Y-96404622D01*
X60487686Y-96168553D01*
X60482924Y-96161048D01*
X60391787Y-96037658D01*
X60380662Y-96029218D01*
X60368066Y-96036044D01*
X59200962Y-97203148D01*
X59193348Y-97217092D01*
X58463296Y-97217092D01*
X58464532Y-97214828D01*
X58464401Y-97212995D01*
X58460150Y-97206380D01*
X57289817Y-96036047D01*
X57276977Y-96029036D01*
X57266285Y-96036833D01*
X57208910Y-96109614D01*
X57203915Y-96116963D01*
X57069179Y-96348928D01*
X57065280Y-96356886D01*
X56964575Y-96605514D01*
X56961826Y-96613976D01*
X56897163Y-96874296D01*
X56895634Y-96883057D01*
X56868293Y-97149899D01*
X56868014Y-97158782D01*
X50546000Y-97158782D01*
X50546000Y-95663472D01*
X57641807Y-95663472D01*
X57648787Y-95676597D01*
X58816128Y-96843938D01*
X58830072Y-96851552D01*
X58831905Y-96851421D01*
X58838520Y-96847170D01*
X60008755Y-95676935D01*
X60015609Y-95664383D01*
X60007402Y-95653313D01*
X59909702Y-95578750D01*
X59902277Y-95573873D01*
X59668238Y-95442805D01*
X59660185Y-95439016D01*
X59410022Y-95342235D01*
X59401532Y-95339623D01*
X59140214Y-95279053D01*
X59131436Y-95277663D01*
X58864191Y-95254517D01*
X58855320Y-95254377D01*
X58587471Y-95269118D01*
X58578661Y-95270232D01*
X58315575Y-95322562D01*
X58307000Y-95324908D01*
X58053916Y-95413784D01*
X58045749Y-95417318D01*
X57807713Y-95540969D01*
X57800141Y-95545609D01*
X57650210Y-95652750D01*
X57641807Y-95663472D01*
X50546000Y-95663472D01*
X50546000Y-94567487D01*
X57641420Y-94567487D01*
X57648810Y-94577789D01*
X57697283Y-94617252D01*
X57704562Y-94622367D01*
X57934360Y-94760717D01*
X57942284Y-94764754D01*
X58189289Y-94869348D01*
X58197694Y-94872226D01*
X58456983Y-94940974D01*
X58465704Y-94942638D01*
X58732098Y-94974168D01*
X58740963Y-94974586D01*
X59009128Y-94968266D01*
X59017988Y-94967429D01*
X59282574Y-94923390D01*
X59291231Y-94921311D01*
X59546980Y-94840429D01*
X59555241Y-94837158D01*
X59797045Y-94721045D01*
X59804770Y-94716639D01*
X60009587Y-94579785D01*
X60017875Y-94569867D01*
X60010618Y-94555688D01*
X58841752Y-93386822D01*
X58827808Y-93379208D01*
X58825975Y-93379339D01*
X58819360Y-93383590D01*
X57648586Y-94554364D01*
X57641420Y-94567487D01*
X50546000Y-94567487D01*
X50546000Y-92957622D01*
X56868014Y-92957622D01*
X56878545Y-93225657D01*
X56879520Y-93234486D01*
X56927713Y-93498367D01*
X56929922Y-93506969D01*
X57014814Y-93761422D01*
X57018218Y-93769640D01*
X57138116Y-94009594D01*
X57142634Y-94017233D01*
X57265019Y-94194311D01*
X57275337Y-94202662D01*
X57288992Y-94195538D01*
X58456918Y-93027612D01*
X58463296Y-93015932D01*
X59193348Y-93015932D01*
X59193479Y-93017765D01*
X59197730Y-93024380D01*
X60369286Y-94195936D01*
X60382686Y-94203253D01*
X60392591Y-94196266D01*
X60413422Y-94171483D01*
X60418642Y-94164298D01*
X60560595Y-93936685D01*
X60564747Y-93928845D01*
X60673215Y-93683494D01*
X60676221Y-93675144D01*
X60749034Y-93416968D01*
X60750835Y-93408275D01*
X60786710Y-93141181D01*
X60787238Y-93134788D01*
X60790908Y-93018022D01*
X60790781Y-93011579D01*
X60786961Y-92957622D01*
X62367114Y-92957622D01*
X62377645Y-93225657D01*
X62378620Y-93234486D01*
X62426813Y-93498367D01*
X62429022Y-93506969D01*
X62513914Y-93761422D01*
X62517318Y-93769640D01*
X62637216Y-94009594D01*
X62641734Y-94017233D01*
X62764119Y-94194311D01*
X62774437Y-94202662D01*
X62788092Y-94195538D01*
X63956018Y-93027612D01*
X63963632Y-93013668D01*
X63963501Y-93011835D01*
X63959250Y-93005220D01*
X62788917Y-91834887D01*
X62776077Y-91827876D01*
X62765385Y-91835673D01*
X62708010Y-91908454D01*
X62703015Y-91915803D01*
X62568279Y-92147768D01*
X62564380Y-92155726D01*
X62463675Y-92404354D01*
X62460926Y-92412816D01*
X62396263Y-92673136D01*
X62394734Y-92681897D01*
X62367393Y-92948739D01*
X62367114Y-92957622D01*
X60786961Y-92957622D01*
X60771750Y-92742791D01*
X60770497Y-92733988D01*
X60714039Y-92471752D01*
X60711560Y-92463219D01*
X60618717Y-92211557D01*
X60615062Y-92203462D01*
X60487686Y-91967393D01*
X60482924Y-91959888D01*
X60391787Y-91836498D01*
X60380662Y-91828058D01*
X60368066Y-91834884D01*
X59200962Y-93001988D01*
X59193348Y-93015932D01*
X58463296Y-93015932D01*
X58464532Y-93013668D01*
X58464401Y-93011835D01*
X58460150Y-93005220D01*
X57289817Y-91834887D01*
X57276977Y-91827876D01*
X57266285Y-91835673D01*
X57208910Y-91908454D01*
X57203915Y-91915803D01*
X57069179Y-92147768D01*
X57065280Y-92155726D01*
X56964575Y-92404354D01*
X56961826Y-92412816D01*
X56897163Y-92673136D01*
X56895634Y-92681897D01*
X56868293Y-92948739D01*
X56868014Y-92957622D01*
X50546000Y-92957622D01*
X50546000Y-91462312D01*
X57641807Y-91462312D01*
X57648787Y-91475437D01*
X58816128Y-92642778D01*
X58830072Y-92650392D01*
X58831905Y-92650261D01*
X58838520Y-92646010D01*
X60008755Y-91475775D01*
X60015609Y-91463223D01*
X60007402Y-91452153D01*
X59909702Y-91377590D01*
X59902277Y-91372713D01*
X59668238Y-91241645D01*
X59660185Y-91237856D01*
X59410022Y-91141075D01*
X59401532Y-91138463D01*
X59140214Y-91077893D01*
X59131436Y-91076503D01*
X58864191Y-91053357D01*
X58855320Y-91053217D01*
X58587471Y-91067958D01*
X58578661Y-91069072D01*
X58315575Y-91121402D01*
X58307000Y-91123748D01*
X58053916Y-91212624D01*
X58045749Y-91216158D01*
X57807713Y-91339809D01*
X57800141Y-91344449D01*
X57650210Y-91451590D01*
X57641807Y-91462312D01*
X50546000Y-91462312D01*
X50546000Y-86167707D01*
X57641420Y-86167707D01*
X57648810Y-86178009D01*
X57697283Y-86217472D01*
X57704562Y-86222587D01*
X57934360Y-86360937D01*
X57942284Y-86364974D01*
X58189289Y-86469568D01*
X58197694Y-86472446D01*
X58456983Y-86541194D01*
X58465704Y-86542858D01*
X58732098Y-86574388D01*
X58740963Y-86574806D01*
X59009128Y-86568486D01*
X59017988Y-86567649D01*
X59282574Y-86523610D01*
X59291231Y-86521531D01*
X59546980Y-86440649D01*
X59555241Y-86437378D01*
X59797045Y-86321265D01*
X59804770Y-86316859D01*
X60009587Y-86180005D01*
X60017875Y-86170087D01*
X60010618Y-86155908D01*
X58841752Y-84987042D01*
X58827808Y-84979428D01*
X58825975Y-84979559D01*
X58819360Y-84983810D01*
X57648586Y-86154584D01*
X57641420Y-86167707D01*
X50546000Y-86167707D01*
X50546000Y-85216000D01*
X50566002Y-85147879D01*
X50619658Y-85101386D01*
X50672000Y-85090000D01*
X53594000Y-85090000D01*
X53594000Y-84557842D01*
X56868014Y-84557842D01*
X56878545Y-84825877D01*
X56879520Y-84834706D01*
X56927713Y-85098587D01*
X56929922Y-85107189D01*
X57014814Y-85361642D01*
X57018218Y-85369860D01*
X57138116Y-85609814D01*
X57142634Y-85617453D01*
X57265019Y-85794531D01*
X57275337Y-85802882D01*
X57288992Y-85795758D01*
X58456918Y-84627832D01*
X58464532Y-84613888D01*
X58464401Y-84612055D01*
X58460150Y-84605440D01*
X57289817Y-83435107D01*
X57276977Y-83428096D01*
X57266285Y-83435893D01*
X57208910Y-83508674D01*
X57203915Y-83516023D01*
X57069179Y-83747988D01*
X57065280Y-83755946D01*
X56964575Y-84004574D01*
X56961826Y-84013036D01*
X56897163Y-84273356D01*
X56895634Y-84282117D01*
X56868293Y-84548959D01*
X56868014Y-84557842D01*
X53594000Y-84557842D01*
X53594000Y-83062532D01*
X57641807Y-83062532D01*
X57648787Y-83075657D01*
X58816128Y-84242998D01*
X58830072Y-84250612D01*
X58831905Y-84250481D01*
X58838520Y-84246230D01*
X60008755Y-83075995D01*
X60015609Y-83063443D01*
X60007402Y-83052373D01*
X59909702Y-82977810D01*
X59902277Y-82972933D01*
X59668238Y-82841865D01*
X59660185Y-82838076D01*
X59410022Y-82741295D01*
X59401532Y-82738683D01*
X59140214Y-82678113D01*
X59131436Y-82676723D01*
X58864191Y-82653577D01*
X58855320Y-82653437D01*
X58587471Y-82668178D01*
X58578661Y-82669292D01*
X58315575Y-82721622D01*
X58307000Y-82723968D01*
X58053916Y-82812844D01*
X58045749Y-82816378D01*
X57807713Y-82940029D01*
X57800141Y-82944669D01*
X57650210Y-83051810D01*
X57641807Y-83062532D01*
X53594000Y-83062532D01*
X53594000Y-74804871D01*
X53614002Y-74736750D01*
X53630905Y-74715776D01*
X60732619Y-67614062D01*
X62524493Y-67614062D01*
X62533789Y-67626077D01*
X62584994Y-67661931D01*
X62594489Y-67667414D01*
X62791947Y-67759490D01*
X62802239Y-67763236D01*
X63012688Y-67819625D01*
X63023481Y-67821528D01*
X63240525Y-67840517D01*
X63251475Y-67840517D01*
X63468519Y-67821528D01*
X63479312Y-67819625D01*
X63689761Y-67763236D01*
X63700053Y-67759490D01*
X63897511Y-67667414D01*
X63907006Y-67661931D01*
X63959048Y-67625491D01*
X63967424Y-67615012D01*
X63960356Y-67601566D01*
X63258812Y-66900022D01*
X63244868Y-66892408D01*
X63243035Y-66892539D01*
X63236420Y-66896790D01*
X62530923Y-67602287D01*
X62524493Y-67614062D01*
X60732619Y-67614062D01*
X61732741Y-66613940D01*
X61795053Y-66579914D01*
X61865868Y-66584979D01*
X61922704Y-66627526D01*
X61947357Y-66692054D01*
X61952472Y-66750520D01*
X61954375Y-66761312D01*
X62010764Y-66971761D01*
X62014510Y-66982053D01*
X62106586Y-67179511D01*
X62112069Y-67189006D01*
X62148509Y-67241048D01*
X62158988Y-67249424D01*
X62172434Y-67242356D01*
X62885658Y-66529132D01*
X63610408Y-66529132D01*
X63610539Y-66530965D01*
X63614790Y-66537580D01*
X64320287Y-67243077D01*
X64332062Y-67249507D01*
X64344077Y-67240211D01*
X64379931Y-67189006D01*
X64385414Y-67179511D01*
X64440455Y-67061475D01*
X65775483Y-67061475D01*
X65794472Y-67278519D01*
X65796375Y-67289312D01*
X65852764Y-67499761D01*
X65856510Y-67510053D01*
X65948586Y-67707511D01*
X65954069Y-67717006D01*
X65990509Y-67769048D01*
X66000988Y-67777424D01*
X66014434Y-67770356D01*
X66715978Y-67068812D01*
X66723592Y-67054868D01*
X66723461Y-67053035D01*
X66719210Y-67046420D01*
X66013713Y-66340923D01*
X66001938Y-66334493D01*
X65989923Y-66343789D01*
X65954069Y-66394994D01*
X65948586Y-66404489D01*
X65856510Y-66601947D01*
X65852764Y-66612239D01*
X65796375Y-66822688D01*
X65794472Y-66833481D01*
X65775483Y-67050525D01*
X65775483Y-67061475D01*
X64440455Y-67061475D01*
X64477490Y-66982053D01*
X64481236Y-66971761D01*
X64537625Y-66761312D01*
X64539528Y-66750519D01*
X64558517Y-66533475D01*
X64558517Y-66522525D01*
X64539528Y-66305481D01*
X64537625Y-66294688D01*
X64481236Y-66084239D01*
X64477490Y-66073947D01*
X64385414Y-65876489D01*
X64379931Y-65866994D01*
X64343491Y-65814952D01*
X64333012Y-65806576D01*
X64319566Y-65813644D01*
X63618022Y-66515188D01*
X63610408Y-66529132D01*
X62885658Y-66529132D01*
X63961077Y-65453713D01*
X63967507Y-65441938D01*
X63958211Y-65429923D01*
X63907002Y-65394066D01*
X63895472Y-65387409D01*
X63846479Y-65336027D01*
X63833042Y-65266313D01*
X63859429Y-65200402D01*
X63895472Y-65169171D01*
X63897765Y-65167847D01*
X63902749Y-65165523D01*
X63982124Y-65109944D01*
X64085789Y-65037357D01*
X64085792Y-65037355D01*
X64090300Y-65034198D01*
X64252198Y-64872300D01*
X64383523Y-64684749D01*
X64385846Y-64679767D01*
X64385849Y-64679762D01*
X64477961Y-64482225D01*
X64477961Y-64482224D01*
X64480284Y-64477243D01*
X64539543Y-64256087D01*
X64559498Y-64028000D01*
X64539543Y-63799913D01*
X64538119Y-63794598D01*
X64481707Y-63584067D01*
X64481706Y-63584065D01*
X64480284Y-63578757D01*
X64459962Y-63535176D01*
X64385849Y-63376238D01*
X64385846Y-63376233D01*
X64383523Y-63371251D01*
X64252198Y-63183700D01*
X64090300Y-63021802D01*
X64058229Y-62999345D01*
X64013901Y-62943890D01*
X64004500Y-62896133D01*
X64004500Y-61666371D01*
X64024502Y-61598250D01*
X64041405Y-61577276D01*
X64658681Y-60960000D01*
X65774502Y-60960000D01*
X65794457Y-61188087D01*
X65795881Y-61193400D01*
X65795881Y-61193402D01*
X65850485Y-61397183D01*
X65853716Y-61409243D01*
X65856039Y-61414224D01*
X65856039Y-61414225D01*
X65948151Y-61611762D01*
X65948154Y-61611767D01*
X65950477Y-61616749D01*
X65953634Y-61621257D01*
X66064211Y-61779177D01*
X66081802Y-61804300D01*
X66243700Y-61966198D01*
X66248208Y-61969355D01*
X66248211Y-61969357D01*
X66289195Y-61998054D01*
X66431251Y-62097523D01*
X66436233Y-62099846D01*
X66436238Y-62099849D01*
X66633775Y-62191961D01*
X66638757Y-62194284D01*
X66644065Y-62195706D01*
X66644067Y-62195707D01*
X66854598Y-62252119D01*
X66854600Y-62252119D01*
X66859913Y-62253543D01*
X67088000Y-62273498D01*
X67316087Y-62253543D01*
X67321400Y-62252119D01*
X67321402Y-62252119D01*
X67531933Y-62195707D01*
X67531935Y-62195706D01*
X67537243Y-62194284D01*
X67542225Y-62191961D01*
X67739762Y-62099849D01*
X67739767Y-62099846D01*
X67744749Y-62097523D01*
X67749262Y-62094363D01*
X67750624Y-62093410D01*
X67751320Y-62093175D01*
X67754019Y-62091617D01*
X67754332Y-62092160D01*
X67817900Y-62070726D01*
X67886759Y-62088015D01*
X67912081Y-62110656D01*
X67913364Y-62109373D01*
X67932276Y-62128285D01*
X68034351Y-62204786D01*
X68049946Y-62213324D01*
X68170394Y-62258478D01*
X68185649Y-62262105D01*
X68236514Y-62267631D01*
X68243328Y-62268000D01*
X68815885Y-62268000D01*
X68831124Y-62263525D01*
X68832329Y-62262135D01*
X68834000Y-62254452D01*
X68834000Y-62249884D01*
X69342000Y-62249884D01*
X69346475Y-62265123D01*
X69347865Y-62266328D01*
X69355548Y-62267999D01*
X69932669Y-62267999D01*
X69939490Y-62267629D01*
X69990352Y-62262105D01*
X70005604Y-62258479D01*
X70126054Y-62213324D01*
X70141649Y-62204786D01*
X70243724Y-62128285D01*
X70256285Y-62115724D01*
X70332786Y-62013649D01*
X70341324Y-61998054D01*
X70386478Y-61877606D01*
X70390105Y-61862351D01*
X70395631Y-61811486D01*
X70396000Y-61804672D01*
X70396000Y-61232115D01*
X70391525Y-61216876D01*
X70390135Y-61215671D01*
X70382452Y-61214000D01*
X69360115Y-61214000D01*
X69344876Y-61218475D01*
X69343671Y-61219865D01*
X69342000Y-61227548D01*
X69342000Y-62249884D01*
X68834000Y-62249884D01*
X68834000Y-60687885D01*
X69342000Y-60687885D01*
X69346475Y-60703124D01*
X69347865Y-60704329D01*
X69355548Y-60706000D01*
X70377884Y-60706000D01*
X70393123Y-60701525D01*
X70394328Y-60700135D01*
X70395999Y-60692452D01*
X70395999Y-60115331D01*
X70395629Y-60108510D01*
X70390105Y-60057648D01*
X70386479Y-60042396D01*
X70341324Y-59921946D01*
X70332786Y-59906351D01*
X70256285Y-59804276D01*
X70243724Y-59791715D01*
X70141649Y-59715214D01*
X70126054Y-59706676D01*
X70005606Y-59661522D01*
X69990351Y-59657895D01*
X69939486Y-59652369D01*
X69932672Y-59652000D01*
X69360115Y-59652000D01*
X69344876Y-59656475D01*
X69343671Y-59657865D01*
X69342000Y-59665548D01*
X69342000Y-60687885D01*
X68834000Y-60687885D01*
X68834000Y-59670116D01*
X68829525Y-59654877D01*
X68828135Y-59653672D01*
X68820452Y-59652001D01*
X68243331Y-59652001D01*
X68236510Y-59652371D01*
X68185648Y-59657895D01*
X68170396Y-59661521D01*
X68049946Y-59706676D01*
X68034351Y-59715214D01*
X67932276Y-59791715D01*
X67913364Y-59810627D01*
X67911106Y-59808369D01*
X67866846Y-59841457D01*
X67796027Y-59846476D01*
X67754160Y-59828139D01*
X67754019Y-59828383D01*
X67751823Y-59827115D01*
X67750624Y-59826590D01*
X67749262Y-59825637D01*
X67744749Y-59822477D01*
X67739767Y-59820154D01*
X67739762Y-59820151D01*
X67542225Y-59728039D01*
X67542224Y-59728039D01*
X67537243Y-59725716D01*
X67531935Y-59724294D01*
X67531933Y-59724293D01*
X67321402Y-59667881D01*
X67321400Y-59667881D01*
X67316087Y-59666457D01*
X67088000Y-59646502D01*
X66859913Y-59666457D01*
X66854600Y-59667881D01*
X66854598Y-59667881D01*
X66644067Y-59724293D01*
X66644065Y-59724294D01*
X66638757Y-59725716D01*
X66633776Y-59728039D01*
X66633775Y-59728039D01*
X66436238Y-59820151D01*
X66436233Y-59820154D01*
X66431251Y-59822477D01*
X66404145Y-59841457D01*
X66248211Y-59950643D01*
X66248208Y-59950645D01*
X66243700Y-59953802D01*
X66081802Y-60115700D01*
X65950477Y-60303251D01*
X65948154Y-60308233D01*
X65948151Y-60308238D01*
X65875297Y-60464476D01*
X65853716Y-60510757D01*
X65852294Y-60516065D01*
X65852293Y-60516067D01*
X65802972Y-60700135D01*
X65794457Y-60731913D01*
X65774502Y-60960000D01*
X64658681Y-60960000D01*
X69830911Y-55787770D01*
X69845323Y-55775384D01*
X69856918Y-55766851D01*
X69856923Y-55766846D01*
X69862818Y-55762508D01*
X69867557Y-55756930D01*
X69867560Y-55756927D01*
X69897035Y-55722232D01*
X69903965Y-55714716D01*
X69909660Y-55709021D01*
X69927281Y-55686749D01*
X69930072Y-55683345D01*
X69972591Y-55633297D01*
X69972592Y-55633295D01*
X69977333Y-55627715D01*
X69980661Y-55621199D01*
X69984028Y-55616150D01*
X69987195Y-55611021D01*
X69991734Y-55605284D01*
X70022655Y-55539125D01*
X70024561Y-55535225D01*
X70057769Y-55470192D01*
X70059508Y-55463083D01*
X70061604Y-55457449D01*
X70063523Y-55451679D01*
X70066622Y-55445050D01*
X70071157Y-55423251D01*
X70081490Y-55373571D01*
X70082461Y-55369282D01*
X70098473Y-55303844D01*
X70099808Y-55298390D01*
X70100500Y-55287236D01*
X70100535Y-55287238D01*
X70100775Y-55283266D01*
X70101152Y-55279045D01*
X70102641Y-55271885D01*
X70100546Y-55194458D01*
X70100500Y-55191050D01*
X70100500Y-54928825D01*
X70120502Y-54860704D01*
X70129979Y-54847834D01*
X70194918Y-54770443D01*
X70194922Y-54770437D01*
X70198881Y-54765719D01*
X70201845Y-54760327D01*
X70201848Y-54760323D01*
X70293556Y-54593506D01*
X70296523Y-54588109D01*
X70357807Y-54394916D01*
X70359401Y-54380713D01*
X70375107Y-54240683D01*
X70375500Y-54237183D01*
X70375500Y-53677996D01*
X70360723Y-53527287D01*
X70302142Y-53333258D01*
X70206990Y-53154302D01*
X70188569Y-53131715D01*
X70142940Y-53075770D01*
X70078890Y-52997237D01*
X70041066Y-52965946D01*
X69927472Y-52871973D01*
X69927469Y-52871971D01*
X69922722Y-52868044D01*
X69744435Y-52771644D01*
X69647627Y-52741677D01*
X69556707Y-52713532D01*
X69556704Y-52713531D01*
X69550820Y-52711710D01*
X69544695Y-52711066D01*
X69544694Y-52711066D01*
X69355378Y-52691168D01*
X69355377Y-52691168D01*
X69349250Y-52690524D01*
X69270709Y-52697672D01*
X69153543Y-52708335D01*
X69153540Y-52708336D01*
X69147404Y-52708894D01*
X69141498Y-52710632D01*
X69141494Y-52710633D01*
X69005442Y-52750676D01*
X68952971Y-52766119D01*
X68947514Y-52768972D01*
X68947511Y-52768973D01*
X68863163Y-52813069D01*
X68773540Y-52859923D01*
X68773538Y-52859923D01*
X68773355Y-52860019D01*
X68773337Y-52859984D01*
X68707559Y-52879889D01*
X68646591Y-52864729D01*
X68637815Y-52859984D01*
X68474435Y-52771644D01*
X68377627Y-52741677D01*
X68286707Y-52713532D01*
X68286704Y-52713531D01*
X68280820Y-52711710D01*
X68274695Y-52711066D01*
X68274694Y-52711066D01*
X68085378Y-52691168D01*
X68085377Y-52691168D01*
X68079250Y-52690524D01*
X68000709Y-52697672D01*
X67883543Y-52708335D01*
X67883540Y-52708336D01*
X67877404Y-52708894D01*
X67871498Y-52710632D01*
X67871494Y-52710633D01*
X67780188Y-52737506D01*
X67682971Y-52766119D01*
X67682771Y-52765441D01*
X67616727Y-52771956D01*
X67579677Y-52758680D01*
X67565063Y-52750679D01*
X67444606Y-52705522D01*
X67429351Y-52701895D01*
X67378486Y-52696369D01*
X67371672Y-52696000D01*
X67074115Y-52696000D01*
X67058876Y-52700475D01*
X67057671Y-52701865D01*
X67056000Y-52709548D01*
X67056000Y-53507758D01*
X67055215Y-53521803D01*
X67038500Y-53670817D01*
X67038500Y-54230004D01*
X67053277Y-54380713D01*
X67053968Y-54383002D01*
X67056000Y-54403724D01*
X67056000Y-55193884D01*
X67060475Y-55209123D01*
X67061865Y-55210328D01*
X67069548Y-55211999D01*
X67371669Y-55211999D01*
X67378490Y-55211629D01*
X67429352Y-55206105D01*
X67444604Y-55202479D01*
X67565056Y-55157323D01*
X67580466Y-55148886D01*
X67649823Y-55133716D01*
X67678235Y-55139040D01*
X67863180Y-55196290D01*
X67869305Y-55196934D01*
X67869306Y-55196934D01*
X67974952Y-55208038D01*
X68040609Y-55235051D01*
X68081238Y-55293273D01*
X68083941Y-55364218D01*
X68050876Y-55422443D01*
X62757089Y-60716230D01*
X62742677Y-60728616D01*
X62731082Y-60737149D01*
X62731077Y-60737154D01*
X62725182Y-60741492D01*
X62720443Y-60747070D01*
X62720440Y-60747073D01*
X62690965Y-60781768D01*
X62684035Y-60789284D01*
X62678340Y-60794979D01*
X62676060Y-60797861D01*
X62660719Y-60817251D01*
X62657928Y-60820655D01*
X62617207Y-60868587D01*
X62610667Y-60876285D01*
X62607339Y-60882801D01*
X62603972Y-60887850D01*
X62600805Y-60892979D01*
X62596266Y-60898716D01*
X62565345Y-60964875D01*
X62563442Y-60968769D01*
X62530231Y-61033808D01*
X62528492Y-61040916D01*
X62526393Y-61046559D01*
X62524476Y-61052322D01*
X62521378Y-61058950D01*
X62519888Y-61066112D01*
X62519888Y-61066113D01*
X62506514Y-61130412D01*
X62505544Y-61134696D01*
X62488192Y-61205610D01*
X62487500Y-61216764D01*
X62487464Y-61216762D01*
X62487225Y-61220755D01*
X62486851Y-61224947D01*
X62485360Y-61232115D01*
X62485558Y-61239432D01*
X62487454Y-61309521D01*
X62487500Y-61312928D01*
X62487500Y-62896133D01*
X62467498Y-62964254D01*
X62433772Y-62999345D01*
X62401700Y-63021802D01*
X62239802Y-63183700D01*
X62108477Y-63371251D01*
X62106154Y-63376233D01*
X62106151Y-63376238D01*
X62032038Y-63535176D01*
X62011716Y-63578757D01*
X62010294Y-63584065D01*
X62010293Y-63584067D01*
X61953881Y-63794598D01*
X61952457Y-63799913D01*
X61932502Y-64028000D01*
X61932981Y-64033475D01*
X61946755Y-64190913D01*
X61932766Y-64260518D01*
X61910329Y-64290990D01*
X57696596Y-68504723D01*
X57634284Y-68538749D01*
X57563469Y-68533684D01*
X57506633Y-68491137D01*
X57481822Y-68424617D01*
X57481889Y-68405742D01*
X57487777Y-68330930D01*
X57488165Y-68326000D01*
X57469535Y-68089289D01*
X57468079Y-68083221D01*
X57425183Y-67904551D01*
X57414105Y-67858406D01*
X57412211Y-67853833D01*
X57325135Y-67643611D01*
X57325133Y-67643607D01*
X57323240Y-67639037D01*
X57314192Y-67624272D01*
X57201759Y-67440798D01*
X57201755Y-67440792D01*
X57199176Y-67436584D01*
X57044969Y-67256031D01*
X57041213Y-67252823D01*
X57041208Y-67252818D01*
X56888384Y-67122294D01*
X56849574Y-67062844D01*
X56847360Y-67028442D01*
X56839123Y-67009333D01*
X55987812Y-66158022D01*
X55973868Y-66150408D01*
X55972035Y-66150539D01*
X55965420Y-66154790D01*
X55113920Y-67006290D01*
X55104740Y-67023102D01*
X55090980Y-67086350D01*
X55062224Y-67121775D01*
X55034920Y-67145095D01*
X54905031Y-67256031D01*
X54750824Y-67436584D01*
X54748245Y-67440792D01*
X54748241Y-67440798D01*
X54635808Y-67624272D01*
X54626760Y-67639037D01*
X54624867Y-67643607D01*
X54624865Y-67643611D01*
X54537789Y-67853833D01*
X54535895Y-67858406D01*
X54524817Y-67904551D01*
X54481922Y-68083221D01*
X54480465Y-68089289D01*
X54461835Y-68326000D01*
X54480465Y-68562711D01*
X54481619Y-68567518D01*
X54481620Y-68567524D01*
X54498911Y-68639546D01*
X54535895Y-68793594D01*
X54537788Y-68798165D01*
X54537789Y-68798167D01*
X54624786Y-69008197D01*
X54626760Y-69012963D01*
X54629346Y-69017183D01*
X54748241Y-69211202D01*
X54748245Y-69211208D01*
X54750824Y-69215416D01*
X54830025Y-69308148D01*
X54892813Y-69381663D01*
X54905031Y-69395969D01*
X55085584Y-69550176D01*
X55089792Y-69552755D01*
X55089798Y-69552759D01*
X55254672Y-69653794D01*
X55288037Y-69674240D01*
X55292607Y-69676133D01*
X55292611Y-69676135D01*
X55502833Y-69763211D01*
X55507406Y-69765105D01*
X55587609Y-69784360D01*
X55733476Y-69819380D01*
X55733482Y-69819381D01*
X55738289Y-69820535D01*
X55975000Y-69839165D01*
X56054742Y-69832889D01*
X56124222Y-69847485D01*
X56174781Y-69897327D01*
X56190368Y-69966592D01*
X56166033Y-70033288D01*
X56153723Y-70047596D01*
X53809095Y-72392224D01*
X53746783Y-72426250D01*
X53675968Y-72421185D01*
X53619132Y-72378638D01*
X53594321Y-72312118D01*
X53594000Y-72303129D01*
X53594000Y-67437000D01*
X50799000Y-67437000D01*
X50730879Y-67416998D01*
X50684386Y-67363342D01*
X50673000Y-67311000D01*
X50673000Y-65790930D01*
X54462725Y-65790930D01*
X54480572Y-66017699D01*
X54482115Y-66027446D01*
X54535217Y-66248627D01*
X54538266Y-66258012D01*
X54625313Y-66468163D01*
X54629795Y-66476958D01*
X54732432Y-66644445D01*
X54742890Y-66653907D01*
X54751666Y-66650124D01*
X55602978Y-65798812D01*
X55609356Y-65787132D01*
X56339408Y-65787132D01*
X56339539Y-65788965D01*
X56343790Y-65795580D01*
X57195290Y-66647080D01*
X57207670Y-66653840D01*
X57215320Y-66648113D01*
X57320205Y-66476958D01*
X57324687Y-66468163D01*
X57411734Y-66258012D01*
X57414783Y-66248627D01*
X57467885Y-66027446D01*
X57469428Y-66017699D01*
X57487275Y-65790930D01*
X57487275Y-65781070D01*
X57469428Y-65554301D01*
X57467885Y-65544554D01*
X57414783Y-65323373D01*
X57411734Y-65313988D01*
X57324687Y-65103837D01*
X57320205Y-65095042D01*
X57217568Y-64927555D01*
X57207110Y-64918093D01*
X57198334Y-64921876D01*
X56347022Y-65773188D01*
X56339408Y-65787132D01*
X55609356Y-65787132D01*
X55610592Y-65784868D01*
X55610461Y-65783035D01*
X55606210Y-65776420D01*
X54754710Y-64924920D01*
X54742330Y-64918160D01*
X54734680Y-64923887D01*
X54629795Y-65095042D01*
X54625313Y-65103837D01*
X54538266Y-65313988D01*
X54535217Y-65323373D01*
X54482115Y-65544554D01*
X54480572Y-65554301D01*
X54462725Y-65781070D01*
X54462725Y-65790930D01*
X50673000Y-65790930D01*
X50673000Y-65150000D01*
X50693002Y-65081879D01*
X50746658Y-65035386D01*
X50799000Y-65024000D01*
X53594000Y-65024000D01*
X53594000Y-64553890D01*
X55107093Y-64553890D01*
X55110876Y-64562666D01*
X55962188Y-65413978D01*
X55976132Y-65421592D01*
X55977965Y-65421461D01*
X55984580Y-65417210D01*
X56836080Y-64565710D01*
X56842840Y-64553330D01*
X56837113Y-64545680D01*
X56665958Y-64440795D01*
X56657163Y-64436313D01*
X56447012Y-64349266D01*
X56437627Y-64346217D01*
X56216446Y-64293115D01*
X56206699Y-64291572D01*
X55979930Y-64273725D01*
X55970070Y-64273725D01*
X55743301Y-64291572D01*
X55733554Y-64293115D01*
X55512373Y-64346217D01*
X55502988Y-64349266D01*
X55292837Y-64436313D01*
X55284042Y-64440795D01*
X55116555Y-64543432D01*
X55107093Y-64553890D01*
X53594000Y-64553890D01*
X53594000Y-60706000D01*
X54461835Y-60706000D01*
X54480465Y-60942711D01*
X54481619Y-60947518D01*
X54481620Y-60947524D01*
X54507159Y-61053900D01*
X54535895Y-61173594D01*
X54537788Y-61178165D01*
X54537789Y-61178167D01*
X54593609Y-61312928D01*
X54626760Y-61392963D01*
X54629346Y-61397183D01*
X54748241Y-61591202D01*
X54748245Y-61591208D01*
X54750824Y-61595416D01*
X54905031Y-61775969D01*
X55085584Y-61930176D01*
X55089792Y-61932755D01*
X55089798Y-61932759D01*
X55283817Y-62051654D01*
X55288037Y-62054240D01*
X55292607Y-62056133D01*
X55292611Y-62056135D01*
X55502833Y-62143211D01*
X55507406Y-62145105D01*
X55587609Y-62164360D01*
X55733476Y-62199380D01*
X55733482Y-62199381D01*
X55738289Y-62200535D01*
X55975000Y-62219165D01*
X56211711Y-62200535D01*
X56216518Y-62199381D01*
X56216524Y-62199380D01*
X56362391Y-62164360D01*
X56442594Y-62145105D01*
X56447167Y-62143211D01*
X56657389Y-62056135D01*
X56657393Y-62056133D01*
X56661963Y-62054240D01*
X56666183Y-62051654D01*
X56860202Y-61932759D01*
X56860208Y-61932755D01*
X56864416Y-61930176D01*
X57044969Y-61775969D01*
X57199176Y-61595416D01*
X57201755Y-61591208D01*
X57201759Y-61591202D01*
X57320654Y-61397183D01*
X57323240Y-61392963D01*
X57356392Y-61312928D01*
X57412211Y-61178167D01*
X57412212Y-61178165D01*
X57414105Y-61173594D01*
X57442841Y-61053900D01*
X57468380Y-60947524D01*
X57468381Y-60947518D01*
X57469535Y-60942711D01*
X57488165Y-60706000D01*
X57469535Y-60469289D01*
X57414105Y-60238406D01*
X57412211Y-60233833D01*
X57325135Y-60023611D01*
X57325133Y-60023607D01*
X57323240Y-60019037D01*
X57281328Y-59950643D01*
X57201759Y-59820798D01*
X57201755Y-59820792D01*
X57199176Y-59816584D01*
X57044969Y-59636031D01*
X57041213Y-59632823D01*
X57041208Y-59632818D01*
X56888384Y-59502294D01*
X56849574Y-59442844D01*
X56847360Y-59408442D01*
X56839123Y-59389333D01*
X55987812Y-58538022D01*
X55973868Y-58530408D01*
X55972035Y-58530539D01*
X55965420Y-58534790D01*
X55113920Y-59386290D01*
X55104740Y-59403102D01*
X55090980Y-59466350D01*
X55062224Y-59501775D01*
X54908793Y-59632818D01*
X54905031Y-59636031D01*
X54750824Y-59816584D01*
X54748245Y-59820792D01*
X54748241Y-59820798D01*
X54668672Y-59950643D01*
X54626760Y-60019037D01*
X54624867Y-60023607D01*
X54624865Y-60023611D01*
X54537789Y-60233833D01*
X54535895Y-60238406D01*
X54480465Y-60469289D01*
X54461835Y-60706000D01*
X53594000Y-60706000D01*
X53594000Y-59436000D01*
X50799000Y-59436000D01*
X50730879Y-59415998D01*
X50684386Y-59362342D01*
X50673000Y-59310000D01*
X50673000Y-58170930D01*
X54462725Y-58170930D01*
X54480572Y-58397699D01*
X54482115Y-58407446D01*
X54535217Y-58628627D01*
X54538266Y-58638012D01*
X54625313Y-58848163D01*
X54629795Y-58856958D01*
X54732432Y-59024445D01*
X54742890Y-59033907D01*
X54751666Y-59030124D01*
X55602978Y-58178812D01*
X55609356Y-58167132D01*
X56339408Y-58167132D01*
X56339539Y-58168965D01*
X56343790Y-58175580D01*
X57195290Y-59027080D01*
X57207670Y-59033840D01*
X57215320Y-59028113D01*
X57320205Y-58856958D01*
X57324687Y-58848163D01*
X57411734Y-58638012D01*
X57414783Y-58628627D01*
X57467885Y-58407446D01*
X57469428Y-58397699D01*
X57487275Y-58170930D01*
X57487275Y-58161070D01*
X57469428Y-57934301D01*
X57467885Y-57924554D01*
X57414783Y-57703373D01*
X57411734Y-57693988D01*
X57324687Y-57483837D01*
X57320205Y-57475042D01*
X57217568Y-57307555D01*
X57207110Y-57298093D01*
X57198334Y-57301876D01*
X56347022Y-58153188D01*
X56339408Y-58167132D01*
X55609356Y-58167132D01*
X55610592Y-58164868D01*
X55610461Y-58163035D01*
X55606210Y-58156420D01*
X54754710Y-57304920D01*
X54742330Y-57298160D01*
X54734680Y-57303887D01*
X54629795Y-57475042D01*
X54625313Y-57483837D01*
X54538266Y-57693988D01*
X54535217Y-57703373D01*
X54482115Y-57924554D01*
X54480572Y-57934301D01*
X54462725Y-58161070D01*
X54462725Y-58170930D01*
X50673000Y-58170930D01*
X50673000Y-57149000D01*
X50693002Y-57080879D01*
X50746658Y-57034386D01*
X50799000Y-57023000D01*
X53594000Y-57023000D01*
X53594000Y-55626000D01*
X54461835Y-55626000D01*
X54480465Y-55862711D01*
X54481619Y-55867518D01*
X54481620Y-55867524D01*
X54512484Y-55996082D01*
X54535895Y-56093594D01*
X54537788Y-56098165D01*
X54537789Y-56098167D01*
X54621051Y-56299179D01*
X54626760Y-56312963D01*
X54629346Y-56317183D01*
X54748241Y-56511202D01*
X54748245Y-56511208D01*
X54750824Y-56515416D01*
X54905031Y-56695969D01*
X54908787Y-56699177D01*
X54908792Y-56699182D01*
X55061616Y-56829706D01*
X55100426Y-56889156D01*
X55102640Y-56923558D01*
X55110877Y-56942667D01*
X55962188Y-57793978D01*
X55976132Y-57801592D01*
X55977965Y-57801461D01*
X55984580Y-57797210D01*
X56836080Y-56945710D01*
X56845260Y-56928898D01*
X56859020Y-56865650D01*
X56887776Y-56830225D01*
X57041213Y-56699177D01*
X57044969Y-56695969D01*
X57199176Y-56515416D01*
X57201755Y-56511208D01*
X57201759Y-56511202D01*
X57320654Y-56317183D01*
X57323240Y-56312963D01*
X57328950Y-56299179D01*
X57412211Y-56098167D01*
X57412212Y-56098165D01*
X57414105Y-56093594D01*
X57437516Y-55996082D01*
X57468380Y-55867524D01*
X57468381Y-55867518D01*
X57469535Y-55862711D01*
X57488165Y-55626000D01*
X57469535Y-55389289D01*
X57466458Y-55376470D01*
X57426972Y-55212000D01*
X57414105Y-55158406D01*
X57410120Y-55148786D01*
X57325135Y-54943611D01*
X57325133Y-54943607D01*
X57323240Y-54939037D01*
X57275237Y-54860704D01*
X57206582Y-54748669D01*
X65769001Y-54748669D01*
X65769371Y-54755490D01*
X65774895Y-54806352D01*
X65778521Y-54821604D01*
X65823676Y-54942054D01*
X65832214Y-54957649D01*
X65908715Y-55059724D01*
X65921276Y-55072285D01*
X66023351Y-55148786D01*
X66038946Y-55157324D01*
X66159394Y-55202478D01*
X66174649Y-55206105D01*
X66225514Y-55211631D01*
X66232328Y-55212000D01*
X66529885Y-55212000D01*
X66545124Y-55207525D01*
X66546329Y-55206135D01*
X66548000Y-55198452D01*
X66548000Y-54226115D01*
X66543525Y-54210876D01*
X66542135Y-54209671D01*
X66534452Y-54208000D01*
X65787116Y-54208000D01*
X65771877Y-54212475D01*
X65770672Y-54213865D01*
X65769001Y-54221548D01*
X65769001Y-54748669D01*
X57206582Y-54748669D01*
X57201759Y-54740798D01*
X57201755Y-54740792D01*
X57199176Y-54736584D01*
X57044969Y-54556031D01*
X56864416Y-54401824D01*
X56860208Y-54399245D01*
X56860202Y-54399241D01*
X56666183Y-54280346D01*
X56661963Y-54277760D01*
X56657393Y-54275867D01*
X56657389Y-54275865D01*
X56447167Y-54188789D01*
X56447165Y-54188788D01*
X56442594Y-54186895D01*
X56362391Y-54167640D01*
X56216524Y-54132620D01*
X56216518Y-54132619D01*
X56211711Y-54131465D01*
X55975000Y-54112835D01*
X55738289Y-54131465D01*
X55733482Y-54132619D01*
X55733476Y-54132620D01*
X55587609Y-54167640D01*
X55507406Y-54186895D01*
X55502835Y-54188788D01*
X55502833Y-54188789D01*
X55292611Y-54275865D01*
X55292607Y-54275867D01*
X55288037Y-54277760D01*
X55283817Y-54280346D01*
X55089798Y-54399241D01*
X55089792Y-54399245D01*
X55085584Y-54401824D01*
X54905031Y-54556031D01*
X54750824Y-54736584D01*
X54748245Y-54740792D01*
X54748241Y-54740798D01*
X54674763Y-54860704D01*
X54626760Y-54939037D01*
X54624867Y-54943607D01*
X54624865Y-54943611D01*
X54539880Y-55148786D01*
X54535895Y-55158406D01*
X54523028Y-55212000D01*
X54483543Y-55376470D01*
X54480465Y-55389289D01*
X54461835Y-55626000D01*
X53594000Y-55626000D01*
X53594000Y-53681885D01*
X65769000Y-53681885D01*
X65773475Y-53697124D01*
X65774865Y-53698329D01*
X65782548Y-53700000D01*
X66529885Y-53700000D01*
X66545124Y-53695525D01*
X66546329Y-53694135D01*
X66548000Y-53686452D01*
X66548000Y-52714116D01*
X66543525Y-52698877D01*
X66542135Y-52697672D01*
X66534452Y-52696001D01*
X66232331Y-52696001D01*
X66225510Y-52696371D01*
X66174648Y-52701895D01*
X66159396Y-52705521D01*
X66038946Y-52750676D01*
X66023351Y-52759214D01*
X65921276Y-52835715D01*
X65908715Y-52848276D01*
X65832214Y-52950351D01*
X65823676Y-52965946D01*
X65778522Y-53086394D01*
X65774895Y-53101649D01*
X65769369Y-53152514D01*
X65769000Y-53159328D01*
X65769000Y-53681885D01*
X53594000Y-53681885D01*
X53594000Y-51367282D01*
X53614002Y-51299161D01*
X53667658Y-51252668D01*
X53719991Y-51241282D01*
X77927778Y-51239520D01*
X77995900Y-51259517D01*
G37*
%TD.AperFunction*%
%TD*%
M02*
