M48
; DRILL file {KiCad (6.0.8-1)-1} date Sunday, October 30, 2022 at 10:05:08 PM
; FORMAT={-:-/ absolute / inch / decimal}
; #@! TF.CreationDate,2022-10-30T22:05:08-05:00
; #@! TF.GenerationSoftware,Kicad,Pcbnew,(6.0.8-1)-1
; #@! TF.FileFunction,MixedPlating,1,2
FMAT,2
INCH
; #@! TA.AperFunction,Plated,PTH,ViaDrill
T1C0.0157
; #@! TA.AperFunction,Plated,PTH,ComponentDrill
T2C0.0300
; #@! TA.AperFunction,Plated,PTH,ComponentDrill
T3C0.0315
; #@! TA.AperFunction,Plated,PTH,ComponentDrill
T4C0.0400
; #@! TA.AperFunction,Plated,PTH,ComponentDrill
T5C0.0433
; #@! TA.AperFunction,Plated,PTH,ComponentDrill
T6C0.0472
; #@! TA.AperFunction,Plated,PTH,ComponentDrill
T7C0.0708
; #@! TA.AperFunction,NonPlated,NPTH,ComponentDrill
T8C0.1181
%
G90
G05
T1
X2.06Y-2.7
X2.18Y-2.56
X2.42Y-2.14
T2
X1.9658Y-2.1352
X1.9658Y-2.2926
X1.9658Y-2.4501
X1.9658Y-2.6076
X1.9658Y-2.7651
X1.9658Y-2.9226
X1.9658Y-3.08
X1.9658Y-3.2375
X1.9658Y-3.395
X1.9658Y-3.5525
X1.9658Y-3.71
X1.9658Y-3.8674
X1.9658Y-4.0249
X1.9658Y-4.1824
X1.9658Y-4.3399
X1.9658Y-4.4974
X1.9658Y-4.6548
X1.9658Y-4.8123
T3
X2.1773Y-1.94
X2.2704Y-2.2504
X2.2704Y-2.3504
X2.2704Y-2.4504
X2.2704Y-2.5504
X2.3151Y-1.94
X2.5273Y-1.94
X2.5704Y-2.2504
X2.5704Y-2.3504
X2.5704Y-2.4504
X2.5704Y-2.5504
X2.6651Y-1.94
X2.73Y-2.2708
X2.73Y-2.3692
X2.9Y-1.8
X2.9Y-2.1
X3.03Y-1.8
X3.03Y-2.1
T4
X3.0Y-2.83
X3.0Y-2.93
T5
X2.23Y-2.82
X2.23Y-2.96
X2.63Y-2.82
X2.63Y-2.96
T6
X2.96Y-2.32
X2.96Y-2.62
T7
X2.3161Y-3.1606
X2.3161Y-3.326
X2.3161Y-3.4913
X2.3161Y-3.6567
X2.3161Y-3.822
X2.3161Y-3.9874
X2.3161Y-4.1526
X2.3161Y-4.318
X2.3161Y-4.4833
X2.3161Y-4.6487
X2.3161Y-4.814
X2.3161Y-4.9794
X2.5326Y-3.1606
X2.5326Y-3.326
X2.5326Y-3.4913
X2.5326Y-3.6567
X2.5326Y-3.822
X2.5326Y-3.9874
X2.5326Y-4.1526
X2.5326Y-4.318
X2.5326Y-4.4833
X2.5326Y-4.6487
X2.5326Y-4.814
X2.5326Y-4.9794
T8
X2.82Y-3.1606
X2.82Y-4.9794
T0
M30
