%TF.GenerationSoftware,KiCad,Pcbnew,(6.0.8-1)-1*%
%TF.CreationDate,2022-10-30T22:05:06-05:00*%
%TF.ProjectId,VT100_ATX_DCDC,56543130-305f-4415-9458-5f444344432e,rev?*%
%TF.SameCoordinates,Original*%
%TF.FileFunction,Soldermask,Bot*%
%TF.FilePolarity,Negative*%
%FSLAX46Y46*%
G04 Gerber Fmt 4.6, Leading zero omitted, Abs format (unit mm)*
G04 Created by KiCad (PCBNEW (6.0.8-1)-1) date 2022-10-30 22:05:06*
%MOMM*%
%LPD*%
G01*
G04 APERTURE LIST*
G04 Aperture macros list*
%AMRoundRect*
0 Rectangle with rounded corners*
0 $1 Rounding radius*
0 $2 $3 $4 $5 $6 $7 $8 $9 X,Y pos of 4 corners*
0 Add a 4 corners polygon primitive as box body*
4,1,4,$2,$3,$4,$5,$6,$7,$8,$9,$2,$3,0*
0 Add four circle primitives for the rounded corners*
1,1,$1+$1,$2,$3*
1,1,$1+$1,$4,$5*
1,1,$1+$1,$6,$7*
1,1,$1+$1,$8,$9*
0 Add four rect primitives between the rounded corners*
20,1,$1+$1,$2,$3,$4,$5,0*
20,1,$1+$1,$4,$5,$6,$7,0*
20,1,$1+$1,$6,$7,$8,$9,0*
20,1,$1+$1,$8,$9,$2,$3,0*%
G04 Aperture macros list end*
%ADD10C,0.175000*%
%ADD11C,0.375000*%
%ADD12C,0.120000*%
%ADD13C,2.082800*%
%ADD14R,1.600000X1.600000*%
%ADD15O,1.600000X1.600000*%
%ADD16C,1.600000*%
%ADD17R,2.200000X2.200000*%
%ADD18O,2.200000X2.200000*%
%ADD19RoundRect,0.120000X4.980000X1.080000X-4.980000X1.080000X-4.980000X-1.080000X4.980000X-1.080000X0*%
%ADD20O,2.400000X2.400000*%
%ADD21C,2.400000*%
%ADD22C,3.101340*%
%ADD23C,3.202940*%
%ADD24R,1.000000X1.500000*%
G04 APERTURE END LIST*
D10*
X74175166Y-112905583D02*
X73708500Y-112905583D01*
X73775166Y-112905583D02*
X73741833Y-112938916D01*
X73708500Y-113005583D01*
X73708500Y-113105583D01*
X73741833Y-113172250D01*
X73808500Y-113205583D01*
X74175166Y-113205583D01*
X73808500Y-113205583D02*
X73741833Y-113238916D01*
X73708500Y-113305583D01*
X73708500Y-113405583D01*
X73741833Y-113472250D01*
X73808500Y-113505583D01*
X74175166Y-113505583D01*
X74175166Y-114138916D02*
X73808500Y-114138916D01*
X73741833Y-114105583D01*
X73708500Y-114038916D01*
X73708500Y-113905583D01*
X73741833Y-113838916D01*
X74141833Y-114138916D02*
X74175166Y-114072250D01*
X74175166Y-113905583D01*
X74141833Y-113838916D01*
X74075166Y-113805583D01*
X74008500Y-113805583D01*
X73941833Y-113838916D01*
X73908500Y-113905583D01*
X73908500Y-114072250D01*
X73875166Y-114138916D01*
X74175166Y-114772250D02*
X73475166Y-114772250D01*
X74141833Y-114772250D02*
X74175166Y-114705583D01*
X74175166Y-114572250D01*
X74141833Y-114505583D01*
X74108500Y-114472250D01*
X74041833Y-114438916D01*
X73841833Y-114438916D01*
X73775166Y-114472250D01*
X73741833Y-114505583D01*
X73708500Y-114572250D01*
X73708500Y-114705583D01*
X73741833Y-114772250D01*
X74141833Y-115372250D02*
X74175166Y-115305583D01*
X74175166Y-115172250D01*
X74141833Y-115105583D01*
X74075166Y-115072250D01*
X73808500Y-115072250D01*
X73741833Y-115105583D01*
X73708500Y-115172250D01*
X73708500Y-115305583D01*
X73741833Y-115372250D01*
X73808500Y-115405583D01*
X73875166Y-115405583D01*
X73941833Y-115072250D01*
X74175166Y-116238916D02*
X73475166Y-116238916D01*
X73741833Y-116238916D02*
X73708500Y-116305583D01*
X73708500Y-116438916D01*
X73741833Y-116505583D01*
X73775166Y-116538916D01*
X73841833Y-116572250D01*
X74041833Y-116572250D01*
X74108500Y-116538916D01*
X74141833Y-116505583D01*
X74175166Y-116438916D01*
X74175166Y-116305583D01*
X74141833Y-116238916D01*
X73708500Y-116805583D02*
X74175166Y-116972250D01*
X73708500Y-117138916D02*
X74175166Y-116972250D01*
X74341833Y-116905583D01*
X74375166Y-116872250D01*
X74408500Y-116805583D01*
X74175166Y-118238916D02*
X73475166Y-118238916D01*
X74141833Y-118238916D02*
X74175166Y-118172250D01*
X74175166Y-118038916D01*
X74141833Y-117972250D01*
X74108500Y-117938916D01*
X74041833Y-117905583D01*
X73841833Y-117905583D01*
X73775166Y-117938916D01*
X73741833Y-117972250D01*
X73708500Y-118038916D01*
X73708500Y-118172250D01*
X73741833Y-118238916D01*
X74141833Y-118838916D02*
X74175166Y-118772250D01*
X74175166Y-118638916D01*
X74141833Y-118572250D01*
X74075166Y-118538916D01*
X73808500Y-118538916D01*
X73741833Y-118572250D01*
X73708500Y-118638916D01*
X73708500Y-118772250D01*
X73741833Y-118838916D01*
X73808500Y-118872250D01*
X73875166Y-118872250D01*
X73941833Y-118538916D01*
X74175166Y-119172250D02*
X73708500Y-119172250D01*
X73841833Y-119172250D02*
X73775166Y-119205583D01*
X73741833Y-119238916D01*
X73708500Y-119305583D01*
X73708500Y-119372250D01*
X74141833Y-119872250D02*
X74175166Y-119805583D01*
X74175166Y-119672250D01*
X74141833Y-119605583D01*
X74075166Y-119572250D01*
X73808500Y-119572250D01*
X73741833Y-119605583D01*
X73708500Y-119672250D01*
X73708500Y-119805583D01*
X73741833Y-119872250D01*
X73808500Y-119905583D01*
X73875166Y-119905583D01*
X73941833Y-119572250D01*
X74175166Y-120205583D02*
X73475166Y-120205583D01*
X73908500Y-120272250D02*
X74175166Y-120472250D01*
X73708500Y-120472250D02*
X73975166Y-120205583D01*
X74175166Y-121605583D02*
X73808500Y-121605583D01*
X73741833Y-121572250D01*
X73708500Y-121505583D01*
X73708500Y-121372250D01*
X73741833Y-121305583D01*
X74141833Y-121605583D02*
X74175166Y-121538916D01*
X74175166Y-121372250D01*
X74141833Y-121305583D01*
X74075166Y-121272250D01*
X74008500Y-121272250D01*
X73941833Y-121305583D01*
X73908500Y-121372250D01*
X73908500Y-121538916D01*
X73875166Y-121605583D01*
X74175166Y-121938916D02*
X73708500Y-121938916D01*
X73841833Y-121938916D02*
X73775166Y-121972250D01*
X73741833Y-122005583D01*
X73708500Y-122072250D01*
X73708500Y-122138916D01*
X73708500Y-122372250D02*
X74175166Y-122372250D01*
X73775166Y-122372250D02*
X73741833Y-122405583D01*
X73708500Y-122472250D01*
X73708500Y-122572250D01*
X73741833Y-122638916D01*
X73808500Y-122672250D01*
X74175166Y-122672250D01*
X74175166Y-123105583D02*
X74141833Y-123038916D01*
X74108500Y-123005583D01*
X74041833Y-122972250D01*
X73841833Y-122972250D01*
X73775166Y-123005583D01*
X73741833Y-123038916D01*
X73708500Y-123105583D01*
X73708500Y-123205583D01*
X73741833Y-123272250D01*
X73775166Y-123305583D01*
X73841833Y-123338916D01*
X74041833Y-123338916D01*
X74108500Y-123305583D01*
X74141833Y-123272250D01*
X74175166Y-123205583D01*
X74175166Y-123105583D01*
X74175166Y-123738916D02*
X74141833Y-123672250D01*
X74075166Y-123638916D01*
X73475166Y-123638916D01*
X74175166Y-124305583D02*
X73475166Y-124305583D01*
X74141833Y-124305583D02*
X74175166Y-124238916D01*
X74175166Y-124105583D01*
X74141833Y-124038916D01*
X74108500Y-124005583D01*
X74041833Y-123972250D01*
X73841833Y-123972250D01*
X73775166Y-124005583D01*
X73741833Y-124038916D01*
X73708500Y-124105583D01*
X73708500Y-124238916D01*
X73741833Y-124305583D01*
X74175166Y-125172250D02*
X73708500Y-125172250D01*
X73475166Y-125172250D02*
X73508500Y-125138916D01*
X73541833Y-125172250D01*
X73508500Y-125205583D01*
X73475166Y-125172250D01*
X73541833Y-125172250D01*
X73708500Y-125505583D02*
X74175166Y-125505583D01*
X73775166Y-125505583D02*
X73741833Y-125538916D01*
X73708500Y-125605583D01*
X73708500Y-125705583D01*
X73741833Y-125772250D01*
X73808500Y-125805583D01*
X74175166Y-125805583D01*
X73541833Y-126638916D02*
X73508500Y-126672250D01*
X73475166Y-126738916D01*
X73475166Y-126905583D01*
X73508500Y-126972250D01*
X73541833Y-127005583D01*
X73608500Y-127038916D01*
X73675166Y-127038916D01*
X73775166Y-127005583D01*
X74175166Y-126605583D01*
X74175166Y-127038916D01*
X73475166Y-127472250D02*
X73475166Y-127538916D01*
X73508500Y-127605583D01*
X73541833Y-127638916D01*
X73608500Y-127672250D01*
X73741833Y-127705583D01*
X73908500Y-127705583D01*
X74041833Y-127672250D01*
X74108500Y-127638916D01*
X74141833Y-127605583D01*
X74175166Y-127538916D01*
X74175166Y-127472250D01*
X74141833Y-127405583D01*
X74108500Y-127372250D01*
X74041833Y-127338916D01*
X73908500Y-127305583D01*
X73741833Y-127305583D01*
X73608500Y-127338916D01*
X73541833Y-127372250D01*
X73508500Y-127405583D01*
X73475166Y-127472250D01*
X73541833Y-127972250D02*
X73508500Y-128005583D01*
X73475166Y-128072250D01*
X73475166Y-128238916D01*
X73508500Y-128305583D01*
X73541833Y-128338916D01*
X73608500Y-128372250D01*
X73675166Y-128372250D01*
X73775166Y-128338916D01*
X74175166Y-127938916D01*
X74175166Y-128372250D01*
X73541833Y-128638916D02*
X73508500Y-128672250D01*
X73475166Y-128738916D01*
X73475166Y-128905583D01*
X73508500Y-128972250D01*
X73541833Y-129005583D01*
X73608500Y-129038916D01*
X73675166Y-129038916D01*
X73775166Y-129005583D01*
X74175166Y-128605583D01*
X74175166Y-129038916D01*
X75302166Y-118505583D02*
X74602166Y-118505583D01*
X75302166Y-118805583D02*
X74935500Y-118805583D01*
X74868833Y-118772250D01*
X74835500Y-118705583D01*
X74835500Y-118605583D01*
X74868833Y-118538916D01*
X74902166Y-118505583D01*
X74835500Y-119038916D02*
X74835500Y-119305583D01*
X74602166Y-119138916D02*
X75202166Y-119138916D01*
X75268833Y-119172250D01*
X75302166Y-119238916D01*
X75302166Y-119305583D01*
X74835500Y-119438916D02*
X74835500Y-119705583D01*
X74602166Y-119538916D02*
X75202166Y-119538916D01*
X75268833Y-119572250D01*
X75302166Y-119638916D01*
X75302166Y-119705583D01*
X74835500Y-119938916D02*
X75535500Y-119938916D01*
X74868833Y-119938916D02*
X74835500Y-120005583D01*
X74835500Y-120138916D01*
X74868833Y-120205583D01*
X74902166Y-120238916D01*
X74968833Y-120272250D01*
X75168833Y-120272250D01*
X75235500Y-120238916D01*
X75268833Y-120205583D01*
X75302166Y-120138916D01*
X75302166Y-120005583D01*
X75268833Y-119938916D01*
X75268833Y-120538916D02*
X75302166Y-120605583D01*
X75302166Y-120738916D01*
X75268833Y-120805583D01*
X75202166Y-120838916D01*
X75168833Y-120838916D01*
X75102166Y-120805583D01*
X75068833Y-120738916D01*
X75068833Y-120638916D01*
X75035500Y-120572250D01*
X74968833Y-120538916D01*
X74935500Y-120538916D01*
X74868833Y-120572250D01*
X74835500Y-120638916D01*
X74835500Y-120738916D01*
X74868833Y-120805583D01*
X75235500Y-121138916D02*
X75268833Y-121172250D01*
X75302166Y-121138916D01*
X75268833Y-121105583D01*
X75235500Y-121138916D01*
X75302166Y-121138916D01*
X74868833Y-121138916D02*
X74902166Y-121172250D01*
X74935500Y-121138916D01*
X74902166Y-121105583D01*
X74868833Y-121138916D01*
X74935500Y-121138916D01*
X74568833Y-121972250D02*
X75468833Y-121372250D01*
X74568833Y-122705583D02*
X75468833Y-122105583D01*
X74835500Y-122838916D02*
X74835500Y-123105583D01*
X75302166Y-122938916D02*
X74702166Y-122938916D01*
X74635500Y-122972250D01*
X74602166Y-123038916D01*
X74602166Y-123105583D01*
X74835500Y-123638916D02*
X75302166Y-123638916D01*
X74835500Y-123338916D02*
X75202166Y-123338916D01*
X75268833Y-123372250D01*
X75302166Y-123438916D01*
X75302166Y-123538916D01*
X75268833Y-123605583D01*
X75235500Y-123638916D01*
X75302166Y-124072250D02*
X75268833Y-124005583D01*
X75202166Y-123972250D01*
X74602166Y-123972250D01*
X75302166Y-124438916D02*
X75268833Y-124372250D01*
X75202166Y-124338916D01*
X74602166Y-124338916D01*
X75268833Y-124972250D02*
X75302166Y-124905583D01*
X75302166Y-124772250D01*
X75268833Y-124705583D01*
X75202166Y-124672250D01*
X74935500Y-124672250D01*
X74868833Y-124705583D01*
X74835500Y-124772250D01*
X74835500Y-124905583D01*
X74868833Y-124972250D01*
X74935500Y-125005583D01*
X75002166Y-125005583D01*
X75068833Y-124672250D01*
X75302166Y-125305583D02*
X74835500Y-125305583D01*
X74902166Y-125305583D02*
X74868833Y-125338916D01*
X74835500Y-125405583D01*
X74835500Y-125505583D01*
X74868833Y-125572250D01*
X74935500Y-125605583D01*
X75302166Y-125605583D01*
X74935500Y-125605583D02*
X74868833Y-125638916D01*
X74835500Y-125705583D01*
X74835500Y-125805583D01*
X74868833Y-125872250D01*
X74935500Y-125905583D01*
X75302166Y-125905583D01*
X74835500Y-126238916D02*
X75535500Y-126238916D01*
X74868833Y-126238916D02*
X74835500Y-126305583D01*
X74835500Y-126438916D01*
X74868833Y-126505583D01*
X74902166Y-126538916D01*
X74968833Y-126572250D01*
X75168833Y-126572250D01*
X75235500Y-126538916D01*
X75268833Y-126505583D01*
X75302166Y-126438916D01*
X75302166Y-126305583D01*
X75268833Y-126238916D01*
X74835500Y-126772250D02*
X74835500Y-127038916D01*
X74602166Y-126872250D02*
X75202166Y-126872250D01*
X75268833Y-126905583D01*
X75302166Y-126972250D01*
X75302166Y-127038916D01*
X74835500Y-127205583D02*
X75302166Y-127372250D01*
X74835500Y-127538916D02*
X75302166Y-127372250D01*
X75468833Y-127305583D01*
X75502166Y-127272250D01*
X75535500Y-127205583D01*
X75235500Y-127805583D02*
X75268833Y-127838916D01*
X75302166Y-127805583D01*
X75268833Y-127772250D01*
X75235500Y-127805583D01*
X75302166Y-127805583D01*
X75268833Y-128105583D02*
X75302166Y-128172250D01*
X75302166Y-128305583D01*
X75268833Y-128372250D01*
X75202166Y-128405583D01*
X75168833Y-128405583D01*
X75102166Y-128372250D01*
X75068833Y-128305583D01*
X75068833Y-128205583D01*
X75035500Y-128138916D01*
X74968833Y-128105583D01*
X74935500Y-128105583D01*
X74868833Y-128138916D01*
X74835500Y-128205583D01*
X74835500Y-128305583D01*
X74868833Y-128372250D01*
X75302166Y-128705583D02*
X74602166Y-128705583D01*
X75302166Y-129005583D02*
X74935500Y-129005583D01*
X74868833Y-128972250D01*
X74835500Y-128905583D01*
X74835500Y-128805583D01*
X74868833Y-128738916D01*
X74902166Y-128705583D01*
D11*
X76140571Y-99162919D02*
X77640571Y-99475419D01*
X76140571Y-100162919D01*
X76140571Y-100448633D02*
X76140571Y-101305776D01*
X77640571Y-100689705D02*
X76140571Y-100877205D01*
X77640571Y-102403991D02*
X77640571Y-101546848D01*
X77640571Y-101975419D02*
X76140571Y-102162919D01*
X76354857Y-101993276D01*
X76497714Y-101832562D01*
X76569142Y-101680776D01*
X76140571Y-103520062D02*
X76140571Y-103662919D01*
X76212000Y-103796848D01*
X76283428Y-103859348D01*
X76426285Y-103912919D01*
X76712000Y-103948633D01*
X77069142Y-103903991D01*
X77354857Y-103796848D01*
X77497714Y-103707562D01*
X77569142Y-103627205D01*
X77640571Y-103475419D01*
X77640571Y-103332562D01*
X77569142Y-103198633D01*
X77497714Y-103136133D01*
X77354857Y-103082562D01*
X77069142Y-103046848D01*
X76712000Y-103091491D01*
X76426285Y-103198633D01*
X76283428Y-103287919D01*
X76212000Y-103368276D01*
X76140571Y-103520062D01*
X76140571Y-104948633D02*
X76140571Y-105091491D01*
X76212000Y-105225419D01*
X76283428Y-105287919D01*
X76426285Y-105341491D01*
X76712000Y-105377205D01*
X77069142Y-105332562D01*
X77354857Y-105225419D01*
X77497714Y-105136133D01*
X77569142Y-105055776D01*
X77640571Y-104903991D01*
X77640571Y-104761133D01*
X77569142Y-104627205D01*
X77497714Y-104564705D01*
X77354857Y-104511133D01*
X77069142Y-104475419D01*
X76712000Y-104520062D01*
X76426285Y-104627205D01*
X76283428Y-104716491D01*
X76212000Y-104796848D01*
X76140571Y-104948633D01*
X77212000Y-107028991D02*
X77212000Y-107743276D01*
X77640571Y-106832562D02*
X76140571Y-107520062D01*
X77640571Y-107832562D01*
X76140571Y-108305776D02*
X76140571Y-109162919D01*
X77640571Y-108546848D02*
X76140571Y-108734348D01*
X76140571Y-109520062D02*
X77640571Y-110332562D01*
X76140571Y-110520062D02*
X77640571Y-109332562D01*
X77640571Y-112046848D02*
X76140571Y-112234348D01*
X76140571Y-112805776D01*
X76212000Y-112939705D01*
X76283428Y-113002205D01*
X76426285Y-113055776D01*
X76640571Y-113028991D01*
X76783428Y-112939705D01*
X76854857Y-112859348D01*
X76926285Y-112707562D01*
X76926285Y-112136133D01*
X76140571Y-114020062D02*
X76140571Y-114305776D01*
X76212000Y-114439705D01*
X76354857Y-114564705D01*
X76640571Y-114600419D01*
X77140571Y-114537919D01*
X77426285Y-114430776D01*
X77569142Y-114270062D01*
X77640571Y-114118276D01*
X77640571Y-113832562D01*
X77569142Y-113698633D01*
X77426285Y-113573633D01*
X77140571Y-113537919D01*
X76640571Y-113600419D01*
X76354857Y-113707562D01*
X76212000Y-113868276D01*
X76140571Y-114020062D01*
X76140571Y-115162919D02*
X77640571Y-115332562D01*
X76569142Y-115752205D01*
X77640571Y-115903991D01*
X76140571Y-116448633D01*
X76854857Y-116930776D02*
X76854857Y-117430776D01*
X77640571Y-117546848D02*
X77640571Y-116832562D01*
X76140571Y-117020062D01*
X76140571Y-117734348D01*
X77640571Y-119046848D02*
X76926285Y-118636133D01*
X77640571Y-118189705D02*
X76140571Y-118377205D01*
X76140571Y-118948633D01*
X76212000Y-119082562D01*
X76283428Y-119145062D01*
X76426285Y-119198633D01*
X76640571Y-119171848D01*
X76783428Y-119082562D01*
X76854857Y-119002205D01*
X76926285Y-118850419D01*
X76926285Y-118278991D01*
X77569142Y-120770062D02*
X77640571Y-120975419D01*
X77640571Y-121332562D01*
X77569142Y-121484348D01*
X77497714Y-121564705D01*
X77354857Y-121653991D01*
X77212000Y-121671848D01*
X77069142Y-121618276D01*
X76997714Y-121555776D01*
X76926285Y-121421848D01*
X76854857Y-121145062D01*
X76783428Y-121011133D01*
X76712000Y-120948633D01*
X76569142Y-120895062D01*
X76426285Y-120912919D01*
X76283428Y-121002205D01*
X76212000Y-121082562D01*
X76140571Y-121234348D01*
X76140571Y-121591491D01*
X76212000Y-121796848D01*
X76140571Y-122448633D02*
X77354857Y-122296848D01*
X77497714Y-122350419D01*
X77569142Y-122412919D01*
X77640571Y-122546848D01*
X77640571Y-122832562D01*
X77569142Y-122984348D01*
X77497714Y-123064705D01*
X77354857Y-123153991D01*
X76140571Y-123305776D01*
X77640571Y-123832562D02*
X76140571Y-124020062D01*
X76140571Y-124591491D01*
X76212000Y-124725419D01*
X76283428Y-124787919D01*
X76426285Y-124841491D01*
X76640571Y-124814705D01*
X76783428Y-124725419D01*
X76854857Y-124645062D01*
X76926285Y-124493276D01*
X76926285Y-123921848D01*
X77640571Y-125332562D02*
X76140571Y-125520062D01*
X76140571Y-126091491D01*
X76212000Y-126225419D01*
X76283428Y-126287919D01*
X76426285Y-126341491D01*
X76640571Y-126314705D01*
X76783428Y-126225419D01*
X76854857Y-126145062D01*
X76926285Y-125993276D01*
X76926285Y-125421848D01*
X77640571Y-127546848D02*
X77640571Y-126832562D01*
X76140571Y-127020062D01*
X76926285Y-128421848D02*
X77640571Y-128332562D01*
X76140571Y-128020062D02*
X76926285Y-128421848D01*
X76140571Y-129020062D01*
%TO.C,U2*%
G36*
X49231000Y-125733000D02*
G01*
X40481000Y-125733000D01*
X40481000Y-50733000D01*
X49231000Y-50733000D01*
X49231000Y-125733000D01*
G37*
D12*
X49231000Y-125733000D02*
X40481000Y-125733000D01*
X40481000Y-50733000D01*
X49231000Y-50733000D01*
X49231000Y-125733000D01*
%TD*%
D13*
%TO.C,J1*%
X76200000Y-74422000D03*
X76200000Y-71882000D03*
%TD*%
D14*
%TO.C,U1*%
X57668000Y-57160000D03*
D15*
X57668000Y-59700000D03*
X57668000Y-62240000D03*
X57668000Y-64780000D03*
X65288000Y-64780000D03*
X65288000Y-62240000D03*
X65288000Y-59700000D03*
X65288000Y-57160000D03*
%TD*%
D16*
%TO.C,R3*%
X76962000Y-53340000D03*
D15*
X76962000Y-45720000D03*
%TD*%
D16*
%TO.C,R2*%
X73660000Y-45720000D03*
D15*
X73660000Y-53340000D03*
%TD*%
D17*
%TO.C,D2*%
X66802000Y-75184000D03*
D18*
X56642000Y-75184000D03*
%TD*%
%TO.C,D1*%
X66802000Y-71628000D03*
D17*
X56642000Y-71628000D03*
%TD*%
D14*
%TO.C,C3*%
X58802651Y-49276000D03*
D16*
X55302651Y-49276000D03*
%TD*%
D14*
%TO.C,C2*%
X67692651Y-49276000D03*
D16*
X64192651Y-49276000D03*
%TD*%
%TO.C,C1*%
X69342000Y-57678000D03*
X69342000Y-60178000D03*
%TD*%
D19*
%TO.C,U2*%
X45931000Y-54233000D03*
X45931000Y-58233000D03*
X45931000Y-62233000D03*
X45931000Y-66233000D03*
X45931000Y-70233000D03*
X45931000Y-74233000D03*
X45931000Y-78233000D03*
X45931000Y-82233000D03*
X45931000Y-86233000D03*
X45931000Y-90233000D03*
X45931000Y-94233000D03*
X45931000Y-98233000D03*
X45931000Y-102233000D03*
X45931000Y-106233000D03*
X45931000Y-110233000D03*
X45931000Y-114233000D03*
X45931000Y-118233000D03*
X45931000Y-122233000D03*
%TD*%
D20*
%TO.C,R1*%
X75184000Y-66548000D03*
D21*
X75184000Y-58928000D03*
%TD*%
D22*
%TO.C,J2*%
X58828940Y-126476760D03*
X58828940Y-122275600D03*
X58828940Y-118076980D03*
X58828940Y-113875820D03*
X58828940Y-109677200D03*
X58828940Y-105476040D03*
X58828940Y-101279960D03*
X58828940Y-97078800D03*
X58828940Y-92880180D03*
X58828940Y-88679020D03*
X58828940Y-84480400D03*
X58828940Y-80279240D03*
X64328040Y-126476760D03*
X64328040Y-122275600D03*
X64328040Y-118076980D03*
X64328040Y-113875820D03*
X64328040Y-109677200D03*
X64328040Y-105476040D03*
X64328040Y-101279960D03*
X64328040Y-97078800D03*
X64328040Y-92880180D03*
X64328040Y-88679020D03*
X64328040Y-84480400D03*
X64328040Y-80279240D03*
D23*
X71628000Y-126476760D03*
X71628000Y-80279240D03*
%TD*%
D24*
%TO.C,JP1*%
X53340000Y-82296000D03*
X52040000Y-82296000D03*
%TD*%
M02*
