%TF.GenerationSoftware,KiCad,Pcbnew,(6.0.8-1)-1*%
%TF.CreationDate,2022-10-28T23:41:02-05:00*%
%TF.ProjectId,VT105_ATX_DCDC,56543130-355f-4415-9458-5f444344432e,rev?*%
%TF.SameCoordinates,Original*%
%TF.FileFunction,Copper,L2,Bot*%
%TF.FilePolarity,Positive*%
%FSLAX46Y46*%
G04 Gerber Fmt 4.6, Leading zero omitted, Abs format (unit mm)*
G04 Created by KiCad (PCBNEW (6.0.8-1)-1) date 2022-10-28 23:41:02*
%MOMM*%
%LPD*%
G01*
G04 APERTURE LIST*
G04 Aperture macros list*
%AMRoundRect*
0 Rectangle with rounded corners*
0 $1 Rounding radius*
0 $2 $3 $4 $5 $6 $7 $8 $9 X,Y pos of 4 corners*
0 Add a 4 corners polygon primitive as box body*
4,1,4,$2,$3,$4,$5,$6,$7,$8,$9,$2,$3,0*
0 Add four circle primitives for the rounded corners*
1,1,$1+$1,$2,$3*
1,1,$1+$1,$4,$5*
1,1,$1+$1,$6,$7*
1,1,$1+$1,$8,$9*
0 Add four rect primitives between the rounded corners*
20,1,$1+$1,$2,$3,$4,$5,0*
20,1,$1+$1,$4,$5,$6,$7,0*
20,1,$1+$1,$6,$7,$8,$9,0*
20,1,$1+$1,$8,$9,$2,$3,0*%
G04 Aperture macros list end*
%ADD10C,0.200000*%
%TA.AperFunction,NonConductor*%
%ADD11C,0.200000*%
%TD*%
%TA.AperFunction,ComponentPad*%
%ADD12C,1.600000*%
%TD*%
%TA.AperFunction,ComponentPad*%
%ADD13C,2.000000*%
%TD*%
%TA.AperFunction,ComponentPad*%
%ADD14O,4.064000X2.032000*%
%TD*%
%TA.AperFunction,ComponentPad*%
%ADD15RoundRect,0.120000X4.980000X1.080000X-4.980000X1.080000X-4.980000X-1.080000X4.980000X-1.080000X0*%
%TD*%
%TA.AperFunction,ComponentPad*%
%ADD16C,2.400000*%
%TD*%
%TA.AperFunction,ComponentPad*%
%ADD17O,2.400000X2.400000*%
%TD*%
%TA.AperFunction,ComponentPad*%
%ADD18C,2.898140*%
%TD*%
%TA.AperFunction,Conductor*%
%ADD19C,0.500000*%
%TD*%
%TA.AperFunction,Conductor*%
%ADD20C,1.000000*%
%TD*%
G04 APERTURE END LIST*
D10*
D11*
X76648571Y-49886919D02*
X78148571Y-50199419D01*
X76648571Y-50886919D01*
X76648571Y-51172633D02*
X76648571Y-52029776D01*
X78148571Y-51413705D02*
X76648571Y-51601205D01*
X78148571Y-53127991D02*
X78148571Y-52270848D01*
X78148571Y-52699419D02*
X76648571Y-52886919D01*
X76862857Y-52717276D01*
X77005714Y-52556562D01*
X77077142Y-52404776D01*
X76648571Y-54244062D02*
X76648571Y-54386919D01*
X76720000Y-54520848D01*
X76791428Y-54583348D01*
X76934285Y-54636919D01*
X77220000Y-54672633D01*
X77577142Y-54627991D01*
X77862857Y-54520848D01*
X78005714Y-54431562D01*
X78077142Y-54351205D01*
X78148571Y-54199419D01*
X78148571Y-54056562D01*
X78077142Y-53922633D01*
X78005714Y-53860133D01*
X77862857Y-53806562D01*
X77577142Y-53770848D01*
X77220000Y-53815491D01*
X76934285Y-53922633D01*
X76791428Y-54011919D01*
X76720000Y-54092276D01*
X76648571Y-54244062D01*
X76648571Y-55672633D02*
X76648571Y-55815491D01*
X76720000Y-55949419D01*
X76791428Y-56011919D01*
X76934285Y-56065491D01*
X77220000Y-56101205D01*
X77577142Y-56056562D01*
X77862857Y-55949419D01*
X78005714Y-55860133D01*
X78077142Y-55779776D01*
X78148571Y-55627991D01*
X78148571Y-55485133D01*
X78077142Y-55351205D01*
X78005714Y-55288705D01*
X77862857Y-55235133D01*
X77577142Y-55199419D01*
X77220000Y-55244062D01*
X76934285Y-55351205D01*
X76791428Y-55440491D01*
X76720000Y-55520848D01*
X76648571Y-55672633D01*
X77720000Y-57752991D02*
X77720000Y-58467276D01*
X78148571Y-57556562D02*
X76648571Y-58244062D01*
X78148571Y-58556562D01*
X76648571Y-59029776D02*
X76648571Y-59886919D01*
X78148571Y-59270848D02*
X76648571Y-59458348D01*
X76648571Y-60244062D02*
X78148571Y-61056562D01*
X76648571Y-61244062D02*
X78148571Y-60056562D01*
X78148571Y-62770848D02*
X76648571Y-62958348D01*
X76648571Y-63529776D01*
X76720000Y-63663705D01*
X76791428Y-63726205D01*
X76934285Y-63779776D01*
X77148571Y-63752991D01*
X77291428Y-63663705D01*
X77362857Y-63583348D01*
X77434285Y-63431562D01*
X77434285Y-62860133D01*
X76648571Y-64744062D02*
X76648571Y-65029776D01*
X76720000Y-65163705D01*
X76862857Y-65288705D01*
X77148571Y-65324419D01*
X77648571Y-65261919D01*
X77934285Y-65154776D01*
X78077142Y-64994062D01*
X78148571Y-64842276D01*
X78148571Y-64556562D01*
X78077142Y-64422633D01*
X77934285Y-64297633D01*
X77648571Y-64261919D01*
X77148571Y-64324419D01*
X76862857Y-64431562D01*
X76720000Y-64592276D01*
X76648571Y-64744062D01*
X76648571Y-65886919D02*
X78148571Y-66056562D01*
X77077142Y-66476205D01*
X78148571Y-66627991D01*
X76648571Y-67172633D01*
X77362857Y-67654776D02*
X77362857Y-68154776D01*
X78148571Y-68270848D02*
X78148571Y-67556562D01*
X76648571Y-67744062D01*
X76648571Y-68458348D01*
X78148571Y-69770848D02*
X77434285Y-69360133D01*
X78148571Y-68913705D02*
X76648571Y-69101205D01*
X76648571Y-69672633D01*
X76720000Y-69806562D01*
X76791428Y-69869062D01*
X76934285Y-69922633D01*
X77148571Y-69895848D01*
X77291428Y-69806562D01*
X77362857Y-69726205D01*
X77434285Y-69574419D01*
X77434285Y-69002991D01*
X78077142Y-71494062D02*
X78148571Y-71699419D01*
X78148571Y-72056562D01*
X78077142Y-72208348D01*
X78005714Y-72288705D01*
X77862857Y-72377991D01*
X77720000Y-72395848D01*
X77577142Y-72342276D01*
X77505714Y-72279776D01*
X77434285Y-72145848D01*
X77362857Y-71869062D01*
X77291428Y-71735133D01*
X77220000Y-71672633D01*
X77077142Y-71619062D01*
X76934285Y-71636919D01*
X76791428Y-71726205D01*
X76720000Y-71806562D01*
X76648571Y-71958348D01*
X76648571Y-72315491D01*
X76720000Y-72520848D01*
X76648571Y-73172633D02*
X77862857Y-73020848D01*
X78005714Y-73074419D01*
X78077142Y-73136919D01*
X78148571Y-73270848D01*
X78148571Y-73556562D01*
X78077142Y-73708348D01*
X78005714Y-73788705D01*
X77862857Y-73877991D01*
X76648571Y-74029776D01*
X78148571Y-74556562D02*
X76648571Y-74744062D01*
X76648571Y-75315491D01*
X76720000Y-75449419D01*
X76791428Y-75511919D01*
X76934285Y-75565491D01*
X77148571Y-75538705D01*
X77291428Y-75449419D01*
X77362857Y-75369062D01*
X77434285Y-75217276D01*
X77434285Y-74645848D01*
X78148571Y-76056562D02*
X76648571Y-76244062D01*
X76648571Y-76815491D01*
X76720000Y-76949419D01*
X76791428Y-77011919D01*
X76934285Y-77065491D01*
X77148571Y-77038705D01*
X77291428Y-76949419D01*
X77362857Y-76869062D01*
X77434285Y-76717276D01*
X77434285Y-76145848D01*
X78148571Y-78270848D02*
X78148571Y-77556562D01*
X76648571Y-77744062D01*
X77434285Y-79145848D02*
X78148571Y-79056562D01*
X76648571Y-78744062D02*
X77434285Y-79145848D01*
X76648571Y-79744062D01*
D12*
%TO.P,C1,1*%
%TO.N,-23V*%
X58293000Y-103505000D03*
%TO.P,C1,2*%
%TO.N,GND*%
X63293000Y-103505000D03*
%TD*%
D13*
%TO.P,U1,1,+Vin*%
%TO.N,+5V*%
X57912000Y-118967000D03*
%TO.P,U1,2,-Vin*%
%TO.N,GND*%
X60452000Y-118967000D03*
%TO.P,U1,5,+Vout*%
X68072000Y-118967000D03*
%TO.P,U1,6,-Vout1*%
%TO.N,-23V*%
X70612000Y-118967000D03*
%TO.P,U1,7,-Vout2*%
%TO.N,unconnected-(U1-Pad7)*%
X73152000Y-118967000D03*
%TO.P,U1,8,-Vout3*%
%TO.N,unconnected-(U1-Pad8)*%
X75692000Y-118967000D03*
%TD*%
D14*
%TO.P,J1,1,Pin_1*%
%TO.N,Net-(J1-Pad1)*%
X69668000Y-107148000D03*
%TO.P,J1,2,Pin_2*%
%TO.N,GND*%
X69668000Y-102148000D03*
%TD*%
D15*
%TO.P,U2,1,A_+12V*%
%TO.N,+12V*%
X45931000Y-54233000D03*
%TO.P,U2,2,B_GND*%
%TO.N,GND*%
X45931000Y-58233000D03*
%TO.P,U2,3,C_+12V*%
%TO.N,+12V*%
X45931000Y-62233000D03*
%TO.P,U2,4,D_GND*%
%TO.N,GND*%
X45931000Y-66233000D03*
%TO.P,U2,5,E_-12V*%
%TO.N,-12V*%
X45931000Y-70233000D03*
%TO.P,U2,6,F_-23V*%
%TO.N,-23V*%
X45931000Y-74233000D03*
%TO.P,U2,7,H_NC*%
%TO.N,unconnected-(U2-Pad7)*%
X45931000Y-78233000D03*
%TO.P,U2,8,J_GND_+12V*%
%TO.N,GND_+12V*%
X45931000Y-82233000D03*
%TO.P,U2,9,K_GND*%
%TO.N,GND*%
X45931000Y-86233000D03*
%TO.P,U2,10,L_GND*%
X45931000Y-90233000D03*
%TO.P,U2,11,M_GND*%
X45931000Y-94233000D03*
%TO.P,U2,12,N_GND*%
X45931000Y-98233000D03*
%TO.P,U2,13,P_GND*%
X45931000Y-102233000D03*
%TO.P,U2,14,R_+5V*%
%TO.N,+5V*%
X45931000Y-106233000D03*
%TO.P,U2,15,S_+5V*%
X45931000Y-110233000D03*
%TO.P,U2,16,T_+5V*%
X45931000Y-114233000D03*
%TO.P,U2,17,U_+5V*%
X45931000Y-118233000D03*
%TO.P,U2,18,V_+5V*%
X45931000Y-122233000D03*
%TD*%
D16*
%TO.P,R1,1*%
%TO.N,+5V*%
X77494000Y-126238000D03*
D17*
%TO.P,R1,2*%
%TO.N,GND*%
X55094000Y-126238000D03*
%TD*%
D18*
%TO.P,J2,1,+3.3V*%
%TO.N,unconnected-(J2-Pad1)*%
X64328040Y-48783240D03*
%TO.P,J2,2,+3.3V*%
X64328040Y-52984400D03*
%TO.P,J2,3,GND*%
%TO.N,GND*%
X64328040Y-57183020D03*
%TO.P,J2,4,+5V*%
%TO.N,+5V*%
X64328040Y-61384180D03*
%TO.P,J2,5,GND*%
%TO.N,GND*%
X64328040Y-65582800D03*
%TO.P,J2,6,+5V*%
%TO.N,+5V*%
X64328040Y-69783960D03*
%TO.P,J2,7,GND*%
%TO.N,GND*%
X64328040Y-73980040D03*
%TO.P,J2,8,PWR_OK*%
%TO.N,unconnected-(J2-Pad8)*%
X64328040Y-78181200D03*
%TO.P,J2,9,+5VSB*%
%TO.N,unconnected-(J2-Pad9)*%
X64328040Y-82379820D03*
%TO.P,J2,10,+12V*%
%TO.N,+12V*%
X64328040Y-86580980D03*
%TO.P,J2,11,+12V*%
X64328040Y-90779600D03*
%TO.P,J2,12,+3.3V*%
%TO.N,unconnected-(J2-Pad1)*%
X64328040Y-94980760D03*
%TO.P,J2,13,+3.3V*%
X58828940Y-48783240D03*
%TO.P,J2,14,-12V*%
%TO.N,-12V*%
X58828940Y-52984400D03*
%TO.P,J2,15,GND*%
%TO.N,GND*%
X58828940Y-57183020D03*
%TO.P,J2,16,PS_ON#*%
%TO.N,Net-(J1-Pad1)*%
X58828940Y-61384180D03*
%TO.P,J2,17,GND*%
%TO.N,GND*%
X58828940Y-65582800D03*
%TO.P,J2,18,GND*%
X58828940Y-69783960D03*
%TO.P,J2,19,GND*%
X58828940Y-73980040D03*
%TO.P,J2,20,NC*%
%TO.N,unconnected-(J2-Pad20)*%
X58828940Y-78181200D03*
%TO.P,J2,21,+5V*%
%TO.N,+5V*%
X58828940Y-82379820D03*
%TO.P,J2,22,+5V*%
X58828940Y-86580980D03*
%TO.P,J2,23,+5V*%
X58828940Y-90779600D03*
%TO.P,J2,24,GND*%
%TO.N,GND*%
X58828940Y-94980760D03*
%TD*%
D19*
%TO.N,-12V*%
X49931000Y-70233000D02*
X55245000Y-64919000D01*
X55245000Y-64919000D02*
X55245000Y-56568340D01*
X55245000Y-56568340D02*
X58828940Y-52984400D01*
%TO.N,+5V*%
X49931000Y-114233000D02*
X53178000Y-114233000D01*
X53178000Y-114233000D02*
X57912000Y-118967000D01*
%TO.N,-23V*%
X70612000Y-118967000D02*
X70612000Y-115824000D01*
X70612000Y-115824000D02*
X58293000Y-103505000D01*
D20*
%TO.N,+5V*%
X64328040Y-69783960D02*
X61600080Y-67056000D01*
X61600080Y-67056000D02*
X61600080Y-64112140D01*
X61600080Y-64112140D02*
X64328040Y-61384180D01*
X58828940Y-82379820D02*
X61595000Y-79613760D01*
X61595000Y-79613760D02*
X61595000Y-72517000D01*
X61595000Y-72517000D02*
X64328040Y-69783960D01*
X58828940Y-86580980D02*
X58828940Y-82379820D01*
X58828940Y-86580980D02*
X58828940Y-90779600D01*
X55372000Y-108792000D02*
X55372000Y-94236540D01*
X55372000Y-94236540D02*
X58828940Y-90779600D01*
X49931000Y-114233000D02*
X55372000Y-108792000D01*
%TO.N,+12V*%
X64328040Y-86580980D02*
X67945000Y-82964020D01*
X67945000Y-82964020D02*
X67945000Y-48282039D01*
X67945000Y-48282039D02*
X66294000Y-46631039D01*
X52070000Y-53467000D02*
X51304000Y-54233000D01*
X66294000Y-46631039D02*
X66294000Y-46609000D01*
X66294000Y-46609000D02*
X55880000Y-46609000D01*
X55880000Y-46609000D02*
X52070000Y-50419000D01*
X51304000Y-54233000D02*
X49931000Y-54233000D01*
X52070000Y-50419000D02*
X52070000Y-53467000D01*
X64328040Y-90779600D02*
X64328040Y-86580980D01*
%TD*%
%TA.AperFunction,Conductor*%
%TO.N,+5V*%
G36*
X53490931Y-105049002D02*
G01*
X53511905Y-105065905D01*
X53938095Y-105492095D01*
X53972121Y-105554407D01*
X53975000Y-105581190D01*
X53975000Y-122891810D01*
X53954998Y-122959931D01*
X53938095Y-122980905D01*
X53511905Y-123407095D01*
X53449593Y-123441121D01*
X53422810Y-123444000D01*
X49955190Y-123444000D01*
X49887069Y-123423998D01*
X49866095Y-123407095D01*
X49439905Y-122980905D01*
X49405879Y-122918593D01*
X49403000Y-122891810D01*
X49403000Y-105581190D01*
X49423002Y-105513069D01*
X49439905Y-105492095D01*
X49866095Y-105065905D01*
X49928407Y-105031879D01*
X49955190Y-105029000D01*
X53422810Y-105029000D01*
X53490931Y-105049002D01*
G37*
%TD.AperFunction*%
%TD*%
%TA.AperFunction,Conductor*%
%TO.N,+12V*%
G36*
X53490931Y-53055202D02*
G01*
X53511905Y-53072105D01*
X53938095Y-53498295D01*
X53972121Y-53560607D01*
X53975000Y-53587390D01*
X53975000Y-62871610D01*
X53954998Y-62939731D01*
X53938095Y-62960705D01*
X53511905Y-63386895D01*
X53449593Y-63420921D01*
X53422810Y-63423800D01*
X49955190Y-63423800D01*
X49887069Y-63403798D01*
X49866095Y-63386895D01*
X49439905Y-62960705D01*
X49405879Y-62898393D01*
X49403000Y-62871610D01*
X49403000Y-60242190D01*
X49423002Y-60174069D01*
X49439905Y-60153095D01*
X49614595Y-59978405D01*
X49676907Y-59944379D01*
X49703690Y-59941500D01*
X50974470Y-59941500D01*
X50976916Y-59941308D01*
X50976929Y-59941307D01*
X50997344Y-59939700D01*
X51010100Y-59938696D01*
X51055300Y-59925564D01*
X51154978Y-59896605D01*
X51154979Y-59896604D01*
X51162591Y-59894393D01*
X51299274Y-59813559D01*
X51411559Y-59701274D01*
X51492393Y-59564591D01*
X51536696Y-59412100D01*
X51537700Y-59399344D01*
X51539307Y-59378929D01*
X51539308Y-59378916D01*
X51539500Y-59376470D01*
X51539500Y-57089530D01*
X51539308Y-57087084D01*
X51539307Y-57087071D01*
X51537201Y-57060319D01*
X51536696Y-57053900D01*
X51492393Y-56901409D01*
X51411559Y-56764726D01*
X51299274Y-56652441D01*
X51162591Y-56571607D01*
X51154979Y-56569396D01*
X51154978Y-56569395D01*
X51016285Y-56529101D01*
X51016286Y-56529101D01*
X51010100Y-56527304D01*
X50997344Y-56526300D01*
X50976929Y-56524693D01*
X50976916Y-56524692D01*
X50974470Y-56524500D01*
X49710690Y-56524500D01*
X49642569Y-56504498D01*
X49621595Y-56487595D01*
X49439905Y-56305905D01*
X49405879Y-56243593D01*
X49403000Y-56216810D01*
X49403000Y-53587390D01*
X49423002Y-53519269D01*
X49439905Y-53498295D01*
X49866095Y-53072105D01*
X49928407Y-53038079D01*
X49955190Y-53035200D01*
X53422810Y-53035200D01*
X53490931Y-53055202D01*
G37*
%TD.AperFunction*%
%TD*%
M02*
