%TF.GenerationSoftware,KiCad,Pcbnew,(6.0.8-1)-1*%
%TF.CreationDate,2022-11-11T22:23:57-06:00*%
%TF.ProjectId,VT100_ATX_DCDC,56543130-305f-4415-9458-5f444344432e,rev?*%
%TF.SameCoordinates,Original*%
%TF.FileFunction,Copper,L1,Top*%
%TF.FilePolarity,Positive*%
%FSLAX46Y46*%
G04 Gerber Fmt 4.6, Leading zero omitted, Abs format (unit mm)*
G04 Created by KiCad (PCBNEW (6.0.8-1)-1) date 2022-11-11 22:23:57*
%MOMM*%
%LPD*%
G01*
G04 APERTURE LIST*
G04 Aperture macros list*
%AMRoundRect*
0 Rectangle with rounded corners*
0 $1 Rounding radius*
0 $2 $3 $4 $5 $6 $7 $8 $9 X,Y pos of 4 corners*
0 Add a 4 corners polygon primitive as box body*
4,1,4,$2,$3,$4,$5,$6,$7,$8,$9,$2,$3,0*
0 Add four circle primitives for the rounded corners*
1,1,$1+$1,$2,$3*
1,1,$1+$1,$4,$5*
1,1,$1+$1,$6,$7*
1,1,$1+$1,$8,$9*
0 Add four rect primitives between the rounded corners*
20,1,$1+$1,$2,$3,$4,$5,0*
20,1,$1+$1,$4,$5,$6,$7,0*
20,1,$1+$1,$6,$7,$8,$9,0*
20,1,$1+$1,$8,$9,$2,$3,0*%
G04 Aperture macros list end*
%TA.AperFunction,ComponentPad*%
%ADD10C,1.600000*%
%TD*%
%TA.AperFunction,ComponentPad*%
%ADD11C,1.524000*%
%TD*%
%TA.AperFunction,ComponentPad*%
%ADD12C,2.000000*%
%TD*%
%TA.AperFunction,ComponentPad*%
%ADD13RoundRect,0.250000X-0.750000X0.600000X-0.750000X-0.600000X0.750000X-0.600000X0.750000X0.600000X0*%
%TD*%
%TA.AperFunction,ComponentPad*%
%ADD14O,2.000000X1.700000*%
%TD*%
%TA.AperFunction,ComponentPad*%
%ADD15R,1.600000X1.600000*%
%TD*%
%TA.AperFunction,ComponentPad*%
%ADD16RoundRect,0.120000X4.980000X1.080000X-4.980000X1.080000X-4.980000X-1.080000X4.980000X-1.080000X0*%
%TD*%
%TA.AperFunction,SMDPad,CuDef*%
%ADD17R,1.000000X1.500000*%
%TD*%
%TA.AperFunction,ComponentPad*%
%ADD18RoundRect,0.437500X-0.437500X0.437500X-0.437500X-0.437500X0.437500X-0.437500X0.437500X0.437500X0*%
%TD*%
%TA.AperFunction,ComponentPad*%
%ADD19R,1.050000X1.500000*%
%TD*%
%TA.AperFunction,ComponentPad*%
%ADD20O,1.050000X1.500000*%
%TD*%
%TA.AperFunction,ComponentPad*%
%ADD21C,2.898140*%
%TD*%
%TA.AperFunction,Conductor*%
%ADD22C,0.250000*%
%TD*%
%TA.AperFunction,Conductor*%
%ADD23C,1.000000*%
%TD*%
G04 APERTURE END LIST*
%TO.C,JP1*%
G36*
X52970000Y-82769000D02*
G01*
X52470000Y-82769000D01*
X52470000Y-82369000D01*
X52970000Y-82369000D01*
X52970000Y-82769000D01*
G37*
G36*
X52970000Y-81969000D02*
G01*
X52470000Y-81969000D01*
X52470000Y-81569000D01*
X52970000Y-81569000D01*
X52970000Y-81969000D01*
G37*
%TD*%
D10*
%TO.P,C1,1*%
%TO.N,GND*%
X58724800Y-84602000D03*
%TO.P,C1,2*%
%TO.N,Net-(C1-Pad2)*%
X58724800Y-87102000D03*
%TD*%
D11*
%TO.P,F1,1*%
%TO.N,Net-(C1-Pad2)*%
X59550000Y-74250000D03*
%TO.P,F1,2*%
%TO.N,-23V*%
X56650000Y-79250000D03*
%TD*%
D12*
%TO.P,U1,1,Vin*%
%TO.N,+3.3V*%
X64770000Y-54959000D03*
%TO.P,U1,2,GND*%
%TO.N,GND*%
X67310000Y-54959000D03*
%TO.P,U1,4,-Vo*%
%TO.N,Net-(C3-Pad2)*%
X72390000Y-54959000D03*
%TO.P,U1,5,0V*%
%TO.N,GND*%
X74930000Y-54959000D03*
%TO.P,U1,6,+Vo*%
%TO.N,unconnected-(U1-Pad6)*%
X77470000Y-54959000D03*
%TD*%
D13*
%TO.P,J1,1,Pin_1*%
%TO.N,GND*%
X79248000Y-65532000D03*
D14*
%TO.P,J1,2,Pin_2*%
%TO.N,Net-(J1-Pad2)*%
X79248000Y-68032000D03*
%TD*%
D15*
%TO.P,C3,1*%
%TO.N,GND*%
X58674000Y-56073100D03*
D10*
%TO.P,C3,2*%
%TO.N,Net-(C3-Pad2)*%
X58674000Y-54073100D03*
%TD*%
D16*
%TO.P,U2,1,A_+12V*%
%TO.N,+12V*%
X45931000Y-54233000D03*
%TO.P,U2,2,B_GND*%
%TO.N,GND*%
X45931000Y-58233000D03*
%TO.P,U2,3,C_+12V*%
%TO.N,+12V*%
X45931000Y-62233000D03*
%TO.P,U2,4,D_GND*%
%TO.N,GND*%
X45931000Y-66233000D03*
%TO.P,U2,5,E_-12V*%
%TO.N,-12V*%
X45931000Y-70233000D03*
%TO.P,U2,6,F_-23V*%
%TO.N,-23V*%
X45931000Y-74233000D03*
%TO.P,U2,7,H_NC*%
%TO.N,unconnected-(U2-Pad7)*%
X45931000Y-78233000D03*
%TO.P,U2,8,J_GND_+12V*%
%TO.N,GND_+12V*%
X45931000Y-82233000D03*
%TO.P,U2,9,K_GND*%
%TO.N,GND*%
X45931000Y-86233000D03*
%TO.P,U2,10,L_GND*%
X45931000Y-90233000D03*
%TO.P,U2,11,M_GND*%
X45931000Y-94233000D03*
%TO.P,U2,12,N_GND*%
X45931000Y-98233000D03*
%TO.P,U2,13,P_GND*%
X45931000Y-102233000D03*
%TO.P,U2,14,R_+5V*%
%TO.N,+5V*%
X45931000Y-106233000D03*
%TO.P,U2,15,S_+5V*%
X45931000Y-110233000D03*
%TO.P,U2,16,T_+5V*%
X45931000Y-114233000D03*
%TO.P,U2,17,U_+5V*%
X45931000Y-118233000D03*
%TO.P,U2,18,V_+5V*%
X45931000Y-122233000D03*
%TD*%
D17*
%TO.P,JP1,1,A*%
%TO.N,GND*%
X53370000Y-82169000D03*
%TO.P,JP1,2,B*%
%TO.N,GND_+12V*%
X52070000Y-82169000D03*
%TD*%
D18*
%TO.P,R1,1*%
%TO.N,+5V*%
X57912000Y-99252000D03*
%TO.P,R1,2*%
%TO.N,GND*%
X57912000Y-123252000D03*
%TD*%
D15*
%TO.P,C2,1*%
%TO.N,+3.3V*%
X67116888Y-66294000D03*
D10*
%TO.P,C2,2*%
%TO.N,GND*%
X69116888Y-66294000D03*
%TD*%
D19*
%TO.P,U3,1,Ground*%
%TO.N,GND*%
X59436000Y-67564000D03*
D20*
%TO.P,U3,2,Input*%
%TO.N,Net-(C3-Pad2)*%
X58166000Y-67564000D03*
%TO.P,U3,3,Output*%
%TO.N,Net-(C1-Pad2)*%
X56896000Y-67564000D03*
%TD*%
D21*
%TO.P,J2,1,+3.3V*%
%TO.N,+3.3V*%
X69662040Y-76215240D03*
%TO.P,J2,2,+3.3V*%
X69662040Y-80416400D03*
%TO.P,J2,3,GND*%
%TO.N,GND*%
X69662040Y-84615020D03*
%TO.P,J2,4,+5V*%
%TO.N,+5V*%
X69662040Y-88816180D03*
%TO.P,J2,5,GND*%
%TO.N,GND*%
X69662040Y-93014800D03*
%TO.P,J2,6,+5V*%
%TO.N,+5V*%
X69662040Y-97215960D03*
%TO.P,J2,7,GND*%
%TO.N,GND*%
X69662040Y-101412040D03*
%TO.P,J2,8,PWR_OK*%
%TO.N,unconnected-(J2-Pad8)*%
X69662040Y-105613200D03*
%TO.P,J2,9,+5VSB*%
%TO.N,unconnected-(J2-Pad9)*%
X69662040Y-109811820D03*
%TO.P,J2,10,+12V*%
%TO.N,+12V*%
X69662040Y-114012980D03*
%TO.P,J2,11,+12V*%
X69662040Y-118211600D03*
%TO.P,J2,12,+3.3V*%
%TO.N,+3.3V*%
X69662040Y-122412760D03*
%TO.P,J2,13,+3.3V*%
X64162940Y-76215240D03*
%TO.P,J2,14,-12V*%
%TO.N,-12V*%
X64162940Y-80416400D03*
%TO.P,J2,15,GND*%
%TO.N,GND*%
X64162940Y-84615020D03*
%TO.P,J2,16,PS_ON#*%
%TO.N,Net-(J1-Pad2)*%
X64162940Y-88816180D03*
%TO.P,J2,17,GND*%
%TO.N,GND*%
X64162940Y-93014800D03*
%TO.P,J2,18,GND*%
X64162940Y-97215960D03*
%TO.P,J2,19,GND*%
X64162940Y-101412040D03*
%TO.P,J2,20,NC*%
%TO.N,unconnected-(J2-Pad20)*%
X64162940Y-105613200D03*
%TO.P,J2,21,+5V*%
%TO.N,+5V*%
X64162940Y-109811820D03*
%TO.P,J2,22,+5V*%
X64162940Y-114012980D03*
%TO.P,J2,23,+5V*%
X64162940Y-118211600D03*
%TO.P,J2,24,GND*%
%TO.N,GND*%
X64162940Y-122412760D03*
%TD*%
D22*
%TO.N,Net-(C1-Pad2)*%
X59550000Y-74250000D02*
X60311999Y-75011999D01*
X60311999Y-75011999D02*
X60311999Y-85514801D01*
X60311999Y-85514801D02*
X58724800Y-87102000D01*
%TO.N,+3.3V*%
X73362820Y-84117180D02*
X69662040Y-80416400D01*
X73362820Y-118711980D02*
X69662040Y-122412760D01*
X73362820Y-84117180D02*
X73362820Y-118711980D01*
X67116888Y-66294000D02*
X64162940Y-69247948D01*
X64162940Y-69247948D02*
X64162940Y-76215240D01*
%TO.N,Net-(C3-Pad2)*%
X58166000Y-67564000D02*
X58166000Y-67014000D01*
X58166000Y-67014000D02*
X57549000Y-66397000D01*
X57549000Y-66397000D02*
X57549000Y-54465000D01*
X57549000Y-54465000D02*
X57940900Y-54073100D01*
X57940900Y-54073100D02*
X58674000Y-54073100D01*
X58674000Y-54073100D02*
X59473999Y-53273101D01*
X59473999Y-53273101D02*
X70704101Y-53273101D01*
X70704101Y-53273101D02*
X72390000Y-54959000D01*
%TO.N,Net-(J1-Pad2)*%
X67183000Y-73279000D02*
X67183000Y-85796120D01*
X67183000Y-85796120D02*
X64162940Y-88816180D01*
X67183000Y-73279000D02*
X72430000Y-68032000D01*
X72430000Y-68032000D02*
X79248000Y-68032000D01*
D23*
%TO.N,+5V*%
X64162940Y-118211600D02*
X64162940Y-114012980D01*
X64162940Y-114012980D02*
X64162940Y-109811820D01*
%TO.N,GND_+12V*%
X52006000Y-82233000D02*
X52070000Y-82169000D01*
X49931000Y-82233000D02*
X52006000Y-82233000D01*
%TD*%
%TA.AperFunction,Conductor*%
%TO.N,GND*%
G36*
X83075898Y-51259515D02*
G01*
X83100141Y-51279808D01*
X83151363Y-51335008D01*
X83183035Y-51398546D01*
X83185000Y-51420711D01*
X83185000Y-125085683D01*
X83164998Y-125153804D01*
X83148095Y-125174778D01*
X83138278Y-125184595D01*
X83075966Y-125218621D01*
X83049183Y-125221500D01*
X53720000Y-125221500D01*
X53651879Y-125201498D01*
X53605386Y-125147842D01*
X53594000Y-125095500D01*
X53594000Y-123741330D01*
X56529001Y-123741330D01*
X56529251Y-123746930D01*
X56538611Y-123851826D01*
X56540796Y-123863558D01*
X56590331Y-124036309D01*
X56595042Y-124048087D01*
X56678127Y-124207014D01*
X56685112Y-124217607D01*
X56798454Y-124356577D01*
X56807423Y-124365546D01*
X56946393Y-124478888D01*
X56956986Y-124485873D01*
X57115913Y-124568958D01*
X57127691Y-124573669D01*
X57300439Y-124623203D01*
X57312175Y-124625389D01*
X57417072Y-124634751D01*
X57422667Y-124635000D01*
X57639885Y-124635000D01*
X57655124Y-124630525D01*
X57656329Y-124629135D01*
X57658000Y-124621452D01*
X57658000Y-124616884D01*
X58166000Y-124616884D01*
X58170475Y-124632123D01*
X58171865Y-124633328D01*
X58179548Y-124634999D01*
X58401330Y-124634999D01*
X58406930Y-124634749D01*
X58511826Y-124625389D01*
X58523558Y-124623204D01*
X58696309Y-124573669D01*
X58708087Y-124568958D01*
X58867014Y-124485873D01*
X58877607Y-124478888D01*
X59016577Y-124365546D01*
X59025546Y-124356577D01*
X59138888Y-124217607D01*
X59145873Y-124207014D01*
X59228958Y-124048087D01*
X59233669Y-124036309D01*
X59253988Y-123965447D01*
X62975420Y-123965447D01*
X62982810Y-123975749D01*
X63031283Y-124015212D01*
X63038562Y-124020327D01*
X63268360Y-124158677D01*
X63276284Y-124162714D01*
X63523289Y-124267308D01*
X63531694Y-124270186D01*
X63790983Y-124338934D01*
X63799704Y-124340598D01*
X64066098Y-124372128D01*
X64074963Y-124372546D01*
X64343128Y-124366226D01*
X64351988Y-124365389D01*
X64616574Y-124321350D01*
X64625231Y-124319271D01*
X64880980Y-124238389D01*
X64889241Y-124235118D01*
X65131045Y-124119005D01*
X65138770Y-124114599D01*
X65343587Y-123977745D01*
X65351875Y-123967827D01*
X65344618Y-123953648D01*
X64175752Y-122784782D01*
X64161808Y-122777168D01*
X64159975Y-122777299D01*
X64153360Y-122781550D01*
X62982586Y-123952324D01*
X62975420Y-123965447D01*
X59253988Y-123965447D01*
X59283203Y-123863561D01*
X59285389Y-123851825D01*
X59294751Y-123746928D01*
X59295000Y-123741333D01*
X59295000Y-123524115D01*
X59290525Y-123508876D01*
X59289135Y-123507671D01*
X59281452Y-123506000D01*
X58184115Y-123506000D01*
X58168876Y-123510475D01*
X58167671Y-123511865D01*
X58166000Y-123519548D01*
X58166000Y-124616884D01*
X57658000Y-124616884D01*
X57658000Y-123524115D01*
X57653525Y-123508876D01*
X57652135Y-123507671D01*
X57644452Y-123506000D01*
X56547116Y-123506000D01*
X56531877Y-123510475D01*
X56530672Y-123511865D01*
X56529001Y-123519548D01*
X56529001Y-123741330D01*
X53594000Y-123741330D01*
X53594000Y-122979885D01*
X56529000Y-122979885D01*
X56533475Y-122995124D01*
X56534865Y-122996329D01*
X56542548Y-122998000D01*
X57639885Y-122998000D01*
X57655124Y-122993525D01*
X57656329Y-122992135D01*
X57658000Y-122984452D01*
X57658000Y-122979885D01*
X58166000Y-122979885D01*
X58170475Y-122995124D01*
X58171865Y-122996329D01*
X58179548Y-122998000D01*
X59276884Y-122998000D01*
X59292123Y-122993525D01*
X59293328Y-122992135D01*
X59294999Y-122984452D01*
X59294999Y-122762670D01*
X59294749Y-122757070D01*
X59285389Y-122652174D01*
X59283204Y-122640442D01*
X59233669Y-122467691D01*
X59228958Y-122455913D01*
X59176506Y-122355582D01*
X62202014Y-122355582D01*
X62212545Y-122623617D01*
X62213520Y-122632446D01*
X62261713Y-122896327D01*
X62263922Y-122904929D01*
X62348814Y-123159382D01*
X62352218Y-123167600D01*
X62472116Y-123407554D01*
X62476634Y-123415193D01*
X62599019Y-123592271D01*
X62609337Y-123600622D01*
X62622992Y-123593498D01*
X63790918Y-122425572D01*
X63797296Y-122413892D01*
X64527348Y-122413892D01*
X64527479Y-122415725D01*
X64531730Y-122422340D01*
X65703286Y-123593896D01*
X65716686Y-123601213D01*
X65726591Y-123594226D01*
X65747422Y-123569443D01*
X65752642Y-123562258D01*
X65894595Y-123334645D01*
X65898747Y-123326805D01*
X66007215Y-123081454D01*
X66010221Y-123073104D01*
X66083034Y-122814928D01*
X66084835Y-122806235D01*
X66120710Y-122539141D01*
X66121238Y-122532748D01*
X66124908Y-122415982D01*
X66124781Y-122409539D01*
X66105750Y-122140751D01*
X66104497Y-122131948D01*
X66048039Y-121869712D01*
X66045560Y-121861179D01*
X65952717Y-121609517D01*
X65949062Y-121601422D01*
X65821686Y-121365353D01*
X65816924Y-121357848D01*
X65725787Y-121234458D01*
X65714662Y-121226018D01*
X65702066Y-121232844D01*
X64534962Y-122399948D01*
X64527348Y-122413892D01*
X63797296Y-122413892D01*
X63798532Y-122411628D01*
X63798401Y-122409795D01*
X63794150Y-122403180D01*
X62623817Y-121232847D01*
X62610977Y-121225836D01*
X62600285Y-121233633D01*
X62542910Y-121306414D01*
X62537915Y-121313763D01*
X62403179Y-121545728D01*
X62399280Y-121553686D01*
X62298575Y-121802314D01*
X62295826Y-121810776D01*
X62231163Y-122071096D01*
X62229634Y-122079857D01*
X62202293Y-122346699D01*
X62202014Y-122355582D01*
X59176506Y-122355582D01*
X59145873Y-122296986D01*
X59138888Y-122286393D01*
X59025546Y-122147423D01*
X59016577Y-122138454D01*
X58877607Y-122025112D01*
X58867014Y-122018127D01*
X58708087Y-121935042D01*
X58696309Y-121930331D01*
X58523561Y-121880797D01*
X58511825Y-121878611D01*
X58406928Y-121869249D01*
X58401333Y-121869000D01*
X58184115Y-121869000D01*
X58168876Y-121873475D01*
X58167671Y-121874865D01*
X58166000Y-121882548D01*
X58166000Y-122979885D01*
X57658000Y-122979885D01*
X57658000Y-121887116D01*
X57653525Y-121871877D01*
X57652135Y-121870672D01*
X57644452Y-121869001D01*
X57422670Y-121869001D01*
X57417070Y-121869251D01*
X57312174Y-121878611D01*
X57300442Y-121880796D01*
X57127691Y-121930331D01*
X57115913Y-121935042D01*
X56956986Y-122018127D01*
X56946393Y-122025112D01*
X56807423Y-122138454D01*
X56798454Y-122147423D01*
X56685112Y-122286393D01*
X56678127Y-122296986D01*
X56595042Y-122455913D01*
X56590331Y-122467691D01*
X56540797Y-122640439D01*
X56538611Y-122652175D01*
X56529249Y-122757072D01*
X56529000Y-122762667D01*
X56529000Y-122979885D01*
X53594000Y-122979885D01*
X53594000Y-120860272D01*
X62975807Y-120860272D01*
X62982787Y-120873397D01*
X64150128Y-122040738D01*
X64164072Y-122048352D01*
X64165905Y-122048221D01*
X64172520Y-122043970D01*
X65342755Y-120873735D01*
X65349609Y-120861183D01*
X65341402Y-120850113D01*
X65243702Y-120775550D01*
X65236277Y-120770673D01*
X65002238Y-120639605D01*
X64994185Y-120635816D01*
X64744022Y-120539035D01*
X64735532Y-120536423D01*
X64474214Y-120475853D01*
X64465436Y-120474463D01*
X64198191Y-120451317D01*
X64189320Y-120451177D01*
X63921471Y-120465918D01*
X63912661Y-120467032D01*
X63649575Y-120519362D01*
X63641000Y-120521708D01*
X63387916Y-120610584D01*
X63379749Y-120614118D01*
X63141713Y-120737769D01*
X63134141Y-120742409D01*
X62984210Y-120849550D01*
X62975807Y-120860272D01*
X53594000Y-120860272D01*
X53594000Y-118149954D01*
X62201338Y-118149954D01*
X62212222Y-118426961D01*
X62262028Y-118699671D01*
X62286077Y-118771756D01*
X62341994Y-118939358D01*
X62349762Y-118962643D01*
X62398837Y-119060858D01*
X62470352Y-119203980D01*
X62473674Y-119210629D01*
X62631291Y-119438682D01*
X62819468Y-119642252D01*
X62822922Y-119645064D01*
X63030995Y-119814462D01*
X63030999Y-119814465D01*
X63034452Y-119817276D01*
X63271952Y-119960263D01*
X63276047Y-119961997D01*
X63276049Y-119961998D01*
X63451640Y-120036351D01*
X63527229Y-120068359D01*
X63531522Y-120069497D01*
X63531527Y-120069499D01*
X63671302Y-120106559D01*
X63795191Y-120139407D01*
X64070490Y-120171991D01*
X64347634Y-120165460D01*
X64504160Y-120139407D01*
X64616703Y-120120675D01*
X64616707Y-120120674D01*
X64621093Y-120119944D01*
X64625334Y-120118603D01*
X64625337Y-120118602D01*
X64881164Y-120037694D01*
X64881166Y-120037693D01*
X64885410Y-120036351D01*
X64889421Y-120034425D01*
X64889426Y-120034423D01*
X65131293Y-119918280D01*
X65131294Y-119918279D01*
X65135312Y-119916350D01*
X65139018Y-119913874D01*
X65362105Y-119764813D01*
X65362109Y-119764810D01*
X65365813Y-119762335D01*
X65369130Y-119759364D01*
X65369134Y-119759361D01*
X65568995Y-119580350D01*
X65568996Y-119580349D01*
X65572313Y-119577378D01*
X65750692Y-119365170D01*
X65897392Y-119129945D01*
X65900080Y-119123866D01*
X65991174Y-118917813D01*
X66009484Y-118876397D01*
X66084733Y-118609584D01*
X66108674Y-118431341D01*
X66121210Y-118338013D01*
X66121211Y-118338005D01*
X66121637Y-118334831D01*
X66125510Y-118211600D01*
X66121145Y-118149954D01*
X67700438Y-118149954D01*
X67711322Y-118426961D01*
X67761128Y-118699671D01*
X67785177Y-118771756D01*
X67841094Y-118939358D01*
X67848862Y-118962643D01*
X67897937Y-119060858D01*
X67969452Y-119203980D01*
X67972774Y-119210629D01*
X68130391Y-119438682D01*
X68318568Y-119642252D01*
X68322022Y-119645064D01*
X68530095Y-119814462D01*
X68530099Y-119814465D01*
X68533552Y-119817276D01*
X68771052Y-119960263D01*
X68775147Y-119961997D01*
X68775149Y-119961998D01*
X68950740Y-120036351D01*
X69026329Y-120068359D01*
X69030622Y-120069497D01*
X69030627Y-120069499D01*
X69170402Y-120106559D01*
X69294291Y-120139407D01*
X69569590Y-120171991D01*
X69846734Y-120165460D01*
X70003260Y-120139407D01*
X70115803Y-120120675D01*
X70115807Y-120120674D01*
X70120193Y-120119944D01*
X70124434Y-120118603D01*
X70124437Y-120118602D01*
X70380264Y-120037694D01*
X70380266Y-120037693D01*
X70384510Y-120036351D01*
X70388521Y-120034425D01*
X70388526Y-120034423D01*
X70630393Y-119918280D01*
X70630394Y-119918279D01*
X70634412Y-119916350D01*
X70638118Y-119913874D01*
X70861205Y-119764813D01*
X70861209Y-119764810D01*
X70864913Y-119762335D01*
X70868230Y-119759364D01*
X70868234Y-119759361D01*
X71068095Y-119580350D01*
X71068096Y-119580349D01*
X71071413Y-119577378D01*
X71249792Y-119365170D01*
X71396492Y-119129945D01*
X71399180Y-119123866D01*
X71490274Y-118917813D01*
X71508584Y-118876397D01*
X71583833Y-118609584D01*
X71607774Y-118431341D01*
X71620310Y-118338013D01*
X71620311Y-118338005D01*
X71620737Y-118334831D01*
X71624610Y-118211600D01*
X71605031Y-117935071D01*
X71546684Y-117664060D01*
X71450733Y-117403974D01*
X71319093Y-117160002D01*
X71316452Y-117156427D01*
X71316448Y-117156420D01*
X71157043Y-116940605D01*
X71154390Y-116937013D01*
X71112307Y-116894263D01*
X70963042Y-116742636D01*
X70959911Y-116739455D01*
X70956372Y-116736754D01*
X70956365Y-116736748D01*
X70743076Y-116573972D01*
X70739536Y-116571270D01*
X70731283Y-116566648D01*
X70501553Y-116437993D01*
X70501552Y-116437993D01*
X70497662Y-116435814D01*
X70489663Y-116432720D01*
X70243270Y-116337396D01*
X70243264Y-116337394D01*
X70239115Y-116335789D01*
X70234783Y-116334785D01*
X70234780Y-116334784D01*
X70124445Y-116309210D01*
X69969054Y-116273192D01*
X69692867Y-116249272D01*
X69688432Y-116249516D01*
X69688428Y-116249516D01*
X69575985Y-116255704D01*
X69416065Y-116264505D01*
X69144171Y-116318589D01*
X69022495Y-116361318D01*
X68886816Y-116408964D01*
X68886808Y-116408967D01*
X68882609Y-116410442D01*
X68878656Y-116412495D01*
X68878650Y-116412498D01*
X68784696Y-116461304D01*
X68636600Y-116538234D01*
X68632985Y-116540817D01*
X68632979Y-116540821D01*
X68586585Y-116573975D01*
X68411051Y-116699414D01*
X68210462Y-116890766D01*
X68038836Y-117108472D01*
X68036599Y-117112324D01*
X67901832Y-117344342D01*
X67901829Y-117344348D01*
X67899598Y-117348189D01*
X67795525Y-117605133D01*
X67794454Y-117609446D01*
X67794452Y-117609451D01*
X67748145Y-117795871D01*
X67728694Y-117874177D01*
X67700438Y-118149954D01*
X66121145Y-118149954D01*
X66105931Y-117935071D01*
X66047584Y-117664060D01*
X65951633Y-117403974D01*
X65819993Y-117160002D01*
X65817352Y-117156427D01*
X65817348Y-117156420D01*
X65657943Y-116940605D01*
X65655290Y-116937013D01*
X65613207Y-116894263D01*
X65463942Y-116742636D01*
X65460811Y-116739455D01*
X65457272Y-116736754D01*
X65457265Y-116736748D01*
X65243981Y-116573975D01*
X65243977Y-116573972D01*
X65240436Y-116571270D01*
X65235879Y-116568718D01*
X65235702Y-116568537D01*
X65232826Y-116566648D01*
X65233238Y-116566020D01*
X65186216Y-116517986D01*
X65171440Y-116458781D01*
X65171440Y-115760939D01*
X65191442Y-115692818D01*
X65227438Y-115656174D01*
X65362105Y-115566193D01*
X65362109Y-115566190D01*
X65365813Y-115563715D01*
X65369130Y-115560744D01*
X65369134Y-115560741D01*
X65568995Y-115381730D01*
X65568996Y-115381729D01*
X65572313Y-115378758D01*
X65750692Y-115166550D01*
X65897392Y-114931325D01*
X66009484Y-114677777D01*
X66084733Y-114410964D01*
X66108674Y-114232721D01*
X66121210Y-114139393D01*
X66121211Y-114139385D01*
X66121637Y-114136211D01*
X66125510Y-114012980D01*
X66121145Y-113951334D01*
X67700438Y-113951334D01*
X67711322Y-114228341D01*
X67761128Y-114501051D01*
X67848862Y-114764023D01*
X67972774Y-115012009D01*
X68130391Y-115240062D01*
X68318568Y-115443632D01*
X68322022Y-115446444D01*
X68530095Y-115615842D01*
X68530099Y-115615845D01*
X68533552Y-115618656D01*
X68771052Y-115761643D01*
X68775147Y-115763377D01*
X68775149Y-115763378D01*
X68950740Y-115837731D01*
X69026329Y-115869739D01*
X69030622Y-115870877D01*
X69030627Y-115870879D01*
X69119313Y-115894393D01*
X69294291Y-115940787D01*
X69569590Y-115973371D01*
X69846734Y-115966840D01*
X69934257Y-115952272D01*
X70115803Y-115922055D01*
X70115807Y-115922054D01*
X70120193Y-115921324D01*
X70124434Y-115919983D01*
X70124437Y-115919982D01*
X70380264Y-115839074D01*
X70380266Y-115839073D01*
X70384510Y-115837731D01*
X70388521Y-115835805D01*
X70388526Y-115835803D01*
X70630393Y-115719660D01*
X70630394Y-115719659D01*
X70634412Y-115717730D01*
X70651318Y-115706434D01*
X70861205Y-115566193D01*
X70861209Y-115566190D01*
X70864913Y-115563715D01*
X70868230Y-115560744D01*
X70868234Y-115560741D01*
X71068095Y-115381730D01*
X71068096Y-115381729D01*
X71071413Y-115378758D01*
X71249792Y-115166550D01*
X71396492Y-114931325D01*
X71508584Y-114677777D01*
X71583833Y-114410964D01*
X71607774Y-114232721D01*
X71620310Y-114139393D01*
X71620311Y-114139385D01*
X71620737Y-114136211D01*
X71624610Y-114012980D01*
X71605031Y-113736451D01*
X71546684Y-113465440D01*
X71450733Y-113205354D01*
X71319093Y-112961382D01*
X71316452Y-112957807D01*
X71316448Y-112957800D01*
X71157043Y-112741985D01*
X71154390Y-112738393D01*
X71112307Y-112695643D01*
X70963042Y-112544016D01*
X70959911Y-112540835D01*
X70956372Y-112538134D01*
X70956365Y-112538128D01*
X70743076Y-112375352D01*
X70739536Y-112372650D01*
X70731283Y-112368028D01*
X70501553Y-112239373D01*
X70501552Y-112239373D01*
X70497662Y-112237194D01*
X70489663Y-112234100D01*
X70243270Y-112138776D01*
X70243264Y-112138774D01*
X70239115Y-112137169D01*
X70234783Y-112136165D01*
X70234780Y-112136164D01*
X70124445Y-112110590D01*
X69969054Y-112074572D01*
X69692867Y-112050652D01*
X69688432Y-112050896D01*
X69688428Y-112050896D01*
X69575985Y-112057084D01*
X69416065Y-112065885D01*
X69144171Y-112119969D01*
X69022495Y-112162698D01*
X68886816Y-112210344D01*
X68886808Y-112210347D01*
X68882609Y-112211822D01*
X68878656Y-112213875D01*
X68878650Y-112213878D01*
X68784696Y-112262684D01*
X68636600Y-112339614D01*
X68632985Y-112342197D01*
X68632979Y-112342201D01*
X68586585Y-112375355D01*
X68411051Y-112500794D01*
X68371915Y-112538128D01*
X68252084Y-112652441D01*
X68210462Y-112692146D01*
X68038836Y-112909852D01*
X68036599Y-112913704D01*
X67901832Y-113145722D01*
X67901829Y-113145728D01*
X67899598Y-113149569D01*
X67795525Y-113406513D01*
X67794454Y-113410826D01*
X67794452Y-113410831D01*
X67748145Y-113597251D01*
X67728694Y-113675557D01*
X67700438Y-113951334D01*
X66121145Y-113951334D01*
X66105931Y-113736451D01*
X66047584Y-113465440D01*
X65951633Y-113205354D01*
X65819993Y-112961382D01*
X65817352Y-112957807D01*
X65817348Y-112957800D01*
X65657943Y-112741985D01*
X65655290Y-112738393D01*
X65613207Y-112695643D01*
X65463942Y-112544016D01*
X65460811Y-112540835D01*
X65457272Y-112538134D01*
X65457265Y-112538128D01*
X65243981Y-112375355D01*
X65243977Y-112375352D01*
X65240436Y-112372650D01*
X65235879Y-112370098D01*
X65235702Y-112369917D01*
X65232826Y-112368028D01*
X65233238Y-112367400D01*
X65186216Y-112319366D01*
X65171440Y-112260161D01*
X65171440Y-111559779D01*
X65191442Y-111491658D01*
X65227438Y-111455014D01*
X65362105Y-111365033D01*
X65362109Y-111365030D01*
X65365813Y-111362555D01*
X65369130Y-111359584D01*
X65369134Y-111359581D01*
X65568995Y-111180570D01*
X65568996Y-111180569D01*
X65572313Y-111177598D01*
X65750692Y-110965390D01*
X65897392Y-110730165D01*
X66009484Y-110476617D01*
X66084733Y-110209804D01*
X66108674Y-110031561D01*
X66121210Y-109938233D01*
X66121211Y-109938225D01*
X66121637Y-109935051D01*
X66125510Y-109811820D01*
X66121145Y-109750174D01*
X67700438Y-109750174D01*
X67711322Y-110027181D01*
X67761128Y-110299891D01*
X67848862Y-110562863D01*
X67972774Y-110810849D01*
X68130391Y-111038902D01*
X68318568Y-111242472D01*
X68322022Y-111245284D01*
X68530095Y-111414682D01*
X68530099Y-111414685D01*
X68533552Y-111417496D01*
X68771052Y-111560483D01*
X68775147Y-111562217D01*
X68775149Y-111562218D01*
X68950740Y-111636571D01*
X69026329Y-111668579D01*
X69030622Y-111669717D01*
X69030627Y-111669719D01*
X69149640Y-111701274D01*
X69294291Y-111739627D01*
X69569590Y-111772211D01*
X69846734Y-111765680D01*
X70003260Y-111739627D01*
X70115803Y-111720895D01*
X70115807Y-111720894D01*
X70120193Y-111720164D01*
X70124434Y-111718823D01*
X70124437Y-111718822D01*
X70380264Y-111637914D01*
X70380266Y-111637913D01*
X70384510Y-111636571D01*
X70388521Y-111634645D01*
X70388526Y-111634643D01*
X70630393Y-111518500D01*
X70630394Y-111518499D01*
X70634412Y-111516570D01*
X70651318Y-111505274D01*
X70861205Y-111365033D01*
X70861209Y-111365030D01*
X70864913Y-111362555D01*
X70868230Y-111359584D01*
X70868234Y-111359581D01*
X71068095Y-111180570D01*
X71068096Y-111180569D01*
X71071413Y-111177598D01*
X71249792Y-110965390D01*
X71396492Y-110730165D01*
X71508584Y-110476617D01*
X71583833Y-110209804D01*
X71607774Y-110031561D01*
X71620310Y-109938233D01*
X71620311Y-109938225D01*
X71620737Y-109935051D01*
X71624610Y-109811820D01*
X71605031Y-109535291D01*
X71546684Y-109264280D01*
X71450733Y-109004194D01*
X71319093Y-108760222D01*
X71316452Y-108756647D01*
X71316448Y-108756640D01*
X71157043Y-108540825D01*
X71154390Y-108537233D01*
X71141856Y-108524500D01*
X70963042Y-108342856D01*
X70959911Y-108339675D01*
X70956372Y-108336974D01*
X70956365Y-108336968D01*
X70743076Y-108174192D01*
X70739536Y-108171490D01*
X70735647Y-108169312D01*
X70501553Y-108038213D01*
X70501552Y-108038213D01*
X70497662Y-108036034D01*
X70489663Y-108032940D01*
X70243270Y-107937616D01*
X70243264Y-107937614D01*
X70239115Y-107936009D01*
X70234783Y-107935005D01*
X70234780Y-107935004D01*
X70124445Y-107909430D01*
X69969054Y-107873412D01*
X69692867Y-107849492D01*
X69688432Y-107849736D01*
X69688428Y-107849736D01*
X69575985Y-107855924D01*
X69416065Y-107864725D01*
X69144171Y-107918809D01*
X69022495Y-107961538D01*
X68886816Y-108009184D01*
X68886808Y-108009187D01*
X68882609Y-108010662D01*
X68878656Y-108012715D01*
X68878650Y-108012718D01*
X68829571Y-108038213D01*
X68636600Y-108138454D01*
X68632985Y-108141037D01*
X68632979Y-108141041D01*
X68490474Y-108242877D01*
X68411051Y-108299634D01*
X68210462Y-108490986D01*
X68207706Y-108494482D01*
X68207705Y-108494483D01*
X68181831Y-108527304D01*
X68038836Y-108708692D01*
X68036599Y-108712544D01*
X67901832Y-108944562D01*
X67901829Y-108944568D01*
X67899598Y-108948409D01*
X67795525Y-109205353D01*
X67794454Y-109209666D01*
X67794452Y-109209671D01*
X67748145Y-109396091D01*
X67728694Y-109474397D01*
X67700438Y-109750174D01*
X66121145Y-109750174D01*
X66105931Y-109535291D01*
X66047584Y-109264280D01*
X65951633Y-109004194D01*
X65819993Y-108760222D01*
X65817352Y-108756647D01*
X65817348Y-108756640D01*
X65657943Y-108540825D01*
X65655290Y-108537233D01*
X65642756Y-108524500D01*
X65463942Y-108342856D01*
X65460811Y-108339675D01*
X65457272Y-108336974D01*
X65457265Y-108336968D01*
X65243976Y-108174192D01*
X65240436Y-108171490D01*
X65236547Y-108169312D01*
X65002453Y-108038213D01*
X65002452Y-108038213D01*
X64998562Y-108036034D01*
X64990563Y-108032940D01*
X64744170Y-107937616D01*
X64744164Y-107937614D01*
X64740015Y-107936009D01*
X64735683Y-107935005D01*
X64735680Y-107935004D01*
X64625345Y-107909430D01*
X64469954Y-107873412D01*
X64193767Y-107849492D01*
X64189332Y-107849736D01*
X64189328Y-107849736D01*
X64076885Y-107855924D01*
X63916965Y-107864725D01*
X63645071Y-107918809D01*
X63523395Y-107961538D01*
X63387716Y-108009184D01*
X63387708Y-108009187D01*
X63383509Y-108010662D01*
X63379556Y-108012715D01*
X63379550Y-108012718D01*
X63330471Y-108038213D01*
X63137500Y-108138454D01*
X63133885Y-108141037D01*
X63133879Y-108141041D01*
X62991374Y-108242877D01*
X62911951Y-108299634D01*
X62711362Y-108490986D01*
X62708606Y-108494482D01*
X62708605Y-108494483D01*
X62682731Y-108527304D01*
X62539736Y-108708692D01*
X62537499Y-108712544D01*
X62402732Y-108944562D01*
X62402729Y-108944568D01*
X62400498Y-108948409D01*
X62296425Y-109205353D01*
X62295354Y-109209666D01*
X62295352Y-109209671D01*
X62249045Y-109396091D01*
X62229594Y-109474397D01*
X62201338Y-109750174D01*
X62212222Y-110027181D01*
X62262028Y-110299891D01*
X62349762Y-110562863D01*
X62473674Y-110810849D01*
X62631291Y-111038902D01*
X62819468Y-111242472D01*
X62822922Y-111245284D01*
X63030995Y-111414682D01*
X63030999Y-111414685D01*
X63034452Y-111417496D01*
X63038274Y-111419797D01*
X63093429Y-111453003D01*
X63141472Y-111505274D01*
X63154440Y-111560949D01*
X63154440Y-112262684D01*
X63134438Y-112330805D01*
X63101699Y-112365198D01*
X63000540Y-112437487D01*
X62915572Y-112498206D01*
X62915569Y-112498209D01*
X62911951Y-112500794D01*
X62872815Y-112538128D01*
X62752984Y-112652441D01*
X62711362Y-112692146D01*
X62539736Y-112909852D01*
X62537499Y-112913704D01*
X62402732Y-113145722D01*
X62402729Y-113145728D01*
X62400498Y-113149569D01*
X62296425Y-113406513D01*
X62295354Y-113410826D01*
X62295352Y-113410831D01*
X62249045Y-113597251D01*
X62229594Y-113675557D01*
X62201338Y-113951334D01*
X62212222Y-114228341D01*
X62262028Y-114501051D01*
X62349762Y-114764023D01*
X62473674Y-115012009D01*
X62631291Y-115240062D01*
X62819468Y-115443632D01*
X62822922Y-115446444D01*
X63030995Y-115615842D01*
X63030999Y-115615845D01*
X63034452Y-115618656D01*
X63038274Y-115620957D01*
X63093429Y-115654163D01*
X63141472Y-115706434D01*
X63154440Y-115762109D01*
X63154440Y-116461304D01*
X63134438Y-116529425D01*
X63101699Y-116563818D01*
X63000540Y-116636107D01*
X62915572Y-116696826D01*
X62915569Y-116696829D01*
X62911951Y-116699414D01*
X62711362Y-116890766D01*
X62539736Y-117108472D01*
X62537499Y-117112324D01*
X62402732Y-117344342D01*
X62402729Y-117344348D01*
X62400498Y-117348189D01*
X62296425Y-117605133D01*
X62295354Y-117609446D01*
X62295352Y-117609451D01*
X62249045Y-117795871D01*
X62229594Y-117874177D01*
X62201338Y-118149954D01*
X53594000Y-118149954D01*
X53594000Y-105551554D01*
X62201338Y-105551554D01*
X62212222Y-105828561D01*
X62262028Y-106101271D01*
X62349762Y-106364243D01*
X62473674Y-106612229D01*
X62631291Y-106840282D01*
X62819468Y-107043852D01*
X62822922Y-107046664D01*
X63030995Y-107216062D01*
X63030999Y-107216065D01*
X63034452Y-107218876D01*
X63271952Y-107361863D01*
X63276047Y-107363597D01*
X63276049Y-107363598D01*
X63451640Y-107437951D01*
X63527229Y-107469959D01*
X63531522Y-107471097D01*
X63531527Y-107471099D01*
X63671302Y-107508159D01*
X63795191Y-107541007D01*
X64070490Y-107573591D01*
X64347634Y-107567060D01*
X64504160Y-107541007D01*
X64616703Y-107522275D01*
X64616707Y-107522274D01*
X64621093Y-107521544D01*
X64625334Y-107520203D01*
X64625337Y-107520202D01*
X64881164Y-107439294D01*
X64881166Y-107439293D01*
X64885410Y-107437951D01*
X64889421Y-107436025D01*
X64889426Y-107436023D01*
X65131293Y-107319880D01*
X65131294Y-107319879D01*
X65135312Y-107317950D01*
X65283588Y-107218876D01*
X65362105Y-107166413D01*
X65362109Y-107166410D01*
X65365813Y-107163935D01*
X65369130Y-107160964D01*
X65369134Y-107160961D01*
X65568995Y-106981950D01*
X65568996Y-106981949D01*
X65572313Y-106978978D01*
X65750692Y-106766770D01*
X65897392Y-106531545D01*
X66009484Y-106277997D01*
X66084733Y-106011184D01*
X66108674Y-105832941D01*
X66121210Y-105739613D01*
X66121211Y-105739605D01*
X66121637Y-105736431D01*
X66125510Y-105613200D01*
X66121145Y-105551554D01*
X67700438Y-105551554D01*
X67711322Y-105828561D01*
X67761128Y-106101271D01*
X67848862Y-106364243D01*
X67972774Y-106612229D01*
X68130391Y-106840282D01*
X68318568Y-107043852D01*
X68322022Y-107046664D01*
X68530095Y-107216062D01*
X68530099Y-107216065D01*
X68533552Y-107218876D01*
X68771052Y-107361863D01*
X68775147Y-107363597D01*
X68775149Y-107363598D01*
X68950740Y-107437951D01*
X69026329Y-107469959D01*
X69030622Y-107471097D01*
X69030627Y-107471099D01*
X69170402Y-107508159D01*
X69294291Y-107541007D01*
X69569590Y-107573591D01*
X69846734Y-107567060D01*
X70003260Y-107541007D01*
X70115803Y-107522275D01*
X70115807Y-107522274D01*
X70120193Y-107521544D01*
X70124434Y-107520203D01*
X70124437Y-107520202D01*
X70380264Y-107439294D01*
X70380266Y-107439293D01*
X70384510Y-107437951D01*
X70388521Y-107436025D01*
X70388526Y-107436023D01*
X70630393Y-107319880D01*
X70630394Y-107319879D01*
X70634412Y-107317950D01*
X70782688Y-107218876D01*
X70861205Y-107166413D01*
X70861209Y-107166410D01*
X70864913Y-107163935D01*
X70868230Y-107160964D01*
X70868234Y-107160961D01*
X71068095Y-106981950D01*
X71068096Y-106981949D01*
X71071413Y-106978978D01*
X71249792Y-106766770D01*
X71396492Y-106531545D01*
X71508584Y-106277997D01*
X71583833Y-106011184D01*
X71607774Y-105832941D01*
X71620310Y-105739613D01*
X71620311Y-105739605D01*
X71620737Y-105736431D01*
X71624610Y-105613200D01*
X71605031Y-105336671D01*
X71546684Y-105065660D01*
X71450733Y-104805574D01*
X71319093Y-104561602D01*
X71316452Y-104558027D01*
X71316448Y-104558020D01*
X71157043Y-104342205D01*
X71154390Y-104338613D01*
X71112307Y-104295863D01*
X70963042Y-104144236D01*
X70959911Y-104141055D01*
X70956372Y-104138354D01*
X70956365Y-104138348D01*
X70743076Y-103975572D01*
X70739536Y-103972870D01*
X70735647Y-103970692D01*
X70501553Y-103839593D01*
X70501552Y-103839593D01*
X70497662Y-103837414D01*
X70489663Y-103834320D01*
X70243270Y-103738996D01*
X70243264Y-103738994D01*
X70239115Y-103737389D01*
X70234783Y-103736385D01*
X70234780Y-103736384D01*
X70124445Y-103710810D01*
X69969054Y-103674792D01*
X69692867Y-103650872D01*
X69688432Y-103651116D01*
X69688428Y-103651116D01*
X69575985Y-103657304D01*
X69416065Y-103666105D01*
X69144171Y-103720189D01*
X69022495Y-103762918D01*
X68886816Y-103810564D01*
X68886808Y-103810567D01*
X68882609Y-103812042D01*
X68878656Y-103814095D01*
X68878650Y-103814098D01*
X68829571Y-103839593D01*
X68636600Y-103939834D01*
X68632985Y-103942417D01*
X68632979Y-103942421D01*
X68490474Y-104044257D01*
X68411051Y-104101014D01*
X68210462Y-104292366D01*
X68038836Y-104510072D01*
X68036599Y-104513924D01*
X67901832Y-104745942D01*
X67901829Y-104745948D01*
X67899598Y-104749789D01*
X67897928Y-104753912D01*
X67838186Y-104901409D01*
X67795525Y-105006733D01*
X67794454Y-105011046D01*
X67794452Y-105011051D01*
X67774958Y-105089530D01*
X67728694Y-105275777D01*
X67700438Y-105551554D01*
X66121145Y-105551554D01*
X66105931Y-105336671D01*
X66047584Y-105065660D01*
X65951633Y-104805574D01*
X65819993Y-104561602D01*
X65817352Y-104558027D01*
X65817348Y-104558020D01*
X65657943Y-104342205D01*
X65655290Y-104338613D01*
X65613207Y-104295863D01*
X65463942Y-104144236D01*
X65460811Y-104141055D01*
X65457272Y-104138354D01*
X65457265Y-104138348D01*
X65243976Y-103975572D01*
X65240436Y-103972870D01*
X65236547Y-103970692D01*
X65002453Y-103839593D01*
X65002452Y-103839593D01*
X64998562Y-103837414D01*
X64990563Y-103834320D01*
X64744170Y-103738996D01*
X64744164Y-103738994D01*
X64740015Y-103737389D01*
X64735683Y-103736385D01*
X64735680Y-103736384D01*
X64625345Y-103710810D01*
X64469954Y-103674792D01*
X64193767Y-103650872D01*
X64189332Y-103651116D01*
X64189328Y-103651116D01*
X64076885Y-103657304D01*
X63916965Y-103666105D01*
X63645071Y-103720189D01*
X63523395Y-103762918D01*
X63387716Y-103810564D01*
X63387708Y-103810567D01*
X63383509Y-103812042D01*
X63379556Y-103814095D01*
X63379550Y-103814098D01*
X63330471Y-103839593D01*
X63137500Y-103939834D01*
X63133885Y-103942417D01*
X63133879Y-103942421D01*
X62991374Y-104044257D01*
X62911951Y-104101014D01*
X62711362Y-104292366D01*
X62539736Y-104510072D01*
X62537499Y-104513924D01*
X62402732Y-104745942D01*
X62402729Y-104745948D01*
X62400498Y-104749789D01*
X62398828Y-104753912D01*
X62339086Y-104901409D01*
X62296425Y-105006733D01*
X62295354Y-105011046D01*
X62295352Y-105011051D01*
X62275858Y-105089530D01*
X62229594Y-105275777D01*
X62201338Y-105551554D01*
X53594000Y-105551554D01*
X53594000Y-103378000D01*
X50672000Y-103378000D01*
X50603879Y-103357998D01*
X50557386Y-103304342D01*
X50546000Y-103252000D01*
X50546000Y-102964727D01*
X62975420Y-102964727D01*
X62982810Y-102975029D01*
X63031283Y-103014492D01*
X63038562Y-103019607D01*
X63268360Y-103157957D01*
X63276284Y-103161994D01*
X63523289Y-103266588D01*
X63531694Y-103269466D01*
X63790983Y-103338214D01*
X63799704Y-103339878D01*
X64066098Y-103371408D01*
X64074963Y-103371826D01*
X64343128Y-103365506D01*
X64351988Y-103364669D01*
X64616574Y-103320630D01*
X64625231Y-103318551D01*
X64880980Y-103237669D01*
X64889241Y-103234398D01*
X65131045Y-103118285D01*
X65138770Y-103113879D01*
X65343587Y-102977025D01*
X65351875Y-102967107D01*
X65350657Y-102964727D01*
X68474520Y-102964727D01*
X68481910Y-102975029D01*
X68530383Y-103014492D01*
X68537662Y-103019607D01*
X68767460Y-103157957D01*
X68775384Y-103161994D01*
X69022389Y-103266588D01*
X69030794Y-103269466D01*
X69290083Y-103338214D01*
X69298804Y-103339878D01*
X69565198Y-103371408D01*
X69574063Y-103371826D01*
X69842228Y-103365506D01*
X69851088Y-103364669D01*
X70115674Y-103320630D01*
X70124331Y-103318551D01*
X70380080Y-103237669D01*
X70388341Y-103234398D01*
X70630145Y-103118285D01*
X70637870Y-103113879D01*
X70842687Y-102977025D01*
X70850975Y-102967107D01*
X70843718Y-102952928D01*
X69674852Y-101784062D01*
X69660908Y-101776448D01*
X69659075Y-101776579D01*
X69652460Y-101780830D01*
X68481686Y-102951604D01*
X68474520Y-102964727D01*
X65350657Y-102964727D01*
X65344618Y-102952928D01*
X64175752Y-101784062D01*
X64161808Y-101776448D01*
X64159975Y-101776579D01*
X64153360Y-101780830D01*
X62982586Y-102951604D01*
X62975420Y-102964727D01*
X50546000Y-102964727D01*
X50546000Y-101354862D01*
X62202014Y-101354862D01*
X62212545Y-101622897D01*
X62213520Y-101631726D01*
X62261713Y-101895607D01*
X62263922Y-101904209D01*
X62348814Y-102158662D01*
X62352218Y-102166880D01*
X62472116Y-102406834D01*
X62476634Y-102414473D01*
X62599019Y-102591551D01*
X62609337Y-102599902D01*
X62622992Y-102592778D01*
X63790918Y-101424852D01*
X63797296Y-101413172D01*
X64527348Y-101413172D01*
X64527479Y-101415005D01*
X64531730Y-101421620D01*
X65703286Y-102593176D01*
X65716686Y-102600493D01*
X65726591Y-102593506D01*
X65747422Y-102568723D01*
X65752642Y-102561538D01*
X65894595Y-102333925D01*
X65898747Y-102326085D01*
X66007215Y-102080734D01*
X66010221Y-102072384D01*
X66083034Y-101814208D01*
X66084835Y-101805515D01*
X66120710Y-101538421D01*
X66121238Y-101532028D01*
X66124908Y-101415262D01*
X66124781Y-101408819D01*
X66120961Y-101354862D01*
X67701114Y-101354862D01*
X67711645Y-101622897D01*
X67712620Y-101631726D01*
X67760813Y-101895607D01*
X67763022Y-101904209D01*
X67847914Y-102158662D01*
X67851318Y-102166880D01*
X67971216Y-102406834D01*
X67975734Y-102414473D01*
X68098119Y-102591551D01*
X68108437Y-102599902D01*
X68122092Y-102592778D01*
X69290018Y-101424852D01*
X69296396Y-101413172D01*
X70026448Y-101413172D01*
X70026579Y-101415005D01*
X70030830Y-101421620D01*
X71202386Y-102593176D01*
X71215786Y-102600493D01*
X71225691Y-102593506D01*
X71246522Y-102568723D01*
X71251742Y-102561538D01*
X71393695Y-102333925D01*
X71397847Y-102326085D01*
X71506315Y-102080734D01*
X71509321Y-102072384D01*
X71582134Y-101814208D01*
X71583935Y-101805515D01*
X71619810Y-101538421D01*
X71620338Y-101532028D01*
X71624008Y-101415262D01*
X71623881Y-101408819D01*
X71604850Y-101140031D01*
X71603597Y-101131228D01*
X71547139Y-100868992D01*
X71544660Y-100860459D01*
X71451817Y-100608797D01*
X71448162Y-100600702D01*
X71320786Y-100364633D01*
X71316024Y-100357128D01*
X71224887Y-100233738D01*
X71213762Y-100225298D01*
X71201166Y-100232124D01*
X70034062Y-101399228D01*
X70026448Y-101413172D01*
X69296396Y-101413172D01*
X69297632Y-101410908D01*
X69297501Y-101409075D01*
X69293250Y-101402460D01*
X68122917Y-100232127D01*
X68110077Y-100225116D01*
X68099385Y-100232913D01*
X68042010Y-100305694D01*
X68037015Y-100313043D01*
X67902279Y-100545008D01*
X67898380Y-100552966D01*
X67797675Y-100801594D01*
X67794926Y-100810056D01*
X67730263Y-101070376D01*
X67728734Y-101079137D01*
X67701393Y-101345979D01*
X67701114Y-101354862D01*
X66120961Y-101354862D01*
X66105750Y-101140031D01*
X66104497Y-101131228D01*
X66048039Y-100868992D01*
X66045560Y-100860459D01*
X65952717Y-100608797D01*
X65949062Y-100600702D01*
X65821686Y-100364633D01*
X65816924Y-100357128D01*
X65725787Y-100233738D01*
X65714662Y-100225298D01*
X65702066Y-100232124D01*
X64534962Y-101399228D01*
X64527348Y-101413172D01*
X63797296Y-101413172D01*
X63798532Y-101410908D01*
X63798401Y-101409075D01*
X63794150Y-101402460D01*
X62623817Y-100232127D01*
X62610977Y-100225116D01*
X62600285Y-100232913D01*
X62542910Y-100305694D01*
X62537915Y-100313043D01*
X62403179Y-100545008D01*
X62399280Y-100552966D01*
X62298575Y-100801594D01*
X62295826Y-100810056D01*
X62231163Y-101070376D01*
X62229634Y-101079137D01*
X62202293Y-101345979D01*
X62202014Y-101354862D01*
X50546000Y-101354862D01*
X50546000Y-99744168D01*
X56528500Y-99744168D01*
X56538649Y-99857886D01*
X56591622Y-100042626D01*
X56680661Y-100212941D01*
X56684690Y-100217881D01*
X56684692Y-100217884D01*
X56762302Y-100313043D01*
X56802127Y-100361873D01*
X56807067Y-100365902D01*
X56946116Y-100479308D01*
X56946119Y-100479310D01*
X56951059Y-100483339D01*
X57121374Y-100572378D01*
X57127502Y-100574135D01*
X57127504Y-100574136D01*
X57220152Y-100600702D01*
X57306114Y-100625351D01*
X57312086Y-100625884D01*
X57417039Y-100635251D01*
X57417045Y-100635251D01*
X57419832Y-100635500D01*
X58404168Y-100635500D01*
X58406955Y-100635251D01*
X58406961Y-100635251D01*
X58511914Y-100625884D01*
X58517886Y-100625351D01*
X58603848Y-100600702D01*
X58696496Y-100574136D01*
X58696498Y-100574135D01*
X58702626Y-100572378D01*
X58872941Y-100483339D01*
X58877881Y-100479310D01*
X58877884Y-100479308D01*
X59016933Y-100365902D01*
X59021873Y-100361873D01*
X59061698Y-100313043D01*
X59139308Y-100217884D01*
X59139310Y-100217881D01*
X59143339Y-100212941D01*
X59232378Y-100042626D01*
X59284873Y-99859552D01*
X62975807Y-99859552D01*
X62982787Y-99872677D01*
X64150128Y-101040018D01*
X64164072Y-101047632D01*
X64165905Y-101047501D01*
X64172520Y-101043250D01*
X65342755Y-99873015D01*
X65349609Y-99860463D01*
X65348934Y-99859552D01*
X68474907Y-99859552D01*
X68481887Y-99872677D01*
X69649228Y-101040018D01*
X69663172Y-101047632D01*
X69665005Y-101047501D01*
X69671620Y-101043250D01*
X70841855Y-99873015D01*
X70848709Y-99860463D01*
X70840502Y-99849393D01*
X70742802Y-99774830D01*
X70735377Y-99769953D01*
X70501338Y-99638885D01*
X70493285Y-99635096D01*
X70243122Y-99538315D01*
X70234632Y-99535703D01*
X69973314Y-99475133D01*
X69964536Y-99473743D01*
X69697291Y-99450597D01*
X69688420Y-99450457D01*
X69420571Y-99465198D01*
X69411761Y-99466312D01*
X69148675Y-99518642D01*
X69140100Y-99520988D01*
X68887016Y-99609864D01*
X68878849Y-99613398D01*
X68640813Y-99737049D01*
X68633241Y-99741689D01*
X68483310Y-99848830D01*
X68474907Y-99859552D01*
X65348934Y-99859552D01*
X65341402Y-99849393D01*
X65243702Y-99774830D01*
X65236277Y-99769953D01*
X65002238Y-99638885D01*
X64994185Y-99635096D01*
X64744022Y-99538315D01*
X64735532Y-99535703D01*
X64474214Y-99475133D01*
X64465436Y-99473743D01*
X64198191Y-99450597D01*
X64189320Y-99450457D01*
X63921471Y-99465198D01*
X63912661Y-99466312D01*
X63649575Y-99518642D01*
X63641000Y-99520988D01*
X63387916Y-99609864D01*
X63379749Y-99613398D01*
X63141713Y-99737049D01*
X63134141Y-99741689D01*
X62984210Y-99848830D01*
X62975807Y-99859552D01*
X59284873Y-99859552D01*
X59285351Y-99857886D01*
X59295500Y-99744168D01*
X59295500Y-98768647D01*
X62975420Y-98768647D01*
X62982810Y-98778949D01*
X63031283Y-98818412D01*
X63038562Y-98823527D01*
X63268360Y-98961877D01*
X63276284Y-98965914D01*
X63523289Y-99070508D01*
X63531694Y-99073386D01*
X63790983Y-99142134D01*
X63799704Y-99143798D01*
X64066098Y-99175328D01*
X64074963Y-99175746D01*
X64343128Y-99169426D01*
X64351988Y-99168589D01*
X64616574Y-99124550D01*
X64625231Y-99122471D01*
X64880980Y-99041589D01*
X64889241Y-99038318D01*
X65131045Y-98922205D01*
X65138770Y-98917799D01*
X65343587Y-98780945D01*
X65351875Y-98771027D01*
X65344618Y-98756848D01*
X64175752Y-97587982D01*
X64161808Y-97580368D01*
X64159975Y-97580499D01*
X64153360Y-97584750D01*
X62982586Y-98755524D01*
X62975420Y-98768647D01*
X59295500Y-98768647D01*
X59295500Y-98759832D01*
X59285351Y-98646114D01*
X59232378Y-98461374D01*
X59143339Y-98291059D01*
X59021873Y-98142127D01*
X59007010Y-98130005D01*
X58877884Y-98024692D01*
X58877881Y-98024690D01*
X58872941Y-98020661D01*
X58702626Y-97931622D01*
X58696498Y-97929865D01*
X58696496Y-97929864D01*
X58600585Y-97902362D01*
X58517886Y-97878649D01*
X58511914Y-97878116D01*
X58406961Y-97868749D01*
X58406955Y-97868749D01*
X58404168Y-97868500D01*
X57419832Y-97868500D01*
X57417045Y-97868749D01*
X57417039Y-97868749D01*
X57312086Y-97878116D01*
X57306114Y-97878649D01*
X57223415Y-97902362D01*
X57127504Y-97929864D01*
X57127502Y-97929865D01*
X57121374Y-97931622D01*
X56951059Y-98020661D01*
X56946119Y-98024690D01*
X56946116Y-98024692D01*
X56816990Y-98130005D01*
X56802127Y-98142127D01*
X56680661Y-98291059D01*
X56591622Y-98461374D01*
X56538649Y-98646114D01*
X56528500Y-98759832D01*
X56528500Y-99744168D01*
X50546000Y-99744168D01*
X50546000Y-97158782D01*
X62202014Y-97158782D01*
X62212545Y-97426817D01*
X62213520Y-97435646D01*
X62261713Y-97699527D01*
X62263922Y-97708129D01*
X62348814Y-97962582D01*
X62352218Y-97970800D01*
X62472116Y-98210754D01*
X62476634Y-98218393D01*
X62599019Y-98395471D01*
X62609337Y-98403822D01*
X62622992Y-98396698D01*
X63790918Y-97228772D01*
X63797296Y-97217092D01*
X64527348Y-97217092D01*
X64527479Y-97218925D01*
X64531730Y-97225540D01*
X65703286Y-98397096D01*
X65716686Y-98404413D01*
X65726591Y-98397426D01*
X65747422Y-98372643D01*
X65752642Y-98365458D01*
X65894595Y-98137845D01*
X65898747Y-98130005D01*
X66007215Y-97884654D01*
X66010221Y-97876304D01*
X66083034Y-97618128D01*
X66084835Y-97609435D01*
X66120710Y-97342341D01*
X66121238Y-97335948D01*
X66124908Y-97219182D01*
X66124781Y-97212739D01*
X66120644Y-97154314D01*
X67700438Y-97154314D01*
X67711322Y-97431321D01*
X67761128Y-97704031D01*
X67762537Y-97708254D01*
X67836472Y-97929864D01*
X67848862Y-97967003D01*
X67877688Y-98024692D01*
X67934354Y-98138098D01*
X67972774Y-98214989D01*
X68130391Y-98443042D01*
X68133413Y-98446311D01*
X68312780Y-98640350D01*
X68318568Y-98646612D01*
X68322022Y-98649424D01*
X68530095Y-98818822D01*
X68530099Y-98818825D01*
X68533552Y-98821636D01*
X68771052Y-98964623D01*
X68775147Y-98966357D01*
X68775149Y-98966358D01*
X69021108Y-99070508D01*
X69026329Y-99072719D01*
X69030622Y-99073857D01*
X69030627Y-99073859D01*
X69170402Y-99110919D01*
X69294291Y-99143767D01*
X69569590Y-99176351D01*
X69846734Y-99169820D01*
X70003260Y-99143767D01*
X70115803Y-99125035D01*
X70115807Y-99125034D01*
X70120193Y-99124304D01*
X70124434Y-99122963D01*
X70124437Y-99122962D01*
X70380264Y-99042054D01*
X70380266Y-99042053D01*
X70384510Y-99040711D01*
X70388521Y-99038785D01*
X70388526Y-99038783D01*
X70630393Y-98922640D01*
X70630394Y-98922639D01*
X70634412Y-98920710D01*
X70779244Y-98823937D01*
X70861205Y-98769173D01*
X70861209Y-98769170D01*
X70864913Y-98766695D01*
X70868230Y-98763724D01*
X70868234Y-98763721D01*
X71068095Y-98584710D01*
X71068096Y-98584709D01*
X71071413Y-98581738D01*
X71249792Y-98369530D01*
X71396492Y-98134305D01*
X71508584Y-97880757D01*
X71583833Y-97613944D01*
X71607774Y-97435701D01*
X71620310Y-97342373D01*
X71620311Y-97342365D01*
X71620737Y-97339191D01*
X71620839Y-97335948D01*
X71624509Y-97219182D01*
X71624509Y-97219177D01*
X71624610Y-97215960D01*
X71605031Y-96939431D01*
X71546684Y-96668420D01*
X71450733Y-96408334D01*
X71319093Y-96164362D01*
X71316452Y-96160787D01*
X71316448Y-96160780D01*
X71157043Y-95944965D01*
X71154390Y-95941373D01*
X71112307Y-95898623D01*
X70963042Y-95746996D01*
X70959911Y-95743815D01*
X70956372Y-95741114D01*
X70956365Y-95741108D01*
X70743076Y-95578332D01*
X70739536Y-95575630D01*
X70685930Y-95545609D01*
X70501553Y-95442353D01*
X70501552Y-95442353D01*
X70497662Y-95440174D01*
X70489663Y-95437080D01*
X70243270Y-95341756D01*
X70243264Y-95341754D01*
X70239115Y-95340149D01*
X70234783Y-95339145D01*
X70234780Y-95339144D01*
X70124445Y-95313570D01*
X69969054Y-95277552D01*
X69692867Y-95253632D01*
X69688432Y-95253876D01*
X69688428Y-95253876D01*
X69575985Y-95260064D01*
X69416065Y-95268865D01*
X69411702Y-95269733D01*
X69411701Y-95269733D01*
X69374324Y-95277168D01*
X69144171Y-95322949D01*
X69022495Y-95365678D01*
X68886816Y-95413324D01*
X68886808Y-95413327D01*
X68882609Y-95414802D01*
X68878656Y-95416855D01*
X68878650Y-95416858D01*
X68739754Y-95489009D01*
X68636600Y-95542594D01*
X68632985Y-95545177D01*
X68632979Y-95545181D01*
X68490474Y-95647017D01*
X68411051Y-95703774D01*
X68210462Y-95895126D01*
X68207706Y-95898622D01*
X68207705Y-95898623D01*
X68041592Y-96109336D01*
X68038836Y-96112832D01*
X68036599Y-96116684D01*
X67901832Y-96348702D01*
X67901829Y-96348708D01*
X67899598Y-96352549D01*
X67795525Y-96609493D01*
X67794454Y-96613806D01*
X67794452Y-96613811D01*
X67748145Y-96800231D01*
X67728694Y-96878537D01*
X67700438Y-97154314D01*
X66120644Y-97154314D01*
X66105750Y-96943951D01*
X66104497Y-96935148D01*
X66048039Y-96672912D01*
X66045560Y-96664379D01*
X65952717Y-96412717D01*
X65949062Y-96404622D01*
X65821686Y-96168553D01*
X65816924Y-96161048D01*
X65725787Y-96037658D01*
X65714662Y-96029218D01*
X65702066Y-96036044D01*
X64534962Y-97203148D01*
X64527348Y-97217092D01*
X63797296Y-97217092D01*
X63798532Y-97214828D01*
X63798401Y-97212995D01*
X63794150Y-97206380D01*
X62623817Y-96036047D01*
X62610977Y-96029036D01*
X62600285Y-96036833D01*
X62542910Y-96109614D01*
X62537915Y-96116963D01*
X62403179Y-96348928D01*
X62399280Y-96356886D01*
X62298575Y-96605514D01*
X62295826Y-96613976D01*
X62231163Y-96874296D01*
X62229634Y-96883057D01*
X62202293Y-97149899D01*
X62202014Y-97158782D01*
X50546000Y-97158782D01*
X50546000Y-95663472D01*
X62975807Y-95663472D01*
X62982787Y-95676597D01*
X64150128Y-96843938D01*
X64164072Y-96851552D01*
X64165905Y-96851421D01*
X64172520Y-96847170D01*
X65342755Y-95676935D01*
X65349609Y-95664383D01*
X65341402Y-95653313D01*
X65243702Y-95578750D01*
X65236277Y-95573873D01*
X65002238Y-95442805D01*
X64994185Y-95439016D01*
X64744022Y-95342235D01*
X64735532Y-95339623D01*
X64474214Y-95279053D01*
X64465436Y-95277663D01*
X64198191Y-95254517D01*
X64189320Y-95254377D01*
X63921471Y-95269118D01*
X63912661Y-95270232D01*
X63649575Y-95322562D01*
X63641000Y-95324908D01*
X63387916Y-95413784D01*
X63379749Y-95417318D01*
X63141713Y-95540969D01*
X63134141Y-95545609D01*
X62984210Y-95652750D01*
X62975807Y-95663472D01*
X50546000Y-95663472D01*
X50546000Y-94567487D01*
X62975420Y-94567487D01*
X62982810Y-94577789D01*
X63031283Y-94617252D01*
X63038562Y-94622367D01*
X63268360Y-94760717D01*
X63276284Y-94764754D01*
X63523289Y-94869348D01*
X63531694Y-94872226D01*
X63790983Y-94940974D01*
X63799704Y-94942638D01*
X64066098Y-94974168D01*
X64074963Y-94974586D01*
X64343128Y-94968266D01*
X64351988Y-94967429D01*
X64616574Y-94923390D01*
X64625231Y-94921311D01*
X64880980Y-94840429D01*
X64889241Y-94837158D01*
X65131045Y-94721045D01*
X65138770Y-94716639D01*
X65343587Y-94579785D01*
X65351875Y-94569867D01*
X65350657Y-94567487D01*
X68474520Y-94567487D01*
X68481910Y-94577789D01*
X68530383Y-94617252D01*
X68537662Y-94622367D01*
X68767460Y-94760717D01*
X68775384Y-94764754D01*
X69022389Y-94869348D01*
X69030794Y-94872226D01*
X69290083Y-94940974D01*
X69298804Y-94942638D01*
X69565198Y-94974168D01*
X69574063Y-94974586D01*
X69842228Y-94968266D01*
X69851088Y-94967429D01*
X70115674Y-94923390D01*
X70124331Y-94921311D01*
X70380080Y-94840429D01*
X70388341Y-94837158D01*
X70630145Y-94721045D01*
X70637870Y-94716639D01*
X70842687Y-94579785D01*
X70850975Y-94569867D01*
X70843718Y-94555688D01*
X69674852Y-93386822D01*
X69660908Y-93379208D01*
X69659075Y-93379339D01*
X69652460Y-93383590D01*
X68481686Y-94554364D01*
X68474520Y-94567487D01*
X65350657Y-94567487D01*
X65344618Y-94555688D01*
X64175752Y-93386822D01*
X64161808Y-93379208D01*
X64159975Y-93379339D01*
X64153360Y-93383590D01*
X62982586Y-94554364D01*
X62975420Y-94567487D01*
X50546000Y-94567487D01*
X50546000Y-92957622D01*
X62202014Y-92957622D01*
X62212545Y-93225657D01*
X62213520Y-93234486D01*
X62261713Y-93498367D01*
X62263922Y-93506969D01*
X62348814Y-93761422D01*
X62352218Y-93769640D01*
X62472116Y-94009594D01*
X62476634Y-94017233D01*
X62599019Y-94194311D01*
X62609337Y-94202662D01*
X62622992Y-94195538D01*
X63790918Y-93027612D01*
X63797296Y-93015932D01*
X64527348Y-93015932D01*
X64527479Y-93017765D01*
X64531730Y-93024380D01*
X65703286Y-94195936D01*
X65716686Y-94203253D01*
X65726591Y-94196266D01*
X65747422Y-94171483D01*
X65752642Y-94164298D01*
X65894595Y-93936685D01*
X65898747Y-93928845D01*
X66007215Y-93683494D01*
X66010221Y-93675144D01*
X66083034Y-93416968D01*
X66084835Y-93408275D01*
X66120710Y-93141181D01*
X66121238Y-93134788D01*
X66124908Y-93018022D01*
X66124781Y-93011579D01*
X66120961Y-92957622D01*
X67701114Y-92957622D01*
X67711645Y-93225657D01*
X67712620Y-93234486D01*
X67760813Y-93498367D01*
X67763022Y-93506969D01*
X67847914Y-93761422D01*
X67851318Y-93769640D01*
X67971216Y-94009594D01*
X67975734Y-94017233D01*
X68098119Y-94194311D01*
X68108437Y-94202662D01*
X68122092Y-94195538D01*
X69290018Y-93027612D01*
X69296396Y-93015932D01*
X70026448Y-93015932D01*
X70026579Y-93017765D01*
X70030830Y-93024380D01*
X71202386Y-94195936D01*
X71215786Y-94203253D01*
X71225691Y-94196266D01*
X71246522Y-94171483D01*
X71251742Y-94164298D01*
X71393695Y-93936685D01*
X71397847Y-93928845D01*
X71506315Y-93683494D01*
X71509321Y-93675144D01*
X71582134Y-93416968D01*
X71583935Y-93408275D01*
X71619810Y-93141181D01*
X71620338Y-93134788D01*
X71624008Y-93018022D01*
X71623881Y-93011579D01*
X71604850Y-92742791D01*
X71603597Y-92733988D01*
X71547139Y-92471752D01*
X71544660Y-92463219D01*
X71451817Y-92211557D01*
X71448162Y-92203462D01*
X71320786Y-91967393D01*
X71316024Y-91959888D01*
X71224887Y-91836498D01*
X71213762Y-91828058D01*
X71201166Y-91834884D01*
X70034062Y-93001988D01*
X70026448Y-93015932D01*
X69296396Y-93015932D01*
X69297632Y-93013668D01*
X69297501Y-93011835D01*
X69293250Y-93005220D01*
X68122917Y-91834887D01*
X68110077Y-91827876D01*
X68099385Y-91835673D01*
X68042010Y-91908454D01*
X68037015Y-91915803D01*
X67902279Y-92147768D01*
X67898380Y-92155726D01*
X67797675Y-92404354D01*
X67794926Y-92412816D01*
X67730263Y-92673136D01*
X67728734Y-92681897D01*
X67701393Y-92948739D01*
X67701114Y-92957622D01*
X66120961Y-92957622D01*
X66105750Y-92742791D01*
X66104497Y-92733988D01*
X66048039Y-92471752D01*
X66045560Y-92463219D01*
X65952717Y-92211557D01*
X65949062Y-92203462D01*
X65821686Y-91967393D01*
X65816924Y-91959888D01*
X65725787Y-91836498D01*
X65714662Y-91828058D01*
X65702066Y-91834884D01*
X64534962Y-93001988D01*
X64527348Y-93015932D01*
X63797296Y-93015932D01*
X63798532Y-93013668D01*
X63798401Y-93011835D01*
X63794150Y-93005220D01*
X62623817Y-91834887D01*
X62610977Y-91827876D01*
X62600285Y-91835673D01*
X62542910Y-91908454D01*
X62537915Y-91915803D01*
X62403179Y-92147768D01*
X62399280Y-92155726D01*
X62298575Y-92404354D01*
X62295826Y-92412816D01*
X62231163Y-92673136D01*
X62229634Y-92681897D01*
X62202293Y-92948739D01*
X62202014Y-92957622D01*
X50546000Y-92957622D01*
X50546000Y-91462312D01*
X62975807Y-91462312D01*
X62982787Y-91475437D01*
X64150128Y-92642778D01*
X64164072Y-92650392D01*
X64165905Y-92650261D01*
X64172520Y-92646010D01*
X65342755Y-91475775D01*
X65349609Y-91463223D01*
X65348934Y-91462312D01*
X68474907Y-91462312D01*
X68481887Y-91475437D01*
X69649228Y-92642778D01*
X69663172Y-92650392D01*
X69665005Y-92650261D01*
X69671620Y-92646010D01*
X70841855Y-91475775D01*
X70848709Y-91463223D01*
X70840502Y-91452153D01*
X70742802Y-91377590D01*
X70735377Y-91372713D01*
X70501338Y-91241645D01*
X70493285Y-91237856D01*
X70243122Y-91141075D01*
X70234632Y-91138463D01*
X69973314Y-91077893D01*
X69964536Y-91076503D01*
X69697291Y-91053357D01*
X69688420Y-91053217D01*
X69420571Y-91067958D01*
X69411761Y-91069072D01*
X69148675Y-91121402D01*
X69140100Y-91123748D01*
X68887016Y-91212624D01*
X68878849Y-91216158D01*
X68640813Y-91339809D01*
X68633241Y-91344449D01*
X68483310Y-91451590D01*
X68474907Y-91462312D01*
X65348934Y-91462312D01*
X65341402Y-91452153D01*
X65243702Y-91377590D01*
X65236277Y-91372713D01*
X65002238Y-91241645D01*
X64994185Y-91237856D01*
X64744022Y-91141075D01*
X64735532Y-91138463D01*
X64474214Y-91077893D01*
X64465436Y-91076503D01*
X64198191Y-91053357D01*
X64189320Y-91053217D01*
X63921471Y-91067958D01*
X63912661Y-91069072D01*
X63649575Y-91121402D01*
X63641000Y-91123748D01*
X63387916Y-91212624D01*
X63379749Y-91216158D01*
X63141713Y-91339809D01*
X63134141Y-91344449D01*
X62984210Y-91451590D01*
X62975807Y-91462312D01*
X50546000Y-91462312D01*
X50546000Y-88754534D01*
X62201338Y-88754534D01*
X62212222Y-89031541D01*
X62262028Y-89304251D01*
X62349762Y-89567223D01*
X62473674Y-89815209D01*
X62631291Y-90043262D01*
X62819468Y-90246832D01*
X62822922Y-90249644D01*
X63030995Y-90419042D01*
X63030999Y-90419045D01*
X63034452Y-90421856D01*
X63271952Y-90564843D01*
X63276047Y-90566577D01*
X63276049Y-90566578D01*
X63451640Y-90640931D01*
X63527229Y-90672939D01*
X63531522Y-90674077D01*
X63531527Y-90674079D01*
X63671302Y-90711139D01*
X63795191Y-90743987D01*
X64070490Y-90776571D01*
X64347634Y-90770040D01*
X64504160Y-90743987D01*
X64616703Y-90725255D01*
X64616707Y-90725254D01*
X64621093Y-90724524D01*
X64625334Y-90723183D01*
X64625337Y-90723182D01*
X64881164Y-90642274D01*
X64881166Y-90642273D01*
X64885410Y-90640931D01*
X64889421Y-90639005D01*
X64889426Y-90639003D01*
X65131293Y-90522860D01*
X65131294Y-90522859D01*
X65135312Y-90520930D01*
X65283588Y-90421856D01*
X65362105Y-90369393D01*
X65362109Y-90369390D01*
X65365813Y-90366915D01*
X65369130Y-90363944D01*
X65369134Y-90363941D01*
X65568995Y-90184930D01*
X65568996Y-90184929D01*
X65572313Y-90181958D01*
X65750692Y-89969750D01*
X65897392Y-89734525D01*
X66009484Y-89480977D01*
X66084733Y-89214164D01*
X66108674Y-89035921D01*
X66121210Y-88942593D01*
X66121211Y-88942585D01*
X66121637Y-88939411D01*
X66125510Y-88816180D01*
X66121145Y-88754534D01*
X67700438Y-88754534D01*
X67711322Y-89031541D01*
X67761128Y-89304251D01*
X67848862Y-89567223D01*
X67972774Y-89815209D01*
X68130391Y-90043262D01*
X68318568Y-90246832D01*
X68322022Y-90249644D01*
X68530095Y-90419042D01*
X68530099Y-90419045D01*
X68533552Y-90421856D01*
X68771052Y-90564843D01*
X68775147Y-90566577D01*
X68775149Y-90566578D01*
X68950740Y-90640931D01*
X69026329Y-90672939D01*
X69030622Y-90674077D01*
X69030627Y-90674079D01*
X69170402Y-90711139D01*
X69294291Y-90743987D01*
X69569590Y-90776571D01*
X69846734Y-90770040D01*
X70003260Y-90743987D01*
X70115803Y-90725255D01*
X70115807Y-90725254D01*
X70120193Y-90724524D01*
X70124434Y-90723183D01*
X70124437Y-90723182D01*
X70380264Y-90642274D01*
X70380266Y-90642273D01*
X70384510Y-90640931D01*
X70388521Y-90639005D01*
X70388526Y-90639003D01*
X70630393Y-90522860D01*
X70630394Y-90522859D01*
X70634412Y-90520930D01*
X70782688Y-90421856D01*
X70861205Y-90369393D01*
X70861209Y-90369390D01*
X70864913Y-90366915D01*
X70868230Y-90363944D01*
X70868234Y-90363941D01*
X71068095Y-90184930D01*
X71068096Y-90184929D01*
X71071413Y-90181958D01*
X71249792Y-89969750D01*
X71396492Y-89734525D01*
X71508584Y-89480977D01*
X71583833Y-89214164D01*
X71607774Y-89035921D01*
X71620310Y-88942593D01*
X71620311Y-88942585D01*
X71620737Y-88939411D01*
X71624610Y-88816180D01*
X71605031Y-88539651D01*
X71578199Y-88415019D01*
X71547620Y-88272987D01*
X71547620Y-88272985D01*
X71546684Y-88268640D01*
X71450733Y-88008554D01*
X71319093Y-87764582D01*
X71316452Y-87761007D01*
X71316448Y-87761000D01*
X71161518Y-87551243D01*
X71154390Y-87541593D01*
X71112307Y-87498843D01*
X70963042Y-87347216D01*
X70959911Y-87344035D01*
X70956372Y-87341334D01*
X70956365Y-87341328D01*
X70743076Y-87178552D01*
X70739536Y-87175850D01*
X70735647Y-87173672D01*
X70501553Y-87042573D01*
X70501552Y-87042573D01*
X70497662Y-87040394D01*
X70453043Y-87023132D01*
X70243270Y-86941976D01*
X70243264Y-86941974D01*
X70239115Y-86940369D01*
X70234783Y-86939365D01*
X70234780Y-86939364D01*
X70124445Y-86913790D01*
X69969054Y-86877772D01*
X69692867Y-86853852D01*
X69688432Y-86854096D01*
X69688428Y-86854096D01*
X69575985Y-86860284D01*
X69416065Y-86869085D01*
X69144171Y-86923169D01*
X69022495Y-86965898D01*
X68886816Y-87013544D01*
X68886808Y-87013547D01*
X68882609Y-87015022D01*
X68878656Y-87017075D01*
X68878650Y-87017078D01*
X68829571Y-87042573D01*
X68636600Y-87142814D01*
X68632985Y-87145397D01*
X68632979Y-87145401D01*
X68490474Y-87247237D01*
X68411051Y-87303994D01*
X68210462Y-87495346D01*
X68038836Y-87713052D01*
X68036599Y-87716904D01*
X67901832Y-87948922D01*
X67901829Y-87948928D01*
X67899598Y-87952769D01*
X67795525Y-88209713D01*
X67794454Y-88214026D01*
X67794452Y-88214031D01*
X67749246Y-88396022D01*
X67728694Y-88478757D01*
X67700438Y-88754534D01*
X66121145Y-88754534D01*
X66105931Y-88539651D01*
X66079099Y-88415019D01*
X66048520Y-88272987D01*
X66048520Y-88272985D01*
X66047584Y-88268640D01*
X65956599Y-88022014D01*
X65951787Y-87951180D01*
X65985716Y-87889308D01*
X66767550Y-87107475D01*
X67575253Y-86299772D01*
X67583539Y-86292232D01*
X67590018Y-86288120D01*
X67636644Y-86238468D01*
X67639398Y-86235627D01*
X67659135Y-86215890D01*
X67661615Y-86212693D01*
X67669320Y-86203671D01*
X67694159Y-86177220D01*
X67699586Y-86171441D01*
X67701639Y-86167707D01*
X68474520Y-86167707D01*
X68481910Y-86178009D01*
X68530383Y-86217472D01*
X68537662Y-86222587D01*
X68767460Y-86360937D01*
X68775384Y-86364974D01*
X69022389Y-86469568D01*
X69030794Y-86472446D01*
X69290083Y-86541194D01*
X69298804Y-86542858D01*
X69565198Y-86574388D01*
X69574063Y-86574806D01*
X69842228Y-86568486D01*
X69851088Y-86567649D01*
X70115674Y-86523610D01*
X70124331Y-86521531D01*
X70380080Y-86440649D01*
X70388341Y-86437378D01*
X70630145Y-86321265D01*
X70637870Y-86316859D01*
X70842687Y-86180005D01*
X70850975Y-86170087D01*
X70843718Y-86155908D01*
X69674852Y-84987042D01*
X69660908Y-84979428D01*
X69659075Y-84979559D01*
X69652460Y-84983810D01*
X68481686Y-86154584D01*
X68474520Y-86167707D01*
X67701639Y-86167707D01*
X67703405Y-86164495D01*
X67703407Y-86164492D01*
X67709348Y-86153686D01*
X67720199Y-86137167D01*
X67727758Y-86127421D01*
X67732614Y-86121161D01*
X67735759Y-86113892D01*
X67735762Y-86113888D01*
X67750174Y-86080583D01*
X67755391Y-86069933D01*
X67776695Y-86031180D01*
X67779962Y-86018458D01*
X67781733Y-86011558D01*
X67788137Y-85992854D01*
X67793033Y-85981540D01*
X67793033Y-85981539D01*
X67796181Y-85974265D01*
X67797420Y-85966442D01*
X67797423Y-85966432D01*
X67803099Y-85930596D01*
X67805505Y-85918976D01*
X67814528Y-85883831D01*
X67814528Y-85883830D01*
X67816500Y-85876150D01*
X67816500Y-85855896D01*
X67818051Y-85836185D01*
X67819980Y-85824006D01*
X67821220Y-85816177D01*
X67820474Y-85808284D01*
X67820474Y-85808279D01*
X67820419Y-85807695D01*
X67820507Y-85807242D01*
X67820723Y-85800362D01*
X67821833Y-85800397D01*
X67833924Y-85737995D01*
X67882968Y-85686661D01*
X67951980Y-85669991D01*
X68019049Y-85693278D01*
X68049513Y-85724204D01*
X68098118Y-85794529D01*
X68108437Y-85802882D01*
X68122092Y-85795758D01*
X69290018Y-84627832D01*
X69296396Y-84616152D01*
X70026448Y-84616152D01*
X70026579Y-84617985D01*
X70030830Y-84624600D01*
X71202386Y-85796156D01*
X71215786Y-85803473D01*
X71225691Y-85796486D01*
X71246522Y-85771703D01*
X71251742Y-85764518D01*
X71393695Y-85536905D01*
X71397847Y-85529065D01*
X71506315Y-85283714D01*
X71509321Y-85275364D01*
X71582134Y-85017188D01*
X71583935Y-85008495D01*
X71619810Y-84741401D01*
X71620338Y-84735008D01*
X71624008Y-84618242D01*
X71623881Y-84611799D01*
X71604850Y-84343011D01*
X71603597Y-84334208D01*
X71547139Y-84071972D01*
X71544660Y-84063439D01*
X71451817Y-83811777D01*
X71448162Y-83803682D01*
X71320786Y-83567613D01*
X71316024Y-83560108D01*
X71224887Y-83436718D01*
X71213762Y-83428278D01*
X71201166Y-83435104D01*
X70034062Y-84602208D01*
X70026448Y-84616152D01*
X69296396Y-84616152D01*
X69297632Y-84613888D01*
X69297501Y-84612055D01*
X69293250Y-84605440D01*
X68122917Y-83435107D01*
X68110077Y-83428096D01*
X68099388Y-83435891D01*
X68041451Y-83509385D01*
X67983570Y-83550499D01*
X67912650Y-83553793D01*
X67851207Y-83518222D01*
X67818749Y-83455079D01*
X67816500Y-83431380D01*
X67816500Y-83062532D01*
X68474907Y-83062532D01*
X68481887Y-83075657D01*
X69649228Y-84242998D01*
X69663172Y-84250612D01*
X69665005Y-84250481D01*
X69671620Y-84246230D01*
X70841855Y-83075995D01*
X70848709Y-83063443D01*
X70840502Y-83052373D01*
X70742802Y-82977810D01*
X70735377Y-82972933D01*
X70501338Y-82841865D01*
X70493285Y-82838076D01*
X70243122Y-82741295D01*
X70234632Y-82738683D01*
X69973314Y-82678113D01*
X69964536Y-82676723D01*
X69697291Y-82653577D01*
X69688420Y-82653437D01*
X69420571Y-82668178D01*
X69411761Y-82669292D01*
X69148675Y-82721622D01*
X69140100Y-82723968D01*
X68887016Y-82812844D01*
X68878849Y-82816378D01*
X68640813Y-82940029D01*
X68633241Y-82944669D01*
X68483310Y-83051810D01*
X68474907Y-83062532D01*
X67816500Y-83062532D01*
X67816500Y-81593239D01*
X67836502Y-81525118D01*
X67890158Y-81478625D01*
X67960432Y-81468521D01*
X68025012Y-81498015D01*
X68046153Y-81521600D01*
X68076973Y-81566193D01*
X68130391Y-81643482D01*
X68318568Y-81847052D01*
X68322022Y-81849864D01*
X68530095Y-82019262D01*
X68530099Y-82019265D01*
X68533552Y-82022076D01*
X68771052Y-82165063D01*
X68775147Y-82166797D01*
X68775149Y-82166798D01*
X68950740Y-82241151D01*
X69026329Y-82273159D01*
X69030622Y-82274297D01*
X69030627Y-82274299D01*
X69170402Y-82311359D01*
X69294291Y-82344207D01*
X69569590Y-82376791D01*
X69846734Y-82370260D01*
X70003260Y-82344207D01*
X70115803Y-82325475D01*
X70115807Y-82325474D01*
X70120193Y-82324744D01*
X70124434Y-82323403D01*
X70124437Y-82323402D01*
X70380264Y-82242494D01*
X70380266Y-82242493D01*
X70384510Y-82241151D01*
X70443441Y-82212853D01*
X70513506Y-82201396D01*
X70578643Y-82229638D01*
X70587077Y-82237341D01*
X72692415Y-84342679D01*
X72726441Y-84404991D01*
X72729320Y-84431774D01*
X72729320Y-118397385D01*
X72709318Y-118465506D01*
X72692415Y-118486480D01*
X70587600Y-120591295D01*
X70525288Y-120625321D01*
X70453043Y-120619712D01*
X70243270Y-120538556D01*
X70243264Y-120538554D01*
X70239115Y-120536949D01*
X70234783Y-120535945D01*
X70234780Y-120535944D01*
X70124445Y-120510370D01*
X69969054Y-120474352D01*
X69692867Y-120450432D01*
X69688432Y-120450676D01*
X69688428Y-120450676D01*
X69575985Y-120456864D01*
X69416065Y-120465665D01*
X69411702Y-120466533D01*
X69411701Y-120466533D01*
X69374324Y-120473968D01*
X69144171Y-120519749D01*
X69022495Y-120562478D01*
X68886816Y-120610124D01*
X68886808Y-120610127D01*
X68882609Y-120611602D01*
X68878656Y-120613655D01*
X68878650Y-120613658D01*
X68803180Y-120652862D01*
X68636600Y-120739394D01*
X68632985Y-120741977D01*
X68632979Y-120741981D01*
X68490474Y-120843817D01*
X68411051Y-120900574D01*
X68407831Y-120903646D01*
X68234407Y-121069084D01*
X68210462Y-121091926D01*
X68207706Y-121095422D01*
X68207705Y-121095423D01*
X68059453Y-121283480D01*
X68038836Y-121309632D01*
X68036599Y-121313484D01*
X67901832Y-121545502D01*
X67901829Y-121545508D01*
X67899598Y-121549349D01*
X67897928Y-121553472D01*
X67800142Y-121794895D01*
X67795525Y-121806293D01*
X67794454Y-121810606D01*
X67794452Y-121810611D01*
X67748145Y-121997031D01*
X67728694Y-122075337D01*
X67700438Y-122351114D01*
X67700613Y-122355566D01*
X67705793Y-122487391D01*
X67711322Y-122628121D01*
X67761128Y-122900831D01*
X67848862Y-123163803D01*
X67972774Y-123411789D01*
X68130391Y-123639842D01*
X68318568Y-123843412D01*
X68322022Y-123846224D01*
X68530095Y-124015622D01*
X68530099Y-124015625D01*
X68533552Y-124018436D01*
X68771052Y-124161423D01*
X68775147Y-124163157D01*
X68775149Y-124163158D01*
X69021108Y-124267308D01*
X69026329Y-124269519D01*
X69030622Y-124270657D01*
X69030627Y-124270659D01*
X69151971Y-124302832D01*
X69294291Y-124340567D01*
X69569590Y-124373151D01*
X69846734Y-124366620D01*
X70003260Y-124340567D01*
X70115803Y-124321835D01*
X70115807Y-124321834D01*
X70120193Y-124321104D01*
X70124434Y-124319763D01*
X70124437Y-124319762D01*
X70380264Y-124238854D01*
X70380266Y-124238853D01*
X70384510Y-124237511D01*
X70388521Y-124235585D01*
X70388526Y-124235583D01*
X70630393Y-124119440D01*
X70630394Y-124119439D01*
X70634412Y-124117510D01*
X70638769Y-124114599D01*
X70861205Y-123965973D01*
X70861209Y-123965970D01*
X70864913Y-123963495D01*
X70868230Y-123960524D01*
X70868234Y-123960521D01*
X71068095Y-123781510D01*
X71068096Y-123781509D01*
X71071413Y-123778538D01*
X71249792Y-123566330D01*
X71396492Y-123331105D01*
X71508584Y-123077557D01*
X71583833Y-122810744D01*
X71605132Y-122652174D01*
X71620310Y-122539173D01*
X71620311Y-122539165D01*
X71620737Y-122535991D01*
X71620839Y-122532748D01*
X71624509Y-122415982D01*
X71624509Y-122415977D01*
X71624610Y-122412760D01*
X71619635Y-122342498D01*
X74949952Y-122342498D01*
X74950105Y-122346886D01*
X74950105Y-122346892D01*
X74954324Y-122467691D01*
X74959755Y-122623204D01*
X75008529Y-122899815D01*
X75009884Y-122903986D01*
X75009886Y-122903993D01*
X75081803Y-123125330D01*
X75095325Y-123166946D01*
X75218454Y-123419397D01*
X75375518Y-123652255D01*
X75378462Y-123655524D01*
X75378463Y-123655526D01*
X75550168Y-123846224D01*
X75563462Y-123860988D01*
X75778627Y-124041533D01*
X76016825Y-124190375D01*
X76273420Y-124304619D01*
X76277648Y-124305831D01*
X76277647Y-124305831D01*
X76512055Y-124373046D01*
X76543417Y-124382039D01*
X76547767Y-124382650D01*
X76547770Y-124382651D01*
X76649800Y-124396990D01*
X76821561Y-124421130D01*
X77032131Y-124421130D01*
X77034317Y-124420977D01*
X77034321Y-124420977D01*
X77237809Y-124406748D01*
X77237814Y-124406747D01*
X77242194Y-124406441D01*
X77246488Y-124405528D01*
X77246490Y-124405528D01*
X77362698Y-124380827D01*
X77516934Y-124348043D01*
X77521065Y-124346539D01*
X77521070Y-124346538D01*
X77666104Y-124293749D01*
X77780872Y-124251977D01*
X77896729Y-124190375D01*
X78024981Y-124122183D01*
X78024987Y-124122179D01*
X78028873Y-124120113D01*
X78032433Y-124117526D01*
X78032437Y-124117524D01*
X78252545Y-123957606D01*
X78252548Y-123957604D01*
X78256108Y-123955017D01*
X78259275Y-123951959D01*
X78454989Y-123762960D01*
X78454993Y-123762955D01*
X78458154Y-123759903D01*
X78631080Y-123538569D01*
X78668278Y-123474140D01*
X78769314Y-123299141D01*
X78769317Y-123299136D01*
X78771519Y-123295321D01*
X78773169Y-123291237D01*
X78773172Y-123291231D01*
X78875088Y-123038978D01*
X78875089Y-123038975D01*
X78876737Y-123034896D01*
X78944688Y-122762361D01*
X78957503Y-122640442D01*
X78973589Y-122487391D01*
X78973589Y-122487388D01*
X78974048Y-122483022D01*
X78973102Y-122455913D01*
X78964399Y-122206714D01*
X78964398Y-122206708D01*
X78964245Y-122202316D01*
X78915471Y-121925705D01*
X78914116Y-121921534D01*
X78914114Y-121921527D01*
X78830036Y-121662763D01*
X78828675Y-121658574D01*
X78809176Y-121618594D01*
X78744450Y-121485888D01*
X78705546Y-121406123D01*
X78548482Y-121173265D01*
X78360538Y-120964532D01*
X78145373Y-120783987D01*
X77907175Y-120635145D01*
X77727702Y-120555238D01*
X77654594Y-120522688D01*
X77654592Y-120522687D01*
X77650580Y-120520901D01*
X77407422Y-120451177D01*
X77384810Y-120444693D01*
X77384809Y-120444693D01*
X77380583Y-120443481D01*
X77376233Y-120442870D01*
X77376230Y-120442869D01*
X77274200Y-120428530D01*
X77102439Y-120404390D01*
X76891869Y-120404390D01*
X76889683Y-120404543D01*
X76889679Y-120404543D01*
X76686191Y-120418772D01*
X76686186Y-120418773D01*
X76681806Y-120419079D01*
X76677512Y-120419992D01*
X76677510Y-120419992D01*
X76569883Y-120442869D01*
X76407066Y-120477477D01*
X76402935Y-120478981D01*
X76402930Y-120478982D01*
X76293307Y-120518882D01*
X76143128Y-120573543D01*
X76074329Y-120610124D01*
X75899019Y-120703337D01*
X75899013Y-120703341D01*
X75895127Y-120705407D01*
X75891567Y-120707994D01*
X75891563Y-120707996D01*
X75671455Y-120867914D01*
X75667892Y-120870503D01*
X75664728Y-120873559D01*
X75664725Y-120873561D01*
X75469011Y-121062560D01*
X75469007Y-121062565D01*
X75465846Y-121065617D01*
X75292920Y-121286951D01*
X75290717Y-121290767D01*
X75226221Y-121402478D01*
X75152481Y-121530199D01*
X75150831Y-121534283D01*
X75150828Y-121534289D01*
X75100614Y-121658574D01*
X75047263Y-121790624D01*
X75046198Y-121794893D01*
X75046198Y-121794895D01*
X75029705Y-121861046D01*
X74979312Y-122063159D01*
X74978853Y-122067529D01*
X74978852Y-122067533D01*
X74950411Y-122338129D01*
X74949952Y-122342498D01*
X71619635Y-122342498D01*
X71605031Y-122136231D01*
X71550038Y-121880796D01*
X71547620Y-121869567D01*
X71547620Y-121869565D01*
X71546684Y-121865220D01*
X71455699Y-121618594D01*
X71450887Y-121547760D01*
X71484816Y-121485888D01*
X73755067Y-119215637D01*
X73763357Y-119208093D01*
X73769838Y-119203980D01*
X73816479Y-119154312D01*
X73819233Y-119151471D01*
X73838954Y-119131750D01*
X73841432Y-119128555D01*
X73849138Y-119119533D01*
X73873978Y-119093081D01*
X73879406Y-119087301D01*
X73889166Y-119069548D01*
X73900019Y-119053025D01*
X73907573Y-119043286D01*
X73912433Y-119037021D01*
X73929996Y-118996437D01*
X73935203Y-118985807D01*
X73956515Y-118947040D01*
X73958486Y-118939363D01*
X73958488Y-118939358D01*
X73961552Y-118927422D01*
X73967958Y-118908710D01*
X73972853Y-118897399D01*
X73976001Y-118890125D01*
X73977241Y-118882297D01*
X73977243Y-118882290D01*
X73982919Y-118846456D01*
X73985325Y-118834836D01*
X73994348Y-118799691D01*
X73994348Y-118799690D01*
X73996320Y-118792010D01*
X73996320Y-118771756D01*
X73997871Y-118752045D01*
X73999800Y-118739866D01*
X74001040Y-118732037D01*
X73996879Y-118688018D01*
X73996320Y-118676161D01*
X73996320Y-84195947D01*
X73996847Y-84184764D01*
X73998522Y-84177271D01*
X73996382Y-84109194D01*
X73996320Y-84105235D01*
X73996320Y-84077324D01*
X73995815Y-84073324D01*
X73994882Y-84061481D01*
X73993742Y-84025209D01*
X73993493Y-84017290D01*
X73987842Y-83997838D01*
X73983834Y-83978486D01*
X73982287Y-83966243D01*
X73981294Y-83958383D01*
X73974610Y-83941500D01*
X73965020Y-83917277D01*
X73961175Y-83906050D01*
X73957788Y-83894393D01*
X73948838Y-83863587D01*
X73944804Y-83856765D01*
X73944801Y-83856759D01*
X73938526Y-83846148D01*
X73929830Y-83828398D01*
X73925292Y-83816936D01*
X73925289Y-83816931D01*
X73922372Y-83809563D01*
X73896393Y-83773805D01*
X73889877Y-83763887D01*
X73871395Y-83732637D01*
X73867362Y-83725817D01*
X73853038Y-83711493D01*
X73840196Y-83696458D01*
X73828292Y-83680073D01*
X73794226Y-83651891D01*
X73785447Y-83643902D01*
X71482017Y-81340472D01*
X71447991Y-81278160D01*
X71453056Y-81207345D01*
X71455872Y-81200429D01*
X71506782Y-81085275D01*
X71506786Y-81085264D01*
X71508584Y-81081197D01*
X71583833Y-80814384D01*
X71607774Y-80636141D01*
X71620310Y-80542813D01*
X71620311Y-80542805D01*
X71620737Y-80539631D01*
X71620838Y-80536420D01*
X71624509Y-80419622D01*
X71624509Y-80419617D01*
X71624610Y-80416400D01*
X71605031Y-80139871D01*
X71546684Y-79868860D01*
X71450733Y-79608774D01*
X71319093Y-79364802D01*
X71316452Y-79361227D01*
X71316448Y-79361220D01*
X71157043Y-79145405D01*
X71154390Y-79141813D01*
X71112307Y-79099063D01*
X70963042Y-78947436D01*
X70959911Y-78944255D01*
X70956372Y-78941554D01*
X70956365Y-78941548D01*
X70743076Y-78778772D01*
X70739536Y-78776070D01*
X70735647Y-78773892D01*
X70501553Y-78642793D01*
X70501552Y-78642793D01*
X70497662Y-78640614D01*
X70437428Y-78617311D01*
X70243270Y-78542196D01*
X70243264Y-78542194D01*
X70239115Y-78540589D01*
X70234783Y-78539585D01*
X70234780Y-78539584D01*
X70124445Y-78514010D01*
X69969054Y-78477992D01*
X69692867Y-78454072D01*
X69688432Y-78454316D01*
X69688428Y-78454316D01*
X69575985Y-78460504D01*
X69416065Y-78469305D01*
X69144171Y-78523389D01*
X69022495Y-78566118D01*
X68886816Y-78613764D01*
X68886808Y-78613767D01*
X68882609Y-78615242D01*
X68878656Y-78617295D01*
X68878650Y-78617298D01*
X68829571Y-78642793D01*
X68636600Y-78743034D01*
X68632985Y-78745617D01*
X68632979Y-78745621D01*
X68490474Y-78847457D01*
X68411051Y-78904214D01*
X68210462Y-79095566D01*
X68207706Y-79099062D01*
X68207705Y-79099063D01*
X68041450Y-79309956D01*
X67983569Y-79351069D01*
X67912648Y-79354363D01*
X67851206Y-79318791D01*
X67818749Y-79255648D01*
X67816500Y-79231950D01*
X67816500Y-77392079D01*
X67836502Y-77323958D01*
X67890158Y-77277465D01*
X67960432Y-77267361D01*
X68025012Y-77296855D01*
X68046153Y-77320440D01*
X68060397Y-77341049D01*
X68130391Y-77442322D01*
X68318568Y-77645892D01*
X68322022Y-77648704D01*
X68530095Y-77818102D01*
X68530099Y-77818105D01*
X68533552Y-77820916D01*
X68771052Y-77963903D01*
X68775147Y-77965637D01*
X68775149Y-77965638D01*
X68983547Y-78053883D01*
X69026329Y-78071999D01*
X69030622Y-78073137D01*
X69030627Y-78073139D01*
X69151971Y-78105312D01*
X69294291Y-78143047D01*
X69569590Y-78175631D01*
X69846734Y-78169100D01*
X69969483Y-78148669D01*
X70115803Y-78124315D01*
X70115807Y-78124314D01*
X70120193Y-78123584D01*
X70124434Y-78122243D01*
X70124437Y-78122242D01*
X70380264Y-78041334D01*
X70380266Y-78041333D01*
X70384510Y-78039991D01*
X70388521Y-78038065D01*
X70388526Y-78038063D01*
X70630393Y-77921920D01*
X70630394Y-77921919D01*
X70634412Y-77919990D01*
X70638118Y-77917514D01*
X70861205Y-77768453D01*
X70861209Y-77768450D01*
X70864913Y-77765975D01*
X70868230Y-77763004D01*
X70868234Y-77763001D01*
X71068095Y-77583990D01*
X71068096Y-77583989D01*
X71071413Y-77581018D01*
X71249792Y-77368810D01*
X71396492Y-77133585D01*
X71415969Y-77089530D01*
X71472325Y-76962054D01*
X71508584Y-76880037D01*
X71583833Y-76613224D01*
X71607774Y-76434981D01*
X71620310Y-76341653D01*
X71620311Y-76341645D01*
X71620737Y-76338471D01*
X71620838Y-76335260D01*
X71624509Y-76218462D01*
X71624509Y-76218457D01*
X71624610Y-76215240D01*
X71619635Y-76144978D01*
X74949952Y-76144978D01*
X74950105Y-76149366D01*
X74950105Y-76149372D01*
X74952518Y-76218462D01*
X74959755Y-76425684D01*
X75008529Y-76702295D01*
X75009884Y-76706466D01*
X75009886Y-76706473D01*
X75073225Y-76901409D01*
X75095325Y-76969426D01*
X75218454Y-77221877D01*
X75375518Y-77454735D01*
X75378462Y-77458004D01*
X75378463Y-77458006D01*
X75550168Y-77648704D01*
X75563462Y-77663468D01*
X75778627Y-77844013D01*
X76016825Y-77992855D01*
X76273420Y-78107099D01*
X76277648Y-78108311D01*
X76277647Y-78108311D01*
X76512055Y-78175526D01*
X76543417Y-78184519D01*
X76547767Y-78185130D01*
X76547770Y-78185131D01*
X76649800Y-78199470D01*
X76821561Y-78223610D01*
X77032131Y-78223610D01*
X77034317Y-78223457D01*
X77034321Y-78223457D01*
X77237809Y-78209228D01*
X77237814Y-78209227D01*
X77242194Y-78208921D01*
X77246488Y-78208008D01*
X77246490Y-78208008D01*
X77362698Y-78183307D01*
X77516934Y-78150523D01*
X77521065Y-78149019D01*
X77521070Y-78149018D01*
X77666104Y-78096229D01*
X77780872Y-78054457D01*
X77896729Y-77992855D01*
X78024981Y-77924663D01*
X78024987Y-77924659D01*
X78028873Y-77922593D01*
X78032433Y-77920006D01*
X78032437Y-77920004D01*
X78252545Y-77760086D01*
X78252548Y-77760084D01*
X78256108Y-77757497D01*
X78259275Y-77754439D01*
X78454989Y-77565440D01*
X78454993Y-77565435D01*
X78458154Y-77562383D01*
X78631080Y-77341049D01*
X78673624Y-77267361D01*
X78769314Y-77101621D01*
X78769317Y-77101616D01*
X78771519Y-77097801D01*
X78773169Y-77093717D01*
X78773172Y-77093711D01*
X78875088Y-76841458D01*
X78875089Y-76841455D01*
X78876737Y-76837376D01*
X78944688Y-76564841D01*
X78948634Y-76527304D01*
X78973589Y-76289871D01*
X78973589Y-76289868D01*
X78974048Y-76285502D01*
X78971595Y-76215240D01*
X78964399Y-76009194D01*
X78964398Y-76009188D01*
X78964245Y-76004796D01*
X78915471Y-75728185D01*
X78914116Y-75724014D01*
X78914114Y-75724007D01*
X78830036Y-75465243D01*
X78828675Y-75461054D01*
X78804799Y-75412100D01*
X78716048Y-75230136D01*
X78705546Y-75208603D01*
X78548482Y-74975745D01*
X78541635Y-74968140D01*
X78363486Y-74770286D01*
X78363485Y-74770285D01*
X78360538Y-74767012D01*
X78145373Y-74586467D01*
X77907175Y-74437625D01*
X77650580Y-74323381D01*
X77457097Y-74267901D01*
X77384810Y-74247173D01*
X77384809Y-74247173D01*
X77380583Y-74245961D01*
X77376233Y-74245350D01*
X77376230Y-74245349D01*
X77274200Y-74231010D01*
X77102439Y-74206870D01*
X76891869Y-74206870D01*
X76889683Y-74207023D01*
X76889679Y-74207023D01*
X76686191Y-74221252D01*
X76686186Y-74221253D01*
X76681806Y-74221559D01*
X76677512Y-74222472D01*
X76677510Y-74222472D01*
X76573760Y-74244525D01*
X76407066Y-74279957D01*
X76402935Y-74281461D01*
X76402930Y-74281462D01*
X76293307Y-74321362D01*
X76143128Y-74376023D01*
X76139241Y-74378090D01*
X75899019Y-74505817D01*
X75899013Y-74505821D01*
X75895127Y-74507887D01*
X75891567Y-74510474D01*
X75891563Y-74510476D01*
X75671455Y-74670394D01*
X75667892Y-74672983D01*
X75664728Y-74676039D01*
X75664725Y-74676041D01*
X75469011Y-74865040D01*
X75469007Y-74865045D01*
X75465846Y-74868097D01*
X75463139Y-74871562D01*
X75463137Y-74871564D01*
X75411645Y-74937471D01*
X75292920Y-75089431D01*
X75290717Y-75093247D01*
X75226221Y-75204958D01*
X75152481Y-75332679D01*
X75150831Y-75336763D01*
X75150828Y-75336769D01*
X75058783Y-75564591D01*
X75047263Y-75593104D01*
X74979312Y-75865639D01*
X74978853Y-75870009D01*
X74978852Y-75870013D01*
X74950411Y-76140609D01*
X74949952Y-76144978D01*
X71619635Y-76144978D01*
X71605031Y-75938711D01*
X71546684Y-75667700D01*
X71450733Y-75407614D01*
X71319093Y-75163642D01*
X71316452Y-75160067D01*
X71316448Y-75160060D01*
X71174692Y-74968140D01*
X71154390Y-74940653D01*
X71134095Y-74920036D01*
X71058915Y-74843667D01*
X70959911Y-74743095D01*
X70956372Y-74740394D01*
X70956365Y-74740388D01*
X70771492Y-74599298D01*
X70739536Y-74574910D01*
X70707134Y-74556764D01*
X70501553Y-74441633D01*
X70501552Y-74441633D01*
X70497662Y-74439454D01*
X70488320Y-74435840D01*
X70243270Y-74341036D01*
X70243264Y-74341034D01*
X70239115Y-74339429D01*
X70234783Y-74338425D01*
X70234780Y-74338424D01*
X70124445Y-74312850D01*
X69969054Y-74276832D01*
X69692867Y-74252912D01*
X69688432Y-74253156D01*
X69688428Y-74253156D01*
X69575985Y-74259344D01*
X69416065Y-74268145D01*
X69144171Y-74322229D01*
X69028541Y-74362835D01*
X68886816Y-74412604D01*
X68886808Y-74412607D01*
X68882609Y-74414082D01*
X68878656Y-74416135D01*
X68878650Y-74416138D01*
X68782694Y-74465984D01*
X68636600Y-74541874D01*
X68632985Y-74544457D01*
X68632979Y-74544461D01*
X68516834Y-74627460D01*
X68411051Y-74703054D01*
X68407831Y-74706126D01*
X68222745Y-74882689D01*
X68210462Y-74894406D01*
X68207706Y-74897902D01*
X68207705Y-74897903D01*
X68041450Y-75108796D01*
X67983569Y-75149909D01*
X67912648Y-75153203D01*
X67851206Y-75117631D01*
X67818749Y-75054488D01*
X67816500Y-75030790D01*
X67816500Y-73593594D01*
X67836502Y-73525473D01*
X67853405Y-73504499D01*
X72655499Y-68702405D01*
X72717811Y-68668379D01*
X72744594Y-68665500D01*
X77822404Y-68665500D01*
X77890525Y-68685502D01*
X77930122Y-68726133D01*
X77996377Y-68835317D01*
X77999874Y-68839347D01*
X78086438Y-68939103D01*
X78147477Y-69009445D01*
X78151608Y-69012832D01*
X78321627Y-69152240D01*
X78321633Y-69152244D01*
X78325755Y-69155624D01*
X78330391Y-69158263D01*
X78330394Y-69158265D01*
X78400357Y-69198090D01*
X78526114Y-69269675D01*
X78742825Y-69348337D01*
X78748074Y-69349286D01*
X78748077Y-69349287D01*
X78965608Y-69388623D01*
X78965615Y-69388624D01*
X78969692Y-69389361D01*
X78987414Y-69390197D01*
X78992356Y-69390430D01*
X78992363Y-69390430D01*
X78993844Y-69390500D01*
X79455890Y-69390500D01*
X79522809Y-69384822D01*
X79622409Y-69376371D01*
X79622413Y-69376370D01*
X79627720Y-69375920D01*
X79632875Y-69374582D01*
X79632881Y-69374581D01*
X79845703Y-69319343D01*
X79845707Y-69319342D01*
X79850872Y-69318001D01*
X79855738Y-69315809D01*
X79855741Y-69315808D01*
X80056202Y-69225507D01*
X80061075Y-69223312D01*
X80252319Y-69094559D01*
X80294941Y-69053900D01*
X80384004Y-68968937D01*
X80419135Y-68935424D01*
X80556754Y-68750458D01*
X80560330Y-68743426D01*
X80647686Y-68571607D01*
X80661240Y-68544949D01*
X80665578Y-68530981D01*
X80728024Y-68329871D01*
X80729607Y-68324773D01*
X80746395Y-68198109D01*
X80759198Y-68101511D01*
X80759198Y-68101506D01*
X80759898Y-68096226D01*
X80751249Y-67865842D01*
X80744054Y-67831548D01*
X80705002Y-67645428D01*
X80703907Y-67640209D01*
X80691734Y-67609384D01*
X80621185Y-67430744D01*
X80621184Y-67430742D01*
X80619224Y-67425779D01*
X80613560Y-67416444D01*
X80502390Y-67233243D01*
X80499623Y-67228683D01*
X80496126Y-67224653D01*
X80352023Y-67058588D01*
X80352021Y-67058586D01*
X80348523Y-67054555D01*
X80312471Y-67024994D01*
X80272476Y-66966334D01*
X80270545Y-66895364D01*
X80307290Y-66834616D01*
X80326059Y-66820416D01*
X80465807Y-66733937D01*
X80477208Y-66724901D01*
X80591739Y-66610171D01*
X80600751Y-66598760D01*
X80685816Y-66460757D01*
X80691963Y-66447576D01*
X80743138Y-66293290D01*
X80746005Y-66279914D01*
X80755672Y-66185562D01*
X80756000Y-66179146D01*
X80756000Y-65804115D01*
X80751525Y-65788876D01*
X80750135Y-65787671D01*
X80742452Y-65786000D01*
X77758116Y-65786000D01*
X77742877Y-65790475D01*
X77741672Y-65791865D01*
X77740001Y-65799548D01*
X77740001Y-66179095D01*
X77740338Y-66185614D01*
X77750257Y-66281206D01*
X77753149Y-66294600D01*
X77804588Y-66448784D01*
X77810761Y-66461962D01*
X77896063Y-66599807D01*
X77905099Y-66611208D01*
X78019829Y-66725739D01*
X78031243Y-66734753D01*
X78170713Y-66820723D01*
X78218207Y-66873495D01*
X78229631Y-66943566D01*
X78201357Y-67008690D01*
X78191574Y-67019149D01*
X78076865Y-67128576D01*
X78073682Y-67132854D01*
X78065822Y-67143418D01*
X77939246Y-67313542D01*
X77936830Y-67318294D01*
X77936825Y-67318302D01*
X77931078Y-67329606D01*
X77882375Y-67381263D01*
X77818762Y-67398500D01*
X72508768Y-67398500D01*
X72497585Y-67397973D01*
X72490092Y-67396298D01*
X72482166Y-67396547D01*
X72482165Y-67396547D01*
X72422002Y-67398438D01*
X72418044Y-67398500D01*
X72390144Y-67398500D01*
X72386154Y-67399004D01*
X72374320Y-67399936D01*
X72330111Y-67401326D01*
X72322495Y-67403539D01*
X72322493Y-67403539D01*
X72310652Y-67406979D01*
X72291293Y-67410988D01*
X72289983Y-67411154D01*
X72271203Y-67413526D01*
X72263837Y-67416442D01*
X72263831Y-67416444D01*
X72230098Y-67429800D01*
X72218868Y-67433645D01*
X72207320Y-67437000D01*
X72176407Y-67445981D01*
X72169584Y-67450016D01*
X72158966Y-67456295D01*
X72141213Y-67464992D01*
X72133568Y-67468019D01*
X72122383Y-67472448D01*
X72115968Y-67477109D01*
X72086612Y-67498437D01*
X72076695Y-67504951D01*
X72038638Y-67527458D01*
X72024317Y-67541779D01*
X72009284Y-67554619D01*
X71992893Y-67566528D01*
X71987842Y-67572634D01*
X71964702Y-67600605D01*
X71956712Y-67609384D01*
X66790747Y-72775348D01*
X66782461Y-72782888D01*
X66775982Y-72787000D01*
X66770557Y-72792777D01*
X66729357Y-72836651D01*
X66726602Y-72839493D01*
X66706865Y-72859230D01*
X66704385Y-72862427D01*
X66696682Y-72871447D01*
X66666414Y-72903679D01*
X66662595Y-72910625D01*
X66662593Y-72910628D01*
X66656652Y-72921434D01*
X66645801Y-72937953D01*
X66633386Y-72953959D01*
X66630241Y-72961228D01*
X66630238Y-72961232D01*
X66615826Y-72994537D01*
X66610609Y-73005187D01*
X66589305Y-73043940D01*
X66587334Y-73051615D01*
X66587334Y-73051616D01*
X66584267Y-73063562D01*
X66577863Y-73082266D01*
X66569819Y-73100855D01*
X66568580Y-73108678D01*
X66568577Y-73108688D01*
X66562901Y-73144524D01*
X66560495Y-73156144D01*
X66549500Y-73198970D01*
X66549500Y-73219224D01*
X66547949Y-73238934D01*
X66544780Y-73258943D01*
X66545526Y-73266835D01*
X66548941Y-73302961D01*
X66549500Y-73314819D01*
X66549500Y-85481526D01*
X66529498Y-85549647D01*
X66512595Y-85570621D01*
X65088500Y-86994715D01*
X65026188Y-87028741D01*
X64953943Y-87023132D01*
X64744170Y-86941976D01*
X64744164Y-86941974D01*
X64740015Y-86940369D01*
X64735683Y-86939365D01*
X64735680Y-86939364D01*
X64625345Y-86913790D01*
X64469954Y-86877772D01*
X64193767Y-86853852D01*
X64189332Y-86854096D01*
X64189328Y-86854096D01*
X64076885Y-86860284D01*
X63916965Y-86869085D01*
X63645071Y-86923169D01*
X63523395Y-86965898D01*
X63387716Y-87013544D01*
X63387708Y-87013547D01*
X63383509Y-87015022D01*
X63379556Y-87017075D01*
X63379550Y-87017078D01*
X63330471Y-87042573D01*
X63137500Y-87142814D01*
X63133885Y-87145397D01*
X63133879Y-87145401D01*
X62991374Y-87247237D01*
X62911951Y-87303994D01*
X62711362Y-87495346D01*
X62539736Y-87713052D01*
X62537499Y-87716904D01*
X62402732Y-87948922D01*
X62402729Y-87948928D01*
X62400498Y-87952769D01*
X62296425Y-88209713D01*
X62295354Y-88214026D01*
X62295352Y-88214031D01*
X62250146Y-88396022D01*
X62229594Y-88478757D01*
X62201338Y-88754534D01*
X50546000Y-88754534D01*
X50546000Y-87102000D01*
X57411302Y-87102000D01*
X57431257Y-87330087D01*
X57432681Y-87335400D01*
X57432681Y-87335402D01*
X57487078Y-87538411D01*
X57490516Y-87551243D01*
X57492839Y-87556224D01*
X57492839Y-87556225D01*
X57584951Y-87753762D01*
X57584954Y-87753767D01*
X57587277Y-87758749D01*
X57718602Y-87946300D01*
X57880500Y-88108198D01*
X57885008Y-88111355D01*
X57885011Y-88111357D01*
X57963189Y-88166098D01*
X58068051Y-88239523D01*
X58073033Y-88241846D01*
X58073038Y-88241849D01*
X58270575Y-88333961D01*
X58275557Y-88336284D01*
X58280865Y-88337706D01*
X58280867Y-88337707D01*
X58491398Y-88394119D01*
X58491400Y-88394119D01*
X58496713Y-88395543D01*
X58724800Y-88415498D01*
X58952887Y-88395543D01*
X58958200Y-88394119D01*
X58958202Y-88394119D01*
X59168733Y-88337707D01*
X59168735Y-88337706D01*
X59174043Y-88336284D01*
X59179025Y-88333961D01*
X59376562Y-88241849D01*
X59376567Y-88241846D01*
X59381549Y-88239523D01*
X59486411Y-88166098D01*
X59564589Y-88111357D01*
X59564592Y-88111355D01*
X59569100Y-88108198D01*
X59730998Y-87946300D01*
X59862323Y-87758749D01*
X59864646Y-87753767D01*
X59864649Y-87753762D01*
X59956761Y-87556225D01*
X59956761Y-87556224D01*
X59959084Y-87551243D01*
X59962523Y-87538411D01*
X60016919Y-87335402D01*
X60016919Y-87335400D01*
X60018343Y-87330087D01*
X60038298Y-87102000D01*
X60018343Y-86873913D01*
X60016919Y-86868598D01*
X60016918Y-86868591D01*
X60001341Y-86810459D01*
X60003030Y-86739483D01*
X60033952Y-86688752D01*
X60554997Y-86167707D01*
X62975420Y-86167707D01*
X62982810Y-86178009D01*
X63031283Y-86217472D01*
X63038562Y-86222587D01*
X63268360Y-86360937D01*
X63276284Y-86364974D01*
X63523289Y-86469568D01*
X63531694Y-86472446D01*
X63790983Y-86541194D01*
X63799704Y-86542858D01*
X64066098Y-86574388D01*
X64074963Y-86574806D01*
X64343128Y-86568486D01*
X64351988Y-86567649D01*
X64616574Y-86523610D01*
X64625231Y-86521531D01*
X64880980Y-86440649D01*
X64889241Y-86437378D01*
X65131045Y-86321265D01*
X65138770Y-86316859D01*
X65343587Y-86180005D01*
X65351875Y-86170087D01*
X65344618Y-86155908D01*
X64175752Y-84987042D01*
X64161808Y-84979428D01*
X64159975Y-84979559D01*
X64153360Y-84983810D01*
X62982586Y-86154584D01*
X62975420Y-86167707D01*
X60554997Y-86167707D01*
X60704246Y-86018458D01*
X60712536Y-86010914D01*
X60719017Y-86006801D01*
X60765658Y-85957133D01*
X60768412Y-85954292D01*
X60788133Y-85934571D01*
X60790611Y-85931376D01*
X60798317Y-85922354D01*
X60823157Y-85895902D01*
X60828585Y-85890122D01*
X60838345Y-85872369D01*
X60849198Y-85855846D01*
X60856752Y-85846107D01*
X60861612Y-85839842D01*
X60879175Y-85799258D01*
X60884382Y-85788628D01*
X60905694Y-85749861D01*
X60907665Y-85742184D01*
X60907667Y-85742179D01*
X60910731Y-85730243D01*
X60917137Y-85711531D01*
X60922033Y-85700218D01*
X60925180Y-85692946D01*
X60932096Y-85649282D01*
X60934503Y-85637661D01*
X60943527Y-85602512D01*
X60943527Y-85602511D01*
X60945499Y-85594831D01*
X60945499Y-85574570D01*
X60947050Y-85554859D01*
X60947876Y-85549647D01*
X60950218Y-85534858D01*
X60946058Y-85490847D01*
X60945499Y-85478990D01*
X60945499Y-84557842D01*
X62202014Y-84557842D01*
X62212545Y-84825877D01*
X62213520Y-84834706D01*
X62261713Y-85098587D01*
X62263922Y-85107189D01*
X62348814Y-85361642D01*
X62352218Y-85369860D01*
X62472116Y-85609814D01*
X62476634Y-85617453D01*
X62599019Y-85794531D01*
X62609337Y-85802882D01*
X62622992Y-85795758D01*
X63790918Y-84627832D01*
X63797296Y-84616152D01*
X64527348Y-84616152D01*
X64527479Y-84617985D01*
X64531730Y-84624600D01*
X65703286Y-85796156D01*
X65716686Y-85803473D01*
X65726591Y-85796486D01*
X65747422Y-85771703D01*
X65752642Y-85764518D01*
X65894595Y-85536905D01*
X65898747Y-85529065D01*
X66007215Y-85283714D01*
X66010221Y-85275364D01*
X66083034Y-85017188D01*
X66084835Y-85008495D01*
X66120710Y-84741401D01*
X66121238Y-84735008D01*
X66124908Y-84618242D01*
X66124781Y-84611799D01*
X66105750Y-84343011D01*
X66104497Y-84334208D01*
X66048039Y-84071972D01*
X66045560Y-84063439D01*
X65952717Y-83811777D01*
X65949062Y-83803682D01*
X65821686Y-83567613D01*
X65816924Y-83560108D01*
X65725787Y-83436718D01*
X65714662Y-83428278D01*
X65702066Y-83435104D01*
X64534962Y-84602208D01*
X64527348Y-84616152D01*
X63797296Y-84616152D01*
X63798532Y-84613888D01*
X63798401Y-84612055D01*
X63794150Y-84605440D01*
X62623817Y-83435107D01*
X62610977Y-83428096D01*
X62600285Y-83435893D01*
X62542910Y-83508674D01*
X62537915Y-83516023D01*
X62403179Y-83747988D01*
X62399280Y-83755946D01*
X62298575Y-84004574D01*
X62295826Y-84013036D01*
X62231163Y-84273356D01*
X62229634Y-84282117D01*
X62202293Y-84548959D01*
X62202014Y-84557842D01*
X60945499Y-84557842D01*
X60945499Y-83062532D01*
X62975807Y-83062532D01*
X62982787Y-83075657D01*
X64150128Y-84242998D01*
X64164072Y-84250612D01*
X64165905Y-84250481D01*
X64172520Y-84246230D01*
X65342755Y-83075995D01*
X65349609Y-83063443D01*
X65341402Y-83052373D01*
X65243702Y-82977810D01*
X65236277Y-82972933D01*
X65002238Y-82841865D01*
X64994185Y-82838076D01*
X64744022Y-82741295D01*
X64735532Y-82738683D01*
X64474214Y-82678113D01*
X64465436Y-82676723D01*
X64198191Y-82653577D01*
X64189320Y-82653437D01*
X63921471Y-82668178D01*
X63912661Y-82669292D01*
X63649575Y-82721622D01*
X63641000Y-82723968D01*
X63387916Y-82812844D01*
X63379749Y-82816378D01*
X63141713Y-82940029D01*
X63134141Y-82944669D01*
X62984210Y-83051810D01*
X62975807Y-83062532D01*
X60945499Y-83062532D01*
X60945499Y-80354754D01*
X62201338Y-80354754D01*
X62201513Y-80359206D01*
X62208008Y-80524500D01*
X62212222Y-80631761D01*
X62262028Y-80904471D01*
X62349762Y-81167443D01*
X62473674Y-81415429D01*
X62631291Y-81643482D01*
X62819468Y-81847052D01*
X62822922Y-81849864D01*
X63030995Y-82019262D01*
X63030999Y-82019265D01*
X63034452Y-82022076D01*
X63271952Y-82165063D01*
X63276047Y-82166797D01*
X63276049Y-82166798D01*
X63451640Y-82241151D01*
X63527229Y-82273159D01*
X63531522Y-82274297D01*
X63531527Y-82274299D01*
X63671302Y-82311359D01*
X63795191Y-82344207D01*
X64070490Y-82376791D01*
X64347634Y-82370260D01*
X64504160Y-82344207D01*
X64616703Y-82325475D01*
X64616707Y-82325474D01*
X64621093Y-82324744D01*
X64625334Y-82323403D01*
X64625337Y-82323402D01*
X64881164Y-82242494D01*
X64881166Y-82242493D01*
X64885410Y-82241151D01*
X64889421Y-82239225D01*
X64889426Y-82239223D01*
X65131293Y-82123080D01*
X65131294Y-82123079D01*
X65135312Y-82121150D01*
X65283588Y-82022076D01*
X65362105Y-81969613D01*
X65362109Y-81969610D01*
X65365813Y-81967135D01*
X65369130Y-81964164D01*
X65369134Y-81964161D01*
X65568995Y-81785150D01*
X65568996Y-81785149D01*
X65572313Y-81782178D01*
X65750692Y-81569970D01*
X65897392Y-81334745D01*
X65908914Y-81308684D01*
X66007684Y-81085268D01*
X66009484Y-81081197D01*
X66084733Y-80814384D01*
X66108674Y-80636141D01*
X66121210Y-80542813D01*
X66121211Y-80542805D01*
X66121637Y-80539631D01*
X66121738Y-80536420D01*
X66125409Y-80419622D01*
X66125409Y-80419617D01*
X66125510Y-80416400D01*
X66105931Y-80139871D01*
X66047584Y-79868860D01*
X65951633Y-79608774D01*
X65819993Y-79364802D01*
X65817352Y-79361227D01*
X65817348Y-79361220D01*
X65657943Y-79145405D01*
X65655290Y-79141813D01*
X65613207Y-79099063D01*
X65463942Y-78947436D01*
X65460811Y-78944255D01*
X65457272Y-78941554D01*
X65457265Y-78941548D01*
X65243976Y-78778772D01*
X65240436Y-78776070D01*
X65236547Y-78773892D01*
X65002453Y-78642793D01*
X65002452Y-78642793D01*
X64998562Y-78640614D01*
X64938328Y-78617311D01*
X64744170Y-78542196D01*
X64744164Y-78542194D01*
X64740015Y-78540589D01*
X64735683Y-78539585D01*
X64735680Y-78539584D01*
X64625345Y-78514010D01*
X64469954Y-78477992D01*
X64193767Y-78454072D01*
X64189332Y-78454316D01*
X64189328Y-78454316D01*
X64076885Y-78460504D01*
X63916965Y-78469305D01*
X63645071Y-78523389D01*
X63523395Y-78566118D01*
X63387716Y-78613764D01*
X63387708Y-78613767D01*
X63383509Y-78615242D01*
X63379556Y-78617295D01*
X63379550Y-78617298D01*
X63330471Y-78642793D01*
X63137500Y-78743034D01*
X63133885Y-78745617D01*
X63133879Y-78745621D01*
X62991374Y-78847457D01*
X62911951Y-78904214D01*
X62711362Y-79095566D01*
X62539736Y-79313272D01*
X62517782Y-79351069D01*
X62402732Y-79549142D01*
X62402729Y-79549148D01*
X62400498Y-79552989D01*
X62296425Y-79809933D01*
X62295354Y-79814246D01*
X62295352Y-79814251D01*
X62249045Y-80000671D01*
X62229594Y-80078977D01*
X62201338Y-80354754D01*
X60945499Y-80354754D01*
X60945499Y-76153594D01*
X62201338Y-76153594D01*
X62201513Y-76158046D01*
X62206693Y-76289871D01*
X62212222Y-76430601D01*
X62262028Y-76703311D01*
X62349762Y-76966283D01*
X62473674Y-77214269D01*
X62631291Y-77442322D01*
X62819468Y-77645892D01*
X62822922Y-77648704D01*
X63030995Y-77818102D01*
X63030999Y-77818105D01*
X63034452Y-77820916D01*
X63271952Y-77963903D01*
X63276047Y-77965637D01*
X63276049Y-77965638D01*
X63484447Y-78053883D01*
X63527229Y-78071999D01*
X63531522Y-78073137D01*
X63531527Y-78073139D01*
X63652871Y-78105312D01*
X63795191Y-78143047D01*
X64070490Y-78175631D01*
X64347634Y-78169100D01*
X64470383Y-78148669D01*
X64616703Y-78124315D01*
X64616707Y-78124314D01*
X64621093Y-78123584D01*
X64625334Y-78122243D01*
X64625337Y-78122242D01*
X64881164Y-78041334D01*
X64881166Y-78041333D01*
X64885410Y-78039991D01*
X64889421Y-78038065D01*
X64889426Y-78038063D01*
X65131293Y-77921920D01*
X65131294Y-77921919D01*
X65135312Y-77919990D01*
X65139018Y-77917514D01*
X65362105Y-77768453D01*
X65362109Y-77768450D01*
X65365813Y-77765975D01*
X65369130Y-77763004D01*
X65369134Y-77763001D01*
X65568995Y-77583990D01*
X65568996Y-77583989D01*
X65572313Y-77581018D01*
X65750692Y-77368810D01*
X65897392Y-77133585D01*
X65916869Y-77089530D01*
X65973225Y-76962054D01*
X66009484Y-76880037D01*
X66084733Y-76613224D01*
X66108674Y-76434981D01*
X66121210Y-76341653D01*
X66121211Y-76341645D01*
X66121637Y-76338471D01*
X66121738Y-76335260D01*
X66125409Y-76218462D01*
X66125409Y-76218457D01*
X66125510Y-76215240D01*
X66105931Y-75938711D01*
X66047584Y-75667700D01*
X65951633Y-75407614D01*
X65819993Y-75163642D01*
X65817352Y-75160067D01*
X65817348Y-75160060D01*
X65675592Y-74968140D01*
X65655290Y-74940653D01*
X65634995Y-74920036D01*
X65559815Y-74843667D01*
X65460811Y-74743095D01*
X65457272Y-74740394D01*
X65457265Y-74740388D01*
X65272392Y-74599298D01*
X65240436Y-74574910D01*
X64998562Y-74439454D01*
X64994398Y-74437843D01*
X64876978Y-74392416D01*
X64820663Y-74349183D01*
X64796661Y-74282366D01*
X64796440Y-74274904D01*
X64796440Y-69562542D01*
X64816442Y-69494421D01*
X64833345Y-69473447D01*
X66667387Y-67639405D01*
X66729699Y-67605379D01*
X66756482Y-67602500D01*
X67965022Y-67602500D01*
X68027204Y-67595745D01*
X68163593Y-67544615D01*
X68225208Y-67498437D01*
X68272966Y-67462645D01*
X68272969Y-67462642D01*
X68280149Y-67457261D01*
X68285530Y-67450081D01*
X68291881Y-67443730D01*
X68294023Y-67445872D01*
X68338734Y-67412436D01*
X68409552Y-67407406D01*
X68450923Y-67425523D01*
X68451120Y-67425182D01*
X68454186Y-67426952D01*
X68454978Y-67427299D01*
X68455877Y-67427929D01*
X68465377Y-67433414D01*
X68662835Y-67525490D01*
X68673127Y-67529236D01*
X68883576Y-67585625D01*
X68894369Y-67587528D01*
X69111413Y-67606517D01*
X69122363Y-67606517D01*
X69339407Y-67587528D01*
X69350200Y-67585625D01*
X69560649Y-67529236D01*
X69570941Y-67525490D01*
X69768399Y-67433414D01*
X69777894Y-67427931D01*
X69829936Y-67391491D01*
X69838312Y-67381012D01*
X69831244Y-67367566D01*
X68846773Y-66383095D01*
X68812747Y-66320783D01*
X68814582Y-66295132D01*
X69481296Y-66295132D01*
X69481427Y-66296965D01*
X69485678Y-66303580D01*
X70191175Y-67009077D01*
X70202950Y-67015507D01*
X70214965Y-67006211D01*
X70250819Y-66955006D01*
X70256302Y-66945511D01*
X70348378Y-66748053D01*
X70352124Y-66737761D01*
X70408513Y-66527312D01*
X70410416Y-66516519D01*
X70429405Y-66299475D01*
X70429405Y-66288525D01*
X70410416Y-66071481D01*
X70408513Y-66060688D01*
X70352124Y-65850239D01*
X70348378Y-65839947D01*
X70256302Y-65642489D01*
X70250819Y-65632994D01*
X70214379Y-65580952D01*
X70203900Y-65572576D01*
X70190454Y-65579644D01*
X69488910Y-66281188D01*
X69481296Y-66295132D01*
X68814582Y-66295132D01*
X68817812Y-66249968D01*
X68846773Y-66204905D01*
X69791793Y-65259885D01*
X77740000Y-65259885D01*
X77744475Y-65275124D01*
X77745865Y-65276329D01*
X77753548Y-65278000D01*
X78975885Y-65278000D01*
X78991124Y-65273525D01*
X78992329Y-65272135D01*
X78994000Y-65264452D01*
X78994000Y-65259885D01*
X79502000Y-65259885D01*
X79506475Y-65275124D01*
X79507865Y-65276329D01*
X79515548Y-65278000D01*
X80737884Y-65278000D01*
X80753123Y-65273525D01*
X80754328Y-65272135D01*
X80755999Y-65264452D01*
X80755999Y-64884905D01*
X80755662Y-64878386D01*
X80745743Y-64782794D01*
X80742851Y-64769400D01*
X80691412Y-64615216D01*
X80685239Y-64602038D01*
X80599937Y-64464193D01*
X80590901Y-64452792D01*
X80476171Y-64338261D01*
X80464760Y-64329249D01*
X80326757Y-64244184D01*
X80313576Y-64238037D01*
X80159290Y-64186862D01*
X80145914Y-64183995D01*
X80051562Y-64174328D01*
X80045145Y-64174000D01*
X79520115Y-64174000D01*
X79504876Y-64178475D01*
X79503671Y-64179865D01*
X79502000Y-64187548D01*
X79502000Y-65259885D01*
X78994000Y-65259885D01*
X78994000Y-64192116D01*
X78989525Y-64176877D01*
X78988135Y-64175672D01*
X78980452Y-64174001D01*
X78450905Y-64174001D01*
X78444386Y-64174338D01*
X78348794Y-64184257D01*
X78335400Y-64187149D01*
X78181216Y-64238588D01*
X78168038Y-64244761D01*
X78030193Y-64330063D01*
X78018792Y-64339099D01*
X77904261Y-64453829D01*
X77895249Y-64465240D01*
X77810184Y-64603243D01*
X77804037Y-64616424D01*
X77752862Y-64770710D01*
X77749995Y-64784086D01*
X77740328Y-64878438D01*
X77740000Y-64884855D01*
X77740000Y-65259885D01*
X69791793Y-65259885D01*
X69831965Y-65219713D01*
X69838395Y-65207938D01*
X69829099Y-65195923D01*
X69777894Y-65160069D01*
X69768399Y-65154586D01*
X69570941Y-65062510D01*
X69560649Y-65058764D01*
X69350200Y-65002375D01*
X69339407Y-65000472D01*
X69122363Y-64981483D01*
X69111413Y-64981483D01*
X68894369Y-65000472D01*
X68883576Y-65002375D01*
X68673127Y-65058764D01*
X68662835Y-65062510D01*
X68465377Y-65154586D01*
X68455877Y-65160071D01*
X68454978Y-65160701D01*
X68454518Y-65160856D01*
X68451120Y-65162818D01*
X68450726Y-65162135D01*
X68387704Y-65183388D01*
X68318844Y-65166102D01*
X68293085Y-65143066D01*
X68291881Y-65144270D01*
X68285530Y-65137919D01*
X68280149Y-65130739D01*
X68272969Y-65125358D01*
X68272966Y-65125355D01*
X68184113Y-65058764D01*
X68163593Y-65043385D01*
X68027204Y-64992255D01*
X67965022Y-64985500D01*
X66268754Y-64985500D01*
X66206572Y-64992255D01*
X66070183Y-65043385D01*
X65953627Y-65130739D01*
X65866273Y-65247295D01*
X65815143Y-65383684D01*
X65808388Y-65445866D01*
X65808388Y-66654405D01*
X65788386Y-66722526D01*
X65771483Y-66743500D01*
X63770687Y-68744296D01*
X63762401Y-68751836D01*
X63755922Y-68755948D01*
X63750497Y-68761725D01*
X63709297Y-68805599D01*
X63706542Y-68808441D01*
X63686805Y-68828178D01*
X63684325Y-68831375D01*
X63676622Y-68840395D01*
X63646354Y-68872627D01*
X63642535Y-68879573D01*
X63642533Y-68879576D01*
X63636592Y-68890382D01*
X63625741Y-68906901D01*
X63613326Y-68922907D01*
X63610181Y-68930176D01*
X63610178Y-68930180D01*
X63595766Y-68963485D01*
X63590549Y-68974135D01*
X63569245Y-69012888D01*
X63567274Y-69020563D01*
X63567274Y-69020564D01*
X63564207Y-69032510D01*
X63557803Y-69051214D01*
X63549759Y-69069803D01*
X63548520Y-69077626D01*
X63548517Y-69077636D01*
X63542841Y-69113472D01*
X63540435Y-69125092D01*
X63529440Y-69167918D01*
X63529440Y-69188172D01*
X63527889Y-69207882D01*
X63524720Y-69227891D01*
X63525466Y-69235783D01*
X63528881Y-69271909D01*
X63529440Y-69283767D01*
X63529440Y-74273539D01*
X63509438Y-74341660D01*
X63455782Y-74388153D01*
X63445188Y-74392422D01*
X63387717Y-74412604D01*
X63387714Y-74412605D01*
X63383509Y-74414082D01*
X63379556Y-74416135D01*
X63379550Y-74416138D01*
X63283594Y-74465984D01*
X63137500Y-74541874D01*
X63133885Y-74544457D01*
X63133879Y-74544461D01*
X63017734Y-74627460D01*
X62911951Y-74703054D01*
X62908731Y-74706126D01*
X62723645Y-74882689D01*
X62711362Y-74894406D01*
X62539736Y-75112112D01*
X62517782Y-75149909D01*
X62402732Y-75347982D01*
X62402729Y-75347988D01*
X62400498Y-75351829D01*
X62398828Y-75355952D01*
X62301042Y-75597375D01*
X62296425Y-75608773D01*
X62295354Y-75613086D01*
X62295352Y-75613091D01*
X62267801Y-75724007D01*
X62229594Y-75877817D01*
X62201338Y-76153594D01*
X60945499Y-76153594D01*
X60945499Y-75090762D01*
X60946026Y-75079578D01*
X60947700Y-75072090D01*
X60945561Y-75004031D01*
X60945499Y-75000074D01*
X60945499Y-74972143D01*
X60944993Y-74968137D01*
X60944060Y-74956291D01*
X60942921Y-74920036D01*
X60942672Y-74912109D01*
X60937021Y-74892657D01*
X60933013Y-74873305D01*
X60931466Y-74861062D01*
X60930473Y-74853202D01*
X60927555Y-74845831D01*
X60914199Y-74812096D01*
X60910354Y-74800869D01*
X60909720Y-74798686D01*
X60898017Y-74758406D01*
X60893983Y-74751584D01*
X60893980Y-74751578D01*
X60887705Y-74740967D01*
X60879009Y-74723217D01*
X60874471Y-74711755D01*
X60874468Y-74711750D01*
X60871551Y-74704382D01*
X60854480Y-74680886D01*
X60845572Y-74668624D01*
X60839056Y-74658706D01*
X60820577Y-74627460D01*
X60820576Y-74627458D01*
X60816541Y-74620636D01*
X60815864Y-74619959D01*
X60791047Y-74556764D01*
X60794847Y-74513003D01*
X60804553Y-74476781D01*
X60804554Y-74476776D01*
X60805978Y-74471463D01*
X60825353Y-74250000D01*
X60805978Y-74028537D01*
X60748440Y-73813804D01*
X60746117Y-73808822D01*
X60656814Y-73617311D01*
X60656811Y-73617306D01*
X60654488Y-73612324D01*
X60641373Y-73593594D01*
X60530136Y-73434730D01*
X60530134Y-73434727D01*
X60526977Y-73430219D01*
X60369781Y-73273023D01*
X60365273Y-73269866D01*
X60365270Y-73269864D01*
X60253053Y-73191289D01*
X60187677Y-73145512D01*
X60182695Y-73143189D01*
X60182690Y-73143186D01*
X59991178Y-73053883D01*
X59991177Y-73053882D01*
X59986196Y-73051560D01*
X59980888Y-73050138D01*
X59980886Y-73050137D01*
X59915051Y-73032497D01*
X59771463Y-72994022D01*
X59550000Y-72974647D01*
X59328537Y-72994022D01*
X59184949Y-73032497D01*
X59119114Y-73050137D01*
X59119112Y-73050138D01*
X59113804Y-73051560D01*
X59108823Y-73053882D01*
X59108822Y-73053883D01*
X58917311Y-73143186D01*
X58917306Y-73143189D01*
X58912324Y-73145512D01*
X58907817Y-73148668D01*
X58907815Y-73148669D01*
X58734730Y-73269864D01*
X58734727Y-73269866D01*
X58730219Y-73273023D01*
X58573023Y-73430219D01*
X58569866Y-73434727D01*
X58569864Y-73434730D01*
X58458627Y-73593594D01*
X58445512Y-73612324D01*
X58443189Y-73617306D01*
X58443186Y-73617311D01*
X58353883Y-73808822D01*
X58351560Y-73813804D01*
X58294022Y-74028537D01*
X58274647Y-74250000D01*
X58294022Y-74471463D01*
X58325595Y-74589295D01*
X58348020Y-74672983D01*
X58351560Y-74686196D01*
X58353882Y-74691177D01*
X58353883Y-74691178D01*
X58443186Y-74882689D01*
X58443189Y-74882694D01*
X58445512Y-74887676D01*
X58448668Y-74892183D01*
X58448669Y-74892185D01*
X58562315Y-75054488D01*
X58573023Y-75069781D01*
X58730219Y-75226977D01*
X58734727Y-75230134D01*
X58734730Y-75230136D01*
X58810495Y-75283187D01*
X58912323Y-75354488D01*
X58917305Y-75356811D01*
X58917310Y-75356814D01*
X59108822Y-75446117D01*
X59113804Y-75448440D01*
X59119112Y-75449862D01*
X59119114Y-75449863D01*
X59176513Y-75465243D01*
X59328537Y-75505978D01*
X59544525Y-75524874D01*
X59550000Y-75525353D01*
X59553182Y-75525075D01*
X59620620Y-75544876D01*
X59667113Y-75598532D01*
X59678499Y-75650874D01*
X59678499Y-83430971D01*
X59658497Y-83499092D01*
X59604841Y-83545585D01*
X59534567Y-83555689D01*
X59480228Y-83534184D01*
X59385806Y-83468069D01*
X59376311Y-83462586D01*
X59178853Y-83370510D01*
X59168561Y-83366764D01*
X58958112Y-83310375D01*
X58947319Y-83308472D01*
X58730275Y-83289483D01*
X58719325Y-83289483D01*
X58502281Y-83308472D01*
X58491488Y-83310375D01*
X58281039Y-83366764D01*
X58270747Y-83370510D01*
X58073289Y-83462586D01*
X58063794Y-83468069D01*
X58011752Y-83504509D01*
X58003376Y-83514988D01*
X58010444Y-83528434D01*
X58994915Y-84512905D01*
X59028941Y-84575217D01*
X59023876Y-84646032D01*
X58994915Y-84691095D01*
X58009723Y-85676287D01*
X58003293Y-85688062D01*
X58012589Y-85700077D01*
X58063798Y-85735934D01*
X58075328Y-85742591D01*
X58124321Y-85793973D01*
X58137758Y-85863687D01*
X58111371Y-85929598D01*
X58075328Y-85960829D01*
X58073035Y-85962153D01*
X58068051Y-85964477D01*
X58007606Y-86006801D01*
X57885011Y-86092643D01*
X57885008Y-86092645D01*
X57880500Y-86095802D01*
X57718602Y-86257700D01*
X57715445Y-86262208D01*
X57715443Y-86262211D01*
X57689143Y-86299772D01*
X57587277Y-86445251D01*
X57584954Y-86450233D01*
X57584951Y-86450238D01*
X57542538Y-86541194D01*
X57490516Y-86652757D01*
X57489094Y-86658065D01*
X57489093Y-86658067D01*
X57436632Y-86853852D01*
X57431257Y-86873913D01*
X57411302Y-87102000D01*
X50546000Y-87102000D01*
X50546000Y-85216000D01*
X50566002Y-85147879D01*
X50619658Y-85101386D01*
X50672000Y-85090000D01*
X53594000Y-85090000D01*
X53594000Y-84607475D01*
X57412283Y-84607475D01*
X57431272Y-84824519D01*
X57433175Y-84835312D01*
X57489564Y-85045761D01*
X57493310Y-85056053D01*
X57585386Y-85253511D01*
X57590869Y-85263006D01*
X57627309Y-85315048D01*
X57637788Y-85323424D01*
X57651234Y-85316356D01*
X58352778Y-84614812D01*
X58360392Y-84600868D01*
X58360261Y-84599035D01*
X58356010Y-84592420D01*
X57650513Y-83886923D01*
X57638738Y-83880493D01*
X57626723Y-83889789D01*
X57590869Y-83940994D01*
X57585386Y-83950489D01*
X57493310Y-84147947D01*
X57489564Y-84158239D01*
X57433175Y-84368688D01*
X57431272Y-84379481D01*
X57412283Y-84596525D01*
X57412283Y-84607475D01*
X53594000Y-84607475D01*
X53594000Y-83552999D01*
X53614002Y-83484878D01*
X53667658Y-83438385D01*
X53720000Y-83426999D01*
X53914669Y-83426999D01*
X53921490Y-83426629D01*
X53972352Y-83421105D01*
X53987604Y-83417479D01*
X54108054Y-83372324D01*
X54123649Y-83363786D01*
X54225724Y-83287285D01*
X54238285Y-83274724D01*
X54314786Y-83172649D01*
X54323324Y-83157054D01*
X54368478Y-83036606D01*
X54372105Y-83021351D01*
X54377631Y-82970484D01*
X54378000Y-82963672D01*
X54378000Y-82441115D01*
X54373525Y-82425876D01*
X54372135Y-82424671D01*
X54364452Y-82423000D01*
X53594000Y-82423000D01*
X53594000Y-81915000D01*
X54359884Y-81915000D01*
X54375123Y-81910525D01*
X54376328Y-81909135D01*
X54377999Y-81901452D01*
X54377999Y-81374331D01*
X54377629Y-81367510D01*
X54372105Y-81316648D01*
X54368479Y-81301396D01*
X54323324Y-81180946D01*
X54314786Y-81165351D01*
X54238285Y-81063276D01*
X54225724Y-81050715D01*
X54123649Y-80974214D01*
X54108054Y-80965676D01*
X53987606Y-80920522D01*
X53972351Y-80916895D01*
X53921486Y-80911369D01*
X53914672Y-80911000D01*
X53720000Y-80911000D01*
X53651879Y-80890998D01*
X53605386Y-80837342D01*
X53594000Y-80785000D01*
X53594000Y-79250000D01*
X55374647Y-79250000D01*
X55394022Y-79471463D01*
X55451560Y-79686196D01*
X55453882Y-79691177D01*
X55453883Y-79691178D01*
X55543186Y-79882689D01*
X55543189Y-79882694D01*
X55545512Y-79887676D01*
X55548668Y-79892183D01*
X55548669Y-79892185D01*
X55581237Y-79938696D01*
X55673023Y-80069781D01*
X55830219Y-80226977D01*
X55834727Y-80230134D01*
X55834730Y-80230136D01*
X55910495Y-80283187D01*
X56012323Y-80354488D01*
X56017305Y-80356811D01*
X56017310Y-80356814D01*
X56208822Y-80446117D01*
X56213804Y-80448440D01*
X56219112Y-80449862D01*
X56219114Y-80449863D01*
X56284949Y-80467503D01*
X56428537Y-80505978D01*
X56650000Y-80525353D01*
X56871463Y-80505978D01*
X57015051Y-80467503D01*
X57080886Y-80449863D01*
X57080888Y-80449862D01*
X57086196Y-80448440D01*
X57091178Y-80446117D01*
X57282690Y-80356814D01*
X57282695Y-80356811D01*
X57287677Y-80354488D01*
X57389505Y-80283187D01*
X57465270Y-80230136D01*
X57465273Y-80230134D01*
X57469781Y-80226977D01*
X57626977Y-80069781D01*
X57718764Y-79938696D01*
X57751331Y-79892185D01*
X57751332Y-79892183D01*
X57754488Y-79887676D01*
X57756811Y-79882694D01*
X57756814Y-79882689D01*
X57846117Y-79691178D01*
X57846118Y-79691177D01*
X57848440Y-79686196D01*
X57905978Y-79471463D01*
X57925353Y-79250000D01*
X57905978Y-79028537D01*
X57848440Y-78813804D01*
X57816646Y-78745621D01*
X57756814Y-78617311D01*
X57756811Y-78617306D01*
X57754488Y-78612324D01*
X57691608Y-78522522D01*
X57630136Y-78434730D01*
X57630134Y-78434727D01*
X57626977Y-78430219D01*
X57469781Y-78273023D01*
X57465273Y-78269866D01*
X57465270Y-78269864D01*
X57376930Y-78208008D01*
X57287677Y-78145512D01*
X57282695Y-78143189D01*
X57282690Y-78143186D01*
X57091178Y-78053883D01*
X57091177Y-78053882D01*
X57086196Y-78051560D01*
X57080888Y-78050138D01*
X57080886Y-78050137D01*
X57015051Y-78032497D01*
X56871463Y-77994022D01*
X56650000Y-77974647D01*
X56428537Y-77994022D01*
X56284949Y-78032497D01*
X56219114Y-78050137D01*
X56219112Y-78050138D01*
X56213804Y-78051560D01*
X56208823Y-78053882D01*
X56208822Y-78053883D01*
X56017311Y-78143186D01*
X56017306Y-78143189D01*
X56012324Y-78145512D01*
X56007817Y-78148668D01*
X56007815Y-78148669D01*
X55834730Y-78269864D01*
X55834727Y-78269866D01*
X55830219Y-78273023D01*
X55673023Y-78430219D01*
X55669866Y-78434727D01*
X55669864Y-78434730D01*
X55608392Y-78522522D01*
X55545512Y-78612324D01*
X55543189Y-78617306D01*
X55543186Y-78617311D01*
X55483354Y-78745621D01*
X55451560Y-78813804D01*
X55394022Y-79028537D01*
X55374647Y-79250000D01*
X53594000Y-79250000D01*
X53594000Y-67840004D01*
X55862500Y-67840004D01*
X55877277Y-67990713D01*
X55935858Y-68184742D01*
X56031010Y-68363698D01*
X56159110Y-68520763D01*
X56163857Y-68524690D01*
X56163859Y-68524692D01*
X56310528Y-68646027D01*
X56310531Y-68646029D01*
X56315278Y-68649956D01*
X56493565Y-68746356D01*
X56590372Y-68776323D01*
X56681293Y-68804468D01*
X56681296Y-68804469D01*
X56687180Y-68806290D01*
X56693305Y-68806934D01*
X56693306Y-68806934D01*
X56882622Y-68826832D01*
X56882623Y-68826832D01*
X56888750Y-68827476D01*
X56998090Y-68817525D01*
X57084457Y-68809665D01*
X57084460Y-68809664D01*
X57090596Y-68809106D01*
X57096502Y-68807368D01*
X57096506Y-68807367D01*
X57251582Y-68761725D01*
X57285029Y-68751881D01*
X57290486Y-68749028D01*
X57290489Y-68749027D01*
X57379669Y-68702405D01*
X57464460Y-68658077D01*
X57464462Y-68658077D01*
X57464645Y-68657981D01*
X57464663Y-68658016D01*
X57530441Y-68638111D01*
X57591409Y-68653271D01*
X57763565Y-68746356D01*
X57860372Y-68776323D01*
X57951293Y-68804468D01*
X57951296Y-68804469D01*
X57957180Y-68806290D01*
X57963305Y-68806934D01*
X57963306Y-68806934D01*
X58152622Y-68826832D01*
X58152623Y-68826832D01*
X58158750Y-68827476D01*
X58268090Y-68817525D01*
X58354457Y-68809665D01*
X58354460Y-68809664D01*
X58360596Y-68809106D01*
X58366502Y-68807368D01*
X58366506Y-68807367D01*
X58502558Y-68767324D01*
X58555029Y-68751881D01*
X58555229Y-68752559D01*
X58621273Y-68746044D01*
X58658323Y-68759320D01*
X58672937Y-68767321D01*
X58793394Y-68812478D01*
X58808649Y-68816105D01*
X58859514Y-68821631D01*
X58866328Y-68822000D01*
X59163885Y-68822000D01*
X59179124Y-68817525D01*
X59180329Y-68816135D01*
X59182000Y-68808452D01*
X59182000Y-68803884D01*
X59690000Y-68803884D01*
X59694475Y-68819123D01*
X59695865Y-68820328D01*
X59703548Y-68821999D01*
X60005669Y-68821999D01*
X60012490Y-68821629D01*
X60063352Y-68816105D01*
X60078604Y-68812479D01*
X60199054Y-68767324D01*
X60214649Y-68758786D01*
X60316724Y-68682285D01*
X60329285Y-68669724D01*
X60405786Y-68567649D01*
X60414324Y-68552054D01*
X60459478Y-68431606D01*
X60463105Y-68416351D01*
X60468631Y-68365486D01*
X60469000Y-68358672D01*
X60469000Y-67836115D01*
X60464525Y-67820876D01*
X60463135Y-67819671D01*
X60455452Y-67818000D01*
X59708115Y-67818000D01*
X59692876Y-67822475D01*
X59691671Y-67823865D01*
X59690000Y-67831548D01*
X59690000Y-68803884D01*
X59182000Y-68803884D01*
X59182000Y-68010242D01*
X59182785Y-67996197D01*
X59199107Y-67850683D01*
X59199500Y-67847183D01*
X59199500Y-67291885D01*
X59690000Y-67291885D01*
X59694475Y-67307124D01*
X59695865Y-67308329D01*
X59703548Y-67310000D01*
X60450884Y-67310000D01*
X60466123Y-67305525D01*
X60467328Y-67304135D01*
X60468999Y-67296452D01*
X60468999Y-66769331D01*
X60468629Y-66762510D01*
X60463105Y-66711648D01*
X60459479Y-66696396D01*
X60414324Y-66575946D01*
X60405786Y-66560351D01*
X60329285Y-66458276D01*
X60316724Y-66445715D01*
X60214649Y-66369214D01*
X60199054Y-66360676D01*
X60078606Y-66315522D01*
X60063351Y-66311895D01*
X60012486Y-66306369D01*
X60005672Y-66306000D01*
X59708115Y-66306000D01*
X59692876Y-66310475D01*
X59691671Y-66311865D01*
X59690000Y-66319548D01*
X59690000Y-67291885D01*
X59199500Y-67291885D01*
X59199500Y-67287996D01*
X59184723Y-67137287D01*
X59184032Y-67134998D01*
X59182000Y-67114276D01*
X59182000Y-66324116D01*
X59177525Y-66308877D01*
X59176135Y-66307672D01*
X59168452Y-66306001D01*
X58866331Y-66306001D01*
X58859510Y-66306371D01*
X58808648Y-66311895D01*
X58793396Y-66315521D01*
X58672944Y-66360677D01*
X58657534Y-66369114D01*
X58588177Y-66384284D01*
X58559764Y-66378960D01*
X58550587Y-66376119D01*
X58397068Y-66328597D01*
X58345231Y-66297327D01*
X58219404Y-66171499D01*
X58185379Y-66109187D01*
X58182500Y-66082404D01*
X58182500Y-57507100D01*
X58202502Y-57438979D01*
X58256158Y-57392486D01*
X58308500Y-57381100D01*
X58401885Y-57381100D01*
X58417124Y-57376625D01*
X58418329Y-57375235D01*
X58420000Y-57367552D01*
X58420000Y-57362984D01*
X58928000Y-57362984D01*
X58932475Y-57378223D01*
X58933865Y-57379428D01*
X58941548Y-57381099D01*
X59518669Y-57381099D01*
X59525490Y-57380729D01*
X59576352Y-57375205D01*
X59591604Y-57371579D01*
X59712054Y-57326424D01*
X59727649Y-57317886D01*
X59829724Y-57241385D01*
X59842285Y-57228824D01*
X59918786Y-57126749D01*
X59927324Y-57111154D01*
X59972478Y-56990706D01*
X59976105Y-56975451D01*
X59981631Y-56924586D01*
X59982000Y-56917772D01*
X59982000Y-56345215D01*
X59977525Y-56329976D01*
X59976135Y-56328771D01*
X59968452Y-56327100D01*
X58946115Y-56327100D01*
X58930876Y-56331575D01*
X58929671Y-56332965D01*
X58928000Y-56340648D01*
X58928000Y-57362984D01*
X58420000Y-57362984D01*
X58420000Y-55945100D01*
X58440002Y-55876979D01*
X58493658Y-55830486D01*
X58546000Y-55819100D01*
X59963884Y-55819100D01*
X59979123Y-55814625D01*
X59980328Y-55813235D01*
X59981999Y-55805552D01*
X59981999Y-55228431D01*
X59981629Y-55221610D01*
X59976105Y-55170748D01*
X59972479Y-55155496D01*
X59927324Y-55035046D01*
X59918786Y-55019451D01*
X59842285Y-54917376D01*
X59823373Y-54898464D01*
X59825631Y-54896206D01*
X59792543Y-54851946D01*
X59787524Y-54781127D01*
X59805861Y-54739260D01*
X59805617Y-54739119D01*
X59806885Y-54736923D01*
X59807410Y-54735724D01*
X59808363Y-54734362D01*
X59811523Y-54729849D01*
X59813846Y-54724867D01*
X59813849Y-54724862D01*
X59905961Y-54527325D01*
X59905961Y-54527324D01*
X59908284Y-54522343D01*
X59914052Y-54500819D01*
X59966119Y-54306502D01*
X59966119Y-54306500D01*
X59967543Y-54301187D01*
X59987498Y-54073100D01*
X59985339Y-54048419D01*
X59984916Y-54043581D01*
X59998906Y-53973976D01*
X60048306Y-53922985D01*
X60110437Y-53906601D01*
X63420710Y-53906601D01*
X63488831Y-53926603D01*
X63535324Y-53980259D01*
X63545428Y-54050533D01*
X63528143Y-54098436D01*
X63471298Y-54191198D01*
X63421760Y-54272037D01*
X63419867Y-54276607D01*
X63419865Y-54276611D01*
X63332789Y-54486833D01*
X63330895Y-54491406D01*
X63329740Y-54496218D01*
X63283485Y-54688885D01*
X63275465Y-54722289D01*
X63256835Y-54959000D01*
X63275465Y-55195711D01*
X63276619Y-55200518D01*
X63276620Y-55200524D01*
X63302275Y-55307384D01*
X63330895Y-55426594D01*
X63332788Y-55431165D01*
X63332789Y-55431167D01*
X63419772Y-55641163D01*
X63421760Y-55645963D01*
X63424346Y-55650183D01*
X63543241Y-55844202D01*
X63543245Y-55844208D01*
X63545824Y-55848416D01*
X63700031Y-56028969D01*
X63880584Y-56183176D01*
X63884792Y-56185755D01*
X63884798Y-56185759D01*
X64078084Y-56304205D01*
X64083037Y-56307240D01*
X64087607Y-56309133D01*
X64087611Y-56309135D01*
X64297833Y-56396211D01*
X64302406Y-56398105D01*
X64382609Y-56417360D01*
X64528476Y-56452380D01*
X64528482Y-56452381D01*
X64533289Y-56453535D01*
X64770000Y-56472165D01*
X65006711Y-56453535D01*
X65011518Y-56452381D01*
X65011524Y-56452380D01*
X65157391Y-56417360D01*
X65237594Y-56398105D01*
X65242167Y-56396211D01*
X65452389Y-56309135D01*
X65452393Y-56309133D01*
X65456963Y-56307240D01*
X65461916Y-56304205D01*
X65645556Y-56191670D01*
X66442160Y-56191670D01*
X66447887Y-56199320D01*
X66619042Y-56304205D01*
X66627837Y-56308687D01*
X66837988Y-56395734D01*
X66847373Y-56398783D01*
X67068554Y-56451885D01*
X67078301Y-56453428D01*
X67305070Y-56471275D01*
X67314930Y-56471275D01*
X67541699Y-56453428D01*
X67551446Y-56451885D01*
X67772627Y-56398783D01*
X67782012Y-56395734D01*
X67992163Y-56308687D01*
X68000958Y-56304205D01*
X68168445Y-56201568D01*
X68177907Y-56191110D01*
X68174124Y-56182334D01*
X67322812Y-55331022D01*
X67308868Y-55323408D01*
X67307035Y-55323539D01*
X67300420Y-55327790D01*
X66448920Y-56179290D01*
X66442160Y-56191670D01*
X65645556Y-56191670D01*
X65655202Y-56185759D01*
X65655208Y-56185755D01*
X65659416Y-56183176D01*
X65839969Y-56028969D01*
X65843177Y-56025213D01*
X65843182Y-56025208D01*
X65973706Y-55872384D01*
X66033156Y-55833574D01*
X66067558Y-55831360D01*
X66086667Y-55823123D01*
X67220905Y-54688885D01*
X67283217Y-54654859D01*
X67354032Y-54659924D01*
X67399095Y-54688885D01*
X68530290Y-55820080D01*
X68542670Y-55826840D01*
X68550320Y-55821113D01*
X68655205Y-55649958D01*
X68659687Y-55641163D01*
X68746734Y-55431012D01*
X68749783Y-55421627D01*
X68802885Y-55200446D01*
X68804428Y-55190699D01*
X68822275Y-54963930D01*
X68822275Y-54954070D01*
X68804428Y-54727301D01*
X68802885Y-54717554D01*
X68749783Y-54496373D01*
X68746734Y-54486988D01*
X68659687Y-54276837D01*
X68655210Y-54268052D01*
X68551269Y-54098436D01*
X68532731Y-54029903D01*
X68554187Y-53962226D01*
X68608826Y-53916893D01*
X68658702Y-53906601D01*
X70389507Y-53906601D01*
X70457628Y-53926603D01*
X70478602Y-53943506D01*
X70915636Y-54380540D01*
X70949662Y-54442852D01*
X70949060Y-54499049D01*
X70903485Y-54688885D01*
X70895465Y-54722289D01*
X70876835Y-54959000D01*
X70895465Y-55195711D01*
X70896619Y-55200518D01*
X70896620Y-55200524D01*
X70922275Y-55307384D01*
X70950895Y-55426594D01*
X70952788Y-55431165D01*
X70952789Y-55431167D01*
X71039772Y-55641163D01*
X71041760Y-55645963D01*
X71044346Y-55650183D01*
X71163241Y-55844202D01*
X71163245Y-55844208D01*
X71165824Y-55848416D01*
X71320031Y-56028969D01*
X71500584Y-56183176D01*
X71504792Y-56185755D01*
X71504798Y-56185759D01*
X71698084Y-56304205D01*
X71703037Y-56307240D01*
X71707607Y-56309133D01*
X71707611Y-56309135D01*
X71917833Y-56396211D01*
X71922406Y-56398105D01*
X72002609Y-56417360D01*
X72148476Y-56452380D01*
X72148482Y-56452381D01*
X72153289Y-56453535D01*
X72390000Y-56472165D01*
X72626711Y-56453535D01*
X72631518Y-56452381D01*
X72631524Y-56452380D01*
X72777391Y-56417360D01*
X72857594Y-56398105D01*
X72862167Y-56396211D01*
X73072389Y-56309135D01*
X73072393Y-56309133D01*
X73076963Y-56307240D01*
X73081916Y-56304205D01*
X73265556Y-56191670D01*
X74062160Y-56191670D01*
X74067887Y-56199320D01*
X74239042Y-56304205D01*
X74247837Y-56308687D01*
X74457988Y-56395734D01*
X74467373Y-56398783D01*
X74688554Y-56451885D01*
X74698301Y-56453428D01*
X74925070Y-56471275D01*
X74934930Y-56471275D01*
X75161699Y-56453428D01*
X75171446Y-56451885D01*
X75392627Y-56398783D01*
X75402012Y-56395734D01*
X75612163Y-56308687D01*
X75620958Y-56304205D01*
X75788445Y-56201568D01*
X75797907Y-56191110D01*
X75794124Y-56182334D01*
X74942812Y-55331022D01*
X74928868Y-55323408D01*
X74927035Y-55323539D01*
X74920420Y-55327790D01*
X74068920Y-56179290D01*
X74062160Y-56191670D01*
X73265556Y-56191670D01*
X73275202Y-56185759D01*
X73275208Y-56185755D01*
X73279416Y-56183176D01*
X73459969Y-56028969D01*
X73463177Y-56025213D01*
X73463182Y-56025208D01*
X73593706Y-55872384D01*
X73653156Y-55833574D01*
X73687558Y-55831360D01*
X73706667Y-55823123D01*
X74557978Y-54971812D01*
X74564356Y-54960132D01*
X75294408Y-54960132D01*
X75294539Y-54961965D01*
X75298790Y-54968580D01*
X76150290Y-55820080D01*
X76167102Y-55829260D01*
X76230350Y-55843020D01*
X76265775Y-55871776D01*
X76270219Y-55876979D01*
X76400031Y-56028969D01*
X76580584Y-56183176D01*
X76584792Y-56185755D01*
X76584798Y-56185759D01*
X76778084Y-56304205D01*
X76783037Y-56307240D01*
X76787607Y-56309133D01*
X76787611Y-56309135D01*
X76997833Y-56396211D01*
X77002406Y-56398105D01*
X77082609Y-56417360D01*
X77228476Y-56452380D01*
X77228482Y-56452381D01*
X77233289Y-56453535D01*
X77470000Y-56472165D01*
X77706711Y-56453535D01*
X77711518Y-56452381D01*
X77711524Y-56452380D01*
X77857391Y-56417360D01*
X77937594Y-56398105D01*
X77942167Y-56396211D01*
X78152389Y-56309135D01*
X78152393Y-56309133D01*
X78156963Y-56307240D01*
X78161916Y-56304205D01*
X78355202Y-56185759D01*
X78355208Y-56185755D01*
X78359416Y-56183176D01*
X78539969Y-56028969D01*
X78694176Y-55848416D01*
X78696755Y-55844208D01*
X78696759Y-55844202D01*
X78815654Y-55650183D01*
X78818240Y-55645963D01*
X78820229Y-55641163D01*
X78907211Y-55431167D01*
X78907212Y-55431165D01*
X78909105Y-55426594D01*
X78937725Y-55307384D01*
X78963380Y-55200524D01*
X78963381Y-55200518D01*
X78964535Y-55195711D01*
X78983165Y-54959000D01*
X78964535Y-54722289D01*
X78956516Y-54688885D01*
X78910260Y-54496218D01*
X78909105Y-54491406D01*
X78907211Y-54486833D01*
X78820135Y-54276611D01*
X78820133Y-54276607D01*
X78818240Y-54272037D01*
X78768702Y-54191198D01*
X78696759Y-54073798D01*
X78696755Y-54073792D01*
X78694176Y-54069584D01*
X78539969Y-53889031D01*
X78359416Y-53734824D01*
X78355208Y-53732245D01*
X78355202Y-53732241D01*
X78161183Y-53613346D01*
X78156963Y-53610760D01*
X78152393Y-53608867D01*
X78152389Y-53608865D01*
X77942167Y-53521789D01*
X77942165Y-53521788D01*
X77937594Y-53519895D01*
X77857391Y-53500640D01*
X77711524Y-53465620D01*
X77711518Y-53465619D01*
X77706711Y-53464465D01*
X77470000Y-53445835D01*
X77233289Y-53464465D01*
X77228482Y-53465619D01*
X77228476Y-53465620D01*
X77082609Y-53500640D01*
X77002406Y-53519895D01*
X76997835Y-53521788D01*
X76997833Y-53521789D01*
X76787611Y-53608865D01*
X76787607Y-53608867D01*
X76783037Y-53610760D01*
X76778817Y-53613346D01*
X76584798Y-53732241D01*
X76584792Y-53732245D01*
X76580584Y-53734824D01*
X76400031Y-53889031D01*
X76396823Y-53892787D01*
X76396818Y-53892792D01*
X76266294Y-54045616D01*
X76206844Y-54084426D01*
X76172442Y-54086640D01*
X76153333Y-54094877D01*
X75302022Y-54946188D01*
X75294408Y-54960132D01*
X74564356Y-54960132D01*
X74565592Y-54957868D01*
X74565461Y-54956035D01*
X74561210Y-54949420D01*
X73709710Y-54097920D01*
X73692898Y-54088740D01*
X73629650Y-54074980D01*
X73594225Y-54046224D01*
X73463177Y-53892787D01*
X73459969Y-53889031D01*
X73279416Y-53734824D01*
X73275208Y-53732245D01*
X73275202Y-53732241D01*
X73266470Y-53726890D01*
X74062093Y-53726890D01*
X74065876Y-53735666D01*
X74917188Y-54586978D01*
X74931132Y-54594592D01*
X74932965Y-54594461D01*
X74939580Y-54590210D01*
X75791080Y-53738710D01*
X75797840Y-53726330D01*
X75792113Y-53718680D01*
X75620958Y-53613795D01*
X75612163Y-53609313D01*
X75402012Y-53522266D01*
X75392627Y-53519217D01*
X75171446Y-53466115D01*
X75161699Y-53464572D01*
X74934930Y-53446725D01*
X74925070Y-53446725D01*
X74698301Y-53464572D01*
X74688554Y-53466115D01*
X74467373Y-53519217D01*
X74457988Y-53522266D01*
X74247837Y-53609313D01*
X74239042Y-53613795D01*
X74071555Y-53716432D01*
X74062093Y-53726890D01*
X73266470Y-53726890D01*
X73081183Y-53613346D01*
X73076963Y-53610760D01*
X73072393Y-53608867D01*
X73072389Y-53608865D01*
X72862167Y-53521789D01*
X72862165Y-53521788D01*
X72857594Y-53519895D01*
X72777391Y-53500640D01*
X72631524Y-53465620D01*
X72631518Y-53465619D01*
X72626711Y-53464465D01*
X72390000Y-53445835D01*
X72153289Y-53464465D01*
X72148482Y-53465619D01*
X72148476Y-53465620D01*
X71982896Y-53505373D01*
X71930049Y-53518060D01*
X71859142Y-53514513D01*
X71811541Y-53484636D01*
X71207753Y-52880848D01*
X71200213Y-52872562D01*
X71196101Y-52866083D01*
X71146449Y-52819457D01*
X71143608Y-52816703D01*
X71123871Y-52796966D01*
X71120674Y-52794486D01*
X71111652Y-52786781D01*
X71103449Y-52779078D01*
X71079422Y-52756515D01*
X71072476Y-52752696D01*
X71072473Y-52752694D01*
X71061667Y-52746753D01*
X71045148Y-52735902D01*
X71044684Y-52735542D01*
X71029142Y-52723487D01*
X71021873Y-52720342D01*
X71021869Y-52720339D01*
X70988564Y-52705927D01*
X70977914Y-52700710D01*
X70939161Y-52679406D01*
X70919538Y-52674368D01*
X70900835Y-52667964D01*
X70889521Y-52663068D01*
X70889520Y-52663068D01*
X70882246Y-52659920D01*
X70874423Y-52658681D01*
X70874413Y-52658678D01*
X70838577Y-52653002D01*
X70826957Y-52650596D01*
X70791812Y-52641573D01*
X70791811Y-52641573D01*
X70784131Y-52639601D01*
X70763877Y-52639601D01*
X70744166Y-52638050D01*
X70741635Y-52637649D01*
X70724158Y-52634881D01*
X70716266Y-52635627D01*
X70680140Y-52639042D01*
X70668282Y-52639601D01*
X59552762Y-52639601D01*
X59541578Y-52639074D01*
X59534090Y-52637400D01*
X59526167Y-52637649D01*
X59466032Y-52639539D01*
X59462074Y-52639601D01*
X59434143Y-52639601D01*
X59430228Y-52640096D01*
X59430224Y-52640096D01*
X59430166Y-52640104D01*
X59430137Y-52640107D01*
X59418295Y-52641040D01*
X59374109Y-52642428D01*
X59356743Y-52647473D01*
X59354657Y-52648079D01*
X59335305Y-52652087D01*
X59323067Y-52653633D01*
X59323065Y-52653634D01*
X59315202Y-52654627D01*
X59274085Y-52670907D01*
X59262884Y-52674742D01*
X59220405Y-52687083D01*
X59213586Y-52691116D01*
X59213581Y-52691118D01*
X59202970Y-52697394D01*
X59185220Y-52706091D01*
X59166382Y-52713549D01*
X59159966Y-52718210D01*
X59159965Y-52718211D01*
X59130624Y-52739529D01*
X59120700Y-52746048D01*
X59089465Y-52764520D01*
X59089463Y-52764522D01*
X59082636Y-52768559D01*
X59077026Y-52774169D01*
X59076371Y-52774677D01*
X59010286Y-52800625D01*
X58966531Y-52796825D01*
X58902087Y-52779557D01*
X58674000Y-52759602D01*
X58445913Y-52779557D01*
X58440600Y-52780981D01*
X58440598Y-52780981D01*
X58230067Y-52837393D01*
X58230065Y-52837394D01*
X58224757Y-52838816D01*
X58219776Y-52841139D01*
X58219775Y-52841139D01*
X58022238Y-52933251D01*
X58022233Y-52933254D01*
X58017251Y-52935577D01*
X57912389Y-53009002D01*
X57834211Y-53063743D01*
X57834208Y-53063745D01*
X57829700Y-53066902D01*
X57667802Y-53228800D01*
X57536477Y-53416351D01*
X57534154Y-53421333D01*
X57534151Y-53421338D01*
X57487088Y-53522266D01*
X57439716Y-53623857D01*
X57438294Y-53629165D01*
X57438293Y-53629167D01*
X57428497Y-53665726D01*
X57395886Y-53722209D01*
X57156747Y-53961348D01*
X57148461Y-53968888D01*
X57141982Y-53973000D01*
X57136557Y-53978777D01*
X57095357Y-54022651D01*
X57092602Y-54025493D01*
X57072865Y-54045230D01*
X57070385Y-54048427D01*
X57062682Y-54057447D01*
X57032414Y-54089679D01*
X57028595Y-54096625D01*
X57028593Y-54096628D01*
X57022652Y-54107434D01*
X57011801Y-54123953D01*
X56999386Y-54139959D01*
X56996241Y-54147228D01*
X56996238Y-54147232D01*
X56981826Y-54180537D01*
X56976609Y-54191187D01*
X56955305Y-54229940D01*
X56953334Y-54237615D01*
X56953334Y-54237616D01*
X56950267Y-54249562D01*
X56943863Y-54268266D01*
X56935819Y-54286855D01*
X56934580Y-54294678D01*
X56934577Y-54294688D01*
X56928901Y-54330524D01*
X56926495Y-54342144D01*
X56915500Y-54384970D01*
X56915500Y-54405224D01*
X56913949Y-54424934D01*
X56910780Y-54444943D01*
X56911526Y-54452835D01*
X56914941Y-54488961D01*
X56915500Y-54500819D01*
X56915500Y-66184356D01*
X56895498Y-66252477D01*
X56841842Y-66298970D01*
X56800920Y-66309837D01*
X56707543Y-66318335D01*
X56707540Y-66318336D01*
X56701404Y-66318894D01*
X56695498Y-66320632D01*
X56695494Y-66320633D01*
X56559442Y-66360676D01*
X56506971Y-66376119D01*
X56501514Y-66378972D01*
X56501511Y-66378973D01*
X56417163Y-66423069D01*
X56327355Y-66470019D01*
X56169399Y-66597019D01*
X56039119Y-66752281D01*
X56036155Y-66757673D01*
X56036152Y-66757677D01*
X55993855Y-66834616D01*
X55941477Y-66929891D01*
X55880193Y-67123084D01*
X55879507Y-67129201D01*
X55879506Y-67129205D01*
X55878056Y-67142134D01*
X55862500Y-67280817D01*
X55862500Y-67840004D01*
X53594000Y-67840004D01*
X53594000Y-67437000D01*
X50799000Y-67437000D01*
X50730879Y-67416998D01*
X50684386Y-67363342D01*
X50673000Y-67311000D01*
X50673000Y-65150000D01*
X50693002Y-65081879D01*
X50746658Y-65035386D01*
X50799000Y-65024000D01*
X53594000Y-65024000D01*
X53594000Y-59436000D01*
X50799000Y-59436000D01*
X50730879Y-59415998D01*
X50684386Y-59362342D01*
X50673000Y-59310000D01*
X50673000Y-57149000D01*
X50693002Y-57080879D01*
X50746658Y-57034386D01*
X50799000Y-57023000D01*
X53594000Y-57023000D01*
X53594000Y-51367315D01*
X53614002Y-51299194D01*
X53667658Y-51252701D01*
X53719989Y-51241316D01*
X83007777Y-51239517D01*
X83075898Y-51259515D01*
G37*
%TD.AperFunction*%
%TD*%
M02*
