%TF.GenerationSoftware,KiCad,Pcbnew,(6.0.8-1)-1*%
%TF.CreationDate,2022-11-04T21:43:05-05:00*%
%TF.ProjectId,VT100_ATX_DCDC,56543130-305f-4415-9458-5f444344432e,rev?*%
%TF.SameCoordinates,Original*%
%TF.FileFunction,Legend,Top*%
%TF.FilePolarity,Positive*%
%FSLAX46Y46*%
G04 Gerber Fmt 4.6, Leading zero omitted, Abs format (unit mm)*
G04 Created by KiCad (PCBNEW (6.0.8-1)-1) date 2022-11-04 21:43:05*
%MOMM*%
%LPD*%
G01*
G04 APERTURE LIST*
%ADD10C,0.150000*%
%ADD11C,0.125000*%
%ADD12C,0.127000*%
%ADD13C,0.120000*%
%ADD14C,0.203200*%
%ADD15C,0.254000*%
G04 APERTURE END LIST*
D10*
X51816000Y-115250000D02*
X51816000Y-123500000D01*
X51816000Y-93340000D02*
X51816000Y-85090000D01*
X51816000Y-103439000D02*
X51816000Y-95189000D01*
X51816000Y-113250000D02*
X51816000Y-105000000D01*
D11*
X51943047Y-81597500D02*
X51895428Y-81573690D01*
X51824000Y-81573690D01*
X51752571Y-81597500D01*
X51704952Y-81645119D01*
X51681142Y-81692738D01*
X51657333Y-81787976D01*
X51657333Y-81859404D01*
X51681142Y-81954642D01*
X51704952Y-82002261D01*
X51752571Y-82049880D01*
X51824000Y-82073690D01*
X51871619Y-82073690D01*
X51943047Y-82049880D01*
X51966857Y-82026071D01*
X51966857Y-81859404D01*
X51871619Y-81859404D01*
X52181142Y-82073690D02*
X52181142Y-81573690D01*
X52466857Y-82073690D01*
X52466857Y-81573690D01*
X52704952Y-82073690D02*
X52704952Y-81573690D01*
X52824000Y-81573690D01*
X52895428Y-81597500D01*
X52943047Y-81645119D01*
X52966857Y-81692738D01*
X52990666Y-81787976D01*
X52990666Y-81859404D01*
X52966857Y-81954642D01*
X52943047Y-82002261D01*
X52895428Y-82049880D01*
X52824000Y-82073690D01*
X52704952Y-82073690D01*
X51252571Y-83069166D02*
X51228761Y-83045357D01*
X51181142Y-82973928D01*
X51157333Y-82926309D01*
X51133523Y-82854880D01*
X51109714Y-82735833D01*
X51109714Y-82640595D01*
X51133523Y-82521547D01*
X51157333Y-82450119D01*
X51181142Y-82402500D01*
X51228761Y-82331071D01*
X51252571Y-82307261D01*
X51443047Y-82688214D02*
X51824000Y-82688214D01*
X51633523Y-82878690D02*
X51633523Y-82497738D01*
X52324000Y-82878690D02*
X52038285Y-82878690D01*
X52181142Y-82878690D02*
X52181142Y-82378690D01*
X52133523Y-82450119D01*
X52085904Y-82497738D01*
X52038285Y-82521547D01*
X52514476Y-82426309D02*
X52538285Y-82402500D01*
X52585904Y-82378690D01*
X52704952Y-82378690D01*
X52752571Y-82402500D01*
X52776380Y-82426309D01*
X52800190Y-82473928D01*
X52800190Y-82521547D01*
X52776380Y-82592976D01*
X52490666Y-82878690D01*
X52800190Y-82878690D01*
X52943047Y-82378690D02*
X53109714Y-82878690D01*
X53276380Y-82378690D01*
X53395428Y-83069166D02*
X53419238Y-83045357D01*
X53466857Y-82973928D01*
X53490666Y-82926309D01*
X53514476Y-82854880D01*
X53538285Y-82735833D01*
X53538285Y-82640595D01*
X53514476Y-82521547D01*
X53490666Y-82450119D01*
X53466857Y-82402500D01*
X53419238Y-82331071D01*
X53395428Y-82307261D01*
X51189047Y-62265714D02*
X51570000Y-62265714D01*
X51379523Y-62456190D02*
X51379523Y-62075238D01*
X52070000Y-62456190D02*
X51784285Y-62456190D01*
X51927142Y-62456190D02*
X51927142Y-61956190D01*
X51879523Y-62027619D01*
X51831904Y-62075238D01*
X51784285Y-62099047D01*
X52260476Y-62003809D02*
X52284285Y-61980000D01*
X52331904Y-61956190D01*
X52450952Y-61956190D01*
X52498571Y-61980000D01*
X52522380Y-62003809D01*
X52546190Y-62051428D01*
X52546190Y-62099047D01*
X52522380Y-62170476D01*
X52236666Y-62456190D01*
X52546190Y-62456190D01*
X52689047Y-61956190D02*
X52855714Y-62456190D01*
X53022380Y-61956190D01*
X51435047Y-93984000D02*
X51387428Y-93960190D01*
X51316000Y-93960190D01*
X51244571Y-93984000D01*
X51196952Y-94031619D01*
X51173142Y-94079238D01*
X51149333Y-94174476D01*
X51149333Y-94245904D01*
X51173142Y-94341142D01*
X51196952Y-94388761D01*
X51244571Y-94436380D01*
X51316000Y-94460190D01*
X51363619Y-94460190D01*
X51435047Y-94436380D01*
X51458857Y-94412571D01*
X51458857Y-94245904D01*
X51363619Y-94245904D01*
X51673142Y-94460190D02*
X51673142Y-93960190D01*
X51958857Y-94460190D01*
X51958857Y-93960190D01*
X52196952Y-94460190D02*
X52196952Y-93960190D01*
X52316000Y-93960190D01*
X52387428Y-93984000D01*
X52435047Y-94031619D01*
X52458857Y-94079238D01*
X52482666Y-94174476D01*
X52482666Y-94245904D01*
X52458857Y-94341142D01*
X52435047Y-94388761D01*
X52387428Y-94436380D01*
X52316000Y-94460190D01*
X52196952Y-94460190D01*
X51189047Y-54285714D02*
X51570000Y-54285714D01*
X51379523Y-54476190D02*
X51379523Y-54095238D01*
X52070000Y-54476190D02*
X51784285Y-54476190D01*
X51927142Y-54476190D02*
X51927142Y-53976190D01*
X51879523Y-54047619D01*
X51831904Y-54095238D01*
X51784285Y-54119047D01*
X52260476Y-54023809D02*
X52284285Y-54000000D01*
X52331904Y-53976190D01*
X52450952Y-53976190D01*
X52498571Y-54000000D01*
X52522380Y-54023809D01*
X52546190Y-54071428D01*
X52546190Y-54119047D01*
X52522380Y-54190476D01*
X52236666Y-54476190D01*
X52546190Y-54476190D01*
X52689047Y-53976190D02*
X52855714Y-54476190D01*
X53022380Y-53976190D01*
X51395333Y-77958190D02*
X51728666Y-78458190D01*
X51728666Y-77958190D02*
X51395333Y-78458190D01*
X51435047Y-66044000D02*
X51387428Y-66020190D01*
X51316000Y-66020190D01*
X51244571Y-66044000D01*
X51196952Y-66091619D01*
X51173142Y-66139238D01*
X51149333Y-66234476D01*
X51149333Y-66305904D01*
X51173142Y-66401142D01*
X51196952Y-66448761D01*
X51244571Y-66496380D01*
X51316000Y-66520190D01*
X51363619Y-66520190D01*
X51435047Y-66496380D01*
X51458857Y-66472571D01*
X51458857Y-66305904D01*
X51363619Y-66305904D01*
X51673142Y-66520190D02*
X51673142Y-66020190D01*
X51958857Y-66520190D01*
X51958857Y-66020190D01*
X52196952Y-66520190D02*
X52196952Y-66020190D01*
X52316000Y-66020190D01*
X52387428Y-66044000D01*
X52435047Y-66091619D01*
X52458857Y-66139238D01*
X52482666Y-66234476D01*
X52482666Y-66305904D01*
X52458857Y-66401142D01*
X52435047Y-66448761D01*
X52387428Y-66496380D01*
X52316000Y-66520190D01*
X52196952Y-66520190D01*
X51173142Y-114285714D02*
X51554095Y-114285714D01*
X51363619Y-114476190D02*
X51363619Y-114095238D01*
X52030285Y-113976190D02*
X51792190Y-113976190D01*
X51768380Y-114214285D01*
X51792190Y-114190476D01*
X51839809Y-114166666D01*
X51958857Y-114166666D01*
X52006476Y-114190476D01*
X52030285Y-114214285D01*
X52054095Y-114261904D01*
X52054095Y-114380952D01*
X52030285Y-114428571D01*
X52006476Y-114452380D01*
X51958857Y-114476190D01*
X51839809Y-114476190D01*
X51792190Y-114452380D01*
X51768380Y-114428571D01*
X52196952Y-113976190D02*
X52363619Y-114476190D01*
X52530285Y-113976190D01*
X51435047Y-58000000D02*
X51387428Y-57976190D01*
X51316000Y-57976190D01*
X51244571Y-58000000D01*
X51196952Y-58047619D01*
X51173142Y-58095238D01*
X51149333Y-58190476D01*
X51149333Y-58261904D01*
X51173142Y-58357142D01*
X51196952Y-58404761D01*
X51244571Y-58452380D01*
X51316000Y-58476190D01*
X51363619Y-58476190D01*
X51435047Y-58452380D01*
X51458857Y-58428571D01*
X51458857Y-58261904D01*
X51363619Y-58261904D01*
X51673142Y-58476190D02*
X51673142Y-57976190D01*
X51958857Y-58476190D01*
X51958857Y-57976190D01*
X52196952Y-58476190D02*
X52196952Y-57976190D01*
X52316000Y-57976190D01*
X52387428Y-58000000D01*
X52435047Y-58047619D01*
X52458857Y-58095238D01*
X52482666Y-58190476D01*
X52482666Y-58261904D01*
X52458857Y-58357142D01*
X52435047Y-58404761D01*
X52387428Y-58452380D01*
X52316000Y-58476190D01*
X52196952Y-58476190D01*
X51189047Y-74285714D02*
X51570000Y-74285714D01*
X51784285Y-74023809D02*
X51808095Y-74000000D01*
X51855714Y-73976190D01*
X51974761Y-73976190D01*
X52022380Y-74000000D01*
X52046190Y-74023809D01*
X52070000Y-74071428D01*
X52070000Y-74119047D01*
X52046190Y-74190476D01*
X51760476Y-74476190D01*
X52070000Y-74476190D01*
X52236666Y-73976190D02*
X52546190Y-73976190D01*
X52379523Y-74166666D01*
X52450952Y-74166666D01*
X52498571Y-74190476D01*
X52522380Y-74214285D01*
X52546190Y-74261904D01*
X52546190Y-74380952D01*
X52522380Y-74428571D01*
X52498571Y-74452380D01*
X52450952Y-74476190D01*
X52308095Y-74476190D01*
X52260476Y-74452380D01*
X52236666Y-74428571D01*
X52689047Y-73976190D02*
X52855714Y-74476190D01*
X53022380Y-73976190D01*
X51189047Y-70285714D02*
X51570000Y-70285714D01*
X52070000Y-70476190D02*
X51784285Y-70476190D01*
X51927142Y-70476190D02*
X51927142Y-69976190D01*
X51879523Y-70047619D01*
X51831904Y-70095238D01*
X51784285Y-70119047D01*
X52260476Y-70023809D02*
X52284285Y-70000000D01*
X52331904Y-69976190D01*
X52450952Y-69976190D01*
X52498571Y-70000000D01*
X52522380Y-70023809D01*
X52546190Y-70071428D01*
X52546190Y-70119047D01*
X52522380Y-70190476D01*
X52236666Y-70476190D01*
X52546190Y-70476190D01*
X52689047Y-69976190D02*
X52855714Y-70476190D01*
X53022380Y-69976190D01*
D10*
%TO.C,U3*%
X67310095Y-51776380D02*
X67310095Y-52585904D01*
X67357714Y-52681142D01*
X67405333Y-52728761D01*
X67500571Y-52776380D01*
X67691047Y-52776380D01*
X67786285Y-52728761D01*
X67833904Y-52681142D01*
X67881523Y-52585904D01*
X67881523Y-51776380D01*
X68262476Y-51776380D02*
X68881523Y-51776380D01*
X68548190Y-52157333D01*
X68691047Y-52157333D01*
X68786285Y-52204952D01*
X68833904Y-52252571D01*
X68881523Y-52347809D01*
X68881523Y-52585904D01*
X68833904Y-52681142D01*
X68786285Y-52728761D01*
X68691047Y-52776380D01*
X68405333Y-52776380D01*
X68310095Y-52728761D01*
X68262476Y-52681142D01*
%TO.C,C3*%
X69937333Y-64365142D02*
X69889714Y-64412761D01*
X69746857Y-64460380D01*
X69651619Y-64460380D01*
X69508761Y-64412761D01*
X69413523Y-64317523D01*
X69365904Y-64222285D01*
X69318285Y-64031809D01*
X69318285Y-63888952D01*
X69365904Y-63698476D01*
X69413523Y-63603238D01*
X69508761Y-63508000D01*
X69651619Y-63460380D01*
X69746857Y-63460380D01*
X69889714Y-63508000D01*
X69937333Y-63555619D01*
X70270666Y-63460380D02*
X70889714Y-63460380D01*
X70556380Y-63841333D01*
X70699238Y-63841333D01*
X70794476Y-63888952D01*
X70842095Y-63936571D01*
X70889714Y-64031809D01*
X70889714Y-64269904D01*
X70842095Y-64365142D01*
X70794476Y-64412761D01*
X70699238Y-64460380D01*
X70413523Y-64460380D01*
X70318285Y-64412761D01*
X70270666Y-64365142D01*
%TO.C,C1*%
X63603142Y-62142666D02*
X63650761Y-62190285D01*
X63698380Y-62333142D01*
X63698380Y-62428380D01*
X63650761Y-62571238D01*
X63555523Y-62666476D01*
X63460285Y-62714095D01*
X63269809Y-62761714D01*
X63126952Y-62761714D01*
X62936476Y-62714095D01*
X62841238Y-62666476D01*
X62746000Y-62571238D01*
X62698380Y-62428380D01*
X62698380Y-62333142D01*
X62746000Y-62190285D01*
X62793619Y-62142666D01*
X63698380Y-61190285D02*
X63698380Y-61761714D01*
X63698380Y-61476000D02*
X62698380Y-61476000D01*
X62841238Y-61571238D01*
X62936476Y-61666476D01*
X62984095Y-61761714D01*
%TO.C,U1*%
X59142380Y-53942904D02*
X59951904Y-53942904D01*
X60047142Y-53895285D01*
X60094761Y-53847666D01*
X60142380Y-53752428D01*
X60142380Y-53561952D01*
X60094761Y-53466714D01*
X60047142Y-53419095D01*
X59951904Y-53371476D01*
X59142380Y-53371476D01*
X60142380Y-52371476D02*
X60142380Y-52942904D01*
X60142380Y-52657190D02*
X59142380Y-52657190D01*
X59285238Y-52752428D01*
X59380476Y-52847666D01*
X59428095Y-52942904D01*
D11*
X58106190Y-68183142D02*
X58106190Y-68468857D01*
X58106190Y-68326000D02*
X57606190Y-68326000D01*
X57677619Y-68373619D01*
X57725238Y-68421238D01*
X57749047Y-68468857D01*
X57606190Y-58046952D02*
X57606190Y-58285047D01*
X57844285Y-58308857D01*
X57820476Y-58285047D01*
X57796666Y-58237428D01*
X57796666Y-58118380D01*
X57820476Y-58070761D01*
X57844285Y-58046952D01*
X57891904Y-58023142D01*
X58010952Y-58023142D01*
X58058571Y-58046952D01*
X58082380Y-58070761D01*
X58106190Y-58118380D01*
X58106190Y-58237428D01*
X58082380Y-58285047D01*
X58058571Y-58308857D01*
X57606190Y-55530761D02*
X57606190Y-55626000D01*
X57630000Y-55673619D01*
X57653809Y-55697428D01*
X57725238Y-55745047D01*
X57820476Y-55768857D01*
X58010952Y-55768857D01*
X58058571Y-55745047D01*
X58082380Y-55721238D01*
X58106190Y-55673619D01*
X58106190Y-55578380D01*
X58082380Y-55530761D01*
X58058571Y-55506952D01*
X58010952Y-55483142D01*
X57891904Y-55483142D01*
X57844285Y-55506952D01*
X57820476Y-55530761D01*
X57796666Y-55578380D01*
X57796666Y-55673619D01*
X57820476Y-55721238D01*
X57844285Y-55745047D01*
X57891904Y-55768857D01*
X57772857Y-60610761D02*
X58106190Y-60610761D01*
X57582380Y-60729809D02*
X57939523Y-60848857D01*
X57939523Y-60539333D01*
X57653809Y-65928857D02*
X57630000Y-65905047D01*
X57606190Y-65857428D01*
X57606190Y-65738380D01*
X57630000Y-65690761D01*
X57653809Y-65666952D01*
X57701428Y-65643142D01*
X57749047Y-65643142D01*
X57820476Y-65666952D01*
X58106190Y-65952666D01*
X58106190Y-65643142D01*
D10*
%TO.C,C2*%
X69683333Y-70461142D02*
X69635714Y-70508761D01*
X69492857Y-70556380D01*
X69397619Y-70556380D01*
X69254761Y-70508761D01*
X69159523Y-70413523D01*
X69111904Y-70318285D01*
X69064285Y-70127809D01*
X69064285Y-69984952D01*
X69111904Y-69794476D01*
X69159523Y-69699238D01*
X69254761Y-69604000D01*
X69397619Y-69556380D01*
X69492857Y-69556380D01*
X69635714Y-69604000D01*
X69683333Y-69651619D01*
X70064285Y-69651619D02*
X70111904Y-69604000D01*
X70207142Y-69556380D01*
X70445238Y-69556380D01*
X70540476Y-69604000D01*
X70588095Y-69651619D01*
X70635714Y-69746857D01*
X70635714Y-69842095D01*
X70588095Y-69984952D01*
X70016666Y-70556380D01*
X70635714Y-70556380D01*
D12*
%TO.C,J1*%
X77771171Y-67513200D02*
X78206600Y-67513200D01*
X78293685Y-67542228D01*
X78351742Y-67600285D01*
X78380771Y-67687371D01*
X78380771Y-67745428D01*
X78380771Y-66903600D02*
X78380771Y-67251942D01*
X78380771Y-67077771D02*
X77771171Y-67077771D01*
X77858257Y-67135828D01*
X77916314Y-67193885D01*
X77945342Y-67251942D01*
X74443771Y-71736857D02*
X73834171Y-71736857D01*
X73834171Y-71504628D01*
X73863200Y-71446571D01*
X73892228Y-71417542D01*
X73950285Y-71388514D01*
X74037371Y-71388514D01*
X74095428Y-71417542D01*
X74124457Y-71446571D01*
X74153485Y-71504628D01*
X74153485Y-71736857D01*
X74443771Y-71040171D02*
X74414742Y-71098228D01*
X74385714Y-71127257D01*
X74327657Y-71156285D01*
X74153485Y-71156285D01*
X74095428Y-71127257D01*
X74066400Y-71098228D01*
X74037371Y-71040171D01*
X74037371Y-70953085D01*
X74066400Y-70895028D01*
X74095428Y-70866000D01*
X74153485Y-70836971D01*
X74327657Y-70836971D01*
X74385714Y-70866000D01*
X74414742Y-70895028D01*
X74443771Y-70953085D01*
X74443771Y-71040171D01*
X74037371Y-70633771D02*
X74443771Y-70517657D01*
X74153485Y-70401542D01*
X74443771Y-70285428D01*
X74037371Y-70169314D01*
X74414742Y-69704857D02*
X74443771Y-69762914D01*
X74443771Y-69879028D01*
X74414742Y-69937085D01*
X74356685Y-69966114D01*
X74124457Y-69966114D01*
X74066400Y-69937085D01*
X74037371Y-69879028D01*
X74037371Y-69762914D01*
X74066400Y-69704857D01*
X74124457Y-69675828D01*
X74182514Y-69675828D01*
X74240571Y-69966114D01*
X74443771Y-69414571D02*
X74037371Y-69414571D01*
X74153485Y-69414571D02*
X74095428Y-69385542D01*
X74066400Y-69356514D01*
X74037371Y-69298457D01*
X74037371Y-69240400D01*
X74414742Y-68601771D02*
X74443771Y-68514685D01*
X74443771Y-68369542D01*
X74414742Y-68311485D01*
X74385714Y-68282457D01*
X74327657Y-68253428D01*
X74269600Y-68253428D01*
X74211542Y-68282457D01*
X74182514Y-68311485D01*
X74153485Y-68369542D01*
X74124457Y-68485657D01*
X74095428Y-68543714D01*
X74066400Y-68572742D01*
X74008342Y-68601771D01*
X73950285Y-68601771D01*
X73892228Y-68572742D01*
X73863200Y-68543714D01*
X73834171Y-68485657D01*
X73834171Y-68340514D01*
X73863200Y-68253428D01*
X74037371Y-68050228D02*
X74443771Y-67934114D01*
X74153485Y-67818000D01*
X74443771Y-67701885D01*
X74037371Y-67585771D01*
X74443771Y-67353542D02*
X74037371Y-67353542D01*
X73834171Y-67353542D02*
X73863200Y-67382571D01*
X73892228Y-67353542D01*
X73863200Y-67324514D01*
X73834171Y-67353542D01*
X73892228Y-67353542D01*
X74037371Y-67150342D02*
X74037371Y-66918114D01*
X73834171Y-67063257D02*
X74356685Y-67063257D01*
X74414742Y-67034228D01*
X74443771Y-66976171D01*
X74443771Y-66918114D01*
X74414742Y-66453657D02*
X74443771Y-66511714D01*
X74443771Y-66627828D01*
X74414742Y-66685885D01*
X74385714Y-66714914D01*
X74327657Y-66743942D01*
X74153485Y-66743942D01*
X74095428Y-66714914D01*
X74066400Y-66685885D01*
X74037371Y-66627828D01*
X74037371Y-66511714D01*
X74066400Y-66453657D01*
X74443771Y-66192400D02*
X73834171Y-66192400D01*
X74443771Y-65931142D02*
X74124457Y-65931142D01*
X74066400Y-65960171D01*
X74037371Y-66018228D01*
X74037371Y-66105314D01*
X74066400Y-66163371D01*
X74095428Y-66192400D01*
D10*
%TO.C,R1*%
X78176380Y-59087189D02*
X77700190Y-59420523D01*
X78176380Y-59658618D02*
X77176380Y-59658618D01*
X77176380Y-59277665D01*
X77224000Y-59182427D01*
X77271619Y-59134808D01*
X77366857Y-59087189D01*
X77509714Y-59087189D01*
X77604952Y-59134808D01*
X77652571Y-59182427D01*
X77700190Y-59277665D01*
X77700190Y-59658618D01*
X78176380Y-58134808D02*
X78176380Y-58706237D01*
X78176380Y-58420523D02*
X77176380Y-58420523D01*
X77319238Y-58515761D01*
X77414476Y-58610999D01*
X77462095Y-58706237D01*
D12*
%TO.C,J2*%
X61264800Y-122348171D02*
X61264800Y-122783600D01*
X61235771Y-122870685D01*
X61177714Y-122928742D01*
X61090628Y-122957771D01*
X61032571Y-122957771D01*
X61526057Y-122406228D02*
X61555085Y-122377200D01*
X61613142Y-122348171D01*
X61758285Y-122348171D01*
X61816342Y-122377200D01*
X61845371Y-122406228D01*
X61874400Y-122464285D01*
X61874400Y-122522342D01*
X61845371Y-122609428D01*
X61497028Y-122957771D01*
X61874400Y-122957771D01*
X59842400Y-78333600D02*
X60132685Y-78333600D01*
X59784342Y-78507771D02*
X59987542Y-77898171D01*
X60190742Y-78507771D01*
X60306857Y-77898171D02*
X60655200Y-77898171D01*
X60481028Y-78507771D02*
X60481028Y-77898171D01*
X60800342Y-77898171D02*
X61206742Y-78507771D01*
X61206742Y-77898171D02*
X60800342Y-78507771D01*
X61438971Y-78275542D02*
X61903428Y-78275542D01*
X62164685Y-77956228D02*
X62193714Y-77927200D01*
X62251771Y-77898171D01*
X62396914Y-77898171D01*
X62454971Y-77927200D01*
X62484000Y-77956228D01*
X62513028Y-78014285D01*
X62513028Y-78072342D01*
X62484000Y-78159428D01*
X62135657Y-78507771D01*
X62513028Y-78507771D01*
X63035542Y-78101371D02*
X63035542Y-78507771D01*
X62890400Y-77869142D02*
X62745257Y-78304571D01*
X63122628Y-78304571D01*
D13*
%TO.C,U3*%
X66272000Y-55804000D02*
X69872000Y-55804000D01*
X69910478Y-55792478D02*
G75*
G03*
X68072000Y-51354000I-1838478J1838478D01*
G01*
X68072000Y-51353999D02*
G75*
G03*
X66233522Y-55792478I0J-2600001D01*
G01*
%TO.C,C3*%
X66087000Y-59920000D02*
X66087000Y-59307000D01*
X66767000Y-59920000D02*
X66767000Y-58736000D01*
X67888000Y-59920000D02*
X67888000Y-58387000D01*
X66847000Y-63228000D02*
X66847000Y-62000000D01*
X66967000Y-63289000D02*
X66967000Y-62000000D01*
X66927000Y-63270000D02*
X66927000Y-62000000D01*
X66407000Y-62931000D02*
X66407000Y-62000000D01*
X66127000Y-59920000D02*
X66127000Y-59261000D01*
X66447000Y-59920000D02*
X66447000Y-58956000D01*
X67928000Y-63536000D02*
X67928000Y-62000000D01*
X66527000Y-63025000D02*
X66527000Y-62000000D01*
X68048000Y-59920000D02*
X68048000Y-58380000D01*
X67367000Y-59920000D02*
X67367000Y-58480000D01*
X67207000Y-63388000D02*
X67207000Y-62000000D01*
X67167000Y-63374000D02*
X67167000Y-62000000D01*
X66327000Y-62861000D02*
X66327000Y-62000000D01*
X67488000Y-63471000D02*
X67488000Y-62000000D01*
X67848000Y-59920000D02*
X67848000Y-58391000D01*
X67247000Y-59920000D02*
X67247000Y-58518000D01*
X67528000Y-59920000D02*
X67528000Y-58440000D01*
X66807000Y-59920000D02*
X66807000Y-58713000D01*
X66687000Y-59920000D02*
X66687000Y-58785000D01*
X67968000Y-59920000D02*
X67968000Y-58382000D01*
X67568000Y-63488000D02*
X67568000Y-62000000D01*
X66647000Y-63109000D02*
X66647000Y-62000000D01*
X66247000Y-62786000D02*
X66247000Y-62000000D01*
X66087000Y-62613000D02*
X66087000Y-62000000D01*
X67047000Y-59920000D02*
X67047000Y-58595000D01*
X68088000Y-63540000D02*
X68088000Y-62000000D01*
X67768000Y-63521000D02*
X67768000Y-62000000D01*
X67047000Y-63325000D02*
X67047000Y-62000000D01*
X67608000Y-63496000D02*
X67608000Y-62000000D01*
X65607000Y-61765000D02*
X65607000Y-60155000D01*
X65807000Y-62211000D02*
X65807000Y-59709000D01*
X65967000Y-62460000D02*
X65967000Y-59460000D01*
X67728000Y-59920000D02*
X67728000Y-58404000D01*
X67007000Y-59920000D02*
X67007000Y-58612000D01*
X65567000Y-61637000D02*
X65567000Y-60283000D01*
X66527000Y-59920000D02*
X66527000Y-58895000D01*
X66567000Y-59920000D02*
X66567000Y-58865000D01*
X67327000Y-63428000D02*
X67327000Y-62000000D01*
X67087000Y-59920000D02*
X67087000Y-58578000D01*
X67207000Y-59920000D02*
X67207000Y-58532000D01*
X67007000Y-63308000D02*
X67007000Y-62000000D01*
X66847000Y-59920000D02*
X66847000Y-58692000D01*
X66207000Y-62745000D02*
X66207000Y-62000000D01*
X66567000Y-63055000D02*
X66567000Y-62000000D01*
X67768000Y-59920000D02*
X67768000Y-58399000D01*
X67167000Y-59920000D02*
X67167000Y-58546000D01*
X67127000Y-59920000D02*
X67127000Y-58562000D01*
X67928000Y-59920000D02*
X67928000Y-58384000D01*
X67087000Y-63342000D02*
X67087000Y-62000000D01*
X67408000Y-63451000D02*
X67408000Y-62000000D01*
X65687000Y-61971000D02*
X65687000Y-59949000D01*
X66007000Y-62514000D02*
X66007000Y-59406000D01*
X65647000Y-61875000D02*
X65647000Y-60045000D01*
X70892775Y-62435000D02*
X70392775Y-62435000D01*
X68088000Y-59920000D02*
X68088000Y-58380000D01*
X67287000Y-63415000D02*
X67287000Y-62000000D01*
X66607000Y-63082000D02*
X66607000Y-62000000D01*
X66887000Y-59920000D02*
X66887000Y-58670000D01*
X66727000Y-63160000D02*
X66727000Y-62000000D01*
X66287000Y-62824000D02*
X66287000Y-62000000D01*
X66167000Y-59920000D02*
X66167000Y-59217000D01*
X65727000Y-62058000D02*
X65727000Y-59862000D01*
X67968000Y-63538000D02*
X67968000Y-62000000D01*
X67808000Y-63525000D02*
X67808000Y-62000000D01*
X68008000Y-63539000D02*
X68008000Y-62000000D01*
X67888000Y-63533000D02*
X67888000Y-62000000D01*
X66287000Y-59920000D02*
X66287000Y-59096000D01*
X66967000Y-59920000D02*
X66967000Y-58631000D01*
X65527000Y-61478000D02*
X65527000Y-60442000D01*
X65487000Y-61244000D02*
X65487000Y-60676000D01*
X67488000Y-59920000D02*
X67488000Y-58449000D01*
X66367000Y-59920000D02*
X66367000Y-59023000D01*
X66927000Y-59920000D02*
X66927000Y-58650000D01*
X67688000Y-59920000D02*
X67688000Y-58410000D01*
X65847000Y-62279000D02*
X65847000Y-59641000D01*
X65887000Y-62343000D02*
X65887000Y-59577000D01*
X67127000Y-63358000D02*
X67127000Y-62000000D01*
X66807000Y-63207000D02*
X66807000Y-62000000D01*
X65767000Y-62138000D02*
X65767000Y-59782000D01*
X66727000Y-59920000D02*
X66727000Y-58760000D01*
X66167000Y-62703000D02*
X66167000Y-62000000D01*
X66487000Y-62995000D02*
X66487000Y-62000000D01*
X66047000Y-62565000D02*
X66047000Y-59355000D01*
X66607000Y-59920000D02*
X66607000Y-58838000D01*
X67327000Y-59920000D02*
X67327000Y-58492000D01*
X67568000Y-59920000D02*
X67568000Y-58432000D01*
X67247000Y-63402000D02*
X67247000Y-62000000D01*
X67728000Y-63516000D02*
X67728000Y-62000000D01*
X67648000Y-59920000D02*
X67648000Y-58417000D01*
X65927000Y-62403000D02*
X65927000Y-59517000D01*
X66247000Y-59920000D02*
X66247000Y-59134000D01*
X67287000Y-59920000D02*
X67287000Y-58505000D01*
X67808000Y-59920000D02*
X67808000Y-58395000D01*
X68008000Y-59920000D02*
X68008000Y-58381000D01*
X67408000Y-59920000D02*
X67408000Y-58469000D01*
X66207000Y-59920000D02*
X66207000Y-59175000D01*
X67367000Y-63440000D02*
X67367000Y-62000000D01*
X66447000Y-62964000D02*
X66447000Y-62000000D01*
X66647000Y-59920000D02*
X66647000Y-58811000D01*
X66687000Y-63135000D02*
X66687000Y-62000000D01*
X66887000Y-63250000D02*
X66887000Y-62000000D01*
X67848000Y-63529000D02*
X67848000Y-62000000D01*
X66367000Y-62897000D02*
X66367000Y-62000000D01*
X67648000Y-63503000D02*
X67648000Y-62000000D01*
X67448000Y-59920000D02*
X67448000Y-58459000D01*
X66767000Y-63184000D02*
X66767000Y-62000000D01*
X70642775Y-62685000D02*
X70642775Y-62185000D01*
X67688000Y-63510000D02*
X67688000Y-62000000D01*
X66407000Y-59920000D02*
X66407000Y-58989000D01*
X67608000Y-59920000D02*
X67608000Y-58424000D01*
X67528000Y-63480000D02*
X67528000Y-62000000D01*
X66487000Y-59920000D02*
X66487000Y-58925000D01*
X66327000Y-59920000D02*
X66327000Y-59059000D01*
X68048000Y-63540000D02*
X68048000Y-62000000D01*
X67448000Y-63461000D02*
X67448000Y-62000000D01*
X66127000Y-62659000D02*
X66127000Y-62000000D01*
X70708000Y-60960000D02*
G75*
G03*
X70708000Y-60960000I-2620000J0D01*
G01*
%TO.C,C1*%
X64666000Y-67298000D02*
X64666000Y-63258000D01*
X61826000Y-63258000D02*
X62451000Y-63258000D01*
X64041000Y-63258000D02*
X64666000Y-63258000D01*
X61826000Y-67298000D02*
X62451000Y-67298000D01*
X64041000Y-67298000D02*
X64666000Y-67298000D01*
X61826000Y-67298000D02*
X61826000Y-63258000D01*
%TO.C,U1*%
X61055000Y-70231000D02*
X54705000Y-70231000D01*
X61055000Y-51181000D02*
X61055000Y-70231000D01*
X54705000Y-70231000D02*
X54705000Y-51181000D01*
X54705000Y-51181000D02*
X61055000Y-51181000D01*
%TO.C,C2*%
X66087000Y-66016000D02*
X66087000Y-65403000D01*
X66767000Y-66016000D02*
X66767000Y-64832000D01*
X67888000Y-66016000D02*
X67888000Y-64483000D01*
X66847000Y-69324000D02*
X66847000Y-68096000D01*
X66967000Y-69385000D02*
X66967000Y-68096000D01*
X66927000Y-69366000D02*
X66927000Y-68096000D01*
X66407000Y-69027000D02*
X66407000Y-68096000D01*
X66127000Y-66016000D02*
X66127000Y-65357000D01*
X66447000Y-66016000D02*
X66447000Y-65052000D01*
X67928000Y-69632000D02*
X67928000Y-68096000D01*
X66527000Y-69121000D02*
X66527000Y-68096000D01*
X68048000Y-66016000D02*
X68048000Y-64476000D01*
X67367000Y-66016000D02*
X67367000Y-64576000D01*
X67207000Y-69484000D02*
X67207000Y-68096000D01*
X67167000Y-69470000D02*
X67167000Y-68096000D01*
X66327000Y-68957000D02*
X66327000Y-68096000D01*
X67488000Y-69567000D02*
X67488000Y-68096000D01*
X67848000Y-66016000D02*
X67848000Y-64487000D01*
X67247000Y-66016000D02*
X67247000Y-64614000D01*
X67528000Y-66016000D02*
X67528000Y-64536000D01*
X66807000Y-66016000D02*
X66807000Y-64809000D01*
X66687000Y-66016000D02*
X66687000Y-64881000D01*
X67968000Y-66016000D02*
X67968000Y-64478000D01*
X67568000Y-69584000D02*
X67568000Y-68096000D01*
X66647000Y-69205000D02*
X66647000Y-68096000D01*
X66247000Y-68882000D02*
X66247000Y-68096000D01*
X66087000Y-68709000D02*
X66087000Y-68096000D01*
X67047000Y-66016000D02*
X67047000Y-64691000D01*
X68088000Y-69636000D02*
X68088000Y-68096000D01*
X67768000Y-69617000D02*
X67768000Y-68096000D01*
X67047000Y-69421000D02*
X67047000Y-68096000D01*
X67608000Y-69592000D02*
X67608000Y-68096000D01*
X65607000Y-67861000D02*
X65607000Y-66251000D01*
X65807000Y-68307000D02*
X65807000Y-65805000D01*
X65967000Y-68556000D02*
X65967000Y-65556000D01*
X67728000Y-66016000D02*
X67728000Y-64500000D01*
X67007000Y-66016000D02*
X67007000Y-64708000D01*
X65567000Y-67733000D02*
X65567000Y-66379000D01*
X66527000Y-66016000D02*
X66527000Y-64991000D01*
X66567000Y-66016000D02*
X66567000Y-64961000D01*
X67327000Y-69524000D02*
X67327000Y-68096000D01*
X67087000Y-66016000D02*
X67087000Y-64674000D01*
X67207000Y-66016000D02*
X67207000Y-64628000D01*
X67007000Y-69404000D02*
X67007000Y-68096000D01*
X66847000Y-66016000D02*
X66847000Y-64788000D01*
X66207000Y-68841000D02*
X66207000Y-68096000D01*
X66567000Y-69151000D02*
X66567000Y-68096000D01*
X67768000Y-66016000D02*
X67768000Y-64495000D01*
X67167000Y-66016000D02*
X67167000Y-64642000D01*
X67127000Y-66016000D02*
X67127000Y-64658000D01*
X67928000Y-66016000D02*
X67928000Y-64480000D01*
X67087000Y-69438000D02*
X67087000Y-68096000D01*
X67408000Y-69547000D02*
X67408000Y-68096000D01*
X65687000Y-68067000D02*
X65687000Y-66045000D01*
X66007000Y-68610000D02*
X66007000Y-65502000D01*
X65647000Y-67971000D02*
X65647000Y-66141000D01*
X70892775Y-68531000D02*
X70392775Y-68531000D01*
X68088000Y-66016000D02*
X68088000Y-64476000D01*
X67287000Y-69511000D02*
X67287000Y-68096000D01*
X66607000Y-69178000D02*
X66607000Y-68096000D01*
X66887000Y-66016000D02*
X66887000Y-64766000D01*
X66727000Y-69256000D02*
X66727000Y-68096000D01*
X66287000Y-68920000D02*
X66287000Y-68096000D01*
X66167000Y-66016000D02*
X66167000Y-65313000D01*
X65727000Y-68154000D02*
X65727000Y-65958000D01*
X67968000Y-69634000D02*
X67968000Y-68096000D01*
X67808000Y-69621000D02*
X67808000Y-68096000D01*
X68008000Y-69635000D02*
X68008000Y-68096000D01*
X67888000Y-69629000D02*
X67888000Y-68096000D01*
X66287000Y-66016000D02*
X66287000Y-65192000D01*
X66967000Y-66016000D02*
X66967000Y-64727000D01*
X65527000Y-67574000D02*
X65527000Y-66538000D01*
X65487000Y-67340000D02*
X65487000Y-66772000D01*
X67488000Y-66016000D02*
X67488000Y-64545000D01*
X66367000Y-66016000D02*
X66367000Y-65119000D01*
X66927000Y-66016000D02*
X66927000Y-64746000D01*
X67688000Y-66016000D02*
X67688000Y-64506000D01*
X65847000Y-68375000D02*
X65847000Y-65737000D01*
X65887000Y-68439000D02*
X65887000Y-65673000D01*
X67127000Y-69454000D02*
X67127000Y-68096000D01*
X66807000Y-69303000D02*
X66807000Y-68096000D01*
X65767000Y-68234000D02*
X65767000Y-65878000D01*
X66727000Y-66016000D02*
X66727000Y-64856000D01*
X66167000Y-68799000D02*
X66167000Y-68096000D01*
X66487000Y-69091000D02*
X66487000Y-68096000D01*
X66047000Y-68661000D02*
X66047000Y-65451000D01*
X66607000Y-66016000D02*
X66607000Y-64934000D01*
X67327000Y-66016000D02*
X67327000Y-64588000D01*
X67568000Y-66016000D02*
X67568000Y-64528000D01*
X67247000Y-69498000D02*
X67247000Y-68096000D01*
X67728000Y-69612000D02*
X67728000Y-68096000D01*
X67648000Y-66016000D02*
X67648000Y-64513000D01*
X65927000Y-68499000D02*
X65927000Y-65613000D01*
X66247000Y-66016000D02*
X66247000Y-65230000D01*
X67287000Y-66016000D02*
X67287000Y-64601000D01*
X67808000Y-66016000D02*
X67808000Y-64491000D01*
X68008000Y-66016000D02*
X68008000Y-64477000D01*
X67408000Y-66016000D02*
X67408000Y-64565000D01*
X66207000Y-66016000D02*
X66207000Y-65271000D01*
X67367000Y-69536000D02*
X67367000Y-68096000D01*
X66447000Y-69060000D02*
X66447000Y-68096000D01*
X66647000Y-66016000D02*
X66647000Y-64907000D01*
X66687000Y-69231000D02*
X66687000Y-68096000D01*
X66887000Y-69346000D02*
X66887000Y-68096000D01*
X67848000Y-69625000D02*
X67848000Y-68096000D01*
X66367000Y-68993000D02*
X66367000Y-68096000D01*
X67648000Y-69599000D02*
X67648000Y-68096000D01*
X67448000Y-66016000D02*
X67448000Y-64555000D01*
X66767000Y-69280000D02*
X66767000Y-68096000D01*
X70642775Y-68781000D02*
X70642775Y-68281000D01*
X67688000Y-69606000D02*
X67688000Y-68096000D01*
X66407000Y-66016000D02*
X66407000Y-65085000D01*
X67608000Y-66016000D02*
X67608000Y-64520000D01*
X67528000Y-69576000D02*
X67528000Y-68096000D01*
X66487000Y-66016000D02*
X66487000Y-65021000D01*
X66327000Y-66016000D02*
X66327000Y-65155000D01*
X68048000Y-69636000D02*
X68048000Y-68096000D01*
X67448000Y-69557000D02*
X67448000Y-68096000D01*
X66127000Y-68755000D02*
X66127000Y-68096000D01*
X70708000Y-67056000D02*
G75*
G03*
X70708000Y-67056000I-2620000J0D01*
G01*
D14*
%TO.C,J1*%
X77470000Y-66675000D02*
X76835000Y-66040000D01*
X75565000Y-71120000D02*
X74930000Y-70485000D01*
X75565000Y-68580000D02*
X74930000Y-67945000D01*
X74930000Y-69215000D02*
X75565000Y-68580000D01*
X77470000Y-66675000D02*
X77470000Y-67945000D01*
X75565000Y-66040000D02*
X74930000Y-66675000D01*
X76835000Y-68580000D02*
X77470000Y-69215000D01*
X76835000Y-66040000D02*
X75565000Y-66040000D01*
X74930000Y-67945000D02*
X74930000Y-66675000D01*
X76835000Y-71120000D02*
X75565000Y-71120000D01*
X77470000Y-69215000D02*
X77470000Y-70485000D01*
X77470000Y-67945000D02*
X76835000Y-68580000D01*
X77470000Y-70485000D02*
X76835000Y-71120000D01*
X74930000Y-70485000D02*
X74930000Y-69215000D01*
D13*
%TO.C,R1*%
X78250000Y-57930000D02*
X78250000Y-51290000D01*
X71610000Y-57930000D02*
X78250000Y-57930000D01*
X71610000Y-51290000D02*
X71610000Y-57930000D01*
X78250000Y-51290000D02*
X71610000Y-51290000D01*
X74930000Y-57930000D02*
X74930000Y-60730000D01*
D15*
%TO.C,J2*%
X65689480Y-81516220D02*
X65689480Y-83515200D01*
X75087480Y-101013260D02*
X75087480Y-97614740D01*
X65689480Y-89916000D02*
X65689480Y-91914980D01*
X65689480Y-110812580D02*
X65689480Y-112811560D01*
X76085700Y-97614740D02*
X75087480Y-97614740D01*
X65689480Y-115112800D02*
X65689480Y-117111780D01*
X78087220Y-101013260D02*
X75087480Y-101013260D01*
X65689480Y-73416160D02*
X65689480Y-75316080D01*
X65689480Y-102511860D02*
X65689480Y-104513380D01*
X65689480Y-119313960D02*
X65689480Y-121312940D01*
X78226920Y-125211840D02*
X78226920Y-73416160D01*
X65689480Y-85714840D02*
X65689480Y-87716360D01*
X65689480Y-125211840D02*
X78226920Y-125211840D01*
X65689480Y-77315060D02*
X65689480Y-79314040D01*
X78226920Y-73416160D02*
X65689480Y-73416160D01*
X75087480Y-97614740D02*
X78087220Y-97614740D01*
X75087480Y-97614740D02*
X75087480Y-101013260D01*
X65689480Y-106713020D02*
X65689480Y-108712000D01*
X65689480Y-98315780D02*
X65689480Y-100312220D01*
X75087480Y-101013260D02*
X76085700Y-101013260D01*
X65689480Y-94114620D02*
X65689480Y-96116140D01*
X65689480Y-125211840D02*
X65689480Y-123311920D01*
X76085700Y-101013260D02*
X76085700Y-97614740D01*
%TD*%
M02*
