%TF.GenerationSoftware,KiCad,Pcbnew,(6.0.8-1)-1*%
%TF.CreationDate,2022-10-29T11:09:20-05:00*%
%TF.ProjectId,VT100_ATX_DCDC,56543130-305f-4415-9458-5f444344432e,rev?*%
%TF.SameCoordinates,Original*%
%TF.FileFunction,Legend,Bot*%
%TF.FilePolarity,Positive*%
%FSLAX46Y46*%
G04 Gerber Fmt 4.6, Leading zero omitted, Abs format (unit mm)*
G04 Created by KiCad (PCBNEW (6.0.8-1)-1) date 2022-10-29 11:09:20*
%MOMM*%
%LPD*%
G01*
G04 APERTURE LIST*
%ADD10C,0.100000*%
%ADD11C,0.120000*%
G04 APERTURE END LIST*
D10*
X53064142Y-80510190D02*
X53045095Y-80529238D01*
X53026047Y-80586380D01*
X53026047Y-80624476D01*
X53045095Y-80681619D01*
X53083190Y-80719714D01*
X53121285Y-80738761D01*
X53197476Y-80757809D01*
X53254619Y-80757809D01*
X53330809Y-80738761D01*
X53368904Y-80719714D01*
X53407000Y-80681619D01*
X53426047Y-80624476D01*
X53426047Y-80586380D01*
X53407000Y-80529238D01*
X53387952Y-80510190D01*
X53292714Y-80167333D02*
X53026047Y-80167333D01*
X53292714Y-80338761D02*
X53083190Y-80338761D01*
X53045095Y-80319714D01*
X53026047Y-80281619D01*
X53026047Y-80224476D01*
X53045095Y-80186380D01*
X53064142Y-80167333D01*
X53292714Y-80034000D02*
X53292714Y-79881619D01*
X53426047Y-79976857D02*
X53083190Y-79976857D01*
X53045095Y-79957809D01*
X53026047Y-79919714D01*
X53026047Y-79881619D01*
X53292714Y-79500666D02*
X53292714Y-79348285D01*
X53426047Y-79443523D02*
X53083190Y-79443523D01*
X53045095Y-79424476D01*
X53026047Y-79386380D01*
X53026047Y-79348285D01*
X53026047Y-79157809D02*
X53045095Y-79195904D01*
X53064142Y-79214952D01*
X53102238Y-79234000D01*
X53216523Y-79234000D01*
X53254619Y-79214952D01*
X53273666Y-79195904D01*
X53292714Y-79157809D01*
X53292714Y-79100666D01*
X53273666Y-79062571D01*
X53254619Y-79043523D01*
X53216523Y-79024476D01*
X53102238Y-79024476D01*
X53064142Y-79043523D01*
X53045095Y-79062571D01*
X53026047Y-79100666D01*
X53026047Y-79157809D01*
X53026047Y-78548285D02*
X53426047Y-78548285D01*
X53426047Y-78453047D01*
X53407000Y-78395904D01*
X53368904Y-78357809D01*
X53330809Y-78338761D01*
X53254619Y-78319714D01*
X53197476Y-78319714D01*
X53121285Y-78338761D01*
X53083190Y-78357809D01*
X53045095Y-78395904D01*
X53026047Y-78453047D01*
X53026047Y-78548285D01*
X53026047Y-78148285D02*
X53292714Y-78148285D01*
X53426047Y-78148285D02*
X53407000Y-78167333D01*
X53387952Y-78148285D01*
X53407000Y-78129238D01*
X53426047Y-78148285D01*
X53387952Y-78148285D01*
X53045095Y-77976857D02*
X53026047Y-77938761D01*
X53026047Y-77862571D01*
X53045095Y-77824476D01*
X53083190Y-77805428D01*
X53102238Y-77805428D01*
X53140333Y-77824476D01*
X53159380Y-77862571D01*
X53159380Y-77919714D01*
X53178428Y-77957809D01*
X53216523Y-77976857D01*
X53235571Y-77976857D01*
X53273666Y-77957809D01*
X53292714Y-77919714D01*
X53292714Y-77862571D01*
X53273666Y-77824476D01*
X53045095Y-77462571D02*
X53026047Y-77500666D01*
X53026047Y-77576857D01*
X53045095Y-77614952D01*
X53064142Y-77634000D01*
X53102238Y-77653047D01*
X53216523Y-77653047D01*
X53254619Y-77634000D01*
X53273666Y-77614952D01*
X53292714Y-77576857D01*
X53292714Y-77500666D01*
X53273666Y-77462571D01*
X53026047Y-77234000D02*
X53045095Y-77272095D01*
X53064142Y-77291142D01*
X53102238Y-77310190D01*
X53216523Y-77310190D01*
X53254619Y-77291142D01*
X53273666Y-77272095D01*
X53292714Y-77234000D01*
X53292714Y-77176857D01*
X53273666Y-77138761D01*
X53254619Y-77119714D01*
X53216523Y-77100666D01*
X53102238Y-77100666D01*
X53064142Y-77119714D01*
X53045095Y-77138761D01*
X53026047Y-77176857D01*
X53026047Y-77234000D01*
X53292714Y-76929238D02*
X53026047Y-76929238D01*
X53254619Y-76929238D02*
X53273666Y-76910190D01*
X53292714Y-76872095D01*
X53292714Y-76814952D01*
X53273666Y-76776857D01*
X53235571Y-76757809D01*
X53026047Y-76757809D01*
X53292714Y-76567333D02*
X53026047Y-76567333D01*
X53254619Y-76567333D02*
X53273666Y-76548285D01*
X53292714Y-76510190D01*
X53292714Y-76453047D01*
X53273666Y-76414952D01*
X53235571Y-76395904D01*
X53026047Y-76395904D01*
X53045095Y-76053047D02*
X53026047Y-76091142D01*
X53026047Y-76167333D01*
X53045095Y-76205428D01*
X53083190Y-76224476D01*
X53235571Y-76224476D01*
X53273666Y-76205428D01*
X53292714Y-76167333D01*
X53292714Y-76091142D01*
X53273666Y-76053047D01*
X53235571Y-76034000D01*
X53197476Y-76034000D01*
X53159380Y-76224476D01*
X53045095Y-75691142D02*
X53026047Y-75729238D01*
X53026047Y-75805428D01*
X53045095Y-75843523D01*
X53064142Y-75862571D01*
X53102238Y-75881619D01*
X53216523Y-75881619D01*
X53254619Y-75862571D01*
X53273666Y-75843523D01*
X53292714Y-75805428D01*
X53292714Y-75729238D01*
X53273666Y-75691142D01*
X53292714Y-75576857D02*
X53292714Y-75424476D01*
X53426047Y-75519714D02*
X53083190Y-75519714D01*
X53045095Y-75500666D01*
X53026047Y-75462571D01*
X53026047Y-75424476D01*
X52534428Y-80738761D02*
X52534428Y-80434000D01*
X52382047Y-80586380D02*
X52686809Y-80586380D01*
X52382047Y-80034000D02*
X52382047Y-80262571D01*
X52382047Y-80148285D02*
X52782047Y-80148285D01*
X52724904Y-80186380D01*
X52686809Y-80224476D01*
X52667761Y-80262571D01*
X52743952Y-79881619D02*
X52763000Y-79862571D01*
X52782047Y-79824476D01*
X52782047Y-79729238D01*
X52763000Y-79691142D01*
X52743952Y-79672095D01*
X52705857Y-79653047D01*
X52667761Y-79653047D01*
X52610619Y-79672095D01*
X52382047Y-79900666D01*
X52382047Y-79653047D01*
X52782047Y-79538761D02*
X52382047Y-79405428D01*
X52782047Y-79272095D01*
X52782047Y-78891142D02*
X52382047Y-78757809D01*
X52782047Y-78624476D01*
X52382047Y-78491142D02*
X52648714Y-78491142D01*
X52782047Y-78491142D02*
X52763000Y-78510190D01*
X52743952Y-78491142D01*
X52763000Y-78472095D01*
X52782047Y-78491142D01*
X52743952Y-78491142D01*
X52382047Y-78129238D02*
X52782047Y-78129238D01*
X52401095Y-78129238D02*
X52382047Y-78167333D01*
X52382047Y-78243523D01*
X52401095Y-78281619D01*
X52420142Y-78300666D01*
X52458238Y-78319714D01*
X52572523Y-78319714D01*
X52610619Y-78300666D01*
X52629666Y-78281619D01*
X52648714Y-78243523D01*
X52648714Y-78167333D01*
X52629666Y-78129238D01*
X52401095Y-77786380D02*
X52382047Y-77824476D01*
X52382047Y-77900666D01*
X52401095Y-77938761D01*
X52439190Y-77957809D01*
X52591571Y-77957809D01*
X52629666Y-77938761D01*
X52648714Y-77900666D01*
X52648714Y-77824476D01*
X52629666Y-77786380D01*
X52591571Y-77767333D01*
X52553476Y-77767333D01*
X52515380Y-77957809D01*
X52382047Y-77538761D02*
X52401095Y-77576857D01*
X52420142Y-77595904D01*
X52458238Y-77614952D01*
X52572523Y-77614952D01*
X52610619Y-77595904D01*
X52629666Y-77576857D01*
X52648714Y-77538761D01*
X52648714Y-77481619D01*
X52629666Y-77443523D01*
X52610619Y-77424476D01*
X52572523Y-77405428D01*
X52458238Y-77405428D01*
X52420142Y-77424476D01*
X52401095Y-77443523D01*
X52382047Y-77481619D01*
X52382047Y-77538761D01*
X52763000Y-76719714D02*
X52782047Y-76757809D01*
X52782047Y-76814952D01*
X52763000Y-76872095D01*
X52724904Y-76910190D01*
X52686809Y-76929238D01*
X52610619Y-76948285D01*
X52553476Y-76948285D01*
X52477285Y-76929238D01*
X52439190Y-76910190D01*
X52401095Y-76872095D01*
X52382047Y-76814952D01*
X52382047Y-76776857D01*
X52401095Y-76719714D01*
X52420142Y-76700666D01*
X52553476Y-76700666D01*
X52553476Y-76776857D01*
X52382047Y-76529238D02*
X52782047Y-76529238D01*
X52382047Y-76300666D01*
X52782047Y-76300666D01*
X52382047Y-76110190D02*
X52782047Y-76110190D01*
X52782047Y-76014952D01*
X52763000Y-75957809D01*
X52724904Y-75919714D01*
X52686809Y-75900666D01*
X52610619Y-75881619D01*
X52553476Y-75881619D01*
X52477285Y-75900666D01*
X52439190Y-75919714D01*
X52401095Y-75957809D01*
X52382047Y-76014952D01*
X52382047Y-76110190D01*
X52004714Y-80795904D02*
X52004714Y-80643523D01*
X51738047Y-80738761D02*
X52080904Y-80738761D01*
X52119000Y-80719714D01*
X52138047Y-80681619D01*
X52138047Y-80643523D01*
X51738047Y-80510190D02*
X52004714Y-80510190D01*
X51928523Y-80510190D02*
X51966619Y-80491142D01*
X51985666Y-80472095D01*
X52004714Y-80434000D01*
X52004714Y-80395904D01*
X51738047Y-80205428D02*
X51757095Y-80243523D01*
X51776142Y-80262571D01*
X51814238Y-80281619D01*
X51928523Y-80281619D01*
X51966619Y-80262571D01*
X51985666Y-80243523D01*
X52004714Y-80205428D01*
X52004714Y-80148285D01*
X51985666Y-80110190D01*
X51966619Y-80091142D01*
X51928523Y-80072095D01*
X51814238Y-80072095D01*
X51776142Y-80091142D01*
X51757095Y-80110190D01*
X51738047Y-80148285D01*
X51738047Y-80205428D01*
X51738047Y-79900666D02*
X52004714Y-79900666D01*
X51966619Y-79900666D02*
X51985666Y-79881619D01*
X52004714Y-79843523D01*
X52004714Y-79786380D01*
X51985666Y-79748285D01*
X51947571Y-79729238D01*
X51738047Y-79729238D01*
X51947571Y-79729238D02*
X51985666Y-79710190D01*
X52004714Y-79672095D01*
X52004714Y-79614952D01*
X51985666Y-79576857D01*
X51947571Y-79557809D01*
X51738047Y-79557809D01*
X51852333Y-79081619D02*
X51852333Y-78891142D01*
X51738047Y-79119714D02*
X52138047Y-78986380D01*
X51738047Y-78853047D01*
X52138047Y-78776857D02*
X52138047Y-78548285D01*
X51738047Y-78662571D02*
X52138047Y-78662571D01*
X52138047Y-78453047D02*
X51738047Y-78186380D01*
X52138047Y-78186380D02*
X51738047Y-78453047D01*
X52119000Y-77519714D02*
X52138047Y-77557809D01*
X52138047Y-77614952D01*
X52119000Y-77672095D01*
X52080904Y-77710190D01*
X52042809Y-77729238D01*
X51966619Y-77748285D01*
X51909476Y-77748285D01*
X51833285Y-77729238D01*
X51795190Y-77710190D01*
X51757095Y-77672095D01*
X51738047Y-77614952D01*
X51738047Y-77576857D01*
X51757095Y-77519714D01*
X51776142Y-77500666D01*
X51909476Y-77500666D01*
X51909476Y-77576857D01*
X51738047Y-77329238D02*
X52138047Y-77329238D01*
X51738047Y-77100666D01*
X52138047Y-77100666D01*
X51738047Y-76910190D02*
X52138047Y-76910190D01*
X52138047Y-76814952D01*
X52119000Y-76757809D01*
X52080904Y-76719714D01*
X52042809Y-76700666D01*
X51966619Y-76681619D01*
X51909476Y-76681619D01*
X51833285Y-76700666D01*
X51795190Y-76719714D01*
X51757095Y-76757809D01*
X51738047Y-76814952D01*
X51738047Y-76910190D01*
D11*
%TO.C,JP1*%
X51290000Y-83296000D02*
X54090000Y-83296000D01*
X54090000Y-83296000D02*
X54090000Y-81296000D01*
X51290000Y-81296000D02*
X51290000Y-83296000D01*
X54090000Y-81296000D02*
X51290000Y-81296000D01*
%TD*%
M02*
