%TF.GenerationSoftware,KiCad,Pcbnew,(6.0.8-1)-1*%
%TF.CreationDate,2022-11-01T20:59:10-05:00*%
%TF.ProjectId,VT100_ATX_DCDC,56543130-305f-4415-9458-5f444344432e,rev?*%
%TF.SameCoordinates,Original*%
%TF.FileFunction,Soldermask,Top*%
%TF.FilePolarity,Negative*%
%FSLAX46Y46*%
G04 Gerber Fmt 4.6, Leading zero omitted, Abs format (unit mm)*
G04 Created by KiCad (PCBNEW (6.0.8-1)-1) date 2022-11-01 20:59:10*
%MOMM*%
%LPD*%
G01*
G04 APERTURE LIST*
G04 Aperture macros list*
%AMRoundRect*
0 Rectangle with rounded corners*
0 $1 Rounding radius*
0 $2 $3 $4 $5 $6 $7 $8 $9 X,Y pos of 4 corners*
0 Add a 4 corners polygon primitive as box body*
4,1,4,$2,$3,$4,$5,$6,$7,$8,$9,$2,$3,0*
0 Add four circle primitives for the rounded corners*
1,1,$1+$1,$2,$3*
1,1,$1+$1,$4,$5*
1,1,$1+$1,$6,$7*
1,1,$1+$1,$8,$9*
0 Add four rect primitives between the rounded corners*
20,1,$1+$1,$2,$3,$4,$5,0*
20,1,$1+$1,$4,$5,$6,$7,0*
20,1,$1+$1,$6,$7,$8,$9,0*
20,1,$1+$1,$8,$9,$2,$3,0*%
G04 Aperture macros list end*
%ADD10C,0.120000*%
%ADD11C,2.000000*%
%ADD12R,1.600000X1.600000*%
%ADD13C,1.600000*%
%ADD14C,2.082800*%
%ADD15RoundRect,0.120000X4.980000X1.080000X-4.980000X1.080000X-4.980000X-1.080000X4.980000X-1.080000X0*%
%ADD16C,2.400000*%
%ADD17O,2.400000X2.400000*%
%ADD18C,3.202940*%
%ADD19C,3.101340*%
G04 APERTURE END LIST*
%TO.C,U2*%
G36*
X49231000Y-125733000D02*
G01*
X40481000Y-125733000D01*
X40481000Y-50733000D01*
X49231000Y-50733000D01*
X49231000Y-125733000D01*
G37*
D10*
X49231000Y-125733000D02*
X40481000Y-125733000D01*
X40481000Y-50733000D01*
X49231000Y-50733000D01*
X49231000Y-125733000D01*
%TD*%
D11*
%TO.C,U1*%
X59595000Y-53435000D03*
X59595000Y-55975000D03*
X59595000Y-61055000D03*
X59595000Y-63595000D03*
X59595000Y-66135000D03*
%TD*%
D12*
%TO.C,C2*%
X66802000Y-64201113D03*
D13*
X66802000Y-62201113D03*
%TD*%
D12*
%TO.C,C1*%
X66802000Y-55880000D03*
D13*
X66802000Y-53880000D03*
%TD*%
D14*
%TO.C,J1*%
X76200000Y-67310000D03*
X76200000Y-69850000D03*
%TD*%
D15*
%TO.C,U2*%
X45931000Y-54233000D03*
X45931000Y-58233000D03*
X45931000Y-62233000D03*
X45931000Y-66233000D03*
X45931000Y-70233000D03*
X45931000Y-74233000D03*
X45931000Y-78233000D03*
X45931000Y-82233000D03*
X45931000Y-86233000D03*
X45931000Y-90233000D03*
X45931000Y-94233000D03*
X45931000Y-98233000D03*
X45931000Y-102233000D03*
X45931000Y-106233000D03*
X45931000Y-110233000D03*
X45931000Y-114233000D03*
X45931000Y-118233000D03*
X45931000Y-122233000D03*
%TD*%
D16*
%TO.C,R1*%
X74930000Y-54610000D03*
D17*
X74930000Y-62230000D03*
%TD*%
D18*
%TO.C,J2*%
X71628000Y-76215240D03*
X71628000Y-122412760D03*
D19*
X64328040Y-76215240D03*
X64328040Y-80416400D03*
X64328040Y-84615020D03*
X64328040Y-88816180D03*
X64328040Y-93014800D03*
X64328040Y-97215960D03*
X64328040Y-101412040D03*
X64328040Y-105613200D03*
X64328040Y-109811820D03*
X64328040Y-114012980D03*
X64328040Y-118211600D03*
X64328040Y-122412760D03*
X58828940Y-76215240D03*
X58828940Y-80416400D03*
X58828940Y-84615020D03*
X58828940Y-88816180D03*
X58828940Y-93014800D03*
X58828940Y-97215960D03*
X58828940Y-101412040D03*
X58828940Y-105613200D03*
X58828940Y-109811820D03*
X58828940Y-114012980D03*
X58828940Y-118211600D03*
X58828940Y-122412760D03*
%TD*%
M02*
