%TF.GenerationSoftware,KiCad,Pcbnew,(6.0.8-1)-1*%
%TF.CreationDate,2022-11-14T22:02:26-06:00*%
%TF.ProjectId,VT100_ATX_DCDC,56543130-305f-4415-9458-5f444344432e,rev?*%
%TF.SameCoordinates,Original*%
%TF.FileFunction,Copper,L2,Bot*%
%TF.FilePolarity,Positive*%
%FSLAX46Y46*%
G04 Gerber Fmt 4.6, Leading zero omitted, Abs format (unit mm)*
G04 Created by KiCad (PCBNEW (6.0.8-1)-1) date 2022-11-14 22:02:26*
%MOMM*%
%LPD*%
G01*
G04 APERTURE LIST*
G04 Aperture macros list*
%AMRoundRect*
0 Rectangle with rounded corners*
0 $1 Rounding radius*
0 $2 $3 $4 $5 $6 $7 $8 $9 X,Y pos of 4 corners*
0 Add a 4 corners polygon primitive as box body*
4,1,4,$2,$3,$4,$5,$6,$7,$8,$9,$2,$3,0*
0 Add four circle primitives for the rounded corners*
1,1,$1+$1,$2,$3*
1,1,$1+$1,$4,$5*
1,1,$1+$1,$6,$7*
1,1,$1+$1,$8,$9*
0 Add four rect primitives between the rounded corners*
20,1,$1+$1,$2,$3,$4,$5,0*
20,1,$1+$1,$4,$5,$6,$7,0*
20,1,$1+$1,$6,$7,$8,$9,0*
20,1,$1+$1,$8,$9,$2,$3,0*%
G04 Aperture macros list end*
%ADD10C,0.200000*%
%TA.AperFunction,NonConductor*%
%ADD11C,0.200000*%
%TD*%
%TA.AperFunction,ComponentPad*%
%ADD12RoundRect,0.120000X4.880000X1.080000X-4.880000X1.080000X-4.880000X-1.080000X4.880000X-1.080000X0*%
%TD*%
%TA.AperFunction,ComponentPad*%
%ADD13C,1.600000*%
%TD*%
%TA.AperFunction,ComponentPad*%
%ADD14C,1.524000*%
%TD*%
%TA.AperFunction,ComponentPad*%
%ADD15C,2.000000*%
%TD*%
%TA.AperFunction,ComponentPad*%
%ADD16RoundRect,0.250000X-0.750000X0.600000X-0.750000X-0.600000X0.750000X-0.600000X0.750000X0.600000X0*%
%TD*%
%TA.AperFunction,ComponentPad*%
%ADD17O,2.000000X1.700000*%
%TD*%
%TA.AperFunction,ComponentPad*%
%ADD18R,1.600000X1.600000*%
%TD*%
%TA.AperFunction,ComponentPad*%
%ADD19RoundRect,0.437500X-0.437500X0.437500X-0.437500X-0.437500X0.437500X-0.437500X0.437500X0.437500X0*%
%TD*%
%TA.AperFunction,ComponentPad*%
%ADD20R,1.050000X1.500000*%
%TD*%
%TA.AperFunction,ComponentPad*%
%ADD21O,1.050000X1.500000*%
%TD*%
%TA.AperFunction,ComponentPad*%
%ADD22C,2.898140*%
%TD*%
%TA.AperFunction,Conductor*%
%ADD23C,1.000000*%
%TD*%
%TA.AperFunction,Conductor*%
%ADD24C,0.250000*%
%TD*%
G04 APERTURE END LIST*
D10*
D11*
X80458571Y-84303919D02*
X81958571Y-84616419D01*
X80458571Y-85303919D01*
X80458571Y-85589633D02*
X80458571Y-86446776D01*
X81958571Y-85830705D02*
X80458571Y-86018205D01*
X81958571Y-87544991D02*
X81958571Y-86687848D01*
X81958571Y-87116419D02*
X80458571Y-87303919D01*
X80672857Y-87134276D01*
X80815714Y-86973562D01*
X80887142Y-86821776D01*
X80458571Y-88661062D02*
X80458571Y-88803919D01*
X80530000Y-88937848D01*
X80601428Y-89000348D01*
X80744285Y-89053919D01*
X81030000Y-89089633D01*
X81387142Y-89044991D01*
X81672857Y-88937848D01*
X81815714Y-88848562D01*
X81887142Y-88768205D01*
X81958571Y-88616419D01*
X81958571Y-88473562D01*
X81887142Y-88339633D01*
X81815714Y-88277133D01*
X81672857Y-88223562D01*
X81387142Y-88187848D01*
X81030000Y-88232491D01*
X80744285Y-88339633D01*
X80601428Y-88428919D01*
X80530000Y-88509276D01*
X80458571Y-88661062D01*
X80458571Y-90089633D02*
X80458571Y-90232491D01*
X80530000Y-90366419D01*
X80601428Y-90428919D01*
X80744285Y-90482491D01*
X81030000Y-90518205D01*
X81387142Y-90473562D01*
X81672857Y-90366419D01*
X81815714Y-90277133D01*
X81887142Y-90196776D01*
X81958571Y-90044991D01*
X81958571Y-89902133D01*
X81887142Y-89768205D01*
X81815714Y-89705705D01*
X81672857Y-89652133D01*
X81387142Y-89616419D01*
X81030000Y-89661062D01*
X80744285Y-89768205D01*
X80601428Y-89857491D01*
X80530000Y-89937848D01*
X80458571Y-90089633D01*
X81530000Y-92169991D02*
X81530000Y-92884276D01*
X81958571Y-91973562D02*
X80458571Y-92661062D01*
X81958571Y-92973562D01*
X80458571Y-93446776D02*
X80458571Y-94303919D01*
X81958571Y-93687848D02*
X80458571Y-93875348D01*
X80458571Y-94661062D02*
X81958571Y-95473562D01*
X80458571Y-95661062D02*
X81958571Y-94473562D01*
X81958571Y-97187848D02*
X80458571Y-97375348D01*
X80458571Y-97946776D01*
X80530000Y-98080705D01*
X80601428Y-98143205D01*
X80744285Y-98196776D01*
X80958571Y-98169991D01*
X81101428Y-98080705D01*
X81172857Y-98000348D01*
X81244285Y-97848562D01*
X81244285Y-97277133D01*
X80458571Y-99161062D02*
X80458571Y-99446776D01*
X80530000Y-99580705D01*
X80672857Y-99705705D01*
X80958571Y-99741419D01*
X81458571Y-99678919D01*
X81744285Y-99571776D01*
X81887142Y-99411062D01*
X81958571Y-99259276D01*
X81958571Y-98973562D01*
X81887142Y-98839633D01*
X81744285Y-98714633D01*
X81458571Y-98678919D01*
X80958571Y-98741419D01*
X80672857Y-98848562D01*
X80530000Y-99009276D01*
X80458571Y-99161062D01*
X80458571Y-100303919D02*
X81958571Y-100473562D01*
X80887142Y-100893205D01*
X81958571Y-101044991D01*
X80458571Y-101589633D01*
X81172857Y-102071776D02*
X81172857Y-102571776D01*
X81958571Y-102687848D02*
X81958571Y-101973562D01*
X80458571Y-102161062D01*
X80458571Y-102875348D01*
X81958571Y-104187848D02*
X81244285Y-103777133D01*
X81958571Y-103330705D02*
X80458571Y-103518205D01*
X80458571Y-104089633D01*
X80530000Y-104223562D01*
X80601428Y-104286062D01*
X80744285Y-104339633D01*
X80958571Y-104312848D01*
X81101428Y-104223562D01*
X81172857Y-104143205D01*
X81244285Y-103991419D01*
X81244285Y-103419991D01*
X81887142Y-105911062D02*
X81958571Y-106116419D01*
X81958571Y-106473562D01*
X81887142Y-106625348D01*
X81815714Y-106705705D01*
X81672857Y-106794991D01*
X81530000Y-106812848D01*
X81387142Y-106759276D01*
X81315714Y-106696776D01*
X81244285Y-106562848D01*
X81172857Y-106286062D01*
X81101428Y-106152133D01*
X81030000Y-106089633D01*
X80887142Y-106036062D01*
X80744285Y-106053919D01*
X80601428Y-106143205D01*
X80530000Y-106223562D01*
X80458571Y-106375348D01*
X80458571Y-106732491D01*
X80530000Y-106937848D01*
X80458571Y-107589633D02*
X81672857Y-107437848D01*
X81815714Y-107491419D01*
X81887142Y-107553919D01*
X81958571Y-107687848D01*
X81958571Y-107973562D01*
X81887142Y-108125348D01*
X81815714Y-108205705D01*
X81672857Y-108294991D01*
X80458571Y-108446776D01*
X81958571Y-108973562D02*
X80458571Y-109161062D01*
X80458571Y-109732491D01*
X80530000Y-109866419D01*
X80601428Y-109928919D01*
X80744285Y-109982491D01*
X80958571Y-109955705D01*
X81101428Y-109866419D01*
X81172857Y-109786062D01*
X81244285Y-109634276D01*
X81244285Y-109062848D01*
X81958571Y-110473562D02*
X80458571Y-110661062D01*
X80458571Y-111232491D01*
X80530000Y-111366419D01*
X80601428Y-111428919D01*
X80744285Y-111482491D01*
X80958571Y-111455705D01*
X81101428Y-111366419D01*
X81172857Y-111286062D01*
X81244285Y-111134276D01*
X81244285Y-110562848D01*
X81958571Y-112687848D02*
X81958571Y-111973562D01*
X80458571Y-112161062D01*
X81244285Y-113562848D02*
X81958571Y-113473562D01*
X80458571Y-113161062D02*
X81244285Y-113562848D01*
X80458571Y-114161062D01*
D12*
%TO.P,U2,1,A_+12V*%
%TO.N,+12V*%
X45931000Y-55223000D03*
%TO.P,U2,2,B_GND*%
%TO.N,GND*%
X45931000Y-59113000D03*
%TO.P,U2,3,C_+12V*%
%TO.N,+12V*%
X45931000Y-63003000D03*
%TO.P,U2,4,D_GND*%
%TO.N,GND*%
X45931000Y-66893000D03*
%TO.P,U2,5,E_-12V*%
%TO.N,-12V*%
X45931000Y-70783000D03*
%TO.P,U2,6,F_-23V*%
%TO.N,-23V*%
X45931000Y-74673000D03*
%TO.P,U2,7,H_NC*%
%TO.N,unconnected-(U2-Pad7)*%
X45931000Y-78563000D03*
%TO.P,U2,8,J_GND_+12V*%
%TO.N,GND_+12V*%
X45931000Y-82453000D03*
%TO.P,U2,9,K_GND*%
%TO.N,GND*%
X45931000Y-86343000D03*
%TO.P,U2,10,L_GND*%
X45931000Y-90123000D03*
%TO.P,U2,11,M_GND*%
X45931000Y-94013000D03*
%TO.P,U2,12,N_GND*%
X45931000Y-97903000D03*
%TO.P,U2,13,P_GND*%
X45931000Y-101793000D03*
%TO.P,U2,14,R_+5V*%
%TO.N,+5V*%
X45931000Y-105683000D03*
%TO.P,U2,15,S_+5V*%
X45931000Y-109573000D03*
%TO.P,U2,16,T_+5V*%
X45931000Y-113463000D03*
%TO.P,U2,17,U_+5V*%
X45931000Y-117353000D03*
%TO.P,U2,18,V_+5V*%
X45931000Y-121243000D03*
%TD*%
D13*
%TO.P,C1,1*%
%TO.N,GND*%
X58724800Y-84602000D03*
%TO.P,C1,2*%
%TO.N,Net-(C1-Pad2)*%
X58724800Y-87102000D03*
%TD*%
D14*
%TO.P,F1,1*%
%TO.N,Net-(C1-Pad2)*%
X59550000Y-74250000D03*
%TO.P,F1,2*%
%TO.N,-23V*%
X56650000Y-79250000D03*
%TD*%
D15*
%TO.P,U1,1,Vin*%
%TO.N,+3.3V*%
X64770000Y-54959000D03*
%TO.P,U1,2,GND*%
%TO.N,GND*%
X67310000Y-54959000D03*
%TO.P,U1,4,-Vo*%
%TO.N,Net-(C3-Pad2)*%
X72390000Y-54959000D03*
%TO.P,U1,5,0V*%
%TO.N,GND*%
X74930000Y-54959000D03*
%TO.P,U1,6,+Vo*%
%TO.N,unconnected-(U1-Pad6)*%
X77470000Y-54959000D03*
%TD*%
D16*
%TO.P,J1,1,Pin_1*%
%TO.N,GND*%
X79248000Y-65532000D03*
D17*
%TO.P,J1,2,Pin_2*%
%TO.N,Net-(J1-Pad2)*%
X79248000Y-68032000D03*
%TD*%
D18*
%TO.P,C3,1*%
%TO.N,GND*%
X58674000Y-56073100D03*
D13*
%TO.P,C3,2*%
%TO.N,Net-(C3-Pad2)*%
X58674000Y-54073100D03*
%TD*%
D19*
%TO.P,R1,1*%
%TO.N,+5V*%
X57912000Y-99252000D03*
%TO.P,R1,2*%
%TO.N,GND*%
X57912000Y-123252000D03*
%TD*%
D18*
%TO.P,C2,1*%
%TO.N,+3.3V*%
X67116888Y-66294000D03*
D13*
%TO.P,C2,2*%
%TO.N,GND*%
X69116888Y-66294000D03*
%TD*%
D20*
%TO.P,U3,1,Ground*%
%TO.N,GND*%
X59436000Y-67564000D03*
D21*
%TO.P,U3,2,Input*%
%TO.N,Net-(C3-Pad2)*%
X58166000Y-67564000D03*
%TO.P,U3,3,Output*%
%TO.N,Net-(C1-Pad2)*%
X56896000Y-67564000D03*
%TD*%
D22*
%TO.P,J2,1,+3.3V*%
%TO.N,+3.3V*%
X69662040Y-76215240D03*
%TO.P,J2,2,+3.3V*%
X69662040Y-80416400D03*
%TO.P,J2,3,GND*%
%TO.N,GND*%
X69662040Y-84615020D03*
%TO.P,J2,4,+5V*%
%TO.N,+5V*%
X69662040Y-88816180D03*
%TO.P,J2,5,GND*%
%TO.N,GND*%
X69662040Y-93014800D03*
%TO.P,J2,6,+5V*%
%TO.N,+5V*%
X69662040Y-97215960D03*
%TO.P,J2,7,GND*%
%TO.N,GND*%
X69662040Y-101412040D03*
%TO.P,J2,8,PWR_OK*%
%TO.N,unconnected-(J2-Pad8)*%
X69662040Y-105613200D03*
%TO.P,J2,9,+5VSB*%
%TO.N,unconnected-(J2-Pad9)*%
X69662040Y-109811820D03*
%TO.P,J2,10,+12V*%
%TO.N,+12V*%
X69662040Y-114012980D03*
%TO.P,J2,11,+12V*%
X69662040Y-118211600D03*
%TO.P,J2,12,+3.3V*%
%TO.N,+3.3V*%
X69662040Y-122412760D03*
%TO.P,J2,13,+3.3V*%
X64162940Y-76215240D03*
%TO.P,J2,14,-12V*%
%TO.N,-12V*%
X64162940Y-80416400D03*
%TO.P,J2,15,GND*%
%TO.N,GND*%
X64162940Y-84615020D03*
%TO.P,J2,16,PS_ON#*%
%TO.N,Net-(J1-Pad2)*%
X64162940Y-88816180D03*
%TO.P,J2,17,GND*%
%TO.N,GND*%
X64162940Y-93014800D03*
%TO.P,J2,18,GND*%
X64162940Y-97215960D03*
%TO.P,J2,19,GND*%
X64162940Y-101412040D03*
%TO.P,J2,20,NC*%
%TO.N,unconnected-(J2-Pad20)*%
X64162940Y-105613200D03*
%TO.P,J2,21,+5V*%
%TO.N,+5V*%
X64162940Y-109811820D03*
%TO.P,J2,22,+5V*%
X64162940Y-114012980D03*
%TO.P,J2,23,+5V*%
X64162940Y-118211600D03*
%TO.P,J2,24,GND*%
%TO.N,GND*%
X64162940Y-122412760D03*
%TD*%
D23*
%TO.N,+5V*%
X64162940Y-114012980D02*
X50480980Y-114012980D01*
X50480980Y-114012980D02*
X49931000Y-113463000D01*
%TO.N,+12V*%
X73406000Y-75841039D02*
X60567961Y-63003000D01*
X60567961Y-63003000D02*
X49931000Y-63003000D01*
D24*
%TO.N,-12V*%
X64162940Y-80416400D02*
X60114400Y-80416400D01*
X60114400Y-80416400D02*
X49931000Y-70233000D01*
%TO.N,-23V*%
X49931000Y-74233000D02*
X54948000Y-79250000D01*
X54948000Y-79250000D02*
X56650000Y-79250000D01*
%TO.N,Net-(C1-Pad2)*%
X56896000Y-67564000D02*
X56896000Y-71596000D01*
X56896000Y-71596000D02*
X59550000Y-74250000D01*
D23*
%TO.N,+12V*%
X69662040Y-118211600D02*
X69662040Y-114012980D01*
X73406000Y-110269020D02*
X69662040Y-114012980D01*
D24*
%TO.N,+3.3V*%
X69662040Y-80416400D02*
X69662040Y-76215240D01*
X64162940Y-76215240D02*
X69662040Y-76215240D01*
X64770000Y-54959000D02*
X64770000Y-63947112D01*
X64770000Y-63947112D02*
X67116888Y-66294000D01*
D23*
%TO.N,+12V*%
X73406000Y-75841039D02*
X73406000Y-110269020D01*
%TO.N,+5V*%
X69662040Y-88816180D02*
X67462970Y-91015250D01*
X67462970Y-95016890D02*
X69662040Y-97215960D01*
X57912000Y-103560880D02*
X57912000Y-99252000D01*
X67462970Y-91015250D02*
X67462970Y-95016890D01*
X66362010Y-100515990D02*
X66362010Y-107612750D01*
X66362010Y-107612750D02*
X64162940Y-109811820D01*
X69662040Y-97215960D02*
X66362010Y-100515990D01*
X64162940Y-109811820D02*
X57912000Y-103560880D01*
%TD*%
%TA.AperFunction,Conductor*%
%TO.N,+5V*%
G36*
X53487931Y-104549002D02*
G01*
X53508905Y-104565905D01*
X53935095Y-104992095D01*
X53969121Y-105054407D01*
X53972000Y-105081190D01*
X53972000Y-121847810D01*
X53951998Y-121915931D01*
X53935095Y-121936905D01*
X53508905Y-122363095D01*
X53446593Y-122397121D01*
X53419810Y-122400000D01*
X49952190Y-122400000D01*
X49884069Y-122379998D01*
X49863095Y-122363095D01*
X49436905Y-121936905D01*
X49402879Y-121874593D01*
X49400000Y-121847810D01*
X49400000Y-105081190D01*
X49420002Y-105013069D01*
X49436905Y-104992095D01*
X49863095Y-104565905D01*
X49925407Y-104531879D01*
X49952190Y-104529000D01*
X53419810Y-104529000D01*
X53487931Y-104549002D01*
G37*
%TD.AperFunction*%
%TD*%
%TA.AperFunction,Conductor*%
%TO.N,+12V*%
G36*
X53482931Y-53942202D02*
G01*
X53503905Y-53959105D01*
X53930095Y-54385295D01*
X53964121Y-54447607D01*
X53967000Y-54474390D01*
X53967000Y-63758610D01*
X53946998Y-63826731D01*
X53930095Y-63847705D01*
X53503905Y-64273895D01*
X53441593Y-64307921D01*
X53414810Y-64310800D01*
X49947190Y-64310800D01*
X49879069Y-64290798D01*
X49858095Y-64273895D01*
X49431905Y-63847705D01*
X49397879Y-63785393D01*
X49395000Y-63758610D01*
X49395000Y-60947500D01*
X49415002Y-60879379D01*
X49468658Y-60832886D01*
X49521000Y-60821500D01*
X50874470Y-60821500D01*
X50876916Y-60821308D01*
X50876929Y-60821307D01*
X50897344Y-60819700D01*
X50910100Y-60818696D01*
X50955300Y-60805564D01*
X51054978Y-60776605D01*
X51054979Y-60776604D01*
X51062591Y-60774393D01*
X51199274Y-60693559D01*
X51311559Y-60581274D01*
X51392393Y-60444591D01*
X51436696Y-60292100D01*
X51437700Y-60279344D01*
X51439307Y-60258929D01*
X51439308Y-60258916D01*
X51439500Y-60256470D01*
X51439500Y-57969530D01*
X51439308Y-57967084D01*
X51439307Y-57967071D01*
X51437201Y-57940319D01*
X51436696Y-57933900D01*
X51392393Y-57781409D01*
X51311559Y-57644726D01*
X51199274Y-57532441D01*
X51062591Y-57451607D01*
X51054979Y-57449396D01*
X51054978Y-57449395D01*
X50916285Y-57409101D01*
X50916286Y-57409101D01*
X50910100Y-57407304D01*
X50897344Y-57406300D01*
X50876929Y-57404693D01*
X50876916Y-57404692D01*
X50874470Y-57404500D01*
X49521000Y-57404500D01*
X49452879Y-57384498D01*
X49406386Y-57330842D01*
X49395000Y-57278500D01*
X49395000Y-54474390D01*
X49415002Y-54406269D01*
X49431905Y-54385295D01*
X49858095Y-53959105D01*
X49920407Y-53925079D01*
X49947190Y-53922200D01*
X53414810Y-53922200D01*
X53482931Y-53942202D01*
G37*
%TD.AperFunction*%
%TD*%
M02*
