%TF.GenerationSoftware,KiCad,Pcbnew,(6.0.8-1)-1*%
%TF.CreationDate,2022-10-29T13:01:02-05:00*%
%TF.ProjectId,VT100_ATX_DCDC,56543130-305f-4415-9458-5f444344432e,rev?*%
%TF.SameCoordinates,Original*%
%TF.FileFunction,Copper,L1,Top*%
%TF.FilePolarity,Positive*%
%FSLAX46Y46*%
G04 Gerber Fmt 4.6, Leading zero omitted, Abs format (unit mm)*
G04 Created by KiCad (PCBNEW (6.0.8-1)-1) date 2022-10-29 13:01:02*
%MOMM*%
%LPD*%
G01*
G04 APERTURE LIST*
G04 Aperture macros list*
%AMRoundRect*
0 Rectangle with rounded corners*
0 $1 Rounding radius*
0 $2 $3 $4 $5 $6 $7 $8 $9 X,Y pos of 4 corners*
0 Add a 4 corners polygon primitive as box body*
4,1,4,$2,$3,$4,$5,$6,$7,$8,$9,$2,$3,0*
0 Add four circle primitives for the rounded corners*
1,1,$1+$1,$2,$3*
1,1,$1+$1,$4,$5*
1,1,$1+$1,$6,$7*
1,1,$1+$1,$8,$9*
0 Add four rect primitives between the rounded corners*
20,1,$1+$1,$2,$3,$4,$5,0*
20,1,$1+$1,$4,$5,$6,$7,0*
20,1,$1+$1,$6,$7,$8,$9,0*
20,1,$1+$1,$8,$9,$2,$3,0*%
G04 Aperture macros list end*
%TA.AperFunction,ComponentPad*%
%ADD10C,2.000000*%
%TD*%
%TA.AperFunction,ComponentPad*%
%ADD11C,1.600000*%
%TD*%
%TA.AperFunction,ComponentPad*%
%ADD12R,2.032000X2.032000*%
%TD*%
%TA.AperFunction,ComponentPad*%
%ADD13C,2.032000*%
%TD*%
%TA.AperFunction,ComponentPad*%
%ADD14RoundRect,0.120000X4.980000X1.080000X-4.980000X1.080000X-4.980000X-1.080000X4.980000X-1.080000X0*%
%TD*%
%TA.AperFunction,ComponentPad*%
%ADD15C,2.400000*%
%TD*%
%TA.AperFunction,ComponentPad*%
%ADD16O,2.400000X2.400000*%
%TD*%
%TA.AperFunction,ComponentPad*%
%ADD17C,2.898140*%
%TD*%
%TA.AperFunction,Conductor*%
%ADD18C,0.500000*%
%TD*%
%TA.AperFunction,Conductor*%
%ADD19C,1.000000*%
%TD*%
G04 APERTURE END LIST*
D10*
%TO.P,U1,1,+Vin*%
%TO.N,+5V*%
X62071000Y-125476000D03*
%TO.P,U1,2,-Vin*%
%TO.N,GND*%
X62071000Y-122936000D03*
%TO.P,U1,5,+Vout*%
X62071000Y-115316000D03*
%TO.P,U1,6,-Vout1*%
%TO.N,-23V*%
X62071000Y-112776000D03*
%TO.P,U1,7,-Vout2*%
%TO.N,unconnected-(U1-Pad7)*%
X62071000Y-110236000D03*
%TO.P,U1,8,-Vout3*%
%TO.N,unconnected-(U1-Pad8)*%
X62071000Y-107696000D03*
%TD*%
D11*
%TO.P,C1,1*%
%TO.N,-23V*%
X56936000Y-101346000D03*
%TO.P,C1,2*%
%TO.N,GND*%
X61936000Y-101346000D03*
%TD*%
D12*
%TO.P,J1,1,Pin_1*%
%TO.N,Net-(J1-Pad1)*%
X69791580Y-107910630D03*
D13*
%TO.P,J1,2,Pin_2*%
%TO.N,GND*%
X69791580Y-102911910D03*
%TD*%
D14*
%TO.P,U2,1,A_+12V*%
%TO.N,+12V*%
X45931000Y-54233000D03*
%TO.P,U2,2,B_GND*%
%TO.N,GND*%
X45931000Y-58233000D03*
%TO.P,U2,3,C_+12V*%
%TO.N,+12V*%
X45931000Y-62233000D03*
%TO.P,U2,4,D_GND*%
%TO.N,GND*%
X45931000Y-66233000D03*
%TO.P,U2,5,E_-12V*%
%TO.N,-12V*%
X45931000Y-70233000D03*
%TO.P,U2,6,F_-23V*%
%TO.N,-23V*%
X45931000Y-74233000D03*
%TO.P,U2,7,H_NC*%
%TO.N,unconnected-(U2-Pad7)*%
X45931000Y-78233000D03*
%TO.P,U2,8,J_GND_+12V*%
%TO.N,GND_+12V*%
X45931000Y-82233000D03*
%TO.P,U2,9,K_GND*%
%TO.N,GND*%
X45931000Y-86233000D03*
%TO.P,U2,10,L_GND*%
X45931000Y-90233000D03*
%TO.P,U2,11,M_GND*%
X45931000Y-94233000D03*
%TO.P,U2,12,N_GND*%
X45931000Y-98233000D03*
%TO.P,U2,13,P_GND*%
X45931000Y-102233000D03*
%TO.P,U2,14,R_+5V*%
%TO.N,+5V*%
X45931000Y-106233000D03*
%TO.P,U2,15,S_+5V*%
X45931000Y-110233000D03*
%TO.P,U2,16,T_+5V*%
X45931000Y-114233000D03*
%TO.P,U2,17,U_+5V*%
X45931000Y-118233000D03*
%TO.P,U2,18,V_+5V*%
X45931000Y-122233000D03*
%TD*%
D15*
%TO.P,R1,1*%
%TO.N,+5V*%
X69850000Y-122952000D03*
D16*
%TO.P,R1,2*%
%TO.N,GND*%
X69850000Y-115332000D03*
%TD*%
D17*
%TO.P,J2,1,+3.3V*%
%TO.N,unconnected-(J2-Pad1)*%
X61280040Y-49545240D03*
%TO.P,J2,2,+3.3V*%
X61280040Y-53746400D03*
%TO.P,J2,3,GND*%
%TO.N,GND*%
X61280040Y-57945020D03*
%TO.P,J2,4,+5V*%
%TO.N,+5V*%
X61280040Y-62146180D03*
%TO.P,J2,5,GND*%
%TO.N,GND*%
X61280040Y-66344800D03*
%TO.P,J2,6,+5V*%
%TO.N,+5V*%
X61280040Y-70545960D03*
%TO.P,J2,7,GND*%
%TO.N,GND*%
X61280040Y-74742040D03*
%TO.P,J2,8,PWR_OK*%
%TO.N,unconnected-(J2-Pad8)*%
X61280040Y-78943200D03*
%TO.P,J2,9,+5VSB*%
%TO.N,unconnected-(J2-Pad9)*%
X61280040Y-83141820D03*
%TO.P,J2,10,+12V*%
%TO.N,+12V*%
X61280040Y-87342980D03*
%TO.P,J2,11,+12V*%
X61280040Y-91541600D03*
%TO.P,J2,12,+3.3V*%
%TO.N,unconnected-(J2-Pad1)*%
X61280040Y-95742760D03*
%TO.P,J2,13,+3.3V*%
X55780940Y-49545240D03*
%TO.P,J2,14,-12V*%
%TO.N,-12V*%
X55780940Y-53746400D03*
%TO.P,J2,15,GND*%
%TO.N,GND*%
X55780940Y-57945020D03*
%TO.P,J2,16,PS_ON#*%
%TO.N,Net-(J1-Pad1)*%
X55780940Y-62146180D03*
%TO.P,J2,17,GND*%
%TO.N,GND*%
X55780940Y-66344800D03*
%TO.P,J2,18,GND*%
X55780940Y-70545960D03*
%TO.P,J2,19,GND*%
X55780940Y-74742040D03*
%TO.P,J2,20,NC*%
%TO.N,unconnected-(J2-Pad20)*%
X55780940Y-78943200D03*
%TO.P,J2,21,+5V*%
%TO.N,+5V*%
X55780940Y-83141820D03*
%TO.P,J2,22,+5V*%
X55780940Y-87342980D03*
%TO.P,J2,23,+5V*%
X55780940Y-91541600D03*
%TO.P,J2,24,GND*%
%TO.N,GND*%
X55780940Y-95742760D03*
%TD*%
D18*
%TO.N,-23V*%
X49931000Y-74233000D02*
X50103000Y-74233000D01*
X52578000Y-96988000D02*
X56936000Y-101346000D01*
X62071000Y-112776000D02*
X56936000Y-107641000D01*
X50103000Y-74233000D02*
X52578000Y-76708000D01*
X52578000Y-76708000D02*
X52578000Y-96988000D01*
X56936000Y-107641000D02*
X56936000Y-101346000D01*
%TO.N,Net-(J1-Pad1)*%
X62484000Y-64262000D02*
X57896760Y-64262000D01*
X64262000Y-66040000D02*
X62484000Y-64262000D01*
X69791580Y-107910630D02*
X64262000Y-102381050D01*
X57896760Y-64262000D02*
X55780940Y-62146180D01*
X64262000Y-102381050D02*
X64262000Y-66040000D01*
D19*
%TO.N,+5V*%
X67326000Y-125476000D02*
X69850000Y-122952000D01*
X54824000Y-119126000D02*
X49931000Y-114233000D01*
X66040000Y-119126000D02*
X54824000Y-119126000D01*
X68134000Y-121220000D02*
X66040000Y-119126000D01*
X68134000Y-121236000D02*
X68134000Y-121220000D01*
X69850000Y-122952000D02*
X68134000Y-121236000D01*
X62071000Y-125476000D02*
X67326000Y-125476000D01*
D18*
%TO.N,-12V*%
X56896000Y-60198000D02*
X58420000Y-58674000D01*
X51433000Y-70233000D02*
X52832000Y-68834000D01*
X58420000Y-56385460D02*
X55780940Y-53746400D01*
X49931000Y-70233000D02*
X51433000Y-70233000D01*
X52832000Y-61468000D02*
X54102000Y-60198000D01*
X54102000Y-60198000D02*
X56896000Y-60198000D01*
X52832000Y-68834000D02*
X52832000Y-61468000D01*
X58420000Y-58674000D02*
X58420000Y-56385460D01*
%TD*%
%TA.AperFunction,Conductor*%
%TO.N,GND*%
G36*
X74735303Y-46502502D02*
G01*
X74756278Y-46519405D01*
X74892596Y-46655724D01*
X74926621Y-46718036D01*
X74929500Y-46744819D01*
X74929500Y-127753181D01*
X74909498Y-127821302D01*
X74892596Y-127842276D01*
X74756278Y-127978595D01*
X74693966Y-128012620D01*
X74667182Y-128015500D01*
X53720000Y-128015500D01*
X53651879Y-127995498D01*
X53605386Y-127941842D01*
X53594000Y-127889500D01*
X53594000Y-122940930D01*
X60558725Y-122940930D01*
X60576572Y-123167699D01*
X60578115Y-123177446D01*
X60631217Y-123398627D01*
X60634266Y-123408012D01*
X60721313Y-123618163D01*
X60725795Y-123626958D01*
X60828432Y-123794445D01*
X60838890Y-123803907D01*
X60847666Y-123800124D01*
X61698978Y-122948812D01*
X61705356Y-122937132D01*
X62435408Y-122937132D01*
X62435539Y-122938965D01*
X62439790Y-122945580D01*
X63291290Y-123797080D01*
X63303670Y-123803840D01*
X63311320Y-123798113D01*
X63416205Y-123626958D01*
X63420687Y-123618163D01*
X63507734Y-123408012D01*
X63510783Y-123398627D01*
X63563885Y-123177446D01*
X63565428Y-123167699D01*
X63583275Y-122940930D01*
X63583275Y-122931070D01*
X63565428Y-122704301D01*
X63563885Y-122694554D01*
X63510783Y-122473373D01*
X63507734Y-122463988D01*
X63420687Y-122253837D01*
X63416205Y-122245042D01*
X63313568Y-122077555D01*
X63303110Y-122068093D01*
X63294334Y-122071876D01*
X62443022Y-122923188D01*
X62435408Y-122937132D01*
X61705356Y-122937132D01*
X61706592Y-122934868D01*
X61706461Y-122933035D01*
X61702210Y-122926420D01*
X60850710Y-122074920D01*
X60838330Y-122068160D01*
X60830680Y-122073887D01*
X60725795Y-122245042D01*
X60721313Y-122253837D01*
X60634266Y-122463988D01*
X60631217Y-122473373D01*
X60578115Y-122694554D01*
X60576572Y-122704301D01*
X60558725Y-122931070D01*
X60558725Y-122940930D01*
X53594000Y-122940930D01*
X53594000Y-121703890D01*
X61203093Y-121703890D01*
X61206876Y-121712666D01*
X62058188Y-122563978D01*
X62072132Y-122571592D01*
X62073965Y-122571461D01*
X62080580Y-122567210D01*
X62932080Y-121715710D01*
X62938840Y-121703330D01*
X62933113Y-121695680D01*
X62761958Y-121590795D01*
X62753163Y-121586313D01*
X62543012Y-121499266D01*
X62533627Y-121496217D01*
X62312446Y-121443115D01*
X62302699Y-121441572D01*
X62075930Y-121423725D01*
X62066070Y-121423725D01*
X61839301Y-121441572D01*
X61829554Y-121443115D01*
X61608373Y-121496217D01*
X61598988Y-121499266D01*
X61388837Y-121586313D01*
X61380042Y-121590795D01*
X61212555Y-121693432D01*
X61203093Y-121703890D01*
X53594000Y-121703890D01*
X53594000Y-119626424D01*
X53614002Y-119558303D01*
X53667658Y-119511810D01*
X53737932Y-119501706D01*
X53802512Y-119531200D01*
X53809095Y-119537329D01*
X54067145Y-119795379D01*
X54076247Y-119805522D01*
X54099968Y-119835025D01*
X54104696Y-119838992D01*
X54138421Y-119867291D01*
X54142069Y-119870472D01*
X54143881Y-119872115D01*
X54146075Y-119874309D01*
X54179349Y-119901642D01*
X54180147Y-119902304D01*
X54251474Y-119962154D01*
X54256144Y-119964722D01*
X54260261Y-119968103D01*
X54318145Y-119999140D01*
X54342086Y-120011977D01*
X54343245Y-120012606D01*
X54419381Y-120054462D01*
X54419389Y-120054465D01*
X54424787Y-120057433D01*
X54429869Y-120059045D01*
X54434563Y-120061562D01*
X54523531Y-120088762D01*
X54524559Y-120089082D01*
X54613306Y-120117235D01*
X54618602Y-120117829D01*
X54623698Y-120119387D01*
X54716257Y-120128790D01*
X54717393Y-120128911D01*
X54751008Y-120132681D01*
X54763730Y-120134108D01*
X54763734Y-120134108D01*
X54767227Y-120134500D01*
X54770754Y-120134500D01*
X54771739Y-120134555D01*
X54777419Y-120135002D01*
X54806825Y-120137989D01*
X54814337Y-120138752D01*
X54814339Y-120138752D01*
X54820462Y-120139374D01*
X54866108Y-120135059D01*
X54877967Y-120134500D01*
X65570075Y-120134500D01*
X65638196Y-120154502D01*
X65659170Y-120171405D01*
X67309173Y-121821407D01*
X67317720Y-121830865D01*
X67348755Y-121868918D01*
X67349446Y-121869774D01*
X67380738Y-121908973D01*
X67383242Y-121911477D01*
X67383884Y-121912195D01*
X67387585Y-121916528D01*
X67414935Y-121950062D01*
X67419682Y-121953989D01*
X67419684Y-121953991D01*
X67450262Y-121979287D01*
X67459042Y-121987277D01*
X68117142Y-122645377D01*
X68151168Y-122707689D01*
X68153413Y-122747094D01*
X68137296Y-122907151D01*
X68137520Y-122911817D01*
X68137520Y-122911822D01*
X68143908Y-123044798D01*
X68149365Y-123158411D01*
X68149365Y-123158413D01*
X68149480Y-123160798D01*
X68148968Y-123160823D01*
X68137910Y-123227872D01*
X68113497Y-123262268D01*
X66945171Y-124430595D01*
X66882859Y-124464620D01*
X66856076Y-124467500D01*
X63251556Y-124467500D01*
X63183435Y-124447498D01*
X63155746Y-124423332D01*
X63144178Y-124409788D01*
X63144177Y-124409787D01*
X63140969Y-124406031D01*
X63137213Y-124402823D01*
X63137208Y-124402818D01*
X62984384Y-124272294D01*
X62945574Y-124212844D01*
X62943360Y-124178442D01*
X62935123Y-124159333D01*
X62083812Y-123308022D01*
X62069868Y-123300408D01*
X62068035Y-123300539D01*
X62061420Y-123304790D01*
X61209920Y-124156290D01*
X61200740Y-124173102D01*
X61186980Y-124236350D01*
X61158224Y-124271775D01*
X61084134Y-124335054D01*
X61001031Y-124406031D01*
X60846824Y-124586584D01*
X60844245Y-124590792D01*
X60844241Y-124590798D01*
X60784490Y-124688303D01*
X60722760Y-124789037D01*
X60631895Y-125008406D01*
X60630740Y-125013218D01*
X60578057Y-125232658D01*
X60576465Y-125239289D01*
X60557835Y-125476000D01*
X60576465Y-125712711D01*
X60631895Y-125943594D01*
X60633788Y-125948165D01*
X60633789Y-125948167D01*
X60719530Y-126155164D01*
X60722760Y-126162963D01*
X60725346Y-126167183D01*
X60844241Y-126361202D01*
X60844245Y-126361208D01*
X60846824Y-126365416D01*
X61001031Y-126545969D01*
X61181584Y-126700176D01*
X61185792Y-126702755D01*
X61185798Y-126702759D01*
X61379817Y-126821654D01*
X61384037Y-126824240D01*
X61388607Y-126826133D01*
X61388611Y-126826135D01*
X61598833Y-126913211D01*
X61603406Y-126915105D01*
X61683609Y-126934360D01*
X61829476Y-126969380D01*
X61829482Y-126969381D01*
X61834289Y-126970535D01*
X62071000Y-126989165D01*
X62307711Y-126970535D01*
X62312518Y-126969381D01*
X62312524Y-126969380D01*
X62458391Y-126934360D01*
X62538594Y-126915105D01*
X62543167Y-126913211D01*
X62753389Y-126826135D01*
X62753393Y-126826133D01*
X62757963Y-126824240D01*
X62762183Y-126821654D01*
X62956202Y-126702759D01*
X62956208Y-126702755D01*
X62960416Y-126700176D01*
X63140969Y-126545969D01*
X63155746Y-126528668D01*
X63215197Y-126489860D01*
X63251556Y-126484500D01*
X67264157Y-126484500D01*
X67277764Y-126485237D01*
X67309262Y-126488659D01*
X67309267Y-126488659D01*
X67315388Y-126489324D01*
X67341638Y-126487027D01*
X67365388Y-126484950D01*
X67370214Y-126484621D01*
X67372686Y-126484500D01*
X67375769Y-126484500D01*
X67387738Y-126483326D01*
X67418506Y-126480310D01*
X67419819Y-126480188D01*
X67464084Y-126476315D01*
X67512413Y-126472087D01*
X67517532Y-126470600D01*
X67522833Y-126470080D01*
X67611834Y-126443209D01*
X67612967Y-126442874D01*
X67696414Y-126418630D01*
X67696418Y-126418628D01*
X67702336Y-126416909D01*
X67707068Y-126414456D01*
X67712169Y-126412916D01*
X67717612Y-126410022D01*
X67794260Y-126369269D01*
X67795426Y-126368657D01*
X67872453Y-126328729D01*
X67877926Y-126325892D01*
X67882089Y-126322569D01*
X67886796Y-126320066D01*
X67958918Y-126261245D01*
X67959774Y-126260554D01*
X67998973Y-126229262D01*
X68001477Y-126226758D01*
X68002195Y-126226116D01*
X68006528Y-126222415D01*
X68040062Y-126195065D01*
X68069288Y-126159737D01*
X68077277Y-126150958D01*
X69539932Y-124688303D01*
X69602244Y-124654277D01*
X69646717Y-124653690D01*
X69646810Y-124652877D01*
X69651461Y-124653407D01*
X69656050Y-124654278D01*
X69776532Y-124659011D01*
X69905125Y-124664064D01*
X69905130Y-124664064D01*
X69909793Y-124664247D01*
X70013614Y-124652877D01*
X70157569Y-124637112D01*
X70157575Y-124637111D01*
X70162222Y-124636602D01*
X70407793Y-124571948D01*
X70525811Y-124521244D01*
X70636807Y-124473557D01*
X70636810Y-124473555D01*
X70641110Y-124471708D01*
X70645090Y-124469245D01*
X70645094Y-124469243D01*
X70853064Y-124340547D01*
X70853066Y-124340545D01*
X70857047Y-124338082D01*
X70935372Y-124271775D01*
X71047289Y-124177031D01*
X71047291Y-124177029D01*
X71050862Y-124174006D01*
X71218295Y-123983084D01*
X71246847Y-123938696D01*
X71333545Y-123803907D01*
X71355669Y-123769512D01*
X71459967Y-123537980D01*
X71528896Y-123293575D01*
X71560943Y-123041667D01*
X71563291Y-122952000D01*
X71544472Y-122698759D01*
X71488428Y-122451082D01*
X71396391Y-122214409D01*
X71316667Y-122074920D01*
X71272702Y-121997997D01*
X71272700Y-121997995D01*
X71270383Y-121993940D01*
X71113171Y-121794517D01*
X70928209Y-121620523D01*
X70878895Y-121586313D01*
X70723393Y-121478437D01*
X70723390Y-121478435D01*
X70719561Y-121475779D01*
X70715384Y-121473719D01*
X70715377Y-121473715D01*
X70495996Y-121365528D01*
X70495992Y-121365527D01*
X70491810Y-121363464D01*
X70249960Y-121286047D01*
X70110777Y-121263380D01*
X70003935Y-121245980D01*
X70003934Y-121245980D01*
X69999323Y-121245229D01*
X69868719Y-121243519D01*
X69750082Y-121241966D01*
X69750079Y-121241966D01*
X69745406Y-121241905D01*
X69740780Y-121242535D01*
X69740773Y-121242535D01*
X69692882Y-121249053D01*
X69649520Y-121254955D01*
X69579326Y-121244322D01*
X69543435Y-121219201D01*
X68958828Y-120634594D01*
X68950280Y-120625135D01*
X68919295Y-120587144D01*
X68918466Y-120586116D01*
X68889465Y-120549786D01*
X68889460Y-120549780D01*
X68887262Y-120547027D01*
X68884759Y-120544524D01*
X68884116Y-120543805D01*
X68880415Y-120539472D01*
X68853065Y-120505938D01*
X68817737Y-120476712D01*
X68808958Y-120468723D01*
X66796855Y-118456621D01*
X66787753Y-118446478D01*
X66767897Y-118421782D01*
X66764032Y-118416975D01*
X66725578Y-118384708D01*
X66721931Y-118381528D01*
X66720119Y-118379885D01*
X66717925Y-118377691D01*
X66684651Y-118350358D01*
X66683853Y-118349696D01*
X66612526Y-118289846D01*
X66607856Y-118287278D01*
X66603739Y-118283897D01*
X66521914Y-118240023D01*
X66520755Y-118239394D01*
X66444619Y-118197538D01*
X66444611Y-118197535D01*
X66439213Y-118194567D01*
X66434131Y-118192955D01*
X66429437Y-118190438D01*
X66340469Y-118163238D01*
X66339441Y-118162918D01*
X66250694Y-118134765D01*
X66245398Y-118134171D01*
X66240302Y-118132613D01*
X66147743Y-118123210D01*
X66146607Y-118123089D01*
X66112992Y-118119319D01*
X66100270Y-118117892D01*
X66100266Y-118117892D01*
X66096773Y-118117500D01*
X66093246Y-118117500D01*
X66092261Y-118117445D01*
X66086581Y-118116998D01*
X66057175Y-118114011D01*
X66049663Y-118113248D01*
X66049661Y-118113248D01*
X66043538Y-118112626D01*
X66001259Y-118116623D01*
X65997891Y-118116941D01*
X65986033Y-118117500D01*
X55293925Y-118117500D01*
X55225804Y-118097498D01*
X55204830Y-118080595D01*
X53672905Y-116548670D01*
X61203160Y-116548670D01*
X61208887Y-116556320D01*
X61380042Y-116661205D01*
X61388837Y-116665687D01*
X61598988Y-116752734D01*
X61608373Y-116755783D01*
X61829554Y-116808885D01*
X61839301Y-116810428D01*
X62066070Y-116828275D01*
X62075930Y-116828275D01*
X62302699Y-116810428D01*
X62312446Y-116808885D01*
X62533627Y-116755783D01*
X62543012Y-116752734D01*
X62753163Y-116665687D01*
X62761958Y-116661205D01*
X62929445Y-116558568D01*
X62938907Y-116548110D01*
X62935124Y-116539334D01*
X62083812Y-115688022D01*
X62069868Y-115680408D01*
X62068035Y-115680539D01*
X62061420Y-115684790D01*
X61209920Y-116536290D01*
X61203160Y-116548670D01*
X53672905Y-116548670D01*
X53630905Y-116506670D01*
X53596879Y-116444358D01*
X53594000Y-116417575D01*
X53594000Y-115320930D01*
X60558725Y-115320930D01*
X60576572Y-115547699D01*
X60578115Y-115557446D01*
X60631217Y-115778627D01*
X60634266Y-115788012D01*
X60721313Y-115998163D01*
X60725795Y-116006958D01*
X60828432Y-116174445D01*
X60838890Y-116183907D01*
X60847666Y-116180124D01*
X61698978Y-115328812D01*
X61705356Y-115317132D01*
X62435408Y-115317132D01*
X62435539Y-115318965D01*
X62439790Y-115325580D01*
X63291290Y-116177080D01*
X63303670Y-116183840D01*
X63311320Y-116178113D01*
X63416205Y-116006958D01*
X63420687Y-115998163D01*
X63507734Y-115788012D01*
X63510783Y-115778627D01*
X63552358Y-115605460D01*
X68162852Y-115605460D01*
X68198593Y-115785143D01*
X68201082Y-115794118D01*
X68283708Y-116024250D01*
X68287505Y-116032778D01*
X68403234Y-116248160D01*
X68408245Y-116256027D01*
X68554550Y-116451953D01*
X68560656Y-116458977D01*
X68734316Y-116631127D01*
X68741398Y-116637176D01*
X68938586Y-116781760D01*
X68946505Y-116786708D01*
X69162877Y-116900547D01*
X69171451Y-116904275D01*
X69402282Y-116984885D01*
X69411291Y-116987299D01*
X69578201Y-117018988D01*
X69591261Y-117017704D01*
X69595506Y-117004360D01*
X70104000Y-117004360D01*
X70108171Y-117018565D01*
X70120933Y-117020620D01*
X70157487Y-117016617D01*
X70166649Y-117014919D01*
X70403107Y-116952665D01*
X70411926Y-116949628D01*
X70636584Y-116853107D01*
X70644856Y-116848800D01*
X70852777Y-116720135D01*
X70860317Y-116714657D01*
X71046943Y-116556668D01*
X71053593Y-116550132D01*
X71214813Y-116366295D01*
X71220420Y-116358854D01*
X71352700Y-116153202D01*
X71357147Y-116145011D01*
X71457572Y-115922076D01*
X71460767Y-115913298D01*
X71527135Y-115677973D01*
X71528993Y-115668844D01*
X71537246Y-115603969D01*
X71534958Y-115589708D01*
X71521938Y-115586000D01*
X70122115Y-115586000D01*
X70106876Y-115590475D01*
X70105671Y-115591865D01*
X70104000Y-115599548D01*
X70104000Y-117004360D01*
X69595506Y-117004360D01*
X69596000Y-117002808D01*
X69596000Y-115604115D01*
X69591525Y-115588876D01*
X69590135Y-115587671D01*
X69582452Y-115586000D01*
X68177096Y-115586000D01*
X68164695Y-115589641D01*
X68162852Y-115605460D01*
X63552358Y-115605460D01*
X63563885Y-115557446D01*
X63565428Y-115547699D01*
X63583275Y-115320930D01*
X63583275Y-115311070D01*
X63565428Y-115084301D01*
X63563885Y-115074554D01*
X63560385Y-115059976D01*
X68160675Y-115059976D01*
X68163435Y-115074703D01*
X68175614Y-115078000D01*
X69577885Y-115078000D01*
X69593124Y-115073525D01*
X69594329Y-115072135D01*
X69596000Y-115064452D01*
X69596000Y-115059885D01*
X70104000Y-115059885D01*
X70108475Y-115075124D01*
X70109865Y-115076329D01*
X70117548Y-115078000D01*
X71525671Y-115078000D01*
X71539202Y-115074027D01*
X71540634Y-115064068D01*
X71488979Y-114835786D01*
X71486255Y-114826875D01*
X71397633Y-114598983D01*
X71393619Y-114590567D01*
X71272286Y-114378281D01*
X71267070Y-114370548D01*
X71115692Y-114178525D01*
X71109399Y-114171657D01*
X70931294Y-114004112D01*
X70924060Y-113998254D01*
X70723141Y-113858872D01*
X70715115Y-113854144D01*
X70495810Y-113745995D01*
X70487177Y-113742507D01*
X70254288Y-113667958D01*
X70245238Y-113665785D01*
X70121880Y-113645696D01*
X70108286Y-113647393D01*
X70104000Y-113661500D01*
X70104000Y-115059885D01*
X69596000Y-115059885D01*
X69596000Y-113660859D01*
X69591982Y-113647175D01*
X69578290Y-113645154D01*
X69498521Y-113656010D01*
X69489403Y-113657948D01*
X69254668Y-113726367D01*
X69245915Y-113729639D01*
X69023869Y-113832004D01*
X69015714Y-113836524D01*
X68811233Y-113970587D01*
X68803828Y-113976270D01*
X68621413Y-114139082D01*
X68614935Y-114145790D01*
X68458584Y-114333781D01*
X68453163Y-114341381D01*
X68326322Y-114550409D01*
X68322084Y-114558726D01*
X68227529Y-114784214D01*
X68224572Y-114793052D01*
X68164382Y-115030048D01*
X68162764Y-115039228D01*
X68160675Y-115059976D01*
X63560385Y-115059976D01*
X63510783Y-114853373D01*
X63507734Y-114843988D01*
X63420687Y-114633837D01*
X63416205Y-114625042D01*
X63313568Y-114457555D01*
X63303110Y-114448093D01*
X63294334Y-114451876D01*
X62443022Y-115303188D01*
X62435408Y-115317132D01*
X61705356Y-115317132D01*
X61706592Y-115314868D01*
X61706461Y-115313035D01*
X61702210Y-115306420D01*
X60850710Y-114454920D01*
X60838330Y-114448160D01*
X60830680Y-114453887D01*
X60725795Y-114625042D01*
X60721313Y-114633837D01*
X60634266Y-114843988D01*
X60631217Y-114853373D01*
X60578115Y-115074554D01*
X60576572Y-115084301D01*
X60558725Y-115311070D01*
X60558725Y-115320930D01*
X53594000Y-115320930D01*
X53594000Y-103378000D01*
X50672000Y-103378000D01*
X50603879Y-103357998D01*
X50557386Y-103304342D01*
X50546000Y-103252000D01*
X50546000Y-85216000D01*
X50566002Y-85147879D01*
X50619658Y-85101386D01*
X50672000Y-85090000D01*
X51693500Y-85090000D01*
X51761621Y-85110002D01*
X51808114Y-85163658D01*
X51819500Y-85216000D01*
X51819500Y-96920930D01*
X51818067Y-96939880D01*
X51814801Y-96961349D01*
X51815394Y-96968641D01*
X51815394Y-96968644D01*
X51819085Y-97014018D01*
X51819500Y-97024233D01*
X51819500Y-97032293D01*
X51819925Y-97035937D01*
X51822789Y-97060507D01*
X51823222Y-97064882D01*
X51826496Y-97105126D01*
X51829140Y-97137637D01*
X51831396Y-97144601D01*
X51832587Y-97150560D01*
X51833971Y-97156415D01*
X51834818Y-97163681D01*
X51859735Y-97232327D01*
X51861152Y-97236455D01*
X51879631Y-97293495D01*
X51883649Y-97305899D01*
X51887445Y-97312154D01*
X51889951Y-97317628D01*
X51892670Y-97323058D01*
X51895167Y-97329937D01*
X51899180Y-97336057D01*
X51899180Y-97336058D01*
X51935186Y-97390976D01*
X51937523Y-97394680D01*
X51975405Y-97457107D01*
X51979121Y-97461315D01*
X51979122Y-97461316D01*
X51982803Y-97465484D01*
X51982776Y-97465508D01*
X51985429Y-97468500D01*
X51988132Y-97471733D01*
X51992144Y-97477852D01*
X51997456Y-97482884D01*
X52048383Y-97531128D01*
X52050825Y-97533506D01*
X55600329Y-101083010D01*
X55634355Y-101145322D01*
X55636755Y-101183087D01*
X55622502Y-101346000D01*
X55642457Y-101574087D01*
X55643881Y-101579400D01*
X55643881Y-101579402D01*
X55681025Y-101718022D01*
X55701716Y-101795243D01*
X55704039Y-101800224D01*
X55704039Y-101800225D01*
X55796151Y-101997762D01*
X55796154Y-101997767D01*
X55798477Y-102002749D01*
X55929802Y-102190300D01*
X56091700Y-102352198D01*
X56123771Y-102374655D01*
X56168099Y-102430110D01*
X56177500Y-102477867D01*
X56177500Y-107573930D01*
X56176067Y-107592880D01*
X56172801Y-107614349D01*
X56173394Y-107621641D01*
X56173394Y-107621644D01*
X56177085Y-107667018D01*
X56177500Y-107677233D01*
X56177500Y-107685293D01*
X56178748Y-107696000D01*
X56180789Y-107713507D01*
X56181222Y-107717882D01*
X56187140Y-107790637D01*
X56189396Y-107797601D01*
X56190587Y-107803560D01*
X56191971Y-107809415D01*
X56192818Y-107816681D01*
X56217735Y-107885327D01*
X56219152Y-107889455D01*
X56241649Y-107958899D01*
X56245445Y-107965154D01*
X56247951Y-107970628D01*
X56250670Y-107976058D01*
X56253167Y-107982937D01*
X56257180Y-107989057D01*
X56257180Y-107989058D01*
X56293186Y-108043976D01*
X56295523Y-108047680D01*
X56333405Y-108110107D01*
X56337121Y-108114315D01*
X56337122Y-108114316D01*
X56340803Y-108118484D01*
X56340776Y-108118508D01*
X56343429Y-108121500D01*
X56346132Y-108124733D01*
X56350144Y-108130852D01*
X56355456Y-108135884D01*
X56406383Y-108184128D01*
X56408825Y-108186506D01*
X60562412Y-112340093D01*
X60596438Y-112402405D01*
X60595836Y-112458602D01*
X60577620Y-112534476D01*
X60577619Y-112534482D01*
X60576465Y-112539289D01*
X60557835Y-112776000D01*
X60576465Y-113012711D01*
X60577619Y-113017518D01*
X60577620Y-113017524D01*
X60612640Y-113163391D01*
X60631895Y-113243594D01*
X60722760Y-113462963D01*
X60725346Y-113467183D01*
X60844241Y-113661202D01*
X60844245Y-113661208D01*
X60846824Y-113665416D01*
X61001031Y-113845969D01*
X61004787Y-113849177D01*
X61004792Y-113849182D01*
X61157616Y-113979706D01*
X61196426Y-114039156D01*
X61198640Y-114073558D01*
X61206877Y-114092667D01*
X62058188Y-114943978D01*
X62072132Y-114951592D01*
X62073965Y-114951461D01*
X62080580Y-114947210D01*
X62932080Y-114095710D01*
X62941260Y-114078898D01*
X62955020Y-114015650D01*
X62983776Y-113980225D01*
X63137213Y-113849177D01*
X63140969Y-113845969D01*
X63295176Y-113665416D01*
X63297755Y-113661208D01*
X63297759Y-113661202D01*
X63416654Y-113467183D01*
X63419240Y-113462963D01*
X63510105Y-113243594D01*
X63529360Y-113163391D01*
X63564380Y-113017524D01*
X63564381Y-113017518D01*
X63565535Y-113012711D01*
X63584165Y-112776000D01*
X63565535Y-112539289D01*
X63561985Y-112524500D01*
X63511260Y-112313218D01*
X63510105Y-112308406D01*
X63419240Y-112089037D01*
X63328829Y-111941500D01*
X63297759Y-111890798D01*
X63297755Y-111890792D01*
X63295176Y-111886584D01*
X63140969Y-111706031D01*
X63137213Y-111702823D01*
X63137208Y-111702818D01*
X63018944Y-111601811D01*
X62980134Y-111542361D01*
X62979628Y-111471366D01*
X63018944Y-111410189D01*
X63137208Y-111309182D01*
X63137213Y-111309177D01*
X63140969Y-111305969D01*
X63295176Y-111125416D01*
X63297755Y-111121208D01*
X63297759Y-111121202D01*
X63416654Y-110927183D01*
X63419240Y-110922963D01*
X63510105Y-110703594D01*
X63565535Y-110472711D01*
X63584165Y-110236000D01*
X63565535Y-109999289D01*
X63553571Y-109949453D01*
X63511260Y-109773218D01*
X63510105Y-109768406D01*
X63419240Y-109549037D01*
X63416654Y-109544817D01*
X63297759Y-109350798D01*
X63297755Y-109350792D01*
X63295176Y-109346584D01*
X63140969Y-109166031D01*
X63137213Y-109162823D01*
X63137208Y-109162818D01*
X63018944Y-109061811D01*
X62980134Y-109002361D01*
X62979628Y-108931366D01*
X63018944Y-108870189D01*
X63137208Y-108769182D01*
X63137213Y-108769177D01*
X63140969Y-108765969D01*
X63295176Y-108585416D01*
X63297755Y-108581208D01*
X63297759Y-108581202D01*
X63416654Y-108387183D01*
X63419240Y-108382963D01*
X63510105Y-108163594D01*
X63538823Y-108043976D01*
X63564380Y-107937524D01*
X63564381Y-107937518D01*
X63565535Y-107932711D01*
X63584165Y-107696000D01*
X63565535Y-107459289D01*
X63556561Y-107421906D01*
X63511260Y-107233218D01*
X63510105Y-107228406D01*
X63419240Y-107009037D01*
X63416654Y-107004817D01*
X63297759Y-106810798D01*
X63297755Y-106810792D01*
X63295176Y-106806584D01*
X63140969Y-106626031D01*
X62960416Y-106471824D01*
X62956208Y-106469245D01*
X62956202Y-106469241D01*
X62762183Y-106350346D01*
X62757963Y-106347760D01*
X62753393Y-106345867D01*
X62753389Y-106345865D01*
X62543167Y-106258789D01*
X62543165Y-106258788D01*
X62538594Y-106256895D01*
X62458391Y-106237640D01*
X62312524Y-106202620D01*
X62312518Y-106202619D01*
X62307711Y-106201465D01*
X62071000Y-106182835D01*
X61834289Y-106201465D01*
X61829482Y-106202619D01*
X61829476Y-106202620D01*
X61683609Y-106237640D01*
X61603406Y-106256895D01*
X61598835Y-106258788D01*
X61598833Y-106258789D01*
X61388611Y-106345865D01*
X61388607Y-106345867D01*
X61384037Y-106347760D01*
X61379817Y-106350346D01*
X61185798Y-106469241D01*
X61185792Y-106469245D01*
X61181584Y-106471824D01*
X61001031Y-106626031D01*
X60846824Y-106806584D01*
X60844245Y-106810792D01*
X60844241Y-106810798D01*
X60725346Y-107004817D01*
X60722760Y-107009037D01*
X60631895Y-107228406D01*
X60630740Y-107233218D01*
X60585440Y-107421906D01*
X60576465Y-107459289D01*
X60557835Y-107696000D01*
X60576465Y-107932711D01*
X60577619Y-107937518D01*
X60577620Y-107937524D01*
X60603177Y-108043976D01*
X60631895Y-108163594D01*
X60722760Y-108382963D01*
X60725346Y-108387183D01*
X60844241Y-108581202D01*
X60844245Y-108581208D01*
X60846824Y-108585416D01*
X61001031Y-108765969D01*
X61004787Y-108769177D01*
X61004792Y-108769182D01*
X61123056Y-108870189D01*
X61161866Y-108929639D01*
X61162372Y-109000634D01*
X61123056Y-109061811D01*
X61004792Y-109162818D01*
X61004787Y-109162823D01*
X61001031Y-109166031D01*
X60846824Y-109346584D01*
X60844245Y-109350792D01*
X60844241Y-109350798D01*
X60725346Y-109544817D01*
X60722760Y-109549037D01*
X60631895Y-109768406D01*
X60630740Y-109773218D01*
X60588429Y-109949453D01*
X60553077Y-110011023D01*
X60490050Y-110043705D01*
X60419359Y-110037124D01*
X60376815Y-110009134D01*
X57731405Y-107363724D01*
X57697379Y-107301412D01*
X57694500Y-107274629D01*
X57694500Y-102477867D01*
X57707949Y-102432062D01*
X61214493Y-102432062D01*
X61223789Y-102444077D01*
X61274994Y-102479931D01*
X61284489Y-102485414D01*
X61481947Y-102577490D01*
X61492239Y-102581236D01*
X61702688Y-102637625D01*
X61713481Y-102639528D01*
X61930525Y-102658517D01*
X61941475Y-102658517D01*
X62158519Y-102639528D01*
X62169312Y-102637625D01*
X62379761Y-102581236D01*
X62390053Y-102577490D01*
X62587511Y-102485414D01*
X62597006Y-102479931D01*
X62649048Y-102443491D01*
X62657424Y-102433012D01*
X62650356Y-102419566D01*
X61948812Y-101718022D01*
X61934868Y-101710408D01*
X61933035Y-101710539D01*
X61926420Y-101714790D01*
X61220923Y-102420287D01*
X61214493Y-102432062D01*
X57707949Y-102432062D01*
X57714502Y-102409746D01*
X57748228Y-102374655D01*
X57780300Y-102352198D01*
X57942198Y-102190300D01*
X58073523Y-102002749D01*
X58075846Y-101997767D01*
X58075849Y-101997762D01*
X58167961Y-101800225D01*
X58167961Y-101800224D01*
X58170284Y-101795243D01*
X58190976Y-101718022D01*
X58228119Y-101579402D01*
X58228119Y-101579400D01*
X58229543Y-101574087D01*
X58249019Y-101351475D01*
X60623483Y-101351475D01*
X60642472Y-101568519D01*
X60644375Y-101579312D01*
X60700764Y-101789761D01*
X60704510Y-101800053D01*
X60796586Y-101997511D01*
X60802069Y-102007006D01*
X60838509Y-102059048D01*
X60848988Y-102067424D01*
X60862434Y-102060356D01*
X61563978Y-101358812D01*
X61570356Y-101347132D01*
X62300408Y-101347132D01*
X62300539Y-101348965D01*
X62304790Y-101355580D01*
X63010287Y-102061077D01*
X63022062Y-102067507D01*
X63034077Y-102058211D01*
X63069931Y-102007006D01*
X63075414Y-101997511D01*
X63167490Y-101800053D01*
X63171236Y-101789761D01*
X63227625Y-101579312D01*
X63229528Y-101568519D01*
X63248517Y-101351475D01*
X63248517Y-101340525D01*
X63229528Y-101123481D01*
X63227625Y-101112688D01*
X63171236Y-100902239D01*
X63167490Y-100891947D01*
X63075414Y-100694489D01*
X63069931Y-100684994D01*
X63033491Y-100632952D01*
X63023012Y-100624576D01*
X63009566Y-100631644D01*
X62308022Y-101333188D01*
X62300408Y-101347132D01*
X61570356Y-101347132D01*
X61571592Y-101344868D01*
X61571461Y-101343035D01*
X61567210Y-101336420D01*
X60861713Y-100630923D01*
X60849938Y-100624493D01*
X60837923Y-100633789D01*
X60802069Y-100684994D01*
X60796586Y-100694489D01*
X60704510Y-100891947D01*
X60700764Y-100902239D01*
X60644375Y-101112688D01*
X60642472Y-101123481D01*
X60623483Y-101340525D01*
X60623483Y-101351475D01*
X58249019Y-101351475D01*
X58249498Y-101346000D01*
X58229543Y-101117913D01*
X58192981Y-100981461D01*
X58171707Y-100902067D01*
X58171706Y-100902065D01*
X58170284Y-100896757D01*
X58075966Y-100694489D01*
X58075849Y-100694238D01*
X58075846Y-100694233D01*
X58073523Y-100689251D01*
X57942198Y-100501700D01*
X57780300Y-100339802D01*
X57775792Y-100336645D01*
X57775789Y-100336643D01*
X57664886Y-100258988D01*
X61214576Y-100258988D01*
X61221644Y-100272434D01*
X61923188Y-100973978D01*
X61937132Y-100981592D01*
X61938965Y-100981461D01*
X61945580Y-100977210D01*
X62651077Y-100271713D01*
X62657507Y-100259938D01*
X62648211Y-100247923D01*
X62597006Y-100212069D01*
X62587511Y-100206586D01*
X62390053Y-100114510D01*
X62379761Y-100110764D01*
X62169312Y-100054375D01*
X62158519Y-100052472D01*
X61941475Y-100033483D01*
X61930525Y-100033483D01*
X61713481Y-100052472D01*
X61702688Y-100054375D01*
X61492239Y-100110764D01*
X61481947Y-100114510D01*
X61284489Y-100206586D01*
X61274994Y-100212069D01*
X61222952Y-100248509D01*
X61214576Y-100258988D01*
X57664886Y-100258988D01*
X57649920Y-100248509D01*
X57592749Y-100208477D01*
X57587767Y-100206154D01*
X57587762Y-100206151D01*
X57390225Y-100114039D01*
X57390224Y-100114039D01*
X57385243Y-100111716D01*
X57379935Y-100110294D01*
X57379933Y-100110293D01*
X57169402Y-100053881D01*
X57169400Y-100053881D01*
X57164087Y-100052457D01*
X56936000Y-100032502D01*
X56930525Y-100032981D01*
X56773087Y-100046755D01*
X56703482Y-100032766D01*
X56673010Y-100010329D01*
X53958128Y-97295447D01*
X54593420Y-97295447D01*
X54600810Y-97305749D01*
X54649283Y-97345212D01*
X54656562Y-97350327D01*
X54886360Y-97488677D01*
X54894284Y-97492714D01*
X55141289Y-97597308D01*
X55149694Y-97600186D01*
X55408983Y-97668934D01*
X55417704Y-97670598D01*
X55684098Y-97702128D01*
X55692963Y-97702546D01*
X55961128Y-97696226D01*
X55969988Y-97695389D01*
X56234574Y-97651350D01*
X56243231Y-97649271D01*
X56498980Y-97568389D01*
X56507241Y-97565118D01*
X56749045Y-97449005D01*
X56756770Y-97444599D01*
X56961587Y-97307745D01*
X56969875Y-97297827D01*
X56962618Y-97283648D01*
X55793752Y-96114782D01*
X55779808Y-96107168D01*
X55777975Y-96107299D01*
X55771360Y-96111550D01*
X54600586Y-97282324D01*
X54593420Y-97295447D01*
X53958128Y-97295447D01*
X53373405Y-96710724D01*
X53339379Y-96648412D01*
X53336500Y-96621629D01*
X53336500Y-95685582D01*
X53820014Y-95685582D01*
X53830545Y-95953617D01*
X53831520Y-95962446D01*
X53879713Y-96226327D01*
X53881922Y-96234929D01*
X53966814Y-96489382D01*
X53970218Y-96497600D01*
X54090116Y-96737554D01*
X54094634Y-96745193D01*
X54217019Y-96922271D01*
X54227337Y-96930622D01*
X54240992Y-96923498D01*
X55408918Y-95755572D01*
X55415296Y-95743892D01*
X56145348Y-95743892D01*
X56145479Y-95745725D01*
X56149730Y-95752340D01*
X57321286Y-96923896D01*
X57334686Y-96931213D01*
X57344591Y-96924226D01*
X57365422Y-96899443D01*
X57370642Y-96892258D01*
X57512595Y-96664645D01*
X57516747Y-96656805D01*
X57625215Y-96411454D01*
X57628221Y-96403104D01*
X57701034Y-96144928D01*
X57702835Y-96136235D01*
X57738710Y-95869141D01*
X57739238Y-95862748D01*
X57742908Y-95745982D01*
X57742781Y-95739539D01*
X57738644Y-95681114D01*
X59318438Y-95681114D01*
X59318613Y-95685566D01*
X59323793Y-95817391D01*
X59329322Y-95958121D01*
X59379128Y-96230831D01*
X59466862Y-96493803D01*
X59468855Y-96497791D01*
X59575252Y-96710724D01*
X59590774Y-96741789D01*
X59748391Y-96969842D01*
X59936568Y-97173412D01*
X59940022Y-97176224D01*
X60148095Y-97345622D01*
X60148099Y-97345625D01*
X60151552Y-97348436D01*
X60389052Y-97491423D01*
X60393147Y-97493157D01*
X60393149Y-97493158D01*
X60639108Y-97597308D01*
X60644329Y-97599519D01*
X60648622Y-97600657D01*
X60648627Y-97600659D01*
X60769971Y-97632832D01*
X60912291Y-97670567D01*
X61187590Y-97703151D01*
X61464734Y-97696620D01*
X61621260Y-97670567D01*
X61733803Y-97651835D01*
X61733807Y-97651834D01*
X61738193Y-97651104D01*
X61742434Y-97649763D01*
X61742437Y-97649762D01*
X61998264Y-97568854D01*
X61998266Y-97568853D01*
X62002510Y-97567511D01*
X62006521Y-97565585D01*
X62006526Y-97565583D01*
X62248393Y-97449440D01*
X62248394Y-97449439D01*
X62252412Y-97447510D01*
X62337022Y-97390976D01*
X62479205Y-97295973D01*
X62479209Y-97295970D01*
X62482913Y-97293495D01*
X62486230Y-97290524D01*
X62486234Y-97290521D01*
X62686095Y-97111510D01*
X62686096Y-97111509D01*
X62689413Y-97108538D01*
X62867792Y-96896330D01*
X63014492Y-96661105D01*
X63020104Y-96648412D01*
X63124784Y-96411628D01*
X63126584Y-96407557D01*
X63201833Y-96140744D01*
X63225774Y-95962501D01*
X63238310Y-95869173D01*
X63238311Y-95869165D01*
X63238737Y-95865991D01*
X63238839Y-95862748D01*
X63242509Y-95745982D01*
X63242509Y-95745977D01*
X63242610Y-95742760D01*
X63223031Y-95466231D01*
X63164684Y-95195220D01*
X63068733Y-94935134D01*
X62937093Y-94691162D01*
X62934452Y-94687587D01*
X62934448Y-94687580D01*
X62775043Y-94471765D01*
X62772390Y-94468173D01*
X62730307Y-94425423D01*
X62581042Y-94273796D01*
X62577911Y-94270615D01*
X62574372Y-94267914D01*
X62574365Y-94267908D01*
X62428064Y-94156255D01*
X62357536Y-94102430D01*
X62303930Y-94072409D01*
X62119553Y-93969153D01*
X62119552Y-93969153D01*
X62115662Y-93966974D01*
X62106320Y-93963360D01*
X61861270Y-93868556D01*
X61861264Y-93868554D01*
X61857115Y-93866949D01*
X61852783Y-93865945D01*
X61852780Y-93865944D01*
X61742445Y-93840370D01*
X61587054Y-93804352D01*
X61310867Y-93780432D01*
X61306432Y-93780676D01*
X61306428Y-93780676D01*
X61193985Y-93786864D01*
X61034065Y-93795665D01*
X61029702Y-93796533D01*
X61029701Y-93796533D01*
X60992324Y-93803968D01*
X60762171Y-93849749D01*
X60640495Y-93892478D01*
X60504816Y-93940124D01*
X60504808Y-93940127D01*
X60500609Y-93941602D01*
X60496656Y-93943655D01*
X60496650Y-93943658D01*
X60357754Y-94015809D01*
X60254600Y-94069394D01*
X60250985Y-94071977D01*
X60250979Y-94071981D01*
X60108474Y-94173817D01*
X60029051Y-94230574D01*
X60025831Y-94233646D01*
X59852407Y-94399084D01*
X59828462Y-94421926D01*
X59825706Y-94425422D01*
X59825705Y-94425423D01*
X59677453Y-94613480D01*
X59656836Y-94639632D01*
X59654599Y-94643484D01*
X59519832Y-94875502D01*
X59519829Y-94875508D01*
X59517598Y-94879349D01*
X59515928Y-94883472D01*
X59418142Y-95124895D01*
X59413525Y-95136293D01*
X59412454Y-95140606D01*
X59412452Y-95140611D01*
X59384901Y-95251527D01*
X59346694Y-95405337D01*
X59318438Y-95681114D01*
X57738644Y-95681114D01*
X57723750Y-95470751D01*
X57722497Y-95461948D01*
X57666039Y-95199712D01*
X57663560Y-95191179D01*
X57570717Y-94939517D01*
X57567062Y-94931422D01*
X57439686Y-94695353D01*
X57434924Y-94687848D01*
X57343787Y-94564458D01*
X57332662Y-94556018D01*
X57320066Y-94562844D01*
X56152962Y-95729948D01*
X56145348Y-95743892D01*
X55415296Y-95743892D01*
X55416532Y-95741628D01*
X55416401Y-95739795D01*
X55412150Y-95733180D01*
X54241817Y-94562847D01*
X54228977Y-94555836D01*
X54218285Y-94563633D01*
X54160910Y-94636414D01*
X54155915Y-94643763D01*
X54021179Y-94875728D01*
X54017280Y-94883686D01*
X53916575Y-95132314D01*
X53913826Y-95140776D01*
X53849163Y-95401096D01*
X53847634Y-95409857D01*
X53820293Y-95676699D01*
X53820014Y-95685582D01*
X53336500Y-95685582D01*
X53336500Y-94190272D01*
X54593807Y-94190272D01*
X54600787Y-94203397D01*
X55768128Y-95370738D01*
X55782072Y-95378352D01*
X55783905Y-95378221D01*
X55790520Y-95373970D01*
X56960755Y-94203735D01*
X56967609Y-94191183D01*
X56959402Y-94180113D01*
X56861702Y-94105550D01*
X56854277Y-94100673D01*
X56620238Y-93969605D01*
X56612185Y-93965816D01*
X56362022Y-93869035D01*
X56353532Y-93866423D01*
X56092214Y-93805853D01*
X56083436Y-93804463D01*
X55816191Y-93781317D01*
X55807320Y-93781177D01*
X55539471Y-93795918D01*
X55530661Y-93797032D01*
X55267575Y-93849362D01*
X55259000Y-93851708D01*
X55005916Y-93940584D01*
X54997749Y-93944118D01*
X54759713Y-94067769D01*
X54752141Y-94072409D01*
X54602210Y-94179550D01*
X54593807Y-94190272D01*
X53336500Y-94190272D01*
X53336500Y-91479954D01*
X53819338Y-91479954D01*
X53830222Y-91756961D01*
X53880028Y-92029671D01*
X53967762Y-92292643D01*
X54091674Y-92540629D01*
X54249291Y-92768682D01*
X54437468Y-92972252D01*
X54440922Y-92975064D01*
X54648995Y-93144462D01*
X54648999Y-93144465D01*
X54652452Y-93147276D01*
X54889952Y-93290263D01*
X54894047Y-93291997D01*
X54894049Y-93291998D01*
X55069640Y-93366351D01*
X55145229Y-93398359D01*
X55149522Y-93399497D01*
X55149527Y-93399499D01*
X55289302Y-93436559D01*
X55413191Y-93469407D01*
X55688490Y-93501991D01*
X55965634Y-93495460D01*
X56122160Y-93469407D01*
X56234703Y-93450675D01*
X56234707Y-93450674D01*
X56239093Y-93449944D01*
X56243334Y-93448603D01*
X56243337Y-93448602D01*
X56499164Y-93367694D01*
X56499166Y-93367693D01*
X56503410Y-93366351D01*
X56507421Y-93364425D01*
X56507426Y-93364423D01*
X56749293Y-93248280D01*
X56749294Y-93248279D01*
X56753312Y-93246350D01*
X56901588Y-93147276D01*
X56980105Y-93094813D01*
X56980109Y-93094810D01*
X56983813Y-93092335D01*
X56987130Y-93089364D01*
X56987134Y-93089361D01*
X57186995Y-92910350D01*
X57186996Y-92910349D01*
X57190313Y-92907378D01*
X57368692Y-92695170D01*
X57515392Y-92459945D01*
X57627484Y-92206397D01*
X57702733Y-91939584D01*
X57726674Y-91761341D01*
X57739210Y-91668013D01*
X57739211Y-91668005D01*
X57739637Y-91664831D01*
X57743510Y-91541600D01*
X57739145Y-91479954D01*
X59318438Y-91479954D01*
X59329322Y-91756961D01*
X59379128Y-92029671D01*
X59466862Y-92292643D01*
X59590774Y-92540629D01*
X59748391Y-92768682D01*
X59936568Y-92972252D01*
X59940022Y-92975064D01*
X60148095Y-93144462D01*
X60148099Y-93144465D01*
X60151552Y-93147276D01*
X60389052Y-93290263D01*
X60393147Y-93291997D01*
X60393149Y-93291998D01*
X60568740Y-93366351D01*
X60644329Y-93398359D01*
X60648622Y-93399497D01*
X60648627Y-93399499D01*
X60788402Y-93436559D01*
X60912291Y-93469407D01*
X61187590Y-93501991D01*
X61464734Y-93495460D01*
X61621260Y-93469407D01*
X61733803Y-93450675D01*
X61733807Y-93450674D01*
X61738193Y-93449944D01*
X61742434Y-93448603D01*
X61742437Y-93448602D01*
X61998264Y-93367694D01*
X61998266Y-93367693D01*
X62002510Y-93366351D01*
X62006521Y-93364425D01*
X62006526Y-93364423D01*
X62248393Y-93248280D01*
X62248394Y-93248279D01*
X62252412Y-93246350D01*
X62400688Y-93147276D01*
X62479205Y-93094813D01*
X62479209Y-93094810D01*
X62482913Y-93092335D01*
X62486230Y-93089364D01*
X62486234Y-93089361D01*
X62686095Y-92910350D01*
X62686096Y-92910349D01*
X62689413Y-92907378D01*
X62867792Y-92695170D01*
X63014492Y-92459945D01*
X63126584Y-92206397D01*
X63201833Y-91939584D01*
X63225774Y-91761341D01*
X63238310Y-91668013D01*
X63238311Y-91668005D01*
X63238737Y-91664831D01*
X63242610Y-91541600D01*
X63223031Y-91265071D01*
X63164684Y-90994060D01*
X63068733Y-90733974D01*
X62937093Y-90490002D01*
X62934452Y-90486427D01*
X62934448Y-90486420D01*
X62775043Y-90270605D01*
X62772390Y-90267013D01*
X62730307Y-90224263D01*
X62581042Y-90072636D01*
X62577911Y-90069455D01*
X62574372Y-90066754D01*
X62574365Y-90066748D01*
X62361076Y-89903972D01*
X62357536Y-89901270D01*
X62353647Y-89899092D01*
X62119553Y-89767993D01*
X62119552Y-89767993D01*
X62115662Y-89765814D01*
X62107663Y-89762720D01*
X61861270Y-89667396D01*
X61861264Y-89667394D01*
X61857115Y-89665789D01*
X61852783Y-89664785D01*
X61852780Y-89664784D01*
X61742445Y-89639210D01*
X61587054Y-89603192D01*
X61310867Y-89579272D01*
X61306432Y-89579516D01*
X61306428Y-89579516D01*
X61193985Y-89585704D01*
X61034065Y-89594505D01*
X60762171Y-89648589D01*
X60640495Y-89691318D01*
X60504816Y-89738964D01*
X60504808Y-89738967D01*
X60500609Y-89740442D01*
X60496656Y-89742495D01*
X60496650Y-89742498D01*
X60447571Y-89767993D01*
X60254600Y-89868234D01*
X60250985Y-89870817D01*
X60250979Y-89870821D01*
X60108474Y-89972657D01*
X60029051Y-90029414D01*
X59828462Y-90220766D01*
X59656836Y-90438472D01*
X59654599Y-90442324D01*
X59519832Y-90674342D01*
X59519829Y-90674348D01*
X59517598Y-90678189D01*
X59413525Y-90935133D01*
X59412454Y-90939446D01*
X59412452Y-90939451D01*
X59366145Y-91125871D01*
X59346694Y-91204177D01*
X59318438Y-91479954D01*
X57739145Y-91479954D01*
X57723931Y-91265071D01*
X57665584Y-90994060D01*
X57569633Y-90733974D01*
X57437993Y-90490002D01*
X57435352Y-90486427D01*
X57435348Y-90486420D01*
X57275943Y-90270605D01*
X57273290Y-90267013D01*
X57231207Y-90224263D01*
X57081942Y-90072636D01*
X57078811Y-90069455D01*
X57075272Y-90066754D01*
X57075265Y-90066748D01*
X56861976Y-89903972D01*
X56858436Y-89901270D01*
X56854547Y-89899092D01*
X56620453Y-89767993D01*
X56620452Y-89767993D01*
X56616562Y-89765814D01*
X56608563Y-89762720D01*
X56362170Y-89667396D01*
X56362164Y-89667394D01*
X56358015Y-89665789D01*
X56353683Y-89664785D01*
X56353680Y-89664784D01*
X56243345Y-89639210D01*
X56087954Y-89603192D01*
X55811767Y-89579272D01*
X55807332Y-89579516D01*
X55807328Y-89579516D01*
X55694885Y-89585704D01*
X55534965Y-89594505D01*
X55263071Y-89648589D01*
X55141395Y-89691318D01*
X55005716Y-89738964D01*
X55005708Y-89738967D01*
X55001509Y-89740442D01*
X54997556Y-89742495D01*
X54997550Y-89742498D01*
X54948471Y-89767993D01*
X54755500Y-89868234D01*
X54751885Y-89870817D01*
X54751879Y-89870821D01*
X54609374Y-89972657D01*
X54529951Y-90029414D01*
X54329362Y-90220766D01*
X54157736Y-90438472D01*
X54155499Y-90442324D01*
X54020732Y-90674342D01*
X54020729Y-90674348D01*
X54018498Y-90678189D01*
X53914425Y-90935133D01*
X53913354Y-90939446D01*
X53913352Y-90939451D01*
X53867045Y-91125871D01*
X53847594Y-91204177D01*
X53819338Y-91479954D01*
X53336500Y-91479954D01*
X53336500Y-87281334D01*
X53819338Y-87281334D01*
X53830222Y-87558341D01*
X53880028Y-87831051D01*
X53967762Y-88094023D01*
X54091674Y-88342009D01*
X54249291Y-88570062D01*
X54437468Y-88773632D01*
X54440922Y-88776444D01*
X54648995Y-88945842D01*
X54648999Y-88945845D01*
X54652452Y-88948656D01*
X54889952Y-89091643D01*
X54894047Y-89093377D01*
X54894049Y-89093378D01*
X55069640Y-89167731D01*
X55145229Y-89199739D01*
X55149522Y-89200877D01*
X55149527Y-89200879D01*
X55289302Y-89237939D01*
X55413191Y-89270787D01*
X55688490Y-89303371D01*
X55965634Y-89296840D01*
X56122160Y-89270787D01*
X56234703Y-89252055D01*
X56234707Y-89252054D01*
X56239093Y-89251324D01*
X56243334Y-89249983D01*
X56243337Y-89249982D01*
X56499164Y-89169074D01*
X56499166Y-89169073D01*
X56503410Y-89167731D01*
X56507421Y-89165805D01*
X56507426Y-89165803D01*
X56749293Y-89049660D01*
X56749294Y-89049659D01*
X56753312Y-89047730D01*
X56901588Y-88948656D01*
X56980105Y-88896193D01*
X56980109Y-88896190D01*
X56983813Y-88893715D01*
X56987130Y-88890744D01*
X56987134Y-88890741D01*
X57186995Y-88711730D01*
X57186996Y-88711729D01*
X57190313Y-88708758D01*
X57368692Y-88496550D01*
X57515392Y-88261325D01*
X57627484Y-88007777D01*
X57702733Y-87740964D01*
X57726674Y-87562721D01*
X57739210Y-87469393D01*
X57739211Y-87469385D01*
X57739637Y-87466211D01*
X57743510Y-87342980D01*
X57739145Y-87281334D01*
X59318438Y-87281334D01*
X59329322Y-87558341D01*
X59379128Y-87831051D01*
X59466862Y-88094023D01*
X59590774Y-88342009D01*
X59748391Y-88570062D01*
X59936568Y-88773632D01*
X59940022Y-88776444D01*
X60148095Y-88945842D01*
X60148099Y-88945845D01*
X60151552Y-88948656D01*
X60389052Y-89091643D01*
X60393147Y-89093377D01*
X60393149Y-89093378D01*
X60568740Y-89167731D01*
X60644329Y-89199739D01*
X60648622Y-89200877D01*
X60648627Y-89200879D01*
X60788402Y-89237939D01*
X60912291Y-89270787D01*
X61187590Y-89303371D01*
X61464734Y-89296840D01*
X61621260Y-89270787D01*
X61733803Y-89252055D01*
X61733807Y-89252054D01*
X61738193Y-89251324D01*
X61742434Y-89249983D01*
X61742437Y-89249982D01*
X61998264Y-89169074D01*
X61998266Y-89169073D01*
X62002510Y-89167731D01*
X62006521Y-89165805D01*
X62006526Y-89165803D01*
X62248393Y-89049660D01*
X62248394Y-89049659D01*
X62252412Y-89047730D01*
X62400688Y-88948656D01*
X62479205Y-88896193D01*
X62479209Y-88896190D01*
X62482913Y-88893715D01*
X62486230Y-88890744D01*
X62486234Y-88890741D01*
X62686095Y-88711730D01*
X62686096Y-88711729D01*
X62689413Y-88708758D01*
X62867792Y-88496550D01*
X63014492Y-88261325D01*
X63126584Y-88007777D01*
X63201833Y-87740964D01*
X63225774Y-87562721D01*
X63238310Y-87469393D01*
X63238311Y-87469385D01*
X63238737Y-87466211D01*
X63242610Y-87342980D01*
X63223031Y-87066451D01*
X63164684Y-86795440D01*
X63068733Y-86535354D01*
X62937093Y-86291382D01*
X62934452Y-86287807D01*
X62934448Y-86287800D01*
X62775043Y-86071985D01*
X62772390Y-86068393D01*
X62730307Y-86025643D01*
X62581042Y-85874016D01*
X62577911Y-85870835D01*
X62574372Y-85868134D01*
X62574365Y-85868128D01*
X62361076Y-85705352D01*
X62357536Y-85702650D01*
X62353647Y-85700472D01*
X62119553Y-85569373D01*
X62119552Y-85569373D01*
X62115662Y-85567194D01*
X62107663Y-85564100D01*
X61861270Y-85468776D01*
X61861264Y-85468774D01*
X61857115Y-85467169D01*
X61852783Y-85466165D01*
X61852780Y-85466164D01*
X61742445Y-85440590D01*
X61587054Y-85404572D01*
X61310867Y-85380652D01*
X61306432Y-85380896D01*
X61306428Y-85380896D01*
X61193985Y-85387084D01*
X61034065Y-85395885D01*
X60762171Y-85449969D01*
X60640495Y-85492698D01*
X60504816Y-85540344D01*
X60504808Y-85540347D01*
X60500609Y-85541822D01*
X60496656Y-85543875D01*
X60496650Y-85543878D01*
X60447571Y-85569373D01*
X60254600Y-85669614D01*
X60250985Y-85672197D01*
X60250979Y-85672201D01*
X60108474Y-85774037D01*
X60029051Y-85830794D01*
X59828462Y-86022146D01*
X59656836Y-86239852D01*
X59654599Y-86243704D01*
X59519832Y-86475722D01*
X59519829Y-86475728D01*
X59517598Y-86479569D01*
X59413525Y-86736513D01*
X59412454Y-86740826D01*
X59412452Y-86740831D01*
X59366145Y-86927251D01*
X59346694Y-87005557D01*
X59318438Y-87281334D01*
X57739145Y-87281334D01*
X57723931Y-87066451D01*
X57665584Y-86795440D01*
X57569633Y-86535354D01*
X57437993Y-86291382D01*
X57435352Y-86287807D01*
X57435348Y-86287800D01*
X57275943Y-86071985D01*
X57273290Y-86068393D01*
X57231207Y-86025643D01*
X57081942Y-85874016D01*
X57078811Y-85870835D01*
X57075272Y-85868134D01*
X57075265Y-85868128D01*
X56861976Y-85705352D01*
X56858436Y-85702650D01*
X56854547Y-85700472D01*
X56620453Y-85569373D01*
X56620452Y-85569373D01*
X56616562Y-85567194D01*
X56608563Y-85564100D01*
X56362170Y-85468776D01*
X56362164Y-85468774D01*
X56358015Y-85467169D01*
X56353683Y-85466165D01*
X56353680Y-85466164D01*
X56243345Y-85440590D01*
X56087954Y-85404572D01*
X55811767Y-85380652D01*
X55807332Y-85380896D01*
X55807328Y-85380896D01*
X55694885Y-85387084D01*
X55534965Y-85395885D01*
X55263071Y-85449969D01*
X55141395Y-85492698D01*
X55005716Y-85540344D01*
X55005708Y-85540347D01*
X55001509Y-85541822D01*
X54997556Y-85543875D01*
X54997550Y-85543878D01*
X54948471Y-85569373D01*
X54755500Y-85669614D01*
X54751885Y-85672197D01*
X54751879Y-85672201D01*
X54609374Y-85774037D01*
X54529951Y-85830794D01*
X54329362Y-86022146D01*
X54157736Y-86239852D01*
X54155499Y-86243704D01*
X54020732Y-86475722D01*
X54020729Y-86475728D01*
X54018498Y-86479569D01*
X53914425Y-86736513D01*
X53913354Y-86740826D01*
X53913352Y-86740831D01*
X53867045Y-86927251D01*
X53847594Y-87005557D01*
X53819338Y-87281334D01*
X53336500Y-87281334D01*
X53336500Y-85216000D01*
X53356502Y-85147879D01*
X53410158Y-85101386D01*
X53462500Y-85090000D01*
X53594000Y-85090000D01*
X53594000Y-83454985D01*
X53614002Y-83386864D01*
X53667658Y-83340371D01*
X53737932Y-83330267D01*
X53802512Y-83359761D01*
X53840896Y-83419487D01*
X53843950Y-83432348D01*
X53880028Y-83629891D01*
X53967762Y-83892863D01*
X54091674Y-84140849D01*
X54249291Y-84368902D01*
X54437468Y-84572472D01*
X54440922Y-84575284D01*
X54648995Y-84744682D01*
X54648999Y-84744685D01*
X54652452Y-84747496D01*
X54889952Y-84890483D01*
X54894047Y-84892217D01*
X54894049Y-84892218D01*
X55069640Y-84966571D01*
X55145229Y-84998579D01*
X55149522Y-84999717D01*
X55149527Y-84999719D01*
X55289302Y-85036779D01*
X55413191Y-85069627D01*
X55688490Y-85102211D01*
X55965634Y-85095680D01*
X56122160Y-85069627D01*
X56234703Y-85050895D01*
X56234707Y-85050894D01*
X56239093Y-85050164D01*
X56243334Y-85048823D01*
X56243337Y-85048822D01*
X56499164Y-84967914D01*
X56499166Y-84967913D01*
X56503410Y-84966571D01*
X56507421Y-84964645D01*
X56507426Y-84964643D01*
X56749293Y-84848500D01*
X56749294Y-84848499D01*
X56753312Y-84846570D01*
X56901588Y-84747496D01*
X56980105Y-84695033D01*
X56980109Y-84695030D01*
X56983813Y-84692555D01*
X56987130Y-84689584D01*
X56987134Y-84689581D01*
X57186995Y-84510570D01*
X57186996Y-84510569D01*
X57190313Y-84507598D01*
X57368692Y-84295390D01*
X57515392Y-84060165D01*
X57627484Y-83806617D01*
X57702733Y-83539804D01*
X57719886Y-83412100D01*
X57739210Y-83268233D01*
X57739211Y-83268225D01*
X57739637Y-83265051D01*
X57743510Y-83141820D01*
X57739145Y-83080174D01*
X59318438Y-83080174D01*
X59318613Y-83084626D01*
X59328662Y-83340371D01*
X59329322Y-83357181D01*
X59379128Y-83629891D01*
X59466862Y-83892863D01*
X59590774Y-84140849D01*
X59748391Y-84368902D01*
X59936568Y-84572472D01*
X59940022Y-84575284D01*
X60148095Y-84744682D01*
X60148099Y-84744685D01*
X60151552Y-84747496D01*
X60389052Y-84890483D01*
X60393147Y-84892217D01*
X60393149Y-84892218D01*
X60568740Y-84966571D01*
X60644329Y-84998579D01*
X60648622Y-84999717D01*
X60648627Y-84999719D01*
X60788402Y-85036779D01*
X60912291Y-85069627D01*
X61187590Y-85102211D01*
X61464734Y-85095680D01*
X61621260Y-85069627D01*
X61733803Y-85050895D01*
X61733807Y-85050894D01*
X61738193Y-85050164D01*
X61742434Y-85048823D01*
X61742437Y-85048822D01*
X61998264Y-84967914D01*
X61998266Y-84967913D01*
X62002510Y-84966571D01*
X62006521Y-84964645D01*
X62006526Y-84964643D01*
X62248393Y-84848500D01*
X62248394Y-84848499D01*
X62252412Y-84846570D01*
X62400688Y-84747496D01*
X62479205Y-84695033D01*
X62479209Y-84695030D01*
X62482913Y-84692555D01*
X62486230Y-84689584D01*
X62486234Y-84689581D01*
X62686095Y-84510570D01*
X62686096Y-84510569D01*
X62689413Y-84507598D01*
X62867792Y-84295390D01*
X63014492Y-84060165D01*
X63126584Y-83806617D01*
X63201833Y-83539804D01*
X63218986Y-83412100D01*
X63238310Y-83268233D01*
X63238311Y-83268225D01*
X63238737Y-83265051D01*
X63242610Y-83141820D01*
X63223031Y-82865291D01*
X63164684Y-82594280D01*
X63068733Y-82334194D01*
X62937093Y-82090222D01*
X62934452Y-82086647D01*
X62934448Y-82086640D01*
X62775043Y-81870825D01*
X62772390Y-81867233D01*
X62730307Y-81824483D01*
X62581042Y-81672856D01*
X62577911Y-81669675D01*
X62574372Y-81666974D01*
X62574365Y-81666968D01*
X62361076Y-81504192D01*
X62357536Y-81501490D01*
X62353647Y-81499312D01*
X62119553Y-81368213D01*
X62119552Y-81368213D01*
X62115662Y-81366034D01*
X62107663Y-81362940D01*
X61861270Y-81267616D01*
X61861264Y-81267614D01*
X61857115Y-81266009D01*
X61852783Y-81265005D01*
X61852780Y-81265004D01*
X61742445Y-81239430D01*
X61587054Y-81203412D01*
X61310867Y-81179492D01*
X61306432Y-81179736D01*
X61306428Y-81179736D01*
X61193985Y-81185924D01*
X61034065Y-81194725D01*
X60762171Y-81248809D01*
X60640495Y-81291538D01*
X60504816Y-81339184D01*
X60504808Y-81339187D01*
X60500609Y-81340662D01*
X60496656Y-81342715D01*
X60496650Y-81342718D01*
X60447571Y-81368213D01*
X60254600Y-81468454D01*
X60250985Y-81471037D01*
X60250979Y-81471041D01*
X60108474Y-81572877D01*
X60029051Y-81629634D01*
X59828462Y-81820986D01*
X59656836Y-82038692D01*
X59654599Y-82042544D01*
X59519832Y-82274562D01*
X59519829Y-82274568D01*
X59517598Y-82278409D01*
X59413525Y-82535353D01*
X59412454Y-82539666D01*
X59412452Y-82539671D01*
X59366145Y-82726091D01*
X59346694Y-82804397D01*
X59318438Y-83080174D01*
X57739145Y-83080174D01*
X57723931Y-82865291D01*
X57665584Y-82594280D01*
X57569633Y-82334194D01*
X57437993Y-82090222D01*
X57435352Y-82086647D01*
X57435348Y-82086640D01*
X57275943Y-81870825D01*
X57273290Y-81867233D01*
X57231207Y-81824483D01*
X57081942Y-81672856D01*
X57078811Y-81669675D01*
X57075272Y-81666974D01*
X57075265Y-81666968D01*
X56861976Y-81504192D01*
X56858436Y-81501490D01*
X56854547Y-81499312D01*
X56620453Y-81368213D01*
X56620452Y-81368213D01*
X56616562Y-81366034D01*
X56608563Y-81362940D01*
X56362170Y-81267616D01*
X56362164Y-81267614D01*
X56358015Y-81266009D01*
X56353683Y-81265005D01*
X56353680Y-81265004D01*
X56243345Y-81239430D01*
X56087954Y-81203412D01*
X55811767Y-81179492D01*
X55807332Y-81179736D01*
X55807328Y-81179736D01*
X55694885Y-81185924D01*
X55534965Y-81194725D01*
X55263071Y-81248809D01*
X55141395Y-81291538D01*
X55005716Y-81339184D01*
X55005708Y-81339187D01*
X55001509Y-81340662D01*
X54997556Y-81342715D01*
X54997550Y-81342718D01*
X54948471Y-81368213D01*
X54755500Y-81468454D01*
X54751885Y-81471037D01*
X54751879Y-81471041D01*
X54609374Y-81572877D01*
X54529951Y-81629634D01*
X54329362Y-81820986D01*
X54157736Y-82038692D01*
X54155499Y-82042544D01*
X54020732Y-82274562D01*
X54020729Y-82274568D01*
X54018498Y-82278409D01*
X53914425Y-82535353D01*
X53913354Y-82539666D01*
X53913352Y-82539671D01*
X53867045Y-82726091D01*
X53847594Y-82804397D01*
X53847140Y-82808828D01*
X53845344Y-82826357D01*
X53818503Y-82892084D01*
X53760388Y-82932866D01*
X53689450Y-82935754D01*
X53628211Y-82899832D01*
X53596115Y-82836505D01*
X53594000Y-82813514D01*
X53594000Y-79256365D01*
X53614002Y-79188244D01*
X53667658Y-79141751D01*
X53737932Y-79131647D01*
X53802512Y-79161141D01*
X53840896Y-79220867D01*
X53843950Y-79233728D01*
X53880028Y-79431271D01*
X53967762Y-79694243D01*
X53969755Y-79698231D01*
X54067772Y-79894393D01*
X54091674Y-79942229D01*
X54249291Y-80170282D01*
X54437468Y-80373852D01*
X54440922Y-80376664D01*
X54648995Y-80546062D01*
X54648999Y-80546065D01*
X54652452Y-80548876D01*
X54889952Y-80691863D01*
X54894047Y-80693597D01*
X54894049Y-80693598D01*
X55069640Y-80767951D01*
X55145229Y-80799959D01*
X55149522Y-80801097D01*
X55149527Y-80801099D01*
X55289302Y-80838159D01*
X55413191Y-80871007D01*
X55688490Y-80903591D01*
X55965634Y-80897060D01*
X56122160Y-80871007D01*
X56234703Y-80852275D01*
X56234707Y-80852274D01*
X56239093Y-80851544D01*
X56243334Y-80850203D01*
X56243337Y-80850202D01*
X56499164Y-80769294D01*
X56499166Y-80769293D01*
X56503410Y-80767951D01*
X56507421Y-80766025D01*
X56507426Y-80766023D01*
X56749293Y-80649880D01*
X56749294Y-80649879D01*
X56753312Y-80647950D01*
X56901588Y-80548876D01*
X56980105Y-80496413D01*
X56980109Y-80496410D01*
X56983813Y-80493935D01*
X56987130Y-80490964D01*
X56987134Y-80490961D01*
X57186995Y-80311950D01*
X57186996Y-80311949D01*
X57190313Y-80308978D01*
X57368692Y-80096770D01*
X57515392Y-79861545D01*
X57536607Y-79813559D01*
X57625684Y-79612068D01*
X57627484Y-79607997D01*
X57702733Y-79341184D01*
X57718894Y-79220867D01*
X57739210Y-79069613D01*
X57739211Y-79069605D01*
X57739637Y-79066431D01*
X57743510Y-78943200D01*
X57739145Y-78881554D01*
X59318438Y-78881554D01*
X59318613Y-78886006D01*
X59328662Y-79141751D01*
X59329322Y-79158561D01*
X59379128Y-79431271D01*
X59466862Y-79694243D01*
X59468855Y-79698231D01*
X59566872Y-79894393D01*
X59590774Y-79942229D01*
X59748391Y-80170282D01*
X59936568Y-80373852D01*
X59940022Y-80376664D01*
X60148095Y-80546062D01*
X60148099Y-80546065D01*
X60151552Y-80548876D01*
X60389052Y-80691863D01*
X60393147Y-80693597D01*
X60393149Y-80693598D01*
X60568740Y-80767951D01*
X60644329Y-80799959D01*
X60648622Y-80801097D01*
X60648627Y-80801099D01*
X60788402Y-80838159D01*
X60912291Y-80871007D01*
X61187590Y-80903591D01*
X61464734Y-80897060D01*
X61621260Y-80871007D01*
X61733803Y-80852275D01*
X61733807Y-80852274D01*
X61738193Y-80851544D01*
X61742434Y-80850203D01*
X61742437Y-80850202D01*
X61998264Y-80769294D01*
X61998266Y-80769293D01*
X62002510Y-80767951D01*
X62006521Y-80766025D01*
X62006526Y-80766023D01*
X62248393Y-80649880D01*
X62248394Y-80649879D01*
X62252412Y-80647950D01*
X62400688Y-80548876D01*
X62479205Y-80496413D01*
X62479209Y-80496410D01*
X62482913Y-80493935D01*
X62486230Y-80490964D01*
X62486234Y-80490961D01*
X62686095Y-80311950D01*
X62686096Y-80311949D01*
X62689413Y-80308978D01*
X62867792Y-80096770D01*
X63014492Y-79861545D01*
X63035707Y-79813559D01*
X63124784Y-79612068D01*
X63126584Y-79607997D01*
X63201833Y-79341184D01*
X63217994Y-79220867D01*
X63238310Y-79069613D01*
X63238311Y-79069605D01*
X63238737Y-79066431D01*
X63242610Y-78943200D01*
X63223031Y-78666671D01*
X63164684Y-78395660D01*
X63068733Y-78135574D01*
X62937093Y-77891602D01*
X62934452Y-77888027D01*
X62934448Y-77888020D01*
X62775043Y-77672205D01*
X62772390Y-77668613D01*
X62730307Y-77625863D01*
X62581042Y-77474236D01*
X62577911Y-77471055D01*
X62574372Y-77468354D01*
X62574365Y-77468348D01*
X62361076Y-77305572D01*
X62357536Y-77302870D01*
X62353647Y-77300692D01*
X62119553Y-77169593D01*
X62119552Y-77169593D01*
X62115662Y-77167414D01*
X62107663Y-77164320D01*
X61861270Y-77068996D01*
X61861264Y-77068994D01*
X61857115Y-77067389D01*
X61852783Y-77066385D01*
X61852780Y-77066384D01*
X61742445Y-77040810D01*
X61587054Y-77004792D01*
X61310867Y-76980872D01*
X61306432Y-76981116D01*
X61306428Y-76981116D01*
X61193985Y-76987304D01*
X61034065Y-76996105D01*
X60762171Y-77050189D01*
X60650143Y-77089530D01*
X60504816Y-77140564D01*
X60504808Y-77140567D01*
X60500609Y-77142042D01*
X60496656Y-77144095D01*
X60496650Y-77144098D01*
X60447571Y-77169593D01*
X60254600Y-77269834D01*
X60250985Y-77272417D01*
X60250979Y-77272421D01*
X60108474Y-77374257D01*
X60029051Y-77431014D01*
X59828462Y-77622366D01*
X59656836Y-77840072D01*
X59654599Y-77843924D01*
X59519832Y-78075942D01*
X59519829Y-78075948D01*
X59517598Y-78079789D01*
X59413525Y-78336733D01*
X59412454Y-78341046D01*
X59412452Y-78341051D01*
X59366145Y-78527471D01*
X59346694Y-78605777D01*
X59318438Y-78881554D01*
X57739145Y-78881554D01*
X57723931Y-78666671D01*
X57665584Y-78395660D01*
X57569633Y-78135574D01*
X57437993Y-77891602D01*
X57435352Y-77888027D01*
X57435348Y-77888020D01*
X57275943Y-77672205D01*
X57273290Y-77668613D01*
X57231207Y-77625863D01*
X57081942Y-77474236D01*
X57078811Y-77471055D01*
X57075272Y-77468354D01*
X57075265Y-77468348D01*
X56861976Y-77305572D01*
X56858436Y-77302870D01*
X56854547Y-77300692D01*
X56620453Y-77169593D01*
X56620452Y-77169593D01*
X56616562Y-77167414D01*
X56608563Y-77164320D01*
X56362170Y-77068996D01*
X56362164Y-77068994D01*
X56358015Y-77067389D01*
X56353683Y-77066385D01*
X56353680Y-77066384D01*
X56243345Y-77040810D01*
X56087954Y-77004792D01*
X55811767Y-76980872D01*
X55807332Y-76981116D01*
X55807328Y-76981116D01*
X55694885Y-76987304D01*
X55534965Y-76996105D01*
X55263071Y-77050189D01*
X55151043Y-77089530D01*
X55005716Y-77140564D01*
X55005708Y-77140567D01*
X55001509Y-77142042D01*
X54997556Y-77144095D01*
X54997550Y-77144098D01*
X54948471Y-77169593D01*
X54755500Y-77269834D01*
X54751885Y-77272417D01*
X54751879Y-77272421D01*
X54609374Y-77374257D01*
X54529951Y-77431014D01*
X54329362Y-77622366D01*
X54157736Y-77840072D01*
X54155499Y-77843924D01*
X54020732Y-78075942D01*
X54020729Y-78075948D01*
X54018498Y-78079789D01*
X53914425Y-78336733D01*
X53913354Y-78341046D01*
X53913352Y-78341051D01*
X53867045Y-78527471D01*
X53847594Y-78605777D01*
X53847140Y-78610208D01*
X53845344Y-78627737D01*
X53818503Y-78693464D01*
X53760388Y-78734246D01*
X53689450Y-78737134D01*
X53628211Y-78701212D01*
X53596115Y-78637885D01*
X53594000Y-78614894D01*
X53594000Y-76294727D01*
X54593420Y-76294727D01*
X54600810Y-76305029D01*
X54649283Y-76344492D01*
X54656562Y-76349607D01*
X54886360Y-76487957D01*
X54894284Y-76491994D01*
X55141289Y-76596588D01*
X55149694Y-76599466D01*
X55408983Y-76668214D01*
X55417704Y-76669878D01*
X55684098Y-76701408D01*
X55692963Y-76701826D01*
X55961128Y-76695506D01*
X55969988Y-76694669D01*
X56234574Y-76650630D01*
X56243231Y-76648551D01*
X56498980Y-76567669D01*
X56507241Y-76564398D01*
X56749045Y-76448285D01*
X56756770Y-76443879D01*
X56961587Y-76307025D01*
X56969875Y-76297107D01*
X56968657Y-76294727D01*
X60092520Y-76294727D01*
X60099910Y-76305029D01*
X60148383Y-76344492D01*
X60155662Y-76349607D01*
X60385460Y-76487957D01*
X60393384Y-76491994D01*
X60640389Y-76596588D01*
X60648794Y-76599466D01*
X60908083Y-76668214D01*
X60916804Y-76669878D01*
X61183198Y-76701408D01*
X61192063Y-76701826D01*
X61460228Y-76695506D01*
X61469088Y-76694669D01*
X61733674Y-76650630D01*
X61742331Y-76648551D01*
X61998080Y-76567669D01*
X62006341Y-76564398D01*
X62248145Y-76448285D01*
X62255870Y-76443879D01*
X62460687Y-76307025D01*
X62468975Y-76297107D01*
X62461718Y-76282928D01*
X61292852Y-75114062D01*
X61278908Y-75106448D01*
X61277075Y-75106579D01*
X61270460Y-75110830D01*
X60099686Y-76281604D01*
X60092520Y-76294727D01*
X56968657Y-76294727D01*
X56962618Y-76282928D01*
X55793752Y-75114062D01*
X55779808Y-75106448D01*
X55777975Y-75106579D01*
X55771360Y-75110830D01*
X54600586Y-76281604D01*
X54593420Y-76294727D01*
X53594000Y-76294727D01*
X53594000Y-75052424D01*
X53614002Y-74984303D01*
X53667658Y-74937810D01*
X53737932Y-74927706D01*
X53802512Y-74957200D01*
X53840896Y-75016926D01*
X53843950Y-75029787D01*
X53879713Y-75225607D01*
X53881922Y-75234209D01*
X53966814Y-75488662D01*
X53970218Y-75496880D01*
X54090116Y-75736834D01*
X54094634Y-75744473D01*
X54217019Y-75921551D01*
X54227337Y-75929902D01*
X54240992Y-75922778D01*
X55408918Y-74754852D01*
X55415296Y-74743172D01*
X56145348Y-74743172D01*
X56145479Y-74745005D01*
X56149730Y-74751620D01*
X57321286Y-75923176D01*
X57334686Y-75930493D01*
X57344591Y-75923506D01*
X57365422Y-75898723D01*
X57370642Y-75891538D01*
X57512595Y-75663925D01*
X57516747Y-75656085D01*
X57625215Y-75410734D01*
X57628221Y-75402384D01*
X57701034Y-75144208D01*
X57702835Y-75135515D01*
X57738710Y-74868421D01*
X57739238Y-74862028D01*
X57742908Y-74745262D01*
X57742781Y-74738819D01*
X57738961Y-74684862D01*
X59319114Y-74684862D01*
X59329645Y-74952897D01*
X59330620Y-74961726D01*
X59378813Y-75225607D01*
X59381022Y-75234209D01*
X59465914Y-75488662D01*
X59469318Y-75496880D01*
X59589216Y-75736834D01*
X59593734Y-75744473D01*
X59716119Y-75921551D01*
X59726437Y-75929902D01*
X59740092Y-75922778D01*
X60908018Y-74754852D01*
X60914396Y-74743172D01*
X61644448Y-74743172D01*
X61644579Y-74745005D01*
X61648830Y-74751620D01*
X62820386Y-75923176D01*
X62833786Y-75930493D01*
X62843691Y-75923506D01*
X62864522Y-75898723D01*
X62869742Y-75891538D01*
X63011695Y-75663925D01*
X63015847Y-75656085D01*
X63124315Y-75410734D01*
X63127321Y-75402384D01*
X63200134Y-75144208D01*
X63201935Y-75135515D01*
X63237810Y-74868421D01*
X63238338Y-74862028D01*
X63242008Y-74745262D01*
X63241881Y-74738819D01*
X63222850Y-74470031D01*
X63221597Y-74461228D01*
X63165139Y-74198992D01*
X63162660Y-74190459D01*
X63069817Y-73938797D01*
X63066162Y-73930702D01*
X62938786Y-73694633D01*
X62934024Y-73687128D01*
X62842887Y-73563738D01*
X62831762Y-73555298D01*
X62819166Y-73562124D01*
X61652062Y-74729228D01*
X61644448Y-74743172D01*
X60914396Y-74743172D01*
X60915632Y-74740908D01*
X60915501Y-74739075D01*
X60911250Y-74732460D01*
X59740917Y-73562127D01*
X59728077Y-73555116D01*
X59717385Y-73562913D01*
X59660010Y-73635694D01*
X59655015Y-73643043D01*
X59520279Y-73875008D01*
X59516380Y-73882966D01*
X59415675Y-74131594D01*
X59412926Y-74140056D01*
X59348263Y-74400376D01*
X59346734Y-74409137D01*
X59319393Y-74675979D01*
X59319114Y-74684862D01*
X57738961Y-74684862D01*
X57723750Y-74470031D01*
X57722497Y-74461228D01*
X57666039Y-74198992D01*
X57663560Y-74190459D01*
X57570717Y-73938797D01*
X57567062Y-73930702D01*
X57439686Y-73694633D01*
X57434924Y-73687128D01*
X57343787Y-73563738D01*
X57332662Y-73555298D01*
X57320066Y-73562124D01*
X56152962Y-74729228D01*
X56145348Y-74743172D01*
X55415296Y-74743172D01*
X55416532Y-74740908D01*
X55416401Y-74739075D01*
X55412150Y-74732460D01*
X54241817Y-73562127D01*
X54228977Y-73555116D01*
X54218285Y-73562913D01*
X54160910Y-73635694D01*
X54155915Y-73643043D01*
X54021179Y-73875008D01*
X54017280Y-73882966D01*
X53916575Y-74131594D01*
X53913826Y-74140056D01*
X53849163Y-74400376D01*
X53847634Y-74409137D01*
X53845344Y-74431484D01*
X53818503Y-74497211D01*
X53760387Y-74537993D01*
X53689450Y-74540881D01*
X53628211Y-74504959D01*
X53596115Y-74441632D01*
X53594000Y-74418641D01*
X53594000Y-73189552D01*
X54593807Y-73189552D01*
X54600787Y-73202677D01*
X55768128Y-74370018D01*
X55782072Y-74377632D01*
X55783905Y-74377501D01*
X55790520Y-74373250D01*
X56960755Y-73203015D01*
X56967609Y-73190463D01*
X56966934Y-73189552D01*
X60092907Y-73189552D01*
X60099887Y-73202677D01*
X61267228Y-74370018D01*
X61281172Y-74377632D01*
X61283005Y-74377501D01*
X61289620Y-74373250D01*
X62459855Y-73203015D01*
X62466709Y-73190463D01*
X62458502Y-73179393D01*
X62360802Y-73104830D01*
X62353377Y-73099953D01*
X62119338Y-72968885D01*
X62111285Y-72965096D01*
X61861122Y-72868315D01*
X61852632Y-72865703D01*
X61591314Y-72805133D01*
X61582536Y-72803743D01*
X61315291Y-72780597D01*
X61306420Y-72780457D01*
X61038571Y-72795198D01*
X61029761Y-72796312D01*
X60766675Y-72848642D01*
X60758100Y-72850988D01*
X60505016Y-72939864D01*
X60496849Y-72943398D01*
X60258813Y-73067049D01*
X60251241Y-73071689D01*
X60101310Y-73178830D01*
X60092907Y-73189552D01*
X56966934Y-73189552D01*
X56959402Y-73179393D01*
X56861702Y-73104830D01*
X56854277Y-73099953D01*
X56620238Y-72968885D01*
X56612185Y-72965096D01*
X56362022Y-72868315D01*
X56353532Y-72865703D01*
X56092214Y-72805133D01*
X56083436Y-72803743D01*
X55816191Y-72780597D01*
X55807320Y-72780457D01*
X55539471Y-72795198D01*
X55530661Y-72796312D01*
X55267575Y-72848642D01*
X55259000Y-72850988D01*
X55005916Y-72939864D01*
X54997749Y-72943398D01*
X54759713Y-73067049D01*
X54752141Y-73071689D01*
X54602210Y-73178830D01*
X54593807Y-73189552D01*
X53594000Y-73189552D01*
X53594000Y-72098647D01*
X54593420Y-72098647D01*
X54600810Y-72108949D01*
X54649283Y-72148412D01*
X54656562Y-72153527D01*
X54886360Y-72291877D01*
X54894284Y-72295914D01*
X55141289Y-72400508D01*
X55149694Y-72403386D01*
X55408983Y-72472134D01*
X55417704Y-72473798D01*
X55684098Y-72505328D01*
X55692963Y-72505746D01*
X55961128Y-72499426D01*
X55969988Y-72498589D01*
X56234574Y-72454550D01*
X56243231Y-72452471D01*
X56498980Y-72371589D01*
X56507241Y-72368318D01*
X56749045Y-72252205D01*
X56756770Y-72247799D01*
X56961587Y-72110945D01*
X56969875Y-72101027D01*
X56962618Y-72086848D01*
X55793752Y-70917982D01*
X55779808Y-70910368D01*
X55777975Y-70910499D01*
X55771360Y-70914750D01*
X54600586Y-72085524D01*
X54593420Y-72098647D01*
X53594000Y-72098647D01*
X53594000Y-70856344D01*
X53614002Y-70788223D01*
X53667658Y-70741730D01*
X53737932Y-70731626D01*
X53802512Y-70761120D01*
X53840896Y-70820846D01*
X53843950Y-70833707D01*
X53879713Y-71029527D01*
X53881922Y-71038129D01*
X53966814Y-71292582D01*
X53970218Y-71300800D01*
X54090116Y-71540754D01*
X54094634Y-71548393D01*
X54217019Y-71725471D01*
X54227337Y-71733822D01*
X54240992Y-71726698D01*
X55408918Y-70558772D01*
X55415296Y-70547092D01*
X56145348Y-70547092D01*
X56145479Y-70548925D01*
X56149730Y-70555540D01*
X57321286Y-71727096D01*
X57334686Y-71734413D01*
X57344591Y-71727426D01*
X57365422Y-71702643D01*
X57370642Y-71695458D01*
X57512595Y-71467845D01*
X57516747Y-71460005D01*
X57625215Y-71214654D01*
X57628221Y-71206304D01*
X57701034Y-70948128D01*
X57702835Y-70939435D01*
X57738710Y-70672341D01*
X57739238Y-70665948D01*
X57742908Y-70549182D01*
X57742781Y-70542739D01*
X57738644Y-70484314D01*
X59318438Y-70484314D01*
X59329322Y-70761321D01*
X59379128Y-71034031D01*
X59466862Y-71297003D01*
X59590774Y-71544989D01*
X59748391Y-71773042D01*
X59936568Y-71976612D01*
X59940022Y-71979424D01*
X60148095Y-72148822D01*
X60148099Y-72148825D01*
X60151552Y-72151636D01*
X60389052Y-72294623D01*
X60393147Y-72296357D01*
X60393149Y-72296358D01*
X60639108Y-72400508D01*
X60644329Y-72402719D01*
X60648622Y-72403857D01*
X60648627Y-72403859D01*
X60788402Y-72440919D01*
X60912291Y-72473767D01*
X61187590Y-72506351D01*
X61464734Y-72499820D01*
X61621260Y-72473767D01*
X61733803Y-72455035D01*
X61733807Y-72455034D01*
X61738193Y-72454304D01*
X61742434Y-72452963D01*
X61742437Y-72452962D01*
X61998264Y-72372054D01*
X61998266Y-72372053D01*
X62002510Y-72370711D01*
X62006521Y-72368785D01*
X62006526Y-72368783D01*
X62248393Y-72252640D01*
X62248394Y-72252639D01*
X62252412Y-72250710D01*
X62397244Y-72153937D01*
X62479205Y-72099173D01*
X62479209Y-72099170D01*
X62482913Y-72096695D01*
X62486230Y-72093724D01*
X62486234Y-72093721D01*
X62686095Y-71914710D01*
X62686096Y-71914709D01*
X62689413Y-71911738D01*
X62867792Y-71699530D01*
X63014492Y-71464305D01*
X63053324Y-71376470D01*
X63124784Y-71214828D01*
X63126584Y-71210757D01*
X63201833Y-70943944D01*
X63217380Y-70828197D01*
X63238310Y-70672373D01*
X63238311Y-70672365D01*
X63238737Y-70669191D01*
X63238839Y-70665948D01*
X63242509Y-70549182D01*
X63242509Y-70549177D01*
X63242610Y-70545960D01*
X63223031Y-70269431D01*
X63164684Y-69998420D01*
X63068733Y-69738334D01*
X62937093Y-69494362D01*
X62934452Y-69490787D01*
X62934448Y-69490780D01*
X62775043Y-69274965D01*
X62772390Y-69271373D01*
X62736864Y-69235284D01*
X62593381Y-69089530D01*
X62577911Y-69073815D01*
X62574372Y-69071114D01*
X62574365Y-69071108D01*
X62428064Y-68959455D01*
X62357536Y-68905630D01*
X62303930Y-68875609D01*
X62119553Y-68772353D01*
X62119552Y-68772353D01*
X62115662Y-68770174D01*
X62101580Y-68764726D01*
X61861270Y-68671756D01*
X61861264Y-68671754D01*
X61857115Y-68670149D01*
X61852783Y-68669145D01*
X61852780Y-68669144D01*
X61742445Y-68643570D01*
X61587054Y-68607552D01*
X61310867Y-68583632D01*
X61306432Y-68583876D01*
X61306428Y-68583876D01*
X61193985Y-68590064D01*
X61034065Y-68598865D01*
X61029702Y-68599733D01*
X61029701Y-68599733D01*
X60992324Y-68607168D01*
X60762171Y-68652949D01*
X60640495Y-68695678D01*
X60504816Y-68743324D01*
X60504808Y-68743327D01*
X60500609Y-68744802D01*
X60496656Y-68746855D01*
X60496650Y-68746858D01*
X60357754Y-68819009D01*
X60254600Y-68872594D01*
X60250985Y-68875177D01*
X60250979Y-68875181D01*
X60176521Y-68928390D01*
X60029051Y-69033774D01*
X59828462Y-69225126D01*
X59825706Y-69228622D01*
X59825705Y-69228623D01*
X59696508Y-69392508D01*
X59656836Y-69442832D01*
X59654599Y-69446684D01*
X59519832Y-69678702D01*
X59519829Y-69678708D01*
X59517598Y-69682549D01*
X59413525Y-69939493D01*
X59412454Y-69943806D01*
X59412452Y-69943811D01*
X59366145Y-70130231D01*
X59346694Y-70208537D01*
X59318438Y-70484314D01*
X57738644Y-70484314D01*
X57723750Y-70273951D01*
X57722497Y-70265148D01*
X57666039Y-70002912D01*
X57663560Y-69994379D01*
X57570717Y-69742717D01*
X57567062Y-69734622D01*
X57439686Y-69498553D01*
X57434924Y-69491048D01*
X57343787Y-69367658D01*
X57332662Y-69359218D01*
X57320066Y-69366044D01*
X56152962Y-70533148D01*
X56145348Y-70547092D01*
X55415296Y-70547092D01*
X55416532Y-70544828D01*
X55416401Y-70542995D01*
X55412150Y-70536380D01*
X54241817Y-69366047D01*
X54228977Y-69359036D01*
X54218285Y-69366833D01*
X54160910Y-69439614D01*
X54155915Y-69446963D01*
X54021179Y-69678928D01*
X54017280Y-69686886D01*
X53916575Y-69935514D01*
X53913826Y-69943976D01*
X53849163Y-70204296D01*
X53847634Y-70213057D01*
X53845344Y-70235404D01*
X53818503Y-70301131D01*
X53760387Y-70341913D01*
X53689450Y-70344801D01*
X53628211Y-70308879D01*
X53596115Y-70245552D01*
X53594000Y-70222561D01*
X53594000Y-68993472D01*
X54593807Y-68993472D01*
X54600787Y-69006597D01*
X55768128Y-70173938D01*
X55782072Y-70181552D01*
X55783905Y-70181421D01*
X55790520Y-70177170D01*
X56960755Y-69006935D01*
X56967609Y-68994383D01*
X56959402Y-68983313D01*
X56861702Y-68908750D01*
X56854277Y-68903873D01*
X56620238Y-68772805D01*
X56612185Y-68769016D01*
X56362022Y-68672235D01*
X56353532Y-68669623D01*
X56092214Y-68609053D01*
X56083436Y-68607663D01*
X55816191Y-68584517D01*
X55807320Y-68584377D01*
X55539471Y-68599118D01*
X55530661Y-68600232D01*
X55267575Y-68652562D01*
X55259000Y-68654908D01*
X55005916Y-68743784D01*
X54997749Y-68747318D01*
X54759713Y-68870969D01*
X54752141Y-68875609D01*
X54602210Y-68982750D01*
X54593807Y-68993472D01*
X53594000Y-68993472D01*
X53594000Y-67897487D01*
X54593420Y-67897487D01*
X54600810Y-67907789D01*
X54649283Y-67947252D01*
X54656562Y-67952367D01*
X54886360Y-68090717D01*
X54894284Y-68094754D01*
X55141289Y-68199348D01*
X55149694Y-68202226D01*
X55408983Y-68270974D01*
X55417704Y-68272638D01*
X55684098Y-68304168D01*
X55692963Y-68304586D01*
X55961128Y-68298266D01*
X55969988Y-68297429D01*
X56234574Y-68253390D01*
X56243231Y-68251311D01*
X56498980Y-68170429D01*
X56507241Y-68167158D01*
X56749045Y-68051045D01*
X56756770Y-68046639D01*
X56961587Y-67909785D01*
X56969875Y-67899867D01*
X56968657Y-67897487D01*
X60092520Y-67897487D01*
X60099910Y-67907789D01*
X60148383Y-67947252D01*
X60155662Y-67952367D01*
X60385460Y-68090717D01*
X60393384Y-68094754D01*
X60640389Y-68199348D01*
X60648794Y-68202226D01*
X60908083Y-68270974D01*
X60916804Y-68272638D01*
X61183198Y-68304168D01*
X61192063Y-68304586D01*
X61460228Y-68298266D01*
X61469088Y-68297429D01*
X61733674Y-68253390D01*
X61742331Y-68251311D01*
X61998080Y-68170429D01*
X62006341Y-68167158D01*
X62248145Y-68051045D01*
X62255870Y-68046639D01*
X62460687Y-67909785D01*
X62468975Y-67899867D01*
X62461718Y-67885688D01*
X61292852Y-66716822D01*
X61278908Y-66709208D01*
X61277075Y-66709339D01*
X61270460Y-66713590D01*
X60099686Y-67884364D01*
X60092520Y-67897487D01*
X56968657Y-67897487D01*
X56962618Y-67885688D01*
X55793752Y-66716822D01*
X55779808Y-66709208D01*
X55777975Y-66709339D01*
X55771360Y-66713590D01*
X54600586Y-67884364D01*
X54593420Y-67897487D01*
X53594000Y-67897487D01*
X53594000Y-67437000D01*
X53592214Y-67437000D01*
X53590500Y-67425080D01*
X53590500Y-66636020D01*
X53610502Y-66567899D01*
X53664158Y-66521406D01*
X53734432Y-66511302D01*
X53799012Y-66540796D01*
X53837396Y-66600522D01*
X53840450Y-66613383D01*
X53879713Y-66828367D01*
X53881922Y-66836969D01*
X53966814Y-67091422D01*
X53970218Y-67099640D01*
X54090116Y-67339594D01*
X54094634Y-67347233D01*
X54217019Y-67524311D01*
X54227337Y-67532662D01*
X54240992Y-67525538D01*
X55408918Y-66357612D01*
X55415296Y-66345932D01*
X56145348Y-66345932D01*
X56145479Y-66347765D01*
X56149730Y-66354380D01*
X57321286Y-67525936D01*
X57334686Y-67533253D01*
X57344591Y-67526266D01*
X57365422Y-67501483D01*
X57370642Y-67494298D01*
X57512595Y-67266685D01*
X57516747Y-67258845D01*
X57625215Y-67013494D01*
X57628221Y-67005144D01*
X57701034Y-66746968D01*
X57702835Y-66738275D01*
X57738710Y-66471181D01*
X57739238Y-66464788D01*
X57742908Y-66348022D01*
X57742781Y-66341579D01*
X57723750Y-66072791D01*
X57722497Y-66063988D01*
X57666039Y-65801752D01*
X57663560Y-65793219D01*
X57570717Y-65541557D01*
X57567062Y-65533462D01*
X57439686Y-65297393D01*
X57434924Y-65289888D01*
X57343787Y-65166498D01*
X57332662Y-65158058D01*
X57320066Y-65164884D01*
X56152962Y-66331988D01*
X56145348Y-66345932D01*
X55415296Y-66345932D01*
X55416532Y-66343668D01*
X55416401Y-66341835D01*
X55412150Y-66335220D01*
X54241817Y-65164887D01*
X54228977Y-65157876D01*
X54218285Y-65165673D01*
X54160910Y-65238454D01*
X54155915Y-65245803D01*
X54021179Y-65477768D01*
X54017280Y-65485726D01*
X53916575Y-65734354D01*
X53913826Y-65742816D01*
X53849163Y-66003136D01*
X53847634Y-66011897D01*
X53841844Y-66068404D01*
X53815003Y-66134131D01*
X53756888Y-66174913D01*
X53685950Y-66177801D01*
X53624711Y-66141879D01*
X53592615Y-66078552D01*
X53590500Y-66055561D01*
X53590500Y-65040090D01*
X53592230Y-65024000D01*
X53594000Y-65024000D01*
X53594000Y-64792312D01*
X54593807Y-64792312D01*
X54600787Y-64805437D01*
X55768128Y-65972778D01*
X55782072Y-65980392D01*
X55783905Y-65980261D01*
X55790520Y-65976010D01*
X56960755Y-64805775D01*
X56967609Y-64793223D01*
X56959402Y-64782153D01*
X56861702Y-64707590D01*
X56854277Y-64702713D01*
X56620238Y-64571645D01*
X56612185Y-64567856D01*
X56362022Y-64471075D01*
X56353532Y-64468463D01*
X56092214Y-64407893D01*
X56083436Y-64406503D01*
X55816191Y-64383357D01*
X55807320Y-64383217D01*
X55539471Y-64397958D01*
X55530661Y-64399072D01*
X55267575Y-64451402D01*
X55259000Y-64453748D01*
X55005916Y-64542624D01*
X54997749Y-64546158D01*
X54759713Y-64669809D01*
X54752141Y-64674449D01*
X54602210Y-64781590D01*
X54593807Y-64792312D01*
X53594000Y-64792312D01*
X53594000Y-62459345D01*
X53614002Y-62391224D01*
X53667658Y-62344731D01*
X53737932Y-62334627D01*
X53802512Y-62364121D01*
X53840896Y-62423847D01*
X53843950Y-62436708D01*
X53880028Y-62634251D01*
X53967762Y-62897223D01*
X54091674Y-63145209D01*
X54249291Y-63373262D01*
X54252313Y-63376531D01*
X54426153Y-63564591D01*
X54437468Y-63576832D01*
X54440922Y-63579644D01*
X54648995Y-63749042D01*
X54648999Y-63749045D01*
X54652452Y-63751856D01*
X54889952Y-63894843D01*
X54894047Y-63896577D01*
X54894049Y-63896578D01*
X55107345Y-63986897D01*
X55145229Y-64002939D01*
X55149522Y-64004077D01*
X55149527Y-64004079D01*
X55289302Y-64041139D01*
X55413191Y-64073987D01*
X55688490Y-64106571D01*
X55965634Y-64100040D01*
X56122160Y-64073987D01*
X56234703Y-64055255D01*
X56234707Y-64055254D01*
X56239093Y-64054524D01*
X56243334Y-64053183D01*
X56243337Y-64053182D01*
X56452927Y-63986897D01*
X56523909Y-63985427D01*
X56580016Y-64017937D01*
X57312990Y-64750911D01*
X57325376Y-64765323D01*
X57333909Y-64776918D01*
X57333914Y-64776923D01*
X57338252Y-64782818D01*
X57343830Y-64787557D01*
X57343833Y-64787560D01*
X57378528Y-64817035D01*
X57386044Y-64823965D01*
X57391739Y-64829660D01*
X57394621Y-64831940D01*
X57414011Y-64847281D01*
X57417415Y-64850072D01*
X57467463Y-64892591D01*
X57473045Y-64897333D01*
X57479561Y-64900661D01*
X57484610Y-64904028D01*
X57489739Y-64907195D01*
X57495476Y-64911734D01*
X57561635Y-64942655D01*
X57565529Y-64944558D01*
X57630568Y-64977769D01*
X57637676Y-64979508D01*
X57643319Y-64981607D01*
X57649082Y-64983524D01*
X57655710Y-64986622D01*
X57662872Y-64988112D01*
X57662873Y-64988112D01*
X57727172Y-65001486D01*
X57731456Y-65002456D01*
X57802370Y-65019808D01*
X57807972Y-65020156D01*
X57807975Y-65020156D01*
X57813524Y-65020500D01*
X57813522Y-65020536D01*
X57817515Y-65020775D01*
X57821707Y-65021149D01*
X57828875Y-65022640D01*
X57906280Y-65020546D01*
X57909688Y-65020500D01*
X59572056Y-65020500D01*
X59640177Y-65040502D01*
X59686670Y-65094158D01*
X59696774Y-65164432D01*
X59671006Y-65224506D01*
X59660006Y-65238459D01*
X59655017Y-65245801D01*
X59520279Y-65477768D01*
X59516380Y-65485726D01*
X59415675Y-65734354D01*
X59412926Y-65742816D01*
X59348263Y-66003136D01*
X59346734Y-66011897D01*
X59319393Y-66278739D01*
X59319114Y-66287622D01*
X59329645Y-66555657D01*
X59330620Y-66564486D01*
X59378813Y-66828367D01*
X59381022Y-66836969D01*
X59465914Y-67091422D01*
X59469318Y-67099640D01*
X59589216Y-67339594D01*
X59593734Y-67347233D01*
X59716119Y-67524311D01*
X59726437Y-67532662D01*
X59740092Y-67525538D01*
X61190945Y-66074685D01*
X61253257Y-66040659D01*
X61324072Y-66045724D01*
X61369135Y-66074685D01*
X62820386Y-67525936D01*
X62833786Y-67533253D01*
X62843691Y-67526266D01*
X62864522Y-67501483D01*
X62869742Y-67494298D01*
X63011695Y-67266685D01*
X63015847Y-67258845D01*
X63124315Y-67013494D01*
X63127321Y-67005144D01*
X63200134Y-66746968D01*
X63201935Y-66738275D01*
X63237810Y-66471181D01*
X63238338Y-66464788D01*
X63240642Y-66391492D01*
X63262775Y-66324033D01*
X63317865Y-66279249D01*
X63388421Y-66271358D01*
X63455675Y-66306356D01*
X63466595Y-66317276D01*
X63500621Y-66379588D01*
X63503500Y-66406371D01*
X63503500Y-102313980D01*
X63502067Y-102332930D01*
X63498801Y-102354399D01*
X63499394Y-102361691D01*
X63499394Y-102361694D01*
X63503085Y-102407068D01*
X63503500Y-102417283D01*
X63503500Y-102425343D01*
X63503925Y-102428987D01*
X63506789Y-102453557D01*
X63507222Y-102457932D01*
X63509458Y-102485414D01*
X63513140Y-102530687D01*
X63515396Y-102537651D01*
X63516587Y-102543610D01*
X63517971Y-102549465D01*
X63518818Y-102556731D01*
X63543735Y-102625377D01*
X63545152Y-102629505D01*
X63560766Y-102677701D01*
X63567649Y-102698949D01*
X63571445Y-102705204D01*
X63573951Y-102710678D01*
X63576670Y-102716108D01*
X63579167Y-102722987D01*
X63583180Y-102729107D01*
X63583180Y-102729108D01*
X63619186Y-102784026D01*
X63621523Y-102787730D01*
X63659405Y-102850157D01*
X63663121Y-102854365D01*
X63663122Y-102854366D01*
X63666803Y-102858534D01*
X63666776Y-102858558D01*
X63669429Y-102861550D01*
X63672132Y-102864783D01*
X63676144Y-102870902D01*
X63732383Y-102924178D01*
X63734825Y-102926556D01*
X68230175Y-107421906D01*
X68264201Y-107484218D01*
X68267080Y-107511001D01*
X68267080Y-108974764D01*
X68273835Y-109036946D01*
X68324965Y-109173335D01*
X68412319Y-109289891D01*
X68528875Y-109377245D01*
X68665264Y-109428375D01*
X68727446Y-109435130D01*
X70855714Y-109435130D01*
X70917896Y-109428375D01*
X71054285Y-109377245D01*
X71170841Y-109289891D01*
X71258195Y-109173335D01*
X71309325Y-109036946D01*
X71316080Y-108974764D01*
X71316080Y-106846496D01*
X71309325Y-106784314D01*
X71258195Y-106647925D01*
X71170841Y-106531369D01*
X71054285Y-106444015D01*
X70917896Y-106392885D01*
X70855714Y-106386130D01*
X69391951Y-106386130D01*
X69323830Y-106366128D01*
X69302856Y-106349225D01*
X67109847Y-104156216D01*
X68912104Y-104156216D01*
X68917831Y-104163866D01*
X69093339Y-104271417D01*
X69102133Y-104275898D01*
X69314609Y-104363908D01*
X69323994Y-104366957D01*
X69547624Y-104420647D01*
X69557371Y-104422190D01*
X69786650Y-104440235D01*
X69796510Y-104440235D01*
X70025789Y-104422190D01*
X70035536Y-104420647D01*
X70259166Y-104366957D01*
X70268551Y-104363908D01*
X70481027Y-104275898D01*
X70489821Y-104271417D01*
X70661663Y-104166113D01*
X70671123Y-104155657D01*
X70667339Y-104146879D01*
X69804392Y-103283932D01*
X69790448Y-103276318D01*
X69788615Y-103276449D01*
X69782000Y-103280700D01*
X68918864Y-104143836D01*
X68912104Y-104156216D01*
X67109847Y-104156216D01*
X65870471Y-102916840D01*
X68263255Y-102916840D01*
X68281300Y-103146119D01*
X68282843Y-103155866D01*
X68336533Y-103379496D01*
X68339582Y-103388881D01*
X68427592Y-103601357D01*
X68432073Y-103610151D01*
X68537377Y-103781993D01*
X68547833Y-103791453D01*
X68556611Y-103787669D01*
X69419558Y-102924722D01*
X69425936Y-102913042D01*
X70155988Y-102913042D01*
X70156119Y-102914875D01*
X70160370Y-102921490D01*
X71023506Y-103784626D01*
X71035886Y-103791386D01*
X71043536Y-103785659D01*
X71151087Y-103610151D01*
X71155568Y-103601357D01*
X71243578Y-103388881D01*
X71246627Y-103379496D01*
X71300317Y-103155866D01*
X71301860Y-103146119D01*
X71319905Y-102916840D01*
X71319905Y-102906980D01*
X71301860Y-102677701D01*
X71300317Y-102667954D01*
X71246627Y-102444324D01*
X71243578Y-102434939D01*
X71155568Y-102222463D01*
X71151087Y-102213669D01*
X71045783Y-102041827D01*
X71035327Y-102032367D01*
X71026549Y-102036151D01*
X70163602Y-102899098D01*
X70155988Y-102913042D01*
X69425936Y-102913042D01*
X69427172Y-102910778D01*
X69427041Y-102908945D01*
X69422790Y-102902330D01*
X68559654Y-102039194D01*
X68547274Y-102032434D01*
X68539624Y-102038161D01*
X68432073Y-102213669D01*
X68427592Y-102222463D01*
X68339582Y-102434939D01*
X68336533Y-102444324D01*
X68282843Y-102667954D01*
X68281300Y-102677701D01*
X68263255Y-102906980D01*
X68263255Y-102916840D01*
X65870471Y-102916840D01*
X65057405Y-102103774D01*
X65023379Y-102041462D01*
X65020500Y-102014679D01*
X65020500Y-101668163D01*
X68912037Y-101668163D01*
X68915821Y-101676941D01*
X69778768Y-102539888D01*
X69792712Y-102547502D01*
X69794545Y-102547371D01*
X69801160Y-102543120D01*
X70664296Y-101679984D01*
X70671056Y-101667604D01*
X70665329Y-101659954D01*
X70489821Y-101552403D01*
X70481027Y-101547922D01*
X70268551Y-101459912D01*
X70259166Y-101456863D01*
X70035536Y-101403173D01*
X70025789Y-101401630D01*
X69796510Y-101383585D01*
X69786650Y-101383585D01*
X69557371Y-101401630D01*
X69547624Y-101403173D01*
X69323994Y-101456863D01*
X69314609Y-101459912D01*
X69102133Y-101547922D01*
X69093339Y-101552403D01*
X68921497Y-101657707D01*
X68912037Y-101668163D01*
X65020500Y-101668163D01*
X65020500Y-95672498D01*
X66567952Y-95672498D01*
X66568105Y-95676886D01*
X66568105Y-95676892D01*
X66570445Y-95743892D01*
X66577755Y-95953204D01*
X66626529Y-96229815D01*
X66627884Y-96233986D01*
X66627886Y-96233993D01*
X66699803Y-96455330D01*
X66713325Y-96496946D01*
X66836454Y-96749397D01*
X66993518Y-96982255D01*
X66996462Y-96985524D01*
X66996463Y-96985526D01*
X67168168Y-97176224D01*
X67181462Y-97190988D01*
X67396627Y-97371533D01*
X67634825Y-97520375D01*
X67891420Y-97634619D01*
X67895648Y-97635831D01*
X67895647Y-97635831D01*
X68130055Y-97703046D01*
X68161417Y-97712039D01*
X68165767Y-97712650D01*
X68165770Y-97712651D01*
X68267800Y-97726990D01*
X68439561Y-97751130D01*
X68650131Y-97751130D01*
X68652317Y-97750977D01*
X68652321Y-97750977D01*
X68855809Y-97736748D01*
X68855814Y-97736747D01*
X68860194Y-97736441D01*
X68864488Y-97735528D01*
X68864490Y-97735528D01*
X68980698Y-97710827D01*
X69134934Y-97678043D01*
X69139065Y-97676539D01*
X69139070Y-97676538D01*
X69284104Y-97623749D01*
X69398872Y-97581977D01*
X69492341Y-97532279D01*
X69642981Y-97452183D01*
X69642987Y-97452179D01*
X69646873Y-97450113D01*
X69650433Y-97447526D01*
X69650437Y-97447524D01*
X69870545Y-97287606D01*
X69870548Y-97287604D01*
X69874108Y-97285017D01*
X69877275Y-97281959D01*
X70072989Y-97092960D01*
X70072993Y-97092955D01*
X70076154Y-97089903D01*
X70249080Y-96868569D01*
X70286278Y-96804140D01*
X70387314Y-96629141D01*
X70387317Y-96629136D01*
X70389519Y-96625321D01*
X70391169Y-96621237D01*
X70391172Y-96621231D01*
X70493088Y-96368978D01*
X70493089Y-96368975D01*
X70494737Y-96364896D01*
X70562688Y-96092361D01*
X70576798Y-95958121D01*
X70591589Y-95817391D01*
X70591589Y-95817388D01*
X70592048Y-95813022D01*
X70589595Y-95742760D01*
X70582399Y-95536714D01*
X70582398Y-95536708D01*
X70582245Y-95532316D01*
X70533471Y-95255705D01*
X70532116Y-95251534D01*
X70532114Y-95251527D01*
X70448036Y-94992763D01*
X70446675Y-94988574D01*
X70420611Y-94935134D01*
X70382199Y-94856379D01*
X70323546Y-94736123D01*
X70166482Y-94503265D01*
X69978538Y-94294532D01*
X69763373Y-94113987D01*
X69525175Y-93965145D01*
X69345702Y-93885238D01*
X69272594Y-93852688D01*
X69272592Y-93852687D01*
X69268580Y-93850901D01*
X69025422Y-93781177D01*
X69002810Y-93774693D01*
X69002809Y-93774693D01*
X68998583Y-93773481D01*
X68994233Y-93772870D01*
X68994230Y-93772869D01*
X68892200Y-93758530D01*
X68720439Y-93734390D01*
X68509869Y-93734390D01*
X68507683Y-93734543D01*
X68507679Y-93734543D01*
X68304191Y-93748772D01*
X68304186Y-93748773D01*
X68299806Y-93749079D01*
X68295512Y-93749992D01*
X68295510Y-93749992D01*
X68187883Y-93772869D01*
X68025066Y-93807477D01*
X68020935Y-93808981D01*
X68020930Y-93808982D01*
X67911307Y-93848882D01*
X67761128Y-93903543D01*
X67757241Y-93905610D01*
X67517019Y-94033337D01*
X67517013Y-94033341D01*
X67513127Y-94035407D01*
X67509567Y-94037994D01*
X67509563Y-94037996D01*
X67289455Y-94197914D01*
X67285892Y-94200503D01*
X67282728Y-94203559D01*
X67282725Y-94203561D01*
X67087011Y-94392560D01*
X67087007Y-94392565D01*
X67083846Y-94395617D01*
X66910920Y-94616951D01*
X66908717Y-94620767D01*
X66844221Y-94732478D01*
X66770481Y-94860199D01*
X66768831Y-94864283D01*
X66768828Y-94864289D01*
X66718614Y-94988574D01*
X66665263Y-95120624D01*
X66664198Y-95124893D01*
X66664198Y-95124895D01*
X66647705Y-95191046D01*
X66597312Y-95393159D01*
X66596853Y-95397529D01*
X66596852Y-95397533D01*
X66568411Y-95668129D01*
X66567952Y-95672498D01*
X65020500Y-95672498D01*
X65020500Y-66107070D01*
X65021933Y-66088120D01*
X65024099Y-66073885D01*
X65024099Y-66073881D01*
X65025199Y-66066651D01*
X65020915Y-66013982D01*
X65020500Y-66003767D01*
X65020500Y-65995707D01*
X65017209Y-65967480D01*
X65016778Y-65963121D01*
X65011453Y-65897660D01*
X65010860Y-65890364D01*
X65008605Y-65883403D01*
X65007418Y-65877463D01*
X65006029Y-65871588D01*
X65005182Y-65864319D01*
X64980264Y-65795670D01*
X64978847Y-65791542D01*
X64958607Y-65729064D01*
X64958606Y-65729062D01*
X64956351Y-65722101D01*
X64952555Y-65715846D01*
X64950049Y-65710372D01*
X64947330Y-65704942D01*
X64944833Y-65698063D01*
X64904814Y-65637024D01*
X64902467Y-65633305D01*
X64864595Y-65570893D01*
X64857197Y-65562516D01*
X64857224Y-65562492D01*
X64854571Y-65559500D01*
X64851868Y-65556267D01*
X64847856Y-65550148D01*
X64791617Y-65496872D01*
X64789175Y-65494494D01*
X63067770Y-63773089D01*
X63055384Y-63758677D01*
X63046851Y-63747082D01*
X63046846Y-63747077D01*
X63042508Y-63741182D01*
X63036930Y-63736443D01*
X63036927Y-63736440D01*
X63002232Y-63706965D01*
X62994716Y-63700035D01*
X62989021Y-63694340D01*
X62982880Y-63689482D01*
X62966749Y-63676719D01*
X62963345Y-63673928D01*
X62913297Y-63631409D01*
X62913295Y-63631408D01*
X62907715Y-63626667D01*
X62901199Y-63623339D01*
X62896150Y-63619972D01*
X62891020Y-63616804D01*
X62885284Y-63612266D01*
X62832884Y-63587776D01*
X62779640Y-63540812D01*
X62760239Y-63472518D01*
X62780840Y-63404576D01*
X62789783Y-63392553D01*
X62803302Y-63376470D01*
X62867792Y-63299750D01*
X63014492Y-63064525D01*
X63126584Y-62810977D01*
X63201833Y-62544164D01*
X63217994Y-62423847D01*
X63238310Y-62272593D01*
X63238311Y-62272585D01*
X63238737Y-62269411D01*
X63242610Y-62146180D01*
X63223031Y-61869651D01*
X63164684Y-61598640D01*
X63068733Y-61338554D01*
X62937093Y-61094582D01*
X62934452Y-61091007D01*
X62934448Y-61091000D01*
X62775043Y-60875185D01*
X62772390Y-60871593D01*
X62740906Y-60839610D01*
X62581042Y-60677216D01*
X62577911Y-60674035D01*
X62574372Y-60671334D01*
X62574365Y-60671328D01*
X62361076Y-60508552D01*
X62357536Y-60505850D01*
X62353647Y-60503672D01*
X62119553Y-60372573D01*
X62119552Y-60372573D01*
X62115662Y-60370394D01*
X62107663Y-60367300D01*
X61861270Y-60271976D01*
X61861264Y-60271974D01*
X61857115Y-60270369D01*
X61852783Y-60269365D01*
X61852780Y-60269364D01*
X61742445Y-60243790D01*
X61587054Y-60207772D01*
X61310867Y-60183852D01*
X61306432Y-60184096D01*
X61306428Y-60184096D01*
X61193985Y-60190284D01*
X61034065Y-60199085D01*
X60762171Y-60253169D01*
X60640495Y-60295898D01*
X60504816Y-60343544D01*
X60504808Y-60343547D01*
X60500609Y-60345022D01*
X60496656Y-60347075D01*
X60496650Y-60347078D01*
X60447571Y-60372573D01*
X60254600Y-60472814D01*
X60250985Y-60475397D01*
X60250979Y-60475401D01*
X60116353Y-60571607D01*
X60029051Y-60633994D01*
X60025831Y-60637066D01*
X59862135Y-60793224D01*
X59828462Y-60825346D01*
X59825706Y-60828842D01*
X59825705Y-60828843D01*
X59766597Y-60903821D01*
X59656836Y-61043052D01*
X59654599Y-61046904D01*
X59519832Y-61278922D01*
X59519829Y-61278928D01*
X59517598Y-61282769D01*
X59413525Y-61539713D01*
X59412454Y-61544026D01*
X59412452Y-61544031D01*
X59366145Y-61730451D01*
X59346694Y-61808757D01*
X59318438Y-62084534D01*
X59318613Y-62088986D01*
X59328662Y-62344731D01*
X59329322Y-62361541D01*
X59379128Y-62634251D01*
X59466862Y-62897223D01*
X59590774Y-63145209D01*
X59593303Y-63148868D01*
X59701807Y-63305861D01*
X59724083Y-63373273D01*
X59706378Y-63442026D01*
X59654312Y-63490293D01*
X59598154Y-63503500D01*
X58263131Y-63503500D01*
X58195010Y-63483498D01*
X58174036Y-63466595D01*
X57654908Y-62947467D01*
X57620882Y-62885155D01*
X57625452Y-62815692D01*
X57625684Y-62815048D01*
X57627484Y-62810977D01*
X57702733Y-62544164D01*
X57718894Y-62423847D01*
X57739210Y-62272593D01*
X57739211Y-62272585D01*
X57739637Y-62269411D01*
X57743510Y-62146180D01*
X57723931Y-61869651D01*
X57665584Y-61598640D01*
X57569633Y-61338554D01*
X57437993Y-61094582D01*
X57358518Y-60986982D01*
X57346344Y-60970499D01*
X57321961Y-60903821D01*
X57337498Y-60834545D01*
X57366232Y-60801869D01*
X57365107Y-60800595D01*
X57373484Y-60793197D01*
X57373508Y-60793224D01*
X57376500Y-60790571D01*
X57379733Y-60787868D01*
X57385852Y-60783856D01*
X57439128Y-60727617D01*
X57441506Y-60725175D01*
X58668974Y-59497707D01*
X60092520Y-59497707D01*
X60099910Y-59508009D01*
X60148383Y-59547472D01*
X60155662Y-59552587D01*
X60385460Y-59690937D01*
X60393384Y-59694974D01*
X60640389Y-59799568D01*
X60648794Y-59802446D01*
X60908083Y-59871194D01*
X60916804Y-59872858D01*
X61183198Y-59904388D01*
X61192063Y-59904806D01*
X61460228Y-59898486D01*
X61469088Y-59897649D01*
X61733674Y-59853610D01*
X61742331Y-59851531D01*
X61998080Y-59770649D01*
X62006341Y-59767378D01*
X62248145Y-59651265D01*
X62255870Y-59646859D01*
X62460687Y-59510005D01*
X62468975Y-59500087D01*
X62461718Y-59485908D01*
X61292852Y-58317042D01*
X61278908Y-58309428D01*
X61277075Y-58309559D01*
X61270460Y-58313810D01*
X60099686Y-59484584D01*
X60092520Y-59497707D01*
X58668974Y-59497707D01*
X58908911Y-59257770D01*
X58923323Y-59245384D01*
X58934918Y-59236851D01*
X58934923Y-59236846D01*
X58940818Y-59232508D01*
X58945557Y-59226930D01*
X58945560Y-59226927D01*
X58975035Y-59192232D01*
X58981965Y-59184716D01*
X58987660Y-59179021D01*
X59005281Y-59156749D01*
X59008072Y-59153345D01*
X59050591Y-59103297D01*
X59050592Y-59103295D01*
X59055333Y-59097715D01*
X59058661Y-59091199D01*
X59062020Y-59086162D01*
X59065194Y-59081023D01*
X59069734Y-59075284D01*
X59100636Y-59009163D01*
X59102569Y-59005209D01*
X59132061Y-58947453D01*
X59135769Y-58940192D01*
X59137510Y-58933076D01*
X59139604Y-58927446D01*
X59141523Y-58921679D01*
X59144621Y-58915050D01*
X59159483Y-58843600D01*
X59160453Y-58839315D01*
X59176473Y-58773844D01*
X59177808Y-58768390D01*
X59178500Y-58757236D01*
X59178536Y-58757238D01*
X59178775Y-58753248D01*
X59179150Y-58749050D01*
X59180640Y-58741885D01*
X59178546Y-58664479D01*
X59178500Y-58661072D01*
X59178500Y-58605959D01*
X59198502Y-58537838D01*
X59252158Y-58491345D01*
X59322432Y-58481241D01*
X59387012Y-58510735D01*
X59424024Y-58566083D01*
X59465914Y-58691642D01*
X59469318Y-58699860D01*
X59589216Y-58939814D01*
X59593734Y-58947453D01*
X59716119Y-59124531D01*
X59726437Y-59132882D01*
X59740092Y-59125758D01*
X60908018Y-57957832D01*
X60914396Y-57946152D01*
X61644448Y-57946152D01*
X61644579Y-57947985D01*
X61648830Y-57954600D01*
X62820386Y-59126156D01*
X62833786Y-59133473D01*
X62843691Y-59126486D01*
X62864522Y-59101703D01*
X62869742Y-59094518D01*
X63011695Y-58866905D01*
X63015847Y-58859065D01*
X63124315Y-58613714D01*
X63127321Y-58605364D01*
X63200134Y-58347188D01*
X63201935Y-58338495D01*
X63237810Y-58071401D01*
X63238338Y-58065008D01*
X63242008Y-57948242D01*
X63241881Y-57941799D01*
X63222850Y-57673011D01*
X63221597Y-57664208D01*
X63165139Y-57401972D01*
X63162660Y-57393439D01*
X63069817Y-57141777D01*
X63066162Y-57133682D01*
X62938786Y-56897613D01*
X62934024Y-56890108D01*
X62842887Y-56766718D01*
X62831762Y-56758278D01*
X62819166Y-56765104D01*
X61652062Y-57932208D01*
X61644448Y-57946152D01*
X60914396Y-57946152D01*
X60915632Y-57943888D01*
X60915501Y-57942055D01*
X60911250Y-57935440D01*
X59740917Y-56765107D01*
X59728077Y-56758096D01*
X59717385Y-56765893D01*
X59660010Y-56838674D01*
X59655015Y-56846023D01*
X59520279Y-57077988D01*
X59516380Y-57085946D01*
X59421284Y-57320726D01*
X59377171Y-57376355D01*
X59309986Y-57399304D01*
X59241059Y-57382286D01*
X59192274Y-57330706D01*
X59178500Y-57273423D01*
X59178500Y-56452523D01*
X59179933Y-56433574D01*
X59182097Y-56419346D01*
X59183198Y-56412111D01*
X59181606Y-56392532D01*
X60092907Y-56392532D01*
X60099887Y-56405657D01*
X61267228Y-57572998D01*
X61281172Y-57580612D01*
X61283005Y-57580481D01*
X61289620Y-57576230D01*
X62459855Y-56405995D01*
X62466709Y-56393443D01*
X62458502Y-56382373D01*
X62360802Y-56307810D01*
X62353377Y-56302933D01*
X62119338Y-56171865D01*
X62111285Y-56168076D01*
X61861122Y-56071295D01*
X61852632Y-56068683D01*
X61591314Y-56008113D01*
X61582536Y-56006723D01*
X61315291Y-55983577D01*
X61306420Y-55983437D01*
X61038571Y-55998178D01*
X61029761Y-55999292D01*
X60766675Y-56051622D01*
X60758100Y-56053968D01*
X60505016Y-56142844D01*
X60496849Y-56146378D01*
X60258813Y-56270029D01*
X60251241Y-56274669D01*
X60101310Y-56381810D01*
X60092907Y-56392532D01*
X59181606Y-56392532D01*
X59178915Y-56359450D01*
X59178500Y-56349237D01*
X59178500Y-56341167D01*
X59178078Y-56337547D01*
X59178077Y-56337529D01*
X59175208Y-56312921D01*
X59174775Y-56308546D01*
X59174319Y-56302933D01*
X59168860Y-56235823D01*
X59166604Y-56228859D01*
X59165413Y-56222900D01*
X59164029Y-56217045D01*
X59163182Y-56209779D01*
X59138265Y-56141133D01*
X59136848Y-56137005D01*
X59116607Y-56074524D01*
X59116606Y-56074522D01*
X59114351Y-56067561D01*
X59110555Y-56061306D01*
X59108049Y-56055832D01*
X59105330Y-56050402D01*
X59102833Y-56043523D01*
X59062809Y-55982476D01*
X59060472Y-55978772D01*
X59025509Y-55921153D01*
X59025505Y-55921148D01*
X59022595Y-55916352D01*
X59015197Y-55907976D01*
X59015223Y-55907953D01*
X59012574Y-55904963D01*
X59009866Y-55901724D01*
X59005856Y-55895608D01*
X59000549Y-55890581D01*
X59000546Y-55890577D01*
X58949617Y-55842332D01*
X58947175Y-55839954D01*
X57654908Y-54547687D01*
X57620882Y-54485375D01*
X57625452Y-54415912D01*
X57625684Y-54415268D01*
X57627484Y-54411197D01*
X57702733Y-54144384D01*
X57718894Y-54024067D01*
X57739210Y-53872813D01*
X57739211Y-53872805D01*
X57739637Y-53869631D01*
X57743510Y-53746400D01*
X57739145Y-53684754D01*
X59318438Y-53684754D01*
X59318613Y-53689206D01*
X59328662Y-53944951D01*
X59329322Y-53961761D01*
X59379128Y-54234471D01*
X59466862Y-54497443D01*
X59590774Y-54745429D01*
X59748391Y-54973482D01*
X59936568Y-55177052D01*
X59940022Y-55179864D01*
X60148095Y-55349262D01*
X60148099Y-55349265D01*
X60151552Y-55352076D01*
X60389052Y-55495063D01*
X60393147Y-55496797D01*
X60393149Y-55496798D01*
X60606445Y-55587117D01*
X60644329Y-55603159D01*
X60648622Y-55604297D01*
X60648627Y-55604299D01*
X60788402Y-55641359D01*
X60912291Y-55674207D01*
X61187590Y-55706791D01*
X61464734Y-55700260D01*
X61621260Y-55674207D01*
X61733803Y-55655475D01*
X61733807Y-55655474D01*
X61738193Y-55654744D01*
X61742434Y-55653403D01*
X61742437Y-55653402D01*
X61998264Y-55572494D01*
X61998266Y-55572493D01*
X62002510Y-55571151D01*
X62006521Y-55569225D01*
X62006526Y-55569223D01*
X62248393Y-55453080D01*
X62248394Y-55453079D01*
X62252412Y-55451150D01*
X62310855Y-55412100D01*
X62479205Y-55299613D01*
X62479209Y-55299610D01*
X62482913Y-55297135D01*
X62486230Y-55294164D01*
X62486234Y-55294161D01*
X62686095Y-55115150D01*
X62686096Y-55115149D01*
X62689413Y-55112178D01*
X62867792Y-54899970D01*
X63014492Y-54664745D01*
X63126584Y-54411197D01*
X63201833Y-54144384D01*
X63217994Y-54024067D01*
X63238310Y-53872813D01*
X63238311Y-53872805D01*
X63238737Y-53869631D01*
X63242610Y-53746400D01*
X63223031Y-53469871D01*
X63164684Y-53198860D01*
X63068733Y-52938774D01*
X62937093Y-52694802D01*
X62934452Y-52691227D01*
X62934448Y-52691220D01*
X62775043Y-52475405D01*
X62772390Y-52471813D01*
X62730307Y-52429063D01*
X62581042Y-52277436D01*
X62577911Y-52274255D01*
X62574372Y-52271554D01*
X62574365Y-52271548D01*
X62361076Y-52108772D01*
X62357536Y-52106070D01*
X62353647Y-52103892D01*
X62119553Y-51972793D01*
X62119552Y-51972793D01*
X62115662Y-51970614D01*
X62107663Y-51967520D01*
X61861270Y-51872196D01*
X61861264Y-51872194D01*
X61857115Y-51870589D01*
X61852783Y-51869585D01*
X61852780Y-51869584D01*
X61742445Y-51844010D01*
X61587054Y-51807992D01*
X61310867Y-51784072D01*
X61306432Y-51784316D01*
X61306428Y-51784316D01*
X61193985Y-51790504D01*
X61034065Y-51799305D01*
X60762171Y-51853389D01*
X60640495Y-51896118D01*
X60504816Y-51943764D01*
X60504808Y-51943767D01*
X60500609Y-51945242D01*
X60496656Y-51947295D01*
X60496650Y-51947298D01*
X60447571Y-51972793D01*
X60254600Y-52073034D01*
X60250985Y-52075617D01*
X60250979Y-52075621D01*
X60108474Y-52177457D01*
X60029051Y-52234214D01*
X59828462Y-52425566D01*
X59825706Y-52429062D01*
X59825705Y-52429063D01*
X59748258Y-52527304D01*
X59656836Y-52643272D01*
X59628986Y-52691220D01*
X59519832Y-52879142D01*
X59519829Y-52879148D01*
X59517598Y-52882989D01*
X59413525Y-53139933D01*
X59412454Y-53144246D01*
X59412452Y-53144251D01*
X59366145Y-53330671D01*
X59346694Y-53408977D01*
X59318438Y-53684754D01*
X57739145Y-53684754D01*
X57723931Y-53469871D01*
X57665584Y-53198860D01*
X57569633Y-52938774D01*
X57437993Y-52694802D01*
X57435352Y-52691227D01*
X57435348Y-52691220D01*
X57275943Y-52475405D01*
X57273290Y-52471813D01*
X57231207Y-52429063D01*
X57081942Y-52277436D01*
X57078811Y-52274255D01*
X57075272Y-52271554D01*
X57075265Y-52271548D01*
X56861976Y-52108772D01*
X56858436Y-52106070D01*
X56854547Y-52103892D01*
X56620453Y-51972793D01*
X56620452Y-51972793D01*
X56616562Y-51970614D01*
X56608563Y-51967520D01*
X56362170Y-51872196D01*
X56362164Y-51872194D01*
X56358015Y-51870589D01*
X56353683Y-51869585D01*
X56353680Y-51869584D01*
X56243345Y-51844010D01*
X56087954Y-51807992D01*
X55811767Y-51784072D01*
X55807332Y-51784316D01*
X55807328Y-51784316D01*
X55694885Y-51790504D01*
X55534965Y-51799305D01*
X55263071Y-51853389D01*
X55141395Y-51896118D01*
X55005716Y-51943764D01*
X55005708Y-51943767D01*
X55001509Y-51945242D01*
X54997556Y-51947295D01*
X54997550Y-51947298D01*
X54948471Y-51972793D01*
X54755500Y-52073034D01*
X54751885Y-52075617D01*
X54751879Y-52075621D01*
X54609374Y-52177457D01*
X54529951Y-52234214D01*
X54329362Y-52425566D01*
X54326606Y-52429062D01*
X54326605Y-52429063D01*
X54249158Y-52527304D01*
X54157736Y-52643272D01*
X54129886Y-52691220D01*
X54020732Y-52879142D01*
X54020729Y-52879148D01*
X54018498Y-52882989D01*
X53914425Y-53139933D01*
X53913354Y-53144246D01*
X53913352Y-53144251D01*
X53867045Y-53330671D01*
X53847594Y-53408977D01*
X53847140Y-53413408D01*
X53845344Y-53430937D01*
X53818503Y-53496664D01*
X53760388Y-53537446D01*
X53689450Y-53540334D01*
X53628211Y-53504412D01*
X53596115Y-53441085D01*
X53594000Y-53418094D01*
X53594000Y-49858405D01*
X53614002Y-49790284D01*
X53667658Y-49743791D01*
X53737932Y-49733687D01*
X53802512Y-49763181D01*
X53840896Y-49822907D01*
X53843950Y-49835768D01*
X53880028Y-50033311D01*
X53967762Y-50296283D01*
X53969755Y-50300271D01*
X54078306Y-50517515D01*
X54091674Y-50544269D01*
X54249291Y-50772322D01*
X54437468Y-50975892D01*
X54440922Y-50978704D01*
X54648995Y-51148102D01*
X54648999Y-51148105D01*
X54652452Y-51150916D01*
X54889952Y-51293903D01*
X54894047Y-51295637D01*
X54894049Y-51295638D01*
X55098921Y-51382390D01*
X55145229Y-51401999D01*
X55149522Y-51403137D01*
X55149527Y-51403139D01*
X55270871Y-51435312D01*
X55413191Y-51473047D01*
X55688490Y-51505631D01*
X55965634Y-51499100D01*
X56122160Y-51473047D01*
X56234703Y-51454315D01*
X56234707Y-51454314D01*
X56239093Y-51453584D01*
X56243334Y-51452243D01*
X56243337Y-51452242D01*
X56499164Y-51371334D01*
X56499166Y-51371333D01*
X56503410Y-51369991D01*
X56507421Y-51368065D01*
X56507426Y-51368063D01*
X56749293Y-51251920D01*
X56749294Y-51251919D01*
X56753312Y-51249990D01*
X56765306Y-51241976D01*
X56980105Y-51098453D01*
X56980109Y-51098450D01*
X56983813Y-51095975D01*
X56987130Y-51093004D01*
X56987134Y-51093001D01*
X57186995Y-50913990D01*
X57186996Y-50913989D01*
X57190313Y-50911018D01*
X57368692Y-50698810D01*
X57515392Y-50463585D01*
X57627484Y-50210037D01*
X57702733Y-49943224D01*
X57718894Y-49822907D01*
X57739210Y-49671653D01*
X57739211Y-49671645D01*
X57739637Y-49668471D01*
X57739738Y-49665260D01*
X57743409Y-49548462D01*
X57743409Y-49548457D01*
X57743510Y-49545240D01*
X57739145Y-49483594D01*
X59318438Y-49483594D01*
X59318613Y-49488046D01*
X59328662Y-49743791D01*
X59329322Y-49760601D01*
X59379128Y-50033311D01*
X59466862Y-50296283D01*
X59468855Y-50300271D01*
X59577406Y-50517515D01*
X59590774Y-50544269D01*
X59748391Y-50772322D01*
X59936568Y-50975892D01*
X59940022Y-50978704D01*
X60148095Y-51148102D01*
X60148099Y-51148105D01*
X60151552Y-51150916D01*
X60389052Y-51293903D01*
X60393147Y-51295637D01*
X60393149Y-51295638D01*
X60598021Y-51382390D01*
X60644329Y-51401999D01*
X60648622Y-51403137D01*
X60648627Y-51403139D01*
X60769971Y-51435312D01*
X60912291Y-51473047D01*
X61187590Y-51505631D01*
X61464734Y-51499100D01*
X61621260Y-51473047D01*
X61733803Y-51454315D01*
X61733807Y-51454314D01*
X61738193Y-51453584D01*
X61742434Y-51452243D01*
X61742437Y-51452242D01*
X61998264Y-51371334D01*
X61998266Y-51371333D01*
X62002510Y-51369991D01*
X62006521Y-51368065D01*
X62006526Y-51368063D01*
X62248393Y-51251920D01*
X62248394Y-51251919D01*
X62252412Y-51249990D01*
X62264406Y-51241976D01*
X62479205Y-51098453D01*
X62479209Y-51098450D01*
X62482913Y-51095975D01*
X62486230Y-51093004D01*
X62486234Y-51093001D01*
X62686095Y-50913990D01*
X62686096Y-50913989D01*
X62689413Y-50911018D01*
X62867792Y-50698810D01*
X63014492Y-50463585D01*
X63126584Y-50210037D01*
X63201833Y-49943224D01*
X63217994Y-49822907D01*
X63238310Y-49671653D01*
X63238311Y-49671645D01*
X63238737Y-49668471D01*
X63238838Y-49665260D01*
X63242509Y-49548462D01*
X63242509Y-49548457D01*
X63242610Y-49545240D01*
X63237635Y-49474978D01*
X66567952Y-49474978D01*
X66568105Y-49479366D01*
X66568105Y-49479372D01*
X66577601Y-49751286D01*
X66577755Y-49755684D01*
X66626529Y-50032295D01*
X66627884Y-50036466D01*
X66627886Y-50036473D01*
X66688980Y-50224500D01*
X66713325Y-50299426D01*
X66836454Y-50551877D01*
X66993518Y-50784735D01*
X66996462Y-50788004D01*
X66996463Y-50788006D01*
X67168168Y-50978704D01*
X67181462Y-50993468D01*
X67396627Y-51174013D01*
X67634825Y-51322855D01*
X67891420Y-51437099D01*
X67895648Y-51438311D01*
X67895647Y-51438311D01*
X68130055Y-51505526D01*
X68161417Y-51514519D01*
X68165767Y-51515130D01*
X68165770Y-51515131D01*
X68267800Y-51529470D01*
X68439561Y-51553610D01*
X68650131Y-51553610D01*
X68652317Y-51553457D01*
X68652321Y-51553457D01*
X68855809Y-51539228D01*
X68855814Y-51539227D01*
X68860194Y-51538921D01*
X68864488Y-51538008D01*
X68864490Y-51538008D01*
X68980698Y-51513307D01*
X69134934Y-51480523D01*
X69139065Y-51479019D01*
X69139070Y-51479018D01*
X69284104Y-51426229D01*
X69398872Y-51384457D01*
X69514729Y-51322855D01*
X69642981Y-51254663D01*
X69642987Y-51254659D01*
X69646873Y-51252593D01*
X69650433Y-51250006D01*
X69650437Y-51250004D01*
X69870545Y-51090086D01*
X69870548Y-51090084D01*
X69874108Y-51087497D01*
X69877275Y-51084439D01*
X70072989Y-50895440D01*
X70072993Y-50895435D01*
X70076154Y-50892383D01*
X70112787Y-50845496D01*
X70227391Y-50698810D01*
X70249080Y-50671049D01*
X70286278Y-50606620D01*
X70387314Y-50431621D01*
X70387317Y-50431616D01*
X70389519Y-50427801D01*
X70391169Y-50423717D01*
X70391172Y-50423711D01*
X70493088Y-50171458D01*
X70493089Y-50171455D01*
X70494737Y-50167376D01*
X70562688Y-49894841D01*
X70573678Y-49790284D01*
X70591589Y-49619871D01*
X70591589Y-49619868D01*
X70592048Y-49615502D01*
X70589595Y-49545240D01*
X70582399Y-49339194D01*
X70582398Y-49339188D01*
X70582245Y-49334796D01*
X70533471Y-49058185D01*
X70532116Y-49054014D01*
X70532114Y-49054007D01*
X70448036Y-48795243D01*
X70446675Y-48791054D01*
X70420611Y-48737614D01*
X70382199Y-48658859D01*
X70323546Y-48538603D01*
X70166482Y-48305745D01*
X69978538Y-48097012D01*
X69763373Y-47916467D01*
X69525175Y-47767625D01*
X69268580Y-47653381D01*
X69075097Y-47597901D01*
X69002810Y-47577173D01*
X69002809Y-47577173D01*
X68998583Y-47575961D01*
X68994233Y-47575350D01*
X68994230Y-47575349D01*
X68892200Y-47561010D01*
X68720439Y-47536870D01*
X68509869Y-47536870D01*
X68507683Y-47537023D01*
X68507679Y-47537023D01*
X68304191Y-47551252D01*
X68304186Y-47551253D01*
X68299806Y-47551559D01*
X68295512Y-47552472D01*
X68295510Y-47552472D01*
X68187883Y-47575349D01*
X68025066Y-47609957D01*
X68020935Y-47611461D01*
X68020930Y-47611462D01*
X67911307Y-47651362D01*
X67761128Y-47706023D01*
X67757241Y-47708090D01*
X67517019Y-47835817D01*
X67517013Y-47835821D01*
X67513127Y-47837887D01*
X67509567Y-47840474D01*
X67509563Y-47840476D01*
X67289455Y-48000394D01*
X67285892Y-48002983D01*
X67282728Y-48006039D01*
X67282725Y-48006041D01*
X67087011Y-48195040D01*
X67087007Y-48195045D01*
X67083846Y-48198097D01*
X66910920Y-48419431D01*
X66908717Y-48423247D01*
X66844221Y-48534958D01*
X66770481Y-48662679D01*
X66768831Y-48666763D01*
X66768828Y-48666769D01*
X66718614Y-48791054D01*
X66665263Y-48923104D01*
X66597312Y-49195639D01*
X66596853Y-49200009D01*
X66596852Y-49200013D01*
X66568411Y-49470609D01*
X66567952Y-49474978D01*
X63237635Y-49474978D01*
X63223031Y-49268711D01*
X63164684Y-48997700D01*
X63068733Y-48737614D01*
X62937093Y-48493642D01*
X62934452Y-48490067D01*
X62934448Y-48490060D01*
X62775043Y-48274245D01*
X62772390Y-48270653D01*
X62730307Y-48227903D01*
X62581042Y-48076276D01*
X62577911Y-48073095D01*
X62574372Y-48070394D01*
X62574365Y-48070388D01*
X62428064Y-47958735D01*
X62357536Y-47904910D01*
X62353647Y-47902732D01*
X62119553Y-47771633D01*
X62119552Y-47771633D01*
X62115662Y-47769454D01*
X62106320Y-47765840D01*
X61861270Y-47671036D01*
X61861264Y-47671034D01*
X61857115Y-47669429D01*
X61852783Y-47668425D01*
X61852780Y-47668424D01*
X61742445Y-47642850D01*
X61587054Y-47606832D01*
X61310867Y-47582912D01*
X61306432Y-47583156D01*
X61306428Y-47583156D01*
X61193985Y-47589344D01*
X61034065Y-47598145D01*
X60762171Y-47652229D01*
X60640495Y-47694958D01*
X60504816Y-47742604D01*
X60504808Y-47742607D01*
X60500609Y-47744082D01*
X60496656Y-47746135D01*
X60496650Y-47746138D01*
X60450807Y-47769952D01*
X60254600Y-47871874D01*
X60250985Y-47874457D01*
X60250979Y-47874461D01*
X60108474Y-47976297D01*
X60029051Y-48033054D01*
X60025831Y-48036126D01*
X59852407Y-48201564D01*
X59828462Y-48224406D01*
X59656836Y-48442112D01*
X59654599Y-48445964D01*
X59519832Y-48677982D01*
X59519829Y-48677988D01*
X59517598Y-48681829D01*
X59515928Y-48685952D01*
X59418142Y-48927375D01*
X59413525Y-48938773D01*
X59412454Y-48943086D01*
X59412452Y-48943091D01*
X59384901Y-49054007D01*
X59346694Y-49207817D01*
X59318438Y-49483594D01*
X57739145Y-49483594D01*
X57723931Y-49268711D01*
X57665584Y-48997700D01*
X57569633Y-48737614D01*
X57437993Y-48493642D01*
X57435352Y-48490067D01*
X57435348Y-48490060D01*
X57275943Y-48274245D01*
X57273290Y-48270653D01*
X57231207Y-48227903D01*
X57081942Y-48076276D01*
X57078811Y-48073095D01*
X57075272Y-48070394D01*
X57075265Y-48070388D01*
X56928964Y-47958735D01*
X56858436Y-47904910D01*
X56854547Y-47902732D01*
X56620453Y-47771633D01*
X56620452Y-47771633D01*
X56616562Y-47769454D01*
X56607220Y-47765840D01*
X56362170Y-47671036D01*
X56362164Y-47671034D01*
X56358015Y-47669429D01*
X56353683Y-47668425D01*
X56353680Y-47668424D01*
X56243345Y-47642850D01*
X56087954Y-47606832D01*
X55811767Y-47582912D01*
X55807332Y-47583156D01*
X55807328Y-47583156D01*
X55694885Y-47589344D01*
X55534965Y-47598145D01*
X55263071Y-47652229D01*
X55141395Y-47694958D01*
X55005716Y-47742604D01*
X55005708Y-47742607D01*
X55001509Y-47744082D01*
X54997556Y-47746135D01*
X54997550Y-47746138D01*
X54951707Y-47769952D01*
X54755500Y-47871874D01*
X54751885Y-47874457D01*
X54751879Y-47874461D01*
X54609374Y-47976297D01*
X54529951Y-48033054D01*
X54526731Y-48036126D01*
X54353307Y-48201564D01*
X54329362Y-48224406D01*
X54157736Y-48442112D01*
X54155499Y-48445964D01*
X54020732Y-48677982D01*
X54020729Y-48677988D01*
X54018498Y-48681829D01*
X54016828Y-48685952D01*
X53919042Y-48927375D01*
X53914425Y-48938773D01*
X53913354Y-48943086D01*
X53913352Y-48943091D01*
X53885801Y-49054007D01*
X53847594Y-49207817D01*
X53847140Y-49212248D01*
X53845344Y-49229777D01*
X53818503Y-49295504D01*
X53760388Y-49336286D01*
X53689450Y-49339174D01*
X53628211Y-49303252D01*
X53596115Y-49239925D01*
X53594000Y-49216934D01*
X53594000Y-46608500D01*
X53614002Y-46540379D01*
X53667658Y-46493886D01*
X53720000Y-46482500D01*
X74667182Y-46482500D01*
X74735303Y-46502502D01*
G37*
%TD.AperFunction*%
%TA.AperFunction,Conductor*%
G36*
X52015621Y-65044002D02*
G01*
X52062114Y-65097658D01*
X52073500Y-65150000D01*
X52073500Y-67311000D01*
X52053498Y-67379121D01*
X51999842Y-67425614D01*
X51947500Y-67437000D01*
X50799000Y-67437000D01*
X50730879Y-67416998D01*
X50684386Y-67363342D01*
X50673000Y-67311000D01*
X50673000Y-65150000D01*
X50693002Y-65081879D01*
X50746658Y-65035386D01*
X50799000Y-65024000D01*
X51947500Y-65024000D01*
X52015621Y-65044002D01*
G37*
%TD.AperFunction*%
%TA.AperFunction,Conductor*%
G36*
X53802512Y-53964341D02*
G01*
X53840896Y-54024067D01*
X53843950Y-54036928D01*
X53880028Y-54234471D01*
X53967762Y-54497443D01*
X54091674Y-54745429D01*
X54249291Y-54973482D01*
X54437468Y-55177052D01*
X54440922Y-55179864D01*
X54648995Y-55349262D01*
X54648999Y-55349265D01*
X54652452Y-55352076D01*
X54889952Y-55495063D01*
X54894047Y-55496797D01*
X54894049Y-55496798D01*
X55107345Y-55587117D01*
X55145229Y-55603159D01*
X55149522Y-55604297D01*
X55149527Y-55604299D01*
X55289302Y-55641359D01*
X55413191Y-55674207D01*
X55688490Y-55706791D01*
X55965634Y-55700260D01*
X56122160Y-55674207D01*
X56234703Y-55655475D01*
X56234707Y-55655474D01*
X56239093Y-55654744D01*
X56243334Y-55653403D01*
X56243337Y-55653402D01*
X56452927Y-55587117D01*
X56523909Y-55585647D01*
X56580016Y-55618157D01*
X57624595Y-56662736D01*
X57658621Y-56725048D01*
X57661500Y-56751831D01*
X57661500Y-56814199D01*
X57641498Y-56882320D01*
X57587842Y-56928813D01*
X57517568Y-56938917D01*
X57452988Y-56909423D01*
X57434148Y-56889058D01*
X57343787Y-56766718D01*
X57332662Y-56758278D01*
X57320066Y-56765104D01*
X55870035Y-58215135D01*
X55807723Y-58249161D01*
X55736908Y-58244096D01*
X55691845Y-58215135D01*
X54241817Y-56765107D01*
X54228977Y-56758096D01*
X54218285Y-56765893D01*
X54160910Y-56838674D01*
X54155915Y-56846023D01*
X54021179Y-57077988D01*
X54017280Y-57085946D01*
X53916575Y-57334574D01*
X53913826Y-57343036D01*
X53849163Y-57603356D01*
X53847634Y-57612117D01*
X53820293Y-57878959D01*
X53820014Y-57887842D01*
X53830545Y-58155877D01*
X53831520Y-58164706D01*
X53879713Y-58428587D01*
X53881922Y-58437189D01*
X53966814Y-58691642D01*
X53970218Y-58699860D01*
X54090116Y-58939814D01*
X54094634Y-58947453D01*
X54247151Y-59168127D01*
X54252704Y-59175058D01*
X54301616Y-59227971D01*
X54333168Y-59291571D01*
X54325327Y-59362134D01*
X54280582Y-59417255D01*
X54209091Y-59439500D01*
X54169069Y-59439500D01*
X54150121Y-59438067D01*
X54142780Y-59436950D01*
X54135883Y-59435901D01*
X54135881Y-59435901D01*
X54128651Y-59434801D01*
X54121359Y-59435394D01*
X54121356Y-59435394D01*
X54075982Y-59439085D01*
X54065767Y-59439500D01*
X54057707Y-59439500D01*
X54044417Y-59441049D01*
X54029493Y-59442789D01*
X54025118Y-59443222D01*
X53959661Y-59448546D01*
X53959658Y-59448547D01*
X53952363Y-59449140D01*
X53945399Y-59451396D01*
X53939440Y-59452587D01*
X53933585Y-59453971D01*
X53926319Y-59454818D01*
X53857673Y-59479735D01*
X53853545Y-59481152D01*
X53791064Y-59501393D01*
X53791062Y-59501394D01*
X53784101Y-59503649D01*
X53777845Y-59507445D01*
X53772383Y-59509946D01*
X53766947Y-59512668D01*
X53765263Y-59513280D01*
X53763576Y-59513584D01*
X53760928Y-59514853D01*
X53760063Y-59515167D01*
X53760061Y-59515168D01*
X53760056Y-59515170D01*
X53759732Y-59514278D01*
X53696120Y-59525764D01*
X53630524Y-59498604D01*
X53594000Y-59443949D01*
X53594000Y-59436000D01*
X50799000Y-59436000D01*
X50730879Y-59415998D01*
X50684386Y-59362342D01*
X50673000Y-59310000D01*
X50673000Y-57149000D01*
X50693002Y-57080879D01*
X50746658Y-57034386D01*
X50799000Y-57023000D01*
X53594000Y-57023000D01*
X53594000Y-56392532D01*
X54593807Y-56392532D01*
X54600787Y-56405657D01*
X55768128Y-57572998D01*
X55782072Y-57580612D01*
X55783905Y-57580481D01*
X55790520Y-57576230D01*
X56960755Y-56405995D01*
X56967609Y-56393443D01*
X56959402Y-56382373D01*
X56861702Y-56307810D01*
X56854277Y-56302933D01*
X56620238Y-56171865D01*
X56612185Y-56168076D01*
X56362022Y-56071295D01*
X56353532Y-56068683D01*
X56092214Y-56008113D01*
X56083436Y-56006723D01*
X55816191Y-55983577D01*
X55807320Y-55983437D01*
X55539471Y-55998178D01*
X55530661Y-55999292D01*
X55267575Y-56051622D01*
X55259000Y-56053968D01*
X55005916Y-56142844D01*
X54997749Y-56146378D01*
X54759713Y-56270029D01*
X54752141Y-56274669D01*
X54602210Y-56381810D01*
X54593807Y-56392532D01*
X53594000Y-56392532D01*
X53594000Y-54059565D01*
X53614002Y-53991444D01*
X53667658Y-53944951D01*
X53737932Y-53934847D01*
X53802512Y-53964341D01*
G37*
%TD.AperFunction*%
%TD*%
M02*
