%TF.GenerationSoftware,KiCad,Pcbnew,(6.0.8-1)-1*%
%TF.CreationDate,2022-10-30T22:05:05-05:00*%
%TF.ProjectId,VT100_ATX_DCDC,56543130-305f-4415-9458-5f444344432e,rev?*%
%TF.SameCoordinates,Original*%
%TF.FileFunction,Copper,L1,Top*%
%TF.FilePolarity,Positive*%
%FSLAX46Y46*%
G04 Gerber Fmt 4.6, Leading zero omitted, Abs format (unit mm)*
G04 Created by KiCad (PCBNEW (6.0.8-1)-1) date 2022-10-30 22:05:05*
%MOMM*%
%LPD*%
G01*
G04 APERTURE LIST*
G04 Aperture macros list*
%AMRoundRect*
0 Rectangle with rounded corners*
0 $1 Rounding radius*
0 $2 $3 $4 $5 $6 $7 $8 $9 X,Y pos of 4 corners*
0 Add a 4 corners polygon primitive as box body*
4,1,4,$2,$3,$4,$5,$6,$7,$8,$9,$2,$3,0*
0 Add four circle primitives for the rounded corners*
1,1,$1+$1,$2,$3*
1,1,$1+$1,$4,$5*
1,1,$1+$1,$6,$7*
1,1,$1+$1,$8,$9*
0 Add four rect primitives between the rounded corners*
20,1,$1+$1,$2,$3,$4,$5,0*
20,1,$1+$1,$4,$5,$6,$7,0*
20,1,$1+$1,$6,$7,$8,$9,0*
20,1,$1+$1,$8,$9,$2,$3,0*%
G04 Aperture macros list end*
%TA.AperFunction,ComponentPad*%
%ADD10C,1.879600*%
%TD*%
%TA.AperFunction,ComponentPad*%
%ADD11R,1.600000X1.600000*%
%TD*%
%TA.AperFunction,ComponentPad*%
%ADD12O,1.600000X1.600000*%
%TD*%
%TA.AperFunction,ComponentPad*%
%ADD13C,1.600000*%
%TD*%
%TA.AperFunction,ComponentPad*%
%ADD14R,2.200000X2.200000*%
%TD*%
%TA.AperFunction,ComponentPad*%
%ADD15O,2.200000X2.200000*%
%TD*%
%TA.AperFunction,ComponentPad*%
%ADD16RoundRect,0.120000X4.980000X1.080000X-4.980000X1.080000X-4.980000X-1.080000X4.980000X-1.080000X0*%
%TD*%
%TA.AperFunction,ComponentPad*%
%ADD17O,2.400000X2.400000*%
%TD*%
%TA.AperFunction,ComponentPad*%
%ADD18C,2.400000*%
%TD*%
%TA.AperFunction,ComponentPad*%
%ADD19C,2.898140*%
%TD*%
%TA.AperFunction,ViaPad*%
%ADD20C,0.800000*%
%TD*%
%TA.AperFunction,Conductor*%
%ADD21C,0.500000*%
%TD*%
%TA.AperFunction,Conductor*%
%ADD22C,1.000000*%
%TD*%
G04 APERTURE END LIST*
D10*
%TO.P,J1,1,Pin_1*%
%TO.N,GND*%
X76200000Y-74422000D03*
%TO.P,J1,2,Pin_2*%
%TO.N,Net-(J2-Pad16)*%
X76200000Y-71882000D03*
%TD*%
D11*
%TO.P,U1,1,GND*%
%TO.N,-12V*%
X57668000Y-57160000D03*
D12*
%TO.P,U1,2,TR*%
%TO.N,Net-(C1-Pad1)*%
X57668000Y-59700000D03*
%TO.P,U1,3,Q*%
%TO.N,Net-(C2-Pad1)*%
X57668000Y-62240000D03*
%TO.P,U1,4,R*%
%TO.N,GND*%
X57668000Y-64780000D03*
%TO.P,U1,5,CV*%
%TO.N,unconnected-(U1-Pad5)*%
X65288000Y-64780000D03*
%TO.P,U1,6,THR*%
%TO.N,Net-(C1-Pad1)*%
X65288000Y-62240000D03*
%TO.P,U1,7,DIS*%
%TO.N,Net-(R2-Pad1)*%
X65288000Y-59700000D03*
%TO.P,U1,8,VCC*%
%TO.N,GND*%
X65288000Y-57160000D03*
%TD*%
D13*
%TO.P,R3,1*%
%TO.N,Net-(R2-Pad1)*%
X76962000Y-53340000D03*
D12*
%TO.P,R3,2*%
%TO.N,GND*%
X76962000Y-45720000D03*
%TD*%
D13*
%TO.P,R2,1*%
%TO.N,Net-(R2-Pad1)*%
X73660000Y-45720000D03*
D12*
%TO.P,R2,2*%
%TO.N,Net-(C1-Pad1)*%
X73660000Y-53340000D03*
%TD*%
D14*
%TO.P,D2,1,K*%
%TO.N,Net-(C2-Pad2)*%
X66802000Y-75184000D03*
D15*
%TO.P,D2,2,A*%
%TO.N,-23V*%
X56642000Y-75184000D03*
%TD*%
%TO.P,D1,2,A*%
%TO.N,Net-(C2-Pad2)*%
X66802000Y-71628000D03*
D14*
%TO.P,D1,1,K*%
%TO.N,-12V*%
X56642000Y-71628000D03*
%TD*%
D11*
%TO.P,C3,1*%
%TO.N,-12V*%
X58802651Y-49276000D03*
D13*
%TO.P,C3,2*%
%TO.N,-23V*%
X55302651Y-49276000D03*
%TD*%
D11*
%TO.P,C2,1*%
%TO.N,Net-(C2-Pad1)*%
X67692651Y-49276000D03*
D13*
%TO.P,C2,2*%
%TO.N,Net-(C2-Pad2)*%
X64192651Y-49276000D03*
%TD*%
%TO.P,C1,1*%
%TO.N,Net-(C1-Pad1)*%
X69342000Y-57678000D03*
%TO.P,C1,2*%
%TO.N,-12V*%
X69342000Y-60178000D03*
%TD*%
D16*
%TO.P,U2,1,A_+12V*%
%TO.N,+12V*%
X45931000Y-54233000D03*
%TO.P,U2,2,B_GND*%
%TO.N,GND*%
X45931000Y-58233000D03*
%TO.P,U2,3,C_+12V*%
%TO.N,+12V*%
X45931000Y-62233000D03*
%TO.P,U2,4,D_GND*%
%TO.N,GND*%
X45931000Y-66233000D03*
%TO.P,U2,5,E_-12V*%
%TO.N,-12V*%
X45931000Y-70233000D03*
%TO.P,U2,6,F_-23V*%
%TO.N,-23V*%
X45931000Y-74233000D03*
%TO.P,U2,7,H_NC*%
%TO.N,unconnected-(U2-Pad7)*%
X45931000Y-78233000D03*
%TO.P,U2,8,J_GND_+12V*%
%TO.N,GND_+12V*%
X45931000Y-82233000D03*
%TO.P,U2,9,K_GND*%
%TO.N,GND*%
X45931000Y-86233000D03*
%TO.P,U2,10,L_GND*%
X45931000Y-90233000D03*
%TO.P,U2,11,M_GND*%
X45931000Y-94233000D03*
%TO.P,U2,12,N_GND*%
X45931000Y-98233000D03*
%TO.P,U2,13,P_GND*%
X45931000Y-102233000D03*
%TO.P,U2,14,R_+5V*%
%TO.N,+5V*%
X45931000Y-106233000D03*
%TO.P,U2,15,S_+5V*%
X45931000Y-110233000D03*
%TO.P,U2,16,T_+5V*%
X45931000Y-114233000D03*
%TO.P,U2,17,U_+5V*%
X45931000Y-118233000D03*
%TO.P,U2,18,V_+5V*%
X45931000Y-122233000D03*
%TD*%
D17*
%TO.P,R1,2*%
%TO.N,GND*%
X75184000Y-66548000D03*
D18*
%TO.P,R1,1*%
%TO.N,+5V*%
X75184000Y-58928000D03*
%TD*%
D19*
%TO.P,J2,24,GND*%
%TO.N,GND*%
X58828940Y-126476760D03*
%TO.P,J2,23,+5V*%
%TO.N,+5V*%
X58828940Y-122275600D03*
%TO.P,J2,22,+5V*%
X58828940Y-118076980D03*
%TO.P,J2,21,+5V*%
X58828940Y-113875820D03*
%TO.P,J2,20,NC*%
%TO.N,unconnected-(J2-Pad20)*%
X58828940Y-109677200D03*
%TO.P,J2,19,GND*%
%TO.N,GND*%
X58828940Y-105476040D03*
%TO.P,J2,18,GND*%
X58828940Y-101279960D03*
%TO.P,J2,17,GND*%
X58828940Y-97078800D03*
%TO.P,J2,16,PS_ON#*%
%TO.N,Net-(J2-Pad16)*%
X58828940Y-92880180D03*
%TO.P,J2,15,GND*%
%TO.N,GND*%
X58828940Y-88679020D03*
%TO.P,J2,14,-12V*%
%TO.N,-12V*%
X58828940Y-84480400D03*
%TO.P,J2,13,+3.3V*%
%TO.N,unconnected-(J2-Pad1)*%
X58828940Y-80279240D03*
%TO.P,J2,12,+3.3V*%
X64328040Y-126476760D03*
%TO.P,J2,11,+12V*%
%TO.N,+12V*%
X64328040Y-122275600D03*
%TO.P,J2,10,+12V*%
X64328040Y-118076980D03*
%TO.P,J2,9,+5VSB*%
%TO.N,unconnected-(J2-Pad9)*%
X64328040Y-113875820D03*
%TO.P,J2,8,PWR_OK*%
%TO.N,unconnected-(J2-Pad8)*%
X64328040Y-109677200D03*
%TO.P,J2,7,GND*%
%TO.N,GND*%
X64328040Y-105476040D03*
%TO.P,J2,6,+5V*%
%TO.N,+5V*%
X64328040Y-101279960D03*
%TO.P,J2,5,GND*%
%TO.N,GND*%
X64328040Y-97078800D03*
%TO.P,J2,4,+5V*%
%TO.N,+5V*%
X64328040Y-92880180D03*
%TO.P,J2,3,GND*%
%TO.N,GND*%
X64328040Y-88679020D03*
%TO.P,J2,2,+3.3V*%
%TO.N,unconnected-(J2-Pad1)*%
X64328040Y-84480400D03*
%TO.P,J2,1,+3.3V*%
X64328040Y-80279240D03*
%TD*%
D20*
%TO.N,Net-(C2-Pad1)*%
X61468000Y-54356000D03*
%TO.N,-23V*%
X55372000Y-65024000D03*
X52324000Y-68580000D03*
%TD*%
D21*
%TO.N,Net-(C2-Pad1)*%
X61468000Y-58440000D02*
X61468000Y-54356000D01*
X57668000Y-62240000D02*
X61468000Y-58440000D01*
%TO.N,-12V*%
X58828940Y-84480400D02*
X60728010Y-82581330D01*
X60728010Y-82581330D02*
X60728010Y-75714010D01*
X60728010Y-75714010D02*
X56642000Y-71628000D01*
X49931000Y-70233000D02*
X51326000Y-71628000D01*
X51326000Y-71628000D02*
X56642000Y-71628000D01*
X57668000Y-57160000D02*
X57668000Y-50410651D01*
X57668000Y-50410651D02*
X58802651Y-49276000D01*
%TO.N,Net-(R2-Pad1)*%
X76962000Y-53340000D02*
X76962000Y-49022000D01*
X76962000Y-49022000D02*
X73660000Y-45720000D01*
%TO.N,Net-(C1-Pad1)*%
X65288000Y-62240000D02*
X69342000Y-58186000D01*
X69342000Y-58186000D02*
X69342000Y-57678000D01*
%TO.N,Net-(C2-Pad2)*%
X75184000Y-52578000D02*
X74168000Y-51562000D01*
X75184000Y-56103767D02*
X75184000Y-52578000D01*
X74168000Y-51562000D02*
X66478651Y-51562000D01*
X66478651Y-51562000D02*
X64192651Y-49276000D01*
X66802000Y-71628000D02*
X66802000Y-64485767D01*
X66802000Y-64485767D02*
X75184000Y-56103767D01*
%TO.N,-23V*%
X55880000Y-65532000D02*
X55372000Y-65024000D01*
X52324000Y-68580000D02*
X55372000Y-68580000D01*
X55372000Y-68580000D02*
X55880000Y-68072000D01*
X55880000Y-68072000D02*
X55880000Y-65532000D01*
%TO.N,Net-(C2-Pad2)*%
X66802000Y-75184000D02*
X66802000Y-71628000D01*
D22*
%TO.N,+5V*%
X64328040Y-92880180D02*
X68720679Y-88487541D01*
X68720679Y-88487541D02*
X68720679Y-65391321D01*
X68720679Y-65391321D02*
X75184000Y-58928000D01*
D21*
%TO.N,-23V*%
X49931000Y-74233000D02*
X50882000Y-75184000D01*
X50882000Y-75184000D02*
X56642000Y-75184000D01*
D22*
%TO.N,+5V*%
X64328040Y-92880180D02*
X61722000Y-95486220D01*
X61722000Y-95486220D02*
X61722000Y-98673920D01*
X61722000Y-98673920D02*
X64328040Y-101279960D01*
X49931000Y-114233000D02*
X58471760Y-114233000D01*
X58471760Y-114233000D02*
X58828940Y-113875820D01*
%TD*%
%TA.AperFunction,Conductor*%
%TO.N,GND*%
G36*
X72441664Y-44978502D02*
G01*
X72488157Y-45032158D01*
X72498261Y-45102432D01*
X72487738Y-45137749D01*
X72425716Y-45270757D01*
X72366457Y-45491913D01*
X72346502Y-45720000D01*
X72366457Y-45948087D01*
X72425716Y-46169243D01*
X72428039Y-46174224D01*
X72428039Y-46174225D01*
X72520151Y-46371762D01*
X72520154Y-46371767D01*
X72522477Y-46376749D01*
X72525634Y-46381257D01*
X72648228Y-46556339D01*
X72653802Y-46564300D01*
X72815700Y-46726198D01*
X72820208Y-46729355D01*
X72820211Y-46729357D01*
X72898389Y-46784098D01*
X73003251Y-46857523D01*
X73008233Y-46859846D01*
X73008238Y-46859849D01*
X73204765Y-46951490D01*
X73210757Y-46954284D01*
X73216065Y-46955706D01*
X73216067Y-46955707D01*
X73426598Y-47012119D01*
X73426600Y-47012119D01*
X73431913Y-47013543D01*
X73660000Y-47033498D01*
X73665475Y-47033019D01*
X73822913Y-47019245D01*
X73892518Y-47033234D01*
X73922990Y-47055671D01*
X76166595Y-49299276D01*
X76200621Y-49361588D01*
X76203500Y-49388371D01*
X76203500Y-52208133D01*
X76183498Y-52276254D01*
X76149772Y-52311345D01*
X76117700Y-52333802D01*
X76100483Y-52351019D01*
X76038171Y-52385045D01*
X75967356Y-52379980D01*
X75910520Y-52337433D01*
X75891521Y-52300754D01*
X75880608Y-52267066D01*
X75880606Y-52267061D01*
X75878351Y-52260101D01*
X75874555Y-52253846D01*
X75872049Y-52248372D01*
X75869330Y-52242942D01*
X75866833Y-52236063D01*
X75826814Y-52175024D01*
X75824467Y-52171305D01*
X75786595Y-52108893D01*
X75779197Y-52100516D01*
X75779224Y-52100492D01*
X75776571Y-52097500D01*
X75773868Y-52094267D01*
X75769856Y-52088148D01*
X75713617Y-52034872D01*
X75711175Y-52032494D01*
X74751770Y-51073089D01*
X74739384Y-51058677D01*
X74730851Y-51047082D01*
X74730846Y-51047077D01*
X74726508Y-51041182D01*
X74720930Y-51036443D01*
X74720927Y-51036440D01*
X74686232Y-51006965D01*
X74678716Y-51000035D01*
X74673021Y-50994340D01*
X74666880Y-50989482D01*
X74650749Y-50976719D01*
X74647345Y-50973928D01*
X74597297Y-50931409D01*
X74597295Y-50931408D01*
X74591715Y-50926667D01*
X74585199Y-50923339D01*
X74580150Y-50919972D01*
X74575021Y-50916805D01*
X74569284Y-50912266D01*
X74503125Y-50881345D01*
X74499225Y-50879439D01*
X74434192Y-50846231D01*
X74427084Y-50844492D01*
X74421441Y-50842393D01*
X74415678Y-50840476D01*
X74409050Y-50837378D01*
X74337583Y-50822513D01*
X74333299Y-50821543D01*
X74281769Y-50808934D01*
X74262390Y-50804192D01*
X74256788Y-50803844D01*
X74256785Y-50803844D01*
X74251236Y-50803500D01*
X74251238Y-50803464D01*
X74247245Y-50803225D01*
X74243053Y-50802851D01*
X74235885Y-50801360D01*
X74169675Y-50803151D01*
X74158479Y-50803454D01*
X74155072Y-50803500D01*
X68695817Y-50803500D01*
X68627696Y-50783498D01*
X68581203Y-50729842D01*
X68571099Y-50659568D01*
X68600593Y-50594988D01*
X68651588Y-50559518D01*
X68730946Y-50529768D01*
X68730947Y-50529767D01*
X68739356Y-50526615D01*
X68855912Y-50439261D01*
X68943266Y-50322705D01*
X68994396Y-50186316D01*
X69001151Y-50124134D01*
X69001151Y-48427866D01*
X68994396Y-48365684D01*
X68943266Y-48229295D01*
X68855912Y-48112739D01*
X68739356Y-48025385D01*
X68602967Y-47974255D01*
X68540785Y-47967500D01*
X66844517Y-47967500D01*
X66782335Y-47974255D01*
X66645946Y-48025385D01*
X66529390Y-48112739D01*
X66442036Y-48229295D01*
X66390906Y-48365684D01*
X66384151Y-48427866D01*
X66384151Y-50090629D01*
X66364149Y-50158750D01*
X66310493Y-50205243D01*
X66240219Y-50215347D01*
X66175639Y-50185853D01*
X66169056Y-50179724D01*
X65528322Y-49538990D01*
X65494296Y-49476678D01*
X65491896Y-49438913D01*
X65505670Y-49281475D01*
X65506149Y-49276000D01*
X65486194Y-49047913D01*
X65435742Y-48859624D01*
X65428358Y-48832067D01*
X65428357Y-48832065D01*
X65426935Y-48826757D01*
X65424612Y-48821775D01*
X65332500Y-48624238D01*
X65332497Y-48624233D01*
X65330174Y-48619251D01*
X65231879Y-48478872D01*
X65202008Y-48436211D01*
X65202006Y-48436208D01*
X65198849Y-48431700D01*
X65036951Y-48269802D01*
X65032443Y-48266645D01*
X65032440Y-48266643D01*
X64954262Y-48211902D01*
X64849400Y-48138477D01*
X64844418Y-48136154D01*
X64844413Y-48136151D01*
X64646876Y-48044039D01*
X64646875Y-48044039D01*
X64641894Y-48041716D01*
X64636586Y-48040294D01*
X64636584Y-48040293D01*
X64426053Y-47983881D01*
X64426051Y-47983881D01*
X64420738Y-47982457D01*
X64192651Y-47962502D01*
X63964564Y-47982457D01*
X63959251Y-47983881D01*
X63959249Y-47983881D01*
X63748718Y-48040293D01*
X63748716Y-48040294D01*
X63743408Y-48041716D01*
X63738427Y-48044039D01*
X63738426Y-48044039D01*
X63540889Y-48136151D01*
X63540884Y-48136154D01*
X63535902Y-48138477D01*
X63431040Y-48211902D01*
X63352862Y-48266643D01*
X63352859Y-48266645D01*
X63348351Y-48269802D01*
X63186453Y-48431700D01*
X63183296Y-48436208D01*
X63183294Y-48436211D01*
X63153423Y-48478872D01*
X63055128Y-48619251D01*
X63052805Y-48624233D01*
X63052802Y-48624238D01*
X62960690Y-48821775D01*
X62958367Y-48826757D01*
X62956945Y-48832065D01*
X62956944Y-48832067D01*
X62949560Y-48859624D01*
X62899108Y-49047913D01*
X62879153Y-49276000D01*
X62899108Y-49504087D01*
X62900532Y-49509400D01*
X62900532Y-49509402D01*
X62911069Y-49548724D01*
X62958367Y-49725243D01*
X62960690Y-49730224D01*
X62960690Y-49730225D01*
X63052802Y-49927762D01*
X63052805Y-49927767D01*
X63055128Y-49932749D01*
X63058285Y-49937257D01*
X63157833Y-50079426D01*
X63186453Y-50120300D01*
X63348351Y-50282198D01*
X63352859Y-50285355D01*
X63352862Y-50285357D01*
X63412927Y-50327415D01*
X63535902Y-50413523D01*
X63540884Y-50415846D01*
X63540889Y-50415849D01*
X63738426Y-50507961D01*
X63743408Y-50510284D01*
X63748716Y-50511706D01*
X63748718Y-50511707D01*
X63959249Y-50568119D01*
X63959251Y-50568119D01*
X63964564Y-50569543D01*
X64192651Y-50589498D01*
X64198126Y-50589019D01*
X64355564Y-50575245D01*
X64425169Y-50589234D01*
X64455641Y-50611671D01*
X65894881Y-52050911D01*
X65907267Y-52065323D01*
X65915800Y-52076918D01*
X65915805Y-52076923D01*
X65920143Y-52082818D01*
X65925721Y-52087557D01*
X65925724Y-52087560D01*
X65960419Y-52117035D01*
X65967935Y-52123965D01*
X65973630Y-52129660D01*
X65976512Y-52131940D01*
X65995902Y-52147281D01*
X65999306Y-52150072D01*
X66049354Y-52192591D01*
X66054936Y-52197333D01*
X66061452Y-52200661D01*
X66066501Y-52204028D01*
X66071630Y-52207195D01*
X66077367Y-52211734D01*
X66143526Y-52242655D01*
X66147420Y-52244558D01*
X66212459Y-52277769D01*
X66219567Y-52279508D01*
X66225210Y-52281607D01*
X66230973Y-52283524D01*
X66237601Y-52286622D01*
X66305544Y-52300754D01*
X66309063Y-52301486D01*
X66313347Y-52302456D01*
X66384261Y-52319808D01*
X66389863Y-52320156D01*
X66389866Y-52320156D01*
X66395415Y-52320500D01*
X66395413Y-52320536D01*
X66399406Y-52320775D01*
X66403598Y-52321149D01*
X66410766Y-52322640D01*
X66488171Y-52320546D01*
X66491579Y-52320500D01*
X72534434Y-52320500D01*
X72602555Y-52340502D01*
X72649048Y-52394158D01*
X72659152Y-52464432D01*
X72637647Y-52518771D01*
X72619713Y-52544384D01*
X72522477Y-52683251D01*
X72520154Y-52688233D01*
X72520151Y-52688238D01*
X72428039Y-52885775D01*
X72425716Y-52890757D01*
X72424294Y-52896065D01*
X72424293Y-52896067D01*
X72367881Y-53106598D01*
X72366457Y-53111913D01*
X72346502Y-53340000D01*
X72366457Y-53568087D01*
X72425716Y-53789243D01*
X72428039Y-53794224D01*
X72428039Y-53794225D01*
X72520151Y-53991762D01*
X72520154Y-53991767D01*
X72522477Y-53996749D01*
X72525634Y-54001257D01*
X72641039Y-54166072D01*
X72653802Y-54184300D01*
X72815700Y-54346198D01*
X72820208Y-54349355D01*
X72820211Y-54349357D01*
X72839074Y-54362565D01*
X73003251Y-54477523D01*
X73008233Y-54479846D01*
X73008238Y-54479849D01*
X73163410Y-54552206D01*
X73210757Y-54574284D01*
X73216065Y-54575706D01*
X73216067Y-54575707D01*
X73426598Y-54632119D01*
X73426600Y-54632119D01*
X73431913Y-54633543D01*
X73660000Y-54653498D01*
X73888087Y-54633543D01*
X73893400Y-54632119D01*
X73893402Y-54632119D01*
X74103933Y-54575707D01*
X74103935Y-54575706D01*
X74109243Y-54574284D01*
X74246250Y-54510397D01*
X74316442Y-54499736D01*
X74381255Y-54528716D01*
X74420111Y-54588136D01*
X74425500Y-54624592D01*
X74425500Y-55737396D01*
X74405498Y-55805517D01*
X74388595Y-55826491D01*
X70673727Y-59541359D01*
X70611415Y-59575385D01*
X70540600Y-59570320D01*
X70483764Y-59527773D01*
X70479670Y-59521566D01*
X70479523Y-59521251D01*
X70444976Y-59471913D01*
X70351357Y-59338211D01*
X70351355Y-59338208D01*
X70348198Y-59333700D01*
X70186300Y-59171802D01*
X70181792Y-59168645D01*
X70181789Y-59168643D01*
X70078124Y-59096056D01*
X69998749Y-59040477D01*
X69993767Y-59038154D01*
X69991973Y-59037118D01*
X69942981Y-58985734D01*
X69929546Y-58916021D01*
X69955934Y-58850110D01*
X69991973Y-58818882D01*
X69993767Y-58817846D01*
X69998749Y-58815523D01*
X70145584Y-58712708D01*
X70181789Y-58687357D01*
X70181792Y-58687355D01*
X70186300Y-58684198D01*
X70348198Y-58522300D01*
X70388427Y-58464848D01*
X70413720Y-58428725D01*
X70479523Y-58334749D01*
X70481846Y-58329767D01*
X70481849Y-58329762D01*
X70573961Y-58132225D01*
X70573961Y-58132224D01*
X70576284Y-58127243D01*
X70608200Y-58008134D01*
X70634119Y-57911402D01*
X70634119Y-57911400D01*
X70635543Y-57906087D01*
X70655498Y-57678000D01*
X70635543Y-57449913D01*
X70634119Y-57444598D01*
X70577707Y-57234067D01*
X70577706Y-57234065D01*
X70576284Y-57228757D01*
X70539093Y-57149000D01*
X70481849Y-57026238D01*
X70481846Y-57026233D01*
X70479523Y-57021251D01*
X70348198Y-56833700D01*
X70186300Y-56671802D01*
X70181792Y-56668645D01*
X70181789Y-56668643D01*
X70059638Y-56583112D01*
X69998749Y-56540477D01*
X69993767Y-56538154D01*
X69993762Y-56538151D01*
X69796225Y-56446039D01*
X69796224Y-56446039D01*
X69791243Y-56443716D01*
X69785935Y-56442294D01*
X69785933Y-56442293D01*
X69575402Y-56385881D01*
X69575400Y-56385881D01*
X69570087Y-56384457D01*
X69342000Y-56364502D01*
X69113913Y-56384457D01*
X69108600Y-56385881D01*
X69108598Y-56385881D01*
X68898067Y-56442293D01*
X68898065Y-56442294D01*
X68892757Y-56443716D01*
X68887776Y-56446039D01*
X68887775Y-56446039D01*
X68690238Y-56538151D01*
X68690233Y-56538154D01*
X68685251Y-56540477D01*
X68624362Y-56583112D01*
X68502211Y-56668643D01*
X68502208Y-56668645D01*
X68497700Y-56671802D01*
X68335802Y-56833700D01*
X68204477Y-57021251D01*
X68202154Y-57026233D01*
X68202151Y-57026238D01*
X68144907Y-57149000D01*
X68107716Y-57228757D01*
X68106294Y-57234065D01*
X68106293Y-57234067D01*
X68049881Y-57444598D01*
X68048457Y-57449913D01*
X68028502Y-57678000D01*
X68048457Y-57906087D01*
X68049881Y-57911400D01*
X68049881Y-57911402D01*
X68073478Y-57999467D01*
X68107716Y-58127243D01*
X68110039Y-58132225D01*
X68110042Y-58132232D01*
X68140508Y-58197567D01*
X68151169Y-58267759D01*
X68122188Y-58332571D01*
X68115408Y-58339911D01*
X66804939Y-59650380D01*
X66742627Y-59684406D01*
X66671812Y-59679341D01*
X66614976Y-59636794D01*
X66590323Y-59572267D01*
X66586430Y-59527773D01*
X66581543Y-59471913D01*
X66552183Y-59362342D01*
X66523707Y-59256067D01*
X66523706Y-59256065D01*
X66522284Y-59250757D01*
X66483994Y-59168643D01*
X66427849Y-59048238D01*
X66427846Y-59048233D01*
X66425523Y-59043251D01*
X66339932Y-58921015D01*
X66297357Y-58860211D01*
X66297355Y-58860208D01*
X66294198Y-58855700D01*
X66132300Y-58693802D01*
X66127792Y-58690645D01*
X66127789Y-58690643D01*
X66049611Y-58635902D01*
X65944749Y-58562477D01*
X65939767Y-58560154D01*
X65939762Y-58560151D01*
X65904951Y-58543919D01*
X65851666Y-58497002D01*
X65832205Y-58428725D01*
X65852747Y-58360765D01*
X65904951Y-58315529D01*
X65939511Y-58299414D01*
X65949007Y-58293931D01*
X66127467Y-58168972D01*
X66135875Y-58161916D01*
X66289916Y-58007875D01*
X66296972Y-57999467D01*
X66421931Y-57821007D01*
X66427414Y-57811511D01*
X66519490Y-57614053D01*
X66523236Y-57603761D01*
X66569394Y-57431497D01*
X66569058Y-57417401D01*
X66561116Y-57414000D01*
X64020033Y-57414000D01*
X64006502Y-57417973D01*
X64005273Y-57426522D01*
X64052764Y-57603761D01*
X64056510Y-57614053D01*
X64148586Y-57811511D01*
X64154069Y-57821007D01*
X64279028Y-57999467D01*
X64286084Y-58007875D01*
X64440125Y-58161916D01*
X64448533Y-58168972D01*
X64626993Y-58293931D01*
X64636489Y-58299414D01*
X64671049Y-58315529D01*
X64724334Y-58362446D01*
X64743795Y-58430723D01*
X64723253Y-58498683D01*
X64671049Y-58543919D01*
X64636238Y-58560151D01*
X64636233Y-58560154D01*
X64631251Y-58562477D01*
X64526389Y-58635902D01*
X64448211Y-58690643D01*
X64448208Y-58690645D01*
X64443700Y-58693802D01*
X64281802Y-58855700D01*
X64278645Y-58860208D01*
X64278643Y-58860211D01*
X64236068Y-58921015D01*
X64150477Y-59043251D01*
X64148154Y-59048233D01*
X64148151Y-59048238D01*
X64092006Y-59168643D01*
X64053716Y-59250757D01*
X64052294Y-59256065D01*
X64052293Y-59256067D01*
X64023817Y-59362342D01*
X63994457Y-59471913D01*
X63974502Y-59700000D01*
X63994457Y-59928087D01*
X64053716Y-60149243D01*
X64056039Y-60154224D01*
X64056039Y-60154225D01*
X64148151Y-60351762D01*
X64148154Y-60351767D01*
X64150477Y-60356749D01*
X64281802Y-60544300D01*
X64443700Y-60706198D01*
X64448208Y-60709355D01*
X64448211Y-60709357D01*
X64526389Y-60764098D01*
X64631251Y-60837523D01*
X64636233Y-60839846D01*
X64636238Y-60839849D01*
X64670457Y-60855805D01*
X64723742Y-60902722D01*
X64743203Y-60970999D01*
X64722661Y-61038959D01*
X64670457Y-61084195D01*
X64636238Y-61100151D01*
X64636233Y-61100154D01*
X64631251Y-61102477D01*
X64526389Y-61175902D01*
X64448211Y-61230643D01*
X64448208Y-61230645D01*
X64443700Y-61233802D01*
X64281802Y-61395700D01*
X64150477Y-61583251D01*
X64148154Y-61588233D01*
X64148151Y-61588238D01*
X64056039Y-61785775D01*
X64053716Y-61790757D01*
X63994457Y-62011913D01*
X63974502Y-62240000D01*
X63994457Y-62468087D01*
X64053716Y-62689243D01*
X64056039Y-62694224D01*
X64056039Y-62694225D01*
X64148151Y-62891762D01*
X64148154Y-62891767D01*
X64150477Y-62896749D01*
X64281802Y-63084300D01*
X64443700Y-63246198D01*
X64448208Y-63249355D01*
X64448211Y-63249357D01*
X64526389Y-63304098D01*
X64631251Y-63377523D01*
X64636233Y-63379846D01*
X64636238Y-63379849D01*
X64670457Y-63395805D01*
X64723742Y-63442722D01*
X64743203Y-63510999D01*
X64722661Y-63578959D01*
X64670457Y-63624195D01*
X64636238Y-63640151D01*
X64636233Y-63640154D01*
X64631251Y-63642477D01*
X64526389Y-63715902D01*
X64448211Y-63770643D01*
X64448208Y-63770645D01*
X64443700Y-63773802D01*
X64281802Y-63935700D01*
X64278645Y-63940208D01*
X64278643Y-63940211D01*
X64223902Y-64018389D01*
X64150477Y-64123251D01*
X64148154Y-64128233D01*
X64148151Y-64128238D01*
X64097546Y-64236763D01*
X64053716Y-64330757D01*
X64052294Y-64336065D01*
X64052293Y-64336067D01*
X63995881Y-64546598D01*
X63994457Y-64551913D01*
X63974502Y-64780000D01*
X63994457Y-65008087D01*
X63995881Y-65013400D01*
X63995881Y-65013402D01*
X64051295Y-65220206D01*
X64053716Y-65229243D01*
X64056039Y-65234224D01*
X64056039Y-65234225D01*
X64148151Y-65431762D01*
X64148154Y-65431767D01*
X64150477Y-65436749D01*
X64195388Y-65500888D01*
X64257459Y-65589534D01*
X64281802Y-65624300D01*
X64443700Y-65786198D01*
X64448208Y-65789355D01*
X64448211Y-65789357D01*
X64526389Y-65844098D01*
X64631251Y-65917523D01*
X64636233Y-65919846D01*
X64636238Y-65919849D01*
X64827537Y-66009052D01*
X64838757Y-66014284D01*
X64844065Y-66015706D01*
X64844067Y-66015707D01*
X65054598Y-66072119D01*
X65054600Y-66072119D01*
X65059913Y-66073543D01*
X65288000Y-66093498D01*
X65516087Y-66073543D01*
X65521400Y-66072119D01*
X65521402Y-66072119D01*
X65731933Y-66015707D01*
X65731935Y-66015706D01*
X65737243Y-66014284D01*
X65767417Y-66000214D01*
X65864250Y-65955060D01*
X65934442Y-65944399D01*
X65999255Y-65973379D01*
X66038111Y-66032799D01*
X66043500Y-66069255D01*
X66043500Y-70135752D01*
X66023498Y-70203873D01*
X65983335Y-70243185D01*
X65853624Y-70322672D01*
X65751043Y-70410285D01*
X65670968Y-70478676D01*
X65661102Y-70487102D01*
X65496672Y-70679624D01*
X65364384Y-70895498D01*
X65362491Y-70900068D01*
X65362489Y-70900072D01*
X65321246Y-70999642D01*
X65267495Y-71129409D01*
X65208391Y-71375597D01*
X65188526Y-71628000D01*
X65208391Y-71880403D01*
X65209545Y-71885210D01*
X65209546Y-71885216D01*
X65223059Y-71941500D01*
X65267495Y-72126591D01*
X65269388Y-72131162D01*
X65269389Y-72131164D01*
X65358772Y-72346953D01*
X65364384Y-72360502D01*
X65366970Y-72364722D01*
X65375210Y-72378168D01*
X65496672Y-72576376D01*
X65661102Y-72768898D01*
X65853624Y-72933328D01*
X65891821Y-72956735D01*
X65983335Y-73012815D01*
X66030966Y-73065463D01*
X66043500Y-73120248D01*
X66043500Y-73449500D01*
X66023498Y-73517621D01*
X65969842Y-73564114D01*
X65917500Y-73575500D01*
X65653866Y-73575500D01*
X65591684Y-73582255D01*
X65455295Y-73633385D01*
X65338739Y-73720739D01*
X65251385Y-73837295D01*
X65200255Y-73973684D01*
X65193500Y-74035866D01*
X65193500Y-76332134D01*
X65200255Y-76394316D01*
X65251385Y-76530705D01*
X65338739Y-76647261D01*
X65455295Y-76734615D01*
X65591684Y-76785745D01*
X65653866Y-76792500D01*
X67586179Y-76792500D01*
X67654300Y-76812502D01*
X67700793Y-76866158D01*
X67712179Y-76918500D01*
X67712179Y-88017617D01*
X67692177Y-88085738D01*
X67675274Y-88106712D01*
X66411752Y-89370234D01*
X66349440Y-89404260D01*
X66278625Y-89399195D01*
X66221789Y-89356648D01*
X66196978Y-89290128D01*
X66201388Y-89246937D01*
X66248134Y-89081188D01*
X66249935Y-89072495D01*
X66285810Y-88805401D01*
X66286338Y-88799008D01*
X66290008Y-88682242D01*
X66289881Y-88675799D01*
X66270850Y-88407011D01*
X66269597Y-88398208D01*
X66213139Y-88135972D01*
X66210660Y-88127439D01*
X66117817Y-87875777D01*
X66114162Y-87867682D01*
X65986786Y-87631613D01*
X65982024Y-87624108D01*
X65890887Y-87500718D01*
X65879762Y-87492278D01*
X65867166Y-87499104D01*
X63147686Y-90218584D01*
X63140520Y-90231707D01*
X63147910Y-90242009D01*
X63196383Y-90281472D01*
X63203662Y-90286587D01*
X63433460Y-90424937D01*
X63441384Y-90428974D01*
X63688389Y-90533568D01*
X63696794Y-90536446D01*
X63956083Y-90605194D01*
X63964804Y-90606858D01*
X64231198Y-90638388D01*
X64240063Y-90638806D01*
X64508228Y-90632486D01*
X64517088Y-90631649D01*
X64781674Y-90587610D01*
X64790331Y-90585531D01*
X64892423Y-90553244D01*
X64963405Y-90551774D01*
X65023913Y-90588913D01*
X65054737Y-90652869D01*
X65046090Y-90723337D01*
X65019512Y-90762474D01*
X64851047Y-90930939D01*
X64788735Y-90964965D01*
X64733502Y-90964590D01*
X64639396Y-90942778D01*
X64639390Y-90942777D01*
X64635054Y-90941772D01*
X64358867Y-90917852D01*
X64354432Y-90918096D01*
X64354428Y-90918096D01*
X64241985Y-90924284D01*
X64082065Y-90933085D01*
X63810171Y-90987169D01*
X63688495Y-91029898D01*
X63552816Y-91077544D01*
X63552808Y-91077547D01*
X63548609Y-91079022D01*
X63544656Y-91081075D01*
X63544650Y-91081078D01*
X63495571Y-91106573D01*
X63302600Y-91206814D01*
X63298985Y-91209397D01*
X63298979Y-91209401D01*
X63156474Y-91311237D01*
X63077051Y-91367994D01*
X62876462Y-91559346D01*
X62704836Y-91777052D01*
X62702599Y-91780904D01*
X62567832Y-92012922D01*
X62567829Y-92012928D01*
X62565598Y-92016769D01*
X62461525Y-92273713D01*
X62460454Y-92278026D01*
X62460452Y-92278031D01*
X62440723Y-92357455D01*
X62394694Y-92542757D01*
X62366438Y-92818534D01*
X62377322Y-93095541D01*
X62411460Y-93282457D01*
X62413188Y-93291920D01*
X62405750Y-93362526D01*
X62378333Y-93403653D01*
X61052621Y-94729365D01*
X61042478Y-94738467D01*
X61012975Y-94762188D01*
X60990263Y-94789255D01*
X60980709Y-94800641D01*
X60977528Y-94804289D01*
X60975885Y-94806101D01*
X60973691Y-94808295D01*
X60946358Y-94841569D01*
X60945696Y-94842367D01*
X60885846Y-94913694D01*
X60883278Y-94918364D01*
X60879897Y-94922481D01*
X60848860Y-94980365D01*
X60836023Y-95004306D01*
X60835394Y-95005465D01*
X60793538Y-95081601D01*
X60793535Y-95081609D01*
X60790567Y-95087007D01*
X60788955Y-95092089D01*
X60786438Y-95096783D01*
X60759238Y-95185751D01*
X60758918Y-95186779D01*
X60730765Y-95275526D01*
X60730171Y-95280822D01*
X60728613Y-95285918D01*
X60727990Y-95292054D01*
X60719218Y-95378407D01*
X60719089Y-95379613D01*
X60713500Y-95429447D01*
X60713500Y-95432974D01*
X60713445Y-95433959D01*
X60712998Y-95439639D01*
X60708626Y-95482682D01*
X60709206Y-95488813D01*
X60712941Y-95528329D01*
X60713500Y-95540187D01*
X60713500Y-95953523D01*
X60693498Y-96021644D01*
X60639842Y-96068137D01*
X60569568Y-96078241D01*
X60504988Y-96048747D01*
X60486236Y-96026979D01*
X60485570Y-96027471D01*
X60391787Y-95900498D01*
X60380662Y-95892058D01*
X60368066Y-95898884D01*
X59200962Y-97065988D01*
X59193348Y-97079932D01*
X59193479Y-97081765D01*
X59197730Y-97088380D01*
X60369286Y-98259936D01*
X60382686Y-98267253D01*
X60392591Y-98260266D01*
X60413422Y-98235483D01*
X60418642Y-98228298D01*
X60480588Y-98128972D01*
X60533608Y-98081756D01*
X60603738Y-98070700D01*
X60668713Y-98099314D01*
X60707903Y-98158514D01*
X60713500Y-98195649D01*
X60713500Y-98612077D01*
X60712763Y-98625684D01*
X60710797Y-98643785D01*
X60708676Y-98663308D01*
X60709213Y-98669443D01*
X60713050Y-98713308D01*
X60713379Y-98718134D01*
X60713500Y-98720606D01*
X60713500Y-98723689D01*
X60713801Y-98726757D01*
X60717690Y-98766426D01*
X60717812Y-98767739D01*
X60725913Y-98860333D01*
X60727400Y-98865452D01*
X60727920Y-98870753D01*
X60754791Y-98959754D01*
X60755126Y-98960887D01*
X60758865Y-98973754D01*
X60781091Y-99050256D01*
X60783544Y-99054988D01*
X60785084Y-99060089D01*
X60787978Y-99065532D01*
X60828731Y-99142180D01*
X60829343Y-99143346D01*
X60872108Y-99225846D01*
X60875431Y-99230009D01*
X60877934Y-99234716D01*
X60936755Y-99306838D01*
X60937446Y-99307694D01*
X60968738Y-99346893D01*
X60971242Y-99349397D01*
X60971884Y-99350115D01*
X60975585Y-99354448D01*
X61002935Y-99387982D01*
X61007682Y-99391909D01*
X61007684Y-99391911D01*
X61038262Y-99417207D01*
X61047042Y-99425197D01*
X61723504Y-100101658D01*
X62378101Y-100756255D01*
X62412126Y-100818567D01*
X62411290Y-100875726D01*
X62394694Y-100942537D01*
X62366438Y-101218314D01*
X62377322Y-101495321D01*
X62427128Y-101768031D01*
X62514862Y-102031003D01*
X62638774Y-102278989D01*
X62796391Y-102507042D01*
X62984568Y-102710612D01*
X62988022Y-102713424D01*
X63196095Y-102882822D01*
X63196099Y-102882825D01*
X63199552Y-102885636D01*
X63437052Y-103028623D01*
X63441147Y-103030357D01*
X63441149Y-103030358D01*
X63687108Y-103134508D01*
X63692329Y-103136719D01*
X63696622Y-103137857D01*
X63696627Y-103137859D01*
X63836402Y-103174919D01*
X63960291Y-103207767D01*
X64235590Y-103240351D01*
X64512734Y-103233820D01*
X64669260Y-103207767D01*
X64781803Y-103189035D01*
X64781807Y-103189034D01*
X64786193Y-103188304D01*
X64790434Y-103186963D01*
X64790437Y-103186962D01*
X65046264Y-103106054D01*
X65046266Y-103106053D01*
X65050510Y-103104711D01*
X65054521Y-103102785D01*
X65054526Y-103102783D01*
X65296393Y-102986640D01*
X65296394Y-102986639D01*
X65300412Y-102984710D01*
X65445244Y-102887937D01*
X65527205Y-102833173D01*
X65527209Y-102833170D01*
X65530913Y-102830695D01*
X65534230Y-102827724D01*
X65534234Y-102827721D01*
X65734095Y-102648710D01*
X65734096Y-102648709D01*
X65737413Y-102645738D01*
X65915792Y-102433530D01*
X66062492Y-102198305D01*
X66174584Y-101944757D01*
X66249833Y-101677944D01*
X66273774Y-101499701D01*
X66286310Y-101406373D01*
X66286311Y-101406365D01*
X66286737Y-101403191D01*
X66286839Y-101399948D01*
X66290509Y-101283182D01*
X66290509Y-101283177D01*
X66290610Y-101279960D01*
X66271031Y-101003431D01*
X66212684Y-100732420D01*
X66116733Y-100472334D01*
X65985093Y-100228362D01*
X65982452Y-100224787D01*
X65982448Y-100224780D01*
X65823043Y-100008965D01*
X65820390Y-100005373D01*
X65625911Y-99807815D01*
X65622372Y-99805114D01*
X65622365Y-99805108D01*
X65409076Y-99642332D01*
X65405536Y-99639630D01*
X65163662Y-99504174D01*
X65155663Y-99501080D01*
X64909270Y-99405756D01*
X64909264Y-99405754D01*
X64905115Y-99404149D01*
X64900783Y-99403145D01*
X64900780Y-99403144D01*
X64790445Y-99377570D01*
X64635054Y-99341552D01*
X64358867Y-99317632D01*
X64354432Y-99317876D01*
X64354428Y-99317876D01*
X64241985Y-99324064D01*
X64082065Y-99332865D01*
X64077702Y-99333733D01*
X64077701Y-99333733D01*
X64040324Y-99341168D01*
X63918840Y-99365333D01*
X63848127Y-99359005D01*
X63805164Y-99330849D01*
X63638032Y-99163717D01*
X63604006Y-99101405D01*
X63609071Y-99030590D01*
X63651618Y-98973754D01*
X63718138Y-98948943D01*
X63759419Y-98952830D01*
X63956083Y-99004974D01*
X63964804Y-99006638D01*
X64231198Y-99038168D01*
X64240063Y-99038586D01*
X64508228Y-99032266D01*
X64517088Y-99031429D01*
X64781674Y-98987390D01*
X64790331Y-98985311D01*
X65046080Y-98904429D01*
X65054341Y-98901158D01*
X65296145Y-98785045D01*
X65303870Y-98780639D01*
X65508687Y-98643785D01*
X65516975Y-98633867D01*
X65509718Y-98619688D01*
X64057925Y-97167895D01*
X64023899Y-97105583D01*
X64025734Y-97079932D01*
X64692448Y-97079932D01*
X64692579Y-97081765D01*
X64696830Y-97088380D01*
X65868386Y-98259936D01*
X65881786Y-98267253D01*
X65891691Y-98260266D01*
X65912522Y-98235483D01*
X65917742Y-98228298D01*
X66059695Y-98000685D01*
X66063847Y-97992845D01*
X66172315Y-97747494D01*
X66175321Y-97739144D01*
X66248134Y-97480968D01*
X66249935Y-97472275D01*
X66285810Y-97205181D01*
X66286338Y-97198788D01*
X66290008Y-97082022D01*
X66289881Y-97075579D01*
X66270850Y-96806791D01*
X66269597Y-96797988D01*
X66213139Y-96535752D01*
X66210660Y-96527219D01*
X66117817Y-96275557D01*
X66114162Y-96267462D01*
X65986786Y-96031393D01*
X65982024Y-96023888D01*
X65890887Y-95900498D01*
X65879762Y-95892058D01*
X65867166Y-95898884D01*
X64700062Y-97065988D01*
X64692448Y-97079932D01*
X64025734Y-97079932D01*
X64028964Y-97034768D01*
X64057925Y-96989705D01*
X65507855Y-95539775D01*
X65514709Y-95527223D01*
X65506502Y-95516153D01*
X65408802Y-95441590D01*
X65401377Y-95436713D01*
X65167338Y-95305645D01*
X65159285Y-95301856D01*
X64909122Y-95205075D01*
X64900632Y-95202463D01*
X64639314Y-95141893D01*
X64630536Y-95140503D01*
X64363291Y-95117357D01*
X64354420Y-95117217D01*
X64086571Y-95131958D01*
X64077761Y-95133072D01*
X63814675Y-95185402D01*
X63806099Y-95187748D01*
X63774394Y-95198882D01*
X63703493Y-95202580D01*
X63641849Y-95167360D01*
X63609032Y-95104403D01*
X63615461Y-95033698D01*
X63643551Y-94990904D01*
X63803230Y-94831225D01*
X63865542Y-94797199D01*
X63924618Y-94798529D01*
X63955980Y-94806845D01*
X63955994Y-94806848D01*
X63960291Y-94807987D01*
X64235590Y-94840571D01*
X64512734Y-94834040D01*
X64600257Y-94819472D01*
X64781803Y-94789255D01*
X64781807Y-94789254D01*
X64786193Y-94788524D01*
X64790434Y-94787183D01*
X64790437Y-94787182D01*
X65046264Y-94706274D01*
X65046266Y-94706273D01*
X65050510Y-94704931D01*
X65054521Y-94703005D01*
X65054526Y-94703003D01*
X65296393Y-94586860D01*
X65296394Y-94586859D01*
X65300412Y-94584930D01*
X65448688Y-94485856D01*
X65527205Y-94433393D01*
X65527209Y-94433390D01*
X65530913Y-94430915D01*
X65534230Y-94427944D01*
X65534234Y-94427941D01*
X65734095Y-94248930D01*
X65734096Y-94248929D01*
X65737413Y-94245958D01*
X65915792Y-94033750D01*
X66062492Y-93798525D01*
X66174584Y-93544977D01*
X66249833Y-93278164D01*
X66273774Y-93099921D01*
X66286310Y-93006593D01*
X66286311Y-93006585D01*
X66286737Y-93003411D01*
X66290610Y-92880180D01*
X66271031Y-92603651D01*
X66242917Y-92473067D01*
X66248134Y-92402265D01*
X66277000Y-92357455D01*
X69390058Y-89244396D01*
X69400201Y-89235294D01*
X69424897Y-89215438D01*
X69429704Y-89211573D01*
X69461971Y-89173119D01*
X69465151Y-89169472D01*
X69466794Y-89167660D01*
X69468988Y-89165466D01*
X69496321Y-89132192D01*
X69497027Y-89131341D01*
X69539111Y-89081188D01*
X69556833Y-89060067D01*
X69559401Y-89055397D01*
X69562782Y-89051280D01*
X69606694Y-88969383D01*
X69607303Y-88968261D01*
X69649145Y-88892152D01*
X69649147Y-88892147D01*
X69652112Y-88886754D01*
X69653723Y-88881676D01*
X69656242Y-88876978D01*
X69683432Y-88788043D01*
X69683815Y-88786813D01*
X69710050Y-88704111D01*
X69711914Y-88698235D01*
X69712507Y-88692944D01*
X69714067Y-88687843D01*
X69723474Y-88595230D01*
X69723594Y-88594110D01*
X69729179Y-88544314D01*
X69729179Y-88540785D01*
X69729234Y-88539802D01*
X69729683Y-88534097D01*
X69733431Y-88497205D01*
X69733431Y-88497202D01*
X69734053Y-88491078D01*
X69729738Y-88445429D01*
X69729179Y-88433572D01*
X69729179Y-81467800D01*
X69749181Y-81399679D01*
X69802837Y-81353186D01*
X69873111Y-81343082D01*
X69937691Y-81372576D01*
X69959637Y-81397341D01*
X70041518Y-81518735D01*
X70044462Y-81522004D01*
X70044463Y-81522006D01*
X70216168Y-81712704D01*
X70229462Y-81727468D01*
X70444627Y-81908013D01*
X70682825Y-82056855D01*
X70939420Y-82171099D01*
X70943648Y-82172311D01*
X70943647Y-82172311D01*
X71178055Y-82239526D01*
X71209417Y-82248519D01*
X71213767Y-82249130D01*
X71213770Y-82249131D01*
X71315800Y-82263470D01*
X71487561Y-82287610D01*
X71698131Y-82287610D01*
X71700317Y-82287457D01*
X71700321Y-82287457D01*
X71903809Y-82273228D01*
X71903814Y-82273227D01*
X71908194Y-82272921D01*
X71912488Y-82272008D01*
X71912490Y-82272008D01*
X72028698Y-82247307D01*
X72182934Y-82214523D01*
X72187065Y-82213019D01*
X72187070Y-82213018D01*
X72332104Y-82160229D01*
X72446872Y-82118457D01*
X72562729Y-82056855D01*
X72690981Y-81988663D01*
X72690987Y-81988659D01*
X72694873Y-81986593D01*
X72698433Y-81984006D01*
X72698437Y-81984004D01*
X72918545Y-81824086D01*
X72918548Y-81824084D01*
X72922108Y-81821497D01*
X72925275Y-81818439D01*
X73120989Y-81629440D01*
X73120993Y-81629435D01*
X73124154Y-81626383D01*
X73297080Y-81405049D01*
X73372574Y-81274289D01*
X73435314Y-81165621D01*
X73435317Y-81165616D01*
X73437519Y-81161801D01*
X73439169Y-81157717D01*
X73439172Y-81157711D01*
X73541088Y-80905458D01*
X73541089Y-80905455D01*
X73542737Y-80901376D01*
X73610688Y-80628841D01*
X73624798Y-80494601D01*
X73639589Y-80353871D01*
X73639589Y-80353868D01*
X73640048Y-80349502D01*
X73637595Y-80279240D01*
X73630399Y-80073194D01*
X73630398Y-80073188D01*
X73630245Y-80068796D01*
X73581471Y-79792185D01*
X73580116Y-79788014D01*
X73580114Y-79788007D01*
X73496036Y-79529243D01*
X73494675Y-79525054D01*
X73468611Y-79471614D01*
X73422205Y-79376470D01*
X73371546Y-79272603D01*
X73214482Y-79039745D01*
X73026538Y-78831012D01*
X72811373Y-78650467D01*
X72573175Y-78501625D01*
X72316580Y-78387381D01*
X72123097Y-78331901D01*
X72050810Y-78311173D01*
X72050809Y-78311173D01*
X72046583Y-78309961D01*
X72042233Y-78309350D01*
X72042230Y-78309349D01*
X71940200Y-78295010D01*
X71768439Y-78270870D01*
X71557869Y-78270870D01*
X71555683Y-78271023D01*
X71555679Y-78271023D01*
X71352191Y-78285252D01*
X71352186Y-78285253D01*
X71347806Y-78285559D01*
X71343512Y-78286472D01*
X71343510Y-78286472D01*
X71235883Y-78309349D01*
X71073066Y-78343957D01*
X71068935Y-78345461D01*
X71068930Y-78345462D01*
X70959307Y-78385362D01*
X70809128Y-78440023D01*
X70805241Y-78442090D01*
X70565019Y-78569817D01*
X70565013Y-78569821D01*
X70561127Y-78571887D01*
X70557567Y-78574474D01*
X70557563Y-78574476D01*
X70337455Y-78734394D01*
X70333892Y-78736983D01*
X70330728Y-78740039D01*
X70330725Y-78740041D01*
X70135011Y-78929040D01*
X70135007Y-78929045D01*
X70131846Y-78932097D01*
X69958920Y-79153431D01*
X69958833Y-79153581D01*
X69904968Y-79198204D01*
X69834487Y-79206747D01*
X69770576Y-79175830D01*
X69733526Y-79115268D01*
X69729179Y-79082458D01*
X69729179Y-75612503D01*
X75374326Y-75612503D01*
X75379607Y-75619558D01*
X75567821Y-75729541D01*
X75577108Y-75733991D01*
X75789861Y-75815233D01*
X75799763Y-75818110D01*
X76022911Y-75863510D01*
X76033163Y-75864733D01*
X76260738Y-75873077D01*
X76271024Y-75872610D01*
X76496915Y-75843673D01*
X76507001Y-75841530D01*
X76725128Y-75776088D01*
X76734723Y-75772328D01*
X76939237Y-75672137D01*
X76948083Y-75666863D01*
X77013631Y-75620108D01*
X77022032Y-75609408D01*
X77015045Y-75596256D01*
X76212811Y-74794021D01*
X76198868Y-74786408D01*
X76197034Y-74786539D01*
X76190420Y-74790790D01*
X75381083Y-75600128D01*
X75374326Y-75612503D01*
X69729179Y-75612503D01*
X69729179Y-74391662D01*
X74747969Y-74391662D01*
X74761078Y-74619017D01*
X74762514Y-74629237D01*
X74812580Y-74851393D01*
X74815659Y-74861221D01*
X74901338Y-75072223D01*
X74905991Y-75081434D01*
X75001153Y-75236723D01*
X75011611Y-75246185D01*
X75020387Y-75242402D01*
X75827979Y-74434811D01*
X75834356Y-74423132D01*
X76564408Y-74423132D01*
X76564539Y-74424966D01*
X76568790Y-74431580D01*
X77374826Y-75237615D01*
X77386832Y-75244171D01*
X77398571Y-75235202D01*
X77442241Y-75174429D01*
X77447551Y-75165592D01*
X77548450Y-74961438D01*
X77552249Y-74951843D01*
X77618449Y-74733957D01*
X77620628Y-74723876D01*
X77650591Y-74496288D01*
X77651110Y-74489615D01*
X77652680Y-74425365D01*
X77652486Y-74418646D01*
X77633679Y-74189887D01*
X77631994Y-74179707D01*
X77576515Y-73958837D01*
X77573195Y-73949086D01*
X77482384Y-73740233D01*
X77477518Y-73731158D01*
X77398008Y-73608256D01*
X77387322Y-73599052D01*
X77377755Y-73603456D01*
X76572021Y-74409189D01*
X76564408Y-74423132D01*
X75834356Y-74423132D01*
X75835592Y-74420868D01*
X75835461Y-74419034D01*
X75831210Y-74412420D01*
X75025220Y-73606431D01*
X75013688Y-73600134D01*
X75001406Y-73609757D01*
X74939747Y-73700146D01*
X74934654Y-73709110D01*
X74838768Y-73915679D01*
X74835211Y-73925347D01*
X74774352Y-74144797D01*
X74772421Y-74154916D01*
X74748221Y-74381373D01*
X74747969Y-74391662D01*
X69729179Y-74391662D01*
X69729179Y-71846494D01*
X74747170Y-71846494D01*
X74747467Y-71851646D01*
X74747467Y-71851650D01*
X74753502Y-71956313D01*
X74760879Y-72084255D01*
X74762016Y-72089301D01*
X74762017Y-72089307D01*
X74790265Y-72214650D01*
X74813237Y-72316585D01*
X74815179Y-72321367D01*
X74815180Y-72321371D01*
X74897662Y-72524500D01*
X74902837Y-72537244D01*
X75027274Y-72740306D01*
X75183204Y-72920317D01*
X75320146Y-73034008D01*
X75355535Y-73063389D01*
X75395170Y-73122292D01*
X75396668Y-73193272D01*
X75376887Y-73233929D01*
X75383825Y-73246614D01*
X76187189Y-74049979D01*
X76201132Y-74057592D01*
X76202966Y-74057461D01*
X76209580Y-74053210D01*
X77017331Y-73245458D01*
X77024348Y-73232607D01*
X77022815Y-73230503D01*
X76998865Y-73163668D01*
X77014851Y-73094495D01*
X77051480Y-73053726D01*
X77138020Y-72991997D01*
X77306716Y-72823889D01*
X77445690Y-72630486D01*
X77491774Y-72537244D01*
X77548917Y-72421624D01*
X77548918Y-72421622D01*
X77551211Y-72416982D01*
X77620443Y-72189111D01*
X77651529Y-71952992D01*
X77653264Y-71882000D01*
X77633750Y-71644644D01*
X77575731Y-71413663D01*
X77480767Y-71195259D01*
X77463694Y-71168867D01*
X77354216Y-70999642D01*
X77351406Y-70995298D01*
X77191124Y-70819150D01*
X77187073Y-70815951D01*
X77187069Y-70815947D01*
X77008278Y-70674747D01*
X77008273Y-70674744D01*
X77004224Y-70671546D01*
X76999708Y-70669053D01*
X76999705Y-70669051D01*
X76800250Y-70558946D01*
X76800246Y-70558944D01*
X76795726Y-70556449D01*
X76790857Y-70554725D01*
X76790853Y-70554723D01*
X76576105Y-70478676D01*
X76576101Y-70478675D01*
X76571230Y-70476950D01*
X76566140Y-70476043D01*
X76566135Y-70476042D01*
X76438814Y-70453364D01*
X76336764Y-70435186D01*
X76247637Y-70434097D01*
X76103795Y-70432339D01*
X76103793Y-70432339D01*
X76098625Y-70432276D01*
X75863209Y-70468300D01*
X75636838Y-70542289D01*
X75425590Y-70652258D01*
X75421457Y-70655361D01*
X75421454Y-70655363D01*
X75383529Y-70683838D01*
X75235140Y-70795252D01*
X75070602Y-70967431D01*
X74936394Y-71164172D01*
X74934215Y-71168867D01*
X74840489Y-71370784D01*
X74836122Y-71380191D01*
X74772477Y-71609685D01*
X74771928Y-71614819D01*
X74771928Y-71614821D01*
X74766449Y-71666089D01*
X74747170Y-71846494D01*
X69729179Y-71846494D01*
X69729179Y-66821460D01*
X73496852Y-66821460D01*
X73532593Y-67001143D01*
X73535082Y-67010118D01*
X73617708Y-67240250D01*
X73621505Y-67248778D01*
X73737234Y-67464160D01*
X73742245Y-67472027D01*
X73888550Y-67667953D01*
X73894656Y-67674977D01*
X74068316Y-67847127D01*
X74075398Y-67853176D01*
X74272586Y-67997760D01*
X74280505Y-68002708D01*
X74496877Y-68116547D01*
X74505451Y-68120275D01*
X74736282Y-68200885D01*
X74745291Y-68203299D01*
X74912201Y-68234988D01*
X74925261Y-68233704D01*
X74929506Y-68220360D01*
X75438000Y-68220360D01*
X75442171Y-68234565D01*
X75454933Y-68236620D01*
X75491487Y-68232617D01*
X75500649Y-68230919D01*
X75737107Y-68168665D01*
X75745926Y-68165628D01*
X75970584Y-68069107D01*
X75978856Y-68064800D01*
X76186777Y-67936135D01*
X76194317Y-67930657D01*
X76380943Y-67772668D01*
X76387593Y-67766132D01*
X76548813Y-67582295D01*
X76554420Y-67574854D01*
X76686700Y-67369202D01*
X76691147Y-67361011D01*
X76791572Y-67138076D01*
X76794767Y-67129298D01*
X76861135Y-66893973D01*
X76862993Y-66884844D01*
X76871246Y-66819969D01*
X76868958Y-66805708D01*
X76855938Y-66802000D01*
X75456115Y-66802000D01*
X75440876Y-66806475D01*
X75439671Y-66807865D01*
X75438000Y-66815548D01*
X75438000Y-68220360D01*
X74929506Y-68220360D01*
X74930000Y-68218808D01*
X74930000Y-66820115D01*
X74925525Y-66804876D01*
X74924135Y-66803671D01*
X74916452Y-66802000D01*
X73511096Y-66802000D01*
X73498695Y-66805641D01*
X73496852Y-66821460D01*
X69729179Y-66821460D01*
X69729179Y-66275976D01*
X73494675Y-66275976D01*
X73497435Y-66290703D01*
X73509614Y-66294000D01*
X74911885Y-66294000D01*
X74927124Y-66289525D01*
X74928329Y-66288135D01*
X74930000Y-66280452D01*
X74930000Y-66275885D01*
X75438000Y-66275885D01*
X75442475Y-66291124D01*
X75443865Y-66292329D01*
X75451548Y-66294000D01*
X76859671Y-66294000D01*
X76873202Y-66290027D01*
X76874634Y-66280068D01*
X76822979Y-66051786D01*
X76820255Y-66042875D01*
X76731633Y-65814983D01*
X76727619Y-65806567D01*
X76606286Y-65594281D01*
X76601070Y-65586548D01*
X76449692Y-65394525D01*
X76443399Y-65387657D01*
X76265294Y-65220112D01*
X76258060Y-65214254D01*
X76057141Y-65074872D01*
X76049115Y-65070144D01*
X75829810Y-64961995D01*
X75821177Y-64958507D01*
X75588288Y-64883958D01*
X75579238Y-64881785D01*
X75455880Y-64861696D01*
X75442286Y-64863393D01*
X75438000Y-64877500D01*
X75438000Y-66275885D01*
X74930000Y-66275885D01*
X74930000Y-64876859D01*
X74925982Y-64863175D01*
X74912290Y-64861154D01*
X74832521Y-64872010D01*
X74823403Y-64873948D01*
X74588668Y-64942367D01*
X74579915Y-64945639D01*
X74357869Y-65048004D01*
X74349714Y-65052524D01*
X74145233Y-65186587D01*
X74137828Y-65192270D01*
X73955413Y-65355082D01*
X73948935Y-65361790D01*
X73792584Y-65549781D01*
X73787163Y-65557381D01*
X73660322Y-65766409D01*
X73656084Y-65774726D01*
X73561529Y-66000214D01*
X73558572Y-66009052D01*
X73498382Y-66246048D01*
X73496764Y-66255228D01*
X73494675Y-66275976D01*
X69729179Y-66275976D01*
X69729179Y-65861246D01*
X69749181Y-65793125D01*
X69766084Y-65772151D01*
X74873931Y-60664303D01*
X74936243Y-60630277D01*
X74980718Y-60629688D01*
X74980810Y-60628877D01*
X74985461Y-60629407D01*
X74990050Y-60630278D01*
X75110532Y-60635011D01*
X75239125Y-60640064D01*
X75239130Y-60640064D01*
X75243793Y-60640247D01*
X75334830Y-60630277D01*
X75491569Y-60613112D01*
X75491575Y-60613111D01*
X75496222Y-60612602D01*
X75741793Y-60547948D01*
X75859811Y-60497244D01*
X75970807Y-60449557D01*
X75970810Y-60449555D01*
X75975110Y-60447708D01*
X75979090Y-60445245D01*
X75979094Y-60445243D01*
X76187064Y-60316547D01*
X76187066Y-60316545D01*
X76191047Y-60314082D01*
X76194624Y-60311054D01*
X76381289Y-60153031D01*
X76381291Y-60153029D01*
X76384862Y-60150006D01*
X76552295Y-59959084D01*
X76568815Y-59933402D01*
X76687141Y-59749442D01*
X76689669Y-59745512D01*
X76793967Y-59513980D01*
X76862896Y-59269575D01*
X76891640Y-59043631D01*
X76894545Y-59020798D01*
X76894545Y-59020792D01*
X76894943Y-59017667D01*
X76897291Y-58928000D01*
X76892514Y-58863715D01*
X76878818Y-58679411D01*
X76878817Y-58679407D01*
X76878472Y-58674759D01*
X76863722Y-58609571D01*
X76831800Y-58468500D01*
X76822428Y-58427082D01*
X76817250Y-58413767D01*
X76732084Y-58194762D01*
X76732083Y-58194760D01*
X76730391Y-58190409D01*
X76663646Y-58073629D01*
X76606702Y-57973997D01*
X76606700Y-57973995D01*
X76604383Y-57969940D01*
X76447171Y-57770517D01*
X76280844Y-57614053D01*
X76265610Y-57599722D01*
X76265608Y-57599720D01*
X76262209Y-57596523D01*
X76058771Y-57455393D01*
X76057393Y-57454437D01*
X76057390Y-57454435D01*
X76053561Y-57451779D01*
X76049384Y-57449719D01*
X76049377Y-57449715D01*
X75829996Y-57341528D01*
X75829992Y-57341527D01*
X75825810Y-57339464D01*
X75583960Y-57262047D01*
X75409165Y-57233580D01*
X75345146Y-57202889D01*
X75307882Y-57142458D01*
X75309205Y-57071474D01*
X75340324Y-57020124D01*
X75672911Y-56687537D01*
X75687323Y-56675151D01*
X75698918Y-56666618D01*
X75698923Y-56666613D01*
X75704818Y-56662275D01*
X75709557Y-56656697D01*
X75709560Y-56656694D01*
X75739035Y-56621999D01*
X75745965Y-56614483D01*
X75751660Y-56608788D01*
X75769281Y-56586516D01*
X75772072Y-56583112D01*
X75814591Y-56533064D01*
X75814592Y-56533062D01*
X75819333Y-56527482D01*
X75822661Y-56520966D01*
X75826028Y-56515917D01*
X75829195Y-56510788D01*
X75833734Y-56505051D01*
X75864655Y-56438892D01*
X75866561Y-56434992D01*
X75899769Y-56369959D01*
X75901508Y-56362851D01*
X75903607Y-56357208D01*
X75905524Y-56351445D01*
X75908622Y-56344817D01*
X75923487Y-56273350D01*
X75924457Y-56269066D01*
X75940473Y-56203612D01*
X75941808Y-56198157D01*
X75942500Y-56187003D01*
X75942536Y-56187005D01*
X75942775Y-56183012D01*
X75943149Y-56178820D01*
X75944640Y-56171652D01*
X75942546Y-56094246D01*
X75942500Y-56090839D01*
X75942500Y-54465566D01*
X75962502Y-54397445D01*
X76016158Y-54350952D01*
X76086432Y-54340848D01*
X76140771Y-54362353D01*
X76300742Y-54474366D01*
X76305251Y-54477523D01*
X76310233Y-54479846D01*
X76310238Y-54479849D01*
X76465410Y-54552206D01*
X76512757Y-54574284D01*
X76518065Y-54575706D01*
X76518067Y-54575707D01*
X76728598Y-54632119D01*
X76728600Y-54632119D01*
X76733913Y-54633543D01*
X76962000Y-54653498D01*
X77190087Y-54633543D01*
X77195400Y-54632119D01*
X77195402Y-54632119D01*
X77405933Y-54575707D01*
X77405935Y-54575706D01*
X77411243Y-54574284D01*
X77458590Y-54552206D01*
X77613762Y-54479849D01*
X77613767Y-54479846D01*
X77618749Y-54477523D01*
X77782926Y-54362565D01*
X77801789Y-54349357D01*
X77801792Y-54349355D01*
X77806300Y-54346198D01*
X77968198Y-54184300D01*
X77980962Y-54166072D01*
X78002287Y-54135616D01*
X78057744Y-54091288D01*
X78128364Y-54083979D01*
X78191724Y-54116010D01*
X78227709Y-54177211D01*
X78231500Y-54207887D01*
X78231500Y-129785181D01*
X78211498Y-129853302D01*
X78194596Y-129874276D01*
X78058278Y-130010595D01*
X77995966Y-130044620D01*
X77969182Y-130047500D01*
X53720000Y-130047500D01*
X53651879Y-130027498D01*
X53605386Y-129973842D01*
X53594000Y-129921500D01*
X53594000Y-128029447D01*
X57641420Y-128029447D01*
X57648810Y-128039749D01*
X57697283Y-128079212D01*
X57704562Y-128084327D01*
X57934360Y-128222677D01*
X57942284Y-128226714D01*
X58189289Y-128331308D01*
X58197694Y-128334186D01*
X58456983Y-128402934D01*
X58465704Y-128404598D01*
X58732098Y-128436128D01*
X58740963Y-128436546D01*
X59009128Y-128430226D01*
X59017988Y-128429389D01*
X59282574Y-128385350D01*
X59291231Y-128383271D01*
X59546980Y-128302389D01*
X59555241Y-128299118D01*
X59797045Y-128183005D01*
X59804770Y-128178599D01*
X60009587Y-128041745D01*
X60017875Y-128031827D01*
X60010618Y-128017648D01*
X58841752Y-126848782D01*
X58827808Y-126841168D01*
X58825975Y-126841299D01*
X58819360Y-126845550D01*
X57648586Y-128016324D01*
X57641420Y-128029447D01*
X53594000Y-128029447D01*
X53594000Y-126419582D01*
X56868014Y-126419582D01*
X56878545Y-126687617D01*
X56879520Y-126696446D01*
X56927713Y-126960327D01*
X56929922Y-126968929D01*
X57014814Y-127223382D01*
X57018218Y-127231600D01*
X57138116Y-127471554D01*
X57142634Y-127479193D01*
X57265019Y-127656271D01*
X57275337Y-127664622D01*
X57288992Y-127657498D01*
X58456918Y-126489572D01*
X58463296Y-126477892D01*
X59193348Y-126477892D01*
X59193479Y-126479725D01*
X59197730Y-126486340D01*
X60369286Y-127657896D01*
X60382686Y-127665213D01*
X60392591Y-127658226D01*
X60413422Y-127633443D01*
X60418642Y-127626258D01*
X60560595Y-127398645D01*
X60564747Y-127390805D01*
X60673215Y-127145454D01*
X60676221Y-127137104D01*
X60749034Y-126878928D01*
X60750835Y-126870235D01*
X60786710Y-126603141D01*
X60787238Y-126596748D01*
X60790908Y-126479982D01*
X60790781Y-126473539D01*
X60786644Y-126415114D01*
X62366438Y-126415114D01*
X62366613Y-126419566D01*
X62371793Y-126551391D01*
X62377322Y-126692121D01*
X62427128Y-126964831D01*
X62514862Y-127227803D01*
X62638774Y-127475789D01*
X62796391Y-127703842D01*
X62984568Y-127907412D01*
X62988022Y-127910224D01*
X63196095Y-128079622D01*
X63196099Y-128079625D01*
X63199552Y-128082436D01*
X63437052Y-128225423D01*
X63441147Y-128227157D01*
X63441149Y-128227158D01*
X63687108Y-128331308D01*
X63692329Y-128333519D01*
X63696622Y-128334657D01*
X63696627Y-128334659D01*
X63817971Y-128366832D01*
X63960291Y-128404567D01*
X64235590Y-128437151D01*
X64512734Y-128430620D01*
X64669260Y-128404567D01*
X64781803Y-128385835D01*
X64781807Y-128385834D01*
X64786193Y-128385104D01*
X64790434Y-128383763D01*
X64790437Y-128383762D01*
X65046264Y-128302854D01*
X65046266Y-128302853D01*
X65050510Y-128301511D01*
X65054521Y-128299585D01*
X65054526Y-128299583D01*
X65296393Y-128183440D01*
X65296394Y-128183439D01*
X65300412Y-128181510D01*
X65304769Y-128178599D01*
X65527205Y-128029973D01*
X65527209Y-128029970D01*
X65530913Y-128027495D01*
X65534230Y-128024524D01*
X65534234Y-128024521D01*
X65734095Y-127845510D01*
X65734096Y-127845509D01*
X65737413Y-127842538D01*
X65915792Y-127630330D01*
X66062492Y-127395105D01*
X66174584Y-127141557D01*
X66249833Y-126874744D01*
X66273774Y-126696501D01*
X66286310Y-126603173D01*
X66286311Y-126603165D01*
X66286737Y-126599991D01*
X66286839Y-126596748D01*
X66290509Y-126479982D01*
X66290509Y-126479977D01*
X66290610Y-126476760D01*
X66285635Y-126406498D01*
X69615952Y-126406498D01*
X69616105Y-126410886D01*
X69616105Y-126410892D01*
X69618445Y-126477892D01*
X69625755Y-126687204D01*
X69674529Y-126963815D01*
X69675884Y-126967986D01*
X69675886Y-126967993D01*
X69747803Y-127189330D01*
X69761325Y-127230946D01*
X69884454Y-127483397D01*
X70041518Y-127716255D01*
X70044462Y-127719524D01*
X70044463Y-127719526D01*
X70216168Y-127910224D01*
X70229462Y-127924988D01*
X70444627Y-128105533D01*
X70682825Y-128254375D01*
X70939420Y-128368619D01*
X70943648Y-128369831D01*
X70943647Y-128369831D01*
X71178055Y-128437046D01*
X71209417Y-128446039D01*
X71213767Y-128446650D01*
X71213770Y-128446651D01*
X71315800Y-128460990D01*
X71487561Y-128485130D01*
X71698131Y-128485130D01*
X71700317Y-128484977D01*
X71700321Y-128484977D01*
X71903809Y-128470748D01*
X71903814Y-128470747D01*
X71908194Y-128470441D01*
X71912488Y-128469528D01*
X71912490Y-128469528D01*
X72028698Y-128444827D01*
X72182934Y-128412043D01*
X72187065Y-128410539D01*
X72187070Y-128410538D01*
X72332104Y-128357749D01*
X72446872Y-128315977D01*
X72562729Y-128254375D01*
X72690981Y-128186183D01*
X72690987Y-128186179D01*
X72694873Y-128184113D01*
X72698433Y-128181526D01*
X72698437Y-128181524D01*
X72918545Y-128021606D01*
X72918548Y-128021604D01*
X72922108Y-128019017D01*
X72925275Y-128015959D01*
X73120989Y-127826960D01*
X73120993Y-127826955D01*
X73124154Y-127823903D01*
X73297080Y-127602569D01*
X73334278Y-127538140D01*
X73435314Y-127363141D01*
X73435317Y-127363136D01*
X73437519Y-127359321D01*
X73439169Y-127355237D01*
X73439172Y-127355231D01*
X73541088Y-127102978D01*
X73541089Y-127102975D01*
X73542737Y-127098896D01*
X73610688Y-126826361D01*
X73624798Y-126692121D01*
X73639589Y-126551391D01*
X73639589Y-126551388D01*
X73640048Y-126547022D01*
X73637595Y-126476760D01*
X73630399Y-126270714D01*
X73630398Y-126270708D01*
X73630245Y-126266316D01*
X73581471Y-125989705D01*
X73580116Y-125985534D01*
X73580114Y-125985527D01*
X73496036Y-125726763D01*
X73494675Y-125722574D01*
X73480489Y-125693487D01*
X73407487Y-125543813D01*
X73371546Y-125470123D01*
X73214482Y-125237265D01*
X73202989Y-125224500D01*
X73029486Y-125031806D01*
X73029485Y-125031805D01*
X73026538Y-125028532D01*
X72811373Y-124847987D01*
X72573175Y-124699145D01*
X72393702Y-124619238D01*
X72320594Y-124586688D01*
X72320592Y-124586687D01*
X72316580Y-124584901D01*
X72073422Y-124515177D01*
X72050810Y-124508693D01*
X72050809Y-124508693D01*
X72046583Y-124507481D01*
X72042233Y-124506870D01*
X72042230Y-124506869D01*
X71940200Y-124492530D01*
X71768439Y-124468390D01*
X71557869Y-124468390D01*
X71555683Y-124468543D01*
X71555679Y-124468543D01*
X71352191Y-124482772D01*
X71352186Y-124482773D01*
X71347806Y-124483079D01*
X71343512Y-124483992D01*
X71343510Y-124483992D01*
X71235883Y-124506869D01*
X71073066Y-124541477D01*
X71068935Y-124542981D01*
X71068930Y-124542982D01*
X70959307Y-124582882D01*
X70809128Y-124637543D01*
X70805241Y-124639610D01*
X70565019Y-124767337D01*
X70565013Y-124767341D01*
X70561127Y-124769407D01*
X70557567Y-124771994D01*
X70557563Y-124771996D01*
X70337455Y-124931914D01*
X70333892Y-124934503D01*
X70330728Y-124937559D01*
X70330725Y-124937561D01*
X70135011Y-125126560D01*
X70135007Y-125126565D01*
X70131846Y-125129617D01*
X69958920Y-125350951D01*
X69956717Y-125354767D01*
X69823323Y-125585813D01*
X69818481Y-125594199D01*
X69816831Y-125598283D01*
X69816828Y-125598289D01*
X69734233Y-125802721D01*
X69713263Y-125854624D01*
X69712198Y-125858893D01*
X69712198Y-125858895D01*
X69695705Y-125925046D01*
X69645312Y-126127159D01*
X69644853Y-126131529D01*
X69644852Y-126131533D01*
X69616411Y-126402129D01*
X69615952Y-126406498D01*
X66285635Y-126406498D01*
X66271031Y-126200231D01*
X66262882Y-126162378D01*
X66213620Y-125933567D01*
X66213620Y-125933565D01*
X66212684Y-125929220D01*
X66116733Y-125669134D01*
X66114619Y-125665216D01*
X65987206Y-125429078D01*
X65985093Y-125425162D01*
X65982452Y-125421587D01*
X65982448Y-125421580D01*
X65823043Y-125205765D01*
X65820390Y-125202173D01*
X65778307Y-125159423D01*
X65629042Y-125007796D01*
X65625911Y-125004615D01*
X65622372Y-125001914D01*
X65622365Y-125001908D01*
X65476064Y-124890255D01*
X65405536Y-124836430D01*
X65351930Y-124806409D01*
X65167553Y-124703153D01*
X65167552Y-124703153D01*
X65163662Y-124700974D01*
X65154320Y-124697360D01*
X64909270Y-124602556D01*
X64909264Y-124602554D01*
X64905115Y-124600949D01*
X64900783Y-124599945D01*
X64900780Y-124599944D01*
X64790445Y-124574370D01*
X64635054Y-124538352D01*
X64358867Y-124514432D01*
X64354432Y-124514676D01*
X64354428Y-124514676D01*
X64241985Y-124520864D01*
X64082065Y-124529665D01*
X64077702Y-124530533D01*
X64077701Y-124530533D01*
X64040324Y-124537968D01*
X63810171Y-124583749D01*
X63688495Y-124626478D01*
X63552816Y-124674124D01*
X63552808Y-124674127D01*
X63548609Y-124675602D01*
X63544656Y-124677655D01*
X63544650Y-124677658D01*
X63405754Y-124749809D01*
X63302600Y-124803394D01*
X63298985Y-124805977D01*
X63298979Y-124805981D01*
X63156474Y-124907817D01*
X63077051Y-124964574D01*
X63073831Y-124967646D01*
X62900407Y-125133084D01*
X62876462Y-125155926D01*
X62873706Y-125159422D01*
X62873705Y-125159423D01*
X62725453Y-125347480D01*
X62704836Y-125373632D01*
X62676986Y-125421580D01*
X62567832Y-125609502D01*
X62567829Y-125609508D01*
X62565598Y-125613349D01*
X62563928Y-125617472D01*
X62466142Y-125858895D01*
X62461525Y-125870293D01*
X62460454Y-125874606D01*
X62460452Y-125874611D01*
X62443521Y-125942771D01*
X62394694Y-126139337D01*
X62366438Y-126415114D01*
X60786644Y-126415114D01*
X60771750Y-126204751D01*
X60770497Y-126195948D01*
X60714039Y-125933712D01*
X60711560Y-125925179D01*
X60618717Y-125673517D01*
X60615062Y-125665422D01*
X60487686Y-125429353D01*
X60482924Y-125421848D01*
X60391787Y-125298458D01*
X60380662Y-125290018D01*
X60368066Y-125296844D01*
X59200962Y-126463948D01*
X59193348Y-126477892D01*
X58463296Y-126477892D01*
X58464532Y-126475628D01*
X58464401Y-126473795D01*
X58460150Y-126467180D01*
X57289817Y-125296847D01*
X57276977Y-125289836D01*
X57266285Y-125297633D01*
X57208910Y-125370414D01*
X57203915Y-125377763D01*
X57069179Y-125609728D01*
X57065280Y-125617686D01*
X56964575Y-125866314D01*
X56961826Y-125874776D01*
X56897163Y-126135096D01*
X56895634Y-126143857D01*
X56868293Y-126410699D01*
X56868014Y-126419582D01*
X53594000Y-126419582D01*
X53594000Y-124924272D01*
X57641807Y-124924272D01*
X57648787Y-124937397D01*
X58816128Y-126104738D01*
X58830072Y-126112352D01*
X58831905Y-126112221D01*
X58838520Y-126107970D01*
X60008755Y-124937735D01*
X60015609Y-124925183D01*
X60007402Y-124914113D01*
X59909702Y-124839550D01*
X59902277Y-124834673D01*
X59668238Y-124703605D01*
X59660185Y-124699816D01*
X59410022Y-124603035D01*
X59401532Y-124600423D01*
X59140214Y-124539853D01*
X59131436Y-124538463D01*
X58864191Y-124515317D01*
X58855320Y-124515177D01*
X58587471Y-124529918D01*
X58578661Y-124531032D01*
X58315575Y-124583362D01*
X58307000Y-124585708D01*
X58053916Y-124674584D01*
X58045749Y-124678118D01*
X57807713Y-124801769D01*
X57800141Y-124806409D01*
X57650210Y-124913550D01*
X57641807Y-124924272D01*
X53594000Y-124924272D01*
X53594000Y-122213954D01*
X56867338Y-122213954D01*
X56878222Y-122490961D01*
X56928028Y-122763671D01*
X57015762Y-123026643D01*
X57139674Y-123274629D01*
X57297291Y-123502682D01*
X57485468Y-123706252D01*
X57488922Y-123709064D01*
X57696995Y-123878462D01*
X57696999Y-123878465D01*
X57700452Y-123881276D01*
X57937952Y-124024263D01*
X57942047Y-124025997D01*
X57942049Y-124025998D01*
X58117640Y-124100351D01*
X58193229Y-124132359D01*
X58197522Y-124133497D01*
X58197527Y-124133499D01*
X58337302Y-124170559D01*
X58461191Y-124203407D01*
X58736490Y-124235991D01*
X59013634Y-124229460D01*
X59170160Y-124203407D01*
X59282703Y-124184675D01*
X59282707Y-124184674D01*
X59287093Y-124183944D01*
X59291334Y-124182603D01*
X59291337Y-124182602D01*
X59547164Y-124101694D01*
X59547166Y-124101693D01*
X59551410Y-124100351D01*
X59555421Y-124098425D01*
X59555426Y-124098423D01*
X59797293Y-123982280D01*
X59797294Y-123982279D01*
X59801312Y-123980350D01*
X59805018Y-123977874D01*
X60028105Y-123828813D01*
X60028109Y-123828810D01*
X60031813Y-123826335D01*
X60035130Y-123823364D01*
X60035134Y-123823361D01*
X60234995Y-123644350D01*
X60234996Y-123644349D01*
X60238313Y-123641378D01*
X60416692Y-123429170D01*
X60563392Y-123193945D01*
X60675484Y-122940397D01*
X60750733Y-122673584D01*
X60774674Y-122495341D01*
X60787210Y-122402013D01*
X60787211Y-122402005D01*
X60787637Y-122398831D01*
X60791510Y-122275600D01*
X60787145Y-122213954D01*
X62366438Y-122213954D01*
X62377322Y-122490961D01*
X62427128Y-122763671D01*
X62514862Y-123026643D01*
X62638774Y-123274629D01*
X62796391Y-123502682D01*
X62984568Y-123706252D01*
X62988022Y-123709064D01*
X63196095Y-123878462D01*
X63196099Y-123878465D01*
X63199552Y-123881276D01*
X63437052Y-124024263D01*
X63441147Y-124025997D01*
X63441149Y-124025998D01*
X63616740Y-124100351D01*
X63692329Y-124132359D01*
X63696622Y-124133497D01*
X63696627Y-124133499D01*
X63836402Y-124170559D01*
X63960291Y-124203407D01*
X64235590Y-124235991D01*
X64512734Y-124229460D01*
X64669260Y-124203407D01*
X64781803Y-124184675D01*
X64781807Y-124184674D01*
X64786193Y-124183944D01*
X64790434Y-124182603D01*
X64790437Y-124182602D01*
X65046264Y-124101694D01*
X65046266Y-124101693D01*
X65050510Y-124100351D01*
X65054521Y-124098425D01*
X65054526Y-124098423D01*
X65296393Y-123982280D01*
X65296394Y-123982279D01*
X65300412Y-123980350D01*
X65304118Y-123977874D01*
X65527205Y-123828813D01*
X65527209Y-123828810D01*
X65530913Y-123826335D01*
X65534230Y-123823364D01*
X65534234Y-123823361D01*
X65734095Y-123644350D01*
X65734096Y-123644349D01*
X65737413Y-123641378D01*
X65915792Y-123429170D01*
X66062492Y-123193945D01*
X66174584Y-122940397D01*
X66249833Y-122673584D01*
X66273774Y-122495341D01*
X66286310Y-122402013D01*
X66286311Y-122402005D01*
X66286737Y-122398831D01*
X66290610Y-122275600D01*
X66271031Y-121999071D01*
X66212684Y-121728060D01*
X66116733Y-121467974D01*
X65985093Y-121224002D01*
X65982452Y-121220427D01*
X65982448Y-121220420D01*
X65823043Y-121004605D01*
X65820390Y-121001013D01*
X65778307Y-120958263D01*
X65629042Y-120806636D01*
X65625911Y-120803455D01*
X65622372Y-120800754D01*
X65622365Y-120800748D01*
X65409076Y-120637972D01*
X65405536Y-120635270D01*
X65401647Y-120633092D01*
X65167553Y-120501993D01*
X65167552Y-120501993D01*
X65163662Y-120499814D01*
X65155663Y-120496720D01*
X64909270Y-120401396D01*
X64909264Y-120401394D01*
X64905115Y-120399789D01*
X64900783Y-120398785D01*
X64900780Y-120398784D01*
X64790445Y-120373210D01*
X64635054Y-120337192D01*
X64358867Y-120313272D01*
X64354432Y-120313516D01*
X64354428Y-120313516D01*
X64241985Y-120319704D01*
X64082065Y-120328505D01*
X63810171Y-120382589D01*
X63688495Y-120425318D01*
X63552816Y-120472964D01*
X63552808Y-120472967D01*
X63548609Y-120474442D01*
X63544656Y-120476495D01*
X63544650Y-120476498D01*
X63405754Y-120548649D01*
X63302600Y-120602234D01*
X63298985Y-120604817D01*
X63298979Y-120604821D01*
X63232342Y-120652441D01*
X63077051Y-120763414D01*
X62876462Y-120954766D01*
X62704836Y-121172472D01*
X62702599Y-121176324D01*
X62567832Y-121408342D01*
X62567829Y-121408348D01*
X62565598Y-121412189D01*
X62461525Y-121669133D01*
X62460454Y-121673446D01*
X62460452Y-121673451D01*
X62414145Y-121859871D01*
X62394694Y-121938177D01*
X62366438Y-122213954D01*
X60787145Y-122213954D01*
X60771931Y-121999071D01*
X60713584Y-121728060D01*
X60617633Y-121467974D01*
X60485993Y-121224002D01*
X60483352Y-121220427D01*
X60483348Y-121220420D01*
X60323943Y-121004605D01*
X60321290Y-121001013D01*
X60279207Y-120958263D01*
X60129942Y-120806636D01*
X60126811Y-120803455D01*
X60123272Y-120800754D01*
X60123265Y-120800748D01*
X59909976Y-120637972D01*
X59906436Y-120635270D01*
X59902547Y-120633092D01*
X59668453Y-120501993D01*
X59668452Y-120501993D01*
X59664562Y-120499814D01*
X59656563Y-120496720D01*
X59410170Y-120401396D01*
X59410164Y-120401394D01*
X59406015Y-120399789D01*
X59401683Y-120398785D01*
X59401680Y-120398784D01*
X59291345Y-120373210D01*
X59135954Y-120337192D01*
X58859767Y-120313272D01*
X58855332Y-120313516D01*
X58855328Y-120313516D01*
X58742885Y-120319704D01*
X58582965Y-120328505D01*
X58311071Y-120382589D01*
X58189395Y-120425318D01*
X58053716Y-120472964D01*
X58053708Y-120472967D01*
X58049509Y-120474442D01*
X58045556Y-120476495D01*
X58045550Y-120476498D01*
X57906654Y-120548649D01*
X57803500Y-120602234D01*
X57799885Y-120604817D01*
X57799879Y-120604821D01*
X57733242Y-120652441D01*
X57577951Y-120763414D01*
X57377362Y-120954766D01*
X57205736Y-121172472D01*
X57203499Y-121176324D01*
X57068732Y-121408342D01*
X57068729Y-121408348D01*
X57066498Y-121412189D01*
X56962425Y-121669133D01*
X56961354Y-121673446D01*
X56961352Y-121673451D01*
X56915045Y-121859871D01*
X56895594Y-121938177D01*
X56867338Y-122213954D01*
X53594000Y-122213954D01*
X53594000Y-118015334D01*
X56867338Y-118015334D01*
X56878222Y-118292341D01*
X56928028Y-118565051D01*
X57015762Y-118828023D01*
X57139674Y-119076009D01*
X57297291Y-119304062D01*
X57485468Y-119507632D01*
X57488922Y-119510444D01*
X57696995Y-119679842D01*
X57696999Y-119679845D01*
X57700452Y-119682656D01*
X57937952Y-119825643D01*
X57942047Y-119827377D01*
X57942049Y-119827378D01*
X58117640Y-119901731D01*
X58193229Y-119933739D01*
X58197522Y-119934877D01*
X58197527Y-119934879D01*
X58337302Y-119971939D01*
X58461191Y-120004787D01*
X58736490Y-120037371D01*
X59013634Y-120030840D01*
X59170160Y-120004787D01*
X59282703Y-119986055D01*
X59282707Y-119986054D01*
X59287093Y-119985324D01*
X59291334Y-119983983D01*
X59291337Y-119983982D01*
X59547164Y-119903074D01*
X59547166Y-119903073D01*
X59551410Y-119901731D01*
X59555421Y-119899805D01*
X59555426Y-119899803D01*
X59797293Y-119783660D01*
X59797294Y-119783659D01*
X59801312Y-119781730D01*
X59949588Y-119682656D01*
X60028105Y-119630193D01*
X60028109Y-119630190D01*
X60031813Y-119627715D01*
X60035130Y-119624744D01*
X60035134Y-119624741D01*
X60234995Y-119445730D01*
X60234996Y-119445729D01*
X60238313Y-119442758D01*
X60416692Y-119230550D01*
X60563392Y-118995325D01*
X60675484Y-118741777D01*
X60750733Y-118474964D01*
X60774674Y-118296721D01*
X60787210Y-118203393D01*
X60787211Y-118203385D01*
X60787637Y-118200211D01*
X60791510Y-118076980D01*
X60787145Y-118015334D01*
X62366438Y-118015334D01*
X62377322Y-118292341D01*
X62427128Y-118565051D01*
X62514862Y-118828023D01*
X62638774Y-119076009D01*
X62796391Y-119304062D01*
X62984568Y-119507632D01*
X62988022Y-119510444D01*
X63196095Y-119679842D01*
X63196099Y-119679845D01*
X63199552Y-119682656D01*
X63437052Y-119825643D01*
X63441147Y-119827377D01*
X63441149Y-119827378D01*
X63616740Y-119901731D01*
X63692329Y-119933739D01*
X63696622Y-119934877D01*
X63696627Y-119934879D01*
X63836402Y-119971939D01*
X63960291Y-120004787D01*
X64235590Y-120037371D01*
X64512734Y-120030840D01*
X64669260Y-120004787D01*
X64781803Y-119986055D01*
X64781807Y-119986054D01*
X64786193Y-119985324D01*
X64790434Y-119983983D01*
X64790437Y-119983982D01*
X65046264Y-119903074D01*
X65046266Y-119903073D01*
X65050510Y-119901731D01*
X65054521Y-119899805D01*
X65054526Y-119899803D01*
X65296393Y-119783660D01*
X65296394Y-119783659D01*
X65300412Y-119781730D01*
X65448688Y-119682656D01*
X65527205Y-119630193D01*
X65527209Y-119630190D01*
X65530913Y-119627715D01*
X65534230Y-119624744D01*
X65534234Y-119624741D01*
X65734095Y-119445730D01*
X65734096Y-119445729D01*
X65737413Y-119442758D01*
X65915792Y-119230550D01*
X66062492Y-118995325D01*
X66174584Y-118741777D01*
X66249833Y-118474964D01*
X66273774Y-118296721D01*
X66286310Y-118203393D01*
X66286311Y-118203385D01*
X66286737Y-118200211D01*
X66290610Y-118076980D01*
X66271031Y-117800451D01*
X66212684Y-117529440D01*
X66116733Y-117269354D01*
X66019705Y-117089530D01*
X65987206Y-117029298D01*
X65985093Y-117025382D01*
X65982452Y-117021807D01*
X65982448Y-117021800D01*
X65823043Y-116805985D01*
X65820390Y-116802393D01*
X65778307Y-116759643D01*
X65629042Y-116608016D01*
X65625911Y-116604835D01*
X65622372Y-116602134D01*
X65622365Y-116602128D01*
X65409076Y-116439352D01*
X65405536Y-116436650D01*
X65401647Y-116434472D01*
X65167553Y-116303373D01*
X65167552Y-116303373D01*
X65163662Y-116301194D01*
X65155663Y-116298100D01*
X64909270Y-116202776D01*
X64909264Y-116202774D01*
X64905115Y-116201169D01*
X64900783Y-116200165D01*
X64900780Y-116200164D01*
X64790445Y-116174590D01*
X64635054Y-116138572D01*
X64358867Y-116114652D01*
X64354432Y-116114896D01*
X64354428Y-116114896D01*
X64241985Y-116121084D01*
X64082065Y-116129885D01*
X63810171Y-116183969D01*
X63688495Y-116226698D01*
X63552816Y-116274344D01*
X63552808Y-116274347D01*
X63548609Y-116275822D01*
X63544656Y-116277875D01*
X63544650Y-116277878D01*
X63495571Y-116303373D01*
X63302600Y-116403614D01*
X63298985Y-116406197D01*
X63298979Y-116406201D01*
X63156474Y-116508037D01*
X63077051Y-116564794D01*
X62876462Y-116756146D01*
X62704836Y-116973852D01*
X62702599Y-116977704D01*
X62567832Y-117209722D01*
X62567829Y-117209728D01*
X62565598Y-117213569D01*
X62461525Y-117470513D01*
X62460454Y-117474826D01*
X62460452Y-117474831D01*
X62414145Y-117661251D01*
X62394694Y-117739557D01*
X62366438Y-118015334D01*
X60787145Y-118015334D01*
X60771931Y-117800451D01*
X60713584Y-117529440D01*
X60617633Y-117269354D01*
X60520605Y-117089530D01*
X60488106Y-117029298D01*
X60485993Y-117025382D01*
X60483352Y-117021807D01*
X60483348Y-117021800D01*
X60323943Y-116805985D01*
X60321290Y-116802393D01*
X60279207Y-116759643D01*
X60129942Y-116608016D01*
X60126811Y-116604835D01*
X60123272Y-116602134D01*
X60123265Y-116602128D01*
X59909976Y-116439352D01*
X59906436Y-116436650D01*
X59902547Y-116434472D01*
X59668453Y-116303373D01*
X59668452Y-116303373D01*
X59664562Y-116301194D01*
X59656563Y-116298100D01*
X59410170Y-116202776D01*
X59410164Y-116202774D01*
X59406015Y-116201169D01*
X59401683Y-116200165D01*
X59401680Y-116200164D01*
X59291345Y-116174590D01*
X59135954Y-116138572D01*
X58859767Y-116114652D01*
X58855332Y-116114896D01*
X58855328Y-116114896D01*
X58742885Y-116121084D01*
X58582965Y-116129885D01*
X58311071Y-116183969D01*
X58189395Y-116226698D01*
X58053716Y-116274344D01*
X58053708Y-116274347D01*
X58049509Y-116275822D01*
X58045556Y-116277875D01*
X58045550Y-116277878D01*
X57996471Y-116303373D01*
X57803500Y-116403614D01*
X57799885Y-116406197D01*
X57799879Y-116406201D01*
X57657374Y-116508037D01*
X57577951Y-116564794D01*
X57377362Y-116756146D01*
X57205736Y-116973852D01*
X57203499Y-116977704D01*
X57068732Y-117209722D01*
X57068729Y-117209728D01*
X57066498Y-117213569D01*
X56962425Y-117470513D01*
X56961354Y-117474826D01*
X56961352Y-117474831D01*
X56915045Y-117661251D01*
X56895594Y-117739557D01*
X56867338Y-118015334D01*
X53594000Y-118015334D01*
X53594000Y-115367500D01*
X53614002Y-115299379D01*
X53667658Y-115252886D01*
X53720000Y-115241500D01*
X57370295Y-115241500D01*
X57438416Y-115261502D01*
X57462819Y-115281971D01*
X57485468Y-115306472D01*
X57488922Y-115309284D01*
X57696995Y-115478682D01*
X57696999Y-115478685D01*
X57700452Y-115481496D01*
X57937952Y-115624483D01*
X57942047Y-115626217D01*
X57942049Y-115626218D01*
X58119300Y-115701274D01*
X58193229Y-115732579D01*
X58197522Y-115733717D01*
X58197527Y-115733719D01*
X58337302Y-115770779D01*
X58461191Y-115803627D01*
X58736490Y-115836211D01*
X59013634Y-115829680D01*
X59170160Y-115803627D01*
X59282703Y-115784895D01*
X59282707Y-115784894D01*
X59287093Y-115784164D01*
X59291334Y-115782823D01*
X59291337Y-115782822D01*
X59547164Y-115701914D01*
X59547166Y-115701913D01*
X59551410Y-115700571D01*
X59555421Y-115698645D01*
X59555426Y-115698643D01*
X59797293Y-115582500D01*
X59797294Y-115582499D01*
X59801312Y-115580570D01*
X59805018Y-115578094D01*
X60028105Y-115429033D01*
X60028109Y-115429030D01*
X60031813Y-115426555D01*
X60035130Y-115423584D01*
X60035134Y-115423581D01*
X60234995Y-115244570D01*
X60234996Y-115244569D01*
X60238313Y-115241598D01*
X60416692Y-115029390D01*
X60563392Y-114794165D01*
X60675484Y-114540617D01*
X60750733Y-114273804D01*
X60774674Y-114095561D01*
X60787210Y-114002233D01*
X60787211Y-114002225D01*
X60787637Y-113999051D01*
X60791510Y-113875820D01*
X60787145Y-113814174D01*
X62366438Y-113814174D01*
X62377322Y-114091181D01*
X62427128Y-114363891D01*
X62514862Y-114626863D01*
X62638774Y-114874849D01*
X62796391Y-115102902D01*
X62799413Y-115106171D01*
X62961921Y-115281972D01*
X62984568Y-115306472D01*
X62988022Y-115309284D01*
X63196095Y-115478682D01*
X63196099Y-115478685D01*
X63199552Y-115481496D01*
X63437052Y-115624483D01*
X63441147Y-115626217D01*
X63441149Y-115626218D01*
X63618400Y-115701274D01*
X63692329Y-115732579D01*
X63696622Y-115733717D01*
X63696627Y-115733719D01*
X63836402Y-115770779D01*
X63960291Y-115803627D01*
X64235590Y-115836211D01*
X64512734Y-115829680D01*
X64669260Y-115803627D01*
X64781803Y-115784895D01*
X64781807Y-115784894D01*
X64786193Y-115784164D01*
X64790434Y-115782823D01*
X64790437Y-115782822D01*
X65046264Y-115701914D01*
X65046266Y-115701913D01*
X65050510Y-115700571D01*
X65054521Y-115698645D01*
X65054526Y-115698643D01*
X65296393Y-115582500D01*
X65296394Y-115582499D01*
X65300412Y-115580570D01*
X65304118Y-115578094D01*
X65527205Y-115429033D01*
X65527209Y-115429030D01*
X65530913Y-115426555D01*
X65534230Y-115423584D01*
X65534234Y-115423581D01*
X65734095Y-115244570D01*
X65734096Y-115244569D01*
X65737413Y-115241598D01*
X65915792Y-115029390D01*
X66062492Y-114794165D01*
X66174584Y-114540617D01*
X66249833Y-114273804D01*
X66273774Y-114095561D01*
X66286310Y-114002233D01*
X66286311Y-114002225D01*
X66286737Y-113999051D01*
X66290610Y-113875820D01*
X66271031Y-113599291D01*
X66212684Y-113328280D01*
X66130925Y-113106663D01*
X66118274Y-113072371D01*
X66116733Y-113068194D01*
X65985093Y-112824222D01*
X65982452Y-112820647D01*
X65982448Y-112820640D01*
X65823043Y-112604825D01*
X65820390Y-112601233D01*
X65778307Y-112558483D01*
X65629042Y-112406856D01*
X65625911Y-112403675D01*
X65622372Y-112400974D01*
X65622365Y-112400968D01*
X65409076Y-112238192D01*
X65405536Y-112235490D01*
X65401647Y-112233312D01*
X65167553Y-112102213D01*
X65167552Y-112102213D01*
X65163662Y-112100034D01*
X65155663Y-112096940D01*
X64909270Y-112001616D01*
X64909264Y-112001614D01*
X64905115Y-112000009D01*
X64900783Y-111999005D01*
X64900780Y-111999004D01*
X64790445Y-111973430D01*
X64635054Y-111937412D01*
X64358867Y-111913492D01*
X64354432Y-111913736D01*
X64354428Y-111913736D01*
X64241985Y-111919924D01*
X64082065Y-111928725D01*
X63810171Y-111982809D01*
X63688495Y-112025538D01*
X63552816Y-112073184D01*
X63552808Y-112073187D01*
X63548609Y-112074662D01*
X63544656Y-112076715D01*
X63544650Y-112076718D01*
X63495571Y-112102213D01*
X63302600Y-112202454D01*
X63298985Y-112205037D01*
X63298979Y-112205041D01*
X63156474Y-112306877D01*
X63077051Y-112363634D01*
X63073831Y-112366706D01*
X62908420Y-112524500D01*
X62876462Y-112554986D01*
X62704836Y-112772692D01*
X62702599Y-112776544D01*
X62567832Y-113008562D01*
X62567829Y-113008568D01*
X62565598Y-113012409D01*
X62563928Y-113016532D01*
X62530728Y-113098500D01*
X62461525Y-113269353D01*
X62460454Y-113273666D01*
X62460452Y-113273671D01*
X62414145Y-113460091D01*
X62394694Y-113538397D01*
X62366438Y-113814174D01*
X60787145Y-113814174D01*
X60771931Y-113599291D01*
X60713584Y-113328280D01*
X60631825Y-113106663D01*
X60619174Y-113072371D01*
X60617633Y-113068194D01*
X60485993Y-112824222D01*
X60483352Y-112820647D01*
X60483348Y-112820640D01*
X60323943Y-112604825D01*
X60321290Y-112601233D01*
X60279207Y-112558483D01*
X60129942Y-112406856D01*
X60126811Y-112403675D01*
X60123272Y-112400974D01*
X60123265Y-112400968D01*
X59909976Y-112238192D01*
X59906436Y-112235490D01*
X59902547Y-112233312D01*
X59668453Y-112102213D01*
X59668452Y-112102213D01*
X59664562Y-112100034D01*
X59656563Y-112096940D01*
X59410170Y-112001616D01*
X59410164Y-112001614D01*
X59406015Y-112000009D01*
X59401683Y-111999005D01*
X59401680Y-111999004D01*
X59291345Y-111973430D01*
X59135954Y-111937412D01*
X58859767Y-111913492D01*
X58855332Y-111913736D01*
X58855328Y-111913736D01*
X58742885Y-111919924D01*
X58582965Y-111928725D01*
X58311071Y-111982809D01*
X58189395Y-112025538D01*
X58053716Y-112073184D01*
X58053708Y-112073187D01*
X58049509Y-112074662D01*
X58045556Y-112076715D01*
X58045550Y-112076718D01*
X57996471Y-112102213D01*
X57803500Y-112202454D01*
X57799885Y-112205037D01*
X57799879Y-112205041D01*
X57657374Y-112306877D01*
X57577951Y-112363634D01*
X57574731Y-112366706D01*
X57409320Y-112524500D01*
X57377362Y-112554986D01*
X57205736Y-112772692D01*
X57066498Y-113012409D01*
X57064828Y-113016531D01*
X57064825Y-113016538D01*
X57012468Y-113145802D01*
X56968355Y-113201431D01*
X56895684Y-113224500D01*
X53720000Y-113224500D01*
X53651879Y-113204498D01*
X53605386Y-113150842D01*
X53594000Y-113098500D01*
X53594000Y-109615554D01*
X56867338Y-109615554D01*
X56878222Y-109892561D01*
X56928028Y-110165271D01*
X57015762Y-110428243D01*
X57139674Y-110676229D01*
X57297291Y-110904282D01*
X57485468Y-111107852D01*
X57488922Y-111110664D01*
X57696995Y-111280062D01*
X57696999Y-111280065D01*
X57700452Y-111282876D01*
X57937952Y-111425863D01*
X57942047Y-111427597D01*
X57942049Y-111427598D01*
X58117640Y-111501951D01*
X58193229Y-111533959D01*
X58197522Y-111535097D01*
X58197527Y-111535099D01*
X58337302Y-111572159D01*
X58461191Y-111605007D01*
X58736490Y-111637591D01*
X59013634Y-111631060D01*
X59170160Y-111605007D01*
X59282703Y-111586275D01*
X59282707Y-111586274D01*
X59287093Y-111585544D01*
X59291334Y-111584203D01*
X59291337Y-111584202D01*
X59547164Y-111503294D01*
X59547166Y-111503293D01*
X59551410Y-111501951D01*
X59555421Y-111500025D01*
X59555426Y-111500023D01*
X59797293Y-111383880D01*
X59797294Y-111383879D01*
X59801312Y-111381950D01*
X59805018Y-111379474D01*
X60028105Y-111230413D01*
X60028109Y-111230410D01*
X60031813Y-111227935D01*
X60035130Y-111224964D01*
X60035134Y-111224961D01*
X60234995Y-111045950D01*
X60234996Y-111045949D01*
X60238313Y-111042978D01*
X60416692Y-110830770D01*
X60563392Y-110595545D01*
X60675484Y-110341997D01*
X60750733Y-110075184D01*
X60774674Y-109896941D01*
X60787210Y-109803613D01*
X60787211Y-109803605D01*
X60787637Y-109800431D01*
X60791510Y-109677200D01*
X60787145Y-109615554D01*
X62366438Y-109615554D01*
X62377322Y-109892561D01*
X62427128Y-110165271D01*
X62514862Y-110428243D01*
X62638774Y-110676229D01*
X62796391Y-110904282D01*
X62984568Y-111107852D01*
X62988022Y-111110664D01*
X63196095Y-111280062D01*
X63196099Y-111280065D01*
X63199552Y-111282876D01*
X63437052Y-111425863D01*
X63441147Y-111427597D01*
X63441149Y-111427598D01*
X63616740Y-111501951D01*
X63692329Y-111533959D01*
X63696622Y-111535097D01*
X63696627Y-111535099D01*
X63836402Y-111572159D01*
X63960291Y-111605007D01*
X64235590Y-111637591D01*
X64512734Y-111631060D01*
X64669260Y-111605007D01*
X64781803Y-111586275D01*
X64781807Y-111586274D01*
X64786193Y-111585544D01*
X64790434Y-111584203D01*
X64790437Y-111584202D01*
X65046264Y-111503294D01*
X65046266Y-111503293D01*
X65050510Y-111501951D01*
X65054521Y-111500025D01*
X65054526Y-111500023D01*
X65296393Y-111383880D01*
X65296394Y-111383879D01*
X65300412Y-111381950D01*
X65304118Y-111379474D01*
X65527205Y-111230413D01*
X65527209Y-111230410D01*
X65530913Y-111227935D01*
X65534230Y-111224964D01*
X65534234Y-111224961D01*
X65734095Y-111045950D01*
X65734096Y-111045949D01*
X65737413Y-111042978D01*
X65915792Y-110830770D01*
X66062492Y-110595545D01*
X66174584Y-110341997D01*
X66249833Y-110075184D01*
X66273774Y-109896941D01*
X66286310Y-109803613D01*
X66286311Y-109803605D01*
X66286737Y-109800431D01*
X66290610Y-109677200D01*
X66271031Y-109400671D01*
X66212684Y-109129660D01*
X66116733Y-108869574D01*
X65985093Y-108625602D01*
X65982452Y-108622027D01*
X65982448Y-108622020D01*
X65823043Y-108406205D01*
X65820390Y-108402613D01*
X65778307Y-108359863D01*
X65629042Y-108208236D01*
X65625911Y-108205055D01*
X65622372Y-108202354D01*
X65622365Y-108202348D01*
X65409076Y-108039572D01*
X65405536Y-108036870D01*
X65401647Y-108034692D01*
X65167553Y-107903593D01*
X65167552Y-107903593D01*
X65163662Y-107901414D01*
X65145514Y-107894393D01*
X64909270Y-107802996D01*
X64909264Y-107802994D01*
X64905115Y-107801389D01*
X64900783Y-107800385D01*
X64900780Y-107800384D01*
X64790445Y-107774810D01*
X64635054Y-107738792D01*
X64358867Y-107714872D01*
X64354432Y-107715116D01*
X64354428Y-107715116D01*
X64241985Y-107721304D01*
X64082065Y-107730105D01*
X63810171Y-107784189D01*
X63726537Y-107813559D01*
X63552816Y-107874564D01*
X63552808Y-107874567D01*
X63548609Y-107876042D01*
X63544656Y-107878095D01*
X63544650Y-107878098D01*
X63405754Y-107950249D01*
X63302600Y-108003834D01*
X63298985Y-108006417D01*
X63298979Y-108006421D01*
X63156474Y-108108257D01*
X63077051Y-108165014D01*
X62876462Y-108356366D01*
X62873706Y-108359862D01*
X62873705Y-108359863D01*
X62741705Y-108527304D01*
X62704836Y-108574072D01*
X62702599Y-108577924D01*
X62567832Y-108809942D01*
X62567829Y-108809948D01*
X62565598Y-108813789D01*
X62461525Y-109070733D01*
X62460454Y-109075046D01*
X62460452Y-109075051D01*
X62414145Y-109261471D01*
X62394694Y-109339777D01*
X62366438Y-109615554D01*
X60787145Y-109615554D01*
X60771931Y-109400671D01*
X60713584Y-109129660D01*
X60617633Y-108869574D01*
X60485993Y-108625602D01*
X60483352Y-108622027D01*
X60483348Y-108622020D01*
X60323943Y-108406205D01*
X60321290Y-108402613D01*
X60279207Y-108359863D01*
X60129942Y-108208236D01*
X60126811Y-108205055D01*
X60123272Y-108202354D01*
X60123265Y-108202348D01*
X59909976Y-108039572D01*
X59906436Y-108036870D01*
X59902547Y-108034692D01*
X59668453Y-107903593D01*
X59668452Y-107903593D01*
X59664562Y-107901414D01*
X59646414Y-107894393D01*
X59410170Y-107802996D01*
X59410164Y-107802994D01*
X59406015Y-107801389D01*
X59401683Y-107800385D01*
X59401680Y-107800384D01*
X59291345Y-107774810D01*
X59135954Y-107738792D01*
X58859767Y-107714872D01*
X58855332Y-107715116D01*
X58855328Y-107715116D01*
X58742885Y-107721304D01*
X58582965Y-107730105D01*
X58311071Y-107784189D01*
X58227437Y-107813559D01*
X58053716Y-107874564D01*
X58053708Y-107874567D01*
X58049509Y-107876042D01*
X58045556Y-107878095D01*
X58045550Y-107878098D01*
X57906654Y-107950249D01*
X57803500Y-108003834D01*
X57799885Y-108006417D01*
X57799879Y-108006421D01*
X57657374Y-108108257D01*
X57577951Y-108165014D01*
X57377362Y-108356366D01*
X57374606Y-108359862D01*
X57374605Y-108359863D01*
X57242605Y-108527304D01*
X57205736Y-108574072D01*
X57203499Y-108577924D01*
X57068732Y-108809942D01*
X57068729Y-108809948D01*
X57066498Y-108813789D01*
X56962425Y-109070733D01*
X56961354Y-109075046D01*
X56961352Y-109075051D01*
X56915045Y-109261471D01*
X56895594Y-109339777D01*
X56867338Y-109615554D01*
X53594000Y-109615554D01*
X53594000Y-107028727D01*
X57641420Y-107028727D01*
X57648810Y-107039029D01*
X57697283Y-107078492D01*
X57704562Y-107083607D01*
X57934360Y-107221957D01*
X57942284Y-107225994D01*
X58189289Y-107330588D01*
X58197694Y-107333466D01*
X58456983Y-107402214D01*
X58465704Y-107403878D01*
X58732098Y-107435408D01*
X58740963Y-107435826D01*
X59009128Y-107429506D01*
X59017988Y-107428669D01*
X59282574Y-107384630D01*
X59291231Y-107382551D01*
X59546980Y-107301669D01*
X59555241Y-107298398D01*
X59797045Y-107182285D01*
X59804770Y-107177879D01*
X60009587Y-107041025D01*
X60017875Y-107031107D01*
X60016657Y-107028727D01*
X63140520Y-107028727D01*
X63147910Y-107039029D01*
X63196383Y-107078492D01*
X63203662Y-107083607D01*
X63433460Y-107221957D01*
X63441384Y-107225994D01*
X63688389Y-107330588D01*
X63696794Y-107333466D01*
X63956083Y-107402214D01*
X63964804Y-107403878D01*
X64231198Y-107435408D01*
X64240063Y-107435826D01*
X64508228Y-107429506D01*
X64517088Y-107428669D01*
X64781674Y-107384630D01*
X64790331Y-107382551D01*
X65046080Y-107301669D01*
X65054341Y-107298398D01*
X65296145Y-107182285D01*
X65303870Y-107177879D01*
X65508687Y-107041025D01*
X65516975Y-107031107D01*
X65509718Y-107016928D01*
X64340852Y-105848062D01*
X64326908Y-105840448D01*
X64325075Y-105840579D01*
X64318460Y-105844830D01*
X63147686Y-107015604D01*
X63140520Y-107028727D01*
X60016657Y-107028727D01*
X60010618Y-107016928D01*
X58841752Y-105848062D01*
X58827808Y-105840448D01*
X58825975Y-105840579D01*
X58819360Y-105844830D01*
X57648586Y-107015604D01*
X57641420Y-107028727D01*
X53594000Y-107028727D01*
X53594000Y-105418862D01*
X56868014Y-105418862D01*
X56878545Y-105686897D01*
X56879520Y-105695726D01*
X56927713Y-105959607D01*
X56929922Y-105968209D01*
X57014814Y-106222662D01*
X57018218Y-106230880D01*
X57138116Y-106470834D01*
X57142634Y-106478473D01*
X57265019Y-106655551D01*
X57275337Y-106663902D01*
X57288992Y-106656778D01*
X58456918Y-105488852D01*
X58463296Y-105477172D01*
X59193348Y-105477172D01*
X59193479Y-105479005D01*
X59197730Y-105485620D01*
X60369286Y-106657176D01*
X60382686Y-106664493D01*
X60392591Y-106657506D01*
X60413422Y-106632723D01*
X60418642Y-106625538D01*
X60560595Y-106397925D01*
X60564747Y-106390085D01*
X60673215Y-106144734D01*
X60676221Y-106136384D01*
X60749034Y-105878208D01*
X60750835Y-105869515D01*
X60786710Y-105602421D01*
X60787238Y-105596028D01*
X60790908Y-105479262D01*
X60790781Y-105472819D01*
X60786961Y-105418862D01*
X62367114Y-105418862D01*
X62377645Y-105686897D01*
X62378620Y-105695726D01*
X62426813Y-105959607D01*
X62429022Y-105968209D01*
X62513914Y-106222662D01*
X62517318Y-106230880D01*
X62637216Y-106470834D01*
X62641734Y-106478473D01*
X62764119Y-106655551D01*
X62774437Y-106663902D01*
X62788092Y-106656778D01*
X63956018Y-105488852D01*
X63962396Y-105477172D01*
X64692448Y-105477172D01*
X64692579Y-105479005D01*
X64696830Y-105485620D01*
X65868386Y-106657176D01*
X65881786Y-106664493D01*
X65891691Y-106657506D01*
X65912522Y-106632723D01*
X65917742Y-106625538D01*
X66059695Y-106397925D01*
X66063847Y-106390085D01*
X66172315Y-106144734D01*
X66175321Y-106136384D01*
X66248134Y-105878208D01*
X66249935Y-105869515D01*
X66285810Y-105602421D01*
X66286338Y-105596028D01*
X66290008Y-105479262D01*
X66289881Y-105472819D01*
X66270850Y-105204031D01*
X66269597Y-105195228D01*
X66213139Y-104932992D01*
X66210660Y-104924459D01*
X66117817Y-104672797D01*
X66114162Y-104664702D01*
X65986786Y-104428633D01*
X65982024Y-104421128D01*
X65890887Y-104297738D01*
X65879762Y-104289298D01*
X65867166Y-104296124D01*
X64700062Y-105463228D01*
X64692448Y-105477172D01*
X63962396Y-105477172D01*
X63963632Y-105474908D01*
X63963501Y-105473075D01*
X63959250Y-105466460D01*
X62788917Y-104296127D01*
X62776077Y-104289116D01*
X62765385Y-104296913D01*
X62708010Y-104369694D01*
X62703015Y-104377043D01*
X62568279Y-104609008D01*
X62564380Y-104616966D01*
X62463675Y-104865594D01*
X62460926Y-104874056D01*
X62396263Y-105134376D01*
X62394734Y-105143137D01*
X62367393Y-105409979D01*
X62367114Y-105418862D01*
X60786961Y-105418862D01*
X60771750Y-105204031D01*
X60770497Y-105195228D01*
X60714039Y-104932992D01*
X60711560Y-104924459D01*
X60618717Y-104672797D01*
X60615062Y-104664702D01*
X60487686Y-104428633D01*
X60482924Y-104421128D01*
X60391787Y-104297738D01*
X60380662Y-104289298D01*
X60368066Y-104296124D01*
X59200962Y-105463228D01*
X59193348Y-105477172D01*
X58463296Y-105477172D01*
X58464532Y-105474908D01*
X58464401Y-105473075D01*
X58460150Y-105466460D01*
X57289817Y-104296127D01*
X57276977Y-104289116D01*
X57266285Y-104296913D01*
X57208910Y-104369694D01*
X57203915Y-104377043D01*
X57069179Y-104609008D01*
X57065280Y-104616966D01*
X56964575Y-104865594D01*
X56961826Y-104874056D01*
X56897163Y-105134376D01*
X56895634Y-105143137D01*
X56868293Y-105409979D01*
X56868014Y-105418862D01*
X53594000Y-105418862D01*
X53594000Y-103923552D01*
X57641807Y-103923552D01*
X57648787Y-103936677D01*
X58816128Y-105104018D01*
X58830072Y-105111632D01*
X58831905Y-105111501D01*
X58838520Y-105107250D01*
X60008755Y-103937015D01*
X60015609Y-103924463D01*
X60014934Y-103923552D01*
X63140907Y-103923552D01*
X63147887Y-103936677D01*
X64315228Y-105104018D01*
X64329172Y-105111632D01*
X64331005Y-105111501D01*
X64337620Y-105107250D01*
X65507855Y-103937015D01*
X65514709Y-103924463D01*
X65506502Y-103913393D01*
X65408802Y-103838830D01*
X65401377Y-103833953D01*
X65167338Y-103702885D01*
X65159285Y-103699096D01*
X64909122Y-103602315D01*
X64900632Y-103599703D01*
X64639314Y-103539133D01*
X64630536Y-103537743D01*
X64363291Y-103514597D01*
X64354420Y-103514457D01*
X64086571Y-103529198D01*
X64077761Y-103530312D01*
X63814675Y-103582642D01*
X63806100Y-103584988D01*
X63553016Y-103673864D01*
X63544849Y-103677398D01*
X63306813Y-103801049D01*
X63299241Y-103805689D01*
X63149310Y-103912830D01*
X63140907Y-103923552D01*
X60014934Y-103923552D01*
X60007402Y-103913393D01*
X59909702Y-103838830D01*
X59902277Y-103833953D01*
X59668238Y-103702885D01*
X59660185Y-103699096D01*
X59410022Y-103602315D01*
X59401532Y-103599703D01*
X59140214Y-103539133D01*
X59131436Y-103537743D01*
X58864191Y-103514597D01*
X58855320Y-103514457D01*
X58587471Y-103529198D01*
X58578661Y-103530312D01*
X58315575Y-103582642D01*
X58307000Y-103584988D01*
X58053916Y-103673864D01*
X58045749Y-103677398D01*
X57807713Y-103801049D01*
X57800141Y-103805689D01*
X57650210Y-103912830D01*
X57641807Y-103923552D01*
X53594000Y-103923552D01*
X53594000Y-103378000D01*
X50672000Y-103378000D01*
X50603879Y-103357998D01*
X50557386Y-103304342D01*
X50546000Y-103252000D01*
X50546000Y-102832647D01*
X57641420Y-102832647D01*
X57648810Y-102842949D01*
X57697283Y-102882412D01*
X57704562Y-102887527D01*
X57934360Y-103025877D01*
X57942284Y-103029914D01*
X58189289Y-103134508D01*
X58197694Y-103137386D01*
X58456983Y-103206134D01*
X58465704Y-103207798D01*
X58732098Y-103239328D01*
X58740963Y-103239746D01*
X59009128Y-103233426D01*
X59017988Y-103232589D01*
X59282574Y-103188550D01*
X59291231Y-103186471D01*
X59546980Y-103105589D01*
X59555241Y-103102318D01*
X59797045Y-102986205D01*
X59804770Y-102981799D01*
X60009587Y-102844945D01*
X60017875Y-102835027D01*
X60010618Y-102820848D01*
X58841752Y-101651982D01*
X58827808Y-101644368D01*
X58825975Y-101644499D01*
X58819360Y-101648750D01*
X57648586Y-102819524D01*
X57641420Y-102832647D01*
X50546000Y-102832647D01*
X50546000Y-101222782D01*
X56868014Y-101222782D01*
X56878545Y-101490817D01*
X56879520Y-101499646D01*
X56927713Y-101763527D01*
X56929922Y-101772129D01*
X57014814Y-102026582D01*
X57018218Y-102034800D01*
X57138116Y-102274754D01*
X57142634Y-102282393D01*
X57265019Y-102459471D01*
X57275337Y-102467822D01*
X57288992Y-102460698D01*
X58456918Y-101292772D01*
X58463296Y-101281092D01*
X59193348Y-101281092D01*
X59193479Y-101282925D01*
X59197730Y-101289540D01*
X60369286Y-102461096D01*
X60382686Y-102468413D01*
X60392591Y-102461426D01*
X60413422Y-102436643D01*
X60418642Y-102429458D01*
X60560595Y-102201845D01*
X60564747Y-102194005D01*
X60673215Y-101948654D01*
X60676221Y-101940304D01*
X60749034Y-101682128D01*
X60750835Y-101673435D01*
X60786710Y-101406341D01*
X60787238Y-101399948D01*
X60790908Y-101283182D01*
X60790781Y-101276739D01*
X60771750Y-101007951D01*
X60770497Y-100999148D01*
X60714039Y-100736912D01*
X60711560Y-100728379D01*
X60618717Y-100476717D01*
X60615062Y-100468622D01*
X60487686Y-100232553D01*
X60482924Y-100225048D01*
X60391787Y-100101658D01*
X60380662Y-100093218D01*
X60368066Y-100100044D01*
X59200962Y-101267148D01*
X59193348Y-101281092D01*
X58463296Y-101281092D01*
X58464532Y-101278828D01*
X58464401Y-101276995D01*
X58460150Y-101270380D01*
X57289817Y-100100047D01*
X57276977Y-100093036D01*
X57266285Y-100100833D01*
X57208910Y-100173614D01*
X57203915Y-100180963D01*
X57069179Y-100412928D01*
X57065280Y-100420886D01*
X56964575Y-100669514D01*
X56961826Y-100677976D01*
X56897163Y-100938296D01*
X56895634Y-100947057D01*
X56868293Y-101213899D01*
X56868014Y-101222782D01*
X50546000Y-101222782D01*
X50546000Y-99727472D01*
X57641807Y-99727472D01*
X57648787Y-99740597D01*
X58816128Y-100907938D01*
X58830072Y-100915552D01*
X58831905Y-100915421D01*
X58838520Y-100911170D01*
X60008755Y-99740935D01*
X60015609Y-99728383D01*
X60007402Y-99717313D01*
X59909702Y-99642750D01*
X59902277Y-99637873D01*
X59668238Y-99506805D01*
X59660185Y-99503016D01*
X59410022Y-99406235D01*
X59401532Y-99403623D01*
X59140214Y-99343053D01*
X59131436Y-99341663D01*
X58864191Y-99318517D01*
X58855320Y-99318377D01*
X58587471Y-99333118D01*
X58578661Y-99334232D01*
X58315575Y-99386562D01*
X58307000Y-99388908D01*
X58053916Y-99477784D01*
X58045749Y-99481318D01*
X57807713Y-99604969D01*
X57800141Y-99609609D01*
X57650210Y-99716750D01*
X57641807Y-99727472D01*
X50546000Y-99727472D01*
X50546000Y-98631487D01*
X57641420Y-98631487D01*
X57648810Y-98641789D01*
X57697283Y-98681252D01*
X57704562Y-98686367D01*
X57934360Y-98824717D01*
X57942284Y-98828754D01*
X58189289Y-98933348D01*
X58197694Y-98936226D01*
X58456983Y-99004974D01*
X58465704Y-99006638D01*
X58732098Y-99038168D01*
X58740963Y-99038586D01*
X59009128Y-99032266D01*
X59017988Y-99031429D01*
X59282574Y-98987390D01*
X59291231Y-98985311D01*
X59546980Y-98904429D01*
X59555241Y-98901158D01*
X59797045Y-98785045D01*
X59804770Y-98780639D01*
X60009587Y-98643785D01*
X60017875Y-98633867D01*
X60010618Y-98619688D01*
X58841752Y-97450822D01*
X58827808Y-97443208D01*
X58825975Y-97443339D01*
X58819360Y-97447590D01*
X57648586Y-98618364D01*
X57641420Y-98631487D01*
X50546000Y-98631487D01*
X50546000Y-97021622D01*
X56868014Y-97021622D01*
X56878545Y-97289657D01*
X56879520Y-97298486D01*
X56927713Y-97562367D01*
X56929922Y-97570969D01*
X57014814Y-97825422D01*
X57018218Y-97833640D01*
X57138116Y-98073594D01*
X57142634Y-98081233D01*
X57265019Y-98258311D01*
X57275337Y-98266662D01*
X57288992Y-98259538D01*
X58456918Y-97091612D01*
X58464532Y-97077668D01*
X58464401Y-97075835D01*
X58460150Y-97069220D01*
X57289817Y-95898887D01*
X57276977Y-95891876D01*
X57266285Y-95899673D01*
X57208910Y-95972454D01*
X57203915Y-95979803D01*
X57069179Y-96211768D01*
X57065280Y-96219726D01*
X56964575Y-96468354D01*
X56961826Y-96476816D01*
X56897163Y-96737136D01*
X56895634Y-96745897D01*
X56868293Y-97012739D01*
X56868014Y-97021622D01*
X50546000Y-97021622D01*
X50546000Y-95526312D01*
X57641807Y-95526312D01*
X57648787Y-95539437D01*
X58816128Y-96706778D01*
X58830072Y-96714392D01*
X58831905Y-96714261D01*
X58838520Y-96710010D01*
X60008755Y-95539775D01*
X60015609Y-95527223D01*
X60007402Y-95516153D01*
X59909702Y-95441590D01*
X59902277Y-95436713D01*
X59668238Y-95305645D01*
X59660185Y-95301856D01*
X59410022Y-95205075D01*
X59401532Y-95202463D01*
X59140214Y-95141893D01*
X59131436Y-95140503D01*
X58864191Y-95117357D01*
X58855320Y-95117217D01*
X58587471Y-95131958D01*
X58578661Y-95133072D01*
X58315575Y-95185402D01*
X58307000Y-95187748D01*
X58053916Y-95276624D01*
X58045749Y-95280158D01*
X57807713Y-95403809D01*
X57800141Y-95408449D01*
X57650210Y-95515590D01*
X57641807Y-95526312D01*
X50546000Y-95526312D01*
X50546000Y-92818534D01*
X56867338Y-92818534D01*
X56878222Y-93095541D01*
X56928028Y-93368251D01*
X57015762Y-93631223D01*
X57139674Y-93879209D01*
X57297291Y-94107262D01*
X57485468Y-94310832D01*
X57488922Y-94313644D01*
X57696995Y-94483042D01*
X57696999Y-94483045D01*
X57700452Y-94485856D01*
X57937952Y-94628843D01*
X57942047Y-94630577D01*
X57942049Y-94630578D01*
X58117640Y-94704931D01*
X58193229Y-94736939D01*
X58197522Y-94738077D01*
X58197527Y-94738079D01*
X58288457Y-94762188D01*
X58461191Y-94807987D01*
X58736490Y-94840571D01*
X59013634Y-94834040D01*
X59101157Y-94819472D01*
X59282703Y-94789255D01*
X59282707Y-94789254D01*
X59287093Y-94788524D01*
X59291334Y-94787183D01*
X59291337Y-94787182D01*
X59547164Y-94706274D01*
X59547166Y-94706273D01*
X59551410Y-94704931D01*
X59555421Y-94703005D01*
X59555426Y-94703003D01*
X59797293Y-94586860D01*
X59797294Y-94586859D01*
X59801312Y-94584930D01*
X59949588Y-94485856D01*
X60028105Y-94433393D01*
X60028109Y-94433390D01*
X60031813Y-94430915D01*
X60035130Y-94427944D01*
X60035134Y-94427941D01*
X60234995Y-94248930D01*
X60234996Y-94248929D01*
X60238313Y-94245958D01*
X60416692Y-94033750D01*
X60563392Y-93798525D01*
X60675484Y-93544977D01*
X60750733Y-93278164D01*
X60774674Y-93099921D01*
X60787210Y-93006593D01*
X60787211Y-93006585D01*
X60787637Y-93003411D01*
X60791510Y-92880180D01*
X60771931Y-92603651D01*
X60713584Y-92332640D01*
X60617633Y-92072554D01*
X60485993Y-91828582D01*
X60483352Y-91825007D01*
X60483348Y-91825000D01*
X60323943Y-91609185D01*
X60321290Y-91605593D01*
X60279207Y-91562843D01*
X60129942Y-91411216D01*
X60126811Y-91408035D01*
X60123272Y-91405334D01*
X60123265Y-91405328D01*
X59909976Y-91242552D01*
X59906436Y-91239850D01*
X59902547Y-91237672D01*
X59668453Y-91106573D01*
X59668452Y-91106573D01*
X59664562Y-91104394D01*
X59656563Y-91101300D01*
X59410170Y-91005976D01*
X59410164Y-91005974D01*
X59406015Y-91004369D01*
X59401683Y-91003365D01*
X59401680Y-91003364D01*
X59234397Y-90964590D01*
X59135954Y-90941772D01*
X58859767Y-90917852D01*
X58855332Y-90918096D01*
X58855328Y-90918096D01*
X58742885Y-90924284D01*
X58582965Y-90933085D01*
X58311071Y-90987169D01*
X58189395Y-91029898D01*
X58053716Y-91077544D01*
X58053708Y-91077547D01*
X58049509Y-91079022D01*
X58045556Y-91081075D01*
X58045550Y-91081078D01*
X57996471Y-91106573D01*
X57803500Y-91206814D01*
X57799885Y-91209397D01*
X57799879Y-91209401D01*
X57657374Y-91311237D01*
X57577951Y-91367994D01*
X57377362Y-91559346D01*
X57205736Y-91777052D01*
X57203499Y-91780904D01*
X57068732Y-92012922D01*
X57068729Y-92012928D01*
X57066498Y-92016769D01*
X56962425Y-92273713D01*
X56961354Y-92278026D01*
X56961352Y-92278031D01*
X56941623Y-92357455D01*
X56895594Y-92542757D01*
X56867338Y-92818534D01*
X50546000Y-92818534D01*
X50546000Y-90231707D01*
X57641420Y-90231707D01*
X57648810Y-90242009D01*
X57697283Y-90281472D01*
X57704562Y-90286587D01*
X57934360Y-90424937D01*
X57942284Y-90428974D01*
X58189289Y-90533568D01*
X58197694Y-90536446D01*
X58456983Y-90605194D01*
X58465704Y-90606858D01*
X58732098Y-90638388D01*
X58740963Y-90638806D01*
X59009128Y-90632486D01*
X59017988Y-90631649D01*
X59282574Y-90587610D01*
X59291231Y-90585531D01*
X59546980Y-90504649D01*
X59555241Y-90501378D01*
X59797045Y-90385265D01*
X59804770Y-90380859D01*
X60009587Y-90244005D01*
X60017875Y-90234087D01*
X60010618Y-90219908D01*
X58841752Y-89051042D01*
X58827808Y-89043428D01*
X58825975Y-89043559D01*
X58819360Y-89047810D01*
X57648586Y-90218584D01*
X57641420Y-90231707D01*
X50546000Y-90231707D01*
X50546000Y-88621842D01*
X56868014Y-88621842D01*
X56878545Y-88889877D01*
X56879520Y-88898706D01*
X56927713Y-89162587D01*
X56929922Y-89171189D01*
X57014814Y-89425642D01*
X57018218Y-89433860D01*
X57138116Y-89673814D01*
X57142634Y-89681453D01*
X57265019Y-89858531D01*
X57275337Y-89866882D01*
X57288992Y-89859758D01*
X58456918Y-88691832D01*
X58463296Y-88680152D01*
X59193348Y-88680152D01*
X59193479Y-88681985D01*
X59197730Y-88688600D01*
X60369286Y-89860156D01*
X60382686Y-89867473D01*
X60392591Y-89860486D01*
X60413422Y-89835703D01*
X60418642Y-89828518D01*
X60560595Y-89600905D01*
X60564747Y-89593065D01*
X60673215Y-89347714D01*
X60676221Y-89339364D01*
X60749034Y-89081188D01*
X60750835Y-89072495D01*
X60786710Y-88805401D01*
X60787238Y-88799008D01*
X60790908Y-88682242D01*
X60790781Y-88675799D01*
X60786961Y-88621842D01*
X62367114Y-88621842D01*
X62377645Y-88889877D01*
X62378620Y-88898706D01*
X62426813Y-89162587D01*
X62429022Y-89171189D01*
X62513914Y-89425642D01*
X62517318Y-89433860D01*
X62637216Y-89673814D01*
X62641734Y-89681453D01*
X62764119Y-89858531D01*
X62774437Y-89866882D01*
X62788092Y-89859758D01*
X63956018Y-88691832D01*
X63963632Y-88677888D01*
X63963501Y-88676055D01*
X63959250Y-88669440D01*
X62788917Y-87499107D01*
X62776077Y-87492096D01*
X62765385Y-87499893D01*
X62708010Y-87572674D01*
X62703015Y-87580023D01*
X62568279Y-87811988D01*
X62564380Y-87819946D01*
X62463675Y-88068574D01*
X62460926Y-88077036D01*
X62396263Y-88337356D01*
X62394734Y-88346117D01*
X62367393Y-88612959D01*
X62367114Y-88621842D01*
X60786961Y-88621842D01*
X60771750Y-88407011D01*
X60770497Y-88398208D01*
X60714039Y-88135972D01*
X60711560Y-88127439D01*
X60618717Y-87875777D01*
X60615062Y-87867682D01*
X60487686Y-87631613D01*
X60482924Y-87624108D01*
X60391787Y-87500718D01*
X60380662Y-87492278D01*
X60368066Y-87499104D01*
X59200962Y-88666208D01*
X59193348Y-88680152D01*
X58463296Y-88680152D01*
X58464532Y-88677888D01*
X58464401Y-88676055D01*
X58460150Y-88669440D01*
X57289817Y-87499107D01*
X57276977Y-87492096D01*
X57266285Y-87499893D01*
X57208910Y-87572674D01*
X57203915Y-87580023D01*
X57069179Y-87811988D01*
X57065280Y-87819946D01*
X56964575Y-88068574D01*
X56961826Y-88077036D01*
X56897163Y-88337356D01*
X56895634Y-88346117D01*
X56868293Y-88612959D01*
X56868014Y-88621842D01*
X50546000Y-88621842D01*
X50546000Y-87126532D01*
X57641807Y-87126532D01*
X57648787Y-87139657D01*
X58816128Y-88306998D01*
X58830072Y-88314612D01*
X58831905Y-88314481D01*
X58838520Y-88310230D01*
X60008755Y-87139995D01*
X60015609Y-87127443D01*
X60014934Y-87126532D01*
X63140907Y-87126532D01*
X63147887Y-87139657D01*
X64315228Y-88306998D01*
X64329172Y-88314612D01*
X64331005Y-88314481D01*
X64337620Y-88310230D01*
X65507855Y-87139995D01*
X65514709Y-87127443D01*
X65506502Y-87116373D01*
X65408802Y-87041810D01*
X65401377Y-87036933D01*
X65167338Y-86905865D01*
X65159285Y-86902076D01*
X64909122Y-86805295D01*
X64900632Y-86802683D01*
X64639314Y-86742113D01*
X64630536Y-86740723D01*
X64363291Y-86717577D01*
X64354420Y-86717437D01*
X64086571Y-86732178D01*
X64077761Y-86733292D01*
X63814675Y-86785622D01*
X63806100Y-86787968D01*
X63553016Y-86876844D01*
X63544849Y-86880378D01*
X63306813Y-87004029D01*
X63299241Y-87008669D01*
X63149310Y-87115810D01*
X63140907Y-87126532D01*
X60014934Y-87126532D01*
X60007402Y-87116373D01*
X59909702Y-87041810D01*
X59902277Y-87036933D01*
X59668238Y-86905865D01*
X59660185Y-86902076D01*
X59410022Y-86805295D01*
X59401532Y-86802683D01*
X59140214Y-86742113D01*
X59131436Y-86740723D01*
X58864191Y-86717577D01*
X58855320Y-86717437D01*
X58587471Y-86732178D01*
X58578661Y-86733292D01*
X58315575Y-86785622D01*
X58307000Y-86787968D01*
X58053916Y-86876844D01*
X58045749Y-86880378D01*
X57807713Y-87004029D01*
X57800141Y-87008669D01*
X57650210Y-87115810D01*
X57641807Y-87126532D01*
X50546000Y-87126532D01*
X50546000Y-85216000D01*
X50566002Y-85147879D01*
X50619658Y-85101386D01*
X50672000Y-85090000D01*
X53594000Y-85090000D01*
X53594000Y-76068500D01*
X53614002Y-76000379D01*
X53667658Y-75953886D01*
X53720000Y-75942500D01*
X55149752Y-75942500D01*
X55217873Y-75962502D01*
X55257185Y-76002665D01*
X55336672Y-76132376D01*
X55501102Y-76324898D01*
X55693624Y-76489328D01*
X55909498Y-76621616D01*
X55914068Y-76623509D01*
X55914072Y-76623511D01*
X55984401Y-76652642D01*
X56143409Y-76718505D01*
X56210513Y-76734615D01*
X56384784Y-76776454D01*
X56384790Y-76776455D01*
X56389597Y-76777609D01*
X56642000Y-76797474D01*
X56894403Y-76777609D01*
X56899210Y-76776455D01*
X56899216Y-76776454D01*
X57073487Y-76734615D01*
X57140591Y-76718505D01*
X57299599Y-76652642D01*
X57369928Y-76623511D01*
X57369932Y-76623509D01*
X57374502Y-76621616D01*
X57590376Y-76489328D01*
X57782898Y-76324898D01*
X57947328Y-76132376D01*
X58079616Y-75916502D01*
X58097604Y-75873077D01*
X58174611Y-75687164D01*
X58174612Y-75687162D01*
X58176505Y-75682591D01*
X58180470Y-75666077D01*
X58234454Y-75441216D01*
X58234455Y-75441210D01*
X58235609Y-75436403D01*
X58255474Y-75184000D01*
X58235609Y-74931597D01*
X58218714Y-74861221D01*
X58177660Y-74690221D01*
X58176505Y-74685409D01*
X58100558Y-74502056D01*
X58092969Y-74431466D01*
X58124748Y-74367979D01*
X58185807Y-74331752D01*
X58256758Y-74334286D01*
X58306062Y-74364743D01*
X59932605Y-75991286D01*
X59966631Y-76053598D01*
X59969510Y-76080381D01*
X59969510Y-78459257D01*
X59949508Y-78527378D01*
X59895852Y-78573871D01*
X59825578Y-78583975D01*
X59781948Y-78569193D01*
X59664562Y-78503454D01*
X59655220Y-78499840D01*
X59410170Y-78405036D01*
X59410164Y-78405034D01*
X59406015Y-78403429D01*
X59401683Y-78402425D01*
X59401680Y-78402424D01*
X59291345Y-78376850D01*
X59135954Y-78340832D01*
X58859767Y-78316912D01*
X58855332Y-78317156D01*
X58855328Y-78317156D01*
X58742885Y-78323344D01*
X58582965Y-78332145D01*
X58311071Y-78386229D01*
X58189395Y-78428958D01*
X58053716Y-78476604D01*
X58053708Y-78476607D01*
X58049509Y-78478082D01*
X58045556Y-78480135D01*
X58045550Y-78480138D01*
X57906654Y-78552289D01*
X57803500Y-78605874D01*
X57799885Y-78608457D01*
X57799879Y-78608461D01*
X57657374Y-78710297D01*
X57577951Y-78767054D01*
X57574731Y-78770126D01*
X57401307Y-78935564D01*
X57377362Y-78958406D01*
X57205736Y-79176112D01*
X57203499Y-79179964D01*
X57068732Y-79411982D01*
X57068729Y-79411988D01*
X57066498Y-79415829D01*
X56962425Y-79672773D01*
X56961354Y-79677086D01*
X56961352Y-79677091D01*
X56915045Y-79863511D01*
X56895594Y-79941817D01*
X56867338Y-80217594D01*
X56867513Y-80222046D01*
X56872693Y-80353871D01*
X56878222Y-80494601D01*
X56928028Y-80767311D01*
X57015762Y-81030283D01*
X57139674Y-81278269D01*
X57297291Y-81506322D01*
X57485468Y-81709892D01*
X57488922Y-81712704D01*
X57696995Y-81882102D01*
X57696999Y-81882105D01*
X57700452Y-81884916D01*
X57937952Y-82027903D01*
X57942047Y-82029637D01*
X57942049Y-82029638D01*
X58146921Y-82116390D01*
X58193229Y-82135999D01*
X58197522Y-82137137D01*
X58197527Y-82137139D01*
X58318871Y-82169312D01*
X58461191Y-82207047D01*
X58736490Y-82239631D01*
X59013634Y-82233100D01*
X59170160Y-82207047D01*
X59282703Y-82188315D01*
X59282707Y-82188314D01*
X59287093Y-82187584D01*
X59291334Y-82186243D01*
X59291337Y-82186242D01*
X59547164Y-82105334D01*
X59547166Y-82105333D01*
X59551410Y-82103991D01*
X59788970Y-81989917D01*
X59859034Y-81978460D01*
X59924171Y-82006703D01*
X59963699Y-82065678D01*
X59969510Y-82103500D01*
X59969510Y-82214959D01*
X59949508Y-82283080D01*
X59932605Y-82304054D01*
X59627036Y-82609623D01*
X59564724Y-82643649D01*
X59492480Y-82638040D01*
X59406015Y-82604589D01*
X59401680Y-82603584D01*
X59401676Y-82603583D01*
X59249799Y-82568380D01*
X59135954Y-82541992D01*
X58859767Y-82518072D01*
X58855332Y-82518316D01*
X58855328Y-82518316D01*
X58742885Y-82524504D01*
X58582965Y-82533305D01*
X58311071Y-82587389D01*
X58189395Y-82630118D01*
X58053716Y-82677764D01*
X58053708Y-82677767D01*
X58049509Y-82679242D01*
X58045556Y-82681295D01*
X58045550Y-82681298D01*
X57996471Y-82706793D01*
X57803500Y-82807034D01*
X57799885Y-82809617D01*
X57799879Y-82809621D01*
X57737724Y-82854038D01*
X57577951Y-82968214D01*
X57539342Y-83005045D01*
X57384545Y-83152714D01*
X57377362Y-83159566D01*
X57205736Y-83377272D01*
X57177886Y-83425220D01*
X57068732Y-83613142D01*
X57068729Y-83613148D01*
X57066498Y-83616989D01*
X56962425Y-83873933D01*
X56961354Y-83878246D01*
X56961352Y-83878251D01*
X56945641Y-83941500D01*
X56895594Y-84142977D01*
X56867338Y-84418754D01*
X56878222Y-84695761D01*
X56928028Y-84968471D01*
X57015762Y-85231443D01*
X57139674Y-85479429D01*
X57297291Y-85707482D01*
X57485468Y-85911052D01*
X57488922Y-85913864D01*
X57696995Y-86083262D01*
X57696999Y-86083265D01*
X57700452Y-86086076D01*
X57937952Y-86229063D01*
X57942047Y-86230797D01*
X57942049Y-86230798D01*
X58117640Y-86305151D01*
X58193229Y-86337159D01*
X58197522Y-86338297D01*
X58197527Y-86338299D01*
X58337302Y-86375359D01*
X58461191Y-86408207D01*
X58736490Y-86440791D01*
X59013634Y-86434260D01*
X59170160Y-86408207D01*
X59282703Y-86389475D01*
X59282707Y-86389474D01*
X59287093Y-86388744D01*
X59291334Y-86387403D01*
X59291337Y-86387402D01*
X59547164Y-86306494D01*
X59547166Y-86306493D01*
X59551410Y-86305151D01*
X59555421Y-86303225D01*
X59555426Y-86303223D01*
X59797293Y-86187080D01*
X59797294Y-86187079D01*
X59801312Y-86185150D01*
X59949588Y-86086076D01*
X60028105Y-86033613D01*
X60028109Y-86033610D01*
X60031813Y-86031135D01*
X60035130Y-86028164D01*
X60035134Y-86028161D01*
X60234995Y-85849150D01*
X60234996Y-85849149D01*
X60238313Y-85846178D01*
X60416692Y-85633970D01*
X60563392Y-85398745D01*
X60675484Y-85145197D01*
X60750733Y-84878384D01*
X60774674Y-84700141D01*
X60787210Y-84606813D01*
X60787211Y-84606805D01*
X60787637Y-84603631D01*
X60791510Y-84480400D01*
X60787145Y-84418754D01*
X62366438Y-84418754D01*
X62377322Y-84695761D01*
X62427128Y-84968471D01*
X62514862Y-85231443D01*
X62638774Y-85479429D01*
X62796391Y-85707482D01*
X62984568Y-85911052D01*
X62988022Y-85913864D01*
X63196095Y-86083262D01*
X63196099Y-86083265D01*
X63199552Y-86086076D01*
X63437052Y-86229063D01*
X63441147Y-86230797D01*
X63441149Y-86230798D01*
X63616740Y-86305151D01*
X63692329Y-86337159D01*
X63696622Y-86338297D01*
X63696627Y-86338299D01*
X63836402Y-86375359D01*
X63960291Y-86408207D01*
X64235590Y-86440791D01*
X64512734Y-86434260D01*
X64669260Y-86408207D01*
X64781803Y-86389475D01*
X64781807Y-86389474D01*
X64786193Y-86388744D01*
X64790434Y-86387403D01*
X64790437Y-86387402D01*
X65046264Y-86306494D01*
X65046266Y-86306493D01*
X65050510Y-86305151D01*
X65054521Y-86303225D01*
X65054526Y-86303223D01*
X65296393Y-86187080D01*
X65296394Y-86187079D01*
X65300412Y-86185150D01*
X65448688Y-86086076D01*
X65527205Y-86033613D01*
X65527209Y-86033610D01*
X65530913Y-86031135D01*
X65534230Y-86028164D01*
X65534234Y-86028161D01*
X65734095Y-85849150D01*
X65734096Y-85849149D01*
X65737413Y-85846178D01*
X65915792Y-85633970D01*
X66062492Y-85398745D01*
X66174584Y-85145197D01*
X66249833Y-84878384D01*
X66273774Y-84700141D01*
X66286310Y-84606813D01*
X66286311Y-84606805D01*
X66286737Y-84603631D01*
X66290610Y-84480400D01*
X66271031Y-84203871D01*
X66213941Y-83938696D01*
X66213620Y-83937207D01*
X66213620Y-83937205D01*
X66212684Y-83932860D01*
X66116733Y-83672774D01*
X65985093Y-83428802D01*
X65982452Y-83425227D01*
X65982448Y-83425220D01*
X65823043Y-83209405D01*
X65820390Y-83205813D01*
X65778307Y-83163063D01*
X65708396Y-83092046D01*
X65625911Y-83008255D01*
X65622372Y-83005554D01*
X65622365Y-83005548D01*
X65409076Y-82842772D01*
X65405536Y-82840070D01*
X65361154Y-82815215D01*
X65167553Y-82706793D01*
X65167552Y-82706793D01*
X65163662Y-82704614D01*
X65155663Y-82701520D01*
X64909270Y-82606196D01*
X64909264Y-82606194D01*
X64905115Y-82604589D01*
X64900783Y-82603585D01*
X64900780Y-82603584D01*
X64748899Y-82568380D01*
X64635054Y-82541992D01*
X64358867Y-82518072D01*
X64354432Y-82518316D01*
X64354428Y-82518316D01*
X64241985Y-82524504D01*
X64082065Y-82533305D01*
X63810171Y-82587389D01*
X63688495Y-82630118D01*
X63552816Y-82677764D01*
X63552808Y-82677767D01*
X63548609Y-82679242D01*
X63544656Y-82681295D01*
X63544650Y-82681298D01*
X63495571Y-82706793D01*
X63302600Y-82807034D01*
X63298985Y-82809617D01*
X63298979Y-82809621D01*
X63236824Y-82854038D01*
X63077051Y-82968214D01*
X63038442Y-83005045D01*
X62883645Y-83152714D01*
X62876462Y-83159566D01*
X62704836Y-83377272D01*
X62676986Y-83425220D01*
X62567832Y-83613142D01*
X62567829Y-83613148D01*
X62565598Y-83616989D01*
X62461525Y-83873933D01*
X62460454Y-83878246D01*
X62460452Y-83878251D01*
X62444741Y-83941500D01*
X62394694Y-84142977D01*
X62366438Y-84418754D01*
X60787145Y-84418754D01*
X60771931Y-84203871D01*
X60714841Y-83938696D01*
X60714520Y-83937207D01*
X60714520Y-83937205D01*
X60713584Y-83932860D01*
X60712044Y-83928686D01*
X60712043Y-83928681D01*
X60670240Y-83815369D01*
X60665428Y-83744536D01*
X60699357Y-83682664D01*
X61216921Y-83165100D01*
X61231333Y-83152714D01*
X61242928Y-83144181D01*
X61242933Y-83144176D01*
X61248828Y-83139838D01*
X61253567Y-83134260D01*
X61253570Y-83134257D01*
X61283045Y-83099562D01*
X61289975Y-83092046D01*
X61295671Y-83086350D01*
X61297934Y-83083489D01*
X61297939Y-83083484D01*
X61313303Y-83064064D01*
X61316092Y-83060663D01*
X61358602Y-83010626D01*
X61358604Y-83010624D01*
X61363343Y-83005045D01*
X61366672Y-82998525D01*
X61370038Y-82993478D01*
X61373203Y-82988354D01*
X61377745Y-82982613D01*
X61385685Y-82965626D01*
X61408644Y-82916500D01*
X61410575Y-82912548D01*
X61440452Y-82854038D01*
X61440453Y-82854036D01*
X61443779Y-82847522D01*
X61445518Y-82840416D01*
X61447619Y-82834766D01*
X61449534Y-82829009D01*
X61452632Y-82822380D01*
X61467501Y-82750895D01*
X61468471Y-82746612D01*
X61485818Y-82675720D01*
X61486510Y-82664566D01*
X61486545Y-82664568D01*
X61486785Y-82660596D01*
X61487162Y-82656375D01*
X61488651Y-82649215D01*
X61486556Y-82571788D01*
X61486510Y-82568380D01*
X61486510Y-80217594D01*
X62366438Y-80217594D01*
X62366613Y-80222046D01*
X62371793Y-80353871D01*
X62377322Y-80494601D01*
X62427128Y-80767311D01*
X62514862Y-81030283D01*
X62638774Y-81278269D01*
X62796391Y-81506322D01*
X62984568Y-81709892D01*
X62988022Y-81712704D01*
X63196095Y-81882102D01*
X63196099Y-81882105D01*
X63199552Y-81884916D01*
X63437052Y-82027903D01*
X63441147Y-82029637D01*
X63441149Y-82029638D01*
X63646021Y-82116390D01*
X63692329Y-82135999D01*
X63696622Y-82137137D01*
X63696627Y-82137139D01*
X63817971Y-82169312D01*
X63960291Y-82207047D01*
X64235590Y-82239631D01*
X64512734Y-82233100D01*
X64669260Y-82207047D01*
X64781803Y-82188315D01*
X64781807Y-82188314D01*
X64786193Y-82187584D01*
X64790434Y-82186243D01*
X64790437Y-82186242D01*
X65046264Y-82105334D01*
X65046266Y-82105333D01*
X65050510Y-82103991D01*
X65054521Y-82102065D01*
X65054526Y-82102063D01*
X65296393Y-81985920D01*
X65296394Y-81985919D01*
X65300412Y-81983990D01*
X65304118Y-81981514D01*
X65527205Y-81832453D01*
X65527209Y-81832450D01*
X65530913Y-81829975D01*
X65534230Y-81827004D01*
X65534234Y-81827001D01*
X65734095Y-81647990D01*
X65734096Y-81647989D01*
X65737413Y-81645018D01*
X65915792Y-81432810D01*
X66062492Y-81197585D01*
X66110263Y-81089530D01*
X66172784Y-80948108D01*
X66174584Y-80944037D01*
X66249833Y-80677224D01*
X66269970Y-80527304D01*
X66286310Y-80405653D01*
X66286311Y-80405645D01*
X66286737Y-80402471D01*
X66286838Y-80399260D01*
X66290509Y-80282462D01*
X66290509Y-80282457D01*
X66290610Y-80279240D01*
X66271031Y-80002711D01*
X66212684Y-79731700D01*
X66116733Y-79471614D01*
X65985093Y-79227642D01*
X65982452Y-79224067D01*
X65982448Y-79224060D01*
X65823043Y-79008245D01*
X65820390Y-79004653D01*
X65778307Y-78961903D01*
X65629042Y-78810276D01*
X65625911Y-78807095D01*
X65622372Y-78804394D01*
X65622365Y-78804388D01*
X65476064Y-78692735D01*
X65405536Y-78638910D01*
X65401647Y-78636732D01*
X65167553Y-78505633D01*
X65167552Y-78505633D01*
X65163662Y-78503454D01*
X65154320Y-78499840D01*
X64909270Y-78405036D01*
X64909264Y-78405034D01*
X64905115Y-78403429D01*
X64900783Y-78402425D01*
X64900780Y-78402424D01*
X64790445Y-78376850D01*
X64635054Y-78340832D01*
X64358867Y-78316912D01*
X64354432Y-78317156D01*
X64354428Y-78317156D01*
X64241985Y-78323344D01*
X64082065Y-78332145D01*
X63810171Y-78386229D01*
X63688495Y-78428958D01*
X63552816Y-78476604D01*
X63552808Y-78476607D01*
X63548609Y-78478082D01*
X63544656Y-78480135D01*
X63544650Y-78480138D01*
X63405754Y-78552289D01*
X63302600Y-78605874D01*
X63298985Y-78608457D01*
X63298979Y-78608461D01*
X63156474Y-78710297D01*
X63077051Y-78767054D01*
X63073831Y-78770126D01*
X62900407Y-78935564D01*
X62876462Y-78958406D01*
X62704836Y-79176112D01*
X62702599Y-79179964D01*
X62567832Y-79411982D01*
X62567829Y-79411988D01*
X62565598Y-79415829D01*
X62461525Y-79672773D01*
X62460454Y-79677086D01*
X62460452Y-79677091D01*
X62414145Y-79863511D01*
X62394694Y-79941817D01*
X62366438Y-80217594D01*
X61486510Y-80217594D01*
X61486510Y-75781080D01*
X61487943Y-75762130D01*
X61490109Y-75747895D01*
X61490109Y-75747891D01*
X61491209Y-75740661D01*
X61486925Y-75687992D01*
X61486510Y-75677777D01*
X61486510Y-75669717D01*
X61483219Y-75641490D01*
X61482788Y-75637131D01*
X61476870Y-75564374D01*
X61474615Y-75557413D01*
X61473428Y-75551473D01*
X61472039Y-75545598D01*
X61471192Y-75538329D01*
X61446274Y-75469680D01*
X61444857Y-75465552D01*
X61424617Y-75403074D01*
X61424616Y-75403072D01*
X61422361Y-75396111D01*
X61418565Y-75389856D01*
X61416059Y-75384382D01*
X61413340Y-75378952D01*
X61410843Y-75372073D01*
X61370824Y-75311034D01*
X61368477Y-75307315D01*
X61330605Y-75244903D01*
X61323207Y-75236526D01*
X61323234Y-75236502D01*
X61320581Y-75233510D01*
X61317878Y-75230277D01*
X61313866Y-75224158D01*
X61257627Y-75170882D01*
X61255185Y-75168504D01*
X58287405Y-72200724D01*
X58253379Y-72138412D01*
X58250500Y-72111629D01*
X58250500Y-70479866D01*
X58243745Y-70417684D01*
X58192615Y-70281295D01*
X58105261Y-70164739D01*
X57988705Y-70077385D01*
X57852316Y-70026255D01*
X57790134Y-70019500D01*
X55493866Y-70019500D01*
X55431684Y-70026255D01*
X55295295Y-70077385D01*
X55178739Y-70164739D01*
X55091385Y-70281295D01*
X55040255Y-70417684D01*
X55033500Y-70479866D01*
X55033500Y-70743500D01*
X55013498Y-70811621D01*
X54959842Y-70858114D01*
X54907500Y-70869500D01*
X53720000Y-70869500D01*
X53651879Y-70849498D01*
X53605386Y-70795842D01*
X53594000Y-70743500D01*
X53594000Y-69464500D01*
X53614002Y-69396379D01*
X53667658Y-69349886D01*
X53720000Y-69338500D01*
X55304930Y-69338500D01*
X55323880Y-69339933D01*
X55338115Y-69342099D01*
X55338119Y-69342099D01*
X55345349Y-69343199D01*
X55352641Y-69342606D01*
X55352644Y-69342606D01*
X55398018Y-69338915D01*
X55408233Y-69338500D01*
X55416293Y-69338500D01*
X55429583Y-69336951D01*
X55444507Y-69335211D01*
X55448882Y-69334778D01*
X55514339Y-69329454D01*
X55514342Y-69329453D01*
X55521637Y-69328860D01*
X55528601Y-69326604D01*
X55534560Y-69325413D01*
X55540415Y-69324029D01*
X55547681Y-69323182D01*
X55616327Y-69298265D01*
X55620455Y-69296848D01*
X55682936Y-69276607D01*
X55682938Y-69276606D01*
X55689899Y-69274351D01*
X55696154Y-69270555D01*
X55701628Y-69268049D01*
X55707058Y-69265330D01*
X55713937Y-69262833D01*
X55774976Y-69222814D01*
X55778680Y-69220477D01*
X55841107Y-69182595D01*
X55849484Y-69175197D01*
X55849508Y-69175224D01*
X55852500Y-69172571D01*
X55855733Y-69169868D01*
X55861852Y-69165856D01*
X55915128Y-69109617D01*
X55917506Y-69107175D01*
X56368911Y-68655770D01*
X56383323Y-68643384D01*
X56394918Y-68634851D01*
X56394923Y-68634846D01*
X56400818Y-68630508D01*
X56405557Y-68624930D01*
X56405560Y-68624927D01*
X56435035Y-68590232D01*
X56441965Y-68582716D01*
X56447660Y-68577021D01*
X56465281Y-68554749D01*
X56468072Y-68551345D01*
X56510591Y-68501297D01*
X56510592Y-68501295D01*
X56515333Y-68495715D01*
X56518661Y-68489199D01*
X56522020Y-68484162D01*
X56525194Y-68479023D01*
X56529734Y-68473284D01*
X56560636Y-68407163D01*
X56562569Y-68403209D01*
X56569277Y-68390072D01*
X56595769Y-68338192D01*
X56597510Y-68331076D01*
X56599604Y-68325446D01*
X56601523Y-68319679D01*
X56604621Y-68313050D01*
X56619483Y-68241600D01*
X56620453Y-68237315D01*
X56624602Y-68220360D01*
X56637808Y-68166390D01*
X56638500Y-68155236D01*
X56638536Y-68155238D01*
X56638775Y-68151248D01*
X56639150Y-68147050D01*
X56640640Y-68139885D01*
X56638546Y-68062496D01*
X56638500Y-68059088D01*
X56638500Y-65897953D01*
X56658502Y-65829832D01*
X56712158Y-65783339D01*
X56782432Y-65773235D01*
X56836771Y-65794740D01*
X57006993Y-65913931D01*
X57016489Y-65919414D01*
X57213947Y-66011490D01*
X57224239Y-66015236D01*
X57396503Y-66061394D01*
X57410599Y-66061058D01*
X57414000Y-66053116D01*
X57414000Y-66047967D01*
X57922000Y-66047967D01*
X57925973Y-66061498D01*
X57934522Y-66062727D01*
X58111761Y-66015236D01*
X58122053Y-66011490D01*
X58319511Y-65919414D01*
X58329007Y-65913931D01*
X58507467Y-65788972D01*
X58515875Y-65781916D01*
X58669916Y-65627875D01*
X58676972Y-65619467D01*
X58801931Y-65441007D01*
X58807414Y-65431511D01*
X58899490Y-65234053D01*
X58903236Y-65223761D01*
X58949394Y-65051497D01*
X58949058Y-65037401D01*
X58941116Y-65034000D01*
X57940115Y-65034000D01*
X57924876Y-65038475D01*
X57923671Y-65039865D01*
X57922000Y-65047548D01*
X57922000Y-66047967D01*
X57414000Y-66047967D01*
X57414000Y-64652000D01*
X57434002Y-64583879D01*
X57487658Y-64537386D01*
X57540000Y-64526000D01*
X58935967Y-64526000D01*
X58949498Y-64522027D01*
X58950727Y-64513478D01*
X58903236Y-64336239D01*
X58899490Y-64325947D01*
X58807414Y-64128489D01*
X58801931Y-64118993D01*
X58676972Y-63940533D01*
X58669916Y-63932125D01*
X58515875Y-63778084D01*
X58507467Y-63771028D01*
X58329007Y-63646069D01*
X58319511Y-63640586D01*
X58284951Y-63624471D01*
X58231666Y-63577554D01*
X58212205Y-63509277D01*
X58232747Y-63441317D01*
X58284951Y-63396081D01*
X58319762Y-63379849D01*
X58319767Y-63379846D01*
X58324749Y-63377523D01*
X58429611Y-63304098D01*
X58507789Y-63249357D01*
X58507792Y-63249355D01*
X58512300Y-63246198D01*
X58674198Y-63084300D01*
X58805523Y-62896749D01*
X58807846Y-62891767D01*
X58807849Y-62891762D01*
X58899961Y-62694225D01*
X58899961Y-62694224D01*
X58902284Y-62689243D01*
X58961543Y-62468087D01*
X58981498Y-62240000D01*
X58967245Y-62077087D01*
X58981234Y-62007482D01*
X59003671Y-61977010D01*
X61956911Y-59023770D01*
X61971323Y-59011384D01*
X61982918Y-59002851D01*
X61982923Y-59002846D01*
X61988818Y-58998508D01*
X61993557Y-58992930D01*
X61993560Y-58992927D01*
X62023035Y-58958232D01*
X62029965Y-58950716D01*
X62035661Y-58945020D01*
X62037924Y-58942159D01*
X62037929Y-58942154D01*
X62053293Y-58922734D01*
X62056082Y-58919333D01*
X62098592Y-58869296D01*
X62098594Y-58869294D01*
X62103333Y-58863715D01*
X62106662Y-58857195D01*
X62110028Y-58852148D01*
X62113193Y-58847024D01*
X62117735Y-58841283D01*
X62129775Y-58815523D01*
X62148634Y-58775170D01*
X62150565Y-58771218D01*
X62180442Y-58712708D01*
X62180443Y-58712706D01*
X62183769Y-58706192D01*
X62185508Y-58699086D01*
X62187609Y-58693436D01*
X62189524Y-58687679D01*
X62192622Y-58681050D01*
X62207491Y-58609565D01*
X62208461Y-58605282D01*
X62225808Y-58534390D01*
X62226500Y-58523236D01*
X62226535Y-58523238D01*
X62226775Y-58519266D01*
X62227152Y-58515045D01*
X62228641Y-58507885D01*
X62226546Y-58430458D01*
X62226500Y-58427050D01*
X62226500Y-56888503D01*
X64006606Y-56888503D01*
X64006942Y-56902599D01*
X64014884Y-56906000D01*
X65015885Y-56906000D01*
X65031124Y-56901525D01*
X65032329Y-56900135D01*
X65034000Y-56892452D01*
X65034000Y-56887885D01*
X65542000Y-56887885D01*
X65546475Y-56903124D01*
X65547865Y-56904329D01*
X65555548Y-56906000D01*
X66555967Y-56906000D01*
X66569498Y-56902027D01*
X66570727Y-56893478D01*
X66523236Y-56716239D01*
X66519490Y-56705947D01*
X66427414Y-56508489D01*
X66421931Y-56498993D01*
X66296972Y-56320533D01*
X66289916Y-56312125D01*
X66135875Y-56158084D01*
X66127467Y-56151028D01*
X65949007Y-56026069D01*
X65939511Y-56020586D01*
X65742053Y-55928510D01*
X65731761Y-55924764D01*
X65559497Y-55878606D01*
X65545401Y-55878942D01*
X65542000Y-55886884D01*
X65542000Y-56887885D01*
X65034000Y-56887885D01*
X65034000Y-55892033D01*
X65030027Y-55878502D01*
X65021478Y-55877273D01*
X64844239Y-55924764D01*
X64833947Y-55928510D01*
X64636489Y-56020586D01*
X64626993Y-56026069D01*
X64448533Y-56151028D01*
X64440125Y-56158084D01*
X64286084Y-56312125D01*
X64279028Y-56320533D01*
X64154069Y-56498993D01*
X64148586Y-56508489D01*
X64056510Y-56705947D01*
X64052764Y-56716239D01*
X64006606Y-56888503D01*
X62226500Y-56888503D01*
X62226500Y-54892999D01*
X62243381Y-54829999D01*
X62299223Y-54733279D01*
X62299224Y-54733278D01*
X62302527Y-54727556D01*
X62361542Y-54545928D01*
X62365277Y-54510397D01*
X62380814Y-54362565D01*
X62381504Y-54356000D01*
X62365937Y-54207887D01*
X62362232Y-54172635D01*
X62362232Y-54172633D01*
X62361542Y-54166072D01*
X62302527Y-53984444D01*
X62207040Y-53819056D01*
X62079253Y-53677134D01*
X61924752Y-53564882D01*
X61918724Y-53562198D01*
X61918722Y-53562197D01*
X61756319Y-53489891D01*
X61756318Y-53489891D01*
X61750288Y-53487206D01*
X61656888Y-53467353D01*
X61569944Y-53448872D01*
X61569939Y-53448872D01*
X61563487Y-53447500D01*
X61372513Y-53447500D01*
X61366061Y-53448872D01*
X61366056Y-53448872D01*
X61279113Y-53467353D01*
X61185712Y-53487206D01*
X61179682Y-53489891D01*
X61179681Y-53489891D01*
X61017278Y-53562197D01*
X61017276Y-53562198D01*
X61011248Y-53564882D01*
X60856747Y-53677134D01*
X60728960Y-53819056D01*
X60633473Y-53984444D01*
X60574458Y-54166072D01*
X60573768Y-54172633D01*
X60573768Y-54172635D01*
X60570063Y-54207887D01*
X60554496Y-54356000D01*
X60555186Y-54362565D01*
X60570724Y-54510397D01*
X60574458Y-54545928D01*
X60633473Y-54727556D01*
X60636776Y-54733278D01*
X60636777Y-54733279D01*
X60692619Y-54829999D01*
X60709500Y-54892999D01*
X60709500Y-58073629D01*
X60689498Y-58141750D01*
X60672595Y-58162724D01*
X59184939Y-59650380D01*
X59122627Y-59684406D01*
X59051812Y-59679341D01*
X58994976Y-59636794D01*
X58970323Y-59572267D01*
X58966430Y-59527773D01*
X58961543Y-59471913D01*
X58932183Y-59362342D01*
X58903707Y-59256067D01*
X58903706Y-59256065D01*
X58902284Y-59250757D01*
X58863994Y-59168643D01*
X58807849Y-59048238D01*
X58807846Y-59048233D01*
X58805523Y-59043251D01*
X58719932Y-58921015D01*
X58677357Y-58860211D01*
X58677355Y-58860208D01*
X58674198Y-58855700D01*
X58512300Y-58693802D01*
X58507789Y-58690643D01*
X58503576Y-58687108D01*
X58504527Y-58685974D01*
X58464529Y-58635929D01*
X58457224Y-58565310D01*
X58489258Y-58501951D01*
X58550462Y-58465970D01*
X58567517Y-58462918D01*
X58578316Y-58461745D01*
X58714705Y-58410615D01*
X58831261Y-58323261D01*
X58918615Y-58206705D01*
X58969745Y-58070316D01*
X58976500Y-58008134D01*
X58976500Y-56311866D01*
X58969745Y-56249684D01*
X58918615Y-56113295D01*
X58831261Y-55996739D01*
X58714705Y-55909385D01*
X58578316Y-55858255D01*
X58551086Y-55855297D01*
X58538892Y-55853972D01*
X58473330Y-55826730D01*
X58432904Y-55768366D01*
X58426500Y-55728709D01*
X58426500Y-50777022D01*
X58446502Y-50708901D01*
X58463405Y-50687927D01*
X58529927Y-50621405D01*
X58592239Y-50587379D01*
X58619022Y-50584500D01*
X59650785Y-50584500D01*
X59712967Y-50577745D01*
X59849356Y-50526615D01*
X59965912Y-50439261D01*
X60053266Y-50322705D01*
X60104396Y-50186316D01*
X60111151Y-50124134D01*
X60111151Y-48427866D01*
X60104396Y-48365684D01*
X60053266Y-48229295D01*
X59965912Y-48112739D01*
X59849356Y-48025385D01*
X59712967Y-47974255D01*
X59650785Y-47967500D01*
X57954517Y-47967500D01*
X57892335Y-47974255D01*
X57755946Y-48025385D01*
X57639390Y-48112739D01*
X57552036Y-48229295D01*
X57500906Y-48365684D01*
X57494151Y-48427866D01*
X57494151Y-49459629D01*
X57474149Y-49527750D01*
X57457246Y-49548724D01*
X57179089Y-49826881D01*
X57164677Y-49839267D01*
X57153082Y-49847800D01*
X57153077Y-49847805D01*
X57147182Y-49852143D01*
X57142443Y-49857721D01*
X57142440Y-49857724D01*
X57112965Y-49892419D01*
X57106035Y-49899935D01*
X57100340Y-49905630D01*
X57098060Y-49908512D01*
X57082719Y-49927902D01*
X57079928Y-49931306D01*
X57037409Y-49981354D01*
X57032667Y-49986936D01*
X57029339Y-49993452D01*
X57025972Y-49998501D01*
X57022805Y-50003630D01*
X57018266Y-50009367D01*
X56987345Y-50075526D01*
X56985442Y-50079420D01*
X56952231Y-50144459D01*
X56950492Y-50151567D01*
X56948393Y-50157210D01*
X56946476Y-50162973D01*
X56943378Y-50169601D01*
X56941888Y-50176763D01*
X56941888Y-50176764D01*
X56928514Y-50241063D01*
X56927544Y-50245347D01*
X56910192Y-50316261D01*
X56909500Y-50327415D01*
X56909464Y-50327413D01*
X56909225Y-50331406D01*
X56908851Y-50335598D01*
X56907360Y-50342766D01*
X56907558Y-50350083D01*
X56909454Y-50420172D01*
X56909500Y-50423579D01*
X56909500Y-55728709D01*
X56889498Y-55796830D01*
X56835842Y-55843323D01*
X56797108Y-55853972D01*
X56784914Y-55855297D01*
X56757684Y-55858255D01*
X56621295Y-55909385D01*
X56504739Y-55996739D01*
X56417385Y-56113295D01*
X56366255Y-56249684D01*
X56359500Y-56311866D01*
X56359500Y-58008134D01*
X56366255Y-58070316D01*
X56417385Y-58206705D01*
X56504739Y-58323261D01*
X56621295Y-58410615D01*
X56757684Y-58461745D01*
X56768474Y-58462917D01*
X56770606Y-58463803D01*
X56773222Y-58464425D01*
X56773121Y-58464848D01*
X56834035Y-58490155D01*
X56874463Y-58548517D01*
X56876922Y-58619471D01*
X56840629Y-58680490D01*
X56831969Y-58687489D01*
X56828207Y-58690646D01*
X56823700Y-58693802D01*
X56661802Y-58855700D01*
X56658645Y-58860208D01*
X56658643Y-58860211D01*
X56616068Y-58921015D01*
X56530477Y-59043251D01*
X56528154Y-59048233D01*
X56528151Y-59048238D01*
X56472006Y-59168643D01*
X56433716Y-59250757D01*
X56432294Y-59256065D01*
X56432293Y-59256067D01*
X56403817Y-59362342D01*
X56374457Y-59471913D01*
X56354502Y-59700000D01*
X56374457Y-59928087D01*
X56433716Y-60149243D01*
X56436039Y-60154224D01*
X56436039Y-60154225D01*
X56528151Y-60351762D01*
X56528154Y-60351767D01*
X56530477Y-60356749D01*
X56661802Y-60544300D01*
X56823700Y-60706198D01*
X56828208Y-60709355D01*
X56828211Y-60709357D01*
X56906389Y-60764098D01*
X57011251Y-60837523D01*
X57016233Y-60839846D01*
X57016238Y-60839849D01*
X57050457Y-60855805D01*
X57103742Y-60902722D01*
X57123203Y-60970999D01*
X57102661Y-61038959D01*
X57050457Y-61084195D01*
X57016238Y-61100151D01*
X57016233Y-61100154D01*
X57011251Y-61102477D01*
X56906389Y-61175902D01*
X56828211Y-61230643D01*
X56828208Y-61230645D01*
X56823700Y-61233802D01*
X56661802Y-61395700D01*
X56530477Y-61583251D01*
X56528154Y-61588233D01*
X56528151Y-61588238D01*
X56436039Y-61785775D01*
X56433716Y-61790757D01*
X56374457Y-62011913D01*
X56354502Y-62240000D01*
X56374457Y-62468087D01*
X56433716Y-62689243D01*
X56436039Y-62694224D01*
X56436039Y-62694225D01*
X56528151Y-62891762D01*
X56528154Y-62891767D01*
X56530477Y-62896749D01*
X56661802Y-63084300D01*
X56823700Y-63246198D01*
X56828208Y-63249355D01*
X56828211Y-63249357D01*
X56906389Y-63304098D01*
X57011251Y-63377523D01*
X57016233Y-63379846D01*
X57016238Y-63379849D01*
X57051049Y-63396081D01*
X57104334Y-63442998D01*
X57123795Y-63511275D01*
X57103253Y-63579235D01*
X57051049Y-63624471D01*
X57016489Y-63640586D01*
X57006993Y-63646069D01*
X56828533Y-63771028D01*
X56820125Y-63778084D01*
X56666084Y-63932125D01*
X56659028Y-63940533D01*
X56534069Y-64118993D01*
X56528586Y-64128489D01*
X56436510Y-64325947D01*
X56432764Y-64336239D01*
X56381911Y-64526027D01*
X56344959Y-64586650D01*
X56281099Y-64617671D01*
X56210604Y-64609243D01*
X56155857Y-64564040D01*
X56151085Y-64556416D01*
X56133524Y-64526000D01*
X56111040Y-64487056D01*
X55983253Y-64345134D01*
X55828752Y-64232882D01*
X55822724Y-64230198D01*
X55822722Y-64230197D01*
X55660319Y-64157891D01*
X55660318Y-64157891D01*
X55654288Y-64155206D01*
X55560887Y-64135353D01*
X55473944Y-64116872D01*
X55473939Y-64116872D01*
X55467487Y-64115500D01*
X55276513Y-64115500D01*
X55270061Y-64116872D01*
X55270056Y-64116872D01*
X55183113Y-64135353D01*
X55089712Y-64155206D01*
X55083682Y-64157891D01*
X55083681Y-64157891D01*
X54921278Y-64230197D01*
X54921276Y-64230198D01*
X54915248Y-64232882D01*
X54760747Y-64345134D01*
X54632960Y-64487056D01*
X54537473Y-64652444D01*
X54478458Y-64834072D01*
X54477768Y-64840633D01*
X54477768Y-64840635D01*
X54459610Y-65013402D01*
X54458496Y-65024000D01*
X54459186Y-65030565D01*
X54476182Y-65192270D01*
X54478458Y-65213928D01*
X54537473Y-65395556D01*
X54540776Y-65401278D01*
X54540777Y-65401279D01*
X54573119Y-65457296D01*
X54632960Y-65560944D01*
X54637378Y-65565851D01*
X54637379Y-65565852D01*
X54662977Y-65594281D01*
X54760747Y-65702866D01*
X54848206Y-65766409D01*
X54903479Y-65806567D01*
X54915248Y-65815118D01*
X54921276Y-65817802D01*
X54921278Y-65817803D01*
X55046749Y-65873666D01*
X55100845Y-65919646D01*
X55121500Y-65988773D01*
X55121500Y-67695500D01*
X55101498Y-67763621D01*
X55047842Y-67810114D01*
X54995500Y-67821500D01*
X53720000Y-67821500D01*
X53651879Y-67801498D01*
X53605386Y-67747842D01*
X53594000Y-67695500D01*
X53594000Y-67437000D01*
X50799000Y-67437000D01*
X50730879Y-67416998D01*
X50684386Y-67363342D01*
X50673000Y-67311000D01*
X50673000Y-65150000D01*
X50693002Y-65081879D01*
X50746658Y-65035386D01*
X50799000Y-65024000D01*
X53594000Y-65024000D01*
X53594000Y-59436000D01*
X50799000Y-59436000D01*
X50730879Y-59415998D01*
X50684386Y-59362342D01*
X50673000Y-59310000D01*
X50673000Y-57149000D01*
X50693002Y-57080879D01*
X50746658Y-57034386D01*
X50799000Y-57023000D01*
X53594000Y-57023000D01*
X53594000Y-49276000D01*
X53989153Y-49276000D01*
X54009108Y-49504087D01*
X54010532Y-49509400D01*
X54010532Y-49509402D01*
X54021069Y-49548724D01*
X54068367Y-49725243D01*
X54070690Y-49730224D01*
X54070690Y-49730225D01*
X54162802Y-49927762D01*
X54162805Y-49927767D01*
X54165128Y-49932749D01*
X54168285Y-49937257D01*
X54267833Y-50079426D01*
X54296453Y-50120300D01*
X54458351Y-50282198D01*
X54462859Y-50285355D01*
X54462862Y-50285357D01*
X54522927Y-50327415D01*
X54645902Y-50413523D01*
X54650884Y-50415846D01*
X54650889Y-50415849D01*
X54848426Y-50507961D01*
X54853408Y-50510284D01*
X54858716Y-50511706D01*
X54858718Y-50511707D01*
X55069249Y-50568119D01*
X55069251Y-50568119D01*
X55074564Y-50569543D01*
X55302651Y-50589498D01*
X55530738Y-50569543D01*
X55536051Y-50568119D01*
X55536053Y-50568119D01*
X55746584Y-50511707D01*
X55746586Y-50511706D01*
X55751894Y-50510284D01*
X55756876Y-50507961D01*
X55954413Y-50415849D01*
X55954418Y-50415846D01*
X55959400Y-50413523D01*
X56082375Y-50327415D01*
X56142440Y-50285357D01*
X56142443Y-50285355D01*
X56146951Y-50282198D01*
X56308849Y-50120300D01*
X56337470Y-50079426D01*
X56437017Y-49937257D01*
X56440174Y-49932749D01*
X56442497Y-49927767D01*
X56442500Y-49927762D01*
X56534612Y-49730225D01*
X56534612Y-49730224D01*
X56536935Y-49725243D01*
X56584234Y-49548724D01*
X56594770Y-49509402D01*
X56594770Y-49509400D01*
X56596194Y-49504087D01*
X56616149Y-49276000D01*
X56596194Y-49047913D01*
X56545742Y-48859624D01*
X56538358Y-48832067D01*
X56538357Y-48832065D01*
X56536935Y-48826757D01*
X56534612Y-48821775D01*
X56442500Y-48624238D01*
X56442497Y-48624233D01*
X56440174Y-48619251D01*
X56341879Y-48478872D01*
X56312008Y-48436211D01*
X56312006Y-48436208D01*
X56308849Y-48431700D01*
X56146951Y-48269802D01*
X56142443Y-48266645D01*
X56142440Y-48266643D01*
X56064262Y-48211902D01*
X55959400Y-48138477D01*
X55954418Y-48136154D01*
X55954413Y-48136151D01*
X55756876Y-48044039D01*
X55756875Y-48044039D01*
X55751894Y-48041716D01*
X55746586Y-48040294D01*
X55746584Y-48040293D01*
X55536053Y-47983881D01*
X55536051Y-47983881D01*
X55530738Y-47982457D01*
X55302651Y-47962502D01*
X55074564Y-47982457D01*
X55069251Y-47983881D01*
X55069249Y-47983881D01*
X54858718Y-48040293D01*
X54858716Y-48040294D01*
X54853408Y-48041716D01*
X54848427Y-48044039D01*
X54848426Y-48044039D01*
X54650889Y-48136151D01*
X54650884Y-48136154D01*
X54645902Y-48138477D01*
X54541040Y-48211902D01*
X54462862Y-48266643D01*
X54462859Y-48266645D01*
X54458351Y-48269802D01*
X54296453Y-48431700D01*
X54293296Y-48436208D01*
X54293294Y-48436211D01*
X54263423Y-48478872D01*
X54165128Y-48619251D01*
X54162805Y-48624233D01*
X54162802Y-48624238D01*
X54070690Y-48821775D01*
X54068367Y-48826757D01*
X54066945Y-48832065D01*
X54066944Y-48832067D01*
X54059560Y-48859624D01*
X54009108Y-49047913D01*
X53989153Y-49276000D01*
X53594000Y-49276000D01*
X53594000Y-45084500D01*
X53614002Y-45016379D01*
X53667658Y-44969886D01*
X53720000Y-44958500D01*
X72373543Y-44958500D01*
X72441664Y-44978502D01*
G37*
%TD.AperFunction*%
%TA.AperFunction,Conductor*%
G36*
X75744216Y-44978502D02*
G01*
X75790709Y-45032158D01*
X75800813Y-45102432D01*
X75790290Y-45137750D01*
X75730510Y-45265947D01*
X75726764Y-45276239D01*
X75680606Y-45448503D01*
X75680942Y-45462599D01*
X75688884Y-45466000D01*
X77090000Y-45466000D01*
X77158121Y-45486002D01*
X77204614Y-45539658D01*
X77216000Y-45592000D01*
X77216000Y-46987967D01*
X77219973Y-47001498D01*
X77228522Y-47002727D01*
X77405761Y-46955236D01*
X77416053Y-46951490D01*
X77613511Y-46859414D01*
X77623007Y-46853931D01*
X77801467Y-46728972D01*
X77809875Y-46721916D01*
X77963916Y-46567875D01*
X77970972Y-46559467D01*
X78002287Y-46514744D01*
X78057744Y-46470416D01*
X78128363Y-46463107D01*
X78191724Y-46495138D01*
X78227709Y-46556339D01*
X78231500Y-46587015D01*
X78231500Y-52472113D01*
X78211498Y-52540234D01*
X78157842Y-52586727D01*
X78087568Y-52596831D01*
X78022988Y-52567337D01*
X78002287Y-52544384D01*
X77971357Y-52500211D01*
X77971355Y-52500208D01*
X77968198Y-52495700D01*
X77806300Y-52333802D01*
X77774229Y-52311345D01*
X77729901Y-52255890D01*
X77720500Y-52208133D01*
X77720500Y-49089069D01*
X77721933Y-49070118D01*
X77724099Y-49055883D01*
X77724099Y-49055881D01*
X77725199Y-49048651D01*
X77720915Y-48995982D01*
X77720500Y-48985767D01*
X77720500Y-48977707D01*
X77717211Y-48949493D01*
X77716778Y-48945118D01*
X77711454Y-48879661D01*
X77711453Y-48879658D01*
X77710860Y-48872363D01*
X77708604Y-48865399D01*
X77707413Y-48859440D01*
X77706029Y-48853585D01*
X77705182Y-48846319D01*
X77680265Y-48777673D01*
X77678848Y-48773545D01*
X77658607Y-48711064D01*
X77658606Y-48711062D01*
X77656351Y-48704101D01*
X77652555Y-48697846D01*
X77650049Y-48692372D01*
X77647330Y-48686942D01*
X77644833Y-48680063D01*
X77604814Y-48619024D01*
X77602467Y-48615305D01*
X77602126Y-48614743D01*
X77564595Y-48552893D01*
X77557197Y-48544516D01*
X77557224Y-48544492D01*
X77554571Y-48541500D01*
X77551868Y-48538267D01*
X77547856Y-48532148D01*
X77491617Y-48478872D01*
X77489175Y-48476494D01*
X74999203Y-45986522D01*
X75679273Y-45986522D01*
X75726764Y-46163761D01*
X75730510Y-46174053D01*
X75822586Y-46371511D01*
X75828069Y-46381007D01*
X75953028Y-46559467D01*
X75960084Y-46567875D01*
X76114125Y-46721916D01*
X76122533Y-46728972D01*
X76300993Y-46853931D01*
X76310489Y-46859414D01*
X76507947Y-46951490D01*
X76518239Y-46955236D01*
X76690503Y-47001394D01*
X76704599Y-47001058D01*
X76708000Y-46993116D01*
X76708000Y-45992115D01*
X76703525Y-45976876D01*
X76702135Y-45975671D01*
X76694452Y-45974000D01*
X75694033Y-45974000D01*
X75680502Y-45977973D01*
X75679273Y-45986522D01*
X74999203Y-45986522D01*
X74995671Y-45982990D01*
X74961645Y-45920678D01*
X74959245Y-45882913D01*
X74973019Y-45725475D01*
X74973498Y-45720000D01*
X74953543Y-45491913D01*
X74894284Y-45270757D01*
X74832262Y-45137749D01*
X74821601Y-45067558D01*
X74850581Y-45002745D01*
X74910001Y-44963889D01*
X74946457Y-44958500D01*
X75676095Y-44958500D01*
X75744216Y-44978502D01*
G37*
%TD.AperFunction*%
%TD*%
M02*
