M48
; DRILL file {KiCad (6.0.8-1)-1} date Friday, October 28, 2022 at 11:41:10 PM
; FORMAT={-:-/ absolute / inch / decimal}
; #@! TF.CreationDate,2022-10-28T23:41:10-05:00
; #@! TF.GenerationSoftware,Kicad,Pcbnew,(6.0.8-1)-1
; #@! TF.FileFunction,MixedPlating,1,2
FMAT,2
INCH
; #@! TA.AperFunction,Plated,PTH,ComponentDrill
T1C0.0300
; #@! TA.AperFunction,Plated,PTH,ComponentDrill
T2C0.0315
; #@! TA.AperFunction,Plated,PTH,ComponentDrill
T3C0.0394
; #@! TA.AperFunction,Plated,PTH,ComponentDrill
T4C0.0472
; #@! TA.AperFunction,Plated,PTH,ComponentDrill
T5C0.0472
; #@! TA.AperFunction,Plated,PTH,ComponentDrill
T6C0.0708
; #@! TA.AperFunction,NonPlated,NPTH,ComponentDrill
T7C0.1181
; #@! TA.AperFunction,NonPlated,NPTH,ComponentDrill
T8C0.1575
%
G90
G05
T1
X1.9658Y-2.1352
X1.9658Y-2.2926
X1.9658Y-2.4501
X1.9658Y-2.6076
X1.9658Y-2.7651
X1.9658Y-2.9226
X1.9658Y-3.08
X1.9658Y-3.2375
X1.9658Y-3.395
X1.9658Y-3.5525
X1.9658Y-3.71
X1.9658Y-3.8674
X1.9658Y-4.0249
X1.9658Y-4.1824
X1.9658Y-4.3399
X1.9658Y-4.4974
X1.9658Y-4.6548
X1.9658Y-4.8123
T2
X2.295Y-4.075
X2.4919Y-4.075
T3
X2.28Y-4.6837
X2.38Y-4.6837
X2.68Y-4.6837
X2.78Y-4.6837
X2.88Y-4.6837
X2.98Y-4.6837
T4
X2.7428Y-4.0216
X2.7428Y-4.2184
T5
X2.1691Y-4.97
X3.0509Y-4.97
T6
X2.3161Y-1.9206
X2.3161Y-2.086
X2.3161Y-2.2513
X2.3161Y-2.4167
X2.3161Y-2.582
X2.3161Y-2.7474
X2.3161Y-2.9126
X2.3161Y-3.078
X2.3161Y-3.2433
X2.3161Y-3.4087
X2.3161Y-3.574
X2.3161Y-3.7394
X2.5326Y-1.9206
X2.5326Y-2.086
X2.5326Y-2.2513
X2.5326Y-2.4167
X2.5326Y-2.582
X2.5326Y-2.7474
X2.5326Y-2.9126
X2.5326Y-3.078
X2.5326Y-3.2433
X2.5326Y-3.4087
X2.5326Y-3.574
X2.5326Y-3.7394
T7
X2.82Y-1.9206
X2.82Y-3.7394
T8
X3.0184Y-4.12
T0
M30
