M48
; DRILL file {KiCad (6.0.8-1)-1} date Thursday, November 10, 2022 at 09:52:21 AM
; FORMAT={-:-/ absolute / inch / decimal}
; #@! TF.CreationDate,2022-11-10T09:52:21-06:00
; #@! TF.GenerationSoftware,Kicad,Pcbnew,(6.0.8-1)-1
; #@! TF.FileFunction,MixedPlating,1,2
FMAT,2
INCH
; #@! TA.AperFunction,Plated,PTH,ComponentDrill
T1C0.0295
; #@! TA.AperFunction,Plated,PTH,ComponentDrill
T2C0.0300
; #@! TA.AperFunction,Plated,PTH,ComponentDrill
T3C0.0315
; #@! TA.AperFunction,Plated,PTH,ComponentDrill
T4C0.0394
; #@! TA.AperFunction,Plated,PTH,ComponentDrill
T5C0.0708
; #@! TA.AperFunction,NonPlated,NPTH,ComponentDrill
T6C0.1181
%
G90
G05
T1
X2.31Y-2.59
X2.31Y-2.64
X2.31Y-2.69
T2
X1.9658Y-2.1352
X1.9658Y-2.2926
X1.9658Y-2.4501
X1.9658Y-2.6076
X1.9658Y-2.7651
X1.9658Y-2.9226
X1.9658Y-3.08
X1.9658Y-3.2375
X1.9658Y-3.395
X1.9658Y-3.5525
X1.9658Y-3.71
X1.9658Y-3.8674
X1.9658Y-4.0249
X1.9658Y-4.1824
X1.9658Y-4.3399
X1.9658Y-4.4974
X1.9658Y-4.6548
X1.9658Y-4.8123
T3
X2.31Y-2.1289
X2.31Y-2.2076
X2.31Y-3.1208
X2.31Y-3.2192
X2.5974Y-2.72
X2.6761Y-2.72
T4
X2.28Y-3.9076
X2.28Y-4.8524
X2.55Y-2.1637
X2.65Y-2.1637
X2.85Y-2.1637
X2.95Y-2.1637
X3.05Y-2.1637
X3.12Y-2.58
X3.12Y-2.6784
T5
X2.5261Y-3.0006
X2.5261Y-3.166
X2.5261Y-3.3313
X2.5261Y-3.4967
X2.5261Y-3.662
X2.5261Y-3.8274
X2.5261Y-3.9926
X2.5261Y-4.158
X2.5261Y-4.3233
X2.5261Y-4.4887
X2.5261Y-4.654
X2.5261Y-4.8194
X2.7426Y-3.0006
X2.7426Y-3.166
X2.7426Y-3.3313
X2.7426Y-3.4967
X2.7426Y-3.662
X2.7426Y-3.8274
X2.7426Y-3.9926
X2.7426Y-4.158
X2.7426Y-4.3233
X2.7426Y-4.4887
X2.7426Y-4.654
X2.7426Y-4.8194
T6
X3.03Y-3.0006
X3.03Y-4.8194
T0
M30
