%TF.GenerationSoftware,KiCad,Pcbnew,(6.0.8-1)-1*%
%TF.CreationDate,2022-10-28T23:41:02-05:00*%
%TF.ProjectId,VT105_ATX_DCDC,56543130-355f-4415-9458-5f444344432e,rev?*%
%TF.SameCoordinates,Original*%
%TF.FileFunction,Legend,Top*%
%TF.FilePolarity,Positive*%
%FSLAX46Y46*%
G04 Gerber Fmt 4.6, Leading zero omitted, Abs format (unit mm)*
G04 Created by KiCad (PCBNEW (6.0.8-1)-1) date 2022-10-28 23:41:02*
%MOMM*%
%LPD*%
G01*
G04 APERTURE LIST*
%ADD10C,0.125000*%
%ADD11C,0.150000*%
%ADD12C,0.100000*%
%ADD13C,0.127000*%
%ADD14C,0.120000*%
%ADD15C,0.203200*%
%ADD16C,0.254000*%
G04 APERTURE END LIST*
D10*
X51943047Y-66044000D02*
X51895428Y-66020190D01*
X51824000Y-66020190D01*
X51752571Y-66044000D01*
X51704952Y-66091619D01*
X51681142Y-66139238D01*
X51657333Y-66234476D01*
X51657333Y-66305904D01*
X51681142Y-66401142D01*
X51704952Y-66448761D01*
X51752571Y-66496380D01*
X51824000Y-66520190D01*
X51871619Y-66520190D01*
X51943047Y-66496380D01*
X51966857Y-66472571D01*
X51966857Y-66305904D01*
X51871619Y-66305904D01*
X52181142Y-66520190D02*
X52181142Y-66020190D01*
X52466857Y-66520190D01*
X52466857Y-66020190D01*
X52704952Y-66520190D02*
X52704952Y-66020190D01*
X52824000Y-66020190D01*
X52895428Y-66044000D01*
X52943047Y-66091619D01*
X52966857Y-66139238D01*
X52990666Y-66234476D01*
X52990666Y-66305904D01*
X52966857Y-66401142D01*
X52943047Y-66448761D01*
X52895428Y-66496380D01*
X52824000Y-66520190D01*
X52704952Y-66520190D01*
D11*
X52578000Y-115250000D02*
X52578000Y-123500000D01*
X52578000Y-93340000D02*
X52578000Y-85090000D01*
X52578000Y-103439000D02*
X52578000Y-95189000D01*
X52578000Y-113250000D02*
X52578000Y-105000000D01*
D10*
X52197047Y-81597500D02*
X52149428Y-81573690D01*
X52078000Y-81573690D01*
X52006571Y-81597500D01*
X51958952Y-81645119D01*
X51935142Y-81692738D01*
X51911333Y-81787976D01*
X51911333Y-81859404D01*
X51935142Y-81954642D01*
X51958952Y-82002261D01*
X52006571Y-82049880D01*
X52078000Y-82073690D01*
X52125619Y-82073690D01*
X52197047Y-82049880D01*
X52220857Y-82026071D01*
X52220857Y-81859404D01*
X52125619Y-81859404D01*
X52435142Y-82073690D02*
X52435142Y-81573690D01*
X52720857Y-82073690D01*
X52720857Y-81573690D01*
X52958952Y-82073690D02*
X52958952Y-81573690D01*
X53078000Y-81573690D01*
X53149428Y-81597500D01*
X53197047Y-81645119D01*
X53220857Y-81692738D01*
X53244666Y-81787976D01*
X53244666Y-81859404D01*
X53220857Y-81954642D01*
X53197047Y-82002261D01*
X53149428Y-82049880D01*
X53078000Y-82073690D01*
X52958952Y-82073690D01*
X51506571Y-83069166D02*
X51482761Y-83045357D01*
X51435142Y-82973928D01*
X51411333Y-82926309D01*
X51387523Y-82854880D01*
X51363714Y-82735833D01*
X51363714Y-82640595D01*
X51387523Y-82521547D01*
X51411333Y-82450119D01*
X51435142Y-82402500D01*
X51482761Y-82331071D01*
X51506571Y-82307261D01*
X51697047Y-82688214D02*
X52078000Y-82688214D01*
X51887523Y-82878690D02*
X51887523Y-82497738D01*
X52578000Y-82878690D02*
X52292285Y-82878690D01*
X52435142Y-82878690D02*
X52435142Y-82378690D01*
X52387523Y-82450119D01*
X52339904Y-82497738D01*
X52292285Y-82521547D01*
X52768476Y-82426309D02*
X52792285Y-82402500D01*
X52839904Y-82378690D01*
X52958952Y-82378690D01*
X53006571Y-82402500D01*
X53030380Y-82426309D01*
X53054190Y-82473928D01*
X53054190Y-82521547D01*
X53030380Y-82592976D01*
X52744666Y-82878690D01*
X53054190Y-82878690D01*
X53197047Y-82378690D02*
X53363714Y-82878690D01*
X53530380Y-82378690D01*
X53649428Y-83069166D02*
X53673238Y-83045357D01*
X53720857Y-82973928D01*
X53744666Y-82926309D01*
X53768476Y-82854880D01*
X53792285Y-82735833D01*
X53792285Y-82640595D01*
X53768476Y-82521547D01*
X53744666Y-82450119D01*
X53720857Y-82402500D01*
X53673238Y-82331071D01*
X53649428Y-82307261D01*
X51443047Y-62265714D02*
X51824000Y-62265714D01*
X51633523Y-62456190D02*
X51633523Y-62075238D01*
X52324000Y-62456190D02*
X52038285Y-62456190D01*
X52181142Y-62456190D02*
X52181142Y-61956190D01*
X52133523Y-62027619D01*
X52085904Y-62075238D01*
X52038285Y-62099047D01*
X52514476Y-62003809D02*
X52538285Y-61980000D01*
X52585904Y-61956190D01*
X52704952Y-61956190D01*
X52752571Y-61980000D01*
X52776380Y-62003809D01*
X52800190Y-62051428D01*
X52800190Y-62099047D01*
X52776380Y-62170476D01*
X52490666Y-62456190D01*
X52800190Y-62456190D01*
X52943047Y-61956190D02*
X53109714Y-62456190D01*
X53276380Y-61956190D01*
X52197047Y-93984000D02*
X52149428Y-93960190D01*
X52078000Y-93960190D01*
X52006571Y-93984000D01*
X51958952Y-94031619D01*
X51935142Y-94079238D01*
X51911333Y-94174476D01*
X51911333Y-94245904D01*
X51935142Y-94341142D01*
X51958952Y-94388761D01*
X52006571Y-94436380D01*
X52078000Y-94460190D01*
X52125619Y-94460190D01*
X52197047Y-94436380D01*
X52220857Y-94412571D01*
X52220857Y-94245904D01*
X52125619Y-94245904D01*
X52435142Y-94460190D02*
X52435142Y-93960190D01*
X52720857Y-94460190D01*
X52720857Y-93960190D01*
X52958952Y-94460190D02*
X52958952Y-93960190D01*
X53078000Y-93960190D01*
X53149428Y-93984000D01*
X53197047Y-94031619D01*
X53220857Y-94079238D01*
X53244666Y-94174476D01*
X53244666Y-94245904D01*
X53220857Y-94341142D01*
X53197047Y-94388761D01*
X53149428Y-94436380D01*
X53078000Y-94460190D01*
X52958952Y-94460190D01*
X51189047Y-54285714D02*
X51570000Y-54285714D01*
X51379523Y-54476190D02*
X51379523Y-54095238D01*
X52070000Y-54476190D02*
X51784285Y-54476190D01*
X51927142Y-54476190D02*
X51927142Y-53976190D01*
X51879523Y-54047619D01*
X51831904Y-54095238D01*
X51784285Y-54119047D01*
X52260476Y-54023809D02*
X52284285Y-54000000D01*
X52331904Y-53976190D01*
X52450952Y-53976190D01*
X52498571Y-54000000D01*
X52522380Y-54023809D01*
X52546190Y-54071428D01*
X52546190Y-54119047D01*
X52522380Y-54190476D01*
X52236666Y-54476190D01*
X52546190Y-54476190D01*
X52689047Y-53976190D02*
X52855714Y-54476190D01*
X53022380Y-53976190D01*
D12*
X53854857Y-91813190D02*
X53873904Y-91832238D01*
X53892952Y-91889380D01*
X53892952Y-91927476D01*
X53873904Y-91984619D01*
X53835809Y-92022714D01*
X53797714Y-92041761D01*
X53721523Y-92060809D01*
X53664380Y-92060809D01*
X53588190Y-92041761D01*
X53550095Y-92022714D01*
X53512000Y-91984619D01*
X53492952Y-91927476D01*
X53492952Y-91889380D01*
X53512000Y-91832238D01*
X53531047Y-91813190D01*
X53626285Y-91470333D02*
X53892952Y-91470333D01*
X53626285Y-91641761D02*
X53835809Y-91641761D01*
X53873904Y-91622714D01*
X53892952Y-91584619D01*
X53892952Y-91527476D01*
X53873904Y-91489380D01*
X53854857Y-91470333D01*
X53626285Y-91337000D02*
X53626285Y-91184619D01*
X53492952Y-91279857D02*
X53835809Y-91279857D01*
X53873904Y-91260809D01*
X53892952Y-91222714D01*
X53892952Y-91184619D01*
X53626285Y-90803666D02*
X53626285Y-90651285D01*
X53492952Y-90746523D02*
X53835809Y-90746523D01*
X53873904Y-90727476D01*
X53892952Y-90689380D01*
X53892952Y-90651285D01*
X53892952Y-90460809D02*
X53873904Y-90498904D01*
X53854857Y-90517952D01*
X53816761Y-90537000D01*
X53702476Y-90537000D01*
X53664380Y-90517952D01*
X53645333Y-90498904D01*
X53626285Y-90460809D01*
X53626285Y-90403666D01*
X53645333Y-90365571D01*
X53664380Y-90346523D01*
X53702476Y-90327476D01*
X53816761Y-90327476D01*
X53854857Y-90346523D01*
X53873904Y-90365571D01*
X53892952Y-90403666D01*
X53892952Y-90460809D01*
X53892952Y-89851285D02*
X53492952Y-89851285D01*
X53492952Y-89756047D01*
X53512000Y-89698904D01*
X53550095Y-89660809D01*
X53588190Y-89641761D01*
X53664380Y-89622714D01*
X53721523Y-89622714D01*
X53797714Y-89641761D01*
X53835809Y-89660809D01*
X53873904Y-89698904D01*
X53892952Y-89756047D01*
X53892952Y-89851285D01*
X53892952Y-89451285D02*
X53626285Y-89451285D01*
X53492952Y-89451285D02*
X53512000Y-89470333D01*
X53531047Y-89451285D01*
X53512000Y-89432238D01*
X53492952Y-89451285D01*
X53531047Y-89451285D01*
X53873904Y-89279857D02*
X53892952Y-89241761D01*
X53892952Y-89165571D01*
X53873904Y-89127476D01*
X53835809Y-89108428D01*
X53816761Y-89108428D01*
X53778666Y-89127476D01*
X53759619Y-89165571D01*
X53759619Y-89222714D01*
X53740571Y-89260809D01*
X53702476Y-89279857D01*
X53683428Y-89279857D01*
X53645333Y-89260809D01*
X53626285Y-89222714D01*
X53626285Y-89165571D01*
X53645333Y-89127476D01*
X53873904Y-88765571D02*
X53892952Y-88803666D01*
X53892952Y-88879857D01*
X53873904Y-88917952D01*
X53854857Y-88937000D01*
X53816761Y-88956047D01*
X53702476Y-88956047D01*
X53664380Y-88937000D01*
X53645333Y-88917952D01*
X53626285Y-88879857D01*
X53626285Y-88803666D01*
X53645333Y-88765571D01*
X53892952Y-88537000D02*
X53873904Y-88575095D01*
X53854857Y-88594142D01*
X53816761Y-88613190D01*
X53702476Y-88613190D01*
X53664380Y-88594142D01*
X53645333Y-88575095D01*
X53626285Y-88537000D01*
X53626285Y-88479857D01*
X53645333Y-88441761D01*
X53664380Y-88422714D01*
X53702476Y-88403666D01*
X53816761Y-88403666D01*
X53854857Y-88422714D01*
X53873904Y-88441761D01*
X53892952Y-88479857D01*
X53892952Y-88537000D01*
X53626285Y-88232238D02*
X53892952Y-88232238D01*
X53664380Y-88232238D02*
X53645333Y-88213190D01*
X53626285Y-88175095D01*
X53626285Y-88117952D01*
X53645333Y-88079857D01*
X53683428Y-88060809D01*
X53892952Y-88060809D01*
X53626285Y-87870333D02*
X53892952Y-87870333D01*
X53664380Y-87870333D02*
X53645333Y-87851285D01*
X53626285Y-87813190D01*
X53626285Y-87756047D01*
X53645333Y-87717952D01*
X53683428Y-87698904D01*
X53892952Y-87698904D01*
X53873904Y-87356047D02*
X53892952Y-87394142D01*
X53892952Y-87470333D01*
X53873904Y-87508428D01*
X53835809Y-87527476D01*
X53683428Y-87527476D01*
X53645333Y-87508428D01*
X53626285Y-87470333D01*
X53626285Y-87394142D01*
X53645333Y-87356047D01*
X53683428Y-87337000D01*
X53721523Y-87337000D01*
X53759619Y-87527476D01*
X53873904Y-86994142D02*
X53892952Y-87032238D01*
X53892952Y-87108428D01*
X53873904Y-87146523D01*
X53854857Y-87165571D01*
X53816761Y-87184619D01*
X53702476Y-87184619D01*
X53664380Y-87165571D01*
X53645333Y-87146523D01*
X53626285Y-87108428D01*
X53626285Y-87032238D01*
X53645333Y-86994142D01*
X53626285Y-86879857D02*
X53626285Y-86727476D01*
X53492952Y-86822714D02*
X53835809Y-86822714D01*
X53873904Y-86803666D01*
X53892952Y-86765571D01*
X53892952Y-86727476D01*
X54384571Y-92041761D02*
X54384571Y-91737000D01*
X54536952Y-91889380D02*
X54232190Y-91889380D01*
X54536952Y-91337000D02*
X54536952Y-91565571D01*
X54536952Y-91451285D02*
X54136952Y-91451285D01*
X54194095Y-91489380D01*
X54232190Y-91527476D01*
X54251238Y-91565571D01*
X54175047Y-91184619D02*
X54156000Y-91165571D01*
X54136952Y-91127476D01*
X54136952Y-91032238D01*
X54156000Y-90994142D01*
X54175047Y-90975095D01*
X54213142Y-90956047D01*
X54251238Y-90956047D01*
X54308380Y-90975095D01*
X54536952Y-91203666D01*
X54536952Y-90956047D01*
X54136952Y-90841761D02*
X54536952Y-90708428D01*
X54136952Y-90575095D01*
X54136952Y-90194142D02*
X54536952Y-90060809D01*
X54136952Y-89927476D01*
X54536952Y-89794142D02*
X54270285Y-89794142D01*
X54136952Y-89794142D02*
X54156000Y-89813190D01*
X54175047Y-89794142D01*
X54156000Y-89775095D01*
X54136952Y-89794142D01*
X54175047Y-89794142D01*
X54536952Y-89432238D02*
X54136952Y-89432238D01*
X54517904Y-89432238D02*
X54536952Y-89470333D01*
X54536952Y-89546523D01*
X54517904Y-89584619D01*
X54498857Y-89603666D01*
X54460761Y-89622714D01*
X54346476Y-89622714D01*
X54308380Y-89603666D01*
X54289333Y-89584619D01*
X54270285Y-89546523D01*
X54270285Y-89470333D01*
X54289333Y-89432238D01*
X54517904Y-89089380D02*
X54536952Y-89127476D01*
X54536952Y-89203666D01*
X54517904Y-89241761D01*
X54479809Y-89260809D01*
X54327428Y-89260809D01*
X54289333Y-89241761D01*
X54270285Y-89203666D01*
X54270285Y-89127476D01*
X54289333Y-89089380D01*
X54327428Y-89070333D01*
X54365523Y-89070333D01*
X54403619Y-89260809D01*
X54536952Y-88841761D02*
X54517904Y-88879857D01*
X54498857Y-88898904D01*
X54460761Y-88917952D01*
X54346476Y-88917952D01*
X54308380Y-88898904D01*
X54289333Y-88879857D01*
X54270285Y-88841761D01*
X54270285Y-88784619D01*
X54289333Y-88746523D01*
X54308380Y-88727476D01*
X54346476Y-88708428D01*
X54460761Y-88708428D01*
X54498857Y-88727476D01*
X54517904Y-88746523D01*
X54536952Y-88784619D01*
X54536952Y-88841761D01*
X54156000Y-88022714D02*
X54136952Y-88060809D01*
X54136952Y-88117952D01*
X54156000Y-88175095D01*
X54194095Y-88213190D01*
X54232190Y-88232238D01*
X54308380Y-88251285D01*
X54365523Y-88251285D01*
X54441714Y-88232238D01*
X54479809Y-88213190D01*
X54517904Y-88175095D01*
X54536952Y-88117952D01*
X54536952Y-88079857D01*
X54517904Y-88022714D01*
X54498857Y-88003666D01*
X54365523Y-88003666D01*
X54365523Y-88079857D01*
X54536952Y-87832238D02*
X54136952Y-87832238D01*
X54536952Y-87603666D01*
X54136952Y-87603666D01*
X54536952Y-87413190D02*
X54136952Y-87413190D01*
X54136952Y-87317952D01*
X54156000Y-87260809D01*
X54194095Y-87222714D01*
X54232190Y-87203666D01*
X54308380Y-87184619D01*
X54365523Y-87184619D01*
X54441714Y-87203666D01*
X54479809Y-87222714D01*
X54517904Y-87260809D01*
X54536952Y-87317952D01*
X54536952Y-87413190D01*
X54914285Y-92098904D02*
X54914285Y-91946523D01*
X55180952Y-92041761D02*
X54838095Y-92041761D01*
X54800000Y-92022714D01*
X54780952Y-91984619D01*
X54780952Y-91946523D01*
X55180952Y-91813190D02*
X54914285Y-91813190D01*
X54990476Y-91813190D02*
X54952380Y-91794142D01*
X54933333Y-91775095D01*
X54914285Y-91737000D01*
X54914285Y-91698904D01*
X55180952Y-91508428D02*
X55161904Y-91546523D01*
X55142857Y-91565571D01*
X55104761Y-91584619D01*
X54990476Y-91584619D01*
X54952380Y-91565571D01*
X54933333Y-91546523D01*
X54914285Y-91508428D01*
X54914285Y-91451285D01*
X54933333Y-91413190D01*
X54952380Y-91394142D01*
X54990476Y-91375095D01*
X55104761Y-91375095D01*
X55142857Y-91394142D01*
X55161904Y-91413190D01*
X55180952Y-91451285D01*
X55180952Y-91508428D01*
X55180952Y-91203666D02*
X54914285Y-91203666D01*
X54952380Y-91203666D02*
X54933333Y-91184619D01*
X54914285Y-91146523D01*
X54914285Y-91089380D01*
X54933333Y-91051285D01*
X54971428Y-91032238D01*
X55180952Y-91032238D01*
X54971428Y-91032238D02*
X54933333Y-91013190D01*
X54914285Y-90975095D01*
X54914285Y-90917952D01*
X54933333Y-90879857D01*
X54971428Y-90860809D01*
X55180952Y-90860809D01*
X55066666Y-90384619D02*
X55066666Y-90194142D01*
X55180952Y-90422714D02*
X54780952Y-90289380D01*
X55180952Y-90156047D01*
X54780952Y-90079857D02*
X54780952Y-89851285D01*
X55180952Y-89965571D02*
X54780952Y-89965571D01*
X54780952Y-89756047D02*
X55180952Y-89489380D01*
X54780952Y-89489380D02*
X55180952Y-89756047D01*
X54800000Y-88822714D02*
X54780952Y-88860809D01*
X54780952Y-88917952D01*
X54800000Y-88975095D01*
X54838095Y-89013190D01*
X54876190Y-89032238D01*
X54952380Y-89051285D01*
X55009523Y-89051285D01*
X55085714Y-89032238D01*
X55123809Y-89013190D01*
X55161904Y-88975095D01*
X55180952Y-88917952D01*
X55180952Y-88879857D01*
X55161904Y-88822714D01*
X55142857Y-88803666D01*
X55009523Y-88803666D01*
X55009523Y-88879857D01*
X55180952Y-88632238D02*
X54780952Y-88632238D01*
X55180952Y-88403666D01*
X54780952Y-88403666D01*
X55180952Y-88213190D02*
X54780952Y-88213190D01*
X54780952Y-88117952D01*
X54800000Y-88060809D01*
X54838095Y-88022714D01*
X54876190Y-88003666D01*
X54952380Y-87984619D01*
X55009523Y-87984619D01*
X55085714Y-88003666D01*
X55123809Y-88022714D01*
X55161904Y-88060809D01*
X55180952Y-88117952D01*
X55180952Y-88213190D01*
D10*
X51903333Y-77958190D02*
X52236666Y-78458190D01*
X52236666Y-77958190D02*
X51903333Y-78458190D01*
X51935142Y-114285714D02*
X52316095Y-114285714D01*
X52125619Y-114476190D02*
X52125619Y-114095238D01*
X52792285Y-113976190D02*
X52554190Y-113976190D01*
X52530380Y-114214285D01*
X52554190Y-114190476D01*
X52601809Y-114166666D01*
X52720857Y-114166666D01*
X52768476Y-114190476D01*
X52792285Y-114214285D01*
X52816095Y-114261904D01*
X52816095Y-114380952D01*
X52792285Y-114428571D01*
X52768476Y-114452380D01*
X52720857Y-114476190D01*
X52601809Y-114476190D01*
X52554190Y-114452380D01*
X52530380Y-114428571D01*
X52958952Y-113976190D02*
X53125619Y-114476190D01*
X53292285Y-113976190D01*
X51943047Y-58000000D02*
X51895428Y-57976190D01*
X51824000Y-57976190D01*
X51752571Y-58000000D01*
X51704952Y-58047619D01*
X51681142Y-58095238D01*
X51657333Y-58190476D01*
X51657333Y-58261904D01*
X51681142Y-58357142D01*
X51704952Y-58404761D01*
X51752571Y-58452380D01*
X51824000Y-58476190D01*
X51871619Y-58476190D01*
X51943047Y-58452380D01*
X51966857Y-58428571D01*
X51966857Y-58261904D01*
X51871619Y-58261904D01*
X52181142Y-58476190D02*
X52181142Y-57976190D01*
X52466857Y-58476190D01*
X52466857Y-57976190D01*
X52704952Y-58476190D02*
X52704952Y-57976190D01*
X52824000Y-57976190D01*
X52895428Y-58000000D01*
X52943047Y-58047619D01*
X52966857Y-58095238D01*
X52990666Y-58190476D01*
X52990666Y-58261904D01*
X52966857Y-58357142D01*
X52943047Y-58404761D01*
X52895428Y-58452380D01*
X52824000Y-58476190D01*
X52704952Y-58476190D01*
X51443047Y-74285714D02*
X51824000Y-74285714D01*
X52038285Y-74023809D02*
X52062095Y-74000000D01*
X52109714Y-73976190D01*
X52228761Y-73976190D01*
X52276380Y-74000000D01*
X52300190Y-74023809D01*
X52324000Y-74071428D01*
X52324000Y-74119047D01*
X52300190Y-74190476D01*
X52014476Y-74476190D01*
X52324000Y-74476190D01*
X52490666Y-73976190D02*
X52800190Y-73976190D01*
X52633523Y-74166666D01*
X52704952Y-74166666D01*
X52752571Y-74190476D01*
X52776380Y-74214285D01*
X52800190Y-74261904D01*
X52800190Y-74380952D01*
X52776380Y-74428571D01*
X52752571Y-74452380D01*
X52704952Y-74476190D01*
X52562095Y-74476190D01*
X52514476Y-74452380D01*
X52490666Y-74428571D01*
X52943047Y-73976190D02*
X53109714Y-74476190D01*
X53276380Y-73976190D01*
X51443047Y-70285714D02*
X51824000Y-70285714D01*
X52324000Y-70476190D02*
X52038285Y-70476190D01*
X52181142Y-70476190D02*
X52181142Y-69976190D01*
X52133523Y-70047619D01*
X52085904Y-70095238D01*
X52038285Y-70119047D01*
X52514476Y-70023809D02*
X52538285Y-70000000D01*
X52585904Y-69976190D01*
X52704952Y-69976190D01*
X52752571Y-70000000D01*
X52776380Y-70023809D01*
X52800190Y-70071428D01*
X52800190Y-70119047D01*
X52776380Y-70190476D01*
X52490666Y-70476190D01*
X52800190Y-70476190D01*
X52943047Y-69976190D02*
X53109714Y-70476190D01*
X53276380Y-69976190D01*
D11*
%TO.C,C1*%
X60626333Y-103862142D02*
X60578714Y-103909761D01*
X60435857Y-103957380D01*
X60340619Y-103957380D01*
X60197761Y-103909761D01*
X60102523Y-103814523D01*
X60054904Y-103719285D01*
X60007285Y-103528809D01*
X60007285Y-103385952D01*
X60054904Y-103195476D01*
X60102523Y-103100238D01*
X60197761Y-103005000D01*
X60340619Y-102957380D01*
X60435857Y-102957380D01*
X60578714Y-103005000D01*
X60626333Y-103052619D01*
X61578714Y-103957380D02*
X61007285Y-103957380D01*
X61293000Y-103957380D02*
X61293000Y-102957380D01*
X61197761Y-103100238D01*
X61102523Y-103195476D01*
X61007285Y-103243095D01*
D10*
%TO.C,U1*%
X75819047Y-113391190D02*
X75819047Y-113795952D01*
X75842857Y-113843571D01*
X75866666Y-113867380D01*
X75914285Y-113891190D01*
X76009523Y-113891190D01*
X76057142Y-113867380D01*
X76080952Y-113843571D01*
X76104761Y-113795952D01*
X76104761Y-113391190D01*
X76604761Y-113891190D02*
X76319047Y-113891190D01*
X76461904Y-113891190D02*
X76461904Y-113391190D01*
X76414285Y-113462619D01*
X76366666Y-113510238D01*
X76319047Y-113534047D01*
D13*
%TO.C,J1*%
X65834171Y-108746135D02*
X66269600Y-108746135D01*
X66356685Y-108775164D01*
X66414742Y-108833221D01*
X66443771Y-108920307D01*
X66443771Y-108978364D01*
X66443771Y-108136535D02*
X66443771Y-108484878D01*
X66443771Y-108310707D02*
X65834171Y-108310707D01*
X65921257Y-108368764D01*
X65979314Y-108426821D01*
X66008342Y-108484878D01*
X74134771Y-108920307D02*
X73525171Y-108920307D01*
X73525171Y-108688078D01*
X73554200Y-108630021D01*
X73583228Y-108600992D01*
X73641285Y-108571964D01*
X73728371Y-108571964D01*
X73786428Y-108600992D01*
X73815457Y-108630021D01*
X73844485Y-108688078D01*
X73844485Y-108920307D01*
X74134771Y-108223621D02*
X74105742Y-108281678D01*
X74076714Y-108310707D01*
X74018657Y-108339735D01*
X73844485Y-108339735D01*
X73786428Y-108310707D01*
X73757400Y-108281678D01*
X73728371Y-108223621D01*
X73728371Y-108136535D01*
X73757400Y-108078478D01*
X73786428Y-108049450D01*
X73844485Y-108020421D01*
X74018657Y-108020421D01*
X74076714Y-108049450D01*
X74105742Y-108078478D01*
X74134771Y-108136535D01*
X74134771Y-108223621D01*
X73728371Y-107817221D02*
X74134771Y-107701107D01*
X73844485Y-107584992D01*
X74134771Y-107468878D01*
X73728371Y-107352764D01*
X74105742Y-106888307D02*
X74134771Y-106946364D01*
X74134771Y-107062478D01*
X74105742Y-107120535D01*
X74047685Y-107149564D01*
X73815457Y-107149564D01*
X73757400Y-107120535D01*
X73728371Y-107062478D01*
X73728371Y-106946364D01*
X73757400Y-106888307D01*
X73815457Y-106859278D01*
X73873514Y-106859278D01*
X73931571Y-107149564D01*
X74134771Y-106598021D02*
X73728371Y-106598021D01*
X73844485Y-106598021D02*
X73786428Y-106568992D01*
X73757400Y-106539964D01*
X73728371Y-106481907D01*
X73728371Y-106423850D01*
X74105742Y-105785221D02*
X74134771Y-105698135D01*
X74134771Y-105552992D01*
X74105742Y-105494935D01*
X74076714Y-105465907D01*
X74018657Y-105436878D01*
X73960600Y-105436878D01*
X73902542Y-105465907D01*
X73873514Y-105494935D01*
X73844485Y-105552992D01*
X73815457Y-105669107D01*
X73786428Y-105727164D01*
X73757400Y-105756192D01*
X73699342Y-105785221D01*
X73641285Y-105785221D01*
X73583228Y-105756192D01*
X73554200Y-105727164D01*
X73525171Y-105669107D01*
X73525171Y-105523964D01*
X73554200Y-105436878D01*
X73728371Y-105233678D02*
X74134771Y-105117564D01*
X73844485Y-105001450D01*
X74134771Y-104885335D01*
X73728371Y-104769221D01*
X74134771Y-104536992D02*
X73728371Y-104536992D01*
X73525171Y-104536992D02*
X73554200Y-104566021D01*
X73583228Y-104536992D01*
X73554200Y-104507964D01*
X73525171Y-104536992D01*
X73583228Y-104536992D01*
X73728371Y-104333792D02*
X73728371Y-104101564D01*
X73525171Y-104246707D02*
X74047685Y-104246707D01*
X74105742Y-104217678D01*
X74134771Y-104159621D01*
X74134771Y-104101564D01*
X74105742Y-103637107D02*
X74134771Y-103695164D01*
X74134771Y-103811278D01*
X74105742Y-103869335D01*
X74076714Y-103898364D01*
X74018657Y-103927392D01*
X73844485Y-103927392D01*
X73786428Y-103898364D01*
X73757400Y-103869335D01*
X73728371Y-103811278D01*
X73728371Y-103695164D01*
X73757400Y-103637107D01*
X74134771Y-103375850D02*
X73525171Y-103375850D01*
X74134771Y-103114592D02*
X73815457Y-103114592D01*
X73757400Y-103143621D01*
X73728371Y-103201678D01*
X73728371Y-103288764D01*
X73757400Y-103346821D01*
X73786428Y-103375850D01*
D11*
%TO.C,R1*%
X74763333Y-128722380D02*
X74430000Y-128246190D01*
X74191904Y-128722380D02*
X74191904Y-127722380D01*
X74572857Y-127722380D01*
X74668095Y-127770000D01*
X74715714Y-127817619D01*
X74763333Y-127912857D01*
X74763333Y-128055714D01*
X74715714Y-128150952D01*
X74668095Y-128198571D01*
X74572857Y-128246190D01*
X74191904Y-128246190D01*
X75715714Y-128722380D02*
X75144285Y-128722380D01*
X75430000Y-128722380D02*
X75430000Y-127722380D01*
X75334761Y-127865238D01*
X75239523Y-127960476D01*
X75144285Y-128008095D01*
D13*
%TO.C,J2*%
X61264800Y-94916171D02*
X61264800Y-95351600D01*
X61235771Y-95438685D01*
X61177714Y-95496742D01*
X61090628Y-95525771D01*
X61032571Y-95525771D01*
X61526057Y-94974228D02*
X61555085Y-94945200D01*
X61613142Y-94916171D01*
X61758285Y-94916171D01*
X61816342Y-94945200D01*
X61845371Y-94974228D01*
X61874400Y-95032285D01*
X61874400Y-95090342D01*
X61845371Y-95177428D01*
X61497028Y-95525771D01*
X61874400Y-95525771D01*
X59842400Y-50901600D02*
X60132685Y-50901600D01*
X59784342Y-51075771D02*
X59987542Y-50466171D01*
X60190742Y-51075771D01*
X60306857Y-50466171D02*
X60655200Y-50466171D01*
X60481028Y-51075771D02*
X60481028Y-50466171D01*
X60800342Y-50466171D02*
X61206742Y-51075771D01*
X61206742Y-50466171D02*
X60800342Y-51075771D01*
X61438971Y-50843542D02*
X61903428Y-50843542D01*
X62164685Y-50524228D02*
X62193714Y-50495200D01*
X62251771Y-50466171D01*
X62396914Y-50466171D01*
X62454971Y-50495200D01*
X62484000Y-50524228D01*
X62513028Y-50582285D01*
X62513028Y-50640342D01*
X62484000Y-50727428D01*
X62135657Y-51075771D01*
X62513028Y-51075771D01*
X63035542Y-50669371D02*
X63035542Y-51075771D01*
X62890400Y-50437142D02*
X62745257Y-50872571D01*
X63122628Y-50872571D01*
D14*
%TO.C,C1*%
X65913000Y-103505000D02*
G75*
G03*
X65913000Y-103505000I-5120000J0D01*
G01*
%TO.C,U1*%
X56007000Y-112617000D02*
X77597000Y-112617000D01*
X56007000Y-120237000D02*
X56007000Y-112617000D01*
X77597000Y-112617000D02*
X77597000Y-120237000D01*
X77597000Y-120237000D02*
X56007000Y-120237000D01*
D15*
%TO.C,J1*%
X72467080Y-100148000D02*
X73267180Y-100148000D01*
X72467080Y-100148000D02*
X72467080Y-109148000D01*
X73267180Y-100148000D02*
X73267180Y-109148000D01*
X73267180Y-109148000D02*
X72467080Y-109148000D01*
D14*
%TO.C,JP1*%
X53210000Y-84344000D02*
X56010000Y-84344000D01*
X56010000Y-84344000D02*
X56010000Y-86344000D01*
X53210000Y-86344000D02*
X53210000Y-84344000D01*
X56010000Y-86344000D02*
X53210000Y-86344000D01*
%TO.C,R1*%
X56174000Y-129558000D02*
X56174000Y-127678000D01*
X76414000Y-122918000D02*
X56174000Y-122918000D01*
X76414000Y-127678000D02*
X76414000Y-129558000D01*
X56174000Y-122918000D02*
X56174000Y-124798000D01*
X76414000Y-129558000D02*
X56174000Y-129558000D01*
X76414000Y-124798000D02*
X76414000Y-122918000D01*
D16*
%TO.C,J2*%
X65689480Y-54084220D02*
X65689480Y-56083200D01*
X75087480Y-73581260D02*
X75087480Y-70182740D01*
X65689480Y-62484000D02*
X65689480Y-64482980D01*
X65689480Y-83380580D02*
X65689480Y-85379560D01*
X76085700Y-70182740D02*
X75087480Y-70182740D01*
X65689480Y-87680800D02*
X65689480Y-89679780D01*
X78087220Y-73581260D02*
X75087480Y-73581260D01*
X65689480Y-45984160D02*
X65689480Y-47884080D01*
X65689480Y-75079860D02*
X65689480Y-77081380D01*
X65689480Y-91881960D02*
X65689480Y-93880940D01*
X78226920Y-97779840D02*
X78226920Y-45984160D01*
X65689480Y-58282840D02*
X65689480Y-60284360D01*
X65689480Y-97779840D02*
X78226920Y-97779840D01*
X65689480Y-49883060D02*
X65689480Y-51882040D01*
X78226920Y-45984160D02*
X65689480Y-45984160D01*
X75087480Y-70182740D02*
X78087220Y-70182740D01*
X75087480Y-70182740D02*
X75087480Y-73581260D01*
X65689480Y-79281020D02*
X65689480Y-81280000D01*
X65689480Y-70883780D02*
X65689480Y-72880220D01*
X75087480Y-73581260D02*
X76085700Y-73581260D01*
X65689480Y-66682620D02*
X65689480Y-68684140D01*
X65689480Y-97779840D02*
X65689480Y-95879920D01*
X76085700Y-73581260D02*
X76085700Y-70182740D01*
%TD*%
M02*
