%TF.GenerationSoftware,KiCad,Pcbnew,(6.0.8-1)-1*%
%TF.CreationDate,2022-11-01T20:59:09-05:00*%
%TF.ProjectId,VT100_ATX_DCDC,56543130-305f-4415-9458-5f444344432e,rev?*%
%TF.SameCoordinates,Original*%
%TF.FileFunction,Copper,L1,Top*%
%TF.FilePolarity,Positive*%
%FSLAX46Y46*%
G04 Gerber Fmt 4.6, Leading zero omitted, Abs format (unit mm)*
G04 Created by KiCad (PCBNEW (6.0.8-1)-1) date 2022-11-01 20:59:09*
%MOMM*%
%LPD*%
G01*
G04 APERTURE LIST*
G04 Aperture macros list*
%AMRoundRect*
0 Rectangle with rounded corners*
0 $1 Rounding radius*
0 $2 $3 $4 $5 $6 $7 $8 $9 X,Y pos of 4 corners*
0 Add a 4 corners polygon primitive as box body*
4,1,4,$2,$3,$4,$5,$6,$7,$8,$9,$2,$3,0*
0 Add four circle primitives for the rounded corners*
1,1,$1+$1,$2,$3*
1,1,$1+$1,$4,$5*
1,1,$1+$1,$6,$7*
1,1,$1+$1,$8,$9*
0 Add four rect primitives between the rounded corners*
20,1,$1+$1,$2,$3,$4,$5,0*
20,1,$1+$1,$4,$5,$6,$7,0*
20,1,$1+$1,$6,$7,$8,$9,0*
20,1,$1+$1,$8,$9,$2,$3,0*%
G04 Aperture macros list end*
%TA.AperFunction,ComponentPad*%
%ADD10C,2.000000*%
%TD*%
%TA.AperFunction,ComponentPad*%
%ADD11R,1.600000X1.600000*%
%TD*%
%TA.AperFunction,ComponentPad*%
%ADD12C,1.600000*%
%TD*%
%TA.AperFunction,ComponentPad*%
%ADD13C,1.879600*%
%TD*%
%TA.AperFunction,ComponentPad*%
%ADD14RoundRect,0.120000X4.980000X1.080000X-4.980000X1.080000X-4.980000X-1.080000X4.980000X-1.080000X0*%
%TD*%
%TA.AperFunction,ComponentPad*%
%ADD15C,2.400000*%
%TD*%
%TA.AperFunction,ComponentPad*%
%ADD16O,2.400000X2.400000*%
%TD*%
%TA.AperFunction,ComponentPad*%
%ADD17C,2.898140*%
%TD*%
%TA.AperFunction,ViaPad*%
%ADD18C,0.800000*%
%TD*%
%TA.AperFunction,Conductor*%
%ADD19C,0.500000*%
%TD*%
%TA.AperFunction,Conductor*%
%ADD20C,1.000000*%
%TD*%
G04 APERTURE END LIST*
D10*
%TO.P,U1,1,Vin*%
%TO.N,+3.3V*%
X59595000Y-53435000D03*
%TO.P,U1,2,GND*%
%TO.N,GND*%
X59595000Y-55975000D03*
%TO.P,U1,4,-Vo*%
%TO.N,-23V*%
X59595000Y-61055000D03*
%TO.P,U1,5,0V*%
%TO.N,GND*%
X59595000Y-63595000D03*
%TO.P,U1,6,+Vo*%
%TO.N,unconnected-(U1-Pad6)*%
X59595000Y-66135000D03*
%TD*%
D11*
%TO.P,C2,1*%
%TO.N,+3.3V*%
X66802000Y-64201113D03*
D12*
%TO.P,C2,2*%
%TO.N,GND*%
X66802000Y-62201113D03*
%TD*%
D11*
%TO.P,C1,1*%
%TO.N,-23V*%
X66802000Y-55880000D03*
D12*
%TO.P,C1,2*%
%TO.N,GND*%
X66802000Y-53880000D03*
%TD*%
D13*
%TO.P,J1,1,Pin_1*%
%TO.N,GND*%
X76200000Y-67310000D03*
%TO.P,J1,2,Pin_2*%
%TO.N,Net-(J1-Pad2)*%
X76200000Y-69850000D03*
%TD*%
D14*
%TO.P,U2,1,A_+12V*%
%TO.N,+12V*%
X45931000Y-54233000D03*
%TO.P,U2,2,B_GND*%
%TO.N,GND*%
X45931000Y-58233000D03*
%TO.P,U2,3,C_+12V*%
%TO.N,+12V*%
X45931000Y-62233000D03*
%TO.P,U2,4,D_GND*%
%TO.N,GND*%
X45931000Y-66233000D03*
%TO.P,U2,5,E_-12V*%
%TO.N,-12V*%
X45931000Y-70233000D03*
%TO.P,U2,6,F_-23V*%
%TO.N,-23V*%
X45931000Y-74233000D03*
%TO.P,U2,7,H_NC*%
%TO.N,unconnected-(U2-Pad7)*%
X45931000Y-78233000D03*
%TO.P,U2,8,J_GND_+12V*%
%TO.N,GND_+12V*%
X45931000Y-82233000D03*
%TO.P,U2,9,K_GND*%
%TO.N,GND*%
X45931000Y-86233000D03*
%TO.P,U2,10,L_GND*%
X45931000Y-90233000D03*
%TO.P,U2,11,M_GND*%
X45931000Y-94233000D03*
%TO.P,U2,12,N_GND*%
X45931000Y-98233000D03*
%TO.P,U2,13,P_GND*%
X45931000Y-102233000D03*
%TO.P,U2,14,R_+5V*%
%TO.N,+5V*%
X45931000Y-106233000D03*
%TO.P,U2,15,S_+5V*%
X45931000Y-110233000D03*
%TO.P,U2,16,T_+5V*%
X45931000Y-114233000D03*
%TO.P,U2,17,U_+5V*%
X45931000Y-118233000D03*
%TO.P,U2,18,V_+5V*%
X45931000Y-122233000D03*
%TD*%
D15*
%TO.P,R1,1*%
%TO.N,+5V*%
X74930000Y-54610000D03*
D16*
%TO.P,R1,2*%
%TO.N,GND*%
X74930000Y-62230000D03*
%TD*%
D17*
%TO.P,J2,1,+3.3V*%
%TO.N,+3.3V*%
X64328040Y-76215240D03*
%TO.P,J2,2,+3.3V*%
X64328040Y-80416400D03*
%TO.P,J2,3,GND*%
%TO.N,GND*%
X64328040Y-84615020D03*
%TO.P,J2,4,+5V*%
%TO.N,+5V*%
X64328040Y-88816180D03*
%TO.P,J2,5,GND*%
%TO.N,GND*%
X64328040Y-93014800D03*
%TO.P,J2,6,+5V*%
%TO.N,+5V*%
X64328040Y-97215960D03*
%TO.P,J2,7,GND*%
%TO.N,GND*%
X64328040Y-101412040D03*
%TO.P,J2,8,PWR_OK*%
%TO.N,unconnected-(J2-Pad8)*%
X64328040Y-105613200D03*
%TO.P,J2,9,+5VSB*%
%TO.N,unconnected-(J2-Pad9)*%
X64328040Y-109811820D03*
%TO.P,J2,10,+12V*%
%TO.N,+12V*%
X64328040Y-114012980D03*
%TO.P,J2,11,+12V*%
X64328040Y-118211600D03*
%TO.P,J2,12,+3.3V*%
%TO.N,+3.3V*%
X64328040Y-122412760D03*
%TO.P,J2,13,+3.3V*%
X58828940Y-76215240D03*
%TO.P,J2,14,-12V*%
%TO.N,-12V*%
X58828940Y-80416400D03*
%TO.P,J2,15,GND*%
%TO.N,GND*%
X58828940Y-84615020D03*
%TO.P,J2,16,PS_ON#*%
%TO.N,Net-(J1-Pad2)*%
X58828940Y-88816180D03*
%TO.P,J2,17,GND*%
%TO.N,GND*%
X58828940Y-93014800D03*
%TO.P,J2,18,GND*%
X58828940Y-97215960D03*
%TO.P,J2,19,GND*%
X58828940Y-101412040D03*
%TO.P,J2,20,NC*%
%TO.N,unconnected-(J2-Pad20)*%
X58828940Y-105613200D03*
%TO.P,J2,21,+5V*%
%TO.N,+5V*%
X58828940Y-109811820D03*
%TO.P,J2,22,+5V*%
X58828940Y-114012980D03*
%TO.P,J2,23,+5V*%
X58828940Y-118211600D03*
%TO.P,J2,24,GND*%
%TO.N,GND*%
X58828940Y-122412760D03*
%TD*%
D18*
%TO.N,Net-(J1-Pad2)*%
X66040000Y-69850000D03*
%TD*%
D19*
%TO.N,+3.3V*%
X67310000Y-73233280D02*
X67310000Y-64709113D01*
X67310000Y-64709113D02*
X66802000Y-64201113D01*
%TO.N,-23V*%
X59595000Y-61055000D02*
X64770000Y-55880000D01*
X64770000Y-55880000D02*
X66802000Y-55880000D01*
%TO.N,Net-(J1-Pad2)*%
X61722000Y-74168000D02*
X61722000Y-85923120D01*
X61722000Y-85923120D02*
X58828940Y-88816180D01*
X66040000Y-69850000D02*
X61722000Y-74168000D01*
D20*
%TO.N,+5V*%
X64328040Y-88816180D02*
X69088000Y-84056220D01*
X69088000Y-70358000D02*
X71882000Y-67564000D01*
X69088000Y-84056220D02*
X69088000Y-70358000D01*
X71882000Y-67564000D02*
X71882000Y-57658000D01*
X71882000Y-57658000D02*
X74930000Y-54610000D01*
X64328040Y-88816180D02*
X66802000Y-91290140D01*
X66802000Y-91290140D02*
X66802000Y-94742000D01*
X66802000Y-94742000D02*
X64328040Y-97215960D01*
X58828940Y-109811820D02*
X61722000Y-106918760D01*
X61722000Y-106918760D02*
X61722000Y-99822000D01*
X61722000Y-99822000D02*
X64328040Y-97215960D01*
X58828940Y-118211600D02*
X58828940Y-109811820D01*
D19*
%TO.N,-23V*%
X49931000Y-74233000D02*
X58145000Y-66019000D01*
X58145000Y-66019000D02*
X58145000Y-62505000D01*
X58145000Y-62505000D02*
X59595000Y-61055000D01*
%TO.N,+3.3V*%
X59595000Y-53435000D02*
X59595000Y-53742767D01*
X64328040Y-76215240D02*
X67310000Y-73233280D01*
%TD*%
%TA.AperFunction,Conductor*%
%TO.N,GND*%
G36*
X77995900Y-51259517D02*
G01*
X78020147Y-51279814D01*
X78038977Y-51300106D01*
X78197861Y-51471330D01*
X78229535Y-51534870D01*
X78231500Y-51557035D01*
X78231500Y-124959181D01*
X78211498Y-125027302D01*
X78194596Y-125048276D01*
X78058278Y-125184595D01*
X77995966Y-125218620D01*
X77969182Y-125221500D01*
X53720000Y-125221500D01*
X53651879Y-125201498D01*
X53605386Y-125147842D01*
X53594000Y-125095500D01*
X53594000Y-123965447D01*
X57641420Y-123965447D01*
X57648810Y-123975749D01*
X57697283Y-124015212D01*
X57704562Y-124020327D01*
X57934360Y-124158677D01*
X57942284Y-124162714D01*
X58189289Y-124267308D01*
X58197694Y-124270186D01*
X58456983Y-124338934D01*
X58465704Y-124340598D01*
X58732098Y-124372128D01*
X58740963Y-124372546D01*
X59009128Y-124366226D01*
X59017988Y-124365389D01*
X59282574Y-124321350D01*
X59291231Y-124319271D01*
X59546980Y-124238389D01*
X59555241Y-124235118D01*
X59797045Y-124119005D01*
X59804770Y-124114599D01*
X60009587Y-123977745D01*
X60017875Y-123967827D01*
X60010618Y-123953648D01*
X58841752Y-122784782D01*
X58827808Y-122777168D01*
X58825975Y-122777299D01*
X58819360Y-122781550D01*
X57648586Y-123952324D01*
X57641420Y-123965447D01*
X53594000Y-123965447D01*
X53594000Y-122355582D01*
X56868014Y-122355582D01*
X56878545Y-122623617D01*
X56879520Y-122632446D01*
X56927713Y-122896327D01*
X56929922Y-122904929D01*
X57014814Y-123159382D01*
X57018218Y-123167600D01*
X57138116Y-123407554D01*
X57142634Y-123415193D01*
X57265019Y-123592271D01*
X57275337Y-123600622D01*
X57288992Y-123593498D01*
X58456918Y-122425572D01*
X58463296Y-122413892D01*
X59193348Y-122413892D01*
X59193479Y-122415725D01*
X59197730Y-122422340D01*
X60369286Y-123593896D01*
X60382686Y-123601213D01*
X60392591Y-123594226D01*
X60413422Y-123569443D01*
X60418642Y-123562258D01*
X60560595Y-123334645D01*
X60564747Y-123326805D01*
X60673215Y-123081454D01*
X60676221Y-123073104D01*
X60749034Y-122814928D01*
X60750835Y-122806235D01*
X60786710Y-122539141D01*
X60787238Y-122532748D01*
X60790908Y-122415982D01*
X60790781Y-122409539D01*
X60786644Y-122351114D01*
X62366438Y-122351114D01*
X62366613Y-122355566D01*
X62371793Y-122487391D01*
X62377322Y-122628121D01*
X62427128Y-122900831D01*
X62514862Y-123163803D01*
X62638774Y-123411789D01*
X62796391Y-123639842D01*
X62984568Y-123843412D01*
X62988022Y-123846224D01*
X63196095Y-124015622D01*
X63196099Y-124015625D01*
X63199552Y-124018436D01*
X63437052Y-124161423D01*
X63441147Y-124163157D01*
X63441149Y-124163158D01*
X63687108Y-124267308D01*
X63692329Y-124269519D01*
X63696622Y-124270657D01*
X63696627Y-124270659D01*
X63817971Y-124302832D01*
X63960291Y-124340567D01*
X64235590Y-124373151D01*
X64512734Y-124366620D01*
X64669260Y-124340567D01*
X64781803Y-124321835D01*
X64781807Y-124321834D01*
X64786193Y-124321104D01*
X64790434Y-124319763D01*
X64790437Y-124319762D01*
X65046264Y-124238854D01*
X65046266Y-124238853D01*
X65050510Y-124237511D01*
X65054521Y-124235585D01*
X65054526Y-124235583D01*
X65296393Y-124119440D01*
X65296394Y-124119439D01*
X65300412Y-124117510D01*
X65304769Y-124114599D01*
X65527205Y-123965973D01*
X65527209Y-123965970D01*
X65530913Y-123963495D01*
X65534230Y-123960524D01*
X65534234Y-123960521D01*
X65734095Y-123781510D01*
X65734096Y-123781509D01*
X65737413Y-123778538D01*
X65915792Y-123566330D01*
X66062492Y-123331105D01*
X66174584Y-123077557D01*
X66249833Y-122810744D01*
X66273774Y-122632501D01*
X66286310Y-122539173D01*
X66286311Y-122539165D01*
X66286737Y-122535991D01*
X66286839Y-122532748D01*
X66290509Y-122415982D01*
X66290509Y-122415977D01*
X66290610Y-122412760D01*
X66285635Y-122342498D01*
X69615952Y-122342498D01*
X69616105Y-122346886D01*
X69616105Y-122346892D01*
X69618445Y-122413892D01*
X69625755Y-122623204D01*
X69674529Y-122899815D01*
X69675884Y-122903986D01*
X69675886Y-122903993D01*
X69747803Y-123125330D01*
X69761325Y-123166946D01*
X69884454Y-123419397D01*
X70041518Y-123652255D01*
X70044462Y-123655524D01*
X70044463Y-123655526D01*
X70216168Y-123846224D01*
X70229462Y-123860988D01*
X70444627Y-124041533D01*
X70682825Y-124190375D01*
X70939420Y-124304619D01*
X70943648Y-124305831D01*
X70943647Y-124305831D01*
X71178055Y-124373046D01*
X71209417Y-124382039D01*
X71213767Y-124382650D01*
X71213770Y-124382651D01*
X71315800Y-124396990D01*
X71487561Y-124421130D01*
X71698131Y-124421130D01*
X71700317Y-124420977D01*
X71700321Y-124420977D01*
X71903809Y-124406748D01*
X71903814Y-124406747D01*
X71908194Y-124406441D01*
X71912488Y-124405528D01*
X71912490Y-124405528D01*
X72028698Y-124380827D01*
X72182934Y-124348043D01*
X72187065Y-124346539D01*
X72187070Y-124346538D01*
X72332104Y-124293749D01*
X72446872Y-124251977D01*
X72562729Y-124190375D01*
X72690981Y-124122183D01*
X72690987Y-124122179D01*
X72694873Y-124120113D01*
X72698433Y-124117526D01*
X72698437Y-124117524D01*
X72918545Y-123957606D01*
X72918548Y-123957604D01*
X72922108Y-123955017D01*
X72925275Y-123951959D01*
X73120989Y-123762960D01*
X73120993Y-123762955D01*
X73124154Y-123759903D01*
X73297080Y-123538569D01*
X73334278Y-123474140D01*
X73435314Y-123299141D01*
X73435317Y-123299136D01*
X73437519Y-123295321D01*
X73439169Y-123291237D01*
X73439172Y-123291231D01*
X73541088Y-123038978D01*
X73541089Y-123038975D01*
X73542737Y-123034896D01*
X73610688Y-122762361D01*
X73624798Y-122628121D01*
X73639589Y-122487391D01*
X73639589Y-122487388D01*
X73640048Y-122483022D01*
X73637595Y-122412760D01*
X73630399Y-122206714D01*
X73630398Y-122206708D01*
X73630245Y-122202316D01*
X73581471Y-121925705D01*
X73580116Y-121921534D01*
X73580114Y-121921527D01*
X73496036Y-121662763D01*
X73494675Y-121658574D01*
X73468611Y-121605134D01*
X73430199Y-121526379D01*
X73371546Y-121406123D01*
X73214482Y-121173265D01*
X73026538Y-120964532D01*
X72811373Y-120783987D01*
X72573175Y-120635145D01*
X72393702Y-120555238D01*
X72320594Y-120522688D01*
X72320592Y-120522687D01*
X72316580Y-120520901D01*
X72073422Y-120451177D01*
X72050810Y-120444693D01*
X72050809Y-120444693D01*
X72046583Y-120443481D01*
X72042233Y-120442870D01*
X72042230Y-120442869D01*
X71940200Y-120428530D01*
X71768439Y-120404390D01*
X71557869Y-120404390D01*
X71555683Y-120404543D01*
X71555679Y-120404543D01*
X71352191Y-120418772D01*
X71352186Y-120418773D01*
X71347806Y-120419079D01*
X71343512Y-120419992D01*
X71343510Y-120419992D01*
X71235883Y-120442869D01*
X71073066Y-120477477D01*
X71068935Y-120478981D01*
X71068930Y-120478982D01*
X70959307Y-120518882D01*
X70809128Y-120573543D01*
X70805241Y-120575610D01*
X70565019Y-120703337D01*
X70565013Y-120703341D01*
X70561127Y-120705407D01*
X70557567Y-120707994D01*
X70557563Y-120707996D01*
X70337455Y-120867914D01*
X70333892Y-120870503D01*
X70330728Y-120873559D01*
X70330725Y-120873561D01*
X70135011Y-121062560D01*
X70135007Y-121062565D01*
X70131846Y-121065617D01*
X69958920Y-121286951D01*
X69956717Y-121290767D01*
X69892221Y-121402478D01*
X69818481Y-121530199D01*
X69816831Y-121534283D01*
X69816828Y-121534289D01*
X69766614Y-121658574D01*
X69713263Y-121790624D01*
X69712198Y-121794893D01*
X69712198Y-121794895D01*
X69695705Y-121861046D01*
X69645312Y-122063159D01*
X69644853Y-122067529D01*
X69644852Y-122067533D01*
X69616411Y-122338129D01*
X69615952Y-122342498D01*
X66285635Y-122342498D01*
X66271031Y-122136231D01*
X66212684Y-121865220D01*
X66116733Y-121605134D01*
X65985093Y-121361162D01*
X65982452Y-121357587D01*
X65982448Y-121357580D01*
X65823043Y-121141765D01*
X65820390Y-121138173D01*
X65778307Y-121095423D01*
X65629042Y-120943796D01*
X65625911Y-120940615D01*
X65622372Y-120937914D01*
X65622365Y-120937908D01*
X65476064Y-120826255D01*
X65405536Y-120772430D01*
X65351930Y-120742409D01*
X65167553Y-120639153D01*
X65167552Y-120639153D01*
X65163662Y-120636974D01*
X65154320Y-120633360D01*
X64909270Y-120538556D01*
X64909264Y-120538554D01*
X64905115Y-120536949D01*
X64900783Y-120535945D01*
X64900780Y-120535944D01*
X64790445Y-120510370D01*
X64635054Y-120474352D01*
X64358867Y-120450432D01*
X64354432Y-120450676D01*
X64354428Y-120450676D01*
X64241985Y-120456864D01*
X64082065Y-120465665D01*
X64077702Y-120466533D01*
X64077701Y-120466533D01*
X64040324Y-120473968D01*
X63810171Y-120519749D01*
X63688495Y-120562478D01*
X63552816Y-120610124D01*
X63552808Y-120610127D01*
X63548609Y-120611602D01*
X63544656Y-120613655D01*
X63544650Y-120613658D01*
X63405754Y-120685809D01*
X63302600Y-120739394D01*
X63298985Y-120741977D01*
X63298979Y-120741981D01*
X63156474Y-120843817D01*
X63077051Y-120900574D01*
X63073831Y-120903646D01*
X62900407Y-121069084D01*
X62876462Y-121091926D01*
X62873706Y-121095422D01*
X62873705Y-121095423D01*
X62725453Y-121283480D01*
X62704836Y-121309632D01*
X62702599Y-121313484D01*
X62567832Y-121545502D01*
X62567829Y-121545508D01*
X62565598Y-121549349D01*
X62563928Y-121553472D01*
X62466142Y-121794895D01*
X62461525Y-121806293D01*
X62460454Y-121810606D01*
X62460452Y-121810611D01*
X62432901Y-121921527D01*
X62394694Y-122075337D01*
X62366438Y-122351114D01*
X60786644Y-122351114D01*
X60771750Y-122140751D01*
X60770497Y-122131948D01*
X60714039Y-121869712D01*
X60711560Y-121861179D01*
X60618717Y-121609517D01*
X60615062Y-121601422D01*
X60487686Y-121365353D01*
X60482924Y-121357848D01*
X60391787Y-121234458D01*
X60380662Y-121226018D01*
X60368066Y-121232844D01*
X59200962Y-122399948D01*
X59193348Y-122413892D01*
X58463296Y-122413892D01*
X58464532Y-122411628D01*
X58464401Y-122409795D01*
X58460150Y-122403180D01*
X57289817Y-121232847D01*
X57276977Y-121225836D01*
X57266285Y-121233633D01*
X57208910Y-121306414D01*
X57203915Y-121313763D01*
X57069179Y-121545728D01*
X57065280Y-121553686D01*
X56964575Y-121802314D01*
X56961826Y-121810776D01*
X56897163Y-122071096D01*
X56895634Y-122079857D01*
X56868293Y-122346699D01*
X56868014Y-122355582D01*
X53594000Y-122355582D01*
X53594000Y-120860272D01*
X57641807Y-120860272D01*
X57648787Y-120873397D01*
X58816128Y-122040738D01*
X58830072Y-122048352D01*
X58831905Y-122048221D01*
X58838520Y-122043970D01*
X60008755Y-120873735D01*
X60015609Y-120861183D01*
X60007402Y-120850113D01*
X59909702Y-120775550D01*
X59902277Y-120770673D01*
X59668238Y-120639605D01*
X59660185Y-120635816D01*
X59410022Y-120539035D01*
X59401532Y-120536423D01*
X59140214Y-120475853D01*
X59131436Y-120474463D01*
X58864191Y-120451317D01*
X58855320Y-120451177D01*
X58587471Y-120465918D01*
X58578661Y-120467032D01*
X58315575Y-120519362D01*
X58307000Y-120521708D01*
X58053916Y-120610584D01*
X58045749Y-120614118D01*
X57807713Y-120737769D01*
X57800141Y-120742409D01*
X57650210Y-120849550D01*
X57641807Y-120860272D01*
X53594000Y-120860272D01*
X53594000Y-118149954D01*
X56867338Y-118149954D01*
X56878222Y-118426961D01*
X56928028Y-118699671D01*
X57015762Y-118962643D01*
X57139674Y-119210629D01*
X57297291Y-119438682D01*
X57485468Y-119642252D01*
X57488922Y-119645064D01*
X57696995Y-119814462D01*
X57696999Y-119814465D01*
X57700452Y-119817276D01*
X57937952Y-119960263D01*
X57942047Y-119961997D01*
X57942049Y-119961998D01*
X58117640Y-120036351D01*
X58193229Y-120068359D01*
X58197522Y-120069497D01*
X58197527Y-120069499D01*
X58337302Y-120106559D01*
X58461191Y-120139407D01*
X58736490Y-120171991D01*
X59013634Y-120165460D01*
X59170160Y-120139407D01*
X59282703Y-120120675D01*
X59282707Y-120120674D01*
X59287093Y-120119944D01*
X59291334Y-120118603D01*
X59291337Y-120118602D01*
X59547164Y-120037694D01*
X59547166Y-120037693D01*
X59551410Y-120036351D01*
X59555421Y-120034425D01*
X59555426Y-120034423D01*
X59797293Y-119918280D01*
X59797294Y-119918279D01*
X59801312Y-119916350D01*
X59805018Y-119913874D01*
X60028105Y-119764813D01*
X60028109Y-119764810D01*
X60031813Y-119762335D01*
X60035130Y-119759364D01*
X60035134Y-119759361D01*
X60234995Y-119580350D01*
X60234996Y-119580349D01*
X60238313Y-119577378D01*
X60416692Y-119365170D01*
X60563392Y-119129945D01*
X60675484Y-118876397D01*
X60750733Y-118609584D01*
X60774674Y-118431341D01*
X60787210Y-118338013D01*
X60787211Y-118338005D01*
X60787637Y-118334831D01*
X60791510Y-118211600D01*
X60787145Y-118149954D01*
X62366438Y-118149954D01*
X62377322Y-118426961D01*
X62427128Y-118699671D01*
X62514862Y-118962643D01*
X62638774Y-119210629D01*
X62796391Y-119438682D01*
X62984568Y-119642252D01*
X62988022Y-119645064D01*
X63196095Y-119814462D01*
X63196099Y-119814465D01*
X63199552Y-119817276D01*
X63437052Y-119960263D01*
X63441147Y-119961997D01*
X63441149Y-119961998D01*
X63616740Y-120036351D01*
X63692329Y-120068359D01*
X63696622Y-120069497D01*
X63696627Y-120069499D01*
X63836402Y-120106559D01*
X63960291Y-120139407D01*
X64235590Y-120171991D01*
X64512734Y-120165460D01*
X64669260Y-120139407D01*
X64781803Y-120120675D01*
X64781807Y-120120674D01*
X64786193Y-120119944D01*
X64790434Y-120118603D01*
X64790437Y-120118602D01*
X65046264Y-120037694D01*
X65046266Y-120037693D01*
X65050510Y-120036351D01*
X65054521Y-120034425D01*
X65054526Y-120034423D01*
X65296393Y-119918280D01*
X65296394Y-119918279D01*
X65300412Y-119916350D01*
X65304118Y-119913874D01*
X65527205Y-119764813D01*
X65527209Y-119764810D01*
X65530913Y-119762335D01*
X65534230Y-119759364D01*
X65534234Y-119759361D01*
X65734095Y-119580350D01*
X65734096Y-119580349D01*
X65737413Y-119577378D01*
X65915792Y-119365170D01*
X66062492Y-119129945D01*
X66174584Y-118876397D01*
X66249833Y-118609584D01*
X66273774Y-118431341D01*
X66286310Y-118338013D01*
X66286311Y-118338005D01*
X66286737Y-118334831D01*
X66290610Y-118211600D01*
X66271031Y-117935071D01*
X66212684Y-117664060D01*
X66116733Y-117403974D01*
X65985093Y-117160002D01*
X65982452Y-117156427D01*
X65982448Y-117156420D01*
X65823043Y-116940605D01*
X65820390Y-116937013D01*
X65778307Y-116894263D01*
X65629042Y-116742636D01*
X65625911Y-116739455D01*
X65622372Y-116736754D01*
X65622365Y-116736748D01*
X65409076Y-116573972D01*
X65405536Y-116571270D01*
X65397283Y-116566648D01*
X65167553Y-116437993D01*
X65167552Y-116437993D01*
X65163662Y-116435814D01*
X65155663Y-116432720D01*
X64909270Y-116337396D01*
X64909264Y-116337394D01*
X64905115Y-116335789D01*
X64900783Y-116334785D01*
X64900780Y-116334784D01*
X64790445Y-116309210D01*
X64635054Y-116273192D01*
X64358867Y-116249272D01*
X64354432Y-116249516D01*
X64354428Y-116249516D01*
X64241985Y-116255704D01*
X64082065Y-116264505D01*
X63810171Y-116318589D01*
X63688495Y-116361318D01*
X63552816Y-116408964D01*
X63552808Y-116408967D01*
X63548609Y-116410442D01*
X63544656Y-116412495D01*
X63544650Y-116412498D01*
X63450696Y-116461304D01*
X63302600Y-116538234D01*
X63298985Y-116540817D01*
X63298979Y-116540821D01*
X63252585Y-116573975D01*
X63077051Y-116699414D01*
X62876462Y-116890766D01*
X62704836Y-117108472D01*
X62702599Y-117112324D01*
X62567832Y-117344342D01*
X62567829Y-117344348D01*
X62565598Y-117348189D01*
X62461525Y-117605133D01*
X62460454Y-117609446D01*
X62460452Y-117609451D01*
X62414145Y-117795871D01*
X62394694Y-117874177D01*
X62366438Y-118149954D01*
X60787145Y-118149954D01*
X60771931Y-117935071D01*
X60713584Y-117664060D01*
X60617633Y-117403974D01*
X60485993Y-117160002D01*
X60483352Y-117156427D01*
X60483348Y-117156420D01*
X60323943Y-116940605D01*
X60321290Y-116937013D01*
X60279207Y-116894263D01*
X60129942Y-116742636D01*
X60126811Y-116739455D01*
X60123272Y-116736754D01*
X60123265Y-116736748D01*
X59909981Y-116573975D01*
X59909977Y-116573972D01*
X59906436Y-116571270D01*
X59901879Y-116568718D01*
X59901702Y-116568537D01*
X59898826Y-116566648D01*
X59899238Y-116566020D01*
X59852216Y-116517986D01*
X59837440Y-116458781D01*
X59837440Y-115760939D01*
X59857442Y-115692818D01*
X59893438Y-115656174D01*
X60028105Y-115566193D01*
X60028109Y-115566190D01*
X60031813Y-115563715D01*
X60035130Y-115560744D01*
X60035134Y-115560741D01*
X60234995Y-115381730D01*
X60234996Y-115381729D01*
X60238313Y-115378758D01*
X60416692Y-115166550D01*
X60563392Y-114931325D01*
X60675484Y-114677777D01*
X60750733Y-114410964D01*
X60774674Y-114232721D01*
X60787210Y-114139393D01*
X60787211Y-114139385D01*
X60787637Y-114136211D01*
X60791510Y-114012980D01*
X60787145Y-113951334D01*
X62366438Y-113951334D01*
X62377322Y-114228341D01*
X62427128Y-114501051D01*
X62514862Y-114764023D01*
X62638774Y-115012009D01*
X62796391Y-115240062D01*
X62984568Y-115443632D01*
X62988022Y-115446444D01*
X63196095Y-115615842D01*
X63196099Y-115615845D01*
X63199552Y-115618656D01*
X63437052Y-115761643D01*
X63441147Y-115763377D01*
X63441149Y-115763378D01*
X63616740Y-115837731D01*
X63692329Y-115869739D01*
X63696622Y-115870877D01*
X63696627Y-115870879D01*
X63785313Y-115894393D01*
X63960291Y-115940787D01*
X64235590Y-115973371D01*
X64512734Y-115966840D01*
X64600257Y-115952272D01*
X64781803Y-115922055D01*
X64781807Y-115922054D01*
X64786193Y-115921324D01*
X64790434Y-115919983D01*
X64790437Y-115919982D01*
X65046264Y-115839074D01*
X65046266Y-115839073D01*
X65050510Y-115837731D01*
X65054521Y-115835805D01*
X65054526Y-115835803D01*
X65296393Y-115719660D01*
X65296394Y-115719659D01*
X65300412Y-115717730D01*
X65317318Y-115706434D01*
X65527205Y-115566193D01*
X65527209Y-115566190D01*
X65530913Y-115563715D01*
X65534230Y-115560744D01*
X65534234Y-115560741D01*
X65734095Y-115381730D01*
X65734096Y-115381729D01*
X65737413Y-115378758D01*
X65915792Y-115166550D01*
X66062492Y-114931325D01*
X66174584Y-114677777D01*
X66249833Y-114410964D01*
X66273774Y-114232721D01*
X66286310Y-114139393D01*
X66286311Y-114139385D01*
X66286737Y-114136211D01*
X66290610Y-114012980D01*
X66271031Y-113736451D01*
X66212684Y-113465440D01*
X66116733Y-113205354D01*
X65985093Y-112961382D01*
X65982452Y-112957807D01*
X65982448Y-112957800D01*
X65823043Y-112741985D01*
X65820390Y-112738393D01*
X65778307Y-112695643D01*
X65629042Y-112544016D01*
X65625911Y-112540835D01*
X65622372Y-112538134D01*
X65622365Y-112538128D01*
X65409076Y-112375352D01*
X65405536Y-112372650D01*
X65397283Y-112368028D01*
X65167553Y-112239373D01*
X65167552Y-112239373D01*
X65163662Y-112237194D01*
X65155663Y-112234100D01*
X64909270Y-112138776D01*
X64909264Y-112138774D01*
X64905115Y-112137169D01*
X64900783Y-112136165D01*
X64900780Y-112136164D01*
X64790445Y-112110590D01*
X64635054Y-112074572D01*
X64358867Y-112050652D01*
X64354432Y-112050896D01*
X64354428Y-112050896D01*
X64241985Y-112057084D01*
X64082065Y-112065885D01*
X63810171Y-112119969D01*
X63688495Y-112162698D01*
X63552816Y-112210344D01*
X63552808Y-112210347D01*
X63548609Y-112211822D01*
X63544656Y-112213875D01*
X63544650Y-112213878D01*
X63450696Y-112262684D01*
X63302600Y-112339614D01*
X63298985Y-112342197D01*
X63298979Y-112342201D01*
X63252585Y-112375355D01*
X63077051Y-112500794D01*
X63037915Y-112538128D01*
X62918084Y-112652441D01*
X62876462Y-112692146D01*
X62704836Y-112909852D01*
X62702599Y-112913704D01*
X62567832Y-113145722D01*
X62567829Y-113145728D01*
X62565598Y-113149569D01*
X62461525Y-113406513D01*
X62460454Y-113410826D01*
X62460452Y-113410831D01*
X62414145Y-113597251D01*
X62394694Y-113675557D01*
X62366438Y-113951334D01*
X60787145Y-113951334D01*
X60771931Y-113736451D01*
X60713584Y-113465440D01*
X60617633Y-113205354D01*
X60485993Y-112961382D01*
X60483352Y-112957807D01*
X60483348Y-112957800D01*
X60323943Y-112741985D01*
X60321290Y-112738393D01*
X60279207Y-112695643D01*
X60129942Y-112544016D01*
X60126811Y-112540835D01*
X60123272Y-112538134D01*
X60123265Y-112538128D01*
X59909981Y-112375355D01*
X59909977Y-112375352D01*
X59906436Y-112372650D01*
X59901879Y-112370098D01*
X59901702Y-112369917D01*
X59898826Y-112368028D01*
X59899238Y-112367400D01*
X59852216Y-112319366D01*
X59837440Y-112260161D01*
X59837440Y-111559779D01*
X59857442Y-111491658D01*
X59893438Y-111455014D01*
X60028105Y-111365033D01*
X60028109Y-111365030D01*
X60031813Y-111362555D01*
X60035130Y-111359584D01*
X60035134Y-111359581D01*
X60234995Y-111180570D01*
X60234996Y-111180569D01*
X60238313Y-111177598D01*
X60416692Y-110965390D01*
X60563392Y-110730165D01*
X60675484Y-110476617D01*
X60750733Y-110209804D01*
X60774674Y-110031561D01*
X60787210Y-109938233D01*
X60787211Y-109938225D01*
X60787637Y-109935051D01*
X60791510Y-109811820D01*
X60787145Y-109750174D01*
X62366438Y-109750174D01*
X62377322Y-110027181D01*
X62427128Y-110299891D01*
X62514862Y-110562863D01*
X62638774Y-110810849D01*
X62796391Y-111038902D01*
X62984568Y-111242472D01*
X62988022Y-111245284D01*
X63196095Y-111414682D01*
X63196099Y-111414685D01*
X63199552Y-111417496D01*
X63437052Y-111560483D01*
X63441147Y-111562217D01*
X63441149Y-111562218D01*
X63616740Y-111636571D01*
X63692329Y-111668579D01*
X63696622Y-111669717D01*
X63696627Y-111669719D01*
X63815640Y-111701274D01*
X63960291Y-111739627D01*
X64235590Y-111772211D01*
X64512734Y-111765680D01*
X64669260Y-111739627D01*
X64781803Y-111720895D01*
X64781807Y-111720894D01*
X64786193Y-111720164D01*
X64790434Y-111718823D01*
X64790437Y-111718822D01*
X65046264Y-111637914D01*
X65046266Y-111637913D01*
X65050510Y-111636571D01*
X65054521Y-111634645D01*
X65054526Y-111634643D01*
X65296393Y-111518500D01*
X65296394Y-111518499D01*
X65300412Y-111516570D01*
X65317318Y-111505274D01*
X65527205Y-111365033D01*
X65527209Y-111365030D01*
X65530913Y-111362555D01*
X65534230Y-111359584D01*
X65534234Y-111359581D01*
X65734095Y-111180570D01*
X65734096Y-111180569D01*
X65737413Y-111177598D01*
X65915792Y-110965390D01*
X66062492Y-110730165D01*
X66174584Y-110476617D01*
X66249833Y-110209804D01*
X66273774Y-110031561D01*
X66286310Y-109938233D01*
X66286311Y-109938225D01*
X66286737Y-109935051D01*
X66290610Y-109811820D01*
X66271031Y-109535291D01*
X66242918Y-109404709D01*
X66213620Y-109268627D01*
X66213620Y-109268625D01*
X66212684Y-109264280D01*
X66116733Y-109004194D01*
X65985093Y-108760222D01*
X65982452Y-108756647D01*
X65982448Y-108756640D01*
X65823043Y-108540825D01*
X65820390Y-108537233D01*
X65807856Y-108524500D01*
X65629042Y-108342856D01*
X65625911Y-108339675D01*
X65622372Y-108336974D01*
X65622365Y-108336968D01*
X65409076Y-108174192D01*
X65405536Y-108171490D01*
X65401647Y-108169312D01*
X65167553Y-108038213D01*
X65167552Y-108038213D01*
X65163662Y-108036034D01*
X65155663Y-108032940D01*
X64909270Y-107937616D01*
X64909264Y-107937614D01*
X64905115Y-107936009D01*
X64900783Y-107935005D01*
X64900780Y-107935004D01*
X64733497Y-107896230D01*
X64635054Y-107873412D01*
X64358867Y-107849492D01*
X64354432Y-107849736D01*
X64354428Y-107849736D01*
X64241985Y-107855924D01*
X64082065Y-107864725D01*
X63810171Y-107918809D01*
X63688495Y-107961538D01*
X63552816Y-108009184D01*
X63552808Y-108009187D01*
X63548609Y-108010662D01*
X63544656Y-108012715D01*
X63544650Y-108012718D01*
X63495571Y-108038213D01*
X63302600Y-108138454D01*
X63298985Y-108141037D01*
X63298979Y-108141041D01*
X63156474Y-108242877D01*
X63077051Y-108299634D01*
X62876462Y-108490986D01*
X62873706Y-108494482D01*
X62873705Y-108494483D01*
X62847831Y-108527304D01*
X62704836Y-108708692D01*
X62702599Y-108712544D01*
X62567832Y-108944562D01*
X62567829Y-108944568D01*
X62565598Y-108948409D01*
X62461525Y-109205353D01*
X62460454Y-109209666D01*
X62460452Y-109209671D01*
X62429593Y-109333904D01*
X62394694Y-109474397D01*
X62366438Y-109750174D01*
X60787145Y-109750174D01*
X60771931Y-109535291D01*
X60743817Y-109404707D01*
X60749034Y-109333904D01*
X60777898Y-109289097D01*
X62391379Y-107675615D01*
X62401522Y-107666513D01*
X62426218Y-107646657D01*
X62431025Y-107642792D01*
X62463292Y-107604338D01*
X62466472Y-107600691D01*
X62468115Y-107598879D01*
X62470309Y-107596685D01*
X62497642Y-107563411D01*
X62498348Y-107562560D01*
X62515995Y-107541530D01*
X62558154Y-107491286D01*
X62560722Y-107486616D01*
X62564103Y-107482499D01*
X62608015Y-107400602D01*
X62608624Y-107399480D01*
X62650466Y-107323371D01*
X62650468Y-107323366D01*
X62653433Y-107317973D01*
X62655044Y-107312895D01*
X62657563Y-107308197D01*
X62684753Y-107219262D01*
X62685136Y-107218032D01*
X62711371Y-107135330D01*
X62713235Y-107129454D01*
X62713828Y-107124163D01*
X62715388Y-107119062D01*
X62720688Y-107066885D01*
X62747472Y-107001134D01*
X62805551Y-106960302D01*
X62876486Y-106957351D01*
X62938568Y-106994090D01*
X62981539Y-107040576D01*
X62981544Y-107040581D01*
X62984568Y-107043852D01*
X62988022Y-107046664D01*
X63196095Y-107216062D01*
X63196099Y-107216065D01*
X63199552Y-107218876D01*
X63437052Y-107361863D01*
X63441147Y-107363597D01*
X63441149Y-107363598D01*
X63616740Y-107437951D01*
X63692329Y-107469959D01*
X63696622Y-107471097D01*
X63696627Y-107471099D01*
X63774956Y-107491867D01*
X63960291Y-107541007D01*
X64235590Y-107573591D01*
X64512734Y-107567060D01*
X64669260Y-107541007D01*
X64781803Y-107522275D01*
X64781807Y-107522274D01*
X64786193Y-107521544D01*
X64790434Y-107520203D01*
X64790437Y-107520202D01*
X65046264Y-107439294D01*
X65046266Y-107439293D01*
X65050510Y-107437951D01*
X65054521Y-107436025D01*
X65054526Y-107436023D01*
X65296393Y-107319880D01*
X65296394Y-107319879D01*
X65300412Y-107317950D01*
X65304118Y-107315474D01*
X65527205Y-107166413D01*
X65527209Y-107166410D01*
X65530913Y-107163935D01*
X65534230Y-107160964D01*
X65534234Y-107160961D01*
X65734095Y-106981950D01*
X65734096Y-106981949D01*
X65737413Y-106978978D01*
X65915792Y-106766770D01*
X66062492Y-106531545D01*
X66075985Y-106501026D01*
X66172784Y-106282068D01*
X66174584Y-106277997D01*
X66249833Y-106011184D01*
X66273774Y-105832941D01*
X66286310Y-105739613D01*
X66286311Y-105739605D01*
X66286737Y-105736431D01*
X66290610Y-105613200D01*
X66271031Y-105336671D01*
X66212684Y-105065660D01*
X66116733Y-104805574D01*
X65985093Y-104561602D01*
X65982452Y-104558027D01*
X65982448Y-104558020D01*
X65823043Y-104342205D01*
X65820390Y-104338613D01*
X65778307Y-104295863D01*
X65629042Y-104144236D01*
X65625911Y-104141055D01*
X65622372Y-104138354D01*
X65622365Y-104138348D01*
X65409076Y-103975572D01*
X65405536Y-103972870D01*
X65401647Y-103970692D01*
X65167553Y-103839593D01*
X65167552Y-103839593D01*
X65163662Y-103837414D01*
X65155663Y-103834320D01*
X64909270Y-103738996D01*
X64909264Y-103738994D01*
X64905115Y-103737389D01*
X64900783Y-103736385D01*
X64900780Y-103736384D01*
X64790445Y-103710810D01*
X64635054Y-103674792D01*
X64358867Y-103650872D01*
X64354432Y-103651116D01*
X64354428Y-103651116D01*
X64241985Y-103657304D01*
X64082065Y-103666105D01*
X63810171Y-103720189D01*
X63688495Y-103762918D01*
X63552816Y-103810564D01*
X63552808Y-103810567D01*
X63548609Y-103812042D01*
X63544656Y-103814095D01*
X63544650Y-103814098D01*
X63495571Y-103839593D01*
X63302600Y-103939834D01*
X63298985Y-103942417D01*
X63298979Y-103942421D01*
X63156474Y-104044257D01*
X63077051Y-104101014D01*
X62943472Y-104228442D01*
X62880375Y-104260989D01*
X62809698Y-104254257D01*
X62753881Y-104210384D01*
X62730500Y-104137272D01*
X62730500Y-102964727D01*
X63140520Y-102964727D01*
X63147910Y-102975029D01*
X63196383Y-103014492D01*
X63203662Y-103019607D01*
X63433460Y-103157957D01*
X63441384Y-103161994D01*
X63688389Y-103266588D01*
X63696794Y-103269466D01*
X63956083Y-103338214D01*
X63964804Y-103339878D01*
X64231198Y-103371408D01*
X64240063Y-103371826D01*
X64508228Y-103365506D01*
X64517088Y-103364669D01*
X64781674Y-103320630D01*
X64790331Y-103318551D01*
X65046080Y-103237669D01*
X65054341Y-103234398D01*
X65296145Y-103118285D01*
X65303870Y-103113879D01*
X65508687Y-102977025D01*
X65516975Y-102967107D01*
X65509718Y-102952928D01*
X64340852Y-101784062D01*
X64326908Y-101776448D01*
X64325075Y-101776579D01*
X64318460Y-101780830D01*
X63147686Y-102951604D01*
X63140520Y-102964727D01*
X62730500Y-102964727D01*
X62730500Y-102699206D01*
X62750502Y-102631085D01*
X62775873Y-102607907D01*
X62774418Y-102606452D01*
X63967698Y-101413172D01*
X64692448Y-101413172D01*
X64692579Y-101415005D01*
X64696830Y-101421620D01*
X65868386Y-102593176D01*
X65881786Y-102600493D01*
X65891691Y-102593506D01*
X65912522Y-102568723D01*
X65917742Y-102561538D01*
X66059695Y-102333925D01*
X66063847Y-102326085D01*
X66172315Y-102080734D01*
X66175321Y-102072384D01*
X66248134Y-101814208D01*
X66249935Y-101805515D01*
X66285810Y-101538421D01*
X66286338Y-101532028D01*
X66290008Y-101415262D01*
X66289881Y-101408819D01*
X66270850Y-101140031D01*
X66269597Y-101131228D01*
X66213139Y-100868992D01*
X66210660Y-100860459D01*
X66117817Y-100608797D01*
X66114162Y-100600702D01*
X65986786Y-100364633D01*
X65982024Y-100357128D01*
X65890887Y-100233738D01*
X65879762Y-100225298D01*
X65867166Y-100232124D01*
X64700062Y-101399228D01*
X64692448Y-101413172D01*
X63967698Y-101413172D01*
X65507855Y-99873015D01*
X65514709Y-99860463D01*
X65506502Y-99849393D01*
X65408802Y-99774830D01*
X65401377Y-99769953D01*
X65167338Y-99638885D01*
X65159285Y-99635096D01*
X64909122Y-99538315D01*
X64900632Y-99535703D01*
X64639314Y-99475133D01*
X64630536Y-99473743D01*
X64363291Y-99450597D01*
X64354420Y-99450457D01*
X64086571Y-99465198D01*
X64077761Y-99466312D01*
X63814675Y-99518642D01*
X63806092Y-99520990D01*
X63778309Y-99530747D01*
X63707409Y-99534446D01*
X63645764Y-99499227D01*
X63612946Y-99436270D01*
X63619375Y-99365565D01*
X63647465Y-99322770D01*
X63803230Y-99167005D01*
X63865542Y-99132979D01*
X63924618Y-99134309D01*
X63955980Y-99142625D01*
X63955994Y-99142628D01*
X63960291Y-99143767D01*
X64235590Y-99176351D01*
X64512734Y-99169820D01*
X64600257Y-99155252D01*
X64781803Y-99125035D01*
X64781807Y-99125034D01*
X64786193Y-99124304D01*
X64790434Y-99122963D01*
X64790437Y-99122962D01*
X65046264Y-99042054D01*
X65046266Y-99042053D01*
X65050510Y-99040711D01*
X65054521Y-99038785D01*
X65054526Y-99038783D01*
X65296393Y-98922640D01*
X65296394Y-98922639D01*
X65300412Y-98920710D01*
X65304769Y-98917799D01*
X65527205Y-98769173D01*
X65527209Y-98769170D01*
X65530913Y-98766695D01*
X65534230Y-98763724D01*
X65534234Y-98763721D01*
X65734095Y-98584710D01*
X65734096Y-98584709D01*
X65737413Y-98581738D01*
X65915792Y-98369530D01*
X66062492Y-98134305D01*
X66174584Y-97880757D01*
X66249833Y-97613944D01*
X66254343Y-97580368D01*
X66286310Y-97342373D01*
X66286311Y-97342365D01*
X66286737Y-97339191D01*
X66286839Y-97335948D01*
X66290509Y-97219182D01*
X66290509Y-97219177D01*
X66290610Y-97215960D01*
X66271031Y-96939431D01*
X66242917Y-96808847D01*
X66248134Y-96738044D01*
X66276998Y-96693237D01*
X67471379Y-95498855D01*
X67481522Y-95489753D01*
X67506218Y-95469897D01*
X67511025Y-95466032D01*
X67543292Y-95427578D01*
X67546472Y-95423931D01*
X67548115Y-95422119D01*
X67550309Y-95419925D01*
X67577642Y-95386651D01*
X67578348Y-95385800D01*
X67614904Y-95342235D01*
X67638154Y-95314526D01*
X67640722Y-95309856D01*
X67644103Y-95305739D01*
X67688015Y-95223842D01*
X67688624Y-95222720D01*
X67730466Y-95146611D01*
X67730468Y-95146606D01*
X67733433Y-95141213D01*
X67735044Y-95136135D01*
X67737563Y-95131437D01*
X67764753Y-95042502D01*
X67765136Y-95041272D01*
X67791371Y-94958570D01*
X67793235Y-94952694D01*
X67793828Y-94947403D01*
X67795388Y-94942302D01*
X67796011Y-94936170D01*
X67796012Y-94936164D01*
X67804785Y-94849784D01*
X67804925Y-94848470D01*
X67810108Y-94802270D01*
X67810108Y-94802265D01*
X67810500Y-94798773D01*
X67810500Y-94795248D01*
X67810555Y-94794263D01*
X67811004Y-94788559D01*
X67814752Y-94751666D01*
X67814752Y-94751661D01*
X67815374Y-94745538D01*
X67811059Y-94699889D01*
X67810500Y-94688032D01*
X67810500Y-91351983D01*
X67811237Y-91338376D01*
X67814659Y-91306878D01*
X67814659Y-91306873D01*
X67815324Y-91300752D01*
X67810950Y-91250752D01*
X67810621Y-91245926D01*
X67810500Y-91243454D01*
X67810500Y-91240371D01*
X67808126Y-91216158D01*
X67806310Y-91197634D01*
X67806188Y-91196321D01*
X67800969Y-91136674D01*
X67798087Y-91103727D01*
X67796600Y-91098608D01*
X67796080Y-91093307D01*
X67769209Y-91004306D01*
X67768874Y-91003173D01*
X67744630Y-90919726D01*
X67744628Y-90919722D01*
X67742909Y-90913804D01*
X67740456Y-90909072D01*
X67738916Y-90903971D01*
X67695269Y-90821880D01*
X67694657Y-90820714D01*
X67654729Y-90743687D01*
X67651892Y-90738214D01*
X67648569Y-90734051D01*
X67646066Y-90729344D01*
X67641041Y-90723182D01*
X67587261Y-90657242D01*
X67586433Y-90656215D01*
X67557469Y-90619932D01*
X67557464Y-90619927D01*
X67555262Y-90617168D01*
X67552761Y-90614667D01*
X67552119Y-90613949D01*
X67548406Y-90609601D01*
X67540642Y-90600081D01*
X67521065Y-90576078D01*
X67516323Y-90572155D01*
X67516321Y-90572153D01*
X67485727Y-90546843D01*
X67476947Y-90538853D01*
X66280587Y-89342493D01*
X66246561Y-89280181D01*
X66248302Y-89222928D01*
X66247721Y-89222808D01*
X66248406Y-89219499D01*
X66248416Y-89219189D01*
X66249833Y-89214164D01*
X66273774Y-89035921D01*
X66286310Y-88942593D01*
X66286311Y-88942585D01*
X66286737Y-88939411D01*
X66290610Y-88816180D01*
X66271031Y-88539651D01*
X66242917Y-88409067D01*
X66248134Y-88338265D01*
X66277000Y-88293455D01*
X69757379Y-84813075D01*
X69767522Y-84803973D01*
X69792218Y-84784117D01*
X69797025Y-84780252D01*
X69829292Y-84741798D01*
X69832472Y-84738151D01*
X69834115Y-84736339D01*
X69836309Y-84734145D01*
X69863642Y-84700871D01*
X69864348Y-84700020D01*
X69920195Y-84633464D01*
X69924154Y-84628746D01*
X69926722Y-84624076D01*
X69930103Y-84619959D01*
X69973977Y-84538134D01*
X69974606Y-84536975D01*
X70016462Y-84460839D01*
X70016465Y-84460831D01*
X70019433Y-84455433D01*
X70021045Y-84450351D01*
X70023562Y-84445657D01*
X70050762Y-84356689D01*
X70051108Y-84355578D01*
X70057888Y-84334208D01*
X70079235Y-84266914D01*
X70079829Y-84261618D01*
X70081387Y-84256522D01*
X70090790Y-84163963D01*
X70090911Y-84162827D01*
X70096500Y-84112993D01*
X70096500Y-84109466D01*
X70096555Y-84108481D01*
X70097002Y-84102801D01*
X70101374Y-84059758D01*
X70097059Y-84014111D01*
X70096500Y-84002253D01*
X70096500Y-77822108D01*
X70116502Y-77753987D01*
X70170158Y-77707494D01*
X70240432Y-77697390D01*
X70303491Y-77725586D01*
X70441256Y-77841185D01*
X70441261Y-77841189D01*
X70444627Y-77844013D01*
X70682825Y-77992855D01*
X70939420Y-78107099D01*
X70943648Y-78108311D01*
X70943647Y-78108311D01*
X71178055Y-78175526D01*
X71209417Y-78184519D01*
X71213767Y-78185130D01*
X71213770Y-78185131D01*
X71315800Y-78199470D01*
X71487561Y-78223610D01*
X71698131Y-78223610D01*
X71700317Y-78223457D01*
X71700321Y-78223457D01*
X71903809Y-78209228D01*
X71903814Y-78209227D01*
X71908194Y-78208921D01*
X71912488Y-78208008D01*
X71912490Y-78208008D01*
X72028698Y-78183307D01*
X72182934Y-78150523D01*
X72187065Y-78149019D01*
X72187070Y-78149018D01*
X72332104Y-78096229D01*
X72446872Y-78054457D01*
X72562729Y-77992855D01*
X72690981Y-77924663D01*
X72690987Y-77924659D01*
X72694873Y-77922593D01*
X72698433Y-77920006D01*
X72698437Y-77920004D01*
X72918545Y-77760086D01*
X72918548Y-77760084D01*
X72922108Y-77757497D01*
X72973888Y-77707494D01*
X73120989Y-77565440D01*
X73120993Y-77565435D01*
X73124154Y-77562383D01*
X73297080Y-77341049D01*
X73372574Y-77210289D01*
X73435314Y-77101621D01*
X73435317Y-77101616D01*
X73437519Y-77097801D01*
X73439169Y-77093717D01*
X73439172Y-77093711D01*
X73541088Y-76841458D01*
X73541089Y-76841455D01*
X73542737Y-76837376D01*
X73610688Y-76564841D01*
X73614634Y-76527304D01*
X73639589Y-76289871D01*
X73639589Y-76289868D01*
X73640048Y-76285502D01*
X73637595Y-76215240D01*
X73630399Y-76009194D01*
X73630398Y-76009188D01*
X73630245Y-76004796D01*
X73581471Y-75728185D01*
X73580116Y-75724014D01*
X73580114Y-75724007D01*
X73496036Y-75465243D01*
X73494675Y-75461054D01*
X73470799Y-75412100D01*
X73437597Y-75344027D01*
X73371546Y-75208603D01*
X73214482Y-74975745D01*
X73158291Y-74913338D01*
X73029486Y-74770286D01*
X73029485Y-74770285D01*
X73026538Y-74767012D01*
X72811373Y-74586467D01*
X72573175Y-74437625D01*
X72316580Y-74323381D01*
X72123097Y-74267901D01*
X72050810Y-74247173D01*
X72050809Y-74247173D01*
X72046583Y-74245961D01*
X72042233Y-74245350D01*
X72042230Y-74245349D01*
X71940200Y-74231010D01*
X71768439Y-74206870D01*
X71557869Y-74206870D01*
X71555683Y-74207023D01*
X71555679Y-74207023D01*
X71352191Y-74221252D01*
X71352186Y-74221253D01*
X71347806Y-74221559D01*
X71343512Y-74222472D01*
X71343510Y-74222472D01*
X71235883Y-74245349D01*
X71073066Y-74279957D01*
X71068935Y-74281461D01*
X71068930Y-74281462D01*
X70959307Y-74321362D01*
X70809128Y-74376023D01*
X70740329Y-74412604D01*
X70565019Y-74505817D01*
X70565013Y-74505821D01*
X70561127Y-74507887D01*
X70557567Y-74510474D01*
X70557563Y-74510476D01*
X70337455Y-74670394D01*
X70333892Y-74672983D01*
X70330728Y-74676039D01*
X70330725Y-74676041D01*
X70310027Y-74696029D01*
X70247130Y-74728961D01*
X70176413Y-74722661D01*
X70120329Y-74679129D01*
X70096500Y-74605392D01*
X70096500Y-70827925D01*
X70116502Y-70759804D01*
X70133405Y-70738830D01*
X71057741Y-69814494D01*
X74747170Y-69814494D01*
X74747467Y-69819646D01*
X74747467Y-69819650D01*
X74753502Y-69924313D01*
X74760879Y-70052255D01*
X74762016Y-70057301D01*
X74762017Y-70057307D01*
X74795111Y-70204156D01*
X74813237Y-70284585D01*
X74815179Y-70289367D01*
X74815180Y-70289371D01*
X74862547Y-70406022D01*
X74902837Y-70505244D01*
X75027274Y-70708306D01*
X75183204Y-70888317D01*
X75366442Y-71040444D01*
X75370894Y-71043046D01*
X75370899Y-71043049D01*
X75469333Y-71100569D01*
X75572065Y-71160601D01*
X75794552Y-71245560D01*
X75799618Y-71246591D01*
X75799619Y-71246591D01*
X75853956Y-71257646D01*
X76027928Y-71293041D01*
X76162121Y-71297962D01*
X76260760Y-71301579D01*
X76260764Y-71301579D01*
X76265924Y-71301768D01*
X76271044Y-71301112D01*
X76271046Y-71301112D01*
X76497023Y-71272164D01*
X76497024Y-71272164D01*
X76502151Y-71271507D01*
X76585200Y-71246591D01*
X76725316Y-71204554D01*
X76725317Y-71204553D01*
X76730262Y-71203070D01*
X76944133Y-71098295D01*
X76948336Y-71095297D01*
X76948341Y-71095294D01*
X77133816Y-70962996D01*
X77133818Y-70962994D01*
X77138020Y-70959997D01*
X77306716Y-70791889D01*
X77445690Y-70598486D01*
X77491774Y-70505244D01*
X77548917Y-70389624D01*
X77548918Y-70389622D01*
X77551211Y-70384982D01*
X77620443Y-70157111D01*
X77651529Y-69920992D01*
X77653264Y-69850000D01*
X77633750Y-69612644D01*
X77575731Y-69381663D01*
X77493755Y-69193129D01*
X77482827Y-69167996D01*
X77482825Y-69167993D01*
X77480767Y-69163259D01*
X77463694Y-69136867D01*
X77362991Y-68981206D01*
X77351406Y-68963298D01*
X77345999Y-68957355D01*
X77284013Y-68889234D01*
X77191124Y-68787150D01*
X77187073Y-68783951D01*
X77187069Y-68783947D01*
X77044932Y-68671695D01*
X77003869Y-68613778D01*
X77000637Y-68542855D01*
X77022406Y-68498113D01*
X77015045Y-68484256D01*
X76212811Y-67682021D01*
X76198868Y-67674408D01*
X76197034Y-67674539D01*
X76190420Y-67678790D01*
X75381083Y-68488128D01*
X75374326Y-68500503D01*
X75374760Y-68501083D01*
X75399572Y-68567603D01*
X75384481Y-68636977D01*
X75349546Y-68677353D01*
X75239275Y-68760147D01*
X75235140Y-68763252D01*
X75070602Y-68935431D01*
X74936394Y-69132172D01*
X74836122Y-69348191D01*
X74772477Y-69577685D01*
X74771928Y-69582819D01*
X74771928Y-69582821D01*
X74766875Y-69630103D01*
X74747170Y-69814494D01*
X71057741Y-69814494D01*
X72551379Y-68320855D01*
X72561522Y-68311753D01*
X72586218Y-68291897D01*
X72591025Y-68288032D01*
X72623292Y-68249578D01*
X72626472Y-68245931D01*
X72628115Y-68244119D01*
X72630309Y-68241925D01*
X72657642Y-68208651D01*
X72658348Y-68207800D01*
X72714195Y-68141244D01*
X72718154Y-68136526D01*
X72720722Y-68131856D01*
X72724103Y-68127739D01*
X72768015Y-68045842D01*
X72768624Y-68044720D01*
X72810466Y-67968611D01*
X72810468Y-67968606D01*
X72813433Y-67963213D01*
X72815044Y-67958135D01*
X72817563Y-67953437D01*
X72844753Y-67864502D01*
X72845136Y-67863272D01*
X72849525Y-67849438D01*
X72873235Y-67774694D01*
X72873828Y-67769403D01*
X72875388Y-67764302D01*
X72884795Y-67671689D01*
X72884915Y-67670569D01*
X72890500Y-67620773D01*
X72890500Y-67617244D01*
X72890555Y-67616261D01*
X72891004Y-67610556D01*
X72894752Y-67573664D01*
X72894752Y-67573661D01*
X72895374Y-67567537D01*
X72891059Y-67521888D01*
X72890500Y-67510031D01*
X72890500Y-67279662D01*
X74747969Y-67279662D01*
X74761078Y-67507017D01*
X74762514Y-67517237D01*
X74812580Y-67739393D01*
X74815659Y-67749221D01*
X74901338Y-67960223D01*
X74905991Y-67969434D01*
X75001153Y-68124723D01*
X75011611Y-68134185D01*
X75020387Y-68130402D01*
X75827979Y-67322811D01*
X75834356Y-67311132D01*
X76564408Y-67311132D01*
X76564539Y-67312966D01*
X76568790Y-67319580D01*
X77374826Y-68125615D01*
X77386832Y-68132171D01*
X77398571Y-68123202D01*
X77442241Y-68062429D01*
X77447551Y-68053592D01*
X77548450Y-67849438D01*
X77552249Y-67839843D01*
X77618449Y-67621957D01*
X77620628Y-67611876D01*
X77650591Y-67384288D01*
X77651110Y-67377615D01*
X77652680Y-67313365D01*
X77652486Y-67306646D01*
X77633679Y-67077887D01*
X77631994Y-67067707D01*
X77576515Y-66846837D01*
X77573195Y-66837086D01*
X77482384Y-66628233D01*
X77477518Y-66619158D01*
X77398008Y-66496256D01*
X77387322Y-66487052D01*
X77377755Y-66491456D01*
X76572021Y-67297189D01*
X76564408Y-67311132D01*
X75834356Y-67311132D01*
X75835592Y-67308868D01*
X75835461Y-67307034D01*
X75831210Y-67300420D01*
X75025220Y-66494431D01*
X75013688Y-66488134D01*
X75001406Y-66497757D01*
X74939747Y-66588146D01*
X74934654Y-66597110D01*
X74838768Y-66803679D01*
X74835211Y-66813347D01*
X74774352Y-67032797D01*
X74772421Y-67042916D01*
X74748221Y-67269373D01*
X74747969Y-67279662D01*
X72890500Y-67279662D01*
X72890500Y-66122285D01*
X75377081Y-66122285D01*
X75383825Y-66134614D01*
X76187189Y-66937979D01*
X76201132Y-66945592D01*
X76202966Y-66945461D01*
X76209580Y-66941210D01*
X77017331Y-66133458D01*
X77024348Y-66120607D01*
X77016574Y-66109937D01*
X77008004Y-66103169D01*
X76999417Y-66097464D01*
X76800055Y-65987410D01*
X76790643Y-65983180D01*
X76575971Y-65907160D01*
X76566014Y-65904530D01*
X76341805Y-65864591D01*
X76331554Y-65863622D01*
X76103830Y-65860840D01*
X76093546Y-65861560D01*
X75868437Y-65896006D01*
X75858410Y-65898395D01*
X75641951Y-65969144D01*
X75632442Y-65973141D01*
X75430451Y-66078292D01*
X75421716Y-66083793D01*
X75385535Y-66110958D01*
X75377081Y-66122285D01*
X72890500Y-66122285D01*
X72890500Y-62503460D01*
X73242852Y-62503460D01*
X73278593Y-62683143D01*
X73281082Y-62692118D01*
X73363708Y-62922250D01*
X73367505Y-62930778D01*
X73483234Y-63146160D01*
X73488245Y-63154027D01*
X73634550Y-63349953D01*
X73640656Y-63356977D01*
X73814316Y-63529127D01*
X73821398Y-63535176D01*
X74018586Y-63679760D01*
X74026505Y-63684708D01*
X74242877Y-63798547D01*
X74251451Y-63802275D01*
X74482282Y-63882885D01*
X74491291Y-63885299D01*
X74658201Y-63916988D01*
X74671261Y-63915704D01*
X74675506Y-63902360D01*
X75184000Y-63902360D01*
X75188171Y-63916565D01*
X75200933Y-63918620D01*
X75237487Y-63914617D01*
X75246649Y-63912919D01*
X75483107Y-63850665D01*
X75491926Y-63847628D01*
X75716584Y-63751107D01*
X75724856Y-63746800D01*
X75932777Y-63618135D01*
X75940317Y-63612657D01*
X76126943Y-63454668D01*
X76133593Y-63448132D01*
X76294813Y-63264295D01*
X76300420Y-63256854D01*
X76432700Y-63051202D01*
X76437147Y-63043011D01*
X76537572Y-62820076D01*
X76540767Y-62811298D01*
X76607135Y-62575973D01*
X76608993Y-62566844D01*
X76617246Y-62501969D01*
X76614958Y-62487708D01*
X76601938Y-62484000D01*
X75202115Y-62484000D01*
X75186876Y-62488475D01*
X75185671Y-62489865D01*
X75184000Y-62497548D01*
X75184000Y-63902360D01*
X74675506Y-63902360D01*
X74676000Y-63900808D01*
X74676000Y-62502115D01*
X74671525Y-62486876D01*
X74670135Y-62485671D01*
X74662452Y-62484000D01*
X73257096Y-62484000D01*
X73244695Y-62487641D01*
X73242852Y-62503460D01*
X72890500Y-62503460D01*
X72890500Y-61957976D01*
X73240675Y-61957976D01*
X73243435Y-61972703D01*
X73255614Y-61976000D01*
X74657885Y-61976000D01*
X74673124Y-61971525D01*
X74674329Y-61970135D01*
X74676000Y-61962452D01*
X74676000Y-61957885D01*
X75184000Y-61957885D01*
X75188475Y-61973124D01*
X75189865Y-61974329D01*
X75197548Y-61976000D01*
X76605671Y-61976000D01*
X76619202Y-61972027D01*
X76620634Y-61962068D01*
X76568979Y-61733786D01*
X76566255Y-61724875D01*
X76477633Y-61496983D01*
X76473619Y-61488567D01*
X76352286Y-61276281D01*
X76347070Y-61268548D01*
X76195692Y-61076525D01*
X76189399Y-61069657D01*
X76011294Y-60902112D01*
X76004060Y-60896254D01*
X75803141Y-60756872D01*
X75795115Y-60752144D01*
X75575810Y-60643995D01*
X75567177Y-60640507D01*
X75334288Y-60565958D01*
X75325238Y-60563785D01*
X75201880Y-60543696D01*
X75188286Y-60545393D01*
X75184000Y-60559500D01*
X75184000Y-61957885D01*
X74676000Y-61957885D01*
X74676000Y-60558859D01*
X74671982Y-60545175D01*
X74658290Y-60543154D01*
X74578521Y-60554010D01*
X74569403Y-60555948D01*
X74334668Y-60624367D01*
X74325915Y-60627639D01*
X74103869Y-60730004D01*
X74095714Y-60734524D01*
X73891233Y-60868587D01*
X73883828Y-60874270D01*
X73701413Y-61037082D01*
X73694935Y-61043790D01*
X73538584Y-61231781D01*
X73533163Y-61239381D01*
X73406322Y-61448409D01*
X73402084Y-61456726D01*
X73307529Y-61682214D01*
X73304572Y-61691052D01*
X73244382Y-61928048D01*
X73242764Y-61937228D01*
X73240675Y-61957976D01*
X72890500Y-61957976D01*
X72890500Y-58127925D01*
X72910502Y-58059804D01*
X72927405Y-58038830D01*
X73770945Y-57195290D01*
X74619931Y-56346303D01*
X74682243Y-56312278D01*
X74726718Y-56311688D01*
X74726810Y-56310877D01*
X74731461Y-56311407D01*
X74736050Y-56312278D01*
X74856532Y-56317011D01*
X74985125Y-56322064D01*
X74985130Y-56322064D01*
X74989793Y-56322247D01*
X75080821Y-56312278D01*
X75237569Y-56295112D01*
X75237575Y-56295111D01*
X75242222Y-56294602D01*
X75487793Y-56229948D01*
X75605811Y-56179244D01*
X75716807Y-56131557D01*
X75716810Y-56131555D01*
X75721110Y-56129708D01*
X75725090Y-56127245D01*
X75725094Y-56127243D01*
X75933064Y-55998547D01*
X75933066Y-55998545D01*
X75937047Y-55996082D01*
X75960613Y-55976132D01*
X76127289Y-55835031D01*
X76127291Y-55835029D01*
X76130862Y-55832006D01*
X76298295Y-55641084D01*
X76317993Y-55610461D01*
X76433141Y-55431442D01*
X76435669Y-55427512D01*
X76539967Y-55195980D01*
X76608896Y-54951575D01*
X76623943Y-54833295D01*
X76640545Y-54702798D01*
X76640545Y-54702792D01*
X76640943Y-54699667D01*
X76643291Y-54610000D01*
X76624472Y-54356759D01*
X76619335Y-54334053D01*
X76577713Y-54150115D01*
X76568428Y-54109082D01*
X76489908Y-53907167D01*
X76478084Y-53876762D01*
X76478083Y-53876760D01*
X76476391Y-53872409D01*
X76455866Y-53836498D01*
X76352702Y-53655997D01*
X76352700Y-53655995D01*
X76350383Y-53651940D01*
X76193171Y-53452517D01*
X76008209Y-53278523D01*
X75922398Y-53218994D01*
X75803393Y-53136437D01*
X75803390Y-53136435D01*
X75799561Y-53133779D01*
X75795384Y-53131719D01*
X75795377Y-53131715D01*
X75575996Y-53023528D01*
X75575992Y-53023527D01*
X75571810Y-53021464D01*
X75329960Y-52944047D01*
X75325355Y-52943297D01*
X75083935Y-52903980D01*
X75083934Y-52903980D01*
X75079323Y-52903229D01*
X74952365Y-52901567D01*
X74830083Y-52899966D01*
X74830080Y-52899966D01*
X74825406Y-52899905D01*
X74573787Y-52934149D01*
X74329993Y-53005208D01*
X74099380Y-53111522D01*
X74095471Y-53114085D01*
X73890928Y-53248189D01*
X73890923Y-53248193D01*
X73887015Y-53250755D01*
X73697562Y-53419848D01*
X73535183Y-53615087D01*
X73403447Y-53832182D01*
X73401638Y-53836496D01*
X73401637Y-53836498D01*
X73375939Y-53897782D01*
X73305246Y-54066365D01*
X73304095Y-54070897D01*
X73304094Y-54070900D01*
X73291126Y-54121963D01*
X73242738Y-54312490D01*
X73217296Y-54565151D01*
X73217520Y-54569817D01*
X73217520Y-54569822D01*
X73227772Y-54783240D01*
X73229365Y-54816411D01*
X73229365Y-54816413D01*
X73229480Y-54818798D01*
X73228968Y-54818823D01*
X73217910Y-54885872D01*
X73193497Y-54920268D01*
X71212621Y-56901145D01*
X71202478Y-56910247D01*
X71172975Y-56933968D01*
X71169008Y-56938696D01*
X71140709Y-56972421D01*
X71137528Y-56976069D01*
X71135885Y-56977881D01*
X71133691Y-56980075D01*
X71106358Y-57013349D01*
X71105696Y-57014147D01*
X71045846Y-57085474D01*
X71043278Y-57090144D01*
X71039897Y-57094261D01*
X71008860Y-57152145D01*
X70996023Y-57176086D01*
X70995394Y-57177245D01*
X70953538Y-57253381D01*
X70953535Y-57253389D01*
X70950567Y-57258787D01*
X70948955Y-57263869D01*
X70946438Y-57268563D01*
X70919238Y-57357531D01*
X70918918Y-57358559D01*
X70890765Y-57447306D01*
X70890171Y-57452602D01*
X70888613Y-57457698D01*
X70885609Y-57487275D01*
X70879218Y-57550187D01*
X70879089Y-57551393D01*
X70873500Y-57601227D01*
X70873500Y-57604754D01*
X70873445Y-57605739D01*
X70872998Y-57611419D01*
X70868626Y-57654462D01*
X70869206Y-57660593D01*
X70872941Y-57700109D01*
X70873500Y-57711967D01*
X70873500Y-67094076D01*
X70853498Y-67162197D01*
X70836595Y-67183171D01*
X68418621Y-69601145D01*
X68408478Y-69610247D01*
X68378975Y-69633968D01*
X68375008Y-69638696D01*
X68346709Y-69672421D01*
X68343528Y-69676069D01*
X68341885Y-69677881D01*
X68339691Y-69680075D01*
X68312358Y-69713349D01*
X68311652Y-69714200D01*
X68291022Y-69738786D01*
X68231912Y-69778113D01*
X68160925Y-69779239D01*
X68100597Y-69741808D01*
X68070083Y-69677703D01*
X68068500Y-69657795D01*
X68068500Y-65228286D01*
X68076518Y-65184057D01*
X68100973Y-65118824D01*
X68100973Y-65118822D01*
X68103745Y-65111429D01*
X68104599Y-65103573D01*
X68110131Y-65052644D01*
X68110500Y-65049247D01*
X68110500Y-63352979D01*
X68103745Y-63290797D01*
X68052615Y-63154408D01*
X68018292Y-63108611D01*
X67970645Y-63045035D01*
X67970642Y-63045032D01*
X67965261Y-63037852D01*
X67958081Y-63032471D01*
X67951730Y-63026120D01*
X67953872Y-63023978D01*
X67920436Y-62979267D01*
X67915406Y-62908449D01*
X67933523Y-62867078D01*
X67933182Y-62866881D01*
X67934952Y-62863815D01*
X67935299Y-62863023D01*
X67935929Y-62862124D01*
X67941414Y-62852624D01*
X68033490Y-62655166D01*
X68037236Y-62644874D01*
X68093625Y-62434425D01*
X68095528Y-62423632D01*
X68114517Y-62206588D01*
X68114517Y-62195638D01*
X68095528Y-61978594D01*
X68093625Y-61967801D01*
X68037236Y-61757352D01*
X68033490Y-61747060D01*
X67941414Y-61549602D01*
X67935931Y-61540107D01*
X67899491Y-61488065D01*
X67889012Y-61479689D01*
X67875566Y-61486757D01*
X66891095Y-62471228D01*
X66828783Y-62505254D01*
X66757968Y-62500189D01*
X66712905Y-62471228D01*
X65727713Y-61486036D01*
X65715938Y-61479606D01*
X65703923Y-61488902D01*
X65668069Y-61540107D01*
X65662586Y-61549602D01*
X65570510Y-61747060D01*
X65566764Y-61757352D01*
X65510375Y-61967801D01*
X65508472Y-61978594D01*
X65489483Y-62195638D01*
X65489483Y-62206588D01*
X65508472Y-62423632D01*
X65510375Y-62434425D01*
X65566764Y-62644874D01*
X65570510Y-62655166D01*
X65662586Y-62852624D01*
X65668071Y-62862124D01*
X65668701Y-62863023D01*
X65668856Y-62863483D01*
X65670818Y-62866881D01*
X65670135Y-62867275D01*
X65691388Y-62930297D01*
X65674102Y-62999157D01*
X65651066Y-63024916D01*
X65652270Y-63026120D01*
X65645919Y-63032471D01*
X65638739Y-63037852D01*
X65633358Y-63045032D01*
X65633355Y-63045035D01*
X65585708Y-63108611D01*
X65551385Y-63154408D01*
X65500255Y-63290797D01*
X65493500Y-63352979D01*
X65493500Y-65049247D01*
X65500255Y-65111429D01*
X65551385Y-65247818D01*
X65638739Y-65364374D01*
X65755295Y-65451728D01*
X65891684Y-65502858D01*
X65953866Y-65509613D01*
X66425500Y-65509613D01*
X66493621Y-65529615D01*
X66540114Y-65583271D01*
X66551500Y-65635613D01*
X66551500Y-68889234D01*
X66531498Y-68957355D01*
X66477842Y-69003848D01*
X66407568Y-69013952D01*
X66374252Y-69004341D01*
X66328323Y-68983892D01*
X66328315Y-68983889D01*
X66322288Y-68981206D01*
X66228888Y-68961353D01*
X66141944Y-68942872D01*
X66141939Y-68942872D01*
X66135487Y-68941500D01*
X65944513Y-68941500D01*
X65938061Y-68942872D01*
X65938056Y-68942872D01*
X65851112Y-68961353D01*
X65757712Y-68981206D01*
X65751682Y-68983891D01*
X65751681Y-68983891D01*
X65589278Y-69056197D01*
X65589276Y-69056198D01*
X65583248Y-69058882D01*
X65428747Y-69171134D01*
X65300960Y-69313056D01*
X65205473Y-69478444D01*
X65160192Y-69617805D01*
X65150613Y-69647285D01*
X65119875Y-69697444D01*
X61233089Y-73584230D01*
X61218677Y-73596616D01*
X61207082Y-73605149D01*
X61207077Y-73605154D01*
X61201182Y-73609492D01*
X61196443Y-73615070D01*
X61196440Y-73615073D01*
X61166965Y-73649768D01*
X61160035Y-73657284D01*
X61154340Y-73662979D01*
X61152060Y-73665861D01*
X61136719Y-73685251D01*
X61133928Y-73688655D01*
X61126685Y-73697181D01*
X61086667Y-73744285D01*
X61083339Y-73750801D01*
X61079972Y-73755850D01*
X61076805Y-73760979D01*
X61072266Y-73766716D01*
X61041345Y-73832875D01*
X61039442Y-73836769D01*
X61006231Y-73901808D01*
X61004492Y-73908916D01*
X61002393Y-73914559D01*
X61000476Y-73920322D01*
X60997378Y-73926950D01*
X60995888Y-73934112D01*
X60995888Y-73934113D01*
X60982514Y-73998412D01*
X60981544Y-74002696D01*
X60964192Y-74073610D01*
X60963500Y-74084764D01*
X60963464Y-74084762D01*
X60963225Y-74088755D01*
X60962851Y-74092947D01*
X60961360Y-74100115D01*
X60961558Y-74107432D01*
X60963454Y-74177521D01*
X60963500Y-74180928D01*
X60963500Y-75644609D01*
X60943498Y-75712730D01*
X60889842Y-75759223D01*
X60819568Y-75769327D01*
X60754988Y-75739833D01*
X60716604Y-75680107D01*
X60714807Y-75673034D01*
X60714519Y-75672043D01*
X60713584Y-75667700D01*
X60617633Y-75407614D01*
X60485993Y-75163642D01*
X60483352Y-75160067D01*
X60483348Y-75160060D01*
X60323943Y-74944245D01*
X60321290Y-74940653D01*
X60279207Y-74897903D01*
X60129942Y-74746276D01*
X60126811Y-74743095D01*
X60123272Y-74740394D01*
X60123265Y-74740388D01*
X59946377Y-74605392D01*
X59906436Y-74574910D01*
X59902547Y-74572732D01*
X59668453Y-74441633D01*
X59668452Y-74441633D01*
X59664562Y-74439454D01*
X59655220Y-74435840D01*
X59410170Y-74341036D01*
X59410164Y-74341034D01*
X59406015Y-74339429D01*
X59401683Y-74338425D01*
X59401680Y-74338424D01*
X59291345Y-74312850D01*
X59135954Y-74276832D01*
X58859767Y-74252912D01*
X58855332Y-74253156D01*
X58855328Y-74253156D01*
X58742885Y-74259344D01*
X58582965Y-74268145D01*
X58311071Y-74322229D01*
X58189395Y-74364958D01*
X58053716Y-74412604D01*
X58053708Y-74412607D01*
X58049509Y-74414082D01*
X58045556Y-74416135D01*
X58045550Y-74416138D01*
X57918413Y-74482181D01*
X57803500Y-74541874D01*
X57799885Y-74544457D01*
X57799879Y-74544461D01*
X57714615Y-74605392D01*
X57577951Y-74703054D01*
X57377362Y-74894406D01*
X57205736Y-75112112D01*
X57180395Y-75155740D01*
X57068732Y-75347982D01*
X57068729Y-75347988D01*
X57066498Y-75351829D01*
X57064828Y-75355952D01*
X56980321Y-75564591D01*
X56962425Y-75608773D01*
X56961354Y-75613086D01*
X56961352Y-75613091D01*
X56936602Y-75712730D01*
X56895594Y-75877817D01*
X56867338Y-76153594D01*
X56867513Y-76158046D01*
X56872693Y-76289871D01*
X56878222Y-76430601D01*
X56928028Y-76703311D01*
X57015762Y-76966283D01*
X57139674Y-77214269D01*
X57297291Y-77442322D01*
X57485468Y-77645892D01*
X57488922Y-77648704D01*
X57696995Y-77818102D01*
X57696999Y-77818105D01*
X57700452Y-77820916D01*
X57937952Y-77963903D01*
X57942047Y-77965637D01*
X57942049Y-77965638D01*
X58146921Y-78052390D01*
X58193229Y-78071999D01*
X58197522Y-78073137D01*
X58197527Y-78073139D01*
X58318871Y-78105312D01*
X58461191Y-78143047D01*
X58736490Y-78175631D01*
X59013634Y-78169100D01*
X59170160Y-78143047D01*
X59282703Y-78124315D01*
X59282707Y-78124314D01*
X59287093Y-78123584D01*
X59291334Y-78122243D01*
X59291337Y-78122242D01*
X59547164Y-78041334D01*
X59547166Y-78041333D01*
X59551410Y-78039991D01*
X59555421Y-78038065D01*
X59555426Y-78038063D01*
X59797293Y-77921920D01*
X59797294Y-77921919D01*
X59801312Y-77919990D01*
X59805018Y-77917514D01*
X60028105Y-77768453D01*
X60028109Y-77768450D01*
X60031813Y-77765975D01*
X60035130Y-77763004D01*
X60035134Y-77763001D01*
X60234995Y-77583990D01*
X60234996Y-77583989D01*
X60238313Y-77581018D01*
X60416692Y-77368810D01*
X60563392Y-77133585D01*
X60582869Y-77089530D01*
X60639225Y-76962054D01*
X60675484Y-76880037D01*
X60716231Y-76735559D01*
X60753972Y-76675425D01*
X60818234Y-76645242D01*
X60888612Y-76654592D01*
X60942762Y-76700508D01*
X60963500Y-76769760D01*
X60963500Y-79845769D01*
X60943498Y-79913890D01*
X60889842Y-79960383D01*
X60819568Y-79970487D01*
X60754988Y-79940993D01*
X60716604Y-79881267D01*
X60714807Y-79874194D01*
X60714519Y-79873203D01*
X60713584Y-79868860D01*
X60617633Y-79608774D01*
X60485993Y-79364802D01*
X60483352Y-79361227D01*
X60483348Y-79361220D01*
X60323943Y-79145405D01*
X60321290Y-79141813D01*
X60279207Y-79099063D01*
X60129942Y-78947436D01*
X60126811Y-78944255D01*
X60123272Y-78941554D01*
X60123265Y-78941548D01*
X59909976Y-78778772D01*
X59906436Y-78776070D01*
X59902547Y-78773892D01*
X59668453Y-78642793D01*
X59668452Y-78642793D01*
X59664562Y-78640614D01*
X59656563Y-78637520D01*
X59410170Y-78542196D01*
X59410164Y-78542194D01*
X59406015Y-78540589D01*
X59401683Y-78539585D01*
X59401680Y-78539584D01*
X59291345Y-78514010D01*
X59135954Y-78477992D01*
X58859767Y-78454072D01*
X58855332Y-78454316D01*
X58855328Y-78454316D01*
X58742885Y-78460504D01*
X58582965Y-78469305D01*
X58311071Y-78523389D01*
X58189395Y-78566118D01*
X58053716Y-78613764D01*
X58053708Y-78613767D01*
X58049509Y-78615242D01*
X58045556Y-78617295D01*
X58045550Y-78617298D01*
X57996471Y-78642793D01*
X57803500Y-78743034D01*
X57799885Y-78745617D01*
X57799879Y-78745621D01*
X57657374Y-78847457D01*
X57577951Y-78904214D01*
X57377362Y-79095566D01*
X57205736Y-79313272D01*
X57180395Y-79356900D01*
X57068732Y-79549142D01*
X57068729Y-79549148D01*
X57066498Y-79552989D01*
X56962425Y-79809933D01*
X56961354Y-79814246D01*
X56961352Y-79814251D01*
X56925053Y-79960383D01*
X56895594Y-80078977D01*
X56867338Y-80354754D01*
X56867513Y-80359206D01*
X56874008Y-80524500D01*
X56878222Y-80631761D01*
X56928028Y-80904471D01*
X57015762Y-81167443D01*
X57139674Y-81415429D01*
X57297291Y-81643482D01*
X57485468Y-81847052D01*
X57488922Y-81849864D01*
X57696995Y-82019262D01*
X57696999Y-82019265D01*
X57700452Y-82022076D01*
X57937952Y-82165063D01*
X57942047Y-82166797D01*
X57942049Y-82166798D01*
X58117640Y-82241151D01*
X58193229Y-82273159D01*
X58197522Y-82274297D01*
X58197527Y-82274299D01*
X58337302Y-82311359D01*
X58461191Y-82344207D01*
X58736490Y-82376791D01*
X59013634Y-82370260D01*
X59170160Y-82344207D01*
X59282703Y-82325475D01*
X59282707Y-82325474D01*
X59287093Y-82324744D01*
X59291334Y-82323403D01*
X59291337Y-82323402D01*
X59547164Y-82242494D01*
X59547166Y-82242493D01*
X59551410Y-82241151D01*
X59555421Y-82239225D01*
X59555426Y-82239223D01*
X59797293Y-82123080D01*
X59797294Y-82123079D01*
X59801312Y-82121150D01*
X59949588Y-82022076D01*
X60028105Y-81969613D01*
X60028109Y-81969610D01*
X60031813Y-81967135D01*
X60035130Y-81964164D01*
X60035134Y-81964161D01*
X60234995Y-81785150D01*
X60234996Y-81785149D01*
X60238313Y-81782178D01*
X60416692Y-81569970D01*
X60563392Y-81334745D01*
X60675484Y-81081197D01*
X60716231Y-80936719D01*
X60753972Y-80876585D01*
X60818234Y-80846402D01*
X60888612Y-80855752D01*
X60942762Y-80901668D01*
X60963500Y-80970920D01*
X60963500Y-84046767D01*
X60943498Y-84114888D01*
X60889842Y-84161381D01*
X60819568Y-84171485D01*
X60754988Y-84141991D01*
X60716604Y-84082265D01*
X60714322Y-84073285D01*
X60714040Y-84071977D01*
X60711560Y-84063439D01*
X60618717Y-83811777D01*
X60615062Y-83803682D01*
X60487686Y-83567613D01*
X60482924Y-83560108D01*
X60391787Y-83436718D01*
X60380662Y-83428278D01*
X60368066Y-83435104D01*
X59200962Y-84602208D01*
X59193348Y-84616152D01*
X59193479Y-84617985D01*
X59197730Y-84624600D01*
X60369286Y-85796156D01*
X60382686Y-85803473D01*
X60392591Y-85796486D01*
X60413422Y-85771703D01*
X60418642Y-85764518D01*
X60560595Y-85536905D01*
X60564747Y-85529065D01*
X60673215Y-85283714D01*
X60676221Y-85275364D01*
X60716231Y-85133500D01*
X60753973Y-85073367D01*
X60818234Y-85043184D01*
X60888612Y-85052534D01*
X60942762Y-85098450D01*
X60963500Y-85167702D01*
X60963500Y-85556749D01*
X60943498Y-85624870D01*
X60926595Y-85645844D01*
X59627036Y-86945403D01*
X59564724Y-86979429D01*
X59492480Y-86973820D01*
X59406015Y-86940369D01*
X59401680Y-86939364D01*
X59401676Y-86939363D01*
X59234397Y-86900590D01*
X59135954Y-86877772D01*
X58859767Y-86853852D01*
X58855332Y-86854096D01*
X58855328Y-86854096D01*
X58742885Y-86860284D01*
X58582965Y-86869085D01*
X58311071Y-86923169D01*
X58189395Y-86965898D01*
X58053716Y-87013544D01*
X58053708Y-87013547D01*
X58049509Y-87015022D01*
X58045556Y-87017075D01*
X58045550Y-87017078D01*
X57906654Y-87089229D01*
X57803500Y-87142814D01*
X57799885Y-87145397D01*
X57799879Y-87145401D01*
X57657374Y-87247237D01*
X57577951Y-87303994D01*
X57377362Y-87495346D01*
X57205736Y-87713052D01*
X57203499Y-87716904D01*
X57068732Y-87948922D01*
X57068729Y-87948928D01*
X57066498Y-87952769D01*
X56962425Y-88209713D01*
X56961354Y-88214026D01*
X56961352Y-88214031D01*
X56941623Y-88293455D01*
X56895594Y-88478757D01*
X56867338Y-88754534D01*
X56878222Y-89031541D01*
X56928028Y-89304251D01*
X57015762Y-89567223D01*
X57139674Y-89815209D01*
X57297291Y-90043262D01*
X57485468Y-90246832D01*
X57488922Y-90249644D01*
X57696995Y-90419042D01*
X57696999Y-90419045D01*
X57700452Y-90421856D01*
X57937952Y-90564843D01*
X57942047Y-90566577D01*
X57942049Y-90566578D01*
X58155045Y-90656770D01*
X58193229Y-90672939D01*
X58197522Y-90674077D01*
X58197527Y-90674079D01*
X58337302Y-90711139D01*
X58461191Y-90743987D01*
X58736490Y-90776571D01*
X59013634Y-90770040D01*
X59170160Y-90743987D01*
X59282703Y-90725255D01*
X59282707Y-90725254D01*
X59287093Y-90724524D01*
X59291334Y-90723183D01*
X59291337Y-90723182D01*
X59547164Y-90642274D01*
X59547166Y-90642273D01*
X59551410Y-90640931D01*
X59555421Y-90639005D01*
X59555426Y-90639003D01*
X59797293Y-90522860D01*
X59797294Y-90522859D01*
X59801312Y-90520930D01*
X59949588Y-90421856D01*
X60028105Y-90369393D01*
X60028109Y-90369390D01*
X60031813Y-90366915D01*
X60035130Y-90363944D01*
X60035134Y-90363941D01*
X60234995Y-90184930D01*
X60234996Y-90184929D01*
X60238313Y-90181958D01*
X60416692Y-89969750D01*
X60563392Y-89734525D01*
X60675484Y-89480977D01*
X60750733Y-89214164D01*
X60774674Y-89035921D01*
X60787210Y-88942593D01*
X60787211Y-88942585D01*
X60787637Y-88939411D01*
X60791510Y-88816180D01*
X60771931Y-88539651D01*
X60713584Y-88268640D01*
X60712046Y-88264470D01*
X60712043Y-88264461D01*
X60670240Y-88151149D01*
X60665428Y-88080316D01*
X60699357Y-88018444D01*
X62210911Y-86506890D01*
X62225323Y-86494504D01*
X62236918Y-86485971D01*
X62236923Y-86485966D01*
X62242818Y-86481628D01*
X62247557Y-86476050D01*
X62247560Y-86476047D01*
X62277035Y-86441352D01*
X62283965Y-86433836D01*
X62289661Y-86428140D01*
X62291924Y-86425279D01*
X62291929Y-86425274D01*
X62307293Y-86405854D01*
X62310082Y-86402453D01*
X62311743Y-86400498D01*
X62357333Y-86346835D01*
X62360659Y-86340322D01*
X62364020Y-86335283D01*
X62367196Y-86330141D01*
X62371734Y-86324404D01*
X62402655Y-86258245D01*
X62404561Y-86254345D01*
X62437769Y-86189312D01*
X62439508Y-86182203D01*
X62441604Y-86176569D01*
X62443523Y-86170799D01*
X62446622Y-86164170D01*
X62461491Y-86092685D01*
X62462461Y-86088402D01*
X62478473Y-86022964D01*
X62479808Y-86017510D01*
X62480500Y-86006356D01*
X62480535Y-86006358D01*
X62480775Y-86002386D01*
X62481152Y-85998165D01*
X62482641Y-85991005D01*
X62480546Y-85913578D01*
X62480500Y-85910170D01*
X62480500Y-85788087D01*
X62500502Y-85719966D01*
X62554158Y-85673473D01*
X62624432Y-85663369D01*
X62689012Y-85692863D01*
X62710153Y-85716448D01*
X62764119Y-85794531D01*
X62774437Y-85802882D01*
X62788092Y-85795758D01*
X63956018Y-84627832D01*
X63963632Y-84613888D01*
X63963501Y-84612055D01*
X63959250Y-84605440D01*
X62788917Y-83435107D01*
X62776077Y-83428096D01*
X62765388Y-83435891D01*
X62705451Y-83511922D01*
X62647570Y-83553036D01*
X62576650Y-83556330D01*
X62515207Y-83520759D01*
X62482749Y-83457616D01*
X62480500Y-83433917D01*
X62480500Y-83062532D01*
X63140907Y-83062532D01*
X63147887Y-83075657D01*
X64315228Y-84242998D01*
X64329172Y-84250612D01*
X64331005Y-84250481D01*
X64337620Y-84246230D01*
X65507855Y-83075995D01*
X65514709Y-83063443D01*
X65506502Y-83052373D01*
X65408802Y-82977810D01*
X65401377Y-82972933D01*
X65167338Y-82841865D01*
X65159285Y-82838076D01*
X64909122Y-82741295D01*
X64900632Y-82738683D01*
X64639314Y-82678113D01*
X64630536Y-82676723D01*
X64363291Y-82653577D01*
X64354420Y-82653437D01*
X64086571Y-82668178D01*
X64077761Y-82669292D01*
X63814675Y-82721622D01*
X63806100Y-82723968D01*
X63553016Y-82812844D01*
X63544849Y-82816378D01*
X63306813Y-82940029D01*
X63299241Y-82944669D01*
X63149310Y-83051810D01*
X63140907Y-83062532D01*
X62480500Y-83062532D01*
X62480500Y-81590345D01*
X62500502Y-81522224D01*
X62554158Y-81475731D01*
X62624432Y-81465627D01*
X62689012Y-81495121D01*
X62710153Y-81518706D01*
X62742973Y-81566193D01*
X62796391Y-81643482D01*
X62984568Y-81847052D01*
X62988022Y-81849864D01*
X63196095Y-82019262D01*
X63196099Y-82019265D01*
X63199552Y-82022076D01*
X63437052Y-82165063D01*
X63441147Y-82166797D01*
X63441149Y-82166798D01*
X63616740Y-82241151D01*
X63692329Y-82273159D01*
X63696622Y-82274297D01*
X63696627Y-82274299D01*
X63836402Y-82311359D01*
X63960291Y-82344207D01*
X64235590Y-82376791D01*
X64512734Y-82370260D01*
X64669260Y-82344207D01*
X64781803Y-82325475D01*
X64781807Y-82325474D01*
X64786193Y-82324744D01*
X64790434Y-82323403D01*
X64790437Y-82323402D01*
X65046264Y-82242494D01*
X65046266Y-82242493D01*
X65050510Y-82241151D01*
X65054521Y-82239225D01*
X65054526Y-82239223D01*
X65296393Y-82123080D01*
X65296394Y-82123079D01*
X65300412Y-82121150D01*
X65448688Y-82022076D01*
X65527205Y-81969613D01*
X65527209Y-81969610D01*
X65530913Y-81967135D01*
X65534230Y-81964164D01*
X65534234Y-81964161D01*
X65734095Y-81785150D01*
X65734096Y-81785149D01*
X65737413Y-81782178D01*
X65915792Y-81569970D01*
X66062492Y-81334745D01*
X66174584Y-81081197D01*
X66249833Y-80814384D01*
X66273774Y-80636141D01*
X66286310Y-80542813D01*
X66286311Y-80542805D01*
X66286737Y-80539631D01*
X66286838Y-80536420D01*
X66290509Y-80419622D01*
X66290509Y-80419617D01*
X66290610Y-80416400D01*
X66271031Y-80139871D01*
X66232389Y-79960383D01*
X66213620Y-79873207D01*
X66213620Y-79873205D01*
X66212684Y-79868860D01*
X66116733Y-79608774D01*
X65985093Y-79364802D01*
X65982452Y-79361227D01*
X65982448Y-79361220D01*
X65823043Y-79145405D01*
X65820390Y-79141813D01*
X65778307Y-79099063D01*
X65629042Y-78947436D01*
X65625911Y-78944255D01*
X65622372Y-78941554D01*
X65622365Y-78941548D01*
X65409076Y-78778772D01*
X65405536Y-78776070D01*
X65401647Y-78773892D01*
X65167553Y-78642793D01*
X65167552Y-78642793D01*
X65163662Y-78640614D01*
X65155663Y-78637520D01*
X64909270Y-78542196D01*
X64909264Y-78542194D01*
X64905115Y-78540589D01*
X64900783Y-78539585D01*
X64900780Y-78539584D01*
X64790445Y-78514010D01*
X64635054Y-78477992D01*
X64358867Y-78454072D01*
X64354432Y-78454316D01*
X64354428Y-78454316D01*
X64241985Y-78460504D01*
X64082065Y-78469305D01*
X63810171Y-78523389D01*
X63688495Y-78566118D01*
X63552816Y-78613764D01*
X63552808Y-78613767D01*
X63548609Y-78615242D01*
X63544656Y-78617295D01*
X63544650Y-78617298D01*
X63495571Y-78642793D01*
X63302600Y-78743034D01*
X63298985Y-78745617D01*
X63298979Y-78745621D01*
X63156474Y-78847457D01*
X63077051Y-78904214D01*
X62876462Y-79095566D01*
X62873706Y-79099062D01*
X62873705Y-79099063D01*
X62705450Y-79312493D01*
X62647569Y-79353606D01*
X62576648Y-79356900D01*
X62515206Y-79321328D01*
X62482749Y-79258185D01*
X62480500Y-79234487D01*
X62480500Y-77389185D01*
X62500502Y-77321064D01*
X62554158Y-77274571D01*
X62624432Y-77264467D01*
X62689012Y-77293961D01*
X62710153Y-77317546D01*
X62723760Y-77337233D01*
X62796391Y-77442322D01*
X62984568Y-77645892D01*
X62988022Y-77648704D01*
X63196095Y-77818102D01*
X63196099Y-77818105D01*
X63199552Y-77820916D01*
X63437052Y-77963903D01*
X63441147Y-77965637D01*
X63441149Y-77965638D01*
X63646021Y-78052390D01*
X63692329Y-78071999D01*
X63696622Y-78073137D01*
X63696627Y-78073139D01*
X63817971Y-78105312D01*
X63960291Y-78143047D01*
X64235590Y-78175631D01*
X64512734Y-78169100D01*
X64669260Y-78143047D01*
X64781803Y-78124315D01*
X64781807Y-78124314D01*
X64786193Y-78123584D01*
X64790434Y-78122243D01*
X64790437Y-78122242D01*
X65046264Y-78041334D01*
X65046266Y-78041333D01*
X65050510Y-78039991D01*
X65054521Y-78038065D01*
X65054526Y-78038063D01*
X65296393Y-77921920D01*
X65296394Y-77921919D01*
X65300412Y-77919990D01*
X65304118Y-77917514D01*
X65527205Y-77768453D01*
X65527209Y-77768450D01*
X65530913Y-77765975D01*
X65534230Y-77763004D01*
X65534234Y-77763001D01*
X65734095Y-77583990D01*
X65734096Y-77583989D01*
X65737413Y-77581018D01*
X65915792Y-77368810D01*
X66062492Y-77133585D01*
X66081969Y-77089530D01*
X66138325Y-76962054D01*
X66174584Y-76880037D01*
X66249833Y-76613224D01*
X66273774Y-76434981D01*
X66286310Y-76341653D01*
X66286311Y-76341645D01*
X66286737Y-76338471D01*
X66286838Y-76335260D01*
X66290509Y-76218462D01*
X66290509Y-76218457D01*
X66290610Y-76215240D01*
X66271031Y-75938711D01*
X66232389Y-75759223D01*
X66213620Y-75672047D01*
X66213620Y-75672045D01*
X66212684Y-75667700D01*
X66211144Y-75663526D01*
X66211143Y-75663521D01*
X66169340Y-75550209D01*
X66164528Y-75479376D01*
X66198457Y-75417504D01*
X67798911Y-73817050D01*
X67813323Y-73804664D01*
X67824918Y-73796131D01*
X67824923Y-73796126D01*
X67830818Y-73791788D01*
X67857476Y-73760409D01*
X67916824Y-73721446D01*
X67987818Y-73720753D01*
X68047915Y-73758553D01*
X68078037Y-73822843D01*
X68079500Y-73841990D01*
X68079500Y-83586295D01*
X68059498Y-83654416D01*
X68042595Y-83675390D01*
X66411753Y-85306232D01*
X66349441Y-85340258D01*
X66278626Y-85335193D01*
X66221790Y-85292646D01*
X66196979Y-85226126D01*
X66201389Y-85182935D01*
X66248134Y-85017188D01*
X66249935Y-85008495D01*
X66285810Y-84741401D01*
X66286338Y-84735008D01*
X66290008Y-84618242D01*
X66289881Y-84611799D01*
X66270850Y-84343011D01*
X66269597Y-84334208D01*
X66213139Y-84071972D01*
X66210660Y-84063439D01*
X66117817Y-83811777D01*
X66114162Y-83803682D01*
X65986786Y-83567613D01*
X65982024Y-83560108D01*
X65890887Y-83436718D01*
X65879762Y-83428278D01*
X65867166Y-83435104D01*
X63147686Y-86154584D01*
X63140520Y-86167707D01*
X63147910Y-86178009D01*
X63196383Y-86217472D01*
X63203662Y-86222587D01*
X63433460Y-86360937D01*
X63441384Y-86364974D01*
X63688389Y-86469568D01*
X63696794Y-86472446D01*
X63956083Y-86541194D01*
X63964804Y-86542858D01*
X64231198Y-86574388D01*
X64240063Y-86574806D01*
X64508228Y-86568486D01*
X64517088Y-86567649D01*
X64781674Y-86523610D01*
X64790331Y-86521531D01*
X64892422Y-86489244D01*
X64963403Y-86487774D01*
X65023912Y-86524913D01*
X65054735Y-86588869D01*
X65046089Y-86659337D01*
X65019511Y-86698474D01*
X64851046Y-86866939D01*
X64788734Y-86900965D01*
X64733501Y-86900590D01*
X64639396Y-86878778D01*
X64639390Y-86878777D01*
X64635054Y-86877772D01*
X64358867Y-86853852D01*
X64354432Y-86854096D01*
X64354428Y-86854096D01*
X64241985Y-86860284D01*
X64082065Y-86869085D01*
X63810171Y-86923169D01*
X63688495Y-86965898D01*
X63552816Y-87013544D01*
X63552808Y-87013547D01*
X63548609Y-87015022D01*
X63544656Y-87017075D01*
X63544650Y-87017078D01*
X63405754Y-87089229D01*
X63302600Y-87142814D01*
X63298985Y-87145397D01*
X63298979Y-87145401D01*
X63156474Y-87247237D01*
X63077051Y-87303994D01*
X62876462Y-87495346D01*
X62704836Y-87713052D01*
X62702599Y-87716904D01*
X62567832Y-87948922D01*
X62567829Y-87948928D01*
X62565598Y-87952769D01*
X62461525Y-88209713D01*
X62460454Y-88214026D01*
X62460452Y-88214031D01*
X62440723Y-88293455D01*
X62394694Y-88478757D01*
X62366438Y-88754534D01*
X62377322Y-89031541D01*
X62427128Y-89304251D01*
X62514862Y-89567223D01*
X62638774Y-89815209D01*
X62796391Y-90043262D01*
X62984568Y-90246832D01*
X62988022Y-90249644D01*
X63196095Y-90419042D01*
X63196099Y-90419045D01*
X63199552Y-90421856D01*
X63437052Y-90564843D01*
X63441147Y-90566577D01*
X63441149Y-90566578D01*
X63654145Y-90656770D01*
X63692329Y-90672939D01*
X63696622Y-90674077D01*
X63696627Y-90674079D01*
X63836402Y-90711139D01*
X63960291Y-90743987D01*
X64235590Y-90776571D01*
X64512734Y-90770040D01*
X64517130Y-90769308D01*
X64517133Y-90769308D01*
X64742787Y-90731749D01*
X64813267Y-90740295D01*
X64852569Y-90766944D01*
X65010458Y-90924833D01*
X65044484Y-90987145D01*
X65039419Y-91057960D01*
X64996872Y-91114796D01*
X64930352Y-91139607D01*
X64892912Y-91136674D01*
X64639313Y-91077893D01*
X64630536Y-91076503D01*
X64363291Y-91053357D01*
X64354420Y-91053217D01*
X64086571Y-91067958D01*
X64077761Y-91069072D01*
X63814675Y-91121402D01*
X63806100Y-91123748D01*
X63553016Y-91212624D01*
X63544849Y-91216158D01*
X63306813Y-91339809D01*
X63299241Y-91344449D01*
X63149310Y-91451590D01*
X63140907Y-91462312D01*
X63147887Y-91475437D01*
X64598155Y-92925705D01*
X64632181Y-92988017D01*
X64627116Y-93058832D01*
X64598155Y-93103895D01*
X63147686Y-94554364D01*
X63140520Y-94567487D01*
X63147910Y-94577789D01*
X63196383Y-94617252D01*
X63203662Y-94622367D01*
X63433460Y-94760717D01*
X63441384Y-94764754D01*
X63688389Y-94869348D01*
X63696794Y-94872226D01*
X63956083Y-94940974D01*
X63964804Y-94942638D01*
X64231198Y-94974168D01*
X64240063Y-94974586D01*
X64508228Y-94968266D01*
X64517088Y-94967429D01*
X64781674Y-94923390D01*
X64790331Y-94921311D01*
X64892423Y-94889024D01*
X64963405Y-94887554D01*
X65023913Y-94924693D01*
X65054737Y-94988649D01*
X65046090Y-95059117D01*
X65019512Y-95098254D01*
X64851047Y-95266719D01*
X64788735Y-95300745D01*
X64733502Y-95300370D01*
X64639396Y-95278558D01*
X64639390Y-95278557D01*
X64635054Y-95277552D01*
X64358867Y-95253632D01*
X64354432Y-95253876D01*
X64354428Y-95253876D01*
X64241985Y-95260064D01*
X64082065Y-95268865D01*
X64077702Y-95269733D01*
X64077701Y-95269733D01*
X64040324Y-95277168D01*
X63810171Y-95322949D01*
X63688495Y-95365678D01*
X63552816Y-95413324D01*
X63552808Y-95413327D01*
X63548609Y-95414802D01*
X63544656Y-95416855D01*
X63544650Y-95416858D01*
X63459089Y-95461304D01*
X63302600Y-95542594D01*
X63298985Y-95545177D01*
X63298979Y-95545181D01*
X63156474Y-95647017D01*
X63077051Y-95703774D01*
X62876462Y-95895126D01*
X62873706Y-95898622D01*
X62873705Y-95898623D01*
X62707592Y-96109336D01*
X62704836Y-96112832D01*
X62702599Y-96116684D01*
X62567832Y-96348702D01*
X62567829Y-96348708D01*
X62565598Y-96352549D01*
X62461525Y-96609493D01*
X62460454Y-96613806D01*
X62460452Y-96613811D01*
X62429593Y-96738044D01*
X62394694Y-96878537D01*
X62366438Y-97154314D01*
X62377322Y-97431321D01*
X62411460Y-97618237D01*
X62413188Y-97627700D01*
X62405750Y-97698306D01*
X62378333Y-97739433D01*
X61052621Y-99065145D01*
X61042478Y-99074247D01*
X61012975Y-99097968D01*
X60990670Y-99124550D01*
X60980709Y-99136421D01*
X60977528Y-99140069D01*
X60975885Y-99141881D01*
X60973691Y-99144075D01*
X60946358Y-99177349D01*
X60945696Y-99178147D01*
X60885846Y-99249474D01*
X60883278Y-99254144D01*
X60879897Y-99258261D01*
X60848860Y-99316145D01*
X60836023Y-99340086D01*
X60835394Y-99341245D01*
X60793538Y-99417381D01*
X60793535Y-99417389D01*
X60790567Y-99422787D01*
X60788955Y-99427869D01*
X60786438Y-99432563D01*
X60759238Y-99521531D01*
X60758918Y-99522559D01*
X60730765Y-99611306D01*
X60730171Y-99616602D01*
X60728613Y-99621698D01*
X60727990Y-99627834D01*
X60719218Y-99714187D01*
X60719089Y-99715393D01*
X60713500Y-99765227D01*
X60713500Y-99768754D01*
X60713445Y-99769739D01*
X60712998Y-99775419D01*
X60708626Y-99818462D01*
X60709206Y-99824593D01*
X60712941Y-99864109D01*
X60713500Y-99875967D01*
X60713500Y-100286763D01*
X60693498Y-100354884D01*
X60639842Y-100401377D01*
X60569568Y-100411481D01*
X60504988Y-100381987D01*
X60486236Y-100360219D01*
X60485570Y-100360711D01*
X60391787Y-100233738D01*
X60380662Y-100225298D01*
X60368066Y-100232124D01*
X59200962Y-101399228D01*
X59193348Y-101413172D01*
X59193479Y-101415005D01*
X59197730Y-101421620D01*
X60369286Y-102593176D01*
X60382686Y-102600493D01*
X60392591Y-102593506D01*
X60413422Y-102568723D01*
X60418642Y-102561538D01*
X60480588Y-102462212D01*
X60533608Y-102414996D01*
X60603738Y-102403940D01*
X60668713Y-102432554D01*
X60707903Y-102491754D01*
X60713500Y-102528889D01*
X60713500Y-104486989D01*
X60693498Y-104555110D01*
X60639842Y-104601603D01*
X60569568Y-104611707D01*
X60504988Y-104582213D01*
X60486753Y-104561040D01*
X60485993Y-104561602D01*
X60323943Y-104342205D01*
X60321290Y-104338613D01*
X60279207Y-104295863D01*
X60129942Y-104144236D01*
X60126811Y-104141055D01*
X60123272Y-104138354D01*
X60123265Y-104138348D01*
X59909976Y-103975572D01*
X59906436Y-103972870D01*
X59902547Y-103970692D01*
X59668453Y-103839593D01*
X59668452Y-103839593D01*
X59664562Y-103837414D01*
X59656563Y-103834320D01*
X59410170Y-103738996D01*
X59410164Y-103738994D01*
X59406015Y-103737389D01*
X59401683Y-103736385D01*
X59401680Y-103736384D01*
X59291345Y-103710810D01*
X59135954Y-103674792D01*
X58859767Y-103650872D01*
X58855332Y-103651116D01*
X58855328Y-103651116D01*
X58742885Y-103657304D01*
X58582965Y-103666105D01*
X58311071Y-103720189D01*
X58189395Y-103762918D01*
X58053716Y-103810564D01*
X58053708Y-103810567D01*
X58049509Y-103812042D01*
X58045556Y-103814095D01*
X58045550Y-103814098D01*
X57996471Y-103839593D01*
X57803500Y-103939834D01*
X57799885Y-103942417D01*
X57799879Y-103942421D01*
X57657374Y-104044257D01*
X57577951Y-104101014D01*
X57574731Y-104104086D01*
X57410254Y-104260989D01*
X57377362Y-104292366D01*
X57205736Y-104510072D01*
X57152571Y-104601603D01*
X57068732Y-104745942D01*
X57068729Y-104745948D01*
X57066498Y-104749789D01*
X57064828Y-104753912D01*
X57005086Y-104901409D01*
X56962425Y-105006733D01*
X56961354Y-105011046D01*
X56961352Y-105011051D01*
X56941858Y-105089530D01*
X56895594Y-105275777D01*
X56867338Y-105551554D01*
X56878222Y-105828561D01*
X56928028Y-106101271D01*
X57015762Y-106364243D01*
X57139674Y-106612229D01*
X57297291Y-106840282D01*
X57300313Y-106843551D01*
X57468848Y-107025872D01*
X57485468Y-107043852D01*
X57488922Y-107046664D01*
X57696995Y-107216062D01*
X57696999Y-107216065D01*
X57700452Y-107218876D01*
X57937952Y-107361863D01*
X57942047Y-107363597D01*
X57942049Y-107363598D01*
X58117640Y-107437951D01*
X58193229Y-107469959D01*
X58197522Y-107471097D01*
X58197527Y-107471099D01*
X58275856Y-107491867D01*
X58461191Y-107541007D01*
X58736490Y-107573591D01*
X59013634Y-107567060D01*
X59170160Y-107541007D01*
X59282703Y-107522275D01*
X59282707Y-107522274D01*
X59287093Y-107521544D01*
X59291334Y-107520203D01*
X59291337Y-107520202D01*
X59388842Y-107489365D01*
X59459824Y-107487895D01*
X59520332Y-107525034D01*
X59551155Y-107588990D01*
X59542509Y-107659458D01*
X59515931Y-107698595D01*
X59351947Y-107862579D01*
X59289635Y-107896605D01*
X59234402Y-107896230D01*
X59140296Y-107874418D01*
X59140290Y-107874417D01*
X59135954Y-107873412D01*
X58859767Y-107849492D01*
X58855332Y-107849736D01*
X58855328Y-107849736D01*
X58742885Y-107855924D01*
X58582965Y-107864725D01*
X58311071Y-107918809D01*
X58189395Y-107961538D01*
X58053716Y-108009184D01*
X58053708Y-108009187D01*
X58049509Y-108010662D01*
X58045556Y-108012715D01*
X58045550Y-108012718D01*
X57996471Y-108038213D01*
X57803500Y-108138454D01*
X57799885Y-108141037D01*
X57799879Y-108141041D01*
X57657374Y-108242877D01*
X57577951Y-108299634D01*
X57377362Y-108490986D01*
X57374606Y-108494482D01*
X57374605Y-108494483D01*
X57348731Y-108527304D01*
X57205736Y-108708692D01*
X57203499Y-108712544D01*
X57068732Y-108944562D01*
X57068729Y-108944568D01*
X57066498Y-108948409D01*
X56962425Y-109205353D01*
X56961354Y-109209666D01*
X56961352Y-109209671D01*
X56930493Y-109333904D01*
X56895594Y-109474397D01*
X56867338Y-109750174D01*
X56878222Y-110027181D01*
X56928028Y-110299891D01*
X57015762Y-110562863D01*
X57139674Y-110810849D01*
X57297291Y-111038902D01*
X57485468Y-111242472D01*
X57488922Y-111245284D01*
X57696995Y-111414682D01*
X57696999Y-111414685D01*
X57700452Y-111417496D01*
X57704274Y-111419797D01*
X57759429Y-111453003D01*
X57807472Y-111505274D01*
X57820440Y-111560949D01*
X57820440Y-112262684D01*
X57800438Y-112330805D01*
X57767699Y-112365198D01*
X57666540Y-112437487D01*
X57581572Y-112498206D01*
X57581569Y-112498209D01*
X57577951Y-112500794D01*
X57538815Y-112538128D01*
X57418984Y-112652441D01*
X57377362Y-112692146D01*
X57205736Y-112909852D01*
X57203499Y-112913704D01*
X57068732Y-113145722D01*
X57068729Y-113145728D01*
X57066498Y-113149569D01*
X56962425Y-113406513D01*
X56961354Y-113410826D01*
X56961352Y-113410831D01*
X56915045Y-113597251D01*
X56895594Y-113675557D01*
X56867338Y-113951334D01*
X56878222Y-114228341D01*
X56928028Y-114501051D01*
X57015762Y-114764023D01*
X57139674Y-115012009D01*
X57297291Y-115240062D01*
X57485468Y-115443632D01*
X57488922Y-115446444D01*
X57696995Y-115615842D01*
X57696999Y-115615845D01*
X57700452Y-115618656D01*
X57704274Y-115620957D01*
X57759429Y-115654163D01*
X57807472Y-115706434D01*
X57820440Y-115762109D01*
X57820440Y-116461304D01*
X57800438Y-116529425D01*
X57767699Y-116563818D01*
X57666540Y-116636107D01*
X57581572Y-116696826D01*
X57581569Y-116696829D01*
X57577951Y-116699414D01*
X57377362Y-116890766D01*
X57205736Y-117108472D01*
X57203499Y-117112324D01*
X57068732Y-117344342D01*
X57068729Y-117344348D01*
X57066498Y-117348189D01*
X56962425Y-117605133D01*
X56961354Y-117609446D01*
X56961352Y-117609451D01*
X56915045Y-117795871D01*
X56895594Y-117874177D01*
X56867338Y-118149954D01*
X53594000Y-118149954D01*
X53594000Y-103378000D01*
X50672000Y-103378000D01*
X50603879Y-103357998D01*
X50557386Y-103304342D01*
X50546000Y-103252000D01*
X50546000Y-102964727D01*
X57641420Y-102964727D01*
X57648810Y-102975029D01*
X57697283Y-103014492D01*
X57704562Y-103019607D01*
X57934360Y-103157957D01*
X57942284Y-103161994D01*
X58189289Y-103266588D01*
X58197694Y-103269466D01*
X58456983Y-103338214D01*
X58465704Y-103339878D01*
X58732098Y-103371408D01*
X58740963Y-103371826D01*
X59009128Y-103365506D01*
X59017988Y-103364669D01*
X59282574Y-103320630D01*
X59291231Y-103318551D01*
X59546980Y-103237669D01*
X59555241Y-103234398D01*
X59797045Y-103118285D01*
X59804770Y-103113879D01*
X60009587Y-102977025D01*
X60017875Y-102967107D01*
X60010618Y-102952928D01*
X58841752Y-101784062D01*
X58827808Y-101776448D01*
X58825975Y-101776579D01*
X58819360Y-101780830D01*
X57648586Y-102951604D01*
X57641420Y-102964727D01*
X50546000Y-102964727D01*
X50546000Y-101354862D01*
X56868014Y-101354862D01*
X56878545Y-101622897D01*
X56879520Y-101631726D01*
X56927713Y-101895607D01*
X56929922Y-101904209D01*
X57014814Y-102158662D01*
X57018218Y-102166880D01*
X57138116Y-102406834D01*
X57142634Y-102414473D01*
X57265019Y-102591551D01*
X57275337Y-102599902D01*
X57288992Y-102592778D01*
X58456918Y-101424852D01*
X58464532Y-101410908D01*
X58464401Y-101409075D01*
X58460150Y-101402460D01*
X57289817Y-100232127D01*
X57276977Y-100225116D01*
X57266285Y-100232913D01*
X57208910Y-100305694D01*
X57203915Y-100313043D01*
X57069179Y-100545008D01*
X57065280Y-100552966D01*
X56964575Y-100801594D01*
X56961826Y-100810056D01*
X56897163Y-101070376D01*
X56895634Y-101079137D01*
X56868293Y-101345979D01*
X56868014Y-101354862D01*
X50546000Y-101354862D01*
X50546000Y-99859552D01*
X57641807Y-99859552D01*
X57648787Y-99872677D01*
X58816128Y-101040018D01*
X58830072Y-101047632D01*
X58831905Y-101047501D01*
X58838520Y-101043250D01*
X60008755Y-99873015D01*
X60015609Y-99860463D01*
X60007402Y-99849393D01*
X59909702Y-99774830D01*
X59902277Y-99769953D01*
X59668238Y-99638885D01*
X59660185Y-99635096D01*
X59410022Y-99538315D01*
X59401532Y-99535703D01*
X59140214Y-99475133D01*
X59131436Y-99473743D01*
X58864191Y-99450597D01*
X58855320Y-99450457D01*
X58587471Y-99465198D01*
X58578661Y-99466312D01*
X58315575Y-99518642D01*
X58307000Y-99520988D01*
X58053916Y-99609864D01*
X58045749Y-99613398D01*
X57807713Y-99737049D01*
X57800141Y-99741689D01*
X57650210Y-99848830D01*
X57641807Y-99859552D01*
X50546000Y-99859552D01*
X50546000Y-98768647D01*
X57641420Y-98768647D01*
X57648810Y-98778949D01*
X57697283Y-98818412D01*
X57704562Y-98823527D01*
X57934360Y-98961877D01*
X57942284Y-98965914D01*
X58189289Y-99070508D01*
X58197694Y-99073386D01*
X58456983Y-99142134D01*
X58465704Y-99143798D01*
X58732098Y-99175328D01*
X58740963Y-99175746D01*
X59009128Y-99169426D01*
X59017988Y-99168589D01*
X59282574Y-99124550D01*
X59291231Y-99122471D01*
X59546980Y-99041589D01*
X59555241Y-99038318D01*
X59797045Y-98922205D01*
X59804770Y-98917799D01*
X60009587Y-98780945D01*
X60017875Y-98771027D01*
X60010618Y-98756848D01*
X58841752Y-97587982D01*
X58827808Y-97580368D01*
X58825975Y-97580499D01*
X58819360Y-97584750D01*
X57648586Y-98755524D01*
X57641420Y-98768647D01*
X50546000Y-98768647D01*
X50546000Y-97158782D01*
X56868014Y-97158782D01*
X56878545Y-97426817D01*
X56879520Y-97435646D01*
X56927713Y-97699527D01*
X56929922Y-97708129D01*
X57014814Y-97962582D01*
X57018218Y-97970800D01*
X57138116Y-98210754D01*
X57142634Y-98218393D01*
X57265019Y-98395471D01*
X57275337Y-98403822D01*
X57288992Y-98396698D01*
X58456918Y-97228772D01*
X58463296Y-97217092D01*
X59193348Y-97217092D01*
X59193479Y-97218925D01*
X59197730Y-97225540D01*
X60369286Y-98397096D01*
X60382686Y-98404413D01*
X60392591Y-98397426D01*
X60413422Y-98372643D01*
X60418642Y-98365458D01*
X60560595Y-98137845D01*
X60564747Y-98130005D01*
X60673215Y-97884654D01*
X60676221Y-97876304D01*
X60749034Y-97618128D01*
X60750835Y-97609435D01*
X60786710Y-97342341D01*
X60787238Y-97335948D01*
X60790908Y-97219182D01*
X60790781Y-97212739D01*
X60771750Y-96943951D01*
X60770497Y-96935148D01*
X60714039Y-96672912D01*
X60711560Y-96664379D01*
X60618717Y-96412717D01*
X60615062Y-96404622D01*
X60487686Y-96168553D01*
X60482924Y-96161048D01*
X60391787Y-96037658D01*
X60380662Y-96029218D01*
X60368066Y-96036044D01*
X59200962Y-97203148D01*
X59193348Y-97217092D01*
X58463296Y-97217092D01*
X58464532Y-97214828D01*
X58464401Y-97212995D01*
X58460150Y-97206380D01*
X57289817Y-96036047D01*
X57276977Y-96029036D01*
X57266285Y-96036833D01*
X57208910Y-96109614D01*
X57203915Y-96116963D01*
X57069179Y-96348928D01*
X57065280Y-96356886D01*
X56964575Y-96605514D01*
X56961826Y-96613976D01*
X56897163Y-96874296D01*
X56895634Y-96883057D01*
X56868293Y-97149899D01*
X56868014Y-97158782D01*
X50546000Y-97158782D01*
X50546000Y-95663472D01*
X57641807Y-95663472D01*
X57648787Y-95676597D01*
X58816128Y-96843938D01*
X58830072Y-96851552D01*
X58831905Y-96851421D01*
X58838520Y-96847170D01*
X60008755Y-95676935D01*
X60015609Y-95664383D01*
X60007402Y-95653313D01*
X59909702Y-95578750D01*
X59902277Y-95573873D01*
X59668238Y-95442805D01*
X59660185Y-95439016D01*
X59410022Y-95342235D01*
X59401532Y-95339623D01*
X59140214Y-95279053D01*
X59131436Y-95277663D01*
X58864191Y-95254517D01*
X58855320Y-95254377D01*
X58587471Y-95269118D01*
X58578661Y-95270232D01*
X58315575Y-95322562D01*
X58307000Y-95324908D01*
X58053916Y-95413784D01*
X58045749Y-95417318D01*
X57807713Y-95540969D01*
X57800141Y-95545609D01*
X57650210Y-95652750D01*
X57641807Y-95663472D01*
X50546000Y-95663472D01*
X50546000Y-94567487D01*
X57641420Y-94567487D01*
X57648810Y-94577789D01*
X57697283Y-94617252D01*
X57704562Y-94622367D01*
X57934360Y-94760717D01*
X57942284Y-94764754D01*
X58189289Y-94869348D01*
X58197694Y-94872226D01*
X58456983Y-94940974D01*
X58465704Y-94942638D01*
X58732098Y-94974168D01*
X58740963Y-94974586D01*
X59009128Y-94968266D01*
X59017988Y-94967429D01*
X59282574Y-94923390D01*
X59291231Y-94921311D01*
X59546980Y-94840429D01*
X59555241Y-94837158D01*
X59797045Y-94721045D01*
X59804770Y-94716639D01*
X60009587Y-94579785D01*
X60017875Y-94569867D01*
X60010618Y-94555688D01*
X58841752Y-93386822D01*
X58827808Y-93379208D01*
X58825975Y-93379339D01*
X58819360Y-93383590D01*
X57648586Y-94554364D01*
X57641420Y-94567487D01*
X50546000Y-94567487D01*
X50546000Y-92957622D01*
X56868014Y-92957622D01*
X56878545Y-93225657D01*
X56879520Y-93234486D01*
X56927713Y-93498367D01*
X56929922Y-93506969D01*
X57014814Y-93761422D01*
X57018218Y-93769640D01*
X57138116Y-94009594D01*
X57142634Y-94017233D01*
X57265019Y-94194311D01*
X57275337Y-94202662D01*
X57288992Y-94195538D01*
X58456918Y-93027612D01*
X58463296Y-93015932D01*
X59193348Y-93015932D01*
X59193479Y-93017765D01*
X59197730Y-93024380D01*
X60369286Y-94195936D01*
X60382686Y-94203253D01*
X60392591Y-94196266D01*
X60413422Y-94171483D01*
X60418642Y-94164298D01*
X60560595Y-93936685D01*
X60564747Y-93928845D01*
X60673215Y-93683494D01*
X60676221Y-93675144D01*
X60749034Y-93416968D01*
X60750835Y-93408275D01*
X60786710Y-93141181D01*
X60787238Y-93134788D01*
X60790908Y-93018022D01*
X60790781Y-93011579D01*
X60786961Y-92957622D01*
X62367114Y-92957622D01*
X62377645Y-93225657D01*
X62378620Y-93234486D01*
X62426813Y-93498367D01*
X62429022Y-93506969D01*
X62513914Y-93761422D01*
X62517318Y-93769640D01*
X62637216Y-94009594D01*
X62641734Y-94017233D01*
X62764119Y-94194311D01*
X62774437Y-94202662D01*
X62788092Y-94195538D01*
X63956018Y-93027612D01*
X63963632Y-93013668D01*
X63963501Y-93011835D01*
X63959250Y-93005220D01*
X62788917Y-91834887D01*
X62776077Y-91827876D01*
X62765385Y-91835673D01*
X62708010Y-91908454D01*
X62703015Y-91915803D01*
X62568279Y-92147768D01*
X62564380Y-92155726D01*
X62463675Y-92404354D01*
X62460926Y-92412816D01*
X62396263Y-92673136D01*
X62394734Y-92681897D01*
X62367393Y-92948739D01*
X62367114Y-92957622D01*
X60786961Y-92957622D01*
X60771750Y-92742791D01*
X60770497Y-92733988D01*
X60714039Y-92471752D01*
X60711560Y-92463219D01*
X60618717Y-92211557D01*
X60615062Y-92203462D01*
X60487686Y-91967393D01*
X60482924Y-91959888D01*
X60391787Y-91836498D01*
X60380662Y-91828058D01*
X60368066Y-91834884D01*
X59200962Y-93001988D01*
X59193348Y-93015932D01*
X58463296Y-93015932D01*
X58464532Y-93013668D01*
X58464401Y-93011835D01*
X58460150Y-93005220D01*
X57289817Y-91834887D01*
X57276977Y-91827876D01*
X57266285Y-91835673D01*
X57208910Y-91908454D01*
X57203915Y-91915803D01*
X57069179Y-92147768D01*
X57065280Y-92155726D01*
X56964575Y-92404354D01*
X56961826Y-92412816D01*
X56897163Y-92673136D01*
X56895634Y-92681897D01*
X56868293Y-92948739D01*
X56868014Y-92957622D01*
X50546000Y-92957622D01*
X50546000Y-91462312D01*
X57641807Y-91462312D01*
X57648787Y-91475437D01*
X58816128Y-92642778D01*
X58830072Y-92650392D01*
X58831905Y-92650261D01*
X58838520Y-92646010D01*
X60008755Y-91475775D01*
X60015609Y-91463223D01*
X60007402Y-91452153D01*
X59909702Y-91377590D01*
X59902277Y-91372713D01*
X59668238Y-91241645D01*
X59660185Y-91237856D01*
X59410022Y-91141075D01*
X59401532Y-91138463D01*
X59140214Y-91077893D01*
X59131436Y-91076503D01*
X58864191Y-91053357D01*
X58855320Y-91053217D01*
X58587471Y-91067958D01*
X58578661Y-91069072D01*
X58315575Y-91121402D01*
X58307000Y-91123748D01*
X58053916Y-91212624D01*
X58045749Y-91216158D01*
X57807713Y-91339809D01*
X57800141Y-91344449D01*
X57650210Y-91451590D01*
X57641807Y-91462312D01*
X50546000Y-91462312D01*
X50546000Y-86167707D01*
X57641420Y-86167707D01*
X57648810Y-86178009D01*
X57697283Y-86217472D01*
X57704562Y-86222587D01*
X57934360Y-86360937D01*
X57942284Y-86364974D01*
X58189289Y-86469568D01*
X58197694Y-86472446D01*
X58456983Y-86541194D01*
X58465704Y-86542858D01*
X58732098Y-86574388D01*
X58740963Y-86574806D01*
X59009128Y-86568486D01*
X59017988Y-86567649D01*
X59282574Y-86523610D01*
X59291231Y-86521531D01*
X59546980Y-86440649D01*
X59555241Y-86437378D01*
X59797045Y-86321265D01*
X59804770Y-86316859D01*
X60009587Y-86180005D01*
X60017875Y-86170087D01*
X60010618Y-86155908D01*
X58841752Y-84987042D01*
X58827808Y-84979428D01*
X58825975Y-84979559D01*
X58819360Y-84983810D01*
X57648586Y-86154584D01*
X57641420Y-86167707D01*
X50546000Y-86167707D01*
X50546000Y-85216000D01*
X50566002Y-85147879D01*
X50619658Y-85101386D01*
X50672000Y-85090000D01*
X53594000Y-85090000D01*
X53594000Y-84557842D01*
X56868014Y-84557842D01*
X56878545Y-84825877D01*
X56879520Y-84834706D01*
X56927713Y-85098587D01*
X56929922Y-85107189D01*
X57014814Y-85361642D01*
X57018218Y-85369860D01*
X57138116Y-85609814D01*
X57142634Y-85617453D01*
X57265019Y-85794531D01*
X57275337Y-85802882D01*
X57288992Y-85795758D01*
X58456918Y-84627832D01*
X58464532Y-84613888D01*
X58464401Y-84612055D01*
X58460150Y-84605440D01*
X57289817Y-83435107D01*
X57276977Y-83428096D01*
X57266285Y-83435893D01*
X57208910Y-83508674D01*
X57203915Y-83516023D01*
X57069179Y-83747988D01*
X57065280Y-83755946D01*
X56964575Y-84004574D01*
X56961826Y-84013036D01*
X56897163Y-84273356D01*
X56895634Y-84282117D01*
X56868293Y-84548959D01*
X56868014Y-84557842D01*
X53594000Y-84557842D01*
X53594000Y-83062532D01*
X57641807Y-83062532D01*
X57648787Y-83075657D01*
X58816128Y-84242998D01*
X58830072Y-84250612D01*
X58831905Y-84250481D01*
X58838520Y-84246230D01*
X60008755Y-83075995D01*
X60015609Y-83063443D01*
X60007402Y-83052373D01*
X59909702Y-82977810D01*
X59902277Y-82972933D01*
X59668238Y-82841865D01*
X59660185Y-82838076D01*
X59410022Y-82741295D01*
X59401532Y-82738683D01*
X59140214Y-82678113D01*
X59131436Y-82676723D01*
X58864191Y-82653577D01*
X58855320Y-82653437D01*
X58587471Y-82668178D01*
X58578661Y-82669292D01*
X58315575Y-82721622D01*
X58307000Y-82723968D01*
X58053916Y-82812844D01*
X58045749Y-82816378D01*
X57807713Y-82940029D01*
X57800141Y-82944669D01*
X57650210Y-83051810D01*
X57641807Y-83062532D01*
X53594000Y-83062532D01*
X53594000Y-71694871D01*
X53614002Y-71626750D01*
X53630905Y-71605776D01*
X58201401Y-67035280D01*
X58263713Y-67001254D01*
X58334528Y-67006319D01*
X58386307Y-67042545D01*
X58521818Y-67201208D01*
X58521823Y-67201213D01*
X58525031Y-67204969D01*
X58705584Y-67359176D01*
X58709792Y-67361755D01*
X58709798Y-67361759D01*
X58903817Y-67480654D01*
X58908037Y-67483240D01*
X58912607Y-67485133D01*
X58912611Y-67485135D01*
X59111549Y-67567537D01*
X59127406Y-67574105D01*
X59207609Y-67593360D01*
X59353476Y-67628380D01*
X59353482Y-67628381D01*
X59358289Y-67629535D01*
X59595000Y-67648165D01*
X59831711Y-67629535D01*
X59836518Y-67628381D01*
X59836524Y-67628380D01*
X59982391Y-67593360D01*
X60062594Y-67574105D01*
X60078451Y-67567537D01*
X60277389Y-67485135D01*
X60277393Y-67485133D01*
X60281963Y-67483240D01*
X60286183Y-67480654D01*
X60480202Y-67361759D01*
X60480208Y-67361755D01*
X60484416Y-67359176D01*
X60664969Y-67204969D01*
X60819176Y-67024416D01*
X60821755Y-67020208D01*
X60821759Y-67020202D01*
X60940654Y-66826183D01*
X60943240Y-66821963D01*
X60950814Y-66803679D01*
X61032211Y-66607167D01*
X61032212Y-66607165D01*
X61034105Y-66602594D01*
X61059274Y-66497757D01*
X61088380Y-66376524D01*
X61088381Y-66376518D01*
X61089535Y-66371711D01*
X61108165Y-66135000D01*
X61089535Y-65898289D01*
X61081213Y-65863622D01*
X61035260Y-65672218D01*
X61034105Y-65667406D01*
X61020936Y-65635613D01*
X60945135Y-65452611D01*
X60945133Y-65452607D01*
X60943240Y-65448037D01*
X60940654Y-65443817D01*
X60821759Y-65249798D01*
X60821755Y-65249792D01*
X60819176Y-65245584D01*
X60664969Y-65065031D01*
X60661213Y-65061823D01*
X60661208Y-65061818D01*
X60508384Y-64931294D01*
X60469574Y-64871844D01*
X60467360Y-64837442D01*
X60459123Y-64818333D01*
X59324885Y-63684095D01*
X59290859Y-63621783D01*
X59292694Y-63596132D01*
X59959408Y-63596132D01*
X59959539Y-63597965D01*
X59963790Y-63604580D01*
X60815290Y-64456080D01*
X60827670Y-64462840D01*
X60835320Y-64457113D01*
X60940205Y-64285958D01*
X60944687Y-64277163D01*
X61031734Y-64067012D01*
X61034783Y-64057627D01*
X61087885Y-63836446D01*
X61089428Y-63826699D01*
X61107275Y-63599930D01*
X61107275Y-63590070D01*
X61089428Y-63363301D01*
X61087885Y-63353554D01*
X61034783Y-63132373D01*
X61031734Y-63122988D01*
X60944687Y-62912837D01*
X60940205Y-62904042D01*
X60837568Y-62736555D01*
X60827110Y-62727093D01*
X60818334Y-62730876D01*
X59967022Y-63582188D01*
X59959408Y-63596132D01*
X59292694Y-63596132D01*
X59295924Y-63550968D01*
X59324885Y-63505905D01*
X60456080Y-62374710D01*
X60465260Y-62357898D01*
X60479020Y-62294650D01*
X60507776Y-62259225D01*
X60661213Y-62128177D01*
X60664969Y-62124969D01*
X60819176Y-61944416D01*
X60821755Y-61940208D01*
X60821759Y-61940202D01*
X60940654Y-61746183D01*
X60943240Y-61741963D01*
X61034105Y-61522594D01*
X61089535Y-61291711D01*
X61103514Y-61114101D01*
X66080576Y-61114101D01*
X66087644Y-61127547D01*
X66789188Y-61829091D01*
X66803132Y-61836705D01*
X66804965Y-61836574D01*
X66811580Y-61832323D01*
X67517077Y-61126826D01*
X67523507Y-61115051D01*
X67514211Y-61103036D01*
X67463006Y-61067182D01*
X67453511Y-61061699D01*
X67256053Y-60969623D01*
X67245761Y-60965877D01*
X67035312Y-60909488D01*
X67024519Y-60907585D01*
X66807475Y-60888596D01*
X66796525Y-60888596D01*
X66579481Y-60907585D01*
X66568688Y-60909488D01*
X66358239Y-60965877D01*
X66347947Y-60969623D01*
X66150489Y-61061699D01*
X66140994Y-61067182D01*
X66088952Y-61103622D01*
X66080576Y-61114101D01*
X61103514Y-61114101D01*
X61108165Y-61055000D01*
X61089535Y-60818289D01*
X61088381Y-60813482D01*
X61088380Y-60813476D01*
X61070164Y-60737602D01*
X61073711Y-60666694D01*
X61103588Y-60619093D01*
X65047276Y-56675405D01*
X65109588Y-56641379D01*
X65136371Y-56638500D01*
X65370709Y-56638500D01*
X65438830Y-56658502D01*
X65485323Y-56712158D01*
X65495972Y-56750892D01*
X65500255Y-56790316D01*
X65551385Y-56926705D01*
X65638739Y-57043261D01*
X65755295Y-57130615D01*
X65891684Y-57181745D01*
X65953866Y-57188500D01*
X67650134Y-57188500D01*
X67712316Y-57181745D01*
X67848705Y-57130615D01*
X67965261Y-57043261D01*
X68052615Y-56926705D01*
X68103745Y-56790316D01*
X68110500Y-56728134D01*
X68110500Y-55031866D01*
X68103745Y-54969684D01*
X68052615Y-54833295D01*
X67977117Y-54732558D01*
X67970645Y-54723922D01*
X67970642Y-54723919D01*
X67965261Y-54716739D01*
X67958081Y-54711358D01*
X67951730Y-54705007D01*
X67953872Y-54702865D01*
X67920436Y-54658154D01*
X67915406Y-54587336D01*
X67933523Y-54545965D01*
X67933182Y-54545768D01*
X67934952Y-54542702D01*
X67935299Y-54541910D01*
X67935929Y-54541011D01*
X67941414Y-54531511D01*
X68033490Y-54334053D01*
X68037236Y-54323761D01*
X68093625Y-54113312D01*
X68095528Y-54102519D01*
X68114517Y-53885475D01*
X68114517Y-53874525D01*
X68095528Y-53657481D01*
X68093625Y-53646688D01*
X68037236Y-53436239D01*
X68033490Y-53425947D01*
X67941414Y-53228489D01*
X67935931Y-53218994D01*
X67899491Y-53166952D01*
X67889012Y-53158576D01*
X67875566Y-53165644D01*
X66891095Y-54150115D01*
X66828783Y-54184141D01*
X66757968Y-54179076D01*
X66712905Y-54150115D01*
X65727713Y-53164923D01*
X65715938Y-53158493D01*
X65703923Y-53167789D01*
X65668069Y-53218994D01*
X65662586Y-53228489D01*
X65570510Y-53425947D01*
X65566764Y-53436239D01*
X65510375Y-53646688D01*
X65508472Y-53657481D01*
X65489483Y-53874525D01*
X65489483Y-53885475D01*
X65508472Y-54102519D01*
X65510375Y-54113312D01*
X65566764Y-54323761D01*
X65570510Y-54334053D01*
X65662586Y-54531511D01*
X65668071Y-54541011D01*
X65668701Y-54541910D01*
X65668856Y-54542370D01*
X65670818Y-54545768D01*
X65670135Y-54546162D01*
X65691388Y-54609184D01*
X65674102Y-54678044D01*
X65651066Y-54703803D01*
X65652270Y-54705007D01*
X65645919Y-54711358D01*
X65638739Y-54716739D01*
X65633358Y-54723919D01*
X65633355Y-54723922D01*
X65626883Y-54732558D01*
X65551385Y-54833295D01*
X65500255Y-54969684D01*
X65499402Y-54977540D01*
X65495972Y-55009108D01*
X65468730Y-55074670D01*
X65410366Y-55115096D01*
X65370709Y-55121500D01*
X64837069Y-55121500D01*
X64818121Y-55120067D01*
X64810780Y-55118950D01*
X64803883Y-55117901D01*
X64803881Y-55117901D01*
X64796651Y-55116801D01*
X64789359Y-55117394D01*
X64789356Y-55117394D01*
X64743982Y-55121085D01*
X64733767Y-55121500D01*
X64725707Y-55121500D01*
X64712417Y-55123049D01*
X64697493Y-55124789D01*
X64693118Y-55125222D01*
X64627661Y-55130546D01*
X64627658Y-55130547D01*
X64620363Y-55131140D01*
X64613399Y-55133396D01*
X64607440Y-55134587D01*
X64601585Y-55135971D01*
X64594319Y-55136818D01*
X64525673Y-55161735D01*
X64521545Y-55163152D01*
X64459064Y-55183393D01*
X64459062Y-55183394D01*
X64452101Y-55185649D01*
X64445846Y-55189445D01*
X64440372Y-55191951D01*
X64434942Y-55194670D01*
X64428063Y-55197167D01*
X64421943Y-55201180D01*
X64421942Y-55201180D01*
X64367024Y-55237186D01*
X64363320Y-55239523D01*
X64300893Y-55277405D01*
X64292516Y-55284803D01*
X64292492Y-55284776D01*
X64289500Y-55287429D01*
X64286267Y-55290132D01*
X64280148Y-55294144D01*
X64275116Y-55299456D01*
X64226872Y-55350383D01*
X64224494Y-55352825D01*
X60030907Y-59546412D01*
X59968595Y-59580438D01*
X59912398Y-59579836D01*
X59836524Y-59561620D01*
X59836518Y-59561619D01*
X59831711Y-59560465D01*
X59595000Y-59541835D01*
X59358289Y-59560465D01*
X59353482Y-59561619D01*
X59353476Y-59561620D01*
X59208988Y-59596309D01*
X59127406Y-59615895D01*
X59122835Y-59617788D01*
X59122833Y-59617789D01*
X58912611Y-59704865D01*
X58912607Y-59704867D01*
X58908037Y-59706760D01*
X58903817Y-59709346D01*
X58709798Y-59828241D01*
X58709792Y-59828245D01*
X58705584Y-59830824D01*
X58525031Y-59985031D01*
X58370824Y-60165584D01*
X58368245Y-60169792D01*
X58368241Y-60169798D01*
X58249346Y-60363817D01*
X58246760Y-60368037D01*
X58244867Y-60372607D01*
X58244865Y-60372611D01*
X58173297Y-60545393D01*
X58155895Y-60587406D01*
X58100465Y-60818289D01*
X58081835Y-61055000D01*
X58100465Y-61291711D01*
X58101619Y-61296518D01*
X58101620Y-61296524D01*
X58119836Y-61372398D01*
X58116289Y-61443306D01*
X58086412Y-61490907D01*
X57656089Y-61921230D01*
X57641677Y-61933616D01*
X57630082Y-61942149D01*
X57630077Y-61942154D01*
X57624182Y-61946492D01*
X57619443Y-61952070D01*
X57619440Y-61952073D01*
X57589965Y-61986768D01*
X57583035Y-61994284D01*
X57577340Y-61999979D01*
X57575060Y-62002861D01*
X57559719Y-62022251D01*
X57556928Y-62025655D01*
X57514409Y-62075703D01*
X57509667Y-62081285D01*
X57506339Y-62087801D01*
X57502972Y-62092850D01*
X57499805Y-62097979D01*
X57495266Y-62103716D01*
X57464345Y-62169875D01*
X57462442Y-62173769D01*
X57429231Y-62238808D01*
X57427492Y-62245916D01*
X57425393Y-62251559D01*
X57423476Y-62257322D01*
X57420378Y-62263950D01*
X57418888Y-62271112D01*
X57418888Y-62271113D01*
X57405514Y-62335412D01*
X57404544Y-62339696D01*
X57387192Y-62410610D01*
X57386500Y-62421764D01*
X57386464Y-62421762D01*
X57386225Y-62425755D01*
X57385851Y-62429947D01*
X57384360Y-62437115D01*
X57384558Y-62444432D01*
X57386454Y-62514521D01*
X57386500Y-62517928D01*
X57386500Y-65652629D01*
X57366498Y-65720750D01*
X57349595Y-65741724D01*
X53809095Y-69282224D01*
X53746783Y-69316250D01*
X53675968Y-69311185D01*
X53619132Y-69268638D01*
X53594321Y-69202118D01*
X53594000Y-69193129D01*
X53594000Y-67437000D01*
X50799000Y-67437000D01*
X50730879Y-67416998D01*
X50684386Y-67363342D01*
X50673000Y-67311000D01*
X50673000Y-65150000D01*
X50693002Y-65081879D01*
X50746658Y-65035386D01*
X50799000Y-65024000D01*
X53594000Y-65024000D01*
X53594000Y-59436000D01*
X50799000Y-59436000D01*
X50730879Y-59415998D01*
X50684386Y-59362342D01*
X50673000Y-59310000D01*
X50673000Y-57207670D01*
X58727160Y-57207670D01*
X58732887Y-57215320D01*
X58904042Y-57320205D01*
X58912837Y-57324687D01*
X59122988Y-57411734D01*
X59132373Y-57414783D01*
X59353554Y-57467885D01*
X59363301Y-57469428D01*
X59590070Y-57487275D01*
X59599930Y-57487275D01*
X59826699Y-57469428D01*
X59836446Y-57467885D01*
X60057627Y-57414783D01*
X60067012Y-57411734D01*
X60277163Y-57324687D01*
X60285958Y-57320205D01*
X60453445Y-57217568D01*
X60462907Y-57207110D01*
X60459124Y-57198334D01*
X59607812Y-56347022D01*
X59593868Y-56339408D01*
X59592035Y-56339539D01*
X59585420Y-56343790D01*
X58733920Y-57195290D01*
X58727160Y-57207670D01*
X50673000Y-57207670D01*
X50673000Y-57149000D01*
X50693002Y-57080879D01*
X50746658Y-57034386D01*
X50799000Y-57023000D01*
X53594000Y-57023000D01*
X53594000Y-55979930D01*
X58082725Y-55979930D01*
X58100572Y-56206699D01*
X58102115Y-56216446D01*
X58155217Y-56437627D01*
X58158266Y-56447012D01*
X58245313Y-56657163D01*
X58249795Y-56665958D01*
X58352432Y-56833445D01*
X58362890Y-56842907D01*
X58371666Y-56839124D01*
X59222978Y-55987812D01*
X59229356Y-55976132D01*
X59959408Y-55976132D01*
X59959539Y-55977965D01*
X59963790Y-55984580D01*
X60815290Y-56836080D01*
X60827670Y-56842840D01*
X60835320Y-56837113D01*
X60940205Y-56665958D01*
X60944687Y-56657163D01*
X61031734Y-56447012D01*
X61034783Y-56437627D01*
X61087885Y-56216446D01*
X61089428Y-56206699D01*
X61107275Y-55979930D01*
X61107275Y-55970070D01*
X61089428Y-55743301D01*
X61087885Y-55733554D01*
X61034783Y-55512373D01*
X61031734Y-55502988D01*
X60944687Y-55292837D01*
X60940205Y-55284042D01*
X60837568Y-55116555D01*
X60827110Y-55107093D01*
X60818334Y-55110876D01*
X59967022Y-55962188D01*
X59959408Y-55976132D01*
X59229356Y-55976132D01*
X59230592Y-55973868D01*
X59230461Y-55972035D01*
X59226210Y-55965420D01*
X58374710Y-55113920D01*
X58362330Y-55107160D01*
X58354680Y-55112887D01*
X58249795Y-55284042D01*
X58245313Y-55292837D01*
X58158266Y-55502988D01*
X58155217Y-55512373D01*
X58102115Y-55733554D01*
X58100572Y-55743301D01*
X58082725Y-55970070D01*
X58082725Y-55979930D01*
X53594000Y-55979930D01*
X53594000Y-53435000D01*
X58081835Y-53435000D01*
X58100465Y-53671711D01*
X58155895Y-53902594D01*
X58157788Y-53907165D01*
X58157789Y-53907167D01*
X58243177Y-54113312D01*
X58246760Y-54121963D01*
X58249346Y-54126183D01*
X58368241Y-54320202D01*
X58368245Y-54320208D01*
X58370824Y-54324416D01*
X58525031Y-54504969D01*
X58528787Y-54508177D01*
X58528792Y-54508182D01*
X58681616Y-54638706D01*
X58720426Y-54698156D01*
X58722640Y-54732558D01*
X58730877Y-54751667D01*
X59582188Y-55602978D01*
X59596132Y-55610592D01*
X59597965Y-55610461D01*
X59604580Y-55606210D01*
X60456080Y-54754710D01*
X60465260Y-54737898D01*
X60479020Y-54674650D01*
X60507776Y-54639225D01*
X60661213Y-54508177D01*
X60664969Y-54504969D01*
X60819176Y-54324416D01*
X60821755Y-54320208D01*
X60821759Y-54320202D01*
X60940654Y-54126183D01*
X60943240Y-54121963D01*
X60946824Y-54113312D01*
X61032211Y-53907167D01*
X61032212Y-53907165D01*
X61034105Y-53902594D01*
X61089535Y-53671711D01*
X61108165Y-53435000D01*
X61089535Y-53198289D01*
X61069320Y-53114085D01*
X61047083Y-53021464D01*
X61034105Y-52967406D01*
X61025019Y-52945470D01*
X60961860Y-52792988D01*
X66080576Y-52792988D01*
X66087644Y-52806434D01*
X66789188Y-53507978D01*
X66803132Y-53515592D01*
X66804965Y-53515461D01*
X66811580Y-53511210D01*
X67517077Y-52805713D01*
X67523507Y-52793938D01*
X67514211Y-52781923D01*
X67463006Y-52746069D01*
X67453511Y-52740586D01*
X67256053Y-52648510D01*
X67245761Y-52644764D01*
X67035312Y-52588375D01*
X67024519Y-52586472D01*
X66807475Y-52567483D01*
X66796525Y-52567483D01*
X66579481Y-52586472D01*
X66568688Y-52588375D01*
X66358239Y-52644764D01*
X66347947Y-52648510D01*
X66150489Y-52740586D01*
X66140994Y-52746069D01*
X66088952Y-52782509D01*
X66080576Y-52792988D01*
X60961860Y-52792988D01*
X60945135Y-52752611D01*
X60945133Y-52752607D01*
X60943240Y-52748037D01*
X60938674Y-52740586D01*
X60821759Y-52549798D01*
X60821755Y-52549792D01*
X60819176Y-52545584D01*
X60664969Y-52365031D01*
X60484416Y-52210824D01*
X60480208Y-52208245D01*
X60480202Y-52208241D01*
X60286183Y-52089346D01*
X60281963Y-52086760D01*
X60277393Y-52084867D01*
X60277389Y-52084865D01*
X60067167Y-51997789D01*
X60067165Y-51997788D01*
X60062594Y-51995895D01*
X59982391Y-51976640D01*
X59836524Y-51941620D01*
X59836518Y-51941619D01*
X59831711Y-51940465D01*
X59595000Y-51921835D01*
X59358289Y-51940465D01*
X59353482Y-51941619D01*
X59353476Y-51941620D01*
X59207609Y-51976640D01*
X59127406Y-51995895D01*
X59122835Y-51997788D01*
X59122833Y-51997789D01*
X58912611Y-52084865D01*
X58912607Y-52084867D01*
X58908037Y-52086760D01*
X58903817Y-52089346D01*
X58709798Y-52208241D01*
X58709792Y-52208245D01*
X58705584Y-52210824D01*
X58525031Y-52365031D01*
X58370824Y-52545584D01*
X58368245Y-52549792D01*
X58368241Y-52549798D01*
X58251326Y-52740586D01*
X58246760Y-52748037D01*
X58244867Y-52752607D01*
X58244865Y-52752611D01*
X58164981Y-52945470D01*
X58155895Y-52967406D01*
X58142917Y-53021464D01*
X58120681Y-53114085D01*
X58100465Y-53198289D01*
X58081835Y-53435000D01*
X53594000Y-53435000D01*
X53594000Y-51367282D01*
X53614002Y-51299161D01*
X53667658Y-51252668D01*
X53719991Y-51241282D01*
X77927778Y-51239520D01*
X77995900Y-51259517D01*
G37*
%TD.AperFunction*%
%TD*%
M02*
