%TF.GenerationSoftware,KiCad,Pcbnew,(6.0.8-1)-1*%
%TF.CreationDate,2022-11-01T20:59:10-05:00*%
%TF.ProjectId,VT100_ATX_DCDC,56543130-305f-4415-9458-5f444344432e,rev?*%
%TF.SameCoordinates,Original*%
%TF.FileFunction,Legend,Top*%
%TF.FilePolarity,Positive*%
%FSLAX46Y46*%
G04 Gerber Fmt 4.6, Leading zero omitted, Abs format (unit mm)*
G04 Created by KiCad (PCBNEW (6.0.8-1)-1) date 2022-11-01 20:59:10*
%MOMM*%
%LPD*%
G01*
G04 APERTURE LIST*
%ADD10C,0.150000*%
%ADD11C,0.125000*%
%ADD12C,0.127000*%
%ADD13C,0.120000*%
%ADD14C,0.203200*%
%ADD15C,0.254000*%
G04 APERTURE END LIST*
D10*
X51816000Y-115250000D02*
X51816000Y-123500000D01*
X51816000Y-93340000D02*
X51816000Y-85090000D01*
X51816000Y-103439000D02*
X51816000Y-95189000D01*
X51816000Y-113250000D02*
X51816000Y-105000000D01*
D11*
X51943047Y-81597500D02*
X51895428Y-81573690D01*
X51824000Y-81573690D01*
X51752571Y-81597500D01*
X51704952Y-81645119D01*
X51681142Y-81692738D01*
X51657333Y-81787976D01*
X51657333Y-81859404D01*
X51681142Y-81954642D01*
X51704952Y-82002261D01*
X51752571Y-82049880D01*
X51824000Y-82073690D01*
X51871619Y-82073690D01*
X51943047Y-82049880D01*
X51966857Y-82026071D01*
X51966857Y-81859404D01*
X51871619Y-81859404D01*
X52181142Y-82073690D02*
X52181142Y-81573690D01*
X52466857Y-82073690D01*
X52466857Y-81573690D01*
X52704952Y-82073690D02*
X52704952Y-81573690D01*
X52824000Y-81573690D01*
X52895428Y-81597500D01*
X52943047Y-81645119D01*
X52966857Y-81692738D01*
X52990666Y-81787976D01*
X52990666Y-81859404D01*
X52966857Y-81954642D01*
X52943047Y-82002261D01*
X52895428Y-82049880D01*
X52824000Y-82073690D01*
X52704952Y-82073690D01*
X51252571Y-83069166D02*
X51228761Y-83045357D01*
X51181142Y-82973928D01*
X51157333Y-82926309D01*
X51133523Y-82854880D01*
X51109714Y-82735833D01*
X51109714Y-82640595D01*
X51133523Y-82521547D01*
X51157333Y-82450119D01*
X51181142Y-82402500D01*
X51228761Y-82331071D01*
X51252571Y-82307261D01*
X51443047Y-82688214D02*
X51824000Y-82688214D01*
X51633523Y-82878690D02*
X51633523Y-82497738D01*
X52324000Y-82878690D02*
X52038285Y-82878690D01*
X52181142Y-82878690D02*
X52181142Y-82378690D01*
X52133523Y-82450119D01*
X52085904Y-82497738D01*
X52038285Y-82521547D01*
X52514476Y-82426309D02*
X52538285Y-82402500D01*
X52585904Y-82378690D01*
X52704952Y-82378690D01*
X52752571Y-82402500D01*
X52776380Y-82426309D01*
X52800190Y-82473928D01*
X52800190Y-82521547D01*
X52776380Y-82592976D01*
X52490666Y-82878690D01*
X52800190Y-82878690D01*
X52943047Y-82378690D02*
X53109714Y-82878690D01*
X53276380Y-82378690D01*
X53395428Y-83069166D02*
X53419238Y-83045357D01*
X53466857Y-82973928D01*
X53490666Y-82926309D01*
X53514476Y-82854880D01*
X53538285Y-82735833D01*
X53538285Y-82640595D01*
X53514476Y-82521547D01*
X53490666Y-82450119D01*
X53466857Y-82402500D01*
X53419238Y-82331071D01*
X53395428Y-82307261D01*
X51189047Y-62265714D02*
X51570000Y-62265714D01*
X51379523Y-62456190D02*
X51379523Y-62075238D01*
X52070000Y-62456190D02*
X51784285Y-62456190D01*
X51927142Y-62456190D02*
X51927142Y-61956190D01*
X51879523Y-62027619D01*
X51831904Y-62075238D01*
X51784285Y-62099047D01*
X52260476Y-62003809D02*
X52284285Y-61980000D01*
X52331904Y-61956190D01*
X52450952Y-61956190D01*
X52498571Y-61980000D01*
X52522380Y-62003809D01*
X52546190Y-62051428D01*
X52546190Y-62099047D01*
X52522380Y-62170476D01*
X52236666Y-62456190D01*
X52546190Y-62456190D01*
X52689047Y-61956190D02*
X52855714Y-62456190D01*
X53022380Y-61956190D01*
X51435047Y-93984000D02*
X51387428Y-93960190D01*
X51316000Y-93960190D01*
X51244571Y-93984000D01*
X51196952Y-94031619D01*
X51173142Y-94079238D01*
X51149333Y-94174476D01*
X51149333Y-94245904D01*
X51173142Y-94341142D01*
X51196952Y-94388761D01*
X51244571Y-94436380D01*
X51316000Y-94460190D01*
X51363619Y-94460190D01*
X51435047Y-94436380D01*
X51458857Y-94412571D01*
X51458857Y-94245904D01*
X51363619Y-94245904D01*
X51673142Y-94460190D02*
X51673142Y-93960190D01*
X51958857Y-94460190D01*
X51958857Y-93960190D01*
X52196952Y-94460190D02*
X52196952Y-93960190D01*
X52316000Y-93960190D01*
X52387428Y-93984000D01*
X52435047Y-94031619D01*
X52458857Y-94079238D01*
X52482666Y-94174476D01*
X52482666Y-94245904D01*
X52458857Y-94341142D01*
X52435047Y-94388761D01*
X52387428Y-94436380D01*
X52316000Y-94460190D01*
X52196952Y-94460190D01*
X51189047Y-54285714D02*
X51570000Y-54285714D01*
X51379523Y-54476190D02*
X51379523Y-54095238D01*
X52070000Y-54476190D02*
X51784285Y-54476190D01*
X51927142Y-54476190D02*
X51927142Y-53976190D01*
X51879523Y-54047619D01*
X51831904Y-54095238D01*
X51784285Y-54119047D01*
X52260476Y-54023809D02*
X52284285Y-54000000D01*
X52331904Y-53976190D01*
X52450952Y-53976190D01*
X52498571Y-54000000D01*
X52522380Y-54023809D01*
X52546190Y-54071428D01*
X52546190Y-54119047D01*
X52522380Y-54190476D01*
X52236666Y-54476190D01*
X52546190Y-54476190D01*
X52689047Y-53976190D02*
X52855714Y-54476190D01*
X53022380Y-53976190D01*
X51395333Y-77958190D02*
X51728666Y-78458190D01*
X51728666Y-77958190D02*
X51395333Y-78458190D01*
X51435047Y-66044000D02*
X51387428Y-66020190D01*
X51316000Y-66020190D01*
X51244571Y-66044000D01*
X51196952Y-66091619D01*
X51173142Y-66139238D01*
X51149333Y-66234476D01*
X51149333Y-66305904D01*
X51173142Y-66401142D01*
X51196952Y-66448761D01*
X51244571Y-66496380D01*
X51316000Y-66520190D01*
X51363619Y-66520190D01*
X51435047Y-66496380D01*
X51458857Y-66472571D01*
X51458857Y-66305904D01*
X51363619Y-66305904D01*
X51673142Y-66520190D02*
X51673142Y-66020190D01*
X51958857Y-66520190D01*
X51958857Y-66020190D01*
X52196952Y-66520190D02*
X52196952Y-66020190D01*
X52316000Y-66020190D01*
X52387428Y-66044000D01*
X52435047Y-66091619D01*
X52458857Y-66139238D01*
X52482666Y-66234476D01*
X52482666Y-66305904D01*
X52458857Y-66401142D01*
X52435047Y-66448761D01*
X52387428Y-66496380D01*
X52316000Y-66520190D01*
X52196952Y-66520190D01*
X51173142Y-114285714D02*
X51554095Y-114285714D01*
X51363619Y-114476190D02*
X51363619Y-114095238D01*
X52030285Y-113976190D02*
X51792190Y-113976190D01*
X51768380Y-114214285D01*
X51792190Y-114190476D01*
X51839809Y-114166666D01*
X51958857Y-114166666D01*
X52006476Y-114190476D01*
X52030285Y-114214285D01*
X52054095Y-114261904D01*
X52054095Y-114380952D01*
X52030285Y-114428571D01*
X52006476Y-114452380D01*
X51958857Y-114476190D01*
X51839809Y-114476190D01*
X51792190Y-114452380D01*
X51768380Y-114428571D01*
X52196952Y-113976190D02*
X52363619Y-114476190D01*
X52530285Y-113976190D01*
X51435047Y-58000000D02*
X51387428Y-57976190D01*
X51316000Y-57976190D01*
X51244571Y-58000000D01*
X51196952Y-58047619D01*
X51173142Y-58095238D01*
X51149333Y-58190476D01*
X51149333Y-58261904D01*
X51173142Y-58357142D01*
X51196952Y-58404761D01*
X51244571Y-58452380D01*
X51316000Y-58476190D01*
X51363619Y-58476190D01*
X51435047Y-58452380D01*
X51458857Y-58428571D01*
X51458857Y-58261904D01*
X51363619Y-58261904D01*
X51673142Y-58476190D02*
X51673142Y-57976190D01*
X51958857Y-58476190D01*
X51958857Y-57976190D01*
X52196952Y-58476190D02*
X52196952Y-57976190D01*
X52316000Y-57976190D01*
X52387428Y-58000000D01*
X52435047Y-58047619D01*
X52458857Y-58095238D01*
X52482666Y-58190476D01*
X52482666Y-58261904D01*
X52458857Y-58357142D01*
X52435047Y-58404761D01*
X52387428Y-58452380D01*
X52316000Y-58476190D01*
X52196952Y-58476190D01*
X51189047Y-74285714D02*
X51570000Y-74285714D01*
X51784285Y-74023809D02*
X51808095Y-74000000D01*
X51855714Y-73976190D01*
X51974761Y-73976190D01*
X52022380Y-74000000D01*
X52046190Y-74023809D01*
X52070000Y-74071428D01*
X52070000Y-74119047D01*
X52046190Y-74190476D01*
X51760476Y-74476190D01*
X52070000Y-74476190D01*
X52236666Y-73976190D02*
X52546190Y-73976190D01*
X52379523Y-74166666D01*
X52450952Y-74166666D01*
X52498571Y-74190476D01*
X52522380Y-74214285D01*
X52546190Y-74261904D01*
X52546190Y-74380952D01*
X52522380Y-74428571D01*
X52498571Y-74452380D01*
X52450952Y-74476190D01*
X52308095Y-74476190D01*
X52260476Y-74452380D01*
X52236666Y-74428571D01*
X52689047Y-73976190D02*
X52855714Y-74476190D01*
X53022380Y-73976190D01*
X51189047Y-70285714D02*
X51570000Y-70285714D01*
X52070000Y-70476190D02*
X51784285Y-70476190D01*
X51927142Y-70476190D02*
X51927142Y-69976190D01*
X51879523Y-70047619D01*
X51831904Y-70095238D01*
X51784285Y-70119047D01*
X52260476Y-70023809D02*
X52284285Y-70000000D01*
X52331904Y-69976190D01*
X52450952Y-69976190D01*
X52498571Y-70000000D01*
X52522380Y-70023809D01*
X52546190Y-70071428D01*
X52546190Y-70119047D01*
X52522380Y-70190476D01*
X52236666Y-70476190D01*
X52546190Y-70476190D01*
X52689047Y-69976190D02*
X52855714Y-70476190D01*
X53022380Y-69976190D01*
D10*
%TO.C,U1*%
X56427619Y-67818095D02*
X55618095Y-67818095D01*
X55522857Y-67865714D01*
X55475238Y-67913333D01*
X55427619Y-68008571D01*
X55427619Y-68199047D01*
X55475238Y-68294285D01*
X55522857Y-68341904D01*
X55618095Y-68389523D01*
X56427619Y-68389523D01*
X55427619Y-69389523D02*
X55427619Y-68818095D01*
X55427619Y-69103809D02*
X56427619Y-69103809D01*
X56284761Y-69008571D01*
X56189523Y-68913333D01*
X56141904Y-68818095D01*
D11*
X57463809Y-53577857D02*
X57463809Y-53292142D01*
X57463809Y-53435000D02*
X57963809Y-53435000D01*
X57892380Y-53387380D01*
X57844761Y-53339761D01*
X57820952Y-53292142D01*
X57963809Y-63714047D02*
X57963809Y-63475952D01*
X57725714Y-63452142D01*
X57749523Y-63475952D01*
X57773333Y-63523571D01*
X57773333Y-63642619D01*
X57749523Y-63690238D01*
X57725714Y-63714047D01*
X57678095Y-63737857D01*
X57559047Y-63737857D01*
X57511428Y-63714047D01*
X57487619Y-63690238D01*
X57463809Y-63642619D01*
X57463809Y-63523571D01*
X57487619Y-63475952D01*
X57511428Y-63452142D01*
X57963809Y-66230238D02*
X57963809Y-66135000D01*
X57940000Y-66087380D01*
X57916190Y-66063571D01*
X57844761Y-66015952D01*
X57749523Y-65992142D01*
X57559047Y-65992142D01*
X57511428Y-66015952D01*
X57487619Y-66039761D01*
X57463809Y-66087380D01*
X57463809Y-66182619D01*
X57487619Y-66230238D01*
X57511428Y-66254047D01*
X57559047Y-66277857D01*
X57678095Y-66277857D01*
X57725714Y-66254047D01*
X57749523Y-66230238D01*
X57773333Y-66182619D01*
X57773333Y-66087380D01*
X57749523Y-66039761D01*
X57725714Y-66015952D01*
X57678095Y-65992142D01*
X57797142Y-61150238D02*
X57463809Y-61150238D01*
X57987619Y-61031190D02*
X57630476Y-60912142D01*
X57630476Y-61221666D01*
X57916190Y-55832142D02*
X57940000Y-55855952D01*
X57963809Y-55903571D01*
X57963809Y-56022619D01*
X57940000Y-56070238D01*
X57916190Y-56094047D01*
X57868571Y-56117857D01*
X57820952Y-56117857D01*
X57749523Y-56094047D01*
X57463809Y-55808333D01*
X57463809Y-56117857D01*
D10*
%TO.C,C2*%
X63409142Y-63367779D02*
X63456761Y-63415398D01*
X63504380Y-63558255D01*
X63504380Y-63653493D01*
X63456761Y-63796351D01*
X63361523Y-63891589D01*
X63266285Y-63939208D01*
X63075809Y-63986827D01*
X62932952Y-63986827D01*
X62742476Y-63939208D01*
X62647238Y-63891589D01*
X62552000Y-63796351D01*
X62504380Y-63653493D01*
X62504380Y-63558255D01*
X62552000Y-63415398D01*
X62599619Y-63367779D01*
X62599619Y-62986827D02*
X62552000Y-62939208D01*
X62504380Y-62843970D01*
X62504380Y-62605874D01*
X62552000Y-62510636D01*
X62599619Y-62463017D01*
X62694857Y-62415398D01*
X62790095Y-62415398D01*
X62932952Y-62463017D01*
X63504380Y-63034446D01*
X63504380Y-62415398D01*
%TO.C,C1*%
X63409142Y-55046666D02*
X63456761Y-55094285D01*
X63504380Y-55237142D01*
X63504380Y-55332380D01*
X63456761Y-55475238D01*
X63361523Y-55570476D01*
X63266285Y-55618095D01*
X63075809Y-55665714D01*
X62932952Y-55665714D01*
X62742476Y-55618095D01*
X62647238Y-55570476D01*
X62552000Y-55475238D01*
X62504380Y-55332380D01*
X62504380Y-55237142D01*
X62552000Y-55094285D01*
X62599619Y-55046666D01*
X63504380Y-54094285D02*
X63504380Y-54665714D01*
X63504380Y-54380000D02*
X62504380Y-54380000D01*
X62647238Y-54475238D01*
X62742476Y-54570476D01*
X62790095Y-54665714D01*
D12*
%TO.C,J1*%
X77771171Y-67513200D02*
X78206600Y-67513200D01*
X78293685Y-67542228D01*
X78351742Y-67600285D01*
X78380771Y-67687371D01*
X78380771Y-67745428D01*
X78380771Y-66903600D02*
X78380771Y-67251942D01*
X78380771Y-67077771D02*
X77771171Y-67077771D01*
X77858257Y-67135828D01*
X77916314Y-67193885D01*
X77945342Y-67251942D01*
X74443771Y-71736857D02*
X73834171Y-71736857D01*
X73834171Y-71504628D01*
X73863200Y-71446571D01*
X73892228Y-71417542D01*
X73950285Y-71388514D01*
X74037371Y-71388514D01*
X74095428Y-71417542D01*
X74124457Y-71446571D01*
X74153485Y-71504628D01*
X74153485Y-71736857D01*
X74443771Y-71040171D02*
X74414742Y-71098228D01*
X74385714Y-71127257D01*
X74327657Y-71156285D01*
X74153485Y-71156285D01*
X74095428Y-71127257D01*
X74066400Y-71098228D01*
X74037371Y-71040171D01*
X74037371Y-70953085D01*
X74066400Y-70895028D01*
X74095428Y-70866000D01*
X74153485Y-70836971D01*
X74327657Y-70836971D01*
X74385714Y-70866000D01*
X74414742Y-70895028D01*
X74443771Y-70953085D01*
X74443771Y-71040171D01*
X74037371Y-70633771D02*
X74443771Y-70517657D01*
X74153485Y-70401542D01*
X74443771Y-70285428D01*
X74037371Y-70169314D01*
X74414742Y-69704857D02*
X74443771Y-69762914D01*
X74443771Y-69879028D01*
X74414742Y-69937085D01*
X74356685Y-69966114D01*
X74124457Y-69966114D01*
X74066400Y-69937085D01*
X74037371Y-69879028D01*
X74037371Y-69762914D01*
X74066400Y-69704857D01*
X74124457Y-69675828D01*
X74182514Y-69675828D01*
X74240571Y-69966114D01*
X74443771Y-69414571D02*
X74037371Y-69414571D01*
X74153485Y-69414571D02*
X74095428Y-69385542D01*
X74066400Y-69356514D01*
X74037371Y-69298457D01*
X74037371Y-69240400D01*
X74414742Y-68601771D02*
X74443771Y-68514685D01*
X74443771Y-68369542D01*
X74414742Y-68311485D01*
X74385714Y-68282457D01*
X74327657Y-68253428D01*
X74269600Y-68253428D01*
X74211542Y-68282457D01*
X74182514Y-68311485D01*
X74153485Y-68369542D01*
X74124457Y-68485657D01*
X74095428Y-68543714D01*
X74066400Y-68572742D01*
X74008342Y-68601771D01*
X73950285Y-68601771D01*
X73892228Y-68572742D01*
X73863200Y-68543714D01*
X73834171Y-68485657D01*
X73834171Y-68340514D01*
X73863200Y-68253428D01*
X74037371Y-68050228D02*
X74443771Y-67934114D01*
X74153485Y-67818000D01*
X74443771Y-67701885D01*
X74037371Y-67585771D01*
X74443771Y-67353542D02*
X74037371Y-67353542D01*
X73834171Y-67353542D02*
X73863200Y-67382571D01*
X73892228Y-67353542D01*
X73863200Y-67324514D01*
X73834171Y-67353542D01*
X73892228Y-67353542D01*
X74037371Y-67150342D02*
X74037371Y-66918114D01*
X73834171Y-67063257D02*
X74356685Y-67063257D01*
X74414742Y-67034228D01*
X74443771Y-66976171D01*
X74443771Y-66918114D01*
X74414742Y-66453657D02*
X74443771Y-66511714D01*
X74443771Y-66627828D01*
X74414742Y-66685885D01*
X74385714Y-66714914D01*
X74327657Y-66743942D01*
X74153485Y-66743942D01*
X74095428Y-66714914D01*
X74066400Y-66685885D01*
X74037371Y-66627828D01*
X74037371Y-66511714D01*
X74066400Y-66453657D01*
X74443771Y-66192400D02*
X73834171Y-66192400D01*
X74443771Y-65931142D02*
X74124457Y-65931142D01*
X74066400Y-65960171D01*
X74037371Y-66018228D01*
X74037371Y-66105314D01*
X74066400Y-66163371D01*
X74095428Y-66192400D01*
D10*
%TO.C,R1*%
X78176380Y-59087189D02*
X77700190Y-59420523D01*
X78176380Y-59658618D02*
X77176380Y-59658618D01*
X77176380Y-59277665D01*
X77224000Y-59182427D01*
X77271619Y-59134808D01*
X77366857Y-59087189D01*
X77509714Y-59087189D01*
X77604952Y-59134808D01*
X77652571Y-59182427D01*
X77700190Y-59277665D01*
X77700190Y-59658618D01*
X78176380Y-58134808D02*
X78176380Y-58706237D01*
X78176380Y-58420523D02*
X77176380Y-58420523D01*
X77319238Y-58515761D01*
X77414476Y-58610999D01*
X77462095Y-58706237D01*
D12*
%TO.C,J2*%
X61264800Y-122348171D02*
X61264800Y-122783600D01*
X61235771Y-122870685D01*
X61177714Y-122928742D01*
X61090628Y-122957771D01*
X61032571Y-122957771D01*
X61526057Y-122406228D02*
X61555085Y-122377200D01*
X61613142Y-122348171D01*
X61758285Y-122348171D01*
X61816342Y-122377200D01*
X61845371Y-122406228D01*
X61874400Y-122464285D01*
X61874400Y-122522342D01*
X61845371Y-122609428D01*
X61497028Y-122957771D01*
X61874400Y-122957771D01*
X59842400Y-78333600D02*
X60132685Y-78333600D01*
X59784342Y-78507771D02*
X59987542Y-77898171D01*
X60190742Y-78507771D01*
X60306857Y-77898171D02*
X60655200Y-77898171D01*
X60481028Y-78507771D02*
X60481028Y-77898171D01*
X60800342Y-77898171D02*
X61206742Y-78507771D01*
X61206742Y-77898171D02*
X60800342Y-78507771D01*
X61438971Y-78275542D02*
X61903428Y-78275542D01*
X62164685Y-77956228D02*
X62193714Y-77927200D01*
X62251771Y-77898171D01*
X62396914Y-77898171D01*
X62454971Y-77927200D01*
X62484000Y-77956228D01*
X62513028Y-78014285D01*
X62513028Y-78072342D01*
X62484000Y-78159428D01*
X62135657Y-78507771D01*
X62513028Y-78507771D01*
X63035542Y-78101371D02*
X63035542Y-78507771D01*
X62890400Y-77869142D02*
X62745257Y-78304571D01*
X63122628Y-78304571D01*
D13*
%TO.C,U1*%
X54515000Y-51530000D02*
X60865000Y-51530000D01*
X54515000Y-70580000D02*
X54515000Y-51530000D01*
X60865000Y-51530000D02*
X60865000Y-70580000D01*
X60865000Y-70580000D02*
X54515000Y-70580000D01*
%TO.C,C2*%
X67842000Y-61200113D02*
X68455000Y-61200113D01*
X67842000Y-61880113D02*
X69026000Y-61880113D01*
X67842000Y-63001113D02*
X69375000Y-63001113D01*
X64534000Y-61960113D02*
X65762000Y-61960113D01*
X64473000Y-62080113D02*
X65762000Y-62080113D01*
X64492000Y-62040113D02*
X65762000Y-62040113D01*
X64831000Y-61520113D02*
X65762000Y-61520113D01*
X67842000Y-61240113D02*
X68501000Y-61240113D01*
X67842000Y-61560113D02*
X68806000Y-61560113D01*
X64226000Y-63041113D02*
X65762000Y-63041113D01*
X64737000Y-61640113D02*
X65762000Y-61640113D01*
X67842000Y-63161113D02*
X69382000Y-63161113D01*
X67842000Y-62480113D02*
X69282000Y-62480113D01*
X64374000Y-62320113D02*
X65762000Y-62320113D01*
X64388000Y-62280113D02*
X65762000Y-62280113D01*
X64901000Y-61440113D02*
X65762000Y-61440113D01*
X64291000Y-62601113D02*
X65762000Y-62601113D01*
X67842000Y-62961113D02*
X69371000Y-62961113D01*
X67842000Y-62360113D02*
X69244000Y-62360113D01*
X67842000Y-62641113D02*
X69322000Y-62641113D01*
X67842000Y-61920113D02*
X69049000Y-61920113D01*
X67842000Y-61800113D02*
X68977000Y-61800113D01*
X67842000Y-63081113D02*
X69380000Y-63081113D01*
X64274000Y-62681113D02*
X65762000Y-62681113D01*
X64653000Y-61760113D02*
X65762000Y-61760113D01*
X64976000Y-61360113D02*
X65762000Y-61360113D01*
X65149000Y-61200113D02*
X65762000Y-61200113D01*
X67842000Y-62160113D02*
X69167000Y-62160113D01*
X64222000Y-63201113D02*
X65762000Y-63201113D01*
X64241000Y-62881113D02*
X65762000Y-62881113D01*
X64437000Y-62160113D02*
X65762000Y-62160113D01*
X64266000Y-62721113D02*
X65762000Y-62721113D01*
X65997000Y-60720113D02*
X67607000Y-60720113D01*
X65551000Y-60920113D02*
X68053000Y-60920113D01*
X65302000Y-61080113D02*
X68302000Y-61080113D01*
X67842000Y-62841113D02*
X69358000Y-62841113D01*
X67842000Y-62120113D02*
X69150000Y-62120113D01*
X66125000Y-60680113D02*
X67479000Y-60680113D01*
X67842000Y-61640113D02*
X68867000Y-61640113D01*
X67842000Y-61680113D02*
X68897000Y-61680113D01*
X64334000Y-62440113D02*
X65762000Y-62440113D01*
X67842000Y-62200113D02*
X69184000Y-62200113D01*
X67842000Y-62320113D02*
X69230000Y-62320113D01*
X64454000Y-62120113D02*
X65762000Y-62120113D01*
X67842000Y-61960113D02*
X69070000Y-61960113D01*
X65017000Y-61320113D02*
X65762000Y-61320113D01*
X64707000Y-61680113D02*
X65762000Y-61680113D01*
X67842000Y-62881113D02*
X69363000Y-62881113D01*
X67842000Y-62280113D02*
X69216000Y-62280113D01*
X67842000Y-62240113D02*
X69200000Y-62240113D01*
X67842000Y-63041113D02*
X69378000Y-63041113D01*
X64420000Y-62200113D02*
X65762000Y-62200113D01*
X64311000Y-62521113D02*
X65762000Y-62521113D01*
X65791000Y-60800113D02*
X67813000Y-60800113D01*
X65248000Y-61120113D02*
X68356000Y-61120113D01*
X65887000Y-60760113D02*
X67717000Y-60760113D01*
X65327000Y-66005888D02*
X65327000Y-65505888D01*
X67842000Y-63201113D02*
X69382000Y-63201113D01*
X64347000Y-62400113D02*
X65762000Y-62400113D01*
X64680000Y-61720113D02*
X65762000Y-61720113D01*
X67842000Y-62000113D02*
X69092000Y-62000113D01*
X64602000Y-61840113D02*
X65762000Y-61840113D01*
X64938000Y-61400113D02*
X65762000Y-61400113D01*
X67842000Y-61280113D02*
X68545000Y-61280113D01*
X65704000Y-60840113D02*
X67900000Y-60840113D01*
X64224000Y-63081113D02*
X65762000Y-63081113D01*
X64237000Y-62921113D02*
X65762000Y-62921113D01*
X64223000Y-63121113D02*
X65762000Y-63121113D01*
X64229000Y-63001113D02*
X65762000Y-63001113D01*
X67842000Y-61400113D02*
X68666000Y-61400113D01*
X67842000Y-62080113D02*
X69131000Y-62080113D01*
X66284000Y-60640113D02*
X67320000Y-60640113D01*
X66518000Y-60600113D02*
X67086000Y-60600113D01*
X67842000Y-62601113D02*
X69313000Y-62601113D01*
X67842000Y-61480113D02*
X68739000Y-61480113D01*
X67842000Y-62040113D02*
X69112000Y-62040113D01*
X67842000Y-62801113D02*
X69352000Y-62801113D01*
X65483000Y-60960113D02*
X68121000Y-60960113D01*
X65419000Y-61000113D02*
X68185000Y-61000113D01*
X64404000Y-62240113D02*
X65762000Y-62240113D01*
X64555000Y-61920113D02*
X65762000Y-61920113D01*
X65624000Y-60880113D02*
X67980000Y-60880113D01*
X67842000Y-61840113D02*
X69002000Y-61840113D01*
X65059000Y-61280113D02*
X65762000Y-61280113D01*
X64767000Y-61600113D02*
X65762000Y-61600113D01*
X65197000Y-61160113D02*
X68407000Y-61160113D01*
X67842000Y-61720113D02*
X68924000Y-61720113D01*
X67842000Y-62440113D02*
X69270000Y-62440113D01*
X67842000Y-62681113D02*
X69330000Y-62681113D01*
X64360000Y-62360113D02*
X65762000Y-62360113D01*
X64246000Y-62841113D02*
X65762000Y-62841113D01*
X67842000Y-62761113D02*
X69345000Y-62761113D01*
X65359000Y-61040113D02*
X68245000Y-61040113D01*
X67842000Y-61360113D02*
X68628000Y-61360113D01*
X67842000Y-62400113D02*
X69257000Y-62400113D01*
X67842000Y-62921113D02*
X69367000Y-62921113D01*
X67842000Y-63121113D02*
X69381000Y-63121113D01*
X67842000Y-62521113D02*
X69293000Y-62521113D01*
X67842000Y-61320113D02*
X68587000Y-61320113D01*
X64322000Y-62480113D02*
X65762000Y-62480113D01*
X64798000Y-61560113D02*
X65762000Y-61560113D01*
X67842000Y-61760113D02*
X68951000Y-61760113D01*
X64627000Y-61800113D02*
X65762000Y-61800113D01*
X64512000Y-62000113D02*
X65762000Y-62000113D01*
X64233000Y-62961113D02*
X65762000Y-62961113D01*
X64865000Y-61480113D02*
X65762000Y-61480113D01*
X64259000Y-62761113D02*
X65762000Y-62761113D01*
X67842000Y-62561113D02*
X69303000Y-62561113D01*
X64578000Y-61880113D02*
X65762000Y-61880113D01*
X65077000Y-65755888D02*
X65577000Y-65755888D01*
X64252000Y-62801113D02*
X65762000Y-62801113D01*
X67842000Y-61520113D02*
X68773000Y-61520113D01*
X67842000Y-62721113D02*
X69338000Y-62721113D01*
X64282000Y-62641113D02*
X65762000Y-62641113D01*
X67842000Y-61600113D02*
X68837000Y-61600113D01*
X67842000Y-61440113D02*
X68703000Y-61440113D01*
X64222000Y-63161113D02*
X65762000Y-63161113D01*
X64301000Y-62561113D02*
X65762000Y-62561113D01*
X65103000Y-61240113D02*
X65762000Y-61240113D01*
X69422000Y-63201113D02*
G75*
G03*
X69422000Y-63201113I-2620000J0D01*
G01*
%TO.C,C1*%
X67842000Y-52879000D02*
X68455000Y-52879000D01*
X67842000Y-53559000D02*
X69026000Y-53559000D01*
X67842000Y-54680000D02*
X69375000Y-54680000D01*
X64534000Y-53639000D02*
X65762000Y-53639000D01*
X64473000Y-53759000D02*
X65762000Y-53759000D01*
X64492000Y-53719000D02*
X65762000Y-53719000D01*
X64831000Y-53199000D02*
X65762000Y-53199000D01*
X67842000Y-52919000D02*
X68501000Y-52919000D01*
X67842000Y-53239000D02*
X68806000Y-53239000D01*
X64226000Y-54720000D02*
X65762000Y-54720000D01*
X64737000Y-53319000D02*
X65762000Y-53319000D01*
X67842000Y-54840000D02*
X69382000Y-54840000D01*
X67842000Y-54159000D02*
X69282000Y-54159000D01*
X64374000Y-53999000D02*
X65762000Y-53999000D01*
X64388000Y-53959000D02*
X65762000Y-53959000D01*
X64901000Y-53119000D02*
X65762000Y-53119000D01*
X64291000Y-54280000D02*
X65762000Y-54280000D01*
X67842000Y-54640000D02*
X69371000Y-54640000D01*
X67842000Y-54039000D02*
X69244000Y-54039000D01*
X67842000Y-54320000D02*
X69322000Y-54320000D01*
X67842000Y-53599000D02*
X69049000Y-53599000D01*
X67842000Y-53479000D02*
X68977000Y-53479000D01*
X67842000Y-54760000D02*
X69380000Y-54760000D01*
X64274000Y-54360000D02*
X65762000Y-54360000D01*
X64653000Y-53439000D02*
X65762000Y-53439000D01*
X64976000Y-53039000D02*
X65762000Y-53039000D01*
X65149000Y-52879000D02*
X65762000Y-52879000D01*
X67842000Y-53839000D02*
X69167000Y-53839000D01*
X64222000Y-54880000D02*
X65762000Y-54880000D01*
X64241000Y-54560000D02*
X65762000Y-54560000D01*
X64437000Y-53839000D02*
X65762000Y-53839000D01*
X64266000Y-54400000D02*
X65762000Y-54400000D01*
X65997000Y-52399000D02*
X67607000Y-52399000D01*
X65551000Y-52599000D02*
X68053000Y-52599000D01*
X65302000Y-52759000D02*
X68302000Y-52759000D01*
X67842000Y-54520000D02*
X69358000Y-54520000D01*
X67842000Y-53799000D02*
X69150000Y-53799000D01*
X66125000Y-52359000D02*
X67479000Y-52359000D01*
X67842000Y-53319000D02*
X68867000Y-53319000D01*
X67842000Y-53359000D02*
X68897000Y-53359000D01*
X64334000Y-54119000D02*
X65762000Y-54119000D01*
X67842000Y-53879000D02*
X69184000Y-53879000D01*
X67842000Y-53999000D02*
X69230000Y-53999000D01*
X64454000Y-53799000D02*
X65762000Y-53799000D01*
X67842000Y-53639000D02*
X69070000Y-53639000D01*
X65017000Y-52999000D02*
X65762000Y-52999000D01*
X64707000Y-53359000D02*
X65762000Y-53359000D01*
X67842000Y-54560000D02*
X69363000Y-54560000D01*
X67842000Y-53959000D02*
X69216000Y-53959000D01*
X67842000Y-53919000D02*
X69200000Y-53919000D01*
X67842000Y-54720000D02*
X69378000Y-54720000D01*
X64420000Y-53879000D02*
X65762000Y-53879000D01*
X64311000Y-54200000D02*
X65762000Y-54200000D01*
X65791000Y-52479000D02*
X67813000Y-52479000D01*
X65248000Y-52799000D02*
X68356000Y-52799000D01*
X65887000Y-52439000D02*
X67717000Y-52439000D01*
X65327000Y-57684775D02*
X65327000Y-57184775D01*
X67842000Y-54880000D02*
X69382000Y-54880000D01*
X64347000Y-54079000D02*
X65762000Y-54079000D01*
X64680000Y-53399000D02*
X65762000Y-53399000D01*
X67842000Y-53679000D02*
X69092000Y-53679000D01*
X64602000Y-53519000D02*
X65762000Y-53519000D01*
X64938000Y-53079000D02*
X65762000Y-53079000D01*
X67842000Y-52959000D02*
X68545000Y-52959000D01*
X65704000Y-52519000D02*
X67900000Y-52519000D01*
X64224000Y-54760000D02*
X65762000Y-54760000D01*
X64237000Y-54600000D02*
X65762000Y-54600000D01*
X64223000Y-54800000D02*
X65762000Y-54800000D01*
X64229000Y-54680000D02*
X65762000Y-54680000D01*
X67842000Y-53079000D02*
X68666000Y-53079000D01*
X67842000Y-53759000D02*
X69131000Y-53759000D01*
X66284000Y-52319000D02*
X67320000Y-52319000D01*
X66518000Y-52279000D02*
X67086000Y-52279000D01*
X67842000Y-54280000D02*
X69313000Y-54280000D01*
X67842000Y-53159000D02*
X68739000Y-53159000D01*
X67842000Y-53719000D02*
X69112000Y-53719000D01*
X67842000Y-54480000D02*
X69352000Y-54480000D01*
X65483000Y-52639000D02*
X68121000Y-52639000D01*
X65419000Y-52679000D02*
X68185000Y-52679000D01*
X64404000Y-53919000D02*
X65762000Y-53919000D01*
X64555000Y-53599000D02*
X65762000Y-53599000D01*
X65624000Y-52559000D02*
X67980000Y-52559000D01*
X67842000Y-53519000D02*
X69002000Y-53519000D01*
X65059000Y-52959000D02*
X65762000Y-52959000D01*
X64767000Y-53279000D02*
X65762000Y-53279000D01*
X65197000Y-52839000D02*
X68407000Y-52839000D01*
X67842000Y-53399000D02*
X68924000Y-53399000D01*
X67842000Y-54119000D02*
X69270000Y-54119000D01*
X67842000Y-54360000D02*
X69330000Y-54360000D01*
X64360000Y-54039000D02*
X65762000Y-54039000D01*
X64246000Y-54520000D02*
X65762000Y-54520000D01*
X67842000Y-54440000D02*
X69345000Y-54440000D01*
X65359000Y-52719000D02*
X68245000Y-52719000D01*
X67842000Y-53039000D02*
X68628000Y-53039000D01*
X67842000Y-54079000D02*
X69257000Y-54079000D01*
X67842000Y-54600000D02*
X69367000Y-54600000D01*
X67842000Y-54800000D02*
X69381000Y-54800000D01*
X67842000Y-54200000D02*
X69293000Y-54200000D01*
X67842000Y-52999000D02*
X68587000Y-52999000D01*
X64322000Y-54159000D02*
X65762000Y-54159000D01*
X64798000Y-53239000D02*
X65762000Y-53239000D01*
X67842000Y-53439000D02*
X68951000Y-53439000D01*
X64627000Y-53479000D02*
X65762000Y-53479000D01*
X64512000Y-53679000D02*
X65762000Y-53679000D01*
X64233000Y-54640000D02*
X65762000Y-54640000D01*
X64865000Y-53159000D02*
X65762000Y-53159000D01*
X64259000Y-54440000D02*
X65762000Y-54440000D01*
X67842000Y-54240000D02*
X69303000Y-54240000D01*
X64578000Y-53559000D02*
X65762000Y-53559000D01*
X65077000Y-57434775D02*
X65577000Y-57434775D01*
X64252000Y-54480000D02*
X65762000Y-54480000D01*
X67842000Y-53199000D02*
X68773000Y-53199000D01*
X67842000Y-54400000D02*
X69338000Y-54400000D01*
X64282000Y-54320000D02*
X65762000Y-54320000D01*
X67842000Y-53279000D02*
X68837000Y-53279000D01*
X67842000Y-53119000D02*
X68703000Y-53119000D01*
X64222000Y-54840000D02*
X65762000Y-54840000D01*
X64301000Y-54240000D02*
X65762000Y-54240000D01*
X65103000Y-52919000D02*
X65762000Y-52919000D01*
X69422000Y-54880000D02*
G75*
G03*
X69422000Y-54880000I-2620000J0D01*
G01*
D14*
%TO.C,J1*%
X77470000Y-66675000D02*
X76835000Y-66040000D01*
X75565000Y-71120000D02*
X74930000Y-70485000D01*
X75565000Y-68580000D02*
X74930000Y-67945000D01*
X74930000Y-69215000D02*
X75565000Y-68580000D01*
X77470000Y-66675000D02*
X77470000Y-67945000D01*
X75565000Y-66040000D02*
X74930000Y-66675000D01*
X76835000Y-68580000D02*
X77470000Y-69215000D01*
X76835000Y-66040000D02*
X75565000Y-66040000D01*
X74930000Y-67945000D02*
X74930000Y-66675000D01*
X76835000Y-71120000D02*
X75565000Y-71120000D01*
X77470000Y-69215000D02*
X77470000Y-70485000D01*
X77470000Y-67945000D02*
X76835000Y-68580000D01*
X77470000Y-70485000D02*
X76835000Y-71120000D01*
X74930000Y-70485000D02*
X74930000Y-69215000D01*
D13*
%TO.C,R1*%
X78250000Y-57930000D02*
X78250000Y-51290000D01*
X71610000Y-57930000D02*
X78250000Y-57930000D01*
X71610000Y-51290000D02*
X71610000Y-57930000D01*
X78250000Y-51290000D02*
X71610000Y-51290000D01*
X74930000Y-57930000D02*
X74930000Y-60730000D01*
D15*
%TO.C,J2*%
X65689480Y-81516220D02*
X65689480Y-83515200D01*
X75087480Y-101013260D02*
X75087480Y-97614740D01*
X65689480Y-89916000D02*
X65689480Y-91914980D01*
X65689480Y-110812580D02*
X65689480Y-112811560D01*
X76085700Y-97614740D02*
X75087480Y-97614740D01*
X65689480Y-115112800D02*
X65689480Y-117111780D01*
X78087220Y-101013260D02*
X75087480Y-101013260D01*
X65689480Y-73416160D02*
X65689480Y-75316080D01*
X65689480Y-102511860D02*
X65689480Y-104513380D01*
X65689480Y-119313960D02*
X65689480Y-121312940D01*
X78226920Y-125211840D02*
X78226920Y-73416160D01*
X65689480Y-85714840D02*
X65689480Y-87716360D01*
X65689480Y-125211840D02*
X78226920Y-125211840D01*
X65689480Y-77315060D02*
X65689480Y-79314040D01*
X78226920Y-73416160D02*
X65689480Y-73416160D01*
X75087480Y-97614740D02*
X78087220Y-97614740D01*
X75087480Y-97614740D02*
X75087480Y-101013260D01*
X65689480Y-106713020D02*
X65689480Y-108712000D01*
X65689480Y-98315780D02*
X65689480Y-100312220D01*
X75087480Y-101013260D02*
X76085700Y-101013260D01*
X65689480Y-94114620D02*
X65689480Y-96116140D01*
X65689480Y-125211840D02*
X65689480Y-123311920D01*
X76085700Y-101013260D02*
X76085700Y-97614740D01*
%TD*%
M02*
