%TF.GenerationSoftware,KiCad,Pcbnew,(6.0.8-1)-1*%
%TF.CreationDate,2022-10-28T23:41:02-05:00*%
%TF.ProjectId,VT105_ATX_DCDC,56543130-355f-4415-9458-5f444344432e,rev?*%
%TF.SameCoordinates,Original*%
%TF.FileFunction,Copper,L1,Top*%
%TF.FilePolarity,Positive*%
%FSLAX46Y46*%
G04 Gerber Fmt 4.6, Leading zero omitted, Abs format (unit mm)*
G04 Created by KiCad (PCBNEW (6.0.8-1)-1) date 2022-10-28 23:41:02*
%MOMM*%
%LPD*%
G01*
G04 APERTURE LIST*
G04 Aperture macros list*
%AMRoundRect*
0 Rectangle with rounded corners*
0 $1 Rounding radius*
0 $2 $3 $4 $5 $6 $7 $8 $9 X,Y pos of 4 corners*
0 Add a 4 corners polygon primitive as box body*
4,1,4,$2,$3,$4,$5,$6,$7,$8,$9,$2,$3,0*
0 Add four circle primitives for the rounded corners*
1,1,$1+$1,$2,$3*
1,1,$1+$1,$4,$5*
1,1,$1+$1,$6,$7*
1,1,$1+$1,$8,$9*
0 Add four rect primitives between the rounded corners*
20,1,$1+$1,$2,$3,$4,$5,0*
20,1,$1+$1,$4,$5,$6,$7,0*
20,1,$1+$1,$6,$7,$8,$9,0*
20,1,$1+$1,$8,$9,$2,$3,0*%
G04 Aperture macros list end*
%TA.AperFunction,ComponentPad*%
%ADD10C,1.600000*%
%TD*%
%TA.AperFunction,ComponentPad*%
%ADD11C,2.000000*%
%TD*%
%TA.AperFunction,ComponentPad*%
%ADD12O,4.064000X2.032000*%
%TD*%
%TA.AperFunction,ComponentPad*%
%ADD13RoundRect,0.120000X4.980000X1.080000X-4.980000X1.080000X-4.980000X-1.080000X4.980000X-1.080000X0*%
%TD*%
%TA.AperFunction,SMDPad,CuDef*%
%ADD14R,1.000000X1.500000*%
%TD*%
%TA.AperFunction,ComponentPad*%
%ADD15C,2.400000*%
%TD*%
%TA.AperFunction,ComponentPad*%
%ADD16O,2.400000X2.400000*%
%TD*%
%TA.AperFunction,ComponentPad*%
%ADD17C,2.898140*%
%TD*%
%TA.AperFunction,Conductor*%
%ADD18C,1.000000*%
%TD*%
%TA.AperFunction,Conductor*%
%ADD19C,0.500000*%
%TD*%
G04 APERTURE END LIST*
%TO.C,JP1*%
G36*
X54860000Y-85944000D02*
G01*
X54360000Y-85944000D01*
X54360000Y-85544000D01*
X54860000Y-85544000D01*
X54860000Y-85944000D01*
G37*
G36*
X54860000Y-85144000D02*
G01*
X54360000Y-85144000D01*
X54360000Y-84744000D01*
X54860000Y-84744000D01*
X54860000Y-85144000D01*
G37*
%TD*%
D10*
%TO.P,C1,1*%
%TO.N,-23V*%
X58293000Y-103505000D03*
%TO.P,C1,2*%
%TO.N,GND*%
X63293000Y-103505000D03*
%TD*%
D11*
%TO.P,U1,1,+Vin*%
%TO.N,+5V*%
X57912000Y-118967000D03*
%TO.P,U1,2,-Vin*%
%TO.N,GND*%
X60452000Y-118967000D03*
%TO.P,U1,5,+Vout*%
X68072000Y-118967000D03*
%TO.P,U1,6,-Vout1*%
%TO.N,-23V*%
X70612000Y-118967000D03*
%TO.P,U1,7,-Vout2*%
%TO.N,unconnected-(U1-Pad7)*%
X73152000Y-118967000D03*
%TO.P,U1,8,-Vout3*%
%TO.N,unconnected-(U1-Pad8)*%
X75692000Y-118967000D03*
%TD*%
D12*
%TO.P,J1,1,Pin_1*%
%TO.N,Net-(J1-Pad1)*%
X69668000Y-107148000D03*
%TO.P,J1,2,Pin_2*%
%TO.N,GND*%
X69668000Y-102148000D03*
%TD*%
D13*
%TO.P,U2,1,A_+12V*%
%TO.N,+12V*%
X45931000Y-54233000D03*
%TO.P,U2,2,B_GND*%
%TO.N,GND*%
X45931000Y-58233000D03*
%TO.P,U2,3,C_+12V*%
%TO.N,+12V*%
X45931000Y-62233000D03*
%TO.P,U2,4,D_GND*%
%TO.N,GND*%
X45931000Y-66233000D03*
%TO.P,U2,5,E_-12V*%
%TO.N,-12V*%
X45931000Y-70233000D03*
%TO.P,U2,6,F_-23V*%
%TO.N,-23V*%
X45931000Y-74233000D03*
%TO.P,U2,7,H_NC*%
%TO.N,unconnected-(U2-Pad7)*%
X45931000Y-78233000D03*
%TO.P,U2,8,J_GND_+12V*%
%TO.N,GND_+12V*%
X45931000Y-82233000D03*
%TO.P,U2,9,K_GND*%
%TO.N,GND*%
X45931000Y-86233000D03*
%TO.P,U2,10,L_GND*%
X45931000Y-90233000D03*
%TO.P,U2,11,M_GND*%
X45931000Y-94233000D03*
%TO.P,U2,12,N_GND*%
X45931000Y-98233000D03*
%TO.P,U2,13,P_GND*%
X45931000Y-102233000D03*
%TO.P,U2,14,R_+5V*%
%TO.N,+5V*%
X45931000Y-106233000D03*
%TO.P,U2,15,S_+5V*%
X45931000Y-110233000D03*
%TO.P,U2,16,T_+5V*%
X45931000Y-114233000D03*
%TO.P,U2,17,U_+5V*%
X45931000Y-118233000D03*
%TO.P,U2,18,V_+5V*%
X45931000Y-122233000D03*
%TD*%
D14*
%TO.P,JP1,1,A*%
%TO.N,GND*%
X55260000Y-85344000D03*
%TO.P,JP1,2,B*%
%TO.N,GND_+12V*%
X53960000Y-85344000D03*
%TD*%
D15*
%TO.P,R1,1*%
%TO.N,+5V*%
X77494000Y-126238000D03*
D16*
%TO.P,R1,2*%
%TO.N,GND*%
X55094000Y-126238000D03*
%TD*%
D17*
%TO.P,J2,1,+3.3V*%
%TO.N,unconnected-(J2-Pad1)*%
X64328040Y-48783240D03*
%TO.P,J2,2,+3.3V*%
X64328040Y-52984400D03*
%TO.P,J2,3,GND*%
%TO.N,GND*%
X64328040Y-57183020D03*
%TO.P,J2,4,+5V*%
%TO.N,+5V*%
X64328040Y-61384180D03*
%TO.P,J2,5,GND*%
%TO.N,GND*%
X64328040Y-65582800D03*
%TO.P,J2,6,+5V*%
%TO.N,+5V*%
X64328040Y-69783960D03*
%TO.P,J2,7,GND*%
%TO.N,GND*%
X64328040Y-73980040D03*
%TO.P,J2,8,PWR_OK*%
%TO.N,unconnected-(J2-Pad8)*%
X64328040Y-78181200D03*
%TO.P,J2,9,+5VSB*%
%TO.N,unconnected-(J2-Pad9)*%
X64328040Y-82379820D03*
%TO.P,J2,10,+12V*%
%TO.N,+12V*%
X64328040Y-86580980D03*
%TO.P,J2,11,+12V*%
X64328040Y-90779600D03*
%TO.P,J2,12,+3.3V*%
%TO.N,unconnected-(J2-Pad1)*%
X64328040Y-94980760D03*
%TO.P,J2,13,+3.3V*%
X58828940Y-48783240D03*
%TO.P,J2,14,-12V*%
%TO.N,-12V*%
X58828940Y-52984400D03*
%TO.P,J2,15,GND*%
%TO.N,GND*%
X58828940Y-57183020D03*
%TO.P,J2,16,PS_ON#*%
%TO.N,Net-(J1-Pad1)*%
X58828940Y-61384180D03*
%TO.P,J2,17,GND*%
%TO.N,GND*%
X58828940Y-65582800D03*
%TO.P,J2,18,GND*%
X58828940Y-69783960D03*
%TO.P,J2,19,GND*%
X58828940Y-73980040D03*
%TO.P,J2,20,NC*%
%TO.N,unconnected-(J2-Pad20)*%
X58828940Y-78181200D03*
%TO.P,J2,21,+5V*%
%TO.N,+5V*%
X58828940Y-82379820D03*
%TO.P,J2,22,+5V*%
X58828940Y-86580980D03*
%TO.P,J2,23,+5V*%
X58828940Y-90779600D03*
%TO.P,J2,24,GND*%
%TO.N,GND*%
X58828940Y-94980760D03*
%TD*%
D18*
%TO.N,GND_+12V*%
X49931000Y-82233000D02*
X50849000Y-82233000D01*
X50849000Y-82233000D02*
X53960000Y-85344000D01*
D19*
%TO.N,Net-(J1-Pad1)*%
X58828940Y-61384180D02*
X60944760Y-63500000D01*
X60944760Y-63500000D02*
X64930931Y-63500000D01*
X64930931Y-63500000D02*
X67186000Y-65755069D01*
X67186000Y-65755069D02*
X67186000Y-104666000D01*
X67186000Y-104666000D02*
X69668000Y-107148000D01*
%TO.N,+5V*%
X57912000Y-118967000D02*
X65183000Y-126238000D01*
X65183000Y-126238000D02*
X77494000Y-126238000D01*
%TO.N,-23V*%
X61595000Y-81153000D02*
X61595000Y-100203000D01*
X55962000Y-80264000D02*
X60706000Y-80264000D01*
X49931000Y-74233000D02*
X55962000Y-80264000D01*
X60706000Y-80264000D02*
X61595000Y-81153000D01*
X61595000Y-100203000D02*
X58293000Y-103505000D01*
%TD*%
%TA.AperFunction,Conductor*%
%TO.N,GND*%
G36*
X79053583Y-46248974D02*
G01*
X79075089Y-46266216D01*
X79210596Y-46401724D01*
X79244621Y-46464036D01*
X79247500Y-46490819D01*
X79247500Y-103688286D01*
X79227498Y-103756407D01*
X79173842Y-103802900D01*
X79103568Y-103813004D01*
X79038988Y-103783510D01*
X79004348Y-103734670D01*
X78943702Y-103581495D01*
X78943700Y-103581490D01*
X78942247Y-103577821D01*
X78903843Y-103507965D01*
X78792093Y-103304693D01*
X78792091Y-103304690D01*
X78790184Y-103301221D01*
X78645174Y-103101631D01*
X78606982Y-103049064D01*
X78606981Y-103049062D01*
X78604654Y-103045860D01*
X78388582Y-102815767D01*
X78360807Y-102792789D01*
X78148427Y-102617093D01*
X78145375Y-102614568D01*
X77878869Y-102445438D01*
X77875290Y-102443754D01*
X77875283Y-102443750D01*
X77596856Y-102312733D01*
X77596852Y-102312731D01*
X77593266Y-102311044D01*
X77293072Y-102213505D01*
X76983020Y-102154359D01*
X76746838Y-102139500D01*
X76589162Y-102139500D01*
X76352980Y-102154359D01*
X76042928Y-102213505D01*
X75742734Y-102311044D01*
X75739148Y-102312731D01*
X75739144Y-102312733D01*
X75460717Y-102443750D01*
X75460710Y-102443754D01*
X75457131Y-102445438D01*
X75190625Y-102614568D01*
X75187573Y-102617093D01*
X74975194Y-102792789D01*
X74947418Y-102815767D01*
X74731346Y-103045860D01*
X74729019Y-103049062D01*
X74729018Y-103049064D01*
X74690826Y-103101631D01*
X74545816Y-103301221D01*
X74543909Y-103304690D01*
X74543907Y-103304693D01*
X74432157Y-103507965D01*
X74393753Y-103577821D01*
X74392300Y-103581490D01*
X74392298Y-103581495D01*
X74312315Y-103783510D01*
X74277557Y-103871298D01*
X74199060Y-104177025D01*
X74159500Y-104490179D01*
X74159500Y-104805821D01*
X74199060Y-105118975D01*
X74277557Y-105424702D01*
X74279010Y-105428371D01*
X74279010Y-105428372D01*
X74357063Y-105625510D01*
X74393753Y-105718179D01*
X74545816Y-105994779D01*
X74731346Y-106250140D01*
X74947418Y-106480233D01*
X74950469Y-106482757D01*
X74950470Y-106482758D01*
X74961486Y-106491871D01*
X75190625Y-106681432D01*
X75457131Y-106850562D01*
X75460710Y-106852246D01*
X75460717Y-106852250D01*
X75739144Y-106983267D01*
X75739148Y-106983269D01*
X75742734Y-106984956D01*
X76042928Y-107082495D01*
X76352980Y-107141641D01*
X76589162Y-107156500D01*
X76746838Y-107156500D01*
X76983020Y-107141641D01*
X77293072Y-107082495D01*
X77593266Y-106984956D01*
X77596852Y-106983269D01*
X77596856Y-106983267D01*
X77875283Y-106852250D01*
X77875290Y-106852246D01*
X77878869Y-106850562D01*
X78145375Y-106681432D01*
X78374514Y-106491871D01*
X78385530Y-106482758D01*
X78385531Y-106482757D01*
X78388582Y-106480233D01*
X78604654Y-106250140D01*
X78790184Y-105994779D01*
X78942247Y-105718179D01*
X79004348Y-105561330D01*
X79048023Y-105505356D01*
X79115026Y-105481880D01*
X79184084Y-105498356D01*
X79233273Y-105549551D01*
X79247500Y-105607714D01*
X79247500Y-125388399D01*
X79227498Y-125456520D01*
X79173842Y-125503013D01*
X79103568Y-125513117D01*
X79038988Y-125483623D01*
X79012107Y-125450922D01*
X78916702Y-125283997D01*
X78916700Y-125283995D01*
X78914383Y-125279940D01*
X78757171Y-125080517D01*
X78673625Y-125001925D01*
X78575610Y-124909722D01*
X78575608Y-124909720D01*
X78572209Y-124906523D01*
X78450240Y-124821910D01*
X78367393Y-124764437D01*
X78367390Y-124764435D01*
X78363561Y-124761779D01*
X78359384Y-124759719D01*
X78359377Y-124759715D01*
X78139996Y-124651528D01*
X78139992Y-124651527D01*
X78135810Y-124649464D01*
X77893960Y-124572047D01*
X77862104Y-124566859D01*
X77647935Y-124531980D01*
X77647934Y-124531980D01*
X77643323Y-124531229D01*
X77516365Y-124529567D01*
X77394083Y-124527966D01*
X77394080Y-124527966D01*
X77389406Y-124527905D01*
X77137787Y-124562149D01*
X77133301Y-124563457D01*
X77133299Y-124563457D01*
X77119428Y-124567500D01*
X76893993Y-124633208D01*
X76889740Y-124635168D01*
X76889739Y-124635169D01*
X76861818Y-124648041D01*
X76663380Y-124739522D01*
X76659471Y-124742085D01*
X76454928Y-124876189D01*
X76454923Y-124876193D01*
X76451015Y-124878755D01*
X76261562Y-125047848D01*
X76099183Y-125243087D01*
X76011006Y-125388399D01*
X75992519Y-125418865D01*
X75940080Y-125466726D01*
X75884800Y-125479500D01*
X65549371Y-125479500D01*
X65481250Y-125459498D01*
X65460276Y-125442595D01*
X60678451Y-120660770D01*
X60644425Y-120598458D01*
X60649490Y-120527643D01*
X60692037Y-120470807D01*
X60738132Y-120449156D01*
X60914627Y-120406783D01*
X60924012Y-120403734D01*
X61134163Y-120316687D01*
X61142958Y-120312205D01*
X61310445Y-120209568D01*
X61319400Y-120199670D01*
X67204160Y-120199670D01*
X67209887Y-120207320D01*
X67381042Y-120312205D01*
X67389837Y-120316687D01*
X67599988Y-120403734D01*
X67609373Y-120406783D01*
X67830554Y-120459885D01*
X67840301Y-120461428D01*
X68067070Y-120479275D01*
X68076930Y-120479275D01*
X68303699Y-120461428D01*
X68313446Y-120459885D01*
X68534627Y-120406783D01*
X68544012Y-120403734D01*
X68754163Y-120316687D01*
X68762958Y-120312205D01*
X68930445Y-120209568D01*
X68939907Y-120199110D01*
X68936124Y-120190334D01*
X68084812Y-119339022D01*
X68070868Y-119331408D01*
X68069035Y-119331539D01*
X68062420Y-119335790D01*
X67210920Y-120187290D01*
X67204160Y-120199670D01*
X61319400Y-120199670D01*
X61319907Y-120199110D01*
X61316124Y-120190334D01*
X60093922Y-118968132D01*
X60816408Y-118968132D01*
X60816539Y-118969965D01*
X60820790Y-118976580D01*
X61672290Y-119828080D01*
X61684670Y-119834840D01*
X61692320Y-119829113D01*
X61797205Y-119657958D01*
X61801687Y-119649163D01*
X61888734Y-119439012D01*
X61891783Y-119429627D01*
X61944885Y-119208446D01*
X61946428Y-119198699D01*
X61964275Y-118971930D01*
X66559725Y-118971930D01*
X66577572Y-119198699D01*
X66579115Y-119208446D01*
X66632217Y-119429627D01*
X66635266Y-119439012D01*
X66722313Y-119649163D01*
X66726795Y-119657958D01*
X66829432Y-119825445D01*
X66839890Y-119834907D01*
X66848666Y-119831124D01*
X67699978Y-118979812D01*
X67706356Y-118968132D01*
X68436408Y-118968132D01*
X68436539Y-118969965D01*
X68440790Y-118976580D01*
X69292290Y-119828080D01*
X69309102Y-119837260D01*
X69372350Y-119851020D01*
X69407775Y-119879776D01*
X69538819Y-120033208D01*
X69542031Y-120036969D01*
X69722584Y-120191176D01*
X69726792Y-120193755D01*
X69726798Y-120193759D01*
X69920084Y-120312205D01*
X69925037Y-120315240D01*
X69929607Y-120317133D01*
X69929611Y-120317135D01*
X70139833Y-120404211D01*
X70144406Y-120406105D01*
X70224609Y-120425360D01*
X70370476Y-120460380D01*
X70370482Y-120460381D01*
X70375289Y-120461535D01*
X70612000Y-120480165D01*
X70848711Y-120461535D01*
X70853518Y-120460381D01*
X70853524Y-120460380D01*
X70999391Y-120425360D01*
X71079594Y-120406105D01*
X71084167Y-120404211D01*
X71294389Y-120317135D01*
X71294393Y-120317133D01*
X71298963Y-120315240D01*
X71303916Y-120312205D01*
X71497202Y-120193759D01*
X71497208Y-120193755D01*
X71501416Y-120191176D01*
X71681969Y-120036969D01*
X71685177Y-120033213D01*
X71685182Y-120033208D01*
X71786189Y-119914944D01*
X71845639Y-119876134D01*
X71916634Y-119875628D01*
X71977811Y-119914944D01*
X72078818Y-120033208D01*
X72078823Y-120033213D01*
X72082031Y-120036969D01*
X72262584Y-120191176D01*
X72266792Y-120193755D01*
X72266798Y-120193759D01*
X72460084Y-120312205D01*
X72465037Y-120315240D01*
X72469607Y-120317133D01*
X72469611Y-120317135D01*
X72679833Y-120404211D01*
X72684406Y-120406105D01*
X72764609Y-120425360D01*
X72910476Y-120460380D01*
X72910482Y-120460381D01*
X72915289Y-120461535D01*
X73152000Y-120480165D01*
X73388711Y-120461535D01*
X73393518Y-120460381D01*
X73393524Y-120460380D01*
X73539391Y-120425360D01*
X73619594Y-120406105D01*
X73624167Y-120404211D01*
X73834389Y-120317135D01*
X73834393Y-120317133D01*
X73838963Y-120315240D01*
X73843916Y-120312205D01*
X74037202Y-120193759D01*
X74037208Y-120193755D01*
X74041416Y-120191176D01*
X74221969Y-120036969D01*
X74225177Y-120033213D01*
X74225182Y-120033208D01*
X74326189Y-119914944D01*
X74385639Y-119876134D01*
X74456634Y-119875628D01*
X74517811Y-119914944D01*
X74618818Y-120033208D01*
X74618823Y-120033213D01*
X74622031Y-120036969D01*
X74802584Y-120191176D01*
X74806792Y-120193755D01*
X74806798Y-120193759D01*
X75000084Y-120312205D01*
X75005037Y-120315240D01*
X75009607Y-120317133D01*
X75009611Y-120317135D01*
X75219833Y-120404211D01*
X75224406Y-120406105D01*
X75304609Y-120425360D01*
X75450476Y-120460380D01*
X75450482Y-120460381D01*
X75455289Y-120461535D01*
X75692000Y-120480165D01*
X75928711Y-120461535D01*
X75933518Y-120460381D01*
X75933524Y-120460380D01*
X76079391Y-120425360D01*
X76159594Y-120406105D01*
X76164167Y-120404211D01*
X76374389Y-120317135D01*
X76374393Y-120317133D01*
X76378963Y-120315240D01*
X76383916Y-120312205D01*
X76577202Y-120193759D01*
X76577208Y-120193755D01*
X76581416Y-120191176D01*
X76761969Y-120036969D01*
X76916176Y-119856416D01*
X76918755Y-119852208D01*
X76918759Y-119852202D01*
X77037654Y-119658183D01*
X77040240Y-119653963D01*
X77042229Y-119649163D01*
X77129211Y-119439167D01*
X77129212Y-119439165D01*
X77131105Y-119434594D01*
X77186535Y-119203711D01*
X77205165Y-118967000D01*
X77186535Y-118730289D01*
X77131105Y-118499406D01*
X77129211Y-118494833D01*
X77042135Y-118284611D01*
X77042133Y-118284607D01*
X77040240Y-118280037D01*
X77037654Y-118275817D01*
X76918759Y-118081798D01*
X76918755Y-118081792D01*
X76916176Y-118077584D01*
X76761969Y-117897031D01*
X76581416Y-117742824D01*
X76577208Y-117740245D01*
X76577202Y-117740241D01*
X76383183Y-117621346D01*
X76378963Y-117618760D01*
X76374393Y-117616867D01*
X76374389Y-117616865D01*
X76164167Y-117529789D01*
X76164165Y-117529788D01*
X76159594Y-117527895D01*
X76079391Y-117508640D01*
X75933524Y-117473620D01*
X75933518Y-117473619D01*
X75928711Y-117472465D01*
X75692000Y-117453835D01*
X75455289Y-117472465D01*
X75450482Y-117473619D01*
X75450476Y-117473620D01*
X75304609Y-117508640D01*
X75224406Y-117527895D01*
X75219835Y-117529788D01*
X75219833Y-117529789D01*
X75009611Y-117616865D01*
X75009607Y-117616867D01*
X75005037Y-117618760D01*
X75000817Y-117621346D01*
X74806798Y-117740241D01*
X74806792Y-117740245D01*
X74802584Y-117742824D01*
X74622031Y-117897031D01*
X74618823Y-117900787D01*
X74618818Y-117900792D01*
X74517811Y-118019056D01*
X74458361Y-118057866D01*
X74387366Y-118058372D01*
X74326189Y-118019056D01*
X74225182Y-117900792D01*
X74225177Y-117900787D01*
X74221969Y-117897031D01*
X74041416Y-117742824D01*
X74037208Y-117740245D01*
X74037202Y-117740241D01*
X73843183Y-117621346D01*
X73838963Y-117618760D01*
X73834393Y-117616867D01*
X73834389Y-117616865D01*
X73624167Y-117529789D01*
X73624165Y-117529788D01*
X73619594Y-117527895D01*
X73539391Y-117508640D01*
X73393524Y-117473620D01*
X73393518Y-117473619D01*
X73388711Y-117472465D01*
X73152000Y-117453835D01*
X72915289Y-117472465D01*
X72910482Y-117473619D01*
X72910476Y-117473620D01*
X72764609Y-117508640D01*
X72684406Y-117527895D01*
X72679835Y-117529788D01*
X72679833Y-117529789D01*
X72469611Y-117616865D01*
X72469607Y-117616867D01*
X72465037Y-117618760D01*
X72460817Y-117621346D01*
X72266798Y-117740241D01*
X72266792Y-117740245D01*
X72262584Y-117742824D01*
X72082031Y-117897031D01*
X72078823Y-117900787D01*
X72078818Y-117900792D01*
X71977811Y-118019056D01*
X71918361Y-118057866D01*
X71847366Y-118058372D01*
X71786189Y-118019056D01*
X71685182Y-117900792D01*
X71685177Y-117900787D01*
X71681969Y-117897031D01*
X71501416Y-117742824D01*
X71497208Y-117740245D01*
X71497202Y-117740241D01*
X71303183Y-117621346D01*
X71298963Y-117618760D01*
X71294393Y-117616867D01*
X71294389Y-117616865D01*
X71084167Y-117529789D01*
X71084165Y-117529788D01*
X71079594Y-117527895D01*
X70999391Y-117508640D01*
X70853524Y-117473620D01*
X70853518Y-117473619D01*
X70848711Y-117472465D01*
X70612000Y-117453835D01*
X70375289Y-117472465D01*
X70370482Y-117473619D01*
X70370476Y-117473620D01*
X70224609Y-117508640D01*
X70144406Y-117527895D01*
X70139835Y-117529788D01*
X70139833Y-117529789D01*
X69929611Y-117616865D01*
X69929607Y-117616867D01*
X69925037Y-117618760D01*
X69920817Y-117621346D01*
X69726798Y-117740241D01*
X69726792Y-117740245D01*
X69722584Y-117742824D01*
X69542031Y-117897031D01*
X69538823Y-117900787D01*
X69538818Y-117900792D01*
X69408294Y-118053616D01*
X69348844Y-118092426D01*
X69314442Y-118094640D01*
X69295333Y-118102877D01*
X68444022Y-118954188D01*
X68436408Y-118968132D01*
X67706356Y-118968132D01*
X67707592Y-118965868D01*
X67707461Y-118964035D01*
X67703210Y-118957420D01*
X66851710Y-118105920D01*
X66839330Y-118099160D01*
X66831680Y-118104887D01*
X66726795Y-118276042D01*
X66722313Y-118284837D01*
X66635266Y-118494988D01*
X66632217Y-118504373D01*
X66579115Y-118725554D01*
X66577572Y-118735301D01*
X66559725Y-118962070D01*
X66559725Y-118971930D01*
X61964275Y-118971930D01*
X61964275Y-118962070D01*
X61946428Y-118735301D01*
X61944885Y-118725554D01*
X61891783Y-118504373D01*
X61888734Y-118494988D01*
X61801687Y-118284837D01*
X61797205Y-118276042D01*
X61694568Y-118108555D01*
X61684110Y-118099093D01*
X61675334Y-118102876D01*
X60824022Y-118954188D01*
X60816408Y-118968132D01*
X60093922Y-118968132D01*
X59231710Y-118105920D01*
X59214898Y-118096740D01*
X59151650Y-118082980D01*
X59116225Y-118054224D01*
X58985177Y-117900787D01*
X58981969Y-117897031D01*
X58801416Y-117742824D01*
X58797208Y-117740245D01*
X58797202Y-117740241D01*
X58788470Y-117734890D01*
X59584093Y-117734890D01*
X59587876Y-117743666D01*
X60439188Y-118594978D01*
X60453132Y-118602592D01*
X60454965Y-118602461D01*
X60461580Y-118598210D01*
X61313080Y-117746710D01*
X61319534Y-117734890D01*
X67204093Y-117734890D01*
X67207876Y-117743666D01*
X68059188Y-118594978D01*
X68073132Y-118602592D01*
X68074965Y-118602461D01*
X68081580Y-118598210D01*
X68933080Y-117746710D01*
X68939840Y-117734330D01*
X68934113Y-117726680D01*
X68762958Y-117621795D01*
X68754163Y-117617313D01*
X68544012Y-117530266D01*
X68534627Y-117527217D01*
X68313446Y-117474115D01*
X68303699Y-117472572D01*
X68076930Y-117454725D01*
X68067070Y-117454725D01*
X67840301Y-117472572D01*
X67830554Y-117474115D01*
X67609373Y-117527217D01*
X67599988Y-117530266D01*
X67389837Y-117617313D01*
X67381042Y-117621795D01*
X67213555Y-117724432D01*
X67204093Y-117734890D01*
X61319534Y-117734890D01*
X61319840Y-117734330D01*
X61314113Y-117726680D01*
X61142958Y-117621795D01*
X61134163Y-117617313D01*
X60924012Y-117530266D01*
X60914627Y-117527217D01*
X60693446Y-117474115D01*
X60683699Y-117472572D01*
X60456930Y-117454725D01*
X60447070Y-117454725D01*
X60220301Y-117472572D01*
X60210554Y-117474115D01*
X59989373Y-117527217D01*
X59979988Y-117530266D01*
X59769837Y-117617313D01*
X59761042Y-117621795D01*
X59593555Y-117724432D01*
X59584093Y-117734890D01*
X58788470Y-117734890D01*
X58603183Y-117621346D01*
X58598963Y-117618760D01*
X58594393Y-117616867D01*
X58594389Y-117616865D01*
X58384167Y-117529789D01*
X58384165Y-117529788D01*
X58379594Y-117527895D01*
X58299391Y-117508640D01*
X58153524Y-117473620D01*
X58153518Y-117473619D01*
X58148711Y-117472465D01*
X57912000Y-117453835D01*
X57675289Y-117472465D01*
X57670482Y-117473619D01*
X57670476Y-117473620D01*
X57524609Y-117508640D01*
X57444406Y-117527895D01*
X57439835Y-117529788D01*
X57439833Y-117529789D01*
X57229611Y-117616865D01*
X57229607Y-117616867D01*
X57225037Y-117618760D01*
X57220817Y-117621346D01*
X57026798Y-117740241D01*
X57026792Y-117740245D01*
X57022584Y-117742824D01*
X56842031Y-117897031D01*
X56687824Y-118077584D01*
X56685245Y-118081792D01*
X56685241Y-118081798D01*
X56566346Y-118275817D01*
X56563760Y-118280037D01*
X56561867Y-118284607D01*
X56561865Y-118284611D01*
X56474789Y-118494833D01*
X56472895Y-118499406D01*
X56417465Y-118730289D01*
X56398835Y-118967000D01*
X56417465Y-119203711D01*
X56472895Y-119434594D01*
X56474788Y-119439165D01*
X56474789Y-119439167D01*
X56561772Y-119649163D01*
X56563760Y-119653963D01*
X56566346Y-119658183D01*
X56685241Y-119852202D01*
X56685245Y-119852208D01*
X56687824Y-119856416D01*
X56842031Y-120036969D01*
X57022584Y-120191176D01*
X57026792Y-120193755D01*
X57026798Y-120193759D01*
X57220084Y-120312205D01*
X57225037Y-120315240D01*
X57229607Y-120317133D01*
X57229611Y-120317135D01*
X57439833Y-120404211D01*
X57444406Y-120406105D01*
X57524609Y-120425360D01*
X57670476Y-120460380D01*
X57670482Y-120460381D01*
X57675289Y-120461535D01*
X57912000Y-120480165D01*
X58148711Y-120461535D01*
X58153518Y-120460381D01*
X58153524Y-120460380D01*
X58229398Y-120442164D01*
X58300306Y-120445711D01*
X58347907Y-120475588D01*
X64599230Y-126726911D01*
X64611616Y-126741323D01*
X64620149Y-126752918D01*
X64620154Y-126752923D01*
X64624492Y-126758818D01*
X64630070Y-126763557D01*
X64630073Y-126763560D01*
X64664768Y-126793035D01*
X64672284Y-126799965D01*
X64677980Y-126805661D01*
X64680841Y-126807924D01*
X64680846Y-126807929D01*
X64700266Y-126823293D01*
X64703667Y-126826082D01*
X64759285Y-126873333D01*
X64765798Y-126876659D01*
X64770837Y-126880020D01*
X64775979Y-126883196D01*
X64781716Y-126887734D01*
X64847875Y-126918655D01*
X64851769Y-126920558D01*
X64916808Y-126953769D01*
X64923917Y-126955508D01*
X64929551Y-126957604D01*
X64935321Y-126959523D01*
X64941950Y-126962622D01*
X64949113Y-126964112D01*
X64949116Y-126964113D01*
X64999830Y-126974661D01*
X65013435Y-126977491D01*
X65017701Y-126978457D01*
X65088610Y-126995808D01*
X65094212Y-126996156D01*
X65094215Y-126996156D01*
X65099764Y-126996500D01*
X65099762Y-126996535D01*
X65103734Y-126996775D01*
X65107955Y-126997152D01*
X65115115Y-126998641D01*
X65192542Y-126996546D01*
X65195950Y-126996500D01*
X75886618Y-126996500D01*
X75954739Y-127016502D01*
X75997607Y-127062858D01*
X76049025Y-127158551D01*
X76051820Y-127162294D01*
X76051822Y-127162297D01*
X76198171Y-127358282D01*
X76198176Y-127358288D01*
X76200963Y-127362020D01*
X76204272Y-127365300D01*
X76204277Y-127365306D01*
X76302493Y-127462668D01*
X76381307Y-127540797D01*
X76385069Y-127543555D01*
X76385072Y-127543558D01*
X76490222Y-127620657D01*
X76586094Y-127690953D01*
X76590229Y-127693129D01*
X76590233Y-127693131D01*
X76707447Y-127754800D01*
X76810827Y-127809191D01*
X76943803Y-127855628D01*
X77044764Y-127890885D01*
X77050568Y-127892912D01*
X77300050Y-127940278D01*
X77420532Y-127945011D01*
X77549125Y-127950064D01*
X77549130Y-127950064D01*
X77553793Y-127950247D01*
X77652774Y-127939407D01*
X77801569Y-127923112D01*
X77801575Y-127923111D01*
X77806222Y-127922602D01*
X77812615Y-127920919D01*
X78047273Y-127859138D01*
X78051793Y-127857948D01*
X78171433Y-127806547D01*
X78280807Y-127759557D01*
X78280810Y-127759555D01*
X78285110Y-127757708D01*
X78289090Y-127755245D01*
X78289094Y-127755243D01*
X78497064Y-127626547D01*
X78497066Y-127626545D01*
X78501047Y-127624082D01*
X78599428Y-127540797D01*
X78691289Y-127463031D01*
X78691291Y-127463029D01*
X78694862Y-127460006D01*
X78862295Y-127269084D01*
X78999669Y-127055512D01*
X79001586Y-127051257D01*
X79001589Y-127051251D01*
X79006618Y-127040086D01*
X79052834Y-126986191D01*
X79120851Y-126965839D01*
X79189074Y-126985490D01*
X79235842Y-127038905D01*
X79247500Y-127091837D01*
X79247500Y-130039182D01*
X79227498Y-130107303D01*
X79210595Y-130128277D01*
X79200777Y-130138095D01*
X79138465Y-130172121D01*
X79111682Y-130175000D01*
X54101000Y-130175000D01*
X54032879Y-130154998D01*
X53986386Y-130101342D01*
X53975000Y-130049000D01*
X53975000Y-127784180D01*
X53995002Y-127716059D01*
X54048658Y-127669566D01*
X54118932Y-127659462D01*
X54175504Y-127682567D01*
X54182588Y-127687761D01*
X54190505Y-127692708D01*
X54406877Y-127806547D01*
X54415451Y-127810275D01*
X54646282Y-127890885D01*
X54655291Y-127893299D01*
X54822201Y-127924988D01*
X54835261Y-127923704D01*
X54839506Y-127910360D01*
X55348000Y-127910360D01*
X55352171Y-127924565D01*
X55364933Y-127926620D01*
X55401487Y-127922617D01*
X55410649Y-127920919D01*
X55647107Y-127858665D01*
X55655926Y-127855628D01*
X55880584Y-127759107D01*
X55888856Y-127754800D01*
X56096777Y-127626135D01*
X56104317Y-127620657D01*
X56290943Y-127462668D01*
X56297593Y-127456132D01*
X56458813Y-127272295D01*
X56464420Y-127264854D01*
X56596700Y-127059202D01*
X56601147Y-127051011D01*
X56701572Y-126828076D01*
X56704767Y-126819298D01*
X56771135Y-126583973D01*
X56772993Y-126574844D01*
X56781246Y-126509969D01*
X56778958Y-126495708D01*
X56765938Y-126492000D01*
X55366115Y-126492000D01*
X55350876Y-126496475D01*
X55349671Y-126497865D01*
X55348000Y-126505548D01*
X55348000Y-127910360D01*
X54839506Y-127910360D01*
X54840000Y-127908808D01*
X54840000Y-125965885D01*
X55348000Y-125965885D01*
X55352475Y-125981124D01*
X55353865Y-125982329D01*
X55361548Y-125984000D01*
X56769671Y-125984000D01*
X56783202Y-125980027D01*
X56784634Y-125970068D01*
X56732979Y-125741786D01*
X56730255Y-125732875D01*
X56641633Y-125504983D01*
X56637619Y-125496567D01*
X56516286Y-125284281D01*
X56511070Y-125276548D01*
X56359692Y-125084525D01*
X56353399Y-125077657D01*
X56175294Y-124910112D01*
X56168060Y-124904254D01*
X55967141Y-124764872D01*
X55959115Y-124760144D01*
X55739810Y-124651995D01*
X55731177Y-124648507D01*
X55498288Y-124573958D01*
X55489238Y-124571785D01*
X55365880Y-124551696D01*
X55352286Y-124553393D01*
X55348000Y-124567500D01*
X55348000Y-125965885D01*
X54840000Y-125965885D01*
X54840000Y-124566859D01*
X54835982Y-124553175D01*
X54822290Y-124551154D01*
X54742521Y-124562010D01*
X54733403Y-124563948D01*
X54498668Y-124632367D01*
X54489915Y-124635639D01*
X54267869Y-124738004D01*
X54259713Y-124742524D01*
X54170085Y-124801287D01*
X54102149Y-124821910D01*
X54033849Y-124802530D01*
X53986869Y-124749301D01*
X53975000Y-124695915D01*
X53975000Y-103378000D01*
X50672000Y-103378000D01*
X50603879Y-103357998D01*
X50557386Y-103304342D01*
X50546000Y-103252000D01*
X50546000Y-96533447D01*
X57641420Y-96533447D01*
X57648810Y-96543749D01*
X57697283Y-96583212D01*
X57704562Y-96588327D01*
X57934360Y-96726677D01*
X57942284Y-96730714D01*
X58189289Y-96835308D01*
X58197694Y-96838186D01*
X58456983Y-96906934D01*
X58465704Y-96908598D01*
X58732098Y-96940128D01*
X58740963Y-96940546D01*
X59009128Y-96934226D01*
X59017988Y-96933389D01*
X59282574Y-96889350D01*
X59291231Y-96887271D01*
X59546980Y-96806389D01*
X59555241Y-96803118D01*
X59797045Y-96687005D01*
X59804770Y-96682599D01*
X60009587Y-96545745D01*
X60017875Y-96535827D01*
X60010618Y-96521648D01*
X58841752Y-95352782D01*
X58827808Y-95345168D01*
X58825975Y-95345299D01*
X58819360Y-95349550D01*
X57648586Y-96520324D01*
X57641420Y-96533447D01*
X50546000Y-96533447D01*
X50546000Y-94923582D01*
X56868014Y-94923582D01*
X56878545Y-95191617D01*
X56879520Y-95200446D01*
X56927713Y-95464327D01*
X56929922Y-95472929D01*
X57014814Y-95727382D01*
X57018218Y-95735600D01*
X57138116Y-95975554D01*
X57142634Y-95983193D01*
X57265019Y-96160271D01*
X57275337Y-96168622D01*
X57288992Y-96161498D01*
X58456918Y-94993572D01*
X58464532Y-94979628D01*
X58464401Y-94977795D01*
X58460150Y-94971180D01*
X57289817Y-93800847D01*
X57276977Y-93793836D01*
X57266285Y-93801633D01*
X57208910Y-93874414D01*
X57203915Y-93881763D01*
X57069179Y-94113728D01*
X57065280Y-94121686D01*
X56964575Y-94370314D01*
X56961826Y-94378776D01*
X56897163Y-94639096D01*
X56895634Y-94647857D01*
X56868293Y-94914699D01*
X56868014Y-94923582D01*
X50546000Y-94923582D01*
X50546000Y-93428272D01*
X57641807Y-93428272D01*
X57648787Y-93441397D01*
X58816128Y-94608738D01*
X58830072Y-94616352D01*
X58831905Y-94616221D01*
X58838520Y-94611970D01*
X60008755Y-93441735D01*
X60015609Y-93429183D01*
X60007402Y-93418113D01*
X59909702Y-93343550D01*
X59902277Y-93338673D01*
X59668238Y-93207605D01*
X59660185Y-93203816D01*
X59410022Y-93107035D01*
X59401532Y-93104423D01*
X59140214Y-93043853D01*
X59131436Y-93042463D01*
X58864191Y-93019317D01*
X58855320Y-93019177D01*
X58587471Y-93033918D01*
X58578661Y-93035032D01*
X58315575Y-93087362D01*
X58307000Y-93089708D01*
X58053916Y-93178584D01*
X58045749Y-93182118D01*
X57807713Y-93305769D01*
X57800141Y-93310409D01*
X57650210Y-93417550D01*
X57641807Y-93428272D01*
X50546000Y-93428272D01*
X50546000Y-85089000D01*
X50566002Y-85020879D01*
X50619658Y-84974386D01*
X50672000Y-84963000D01*
X52100576Y-84963000D01*
X52168697Y-84983002D01*
X52189671Y-84999905D01*
X52914595Y-85724829D01*
X52948621Y-85787141D01*
X52951500Y-85813924D01*
X52951500Y-86142134D01*
X52958255Y-86204316D01*
X53009385Y-86340705D01*
X53096739Y-86457261D01*
X53213295Y-86544615D01*
X53349684Y-86595745D01*
X53411866Y-86602500D01*
X54508134Y-86602500D01*
X54570316Y-86595745D01*
X54577716Y-86592971D01*
X54581942Y-86591966D01*
X54640239Y-86591966D01*
X54657646Y-86596105D01*
X54708514Y-86601631D01*
X54715328Y-86602000D01*
X54987885Y-86602000D01*
X55003124Y-86597525D01*
X55004329Y-86596135D01*
X55006000Y-86588452D01*
X55006000Y-86583884D01*
X55514000Y-86583884D01*
X55518475Y-86599123D01*
X55519865Y-86600328D01*
X55527548Y-86601999D01*
X55804669Y-86601999D01*
X55811490Y-86601629D01*
X55862352Y-86596105D01*
X55877604Y-86592479D01*
X55998054Y-86547324D01*
X56013649Y-86538786D01*
X56115724Y-86462285D01*
X56128285Y-86449724D01*
X56204786Y-86347649D01*
X56213324Y-86332054D01*
X56258478Y-86211606D01*
X56262105Y-86196351D01*
X56267631Y-86145486D01*
X56268000Y-86138672D01*
X56268000Y-85616115D01*
X56263525Y-85600876D01*
X56262135Y-85599671D01*
X56254452Y-85598000D01*
X55532115Y-85598000D01*
X55516876Y-85602475D01*
X55515671Y-85603865D01*
X55514000Y-85611548D01*
X55514000Y-86583884D01*
X55006000Y-86583884D01*
X55006000Y-85071885D01*
X55514000Y-85071885D01*
X55518475Y-85087124D01*
X55519865Y-85088329D01*
X55527548Y-85090000D01*
X56249884Y-85090000D01*
X56265123Y-85085525D01*
X56266328Y-85084135D01*
X56267999Y-85076452D01*
X56267999Y-84549331D01*
X56267629Y-84542510D01*
X56262105Y-84491648D01*
X56258479Y-84476396D01*
X56213324Y-84355946D01*
X56204786Y-84340351D01*
X56128285Y-84238276D01*
X56115724Y-84225715D01*
X56013649Y-84149214D01*
X55998054Y-84140676D01*
X55877606Y-84095522D01*
X55862351Y-84091895D01*
X55811486Y-84086369D01*
X55804672Y-84086000D01*
X55532115Y-84086000D01*
X55516876Y-84090475D01*
X55515671Y-84091865D01*
X55514000Y-84099548D01*
X55514000Y-85071885D01*
X55006000Y-85071885D01*
X55006000Y-84104116D01*
X55001525Y-84088877D01*
X55000135Y-84087672D01*
X54992452Y-84086001D01*
X54715331Y-84086001D01*
X54708510Y-84086371D01*
X54657651Y-84091895D01*
X54640236Y-84096035D01*
X54581942Y-84096034D01*
X54577716Y-84095029D01*
X54570316Y-84092255D01*
X54508134Y-84085500D01*
X54179924Y-84085500D01*
X54111803Y-84065498D01*
X54090829Y-84048595D01*
X54008585Y-83966351D01*
X53974559Y-83904039D01*
X53971681Y-83877641D01*
X53971485Y-83813284D01*
X53963498Y-81201120D01*
X53958719Y-79637974D01*
X53978512Y-79569793D01*
X54032026Y-79523136D01*
X54102268Y-79512817D01*
X54166939Y-79542113D01*
X54173813Y-79548494D01*
X55378230Y-80752911D01*
X55390616Y-80767323D01*
X55399149Y-80778918D01*
X55399154Y-80778923D01*
X55403492Y-80784818D01*
X55409070Y-80789557D01*
X55409073Y-80789560D01*
X55443768Y-80819035D01*
X55451284Y-80825965D01*
X55456979Y-80831660D01*
X55459861Y-80833940D01*
X55479251Y-80849281D01*
X55482655Y-80852072D01*
X55500973Y-80867634D01*
X55538285Y-80899333D01*
X55544801Y-80902661D01*
X55549850Y-80906028D01*
X55554979Y-80909195D01*
X55560716Y-80913734D01*
X55626875Y-80944655D01*
X55630769Y-80946558D01*
X55695808Y-80979769D01*
X55702916Y-80981508D01*
X55708559Y-80983607D01*
X55714322Y-80985524D01*
X55720950Y-80988622D01*
X55728112Y-80990112D01*
X55728113Y-80990112D01*
X55792412Y-81003486D01*
X55796696Y-81004456D01*
X55867610Y-81021808D01*
X55873212Y-81022156D01*
X55873215Y-81022156D01*
X55878764Y-81022500D01*
X55878762Y-81022536D01*
X55882755Y-81022775D01*
X55886947Y-81023149D01*
X55894115Y-81024640D01*
X55971520Y-81022546D01*
X55974928Y-81022500D01*
X57146350Y-81022500D01*
X57214471Y-81042502D01*
X57260964Y-81096158D01*
X57271068Y-81166432D01*
X57245299Y-81226507D01*
X57208493Y-81273194D01*
X57208492Y-81273196D01*
X57205736Y-81276692D01*
X57203499Y-81280544D01*
X57068732Y-81512562D01*
X57068729Y-81512568D01*
X57066498Y-81516409D01*
X57064828Y-81520532D01*
X56988496Y-81708988D01*
X56962425Y-81773353D01*
X56961354Y-81777666D01*
X56961352Y-81777671D01*
X56949943Y-81823602D01*
X56895594Y-82042397D01*
X56867338Y-82318174D01*
X56878222Y-82595181D01*
X56928028Y-82867891D01*
X57015762Y-83130863D01*
X57139674Y-83378849D01*
X57297291Y-83606902D01*
X57485468Y-83810472D01*
X57488922Y-83813284D01*
X57696995Y-83982682D01*
X57696999Y-83982685D01*
X57700452Y-83985496D01*
X57937952Y-84128483D01*
X57942047Y-84130217D01*
X57942049Y-84130218D01*
X58167573Y-84225715D01*
X58193229Y-84236579D01*
X58197522Y-84237717D01*
X58197527Y-84237719D01*
X58337302Y-84274779D01*
X58461191Y-84307627D01*
X58736490Y-84340211D01*
X59013634Y-84333680D01*
X59170160Y-84307627D01*
X59282703Y-84288895D01*
X59282707Y-84288894D01*
X59287093Y-84288164D01*
X59291334Y-84286823D01*
X59291337Y-84286822D01*
X59547164Y-84205914D01*
X59547166Y-84205913D01*
X59551410Y-84204571D01*
X59555421Y-84202645D01*
X59555426Y-84202643D01*
X59797293Y-84086500D01*
X59797294Y-84086499D01*
X59801312Y-84084570D01*
X59805018Y-84082094D01*
X60028105Y-83933033D01*
X60028109Y-83933030D01*
X60031813Y-83930555D01*
X60035130Y-83927584D01*
X60035134Y-83927581D01*
X60234995Y-83748570D01*
X60234996Y-83748569D01*
X60238313Y-83745598D01*
X60416692Y-83533390D01*
X60563392Y-83298165D01*
X60574136Y-83273864D01*
X60595259Y-83226083D01*
X60641098Y-83171867D01*
X60708970Y-83151039D01*
X60777329Y-83170213D01*
X60824470Y-83223300D01*
X60836500Y-83277030D01*
X60836500Y-85680123D01*
X60816498Y-85748244D01*
X60762842Y-85794737D01*
X60692568Y-85804841D01*
X60627988Y-85775347D01*
X60599612Y-85739955D01*
X60488106Y-85533298D01*
X60485993Y-85529382D01*
X60483352Y-85525807D01*
X60483348Y-85525800D01*
X60323943Y-85309985D01*
X60321290Y-85306393D01*
X60279207Y-85263643D01*
X60129942Y-85112016D01*
X60126811Y-85108835D01*
X60123272Y-85106134D01*
X60123265Y-85106128D01*
X59909976Y-84943352D01*
X59906436Y-84940650D01*
X59902547Y-84938472D01*
X59668453Y-84807373D01*
X59668452Y-84807373D01*
X59664562Y-84805194D01*
X59656563Y-84802100D01*
X59410170Y-84706776D01*
X59410164Y-84706774D01*
X59406015Y-84705169D01*
X59401683Y-84704165D01*
X59401680Y-84704164D01*
X59291345Y-84678590D01*
X59135954Y-84642572D01*
X58859767Y-84618652D01*
X58855332Y-84618896D01*
X58855328Y-84618896D01*
X58742885Y-84625084D01*
X58582965Y-84633885D01*
X58311071Y-84687969D01*
X58189395Y-84730698D01*
X58053716Y-84778344D01*
X58053708Y-84778347D01*
X58049509Y-84779822D01*
X58045556Y-84781875D01*
X58045550Y-84781878D01*
X57996471Y-84807373D01*
X57803500Y-84907614D01*
X57799885Y-84910197D01*
X57799879Y-84910201D01*
X57657374Y-85012037D01*
X57577951Y-85068794D01*
X57377362Y-85260146D01*
X57374606Y-85263642D01*
X57374605Y-85263643D01*
X57267885Y-85399016D01*
X57205736Y-85477852D01*
X57203499Y-85481704D01*
X57068732Y-85713722D01*
X57068729Y-85713728D01*
X57066498Y-85717569D01*
X57064828Y-85721692D01*
X56988496Y-85910148D01*
X56962425Y-85974513D01*
X56961354Y-85978826D01*
X56961352Y-85978831D01*
X56949943Y-86024762D01*
X56895594Y-86243557D01*
X56867338Y-86519334D01*
X56878222Y-86796341D01*
X56928028Y-87069051D01*
X57015762Y-87332023D01*
X57139674Y-87580009D01*
X57297291Y-87808062D01*
X57485468Y-88011632D01*
X57488922Y-88014444D01*
X57696995Y-88183842D01*
X57696999Y-88183845D01*
X57700452Y-88186656D01*
X57937952Y-88329643D01*
X57942047Y-88331377D01*
X57942049Y-88331378D01*
X58117640Y-88405731D01*
X58193229Y-88437739D01*
X58197522Y-88438877D01*
X58197527Y-88438879D01*
X58337302Y-88475939D01*
X58461191Y-88508787D01*
X58736490Y-88541371D01*
X59013634Y-88534840D01*
X59170160Y-88508787D01*
X59282703Y-88490055D01*
X59282707Y-88490054D01*
X59287093Y-88489324D01*
X59291334Y-88487983D01*
X59291337Y-88487982D01*
X59547164Y-88407074D01*
X59547166Y-88407073D01*
X59551410Y-88405731D01*
X59555421Y-88403805D01*
X59555426Y-88403803D01*
X59797293Y-88287660D01*
X59797294Y-88287659D01*
X59801312Y-88285730D01*
X59949588Y-88186656D01*
X60028105Y-88134193D01*
X60028109Y-88134190D01*
X60031813Y-88131715D01*
X60035130Y-88128744D01*
X60035134Y-88128741D01*
X60234995Y-87949730D01*
X60234996Y-87949729D01*
X60238313Y-87946758D01*
X60416692Y-87734550D01*
X60563392Y-87499325D01*
X60574136Y-87475024D01*
X60595259Y-87427243D01*
X60641098Y-87373027D01*
X60708970Y-87352199D01*
X60777329Y-87371373D01*
X60824470Y-87424460D01*
X60836500Y-87478190D01*
X60836500Y-89878743D01*
X60816498Y-89946864D01*
X60762842Y-89993357D01*
X60692568Y-90003461D01*
X60627988Y-89973967D01*
X60599612Y-89938575D01*
X60488106Y-89731918D01*
X60485993Y-89728002D01*
X60483352Y-89724427D01*
X60483348Y-89724420D01*
X60323943Y-89508605D01*
X60321290Y-89505013D01*
X60279207Y-89462263D01*
X60129942Y-89310636D01*
X60126811Y-89307455D01*
X60123272Y-89304754D01*
X60123265Y-89304748D01*
X59909976Y-89141972D01*
X59906436Y-89139270D01*
X59902547Y-89137092D01*
X59668453Y-89005993D01*
X59668452Y-89005993D01*
X59664562Y-89003814D01*
X59656563Y-89000720D01*
X59410170Y-88905396D01*
X59410164Y-88905394D01*
X59406015Y-88903789D01*
X59401683Y-88902785D01*
X59401680Y-88902784D01*
X59291345Y-88877210D01*
X59135954Y-88841192D01*
X58859767Y-88817272D01*
X58855332Y-88817516D01*
X58855328Y-88817516D01*
X58742885Y-88823704D01*
X58582965Y-88832505D01*
X58311071Y-88886589D01*
X58189395Y-88929318D01*
X58053716Y-88976964D01*
X58053708Y-88976967D01*
X58049509Y-88978442D01*
X58045556Y-88980495D01*
X58045550Y-88980498D01*
X57996471Y-89005993D01*
X57803500Y-89106234D01*
X57799885Y-89108817D01*
X57799879Y-89108821D01*
X57657374Y-89210657D01*
X57577951Y-89267414D01*
X57377362Y-89458766D01*
X57205736Y-89676472D01*
X57203499Y-89680324D01*
X57068732Y-89912342D01*
X57068729Y-89912348D01*
X57066498Y-89916189D01*
X57064828Y-89920312D01*
X56988496Y-90108768D01*
X56962425Y-90173133D01*
X56961354Y-90177446D01*
X56961352Y-90177451D01*
X56949943Y-90223382D01*
X56895594Y-90442177D01*
X56867338Y-90717954D01*
X56878222Y-90994961D01*
X56928028Y-91267671D01*
X57015762Y-91530643D01*
X57139674Y-91778629D01*
X57297291Y-92006682D01*
X57485468Y-92210252D01*
X57488922Y-92213064D01*
X57696995Y-92382462D01*
X57696999Y-92382465D01*
X57700452Y-92385276D01*
X57937952Y-92528263D01*
X57942047Y-92529997D01*
X57942049Y-92529998D01*
X58117640Y-92604351D01*
X58193229Y-92636359D01*
X58197522Y-92637497D01*
X58197527Y-92637499D01*
X58337302Y-92674559D01*
X58461191Y-92707407D01*
X58736490Y-92739991D01*
X59013634Y-92733460D01*
X59170160Y-92707407D01*
X59282703Y-92688675D01*
X59282707Y-92688674D01*
X59287093Y-92687944D01*
X59291334Y-92686603D01*
X59291337Y-92686602D01*
X59547164Y-92605694D01*
X59547166Y-92605693D01*
X59551410Y-92604351D01*
X59555421Y-92602425D01*
X59555426Y-92602423D01*
X59797293Y-92486280D01*
X59797294Y-92486279D01*
X59801312Y-92484350D01*
X59949588Y-92385276D01*
X60028105Y-92332813D01*
X60028109Y-92332810D01*
X60031813Y-92330335D01*
X60035130Y-92327364D01*
X60035134Y-92327361D01*
X60234995Y-92148350D01*
X60234996Y-92148349D01*
X60238313Y-92145378D01*
X60416692Y-91933170D01*
X60563392Y-91697945D01*
X60574136Y-91673644D01*
X60595259Y-91625863D01*
X60641098Y-91571647D01*
X60708970Y-91550819D01*
X60777329Y-91569993D01*
X60824470Y-91623080D01*
X60836500Y-91676810D01*
X60836500Y-94080956D01*
X60816498Y-94149077D01*
X60762842Y-94195570D01*
X60692568Y-94205674D01*
X60627988Y-94176180D01*
X60599612Y-94140788D01*
X60487686Y-93933353D01*
X60482924Y-93925848D01*
X60391787Y-93802458D01*
X60380662Y-93794018D01*
X60368066Y-93800844D01*
X59200962Y-94967948D01*
X59193348Y-94981892D01*
X59193479Y-94983725D01*
X59197730Y-94990340D01*
X60369286Y-96161896D01*
X60382686Y-96169213D01*
X60392591Y-96162226D01*
X60413422Y-96137443D01*
X60418642Y-96130258D01*
X60560595Y-95902645D01*
X60564747Y-95894805D01*
X60595259Y-95825787D01*
X60641098Y-95771571D01*
X60708971Y-95750743D01*
X60777329Y-95769917D01*
X60824470Y-95823004D01*
X60836500Y-95876734D01*
X60836500Y-99836629D01*
X60816498Y-99904750D01*
X60799595Y-99925724D01*
X58555990Y-102169329D01*
X58493678Y-102203355D01*
X58455913Y-102205755D01*
X58298475Y-102191981D01*
X58293000Y-102191502D01*
X58064913Y-102211457D01*
X58059600Y-102212881D01*
X58059598Y-102212881D01*
X57849067Y-102269293D01*
X57849065Y-102269294D01*
X57843757Y-102270716D01*
X57838776Y-102273039D01*
X57838775Y-102273039D01*
X57641238Y-102365151D01*
X57641233Y-102365154D01*
X57636251Y-102367477D01*
X57579080Y-102407509D01*
X57453211Y-102495643D01*
X57453208Y-102495645D01*
X57448700Y-102498802D01*
X57286802Y-102660700D01*
X57155477Y-102848251D01*
X57153154Y-102853233D01*
X57153151Y-102853238D01*
X57153034Y-102853489D01*
X57058716Y-103055757D01*
X57057294Y-103061065D01*
X57057293Y-103061067D01*
X57016462Y-103213450D01*
X56999457Y-103276913D01*
X56979502Y-103505000D01*
X56999457Y-103733087D01*
X57000881Y-103738400D01*
X57000881Y-103738402D01*
X57038025Y-103877022D01*
X57058716Y-103954243D01*
X57061039Y-103959224D01*
X57061039Y-103959225D01*
X57153151Y-104156762D01*
X57153154Y-104156767D01*
X57155477Y-104161749D01*
X57194312Y-104217211D01*
X57270776Y-104326412D01*
X57286802Y-104349300D01*
X57448700Y-104511198D01*
X57453208Y-104514355D01*
X57453211Y-104514357D01*
X57531389Y-104569098D01*
X57636251Y-104642523D01*
X57641233Y-104644846D01*
X57641238Y-104644849D01*
X57837765Y-104736490D01*
X57843757Y-104739284D01*
X57849065Y-104740706D01*
X57849067Y-104740707D01*
X58059598Y-104797119D01*
X58059600Y-104797119D01*
X58064913Y-104798543D01*
X58293000Y-104818498D01*
X58521087Y-104798543D01*
X58526400Y-104797119D01*
X58526402Y-104797119D01*
X58736933Y-104740707D01*
X58736935Y-104740706D01*
X58742243Y-104739284D01*
X58748235Y-104736490D01*
X58944762Y-104644849D01*
X58944767Y-104644846D01*
X58949749Y-104642523D01*
X59023243Y-104591062D01*
X62571493Y-104591062D01*
X62580789Y-104603077D01*
X62631994Y-104638931D01*
X62641489Y-104644414D01*
X62838947Y-104736490D01*
X62849239Y-104740236D01*
X63059688Y-104796625D01*
X63070481Y-104798528D01*
X63287525Y-104817517D01*
X63298475Y-104817517D01*
X63515519Y-104798528D01*
X63526312Y-104796625D01*
X63736761Y-104740236D01*
X63747053Y-104736490D01*
X63944511Y-104644414D01*
X63954006Y-104638931D01*
X64006048Y-104602491D01*
X64014424Y-104592012D01*
X64007356Y-104578566D01*
X63305812Y-103877022D01*
X63291868Y-103869408D01*
X63290035Y-103869539D01*
X63283420Y-103873790D01*
X62577923Y-104579287D01*
X62571493Y-104591062D01*
X59023243Y-104591062D01*
X59054611Y-104569098D01*
X59132789Y-104514357D01*
X59132792Y-104514355D01*
X59137300Y-104511198D01*
X59299198Y-104349300D01*
X59315225Y-104326412D01*
X59391688Y-104217211D01*
X59430523Y-104161749D01*
X59432846Y-104156767D01*
X59432849Y-104156762D01*
X59524961Y-103959225D01*
X59524961Y-103959224D01*
X59527284Y-103954243D01*
X59547976Y-103877022D01*
X59585119Y-103738402D01*
X59585119Y-103738400D01*
X59586543Y-103733087D01*
X59606019Y-103510475D01*
X61980483Y-103510475D01*
X61999472Y-103727519D01*
X62001375Y-103738312D01*
X62057764Y-103948761D01*
X62061510Y-103959053D01*
X62153586Y-104156511D01*
X62159069Y-104166006D01*
X62195509Y-104218048D01*
X62205988Y-104226424D01*
X62219434Y-104219356D01*
X62920978Y-103517812D01*
X62927356Y-103506132D01*
X63657408Y-103506132D01*
X63657539Y-103507965D01*
X63661790Y-103514580D01*
X64367287Y-104220077D01*
X64379062Y-104226507D01*
X64391077Y-104217211D01*
X64426931Y-104166006D01*
X64432414Y-104156511D01*
X64524490Y-103959053D01*
X64528236Y-103948761D01*
X64584625Y-103738312D01*
X64586528Y-103727519D01*
X64605517Y-103510475D01*
X64605517Y-103499525D01*
X64586528Y-103282481D01*
X64584625Y-103271688D01*
X64528236Y-103061239D01*
X64524490Y-103050947D01*
X64432414Y-102853489D01*
X64426931Y-102843994D01*
X64390491Y-102791952D01*
X64380012Y-102783576D01*
X64366566Y-102790644D01*
X63665022Y-103492188D01*
X63657408Y-103506132D01*
X62927356Y-103506132D01*
X62928592Y-103503868D01*
X62928461Y-103502035D01*
X62924210Y-103495420D01*
X62218713Y-102789923D01*
X62206938Y-102783493D01*
X62194923Y-102792789D01*
X62159069Y-102843994D01*
X62153586Y-102853489D01*
X62061510Y-103050947D01*
X62057764Y-103061239D01*
X62001375Y-103271688D01*
X61999472Y-103282481D01*
X61980483Y-103499525D01*
X61980483Y-103510475D01*
X59606019Y-103510475D01*
X59606498Y-103505000D01*
X59592245Y-103342087D01*
X59606234Y-103272482D01*
X59628671Y-103242010D01*
X60452693Y-102417988D01*
X62571576Y-102417988D01*
X62578644Y-102431434D01*
X63280188Y-103132978D01*
X63294132Y-103140592D01*
X63295965Y-103140461D01*
X63302580Y-103136210D01*
X64008077Y-102430713D01*
X64014507Y-102418938D01*
X64005211Y-102406923D01*
X63954006Y-102371069D01*
X63944511Y-102365586D01*
X63747053Y-102273510D01*
X63736761Y-102269764D01*
X63526312Y-102213375D01*
X63515519Y-102211472D01*
X63298475Y-102192483D01*
X63287525Y-102192483D01*
X63070481Y-102211472D01*
X63059688Y-102213375D01*
X62849239Y-102269764D01*
X62838947Y-102273510D01*
X62641489Y-102365586D01*
X62631994Y-102371069D01*
X62579952Y-102407509D01*
X62571576Y-102417988D01*
X60452693Y-102417988D01*
X62083911Y-100786770D01*
X62098323Y-100774384D01*
X62109918Y-100765851D01*
X62109923Y-100765846D01*
X62115818Y-100761508D01*
X62120557Y-100755930D01*
X62120560Y-100755927D01*
X62150035Y-100721232D01*
X62156965Y-100713716D01*
X62162660Y-100708021D01*
X62180281Y-100685749D01*
X62183072Y-100682345D01*
X62225591Y-100632297D01*
X62225592Y-100632295D01*
X62230333Y-100626715D01*
X62233661Y-100620199D01*
X62237028Y-100615150D01*
X62240195Y-100610021D01*
X62244734Y-100604284D01*
X62275655Y-100538125D01*
X62277561Y-100534225D01*
X62310769Y-100469192D01*
X62312508Y-100462084D01*
X62314607Y-100456441D01*
X62316524Y-100450678D01*
X62319622Y-100444050D01*
X62334487Y-100372583D01*
X62335457Y-100368299D01*
X62351473Y-100302845D01*
X62352808Y-100297390D01*
X62353500Y-100286236D01*
X62353536Y-100286238D01*
X62353775Y-100282245D01*
X62354149Y-100278053D01*
X62355640Y-100270885D01*
X62353546Y-100193479D01*
X62353500Y-100190072D01*
X62353500Y-95942925D01*
X62373502Y-95874804D01*
X62427158Y-95828311D01*
X62497432Y-95818207D01*
X62562012Y-95847701D01*
X62592213Y-95886606D01*
X62638774Y-95979789D01*
X62796391Y-96207842D01*
X62984568Y-96411412D01*
X62988022Y-96414224D01*
X63196095Y-96583622D01*
X63196099Y-96583625D01*
X63199552Y-96586436D01*
X63437052Y-96729423D01*
X63441147Y-96731157D01*
X63441149Y-96731158D01*
X63687108Y-96835308D01*
X63692329Y-96837519D01*
X63696622Y-96838657D01*
X63696627Y-96838659D01*
X63817971Y-96870832D01*
X63960291Y-96908567D01*
X64235590Y-96941151D01*
X64512734Y-96934620D01*
X64669260Y-96908567D01*
X64781803Y-96889835D01*
X64781807Y-96889834D01*
X64786193Y-96889104D01*
X64790434Y-96887763D01*
X64790437Y-96887762D01*
X65046264Y-96806854D01*
X65046266Y-96806853D01*
X65050510Y-96805511D01*
X65054521Y-96803585D01*
X65054526Y-96803583D01*
X65296393Y-96687440D01*
X65296394Y-96687439D01*
X65300412Y-96685510D01*
X65304769Y-96682599D01*
X65527205Y-96533973D01*
X65527209Y-96533970D01*
X65530913Y-96531495D01*
X65534230Y-96528524D01*
X65534234Y-96528521D01*
X65734095Y-96349510D01*
X65734096Y-96349509D01*
X65737413Y-96346538D01*
X65915792Y-96134330D01*
X66062492Y-95899105D01*
X66073236Y-95874804D01*
X66172784Y-95649628D01*
X66174584Y-95645557D01*
X66180231Y-95625534D01*
X66217972Y-95565400D01*
X66282233Y-95535217D01*
X66352611Y-95544567D01*
X66406762Y-95590483D01*
X66427500Y-95659735D01*
X66427500Y-104598930D01*
X66426067Y-104617880D01*
X66422801Y-104639349D01*
X66423394Y-104646641D01*
X66423394Y-104646644D01*
X66427085Y-104692018D01*
X66427500Y-104702233D01*
X66427500Y-104710293D01*
X66427925Y-104713937D01*
X66430789Y-104738507D01*
X66431222Y-104742882D01*
X66436342Y-104805821D01*
X66437140Y-104815637D01*
X66439396Y-104822601D01*
X66440587Y-104828560D01*
X66441971Y-104834415D01*
X66442818Y-104841681D01*
X66467735Y-104910327D01*
X66469152Y-104914455D01*
X66491649Y-104983899D01*
X66495445Y-104990154D01*
X66497951Y-104995628D01*
X66500670Y-105001058D01*
X66503167Y-105007937D01*
X66507180Y-105014057D01*
X66507180Y-105014058D01*
X66543186Y-105068976D01*
X66545523Y-105072680D01*
X66583405Y-105135107D01*
X66587121Y-105139315D01*
X66587122Y-105139316D01*
X66590803Y-105143484D01*
X66590776Y-105143508D01*
X66593429Y-105146500D01*
X66596132Y-105149733D01*
X66600144Y-105155852D01*
X66605456Y-105160884D01*
X66656383Y-105209128D01*
X66658825Y-105211506D01*
X67462474Y-106015155D01*
X67496500Y-106077467D01*
X67491435Y-106148282D01*
X67470743Y-106184226D01*
X67433138Y-106230007D01*
X67396085Y-106275116D01*
X67272683Y-106487142D01*
X67270868Y-106491871D01*
X67198103Y-106681432D01*
X67184768Y-106716170D01*
X67134600Y-106956308D01*
X67123472Y-107201377D01*
X67151668Y-107445074D01*
X67218465Y-107681127D01*
X67220602Y-107685709D01*
X67275822Y-107804129D01*
X67322142Y-107903464D01*
X67460034Y-108106365D01*
X67628592Y-108284610D01*
X67823479Y-108433613D01*
X67827937Y-108436003D01*
X67827938Y-108436004D01*
X67998212Y-108527304D01*
X68039682Y-108549540D01*
X68271639Y-108629409D01*
X68397521Y-108651153D01*
X68509471Y-108670490D01*
X68509477Y-108670491D01*
X68513381Y-108671165D01*
X68517342Y-108671345D01*
X68517343Y-108671345D01*
X68541359Y-108672436D01*
X68541378Y-108672436D01*
X68542778Y-108672500D01*
X70745646Y-108672500D01*
X70748154Y-108672298D01*
X70748159Y-108672298D01*
X70923490Y-108658191D01*
X70923494Y-108658190D01*
X70928532Y-108657785D01*
X70933440Y-108656579D01*
X70933443Y-108656579D01*
X71161859Y-108600475D01*
X71166773Y-108599268D01*
X71171425Y-108597293D01*
X71171429Y-108597292D01*
X71387938Y-108505389D01*
X71387939Y-108505389D01*
X71392593Y-108503413D01*
X71600183Y-108372687D01*
X71784201Y-108210452D01*
X71939915Y-108020884D01*
X72063317Y-107808858D01*
X72151232Y-107579830D01*
X72201400Y-107339692D01*
X72212528Y-107094623D01*
X72199840Y-106984956D01*
X72184914Y-106855956D01*
X72184332Y-106850926D01*
X72117535Y-106614873D01*
X72065696Y-106503704D01*
X72015995Y-106397118D01*
X72015993Y-106397114D01*
X72013858Y-106392536D01*
X71875966Y-106189635D01*
X71707408Y-106011390D01*
X71512521Y-105862387D01*
X71296318Y-105746460D01*
X71064361Y-105666591D01*
X70938479Y-105644847D01*
X70826529Y-105625510D01*
X70826523Y-105625509D01*
X70822619Y-105624835D01*
X70818658Y-105624655D01*
X70818657Y-105624655D01*
X70794641Y-105623564D01*
X70794622Y-105623564D01*
X70793222Y-105623500D01*
X69268371Y-105623500D01*
X69200250Y-105603498D01*
X69179276Y-105586595D01*
X67981405Y-104388724D01*
X67947379Y-104326412D01*
X67944500Y-104299629D01*
X67944500Y-103692882D01*
X67964502Y-103624761D01*
X68018158Y-103578268D01*
X68088432Y-103568164D01*
X68111522Y-103573747D01*
X68266975Y-103627274D01*
X68276756Y-103629785D01*
X68509517Y-103669990D01*
X68517389Y-103670845D01*
X68541405Y-103671936D01*
X68544238Y-103672000D01*
X69395885Y-103672000D01*
X69411124Y-103667525D01*
X69412329Y-103666135D01*
X69414000Y-103658452D01*
X69414000Y-103653885D01*
X69922000Y-103653885D01*
X69926475Y-103669124D01*
X69927865Y-103670329D01*
X69935548Y-103672000D01*
X70743104Y-103672000D01*
X70748136Y-103671798D01*
X70923411Y-103657696D01*
X70933363Y-103656084D01*
X71161700Y-103599999D01*
X71171270Y-103596816D01*
X71387705Y-103504944D01*
X71396644Y-103500270D01*
X71595596Y-103374984D01*
X71603677Y-103368939D01*
X71780044Y-103213450D01*
X71787055Y-103206189D01*
X71936291Y-103024507D01*
X71942047Y-103016225D01*
X72060317Y-102813017D01*
X72064679Y-102803912D01*
X72148938Y-102584412D01*
X72151786Y-102574735D01*
X72184167Y-102419736D01*
X72183044Y-102405675D01*
X72172937Y-102402000D01*
X69940115Y-102402000D01*
X69924876Y-102406475D01*
X69923671Y-102407865D01*
X69922000Y-102415548D01*
X69922000Y-103653885D01*
X69414000Y-103653885D01*
X69414000Y-101875885D01*
X69922000Y-101875885D01*
X69926475Y-101891124D01*
X69927865Y-101892329D01*
X69935548Y-101894000D01*
X72170697Y-101894000D01*
X72184783Y-101889864D01*
X72186832Y-101876886D01*
X72184420Y-101856041D01*
X72182464Y-101846165D01*
X72118441Y-101619911D01*
X72114929Y-101610467D01*
X72015557Y-101397365D01*
X72010578Y-101388600D01*
X71878424Y-101194142D01*
X71872092Y-101186266D01*
X71710555Y-101015445D01*
X71703046Y-101008684D01*
X71516269Y-100865882D01*
X71507790Y-100860418D01*
X71300578Y-100749312D01*
X71291332Y-100745273D01*
X71069025Y-100668726D01*
X71059244Y-100666215D01*
X70826483Y-100626010D01*
X70818611Y-100625155D01*
X70794595Y-100624064D01*
X70791762Y-100624000D01*
X69940115Y-100624000D01*
X69924876Y-100628475D01*
X69923671Y-100629865D01*
X69922000Y-100637548D01*
X69922000Y-101875885D01*
X69414000Y-101875885D01*
X69414000Y-100642115D01*
X69409525Y-100626876D01*
X69408135Y-100625671D01*
X69400452Y-100624000D01*
X68592896Y-100624000D01*
X68587864Y-100624202D01*
X68412589Y-100638304D01*
X68402637Y-100639916D01*
X68174300Y-100696001D01*
X68164730Y-100699184D01*
X68119732Y-100718285D01*
X68049211Y-100726490D01*
X67985450Y-100695266D01*
X67948691Y-100634526D01*
X67944500Y-100602301D01*
X67944500Y-94910498D01*
X69615952Y-94910498D01*
X69616105Y-94914886D01*
X69616105Y-94914892D01*
X69618445Y-94981892D01*
X69625755Y-95191204D01*
X69674529Y-95467815D01*
X69675884Y-95471986D01*
X69675886Y-95471993D01*
X69736887Y-95659735D01*
X69761325Y-95734946D01*
X69763253Y-95738899D01*
X69763255Y-95738904D01*
X69779188Y-95771571D01*
X69884454Y-95987397D01*
X70041518Y-96220255D01*
X70044462Y-96223524D01*
X70044463Y-96223526D01*
X70216168Y-96414224D01*
X70229462Y-96428988D01*
X70444627Y-96609533D01*
X70682825Y-96758375D01*
X70939420Y-96872619D01*
X70943648Y-96873831D01*
X70943647Y-96873831D01*
X71178055Y-96941046D01*
X71209417Y-96950039D01*
X71213767Y-96950650D01*
X71213770Y-96950651D01*
X71315800Y-96964990D01*
X71487561Y-96989130D01*
X71698131Y-96989130D01*
X71700317Y-96988977D01*
X71700321Y-96988977D01*
X71903809Y-96974748D01*
X71903814Y-96974747D01*
X71908194Y-96974441D01*
X71912488Y-96973528D01*
X71912490Y-96973528D01*
X72028698Y-96948827D01*
X72182934Y-96916043D01*
X72187065Y-96914539D01*
X72187070Y-96914538D01*
X72332104Y-96861749D01*
X72446872Y-96819977D01*
X72562729Y-96758375D01*
X72690981Y-96690183D01*
X72690987Y-96690179D01*
X72694873Y-96688113D01*
X72698433Y-96685526D01*
X72698437Y-96685524D01*
X72918545Y-96525606D01*
X72918548Y-96525604D01*
X72922108Y-96523017D01*
X72925275Y-96519959D01*
X73120989Y-96330960D01*
X73120993Y-96330955D01*
X73124154Y-96327903D01*
X73297080Y-96106569D01*
X73334278Y-96042140D01*
X73435314Y-95867141D01*
X73435317Y-95867136D01*
X73437519Y-95863321D01*
X73439169Y-95859237D01*
X73439172Y-95859231D01*
X73541088Y-95606978D01*
X73541089Y-95606975D01*
X73542737Y-95602896D01*
X73610688Y-95330361D01*
X73624798Y-95196121D01*
X73639589Y-95055391D01*
X73639589Y-95055388D01*
X73640048Y-95051022D01*
X73637595Y-94980760D01*
X73630399Y-94774714D01*
X73630398Y-94774708D01*
X73630245Y-94770316D01*
X73581471Y-94493705D01*
X73580116Y-94489534D01*
X73580114Y-94489527D01*
X73496036Y-94230763D01*
X73494675Y-94226574D01*
X73484482Y-94205674D01*
X73411291Y-94055613D01*
X73371546Y-93974123D01*
X73214482Y-93741265D01*
X73026538Y-93532532D01*
X72811373Y-93351987D01*
X72573175Y-93203145D01*
X72393702Y-93123238D01*
X72320594Y-93090688D01*
X72320592Y-93090687D01*
X72316580Y-93088901D01*
X72073422Y-93019177D01*
X72050810Y-93012693D01*
X72050809Y-93012693D01*
X72046583Y-93011481D01*
X72042233Y-93010870D01*
X72042230Y-93010869D01*
X71940200Y-92996530D01*
X71768439Y-92972390D01*
X71557869Y-92972390D01*
X71555683Y-92972543D01*
X71555679Y-92972543D01*
X71352191Y-92986772D01*
X71352186Y-92986773D01*
X71347806Y-92987079D01*
X71343512Y-92987992D01*
X71343510Y-92987992D01*
X71235883Y-93010869D01*
X71073066Y-93045477D01*
X71068935Y-93046981D01*
X71068930Y-93046982D01*
X70959307Y-93086882D01*
X70809128Y-93141543D01*
X70805241Y-93143610D01*
X70565019Y-93271337D01*
X70565013Y-93271341D01*
X70561127Y-93273407D01*
X70557567Y-93275994D01*
X70557563Y-93275996D01*
X70337455Y-93435914D01*
X70333892Y-93438503D01*
X70330728Y-93441559D01*
X70330725Y-93441561D01*
X70135011Y-93630560D01*
X70135007Y-93630565D01*
X70131846Y-93633617D01*
X69958920Y-93854951D01*
X69956717Y-93858767D01*
X69892221Y-93970478D01*
X69818481Y-94098199D01*
X69816831Y-94102283D01*
X69816828Y-94102289D01*
X69766614Y-94226574D01*
X69713263Y-94358624D01*
X69712198Y-94362893D01*
X69712198Y-94362895D01*
X69701662Y-94405152D01*
X69645312Y-94631159D01*
X69644853Y-94635529D01*
X69644852Y-94635533D01*
X69616411Y-94906129D01*
X69615952Y-94910498D01*
X67944500Y-94910498D01*
X67944500Y-65822138D01*
X67945933Y-65803187D01*
X67948099Y-65788952D01*
X67948099Y-65788950D01*
X67949199Y-65781720D01*
X67944915Y-65729051D01*
X67944500Y-65718836D01*
X67944500Y-65710776D01*
X67941211Y-65682562D01*
X67940778Y-65678187D01*
X67935454Y-65612730D01*
X67935453Y-65612727D01*
X67934860Y-65605432D01*
X67932604Y-65598468D01*
X67931413Y-65592509D01*
X67930029Y-65586654D01*
X67929182Y-65579388D01*
X67904265Y-65510742D01*
X67902848Y-65506614D01*
X67882607Y-65444133D01*
X67882606Y-65444131D01*
X67880351Y-65437170D01*
X67876555Y-65430915D01*
X67874049Y-65425441D01*
X67871330Y-65420011D01*
X67868833Y-65413132D01*
X67828814Y-65352093D01*
X67826467Y-65348374D01*
X67788595Y-65285962D01*
X67782146Y-65278659D01*
X67781197Y-65277585D01*
X67781224Y-65277561D01*
X67778571Y-65274569D01*
X67775868Y-65271336D01*
X67771856Y-65265217D01*
X67715617Y-65211941D01*
X67713175Y-65209563D01*
X65576311Y-63072699D01*
X65542285Y-63010387D01*
X65547350Y-62939572D01*
X65581339Y-62889749D01*
X65737413Y-62749958D01*
X65915792Y-62537750D01*
X66062492Y-62302525D01*
X66174584Y-62048977D01*
X66249833Y-61782164D01*
X66273774Y-61603921D01*
X66286310Y-61510593D01*
X66286311Y-61510585D01*
X66286737Y-61507411D01*
X66290610Y-61384180D01*
X66271031Y-61107651D01*
X66226629Y-60901409D01*
X66213620Y-60840987D01*
X66213620Y-60840985D01*
X66212684Y-60836640D01*
X66116733Y-60576554D01*
X65985093Y-60332582D01*
X65982452Y-60329007D01*
X65982448Y-60329000D01*
X65823043Y-60113185D01*
X65820390Y-60109593D01*
X65778307Y-60066843D01*
X65629042Y-59915216D01*
X65625911Y-59912035D01*
X65622372Y-59909334D01*
X65622365Y-59909328D01*
X65409076Y-59746552D01*
X65405536Y-59743850D01*
X65401647Y-59741672D01*
X65167553Y-59610573D01*
X65167552Y-59610573D01*
X65163662Y-59608394D01*
X65155663Y-59605300D01*
X64909270Y-59509976D01*
X64909264Y-59509974D01*
X64905115Y-59508369D01*
X64900783Y-59507365D01*
X64900780Y-59507364D01*
X64790445Y-59481790D01*
X64635054Y-59445772D01*
X64358867Y-59421852D01*
X64354432Y-59422096D01*
X64354428Y-59422096D01*
X64241985Y-59428284D01*
X64082065Y-59437085D01*
X63810171Y-59491169D01*
X63688495Y-59533898D01*
X63552816Y-59581544D01*
X63552808Y-59581547D01*
X63548609Y-59583022D01*
X63544656Y-59585075D01*
X63544650Y-59585078D01*
X63495571Y-59610573D01*
X63302600Y-59710814D01*
X63298985Y-59713397D01*
X63298979Y-59713401D01*
X63156474Y-59815237D01*
X63077051Y-59871994D01*
X62876462Y-60063346D01*
X62704836Y-60281052D01*
X62702599Y-60284904D01*
X62567832Y-60516922D01*
X62567829Y-60516928D01*
X62565598Y-60520769D01*
X62461525Y-60777713D01*
X62460454Y-60782026D01*
X62460452Y-60782031D01*
X62430799Y-60901409D01*
X62394694Y-61046757D01*
X62366438Y-61322534D01*
X62377322Y-61599541D01*
X62427128Y-61872251D01*
X62514862Y-62135223D01*
X62638774Y-62383209D01*
X62641303Y-62386868D01*
X62749807Y-62543861D01*
X62772083Y-62611273D01*
X62754378Y-62680026D01*
X62702312Y-62728293D01*
X62646154Y-62741500D01*
X61311131Y-62741500D01*
X61243010Y-62721498D01*
X61222036Y-62704595D01*
X60702908Y-62185467D01*
X60668882Y-62123155D01*
X60673452Y-62053692D01*
X60673684Y-62053048D01*
X60675484Y-62048977D01*
X60750733Y-61782164D01*
X60774674Y-61603921D01*
X60787210Y-61510593D01*
X60787211Y-61510585D01*
X60787637Y-61507411D01*
X60791510Y-61384180D01*
X60771931Y-61107651D01*
X60727529Y-60901409D01*
X60714520Y-60840987D01*
X60714520Y-60840985D01*
X60713584Y-60836640D01*
X60617633Y-60576554D01*
X60485993Y-60332582D01*
X60483352Y-60329007D01*
X60483348Y-60329000D01*
X60323943Y-60113185D01*
X60321290Y-60109593D01*
X60279207Y-60066843D01*
X60129942Y-59915216D01*
X60126811Y-59912035D01*
X60123272Y-59909334D01*
X60123265Y-59909328D01*
X59909976Y-59746552D01*
X59906436Y-59743850D01*
X59902547Y-59741672D01*
X59668453Y-59610573D01*
X59668452Y-59610573D01*
X59664562Y-59608394D01*
X59656563Y-59605300D01*
X59410170Y-59509976D01*
X59410164Y-59509974D01*
X59406015Y-59508369D01*
X59401683Y-59507365D01*
X59401680Y-59507364D01*
X59291345Y-59481790D01*
X59135954Y-59445772D01*
X58859767Y-59421852D01*
X58855332Y-59422096D01*
X58855328Y-59422096D01*
X58742885Y-59428284D01*
X58582965Y-59437085D01*
X58311071Y-59491169D01*
X58189395Y-59533898D01*
X58053716Y-59581544D01*
X58053708Y-59581547D01*
X58049509Y-59583022D01*
X58045556Y-59585075D01*
X58045550Y-59585078D01*
X57996471Y-59610573D01*
X57803500Y-59710814D01*
X57799885Y-59713397D01*
X57799879Y-59713401D01*
X57657374Y-59815237D01*
X57577951Y-59871994D01*
X57377362Y-60063346D01*
X57205736Y-60281052D01*
X57203499Y-60284904D01*
X57068732Y-60516922D01*
X57068729Y-60516928D01*
X57066498Y-60520769D01*
X56962425Y-60777713D01*
X56961354Y-60782026D01*
X56961352Y-60782031D01*
X56931699Y-60901409D01*
X56895594Y-61046757D01*
X56867338Y-61322534D01*
X56878222Y-61599541D01*
X56928028Y-61872251D01*
X57015762Y-62135223D01*
X57139674Y-62383209D01*
X57297291Y-62611262D01*
X57485468Y-62814832D01*
X57488922Y-62817644D01*
X57696995Y-62987042D01*
X57696999Y-62987045D01*
X57700452Y-62989856D01*
X57937952Y-63132843D01*
X57942047Y-63134577D01*
X57942049Y-63134578D01*
X58155345Y-63224897D01*
X58193229Y-63240939D01*
X58197522Y-63242077D01*
X58197527Y-63242079D01*
X58337302Y-63279139D01*
X58461191Y-63311987D01*
X58736490Y-63344571D01*
X59013634Y-63338040D01*
X59170160Y-63311987D01*
X59282703Y-63293255D01*
X59282707Y-63293254D01*
X59287093Y-63292524D01*
X59291334Y-63291183D01*
X59291337Y-63291182D01*
X59500927Y-63224897D01*
X59571909Y-63223427D01*
X59628016Y-63255937D01*
X60360990Y-63988911D01*
X60373376Y-64003323D01*
X60381909Y-64014918D01*
X60381914Y-64014923D01*
X60386252Y-64020818D01*
X60391830Y-64025557D01*
X60391833Y-64025560D01*
X60426528Y-64055035D01*
X60434044Y-64061965D01*
X60439739Y-64067660D01*
X60442621Y-64069940D01*
X60462011Y-64085281D01*
X60465415Y-64088072D01*
X60515463Y-64130591D01*
X60521045Y-64135333D01*
X60527561Y-64138661D01*
X60532610Y-64142028D01*
X60537739Y-64145195D01*
X60543476Y-64149734D01*
X60609635Y-64180655D01*
X60613529Y-64182558D01*
X60678568Y-64215769D01*
X60685676Y-64217508D01*
X60691319Y-64219607D01*
X60697082Y-64221524D01*
X60703710Y-64224622D01*
X60710872Y-64226112D01*
X60710873Y-64226112D01*
X60775172Y-64239486D01*
X60779456Y-64240456D01*
X60850370Y-64257808D01*
X60855972Y-64258156D01*
X60855975Y-64258156D01*
X60861524Y-64258500D01*
X60861522Y-64258536D01*
X60865515Y-64258775D01*
X60869707Y-64259149D01*
X60876875Y-64260640D01*
X60954280Y-64258546D01*
X60957688Y-64258500D01*
X62620056Y-64258500D01*
X62688177Y-64278502D01*
X62734670Y-64332158D01*
X62744774Y-64402432D01*
X62719006Y-64462506D01*
X62708006Y-64476459D01*
X62703017Y-64483801D01*
X62568279Y-64715768D01*
X62564380Y-64723726D01*
X62463675Y-64972354D01*
X62460926Y-64980816D01*
X62396263Y-65241136D01*
X62394734Y-65249897D01*
X62367393Y-65516739D01*
X62367114Y-65525622D01*
X62377645Y-65793657D01*
X62378620Y-65802486D01*
X62426813Y-66066367D01*
X62429022Y-66074969D01*
X62513914Y-66329422D01*
X62517318Y-66337640D01*
X62637216Y-66577594D01*
X62641734Y-66585233D01*
X62764119Y-66762311D01*
X62774437Y-66770662D01*
X62788092Y-66763538D01*
X64238945Y-65312685D01*
X64301257Y-65278659D01*
X64372072Y-65283724D01*
X64417135Y-65312685D01*
X65868386Y-66763936D01*
X65881786Y-66771253D01*
X65891691Y-66764266D01*
X65912522Y-66739483D01*
X65917742Y-66732298D01*
X66059695Y-66504685D01*
X66063847Y-66496845D01*
X66172315Y-66251494D01*
X66175322Y-66243141D01*
X66180231Y-66225735D01*
X66217972Y-66165601D01*
X66282233Y-66135418D01*
X66352612Y-66144768D01*
X66406762Y-66190684D01*
X66427500Y-66259936D01*
X66427500Y-69113128D01*
X66407498Y-69181249D01*
X66353842Y-69227742D01*
X66283568Y-69237846D01*
X66218988Y-69208352D01*
X66183288Y-69156739D01*
X66118274Y-68980511D01*
X66116733Y-68976334D01*
X65985093Y-68732362D01*
X65982452Y-68728787D01*
X65982448Y-68728780D01*
X65823043Y-68512965D01*
X65820390Y-68509373D01*
X65778307Y-68466623D01*
X65629042Y-68314996D01*
X65625911Y-68311815D01*
X65622372Y-68309114D01*
X65622365Y-68309108D01*
X65409076Y-68146332D01*
X65405536Y-68143630D01*
X65351930Y-68113609D01*
X65167553Y-68010353D01*
X65167552Y-68010353D01*
X65163662Y-68008174D01*
X65155663Y-68005080D01*
X64909270Y-67909756D01*
X64909264Y-67909754D01*
X64905115Y-67908149D01*
X64900783Y-67907145D01*
X64900780Y-67907144D01*
X64790445Y-67881570D01*
X64635054Y-67845552D01*
X64358867Y-67821632D01*
X64354432Y-67821876D01*
X64354428Y-67821876D01*
X64241985Y-67828064D01*
X64082065Y-67836865D01*
X64077702Y-67837733D01*
X64077701Y-67837733D01*
X64040324Y-67845168D01*
X63810171Y-67890949D01*
X63688495Y-67933678D01*
X63552816Y-67981324D01*
X63552808Y-67981327D01*
X63548609Y-67982802D01*
X63544656Y-67984855D01*
X63544650Y-67984858D01*
X63405754Y-68057009D01*
X63302600Y-68110594D01*
X63298985Y-68113177D01*
X63298979Y-68113181D01*
X63156474Y-68215017D01*
X63077051Y-68271774D01*
X62876462Y-68463126D01*
X62873706Y-68466622D01*
X62873705Y-68466623D01*
X62727218Y-68652441D01*
X62704836Y-68680832D01*
X62702599Y-68684684D01*
X62567832Y-68916702D01*
X62567829Y-68916708D01*
X62565598Y-68920549D01*
X62563928Y-68924672D01*
X62487596Y-69113128D01*
X62461525Y-69177493D01*
X62460454Y-69181806D01*
X62460452Y-69181811D01*
X62414145Y-69368231D01*
X62394694Y-69446537D01*
X62366438Y-69722314D01*
X62377322Y-69999321D01*
X62427128Y-70272031D01*
X62514862Y-70535003D01*
X62638774Y-70782989D01*
X62796391Y-71011042D01*
X62984568Y-71214612D01*
X62988022Y-71217424D01*
X63196095Y-71386822D01*
X63196099Y-71386825D01*
X63199552Y-71389636D01*
X63437052Y-71532623D01*
X63441147Y-71534357D01*
X63441149Y-71534358D01*
X63687108Y-71638508D01*
X63692329Y-71640719D01*
X63696622Y-71641857D01*
X63696627Y-71641859D01*
X63836402Y-71678919D01*
X63960291Y-71711767D01*
X64235590Y-71744351D01*
X64512734Y-71737820D01*
X64669260Y-71711767D01*
X64781803Y-71693035D01*
X64781807Y-71693034D01*
X64786193Y-71692304D01*
X64790434Y-71690963D01*
X64790437Y-71690962D01*
X65046264Y-71610054D01*
X65046266Y-71610053D01*
X65050510Y-71608711D01*
X65054521Y-71606785D01*
X65054526Y-71606783D01*
X65296393Y-71490640D01*
X65296394Y-71490639D01*
X65300412Y-71488710D01*
X65445244Y-71391937D01*
X65527205Y-71337173D01*
X65527209Y-71337170D01*
X65530913Y-71334695D01*
X65534230Y-71331724D01*
X65534234Y-71331721D01*
X65734095Y-71152710D01*
X65734096Y-71152709D01*
X65737413Y-71149738D01*
X65915792Y-70937530D01*
X66062492Y-70702305D01*
X66174584Y-70448757D01*
X66180231Y-70428734D01*
X66217972Y-70368600D01*
X66282233Y-70338417D01*
X66352611Y-70347767D01*
X66406762Y-70393683D01*
X66427500Y-70462935D01*
X66427500Y-73310654D01*
X66407498Y-73378775D01*
X66353842Y-73425268D01*
X66283568Y-73435372D01*
X66218988Y-73405878D01*
X66183288Y-73354265D01*
X66117817Y-73176797D01*
X66114162Y-73168702D01*
X65986786Y-72932633D01*
X65982024Y-72925128D01*
X65890887Y-72801738D01*
X65879762Y-72793298D01*
X65867166Y-72800124D01*
X64700062Y-73967228D01*
X64692448Y-73981172D01*
X64692579Y-73983005D01*
X64696830Y-73989620D01*
X65868386Y-75161176D01*
X65881786Y-75168493D01*
X65891691Y-75161506D01*
X65912522Y-75136723D01*
X65917742Y-75129538D01*
X66059695Y-74901925D01*
X66063847Y-74894085D01*
X66172315Y-74648734D01*
X66175322Y-74640381D01*
X66180231Y-74622975D01*
X66217972Y-74562841D01*
X66282233Y-74532658D01*
X66352612Y-74542008D01*
X66406762Y-74587924D01*
X66427500Y-74657176D01*
X66427500Y-77510368D01*
X66407498Y-77578489D01*
X66353842Y-77624982D01*
X66283568Y-77635086D01*
X66218988Y-77605592D01*
X66183288Y-77553979D01*
X66118274Y-77377751D01*
X66116733Y-77373574D01*
X66084557Y-77313942D01*
X65987206Y-77133518D01*
X65985093Y-77129602D01*
X65982452Y-77126027D01*
X65982448Y-77126020D01*
X65823043Y-76910205D01*
X65820390Y-76906613D01*
X65815268Y-76901409D01*
X65629042Y-76712236D01*
X65625911Y-76709055D01*
X65622372Y-76706354D01*
X65622365Y-76706348D01*
X65409076Y-76543572D01*
X65405536Y-76540870D01*
X65376305Y-76524500D01*
X65167553Y-76407593D01*
X65167552Y-76407593D01*
X65163662Y-76405414D01*
X65155663Y-76402320D01*
X64909270Y-76306996D01*
X64909264Y-76306994D01*
X64905115Y-76305389D01*
X64900783Y-76304385D01*
X64900780Y-76304384D01*
X64790445Y-76278810D01*
X64635054Y-76242792D01*
X64358867Y-76218872D01*
X64354432Y-76219116D01*
X64354428Y-76219116D01*
X64241985Y-76225304D01*
X64082065Y-76234105D01*
X63810171Y-76288189D01*
X63688495Y-76330918D01*
X63552816Y-76378564D01*
X63552808Y-76378567D01*
X63548609Y-76380042D01*
X63544656Y-76382095D01*
X63544650Y-76382098D01*
X63495571Y-76407593D01*
X63302600Y-76507834D01*
X63298985Y-76510417D01*
X63298979Y-76510421D01*
X63156474Y-76612257D01*
X63077051Y-76669014D01*
X62876462Y-76860366D01*
X62704836Y-77078072D01*
X62702599Y-77081924D01*
X62567832Y-77313942D01*
X62567829Y-77313948D01*
X62565598Y-77317789D01*
X62563928Y-77321912D01*
X62487596Y-77510368D01*
X62461525Y-77574733D01*
X62460454Y-77579046D01*
X62460452Y-77579051D01*
X62414145Y-77765471D01*
X62394694Y-77843777D01*
X62366438Y-78119554D01*
X62377322Y-78396561D01*
X62427128Y-78669271D01*
X62514862Y-78932243D01*
X62638774Y-79180229D01*
X62796391Y-79408282D01*
X62884280Y-79503360D01*
X62958241Y-79583371D01*
X62984568Y-79611852D01*
X62988022Y-79614664D01*
X63196095Y-79784062D01*
X63196099Y-79784065D01*
X63199552Y-79786876D01*
X63437052Y-79929863D01*
X63441147Y-79931597D01*
X63441149Y-79931598D01*
X63616740Y-80005951D01*
X63692329Y-80037959D01*
X63696622Y-80039097D01*
X63696627Y-80039099D01*
X63836402Y-80076159D01*
X63960291Y-80109007D01*
X64235590Y-80141591D01*
X64512734Y-80135060D01*
X64669260Y-80109007D01*
X64781803Y-80090275D01*
X64781807Y-80090274D01*
X64786193Y-80089544D01*
X64790434Y-80088203D01*
X64790437Y-80088202D01*
X65046264Y-80007294D01*
X65046266Y-80007293D01*
X65050510Y-80005951D01*
X65054521Y-80004025D01*
X65054526Y-80004023D01*
X65296393Y-79887880D01*
X65296394Y-79887879D01*
X65300412Y-79885950D01*
X65304118Y-79883474D01*
X65527205Y-79734413D01*
X65527209Y-79734410D01*
X65530913Y-79731935D01*
X65534230Y-79728964D01*
X65534234Y-79728961D01*
X65734095Y-79549950D01*
X65734096Y-79549949D01*
X65737413Y-79546978D01*
X65915792Y-79334770D01*
X66062492Y-79099545D01*
X66174584Y-78845997D01*
X66180231Y-78825974D01*
X66217972Y-78765840D01*
X66282233Y-78735657D01*
X66352611Y-78745007D01*
X66406762Y-78790923D01*
X66427500Y-78860175D01*
X66427500Y-81708988D01*
X66407498Y-81777109D01*
X66353842Y-81823602D01*
X66283568Y-81833706D01*
X66218988Y-81804212D01*
X66183288Y-81752599D01*
X66118274Y-81576371D01*
X66116733Y-81572194D01*
X66091764Y-81525918D01*
X65987206Y-81332138D01*
X65985093Y-81328222D01*
X65982452Y-81324647D01*
X65982448Y-81324640D01*
X65823043Y-81108825D01*
X65820390Y-81105233D01*
X65811457Y-81096158D01*
X65705596Y-80988622D01*
X65625911Y-80907675D01*
X65622372Y-80904974D01*
X65622365Y-80904968D01*
X65431958Y-80759655D01*
X65405536Y-80739490D01*
X65401647Y-80737312D01*
X65167553Y-80606213D01*
X65167552Y-80606213D01*
X65163662Y-80604034D01*
X65155663Y-80600940D01*
X64909270Y-80505616D01*
X64909264Y-80505614D01*
X64905115Y-80504009D01*
X64900783Y-80503005D01*
X64900780Y-80503004D01*
X64790445Y-80477430D01*
X64635054Y-80441412D01*
X64358867Y-80417492D01*
X64354432Y-80417736D01*
X64354428Y-80417736D01*
X64241985Y-80423924D01*
X64082065Y-80432725D01*
X63810171Y-80486809D01*
X63702842Y-80524500D01*
X63552816Y-80577184D01*
X63552808Y-80577187D01*
X63548609Y-80578662D01*
X63544656Y-80580715D01*
X63544650Y-80580718D01*
X63495571Y-80606213D01*
X63302600Y-80706454D01*
X63298985Y-80709037D01*
X63298979Y-80709041D01*
X63192940Y-80784818D01*
X63077051Y-80867634D01*
X63035077Y-80907675D01*
X62881794Y-81053900D01*
X62876462Y-81058986D01*
X62873706Y-81062482D01*
X62873705Y-81062483D01*
X62830911Y-81116767D01*
X62704836Y-81276692D01*
X62702599Y-81280544D01*
X62588454Y-81477059D01*
X62536943Y-81525918D01*
X62467195Y-81539172D01*
X62401353Y-81512613D01*
X62360322Y-81454673D01*
X62353500Y-81413774D01*
X62353500Y-81220070D01*
X62354933Y-81201120D01*
X62357099Y-81186885D01*
X62357099Y-81186881D01*
X62358199Y-81179651D01*
X62353915Y-81126982D01*
X62353500Y-81116767D01*
X62353500Y-81108707D01*
X62350209Y-81080480D01*
X62349778Y-81076121D01*
X62348384Y-81058986D01*
X62343860Y-81003364D01*
X62341605Y-80996403D01*
X62340418Y-80990463D01*
X62339029Y-80984588D01*
X62338182Y-80977319D01*
X62313264Y-80908670D01*
X62311847Y-80904542D01*
X62291607Y-80842064D01*
X62291606Y-80842062D01*
X62289351Y-80835101D01*
X62285555Y-80828846D01*
X62283049Y-80823372D01*
X62280330Y-80817942D01*
X62277833Y-80811063D01*
X62237814Y-80750024D01*
X62235467Y-80746305D01*
X62197595Y-80683893D01*
X62190197Y-80675516D01*
X62190224Y-80675492D01*
X62187571Y-80672500D01*
X62184868Y-80669267D01*
X62180856Y-80663148D01*
X62124617Y-80609872D01*
X62122175Y-80607494D01*
X61289770Y-79775089D01*
X61277384Y-79760677D01*
X61268851Y-79749082D01*
X61268846Y-79749077D01*
X61264508Y-79743182D01*
X61258930Y-79738443D01*
X61258927Y-79738440D01*
X61224232Y-79708965D01*
X61216716Y-79702035D01*
X61211021Y-79696340D01*
X61204880Y-79691482D01*
X61188749Y-79678719D01*
X61185345Y-79675928D01*
X61135297Y-79633409D01*
X61135295Y-79633408D01*
X61129715Y-79628667D01*
X61123199Y-79625339D01*
X61118150Y-79621972D01*
X61113021Y-79618805D01*
X61107284Y-79614266D01*
X61041125Y-79583345D01*
X61037225Y-79581439D01*
X60972192Y-79548231D01*
X60965084Y-79546492D01*
X60959441Y-79544393D01*
X60953678Y-79542476D01*
X60947050Y-79539378D01*
X60875583Y-79524513D01*
X60871299Y-79523543D01*
X60869636Y-79523136D01*
X60800390Y-79506192D01*
X60794788Y-79505844D01*
X60794785Y-79505844D01*
X60789236Y-79505500D01*
X60789238Y-79505464D01*
X60785245Y-79505225D01*
X60781053Y-79504851D01*
X60773885Y-79503360D01*
X60707675Y-79505151D01*
X60696479Y-79505454D01*
X60693072Y-79505500D01*
X60537291Y-79505500D01*
X60469170Y-79485498D01*
X60422677Y-79431842D01*
X60412573Y-79361568D01*
X60430379Y-79312823D01*
X60510791Y-79183888D01*
X60563392Y-79099545D01*
X60675484Y-78845997D01*
X60750733Y-78579184D01*
X60774674Y-78400941D01*
X60787210Y-78307613D01*
X60787211Y-78307605D01*
X60787637Y-78304431D01*
X60791510Y-78181200D01*
X60771931Y-77904671D01*
X60713584Y-77633660D01*
X60617633Y-77373574D01*
X60585457Y-77313942D01*
X60488106Y-77133518D01*
X60485993Y-77129602D01*
X60483352Y-77126027D01*
X60483348Y-77126020D01*
X60323943Y-76910205D01*
X60321290Y-76906613D01*
X60316168Y-76901409D01*
X60129942Y-76712236D01*
X60126811Y-76709055D01*
X60123272Y-76706354D01*
X60123265Y-76706348D01*
X59909976Y-76543572D01*
X59906436Y-76540870D01*
X59877205Y-76524500D01*
X59668453Y-76407593D01*
X59668452Y-76407593D01*
X59664562Y-76405414D01*
X59656563Y-76402320D01*
X59410170Y-76306996D01*
X59410164Y-76306994D01*
X59406015Y-76305389D01*
X59401683Y-76304385D01*
X59401680Y-76304384D01*
X59291345Y-76278810D01*
X59135954Y-76242792D01*
X58859767Y-76218872D01*
X58855332Y-76219116D01*
X58855328Y-76219116D01*
X58742885Y-76225304D01*
X58582965Y-76234105D01*
X58311071Y-76288189D01*
X58189395Y-76330918D01*
X58053716Y-76378564D01*
X58053708Y-76378567D01*
X58049509Y-76380042D01*
X58045556Y-76382095D01*
X58045550Y-76382098D01*
X57996471Y-76407593D01*
X57803500Y-76507834D01*
X57799885Y-76510417D01*
X57799879Y-76510421D01*
X57657374Y-76612257D01*
X57577951Y-76669014D01*
X57377362Y-76860366D01*
X57205736Y-77078072D01*
X57203499Y-77081924D01*
X57068732Y-77313942D01*
X57068729Y-77313948D01*
X57066498Y-77317789D01*
X57064828Y-77321912D01*
X56988496Y-77510368D01*
X56962425Y-77574733D01*
X56961354Y-77579046D01*
X56961352Y-77579051D01*
X56915045Y-77765471D01*
X56895594Y-77843777D01*
X56867338Y-78119554D01*
X56878222Y-78396561D01*
X56928028Y-78669271D01*
X57015762Y-78932243D01*
X57139674Y-79180229D01*
X57142203Y-79183888D01*
X57227886Y-79307861D01*
X57250162Y-79375272D01*
X57232457Y-79444026D01*
X57180391Y-79492293D01*
X57124233Y-79505500D01*
X56328371Y-79505500D01*
X56260250Y-79485498D01*
X56239276Y-79468595D01*
X53987950Y-77217269D01*
X53953924Y-77154957D01*
X53951046Y-77128559D01*
X53949257Y-76543572D01*
X53946166Y-75532727D01*
X57641420Y-75532727D01*
X57648810Y-75543029D01*
X57697283Y-75582492D01*
X57704562Y-75587607D01*
X57934360Y-75725957D01*
X57942284Y-75729994D01*
X58189289Y-75834588D01*
X58197694Y-75837466D01*
X58456983Y-75906214D01*
X58465704Y-75907878D01*
X58732098Y-75939408D01*
X58740963Y-75939826D01*
X59009128Y-75933506D01*
X59017988Y-75932669D01*
X59282574Y-75888630D01*
X59291231Y-75886551D01*
X59546980Y-75805669D01*
X59555241Y-75802398D01*
X59797045Y-75686285D01*
X59804770Y-75681879D01*
X60009587Y-75545025D01*
X60017875Y-75535107D01*
X60016657Y-75532727D01*
X63140520Y-75532727D01*
X63147910Y-75543029D01*
X63196383Y-75582492D01*
X63203662Y-75587607D01*
X63433460Y-75725957D01*
X63441384Y-75729994D01*
X63688389Y-75834588D01*
X63696794Y-75837466D01*
X63956083Y-75906214D01*
X63964804Y-75907878D01*
X64231198Y-75939408D01*
X64240063Y-75939826D01*
X64508228Y-75933506D01*
X64517088Y-75932669D01*
X64781674Y-75888630D01*
X64790331Y-75886551D01*
X65046080Y-75805669D01*
X65054341Y-75802398D01*
X65296145Y-75686285D01*
X65303870Y-75681879D01*
X65508687Y-75545025D01*
X65516975Y-75535107D01*
X65509718Y-75520928D01*
X64340852Y-74352062D01*
X64326908Y-74344448D01*
X64325075Y-74344579D01*
X64318460Y-74348830D01*
X63147686Y-75519604D01*
X63140520Y-75532727D01*
X60016657Y-75532727D01*
X60010618Y-75520928D01*
X58841752Y-74352062D01*
X58827808Y-74344448D01*
X58825975Y-74344579D01*
X58819360Y-74348830D01*
X57648586Y-75519604D01*
X57641420Y-75532727D01*
X53946166Y-75532727D01*
X53941244Y-73922862D01*
X56868014Y-73922862D01*
X56878545Y-74190897D01*
X56879520Y-74199726D01*
X56927713Y-74463607D01*
X56929922Y-74472209D01*
X57014814Y-74726662D01*
X57018218Y-74734880D01*
X57138116Y-74974834D01*
X57142634Y-74982473D01*
X57265019Y-75159551D01*
X57275337Y-75167902D01*
X57288992Y-75160778D01*
X58456918Y-73992852D01*
X58463296Y-73981172D01*
X59193348Y-73981172D01*
X59193479Y-73983005D01*
X59197730Y-73989620D01*
X60369286Y-75161176D01*
X60382686Y-75168493D01*
X60392591Y-75161506D01*
X60413422Y-75136723D01*
X60418642Y-75129538D01*
X60560595Y-74901925D01*
X60564747Y-74894085D01*
X60673215Y-74648734D01*
X60676221Y-74640384D01*
X60749034Y-74382208D01*
X60750835Y-74373515D01*
X60786710Y-74106421D01*
X60787238Y-74100028D01*
X60790908Y-73983262D01*
X60790781Y-73976819D01*
X60786961Y-73922862D01*
X62367114Y-73922862D01*
X62377645Y-74190897D01*
X62378620Y-74199726D01*
X62426813Y-74463607D01*
X62429022Y-74472209D01*
X62513914Y-74726662D01*
X62517318Y-74734880D01*
X62637216Y-74974834D01*
X62641734Y-74982473D01*
X62764119Y-75159551D01*
X62774437Y-75167902D01*
X62788092Y-75160778D01*
X63956018Y-73992852D01*
X63963632Y-73978908D01*
X63963501Y-73977075D01*
X63959250Y-73970460D01*
X62788917Y-72800127D01*
X62776077Y-72793116D01*
X62765385Y-72800913D01*
X62708010Y-72873694D01*
X62703015Y-72881043D01*
X62568279Y-73113008D01*
X62564380Y-73120966D01*
X62463675Y-73369594D01*
X62460926Y-73378056D01*
X62396263Y-73638376D01*
X62394734Y-73647137D01*
X62367393Y-73913979D01*
X62367114Y-73922862D01*
X60786961Y-73922862D01*
X60771750Y-73708031D01*
X60770497Y-73699228D01*
X60714039Y-73436992D01*
X60711560Y-73428459D01*
X60618717Y-73176797D01*
X60615062Y-73168702D01*
X60487686Y-72932633D01*
X60482924Y-72925128D01*
X60391787Y-72801738D01*
X60380662Y-72793298D01*
X60368066Y-72800124D01*
X59200962Y-73967228D01*
X59193348Y-73981172D01*
X58463296Y-73981172D01*
X58464532Y-73978908D01*
X58464401Y-73977075D01*
X58460150Y-73970460D01*
X57289817Y-72800127D01*
X57276977Y-72793116D01*
X57266285Y-72800913D01*
X57208910Y-72873694D01*
X57203915Y-72881043D01*
X57069179Y-73113008D01*
X57065280Y-73120966D01*
X56964575Y-73369594D01*
X56961826Y-73378056D01*
X56897163Y-73638376D01*
X56895634Y-73647137D01*
X56868293Y-73913979D01*
X56868014Y-73922862D01*
X53941244Y-73922862D01*
X53936672Y-72427552D01*
X57641807Y-72427552D01*
X57648787Y-72440677D01*
X58816128Y-73608018D01*
X58830072Y-73615632D01*
X58831905Y-73615501D01*
X58838520Y-73611250D01*
X60008755Y-72441015D01*
X60015609Y-72428463D01*
X60014934Y-72427552D01*
X63140907Y-72427552D01*
X63147887Y-72440677D01*
X64315228Y-73608018D01*
X64329172Y-73615632D01*
X64331005Y-73615501D01*
X64337620Y-73611250D01*
X65507855Y-72441015D01*
X65514709Y-72428463D01*
X65506502Y-72417393D01*
X65408802Y-72342830D01*
X65401377Y-72337953D01*
X65167338Y-72206885D01*
X65159285Y-72203096D01*
X64909122Y-72106315D01*
X64900632Y-72103703D01*
X64639314Y-72043133D01*
X64630536Y-72041743D01*
X64363291Y-72018597D01*
X64354420Y-72018457D01*
X64086571Y-72033198D01*
X64077761Y-72034312D01*
X63814675Y-72086642D01*
X63806100Y-72088988D01*
X63553016Y-72177864D01*
X63544849Y-72181398D01*
X63306813Y-72305049D01*
X63299241Y-72309689D01*
X63149310Y-72416830D01*
X63140907Y-72427552D01*
X60014934Y-72427552D01*
X60007402Y-72417393D01*
X59909702Y-72342830D01*
X59902277Y-72337953D01*
X59668238Y-72206885D01*
X59660185Y-72203096D01*
X59410022Y-72106315D01*
X59401532Y-72103703D01*
X59140214Y-72043133D01*
X59131436Y-72041743D01*
X58864191Y-72018597D01*
X58855320Y-72018457D01*
X58587471Y-72033198D01*
X58578661Y-72034312D01*
X58315575Y-72086642D01*
X58307000Y-72088988D01*
X58053916Y-72177864D01*
X58045749Y-72181398D01*
X57807713Y-72305049D01*
X57800141Y-72309689D01*
X57650210Y-72416830D01*
X57641807Y-72427552D01*
X53936672Y-72427552D01*
X53933337Y-71336647D01*
X57641420Y-71336647D01*
X57648810Y-71346949D01*
X57697283Y-71386412D01*
X57704562Y-71391527D01*
X57934360Y-71529877D01*
X57942284Y-71533914D01*
X58189289Y-71638508D01*
X58197694Y-71641386D01*
X58456983Y-71710134D01*
X58465704Y-71711798D01*
X58732098Y-71743328D01*
X58740963Y-71743746D01*
X59009128Y-71737426D01*
X59017988Y-71736589D01*
X59282574Y-71692550D01*
X59291231Y-71690471D01*
X59546980Y-71609589D01*
X59555241Y-71606318D01*
X59797045Y-71490205D01*
X59804770Y-71485799D01*
X60009587Y-71348945D01*
X60017875Y-71339027D01*
X60010618Y-71324848D01*
X58841752Y-70155982D01*
X58827808Y-70148368D01*
X58825975Y-70148499D01*
X58819360Y-70152750D01*
X57648586Y-71323524D01*
X57641420Y-71336647D01*
X53933337Y-71336647D01*
X53928415Y-69726782D01*
X56868014Y-69726782D01*
X56878545Y-69994817D01*
X56879520Y-70003646D01*
X56927713Y-70267527D01*
X56929922Y-70276129D01*
X57014814Y-70530582D01*
X57018218Y-70538800D01*
X57138116Y-70778754D01*
X57142634Y-70786393D01*
X57265019Y-70963471D01*
X57275337Y-70971822D01*
X57288992Y-70964698D01*
X58456918Y-69796772D01*
X58463296Y-69785092D01*
X59193348Y-69785092D01*
X59193479Y-69786925D01*
X59197730Y-69793540D01*
X60369286Y-70965096D01*
X60382686Y-70972413D01*
X60392591Y-70965426D01*
X60413422Y-70940643D01*
X60418642Y-70933458D01*
X60560595Y-70705845D01*
X60564747Y-70698005D01*
X60673215Y-70452654D01*
X60676221Y-70444304D01*
X60749034Y-70186128D01*
X60750835Y-70177435D01*
X60786710Y-69910341D01*
X60787238Y-69903948D01*
X60790908Y-69787182D01*
X60790781Y-69780739D01*
X60771750Y-69511951D01*
X60770497Y-69503148D01*
X60714039Y-69240912D01*
X60711560Y-69232379D01*
X60618717Y-68980717D01*
X60615062Y-68972622D01*
X60487686Y-68736553D01*
X60482924Y-68729048D01*
X60391787Y-68605658D01*
X60380662Y-68597218D01*
X60368066Y-68604044D01*
X59200962Y-69771148D01*
X59193348Y-69785092D01*
X58463296Y-69785092D01*
X58464532Y-69782828D01*
X58464401Y-69780995D01*
X58460150Y-69774380D01*
X57289817Y-68604047D01*
X57276977Y-68597036D01*
X57266285Y-68604833D01*
X57208910Y-68677614D01*
X57203915Y-68684963D01*
X57069179Y-68916928D01*
X57065280Y-68924886D01*
X56964575Y-69173514D01*
X56961826Y-69181976D01*
X56897163Y-69442296D01*
X56895634Y-69451057D01*
X56868293Y-69717899D01*
X56868014Y-69726782D01*
X53928415Y-69726782D01*
X53923843Y-68231472D01*
X57641807Y-68231472D01*
X57648787Y-68244597D01*
X58816128Y-69411938D01*
X58830072Y-69419552D01*
X58831905Y-69419421D01*
X58838520Y-69415170D01*
X60008755Y-68244935D01*
X60015609Y-68232383D01*
X60007402Y-68221313D01*
X59909702Y-68146750D01*
X59902277Y-68141873D01*
X59668238Y-68010805D01*
X59660185Y-68007016D01*
X59410022Y-67910235D01*
X59401532Y-67907623D01*
X59140214Y-67847053D01*
X59131436Y-67845663D01*
X58864191Y-67822517D01*
X58855320Y-67822377D01*
X58587471Y-67837118D01*
X58578661Y-67838232D01*
X58315575Y-67890562D01*
X58307000Y-67892908D01*
X58053916Y-67981784D01*
X58045749Y-67985318D01*
X57807713Y-68108969D01*
X57800141Y-68113609D01*
X57650210Y-68220750D01*
X57641807Y-68231472D01*
X53923843Y-68231472D01*
X53921414Y-67437000D01*
X50799000Y-67437000D01*
X50730879Y-67416998D01*
X50684386Y-67363342D01*
X50673000Y-67311000D01*
X50673000Y-67135487D01*
X57641420Y-67135487D01*
X57648810Y-67145789D01*
X57697283Y-67185252D01*
X57704562Y-67190367D01*
X57934360Y-67328717D01*
X57942284Y-67332754D01*
X58189289Y-67437348D01*
X58197694Y-67440226D01*
X58456983Y-67508974D01*
X58465704Y-67510638D01*
X58732098Y-67542168D01*
X58740963Y-67542586D01*
X59009128Y-67536266D01*
X59017988Y-67535429D01*
X59282574Y-67491390D01*
X59291231Y-67489311D01*
X59546980Y-67408429D01*
X59555241Y-67405158D01*
X59797045Y-67289045D01*
X59804770Y-67284639D01*
X60009587Y-67147785D01*
X60017875Y-67137867D01*
X60016657Y-67135487D01*
X63140520Y-67135487D01*
X63147910Y-67145789D01*
X63196383Y-67185252D01*
X63203662Y-67190367D01*
X63433460Y-67328717D01*
X63441384Y-67332754D01*
X63688389Y-67437348D01*
X63696794Y-67440226D01*
X63956083Y-67508974D01*
X63964804Y-67510638D01*
X64231198Y-67542168D01*
X64240063Y-67542586D01*
X64508228Y-67536266D01*
X64517088Y-67535429D01*
X64781674Y-67491390D01*
X64790331Y-67489311D01*
X65046080Y-67408429D01*
X65054341Y-67405158D01*
X65296145Y-67289045D01*
X65303870Y-67284639D01*
X65508687Y-67147785D01*
X65516975Y-67137867D01*
X65509718Y-67123688D01*
X64340852Y-65954822D01*
X64326908Y-65947208D01*
X64325075Y-65947339D01*
X64318460Y-65951590D01*
X63147686Y-67122364D01*
X63140520Y-67135487D01*
X60016657Y-67135487D01*
X60010618Y-67123688D01*
X58841752Y-65954822D01*
X58827808Y-65947208D01*
X58825975Y-65947339D01*
X58819360Y-65951590D01*
X57648586Y-67122364D01*
X57641420Y-67135487D01*
X50673000Y-67135487D01*
X50673000Y-65525622D01*
X56868014Y-65525622D01*
X56878545Y-65793657D01*
X56879520Y-65802486D01*
X56927713Y-66066367D01*
X56929922Y-66074969D01*
X57014814Y-66329422D01*
X57018218Y-66337640D01*
X57138116Y-66577594D01*
X57142634Y-66585233D01*
X57265019Y-66762311D01*
X57275337Y-66770662D01*
X57288992Y-66763538D01*
X58456918Y-65595612D01*
X58463296Y-65583932D01*
X59193348Y-65583932D01*
X59193479Y-65585765D01*
X59197730Y-65592380D01*
X60369286Y-66763936D01*
X60382686Y-66771253D01*
X60392591Y-66764266D01*
X60413422Y-66739483D01*
X60418642Y-66732298D01*
X60560595Y-66504685D01*
X60564747Y-66496845D01*
X60673215Y-66251494D01*
X60676221Y-66243144D01*
X60749034Y-65984968D01*
X60750835Y-65976275D01*
X60786710Y-65709181D01*
X60787238Y-65702788D01*
X60790908Y-65586022D01*
X60790781Y-65579579D01*
X60771750Y-65310791D01*
X60770497Y-65301988D01*
X60714039Y-65039752D01*
X60711560Y-65031219D01*
X60618717Y-64779557D01*
X60615062Y-64771462D01*
X60487686Y-64535393D01*
X60482924Y-64527888D01*
X60391787Y-64404498D01*
X60380662Y-64396058D01*
X60368066Y-64402884D01*
X59200962Y-65569988D01*
X59193348Y-65583932D01*
X58463296Y-65583932D01*
X58464532Y-65581668D01*
X58464401Y-65579835D01*
X58460150Y-65573220D01*
X57289817Y-64402887D01*
X57276977Y-64395876D01*
X57266285Y-64403673D01*
X57208910Y-64476454D01*
X57203915Y-64483803D01*
X57069179Y-64715768D01*
X57065280Y-64723726D01*
X56964575Y-64972354D01*
X56961826Y-64980816D01*
X56897163Y-65241136D01*
X56895634Y-65249897D01*
X56868293Y-65516739D01*
X56868014Y-65525622D01*
X50673000Y-65525622D01*
X50673000Y-65150000D01*
X50693002Y-65081879D01*
X50746658Y-65035386D01*
X50799000Y-65024000D01*
X53904117Y-65024000D01*
X53903988Y-64972354D01*
X53901623Y-64030312D01*
X57641807Y-64030312D01*
X57648787Y-64043437D01*
X58816128Y-65210778D01*
X58830072Y-65218392D01*
X58831905Y-65218261D01*
X58838520Y-65214010D01*
X60008755Y-64043775D01*
X60015609Y-64031223D01*
X60007402Y-64020153D01*
X59909702Y-63945590D01*
X59902277Y-63940713D01*
X59668238Y-63809645D01*
X59660185Y-63805856D01*
X59410022Y-63709075D01*
X59401532Y-63706463D01*
X59140214Y-63645893D01*
X59131436Y-63644503D01*
X58864191Y-63621357D01*
X58855320Y-63621217D01*
X58587471Y-63635958D01*
X58578661Y-63637072D01*
X58315575Y-63689402D01*
X58307000Y-63691748D01*
X58053916Y-63780624D01*
X58045749Y-63784158D01*
X57807713Y-63907809D01*
X57800141Y-63912449D01*
X57650210Y-64019590D01*
X57641807Y-64030312D01*
X53901623Y-64030312D01*
X53898578Y-62817644D01*
X53890088Y-59436000D01*
X50799000Y-59436000D01*
X50730879Y-59415998D01*
X50684386Y-59362342D01*
X50673000Y-59310000D01*
X50673000Y-58735707D01*
X57641420Y-58735707D01*
X57648810Y-58746009D01*
X57697283Y-58785472D01*
X57704562Y-58790587D01*
X57934360Y-58928937D01*
X57942284Y-58932974D01*
X58189289Y-59037568D01*
X58197694Y-59040446D01*
X58456983Y-59109194D01*
X58465704Y-59110858D01*
X58732098Y-59142388D01*
X58740963Y-59142806D01*
X59009128Y-59136486D01*
X59017988Y-59135649D01*
X59282574Y-59091610D01*
X59291231Y-59089531D01*
X59546980Y-59008649D01*
X59555241Y-59005378D01*
X59797045Y-58889265D01*
X59804770Y-58884859D01*
X60009587Y-58748005D01*
X60017875Y-58738087D01*
X60016657Y-58735707D01*
X63140520Y-58735707D01*
X63147910Y-58746009D01*
X63196383Y-58785472D01*
X63203662Y-58790587D01*
X63433460Y-58928937D01*
X63441384Y-58932974D01*
X63688389Y-59037568D01*
X63696794Y-59040446D01*
X63956083Y-59109194D01*
X63964804Y-59110858D01*
X64231198Y-59142388D01*
X64240063Y-59142806D01*
X64508228Y-59136486D01*
X64517088Y-59135649D01*
X64781674Y-59091610D01*
X64790331Y-59089531D01*
X65046080Y-59008649D01*
X65054341Y-59005378D01*
X65296145Y-58889265D01*
X65303870Y-58884859D01*
X65508687Y-58748005D01*
X65516975Y-58738087D01*
X65509718Y-58723908D01*
X64340852Y-57555042D01*
X64326908Y-57547428D01*
X64325075Y-57547559D01*
X64318460Y-57551810D01*
X63147686Y-58722584D01*
X63140520Y-58735707D01*
X60016657Y-58735707D01*
X60010618Y-58723908D01*
X58841752Y-57555042D01*
X58827808Y-57547428D01*
X58825975Y-57547559D01*
X58819360Y-57551810D01*
X57648586Y-58722584D01*
X57641420Y-58735707D01*
X50673000Y-58735707D01*
X50673000Y-57149000D01*
X50679800Y-57125842D01*
X56868014Y-57125842D01*
X56878545Y-57393877D01*
X56879520Y-57402706D01*
X56927713Y-57666587D01*
X56929922Y-57675189D01*
X57014814Y-57929642D01*
X57018218Y-57937860D01*
X57138116Y-58177814D01*
X57142634Y-58185453D01*
X57265019Y-58362531D01*
X57275337Y-58370882D01*
X57288992Y-58363758D01*
X58456918Y-57195832D01*
X58463296Y-57184152D01*
X59193348Y-57184152D01*
X59193479Y-57185985D01*
X59197730Y-57192600D01*
X60369286Y-58364156D01*
X60382686Y-58371473D01*
X60392591Y-58364486D01*
X60413422Y-58339703D01*
X60418642Y-58332518D01*
X60560595Y-58104905D01*
X60564747Y-58097065D01*
X60673215Y-57851714D01*
X60676221Y-57843364D01*
X60749034Y-57585188D01*
X60750835Y-57576495D01*
X60786710Y-57309401D01*
X60787238Y-57303008D01*
X60790908Y-57186242D01*
X60790781Y-57179799D01*
X60786961Y-57125842D01*
X62367114Y-57125842D01*
X62377645Y-57393877D01*
X62378620Y-57402706D01*
X62426813Y-57666587D01*
X62429022Y-57675189D01*
X62513914Y-57929642D01*
X62517318Y-57937860D01*
X62637216Y-58177814D01*
X62641734Y-58185453D01*
X62764119Y-58362531D01*
X62774437Y-58370882D01*
X62788092Y-58363758D01*
X63956018Y-57195832D01*
X63962396Y-57184152D01*
X64692448Y-57184152D01*
X64692579Y-57185985D01*
X64696830Y-57192600D01*
X65868386Y-58364156D01*
X65881786Y-58371473D01*
X65891691Y-58364486D01*
X65912522Y-58339703D01*
X65917742Y-58332518D01*
X66059695Y-58104905D01*
X66063847Y-58097065D01*
X66172315Y-57851714D01*
X66175321Y-57843364D01*
X66248134Y-57585188D01*
X66249935Y-57576495D01*
X66285810Y-57309401D01*
X66286338Y-57303008D01*
X66290008Y-57186242D01*
X66289881Y-57179799D01*
X66270850Y-56911011D01*
X66269597Y-56902208D01*
X66213139Y-56639972D01*
X66210660Y-56631439D01*
X66117817Y-56379777D01*
X66114162Y-56371682D01*
X65986786Y-56135613D01*
X65982024Y-56128108D01*
X65890887Y-56004718D01*
X65879762Y-55996278D01*
X65867166Y-56003104D01*
X64700062Y-57170208D01*
X64692448Y-57184152D01*
X63962396Y-57184152D01*
X63963632Y-57181888D01*
X63963501Y-57180055D01*
X63959250Y-57173440D01*
X62788917Y-56003107D01*
X62776077Y-55996096D01*
X62765385Y-56003893D01*
X62708010Y-56076674D01*
X62703015Y-56084023D01*
X62568279Y-56315988D01*
X62564380Y-56323946D01*
X62463675Y-56572574D01*
X62460926Y-56581036D01*
X62396263Y-56841356D01*
X62394734Y-56850117D01*
X62367393Y-57116959D01*
X62367114Y-57125842D01*
X60786961Y-57125842D01*
X60771750Y-56911011D01*
X60770497Y-56902208D01*
X60714039Y-56639972D01*
X60711560Y-56631439D01*
X60618717Y-56379777D01*
X60615062Y-56371682D01*
X60487686Y-56135613D01*
X60482924Y-56128108D01*
X60391787Y-56004718D01*
X60380662Y-55996278D01*
X60368066Y-56003104D01*
X59200962Y-57170208D01*
X59193348Y-57184152D01*
X58463296Y-57184152D01*
X58464532Y-57181888D01*
X58464401Y-57180055D01*
X58460150Y-57173440D01*
X57289817Y-56003107D01*
X57276977Y-55996096D01*
X57266285Y-56003893D01*
X57208910Y-56076674D01*
X57203915Y-56084023D01*
X57069179Y-56315988D01*
X57065280Y-56323946D01*
X56964575Y-56572574D01*
X56961826Y-56581036D01*
X56897163Y-56841356D01*
X56895634Y-56850117D01*
X56868293Y-57116959D01*
X56868014Y-57125842D01*
X50679800Y-57125842D01*
X50693002Y-57080879D01*
X50746658Y-57034386D01*
X50799000Y-57023000D01*
X53873331Y-57023000D01*
X53873045Y-56902208D01*
X53870025Y-55630532D01*
X57641807Y-55630532D01*
X57648787Y-55643657D01*
X58816128Y-56810998D01*
X58830072Y-56818612D01*
X58831905Y-56818481D01*
X58838520Y-56814230D01*
X60008755Y-55643995D01*
X60015609Y-55631443D01*
X60014934Y-55630532D01*
X63140907Y-55630532D01*
X63147887Y-55643657D01*
X64315228Y-56810998D01*
X64329172Y-56818612D01*
X64331005Y-56818481D01*
X64337620Y-56814230D01*
X65507855Y-55643995D01*
X65514709Y-55631443D01*
X65506502Y-55620373D01*
X65408802Y-55545810D01*
X65401377Y-55540933D01*
X65167338Y-55409865D01*
X65159285Y-55406076D01*
X64909122Y-55309295D01*
X64900632Y-55306683D01*
X64639314Y-55246113D01*
X64630536Y-55244723D01*
X64363291Y-55221577D01*
X64354420Y-55221437D01*
X64086571Y-55236178D01*
X64077761Y-55237292D01*
X63814675Y-55289622D01*
X63806100Y-55291968D01*
X63553016Y-55380844D01*
X63544849Y-55384378D01*
X63306813Y-55508029D01*
X63299241Y-55512669D01*
X63149310Y-55619810D01*
X63140907Y-55630532D01*
X60014934Y-55630532D01*
X60007402Y-55620373D01*
X59909702Y-55545810D01*
X59902277Y-55540933D01*
X59668238Y-55409865D01*
X59660185Y-55406076D01*
X59410022Y-55309295D01*
X59401532Y-55306683D01*
X59140214Y-55246113D01*
X59131436Y-55244723D01*
X58864191Y-55221577D01*
X58855320Y-55221437D01*
X58587471Y-55236178D01*
X58578661Y-55237292D01*
X58315575Y-55289622D01*
X58307000Y-55291968D01*
X58053916Y-55380844D01*
X58045749Y-55384378D01*
X57807713Y-55508029D01*
X57800141Y-55512669D01*
X57650210Y-55619810D01*
X57641807Y-55630532D01*
X53870025Y-55630532D01*
X53863595Y-52922754D01*
X56867338Y-52922754D01*
X56878222Y-53199761D01*
X56928028Y-53472471D01*
X57015762Y-53735443D01*
X57139674Y-53983429D01*
X57297291Y-54211482D01*
X57485468Y-54415052D01*
X57488922Y-54417864D01*
X57696995Y-54587262D01*
X57696999Y-54587265D01*
X57700452Y-54590076D01*
X57937952Y-54733063D01*
X57942047Y-54734797D01*
X57942049Y-54734798D01*
X58117640Y-54809151D01*
X58193229Y-54841159D01*
X58197522Y-54842297D01*
X58197527Y-54842299D01*
X58337302Y-54879359D01*
X58461191Y-54912207D01*
X58736490Y-54944791D01*
X59013634Y-54938260D01*
X59170160Y-54912207D01*
X59282703Y-54893475D01*
X59282707Y-54893474D01*
X59287093Y-54892744D01*
X59291334Y-54891403D01*
X59291337Y-54891402D01*
X59547164Y-54810494D01*
X59547166Y-54810493D01*
X59551410Y-54809151D01*
X59555421Y-54807225D01*
X59555426Y-54807223D01*
X59797293Y-54691080D01*
X59797294Y-54691079D01*
X59801312Y-54689150D01*
X59949588Y-54590076D01*
X60028105Y-54537613D01*
X60028109Y-54537610D01*
X60031813Y-54535135D01*
X60035130Y-54532164D01*
X60035134Y-54532161D01*
X60234995Y-54353150D01*
X60234996Y-54353149D01*
X60238313Y-54350178D01*
X60416692Y-54137970D01*
X60563392Y-53902745D01*
X60675484Y-53649197D01*
X60750733Y-53382384D01*
X60774674Y-53204141D01*
X60787210Y-53110813D01*
X60787211Y-53110805D01*
X60787637Y-53107631D01*
X60791510Y-52984400D01*
X60787145Y-52922754D01*
X62366438Y-52922754D01*
X62377322Y-53199761D01*
X62427128Y-53472471D01*
X62514862Y-53735443D01*
X62638774Y-53983429D01*
X62796391Y-54211482D01*
X62984568Y-54415052D01*
X62988022Y-54417864D01*
X63196095Y-54587262D01*
X63196099Y-54587265D01*
X63199552Y-54590076D01*
X63437052Y-54733063D01*
X63441147Y-54734797D01*
X63441149Y-54734798D01*
X63616740Y-54809151D01*
X63692329Y-54841159D01*
X63696622Y-54842297D01*
X63696627Y-54842299D01*
X63836402Y-54879359D01*
X63960291Y-54912207D01*
X64235590Y-54944791D01*
X64512734Y-54938260D01*
X64669260Y-54912207D01*
X64781803Y-54893475D01*
X64781807Y-54893474D01*
X64786193Y-54892744D01*
X64790434Y-54891403D01*
X64790437Y-54891402D01*
X65046264Y-54810494D01*
X65046266Y-54810493D01*
X65050510Y-54809151D01*
X65054521Y-54807225D01*
X65054526Y-54807223D01*
X65296393Y-54691080D01*
X65296394Y-54691079D01*
X65300412Y-54689150D01*
X65448688Y-54590076D01*
X65527205Y-54537613D01*
X65527209Y-54537610D01*
X65530913Y-54535135D01*
X65534230Y-54532164D01*
X65534234Y-54532161D01*
X65734095Y-54353150D01*
X65734096Y-54353149D01*
X65737413Y-54350178D01*
X65915792Y-54137970D01*
X66062492Y-53902745D01*
X66174584Y-53649197D01*
X66249833Y-53382384D01*
X66273774Y-53204141D01*
X66286310Y-53110813D01*
X66286311Y-53110805D01*
X66286737Y-53107631D01*
X66290610Y-52984400D01*
X66271031Y-52707871D01*
X66231553Y-52524500D01*
X66213620Y-52441207D01*
X66213620Y-52441205D01*
X66212684Y-52436860D01*
X66116733Y-52176774D01*
X65985093Y-51932802D01*
X65982452Y-51929227D01*
X65982448Y-51929220D01*
X65823043Y-51713405D01*
X65820390Y-51709813D01*
X65778307Y-51667063D01*
X65629042Y-51515436D01*
X65625911Y-51512255D01*
X65622372Y-51509554D01*
X65622365Y-51509548D01*
X65409076Y-51346772D01*
X65405536Y-51344070D01*
X65401647Y-51341892D01*
X65167553Y-51210793D01*
X65167552Y-51210793D01*
X65163662Y-51208614D01*
X65146434Y-51201949D01*
X64909270Y-51110196D01*
X64909264Y-51110194D01*
X64905115Y-51108589D01*
X64900783Y-51107585D01*
X64900780Y-51107584D01*
X64741707Y-51070713D01*
X64635054Y-51045992D01*
X64358867Y-51022072D01*
X64354432Y-51022316D01*
X64354428Y-51022316D01*
X64241985Y-51028504D01*
X64082065Y-51037305D01*
X63810171Y-51091389D01*
X63716670Y-51124224D01*
X63552816Y-51181764D01*
X63552808Y-51181767D01*
X63548609Y-51183242D01*
X63544656Y-51185295D01*
X63544650Y-51185298D01*
X63455728Y-51231490D01*
X63302600Y-51311034D01*
X63298985Y-51313617D01*
X63298979Y-51313621D01*
X63156474Y-51415457D01*
X63077051Y-51472214D01*
X62876462Y-51663566D01*
X62704836Y-51881272D01*
X62702599Y-51885124D01*
X62567832Y-52117142D01*
X62567829Y-52117148D01*
X62565598Y-52120989D01*
X62461525Y-52377933D01*
X62460454Y-52382246D01*
X62460452Y-52382251D01*
X62424421Y-52527304D01*
X62394694Y-52646977D01*
X62366438Y-52922754D01*
X60787145Y-52922754D01*
X60771931Y-52707871D01*
X60732453Y-52524500D01*
X60714520Y-52441207D01*
X60714520Y-52441205D01*
X60713584Y-52436860D01*
X60617633Y-52176774D01*
X60485993Y-51932802D01*
X60483352Y-51929227D01*
X60483348Y-51929220D01*
X60323943Y-51713405D01*
X60321290Y-51709813D01*
X60279207Y-51667063D01*
X60129942Y-51515436D01*
X60126811Y-51512255D01*
X60123272Y-51509554D01*
X60123265Y-51509548D01*
X59909976Y-51346772D01*
X59906436Y-51344070D01*
X59902547Y-51341892D01*
X59668453Y-51210793D01*
X59668452Y-51210793D01*
X59664562Y-51208614D01*
X59647334Y-51201949D01*
X59410170Y-51110196D01*
X59410164Y-51110194D01*
X59406015Y-51108589D01*
X59401683Y-51107585D01*
X59401680Y-51107584D01*
X59242607Y-51070713D01*
X59135954Y-51045992D01*
X58859767Y-51022072D01*
X58855332Y-51022316D01*
X58855328Y-51022316D01*
X58742885Y-51028504D01*
X58582965Y-51037305D01*
X58311071Y-51091389D01*
X58217570Y-51124224D01*
X58053716Y-51181764D01*
X58053708Y-51181767D01*
X58049509Y-51183242D01*
X58045556Y-51185295D01*
X58045550Y-51185298D01*
X57956628Y-51231490D01*
X57803500Y-51311034D01*
X57799885Y-51313617D01*
X57799879Y-51313621D01*
X57657374Y-51415457D01*
X57577951Y-51472214D01*
X57377362Y-51663566D01*
X57205736Y-51881272D01*
X57203499Y-51885124D01*
X57068732Y-52117142D01*
X57068729Y-52117148D01*
X57066498Y-52120989D01*
X56962425Y-52377933D01*
X56961354Y-52382246D01*
X56961352Y-52382251D01*
X56925321Y-52527304D01*
X56895594Y-52646977D01*
X56867338Y-52922754D01*
X53863595Y-52922754D01*
X53858533Y-50790998D01*
X53853619Y-48721594D01*
X56867338Y-48721594D01*
X56867513Y-48726046D01*
X56872693Y-48857871D01*
X56878222Y-48998601D01*
X56928028Y-49271311D01*
X57015762Y-49534283D01*
X57139674Y-49782269D01*
X57297291Y-50010322D01*
X57485468Y-50213892D01*
X57488922Y-50216704D01*
X57696995Y-50386102D01*
X57696999Y-50386105D01*
X57700452Y-50388916D01*
X57937952Y-50531903D01*
X57942047Y-50533637D01*
X57942049Y-50533638D01*
X58146921Y-50620390D01*
X58193229Y-50639999D01*
X58197522Y-50641137D01*
X58197527Y-50641139D01*
X58318871Y-50673312D01*
X58461191Y-50711047D01*
X58736490Y-50743631D01*
X59013634Y-50737100D01*
X59170160Y-50711047D01*
X59282703Y-50692315D01*
X59282707Y-50692314D01*
X59287093Y-50691584D01*
X59291334Y-50690243D01*
X59291337Y-50690242D01*
X59547164Y-50609334D01*
X59547166Y-50609333D01*
X59551410Y-50607991D01*
X59555421Y-50606065D01*
X59555426Y-50606063D01*
X59797293Y-50489920D01*
X59797294Y-50489919D01*
X59801312Y-50487990D01*
X59805018Y-50485514D01*
X60028105Y-50336453D01*
X60028109Y-50336450D01*
X60031813Y-50333975D01*
X60035130Y-50331004D01*
X60035134Y-50331001D01*
X60234995Y-50151990D01*
X60234996Y-50151989D01*
X60238313Y-50149018D01*
X60416692Y-49936810D01*
X60563392Y-49701585D01*
X60675484Y-49448037D01*
X60750733Y-49181224D01*
X60774674Y-49002981D01*
X60787210Y-48909653D01*
X60787211Y-48909645D01*
X60787637Y-48906471D01*
X60787738Y-48903260D01*
X60791409Y-48786462D01*
X60791409Y-48786457D01*
X60791510Y-48783240D01*
X60787145Y-48721594D01*
X62366438Y-48721594D01*
X62366613Y-48726046D01*
X62371793Y-48857871D01*
X62377322Y-48998601D01*
X62427128Y-49271311D01*
X62514862Y-49534283D01*
X62638774Y-49782269D01*
X62796391Y-50010322D01*
X62984568Y-50213892D01*
X62988022Y-50216704D01*
X63196095Y-50386102D01*
X63196099Y-50386105D01*
X63199552Y-50388916D01*
X63437052Y-50531903D01*
X63441147Y-50533637D01*
X63441149Y-50533638D01*
X63646021Y-50620390D01*
X63692329Y-50639999D01*
X63696622Y-50641137D01*
X63696627Y-50641139D01*
X63817971Y-50673312D01*
X63960291Y-50711047D01*
X64235590Y-50743631D01*
X64512734Y-50737100D01*
X64669260Y-50711047D01*
X64781803Y-50692315D01*
X64781807Y-50692314D01*
X64786193Y-50691584D01*
X64790434Y-50690243D01*
X64790437Y-50690242D01*
X65046264Y-50609334D01*
X65046266Y-50609333D01*
X65050510Y-50607991D01*
X65054521Y-50606065D01*
X65054526Y-50606063D01*
X65296393Y-50489920D01*
X65296394Y-50489919D01*
X65300412Y-50487990D01*
X65304118Y-50485514D01*
X65527205Y-50336453D01*
X65527209Y-50336450D01*
X65530913Y-50333975D01*
X65534230Y-50331004D01*
X65534234Y-50331001D01*
X65734095Y-50151990D01*
X65734096Y-50151989D01*
X65737413Y-50149018D01*
X65915792Y-49936810D01*
X66062492Y-49701585D01*
X66174584Y-49448037D01*
X66249833Y-49181224D01*
X66273774Y-49002981D01*
X66286310Y-48909653D01*
X66286311Y-48909645D01*
X66286737Y-48906471D01*
X66286838Y-48903260D01*
X66290509Y-48786462D01*
X66290509Y-48786457D01*
X66290610Y-48783240D01*
X66285635Y-48712978D01*
X69615952Y-48712978D01*
X69616105Y-48717366D01*
X69616105Y-48717372D01*
X69618518Y-48786462D01*
X69625755Y-48993684D01*
X69674529Y-49270295D01*
X69675884Y-49274466D01*
X69675886Y-49274473D01*
X69747803Y-49495810D01*
X69761325Y-49537426D01*
X69884454Y-49789877D01*
X70041518Y-50022735D01*
X70044462Y-50026004D01*
X70044463Y-50026006D01*
X70216168Y-50216704D01*
X70229462Y-50231468D01*
X70444627Y-50412013D01*
X70682825Y-50560855D01*
X70939420Y-50675099D01*
X70943648Y-50676311D01*
X70943647Y-50676311D01*
X71178055Y-50743526D01*
X71209417Y-50752519D01*
X71213767Y-50753130D01*
X71213770Y-50753131D01*
X71315800Y-50767470D01*
X71487561Y-50791610D01*
X71698131Y-50791610D01*
X71700317Y-50791457D01*
X71700321Y-50791457D01*
X71903809Y-50777228D01*
X71903814Y-50777227D01*
X71908194Y-50776921D01*
X71912488Y-50776008D01*
X71912490Y-50776008D01*
X72028698Y-50751307D01*
X72182934Y-50718523D01*
X72187065Y-50717019D01*
X72187070Y-50717018D01*
X72334715Y-50663279D01*
X72446872Y-50622457D01*
X72562729Y-50560855D01*
X72690981Y-50492663D01*
X72690987Y-50492659D01*
X72694873Y-50490593D01*
X72698433Y-50488006D01*
X72698437Y-50488004D01*
X72918545Y-50328086D01*
X72918548Y-50328084D01*
X72922108Y-50325497D01*
X72925275Y-50322439D01*
X73120989Y-50133440D01*
X73120993Y-50133435D01*
X73124154Y-50130383D01*
X73297080Y-49909049D01*
X73334278Y-49844620D01*
X73435314Y-49669621D01*
X73435317Y-49669616D01*
X73437519Y-49665801D01*
X73439169Y-49661717D01*
X73439172Y-49661711D01*
X73541088Y-49409458D01*
X73541089Y-49409455D01*
X73542737Y-49405376D01*
X73610688Y-49132841D01*
X73624798Y-48998601D01*
X73639589Y-48857871D01*
X73639589Y-48857868D01*
X73640048Y-48853502D01*
X73637595Y-48783240D01*
X73630399Y-48577194D01*
X73630398Y-48577188D01*
X73630245Y-48572796D01*
X73581471Y-48296185D01*
X73580116Y-48292014D01*
X73580114Y-48292007D01*
X73496036Y-48033243D01*
X73494675Y-48029054D01*
X73468611Y-47975614D01*
X73430199Y-47896859D01*
X73371546Y-47776603D01*
X73214482Y-47543745D01*
X73026538Y-47335012D01*
X72811373Y-47154467D01*
X72573175Y-47005625D01*
X72316580Y-46891381D01*
X72123097Y-46835901D01*
X72050810Y-46815173D01*
X72050809Y-46815173D01*
X72046583Y-46813961D01*
X72042233Y-46813350D01*
X72042230Y-46813349D01*
X71940200Y-46799010D01*
X71768439Y-46774870D01*
X71557869Y-46774870D01*
X71555683Y-46775023D01*
X71555679Y-46775023D01*
X71352191Y-46789252D01*
X71352186Y-46789253D01*
X71347806Y-46789559D01*
X71343512Y-46790472D01*
X71343510Y-46790472D01*
X71235883Y-46813349D01*
X71073066Y-46847957D01*
X71068935Y-46849461D01*
X71068930Y-46849462D01*
X70959307Y-46889362D01*
X70809128Y-46944023D01*
X70805241Y-46946090D01*
X70565019Y-47073817D01*
X70565013Y-47073821D01*
X70561127Y-47075887D01*
X70557567Y-47078474D01*
X70557563Y-47078476D01*
X70337455Y-47238394D01*
X70333892Y-47240983D01*
X70330728Y-47244039D01*
X70330725Y-47244041D01*
X70135011Y-47433040D01*
X70135007Y-47433045D01*
X70131846Y-47436097D01*
X69958920Y-47657431D01*
X69956717Y-47661247D01*
X69892221Y-47772958D01*
X69818481Y-47900679D01*
X69816831Y-47904763D01*
X69816828Y-47904769D01*
X69766614Y-48029054D01*
X69713263Y-48161104D01*
X69645312Y-48433639D01*
X69644853Y-48438009D01*
X69644852Y-48438013D01*
X69616411Y-48708609D01*
X69615952Y-48712978D01*
X66285635Y-48712978D01*
X66271031Y-48506711D01*
X66212684Y-48235700D01*
X66116733Y-47975614D01*
X65985093Y-47731642D01*
X65982452Y-47728067D01*
X65982448Y-47728060D01*
X65823043Y-47512245D01*
X65820390Y-47508653D01*
X65778307Y-47465903D01*
X65629042Y-47314276D01*
X65625911Y-47311095D01*
X65622372Y-47308394D01*
X65622365Y-47308388D01*
X65476064Y-47196735D01*
X65405536Y-47142910D01*
X65401647Y-47140732D01*
X65167553Y-47009633D01*
X65167552Y-47009633D01*
X65163662Y-47007454D01*
X65154320Y-47003840D01*
X64909270Y-46909036D01*
X64909264Y-46909034D01*
X64905115Y-46907429D01*
X64900783Y-46906425D01*
X64900780Y-46906424D01*
X64790445Y-46880850D01*
X64635054Y-46844832D01*
X64358867Y-46820912D01*
X64354432Y-46821156D01*
X64354428Y-46821156D01*
X64241985Y-46827344D01*
X64082065Y-46836145D01*
X63810171Y-46890229D01*
X63688495Y-46932958D01*
X63552816Y-46980604D01*
X63552808Y-46980607D01*
X63548609Y-46982082D01*
X63544656Y-46984135D01*
X63544650Y-46984138D01*
X63498807Y-47007952D01*
X63302600Y-47109874D01*
X63298985Y-47112457D01*
X63298979Y-47112461D01*
X63156474Y-47214297D01*
X63077051Y-47271054D01*
X63073831Y-47274126D01*
X62900407Y-47439564D01*
X62876462Y-47462406D01*
X62704836Y-47680112D01*
X62702599Y-47683964D01*
X62567832Y-47915982D01*
X62567829Y-47915988D01*
X62565598Y-47919829D01*
X62563928Y-47923952D01*
X62466142Y-48165375D01*
X62461525Y-48176773D01*
X62460454Y-48181086D01*
X62460452Y-48181091D01*
X62432901Y-48292007D01*
X62394694Y-48445817D01*
X62366438Y-48721594D01*
X60787145Y-48721594D01*
X60771931Y-48506711D01*
X60713584Y-48235700D01*
X60617633Y-47975614D01*
X60485993Y-47731642D01*
X60483352Y-47728067D01*
X60483348Y-47728060D01*
X60323943Y-47512245D01*
X60321290Y-47508653D01*
X60279207Y-47465903D01*
X60129942Y-47314276D01*
X60126811Y-47311095D01*
X60123272Y-47308394D01*
X60123265Y-47308388D01*
X59976964Y-47196735D01*
X59906436Y-47142910D01*
X59902547Y-47140732D01*
X59668453Y-47009633D01*
X59668452Y-47009633D01*
X59664562Y-47007454D01*
X59655220Y-47003840D01*
X59410170Y-46909036D01*
X59410164Y-46909034D01*
X59406015Y-46907429D01*
X59401683Y-46906425D01*
X59401680Y-46906424D01*
X59291345Y-46880850D01*
X59135954Y-46844832D01*
X58859767Y-46820912D01*
X58855332Y-46821156D01*
X58855328Y-46821156D01*
X58742885Y-46827344D01*
X58582965Y-46836145D01*
X58311071Y-46890229D01*
X58189395Y-46932958D01*
X58053716Y-46980604D01*
X58053708Y-46980607D01*
X58049509Y-46982082D01*
X58045556Y-46984135D01*
X58045550Y-46984138D01*
X57999707Y-47007952D01*
X57803500Y-47109874D01*
X57799885Y-47112457D01*
X57799879Y-47112461D01*
X57657374Y-47214297D01*
X57577951Y-47271054D01*
X57574731Y-47274126D01*
X57401307Y-47439564D01*
X57377362Y-47462406D01*
X57205736Y-47680112D01*
X57203499Y-47683964D01*
X57068732Y-47915982D01*
X57068729Y-47915988D01*
X57066498Y-47919829D01*
X57064828Y-47923952D01*
X56967042Y-48165375D01*
X56962425Y-48176773D01*
X56961354Y-48181086D01*
X56961352Y-48181091D01*
X56933801Y-48292007D01*
X56895594Y-48445817D01*
X56867338Y-48721594D01*
X53853619Y-48721594D01*
X53848298Y-46480668D01*
X53868139Y-46412501D01*
X53921684Y-46365881D01*
X53973668Y-46354372D01*
X70171718Y-46273381D01*
X78985364Y-46229313D01*
X79053583Y-46248974D01*
G37*
%TD.AperFunction*%
%TD*%
M02*
