%TF.GenerationSoftware,KiCad,Pcbnew,(6.0.8-1)-1*%
%TF.CreationDate,2022-11-10T09:52:18-06:00*%
%TF.ProjectId,VT100_ATX_DCDC,56543130-305f-4415-9458-5f444344432e,rev?*%
%TF.SameCoordinates,Original*%
%TF.FileFunction,Soldermask,Bot*%
%TF.FilePolarity,Negative*%
%FSLAX46Y46*%
G04 Gerber Fmt 4.6, Leading zero omitted, Abs format (unit mm)*
G04 Created by KiCad (PCBNEW (6.0.8-1)-1) date 2022-11-10 09:52:18*
%MOMM*%
%LPD*%
G01*
G04 APERTURE LIST*
G04 Aperture macros list*
%AMRoundRect*
0 Rectangle with rounded corners*
0 $1 Rounding radius*
0 $2 $3 $4 $5 $6 $7 $8 $9 X,Y pos of 4 corners*
0 Add a 4 corners polygon primitive as box body*
4,1,4,$2,$3,$4,$5,$6,$7,$8,$9,$2,$3,0*
0 Add four circle primitives for the rounded corners*
1,1,$1+$1,$2,$3*
1,1,$1+$1,$4,$5*
1,1,$1+$1,$6,$7*
1,1,$1+$1,$8,$9*
0 Add four rect primitives between the rounded corners*
20,1,$1+$1,$2,$3,$4,$5,0*
20,1,$1+$1,$4,$5,$6,$7,0*
20,1,$1+$1,$6,$7,$8,$9,0*
20,1,$1+$1,$8,$9,$2,$3,0*%
G04 Aperture macros list end*
%ADD10C,0.175000*%
%ADD11C,0.375000*%
%ADD12C,0.120000*%
%ADD13C,2.000000*%
%ADD14C,1.600000*%
%ADD15RoundRect,0.250000X-0.750000X0.600000X-0.750000X-0.600000X0.750000X-0.600000X0.750000X0.600000X0*%
%ADD16O,2.000000X1.700000*%
%ADD17R,1.600000X1.600000*%
%ADD18RoundRect,0.120000X4.980000X1.080000X-4.980000X1.080000X-4.980000X-1.080000X4.980000X-1.080000X0*%
%ADD19RoundRect,0.437500X-0.437500X0.437500X-0.437500X-0.437500X0.437500X-0.437500X0.437500X0.437500X0*%
%ADD20R,1.500000X1.050000*%
%ADD21O,1.500000X1.050000*%
%ADD22C,3.202940*%
%ADD23C,3.101340*%
G04 APERTURE END LIST*
D10*
X78493166Y-98046583D02*
X78026500Y-98046583D01*
X78093166Y-98046583D02*
X78059833Y-98079916D01*
X78026500Y-98146583D01*
X78026500Y-98246583D01*
X78059833Y-98313250D01*
X78126500Y-98346583D01*
X78493166Y-98346583D01*
X78126500Y-98346583D02*
X78059833Y-98379916D01*
X78026500Y-98446583D01*
X78026500Y-98546583D01*
X78059833Y-98613250D01*
X78126500Y-98646583D01*
X78493166Y-98646583D01*
X78493166Y-99279916D02*
X78126500Y-99279916D01*
X78059833Y-99246583D01*
X78026500Y-99179916D01*
X78026500Y-99046583D01*
X78059833Y-98979916D01*
X78459833Y-99279916D02*
X78493166Y-99213250D01*
X78493166Y-99046583D01*
X78459833Y-98979916D01*
X78393166Y-98946583D01*
X78326500Y-98946583D01*
X78259833Y-98979916D01*
X78226500Y-99046583D01*
X78226500Y-99213250D01*
X78193166Y-99279916D01*
X78493166Y-99913250D02*
X77793166Y-99913250D01*
X78459833Y-99913250D02*
X78493166Y-99846583D01*
X78493166Y-99713250D01*
X78459833Y-99646583D01*
X78426500Y-99613250D01*
X78359833Y-99579916D01*
X78159833Y-99579916D01*
X78093166Y-99613250D01*
X78059833Y-99646583D01*
X78026500Y-99713250D01*
X78026500Y-99846583D01*
X78059833Y-99913250D01*
X78459833Y-100513250D02*
X78493166Y-100446583D01*
X78493166Y-100313250D01*
X78459833Y-100246583D01*
X78393166Y-100213250D01*
X78126500Y-100213250D01*
X78059833Y-100246583D01*
X78026500Y-100313250D01*
X78026500Y-100446583D01*
X78059833Y-100513250D01*
X78126500Y-100546583D01*
X78193166Y-100546583D01*
X78259833Y-100213250D01*
X78493166Y-101379916D02*
X77793166Y-101379916D01*
X78059833Y-101379916D02*
X78026500Y-101446583D01*
X78026500Y-101579916D01*
X78059833Y-101646583D01*
X78093166Y-101679916D01*
X78159833Y-101713250D01*
X78359833Y-101713250D01*
X78426500Y-101679916D01*
X78459833Y-101646583D01*
X78493166Y-101579916D01*
X78493166Y-101446583D01*
X78459833Y-101379916D01*
X78026500Y-101946583D02*
X78493166Y-102113250D01*
X78026500Y-102279916D02*
X78493166Y-102113250D01*
X78659833Y-102046583D01*
X78693166Y-102013250D01*
X78726500Y-101946583D01*
X78493166Y-103379916D02*
X77793166Y-103379916D01*
X78459833Y-103379916D02*
X78493166Y-103313250D01*
X78493166Y-103179916D01*
X78459833Y-103113250D01*
X78426500Y-103079916D01*
X78359833Y-103046583D01*
X78159833Y-103046583D01*
X78093166Y-103079916D01*
X78059833Y-103113250D01*
X78026500Y-103179916D01*
X78026500Y-103313250D01*
X78059833Y-103379916D01*
X78459833Y-103979916D02*
X78493166Y-103913250D01*
X78493166Y-103779916D01*
X78459833Y-103713250D01*
X78393166Y-103679916D01*
X78126500Y-103679916D01*
X78059833Y-103713250D01*
X78026500Y-103779916D01*
X78026500Y-103913250D01*
X78059833Y-103979916D01*
X78126500Y-104013250D01*
X78193166Y-104013250D01*
X78259833Y-103679916D01*
X78493166Y-104313250D02*
X78026500Y-104313250D01*
X78159833Y-104313250D02*
X78093166Y-104346583D01*
X78059833Y-104379916D01*
X78026500Y-104446583D01*
X78026500Y-104513250D01*
X78459833Y-105013250D02*
X78493166Y-104946583D01*
X78493166Y-104813250D01*
X78459833Y-104746583D01*
X78393166Y-104713250D01*
X78126500Y-104713250D01*
X78059833Y-104746583D01*
X78026500Y-104813250D01*
X78026500Y-104946583D01*
X78059833Y-105013250D01*
X78126500Y-105046583D01*
X78193166Y-105046583D01*
X78259833Y-104713250D01*
X78493166Y-105346583D02*
X77793166Y-105346583D01*
X78226500Y-105413250D02*
X78493166Y-105613250D01*
X78026500Y-105613250D02*
X78293166Y-105346583D01*
X78493166Y-106746583D02*
X78126500Y-106746583D01*
X78059833Y-106713250D01*
X78026500Y-106646583D01*
X78026500Y-106513250D01*
X78059833Y-106446583D01*
X78459833Y-106746583D02*
X78493166Y-106679916D01*
X78493166Y-106513250D01*
X78459833Y-106446583D01*
X78393166Y-106413250D01*
X78326500Y-106413250D01*
X78259833Y-106446583D01*
X78226500Y-106513250D01*
X78226500Y-106679916D01*
X78193166Y-106746583D01*
X78493166Y-107079916D02*
X78026500Y-107079916D01*
X78159833Y-107079916D02*
X78093166Y-107113250D01*
X78059833Y-107146583D01*
X78026500Y-107213250D01*
X78026500Y-107279916D01*
X78026500Y-107513250D02*
X78493166Y-107513250D01*
X78093166Y-107513250D02*
X78059833Y-107546583D01*
X78026500Y-107613250D01*
X78026500Y-107713250D01*
X78059833Y-107779916D01*
X78126500Y-107813250D01*
X78493166Y-107813250D01*
X78493166Y-108246583D02*
X78459833Y-108179916D01*
X78426500Y-108146583D01*
X78359833Y-108113250D01*
X78159833Y-108113250D01*
X78093166Y-108146583D01*
X78059833Y-108179916D01*
X78026500Y-108246583D01*
X78026500Y-108346583D01*
X78059833Y-108413250D01*
X78093166Y-108446583D01*
X78159833Y-108479916D01*
X78359833Y-108479916D01*
X78426500Y-108446583D01*
X78459833Y-108413250D01*
X78493166Y-108346583D01*
X78493166Y-108246583D01*
X78493166Y-108879916D02*
X78459833Y-108813250D01*
X78393166Y-108779916D01*
X77793166Y-108779916D01*
X78493166Y-109446583D02*
X77793166Y-109446583D01*
X78459833Y-109446583D02*
X78493166Y-109379916D01*
X78493166Y-109246583D01*
X78459833Y-109179916D01*
X78426500Y-109146583D01*
X78359833Y-109113250D01*
X78159833Y-109113250D01*
X78093166Y-109146583D01*
X78059833Y-109179916D01*
X78026500Y-109246583D01*
X78026500Y-109379916D01*
X78059833Y-109446583D01*
X78493166Y-110313250D02*
X78026500Y-110313250D01*
X77793166Y-110313250D02*
X77826500Y-110279916D01*
X77859833Y-110313250D01*
X77826500Y-110346583D01*
X77793166Y-110313250D01*
X77859833Y-110313250D01*
X78026500Y-110646583D02*
X78493166Y-110646583D01*
X78093166Y-110646583D02*
X78059833Y-110679916D01*
X78026500Y-110746583D01*
X78026500Y-110846583D01*
X78059833Y-110913250D01*
X78126500Y-110946583D01*
X78493166Y-110946583D01*
X77859833Y-111779916D02*
X77826500Y-111813250D01*
X77793166Y-111879916D01*
X77793166Y-112046583D01*
X77826500Y-112113250D01*
X77859833Y-112146583D01*
X77926500Y-112179916D01*
X77993166Y-112179916D01*
X78093166Y-112146583D01*
X78493166Y-111746583D01*
X78493166Y-112179916D01*
X77793166Y-112613250D02*
X77793166Y-112679916D01*
X77826500Y-112746583D01*
X77859833Y-112779916D01*
X77926500Y-112813250D01*
X78059833Y-112846583D01*
X78226500Y-112846583D01*
X78359833Y-112813250D01*
X78426500Y-112779916D01*
X78459833Y-112746583D01*
X78493166Y-112679916D01*
X78493166Y-112613250D01*
X78459833Y-112546583D01*
X78426500Y-112513250D01*
X78359833Y-112479916D01*
X78226500Y-112446583D01*
X78059833Y-112446583D01*
X77926500Y-112479916D01*
X77859833Y-112513250D01*
X77826500Y-112546583D01*
X77793166Y-112613250D01*
X77859833Y-113113250D02*
X77826500Y-113146583D01*
X77793166Y-113213250D01*
X77793166Y-113379916D01*
X77826500Y-113446583D01*
X77859833Y-113479916D01*
X77926500Y-113513250D01*
X77993166Y-113513250D01*
X78093166Y-113479916D01*
X78493166Y-113079916D01*
X78493166Y-113513250D01*
X77859833Y-113779916D02*
X77826500Y-113813250D01*
X77793166Y-113879916D01*
X77793166Y-114046583D01*
X77826500Y-114113250D01*
X77859833Y-114146583D01*
X77926500Y-114179916D01*
X77993166Y-114179916D01*
X78093166Y-114146583D01*
X78493166Y-113746583D01*
X78493166Y-114179916D01*
X79620166Y-103646583D02*
X78920166Y-103646583D01*
X79620166Y-103946583D02*
X79253500Y-103946583D01*
X79186833Y-103913250D01*
X79153500Y-103846583D01*
X79153500Y-103746583D01*
X79186833Y-103679916D01*
X79220166Y-103646583D01*
X79153500Y-104179916D02*
X79153500Y-104446583D01*
X78920166Y-104279916D02*
X79520166Y-104279916D01*
X79586833Y-104313250D01*
X79620166Y-104379916D01*
X79620166Y-104446583D01*
X79153500Y-104579916D02*
X79153500Y-104846583D01*
X78920166Y-104679916D02*
X79520166Y-104679916D01*
X79586833Y-104713250D01*
X79620166Y-104779916D01*
X79620166Y-104846583D01*
X79153500Y-105079916D02*
X79853500Y-105079916D01*
X79186833Y-105079916D02*
X79153500Y-105146583D01*
X79153500Y-105279916D01*
X79186833Y-105346583D01*
X79220166Y-105379916D01*
X79286833Y-105413250D01*
X79486833Y-105413250D01*
X79553500Y-105379916D01*
X79586833Y-105346583D01*
X79620166Y-105279916D01*
X79620166Y-105146583D01*
X79586833Y-105079916D01*
X79586833Y-105679916D02*
X79620166Y-105746583D01*
X79620166Y-105879916D01*
X79586833Y-105946583D01*
X79520166Y-105979916D01*
X79486833Y-105979916D01*
X79420166Y-105946583D01*
X79386833Y-105879916D01*
X79386833Y-105779916D01*
X79353500Y-105713250D01*
X79286833Y-105679916D01*
X79253500Y-105679916D01*
X79186833Y-105713250D01*
X79153500Y-105779916D01*
X79153500Y-105879916D01*
X79186833Y-105946583D01*
X79553500Y-106279916D02*
X79586833Y-106313250D01*
X79620166Y-106279916D01*
X79586833Y-106246583D01*
X79553500Y-106279916D01*
X79620166Y-106279916D01*
X79186833Y-106279916D02*
X79220166Y-106313250D01*
X79253500Y-106279916D01*
X79220166Y-106246583D01*
X79186833Y-106279916D01*
X79253500Y-106279916D01*
X78886833Y-107113250D02*
X79786833Y-106513250D01*
X78886833Y-107846583D02*
X79786833Y-107246583D01*
X79153500Y-107979916D02*
X79153500Y-108246583D01*
X79620166Y-108079916D02*
X79020166Y-108079916D01*
X78953500Y-108113250D01*
X78920166Y-108179916D01*
X78920166Y-108246583D01*
X79153500Y-108779916D02*
X79620166Y-108779916D01*
X79153500Y-108479916D02*
X79520166Y-108479916D01*
X79586833Y-108513250D01*
X79620166Y-108579916D01*
X79620166Y-108679916D01*
X79586833Y-108746583D01*
X79553500Y-108779916D01*
X79620166Y-109213250D02*
X79586833Y-109146583D01*
X79520166Y-109113250D01*
X78920166Y-109113250D01*
X79620166Y-109579916D02*
X79586833Y-109513250D01*
X79520166Y-109479916D01*
X78920166Y-109479916D01*
X79586833Y-110113250D02*
X79620166Y-110046583D01*
X79620166Y-109913250D01*
X79586833Y-109846583D01*
X79520166Y-109813250D01*
X79253500Y-109813250D01*
X79186833Y-109846583D01*
X79153500Y-109913250D01*
X79153500Y-110046583D01*
X79186833Y-110113250D01*
X79253500Y-110146583D01*
X79320166Y-110146583D01*
X79386833Y-109813250D01*
X79620166Y-110446583D02*
X79153500Y-110446583D01*
X79220166Y-110446583D02*
X79186833Y-110479916D01*
X79153500Y-110546583D01*
X79153500Y-110646583D01*
X79186833Y-110713250D01*
X79253500Y-110746583D01*
X79620166Y-110746583D01*
X79253500Y-110746583D02*
X79186833Y-110779916D01*
X79153500Y-110846583D01*
X79153500Y-110946583D01*
X79186833Y-111013250D01*
X79253500Y-111046583D01*
X79620166Y-111046583D01*
X79153500Y-111379916D02*
X79853500Y-111379916D01*
X79186833Y-111379916D02*
X79153500Y-111446583D01*
X79153500Y-111579916D01*
X79186833Y-111646583D01*
X79220166Y-111679916D01*
X79286833Y-111713250D01*
X79486833Y-111713250D01*
X79553500Y-111679916D01*
X79586833Y-111646583D01*
X79620166Y-111579916D01*
X79620166Y-111446583D01*
X79586833Y-111379916D01*
X79153500Y-111913250D02*
X79153500Y-112179916D01*
X78920166Y-112013250D02*
X79520166Y-112013250D01*
X79586833Y-112046583D01*
X79620166Y-112113250D01*
X79620166Y-112179916D01*
X79153500Y-112346583D02*
X79620166Y-112513250D01*
X79153500Y-112679916D02*
X79620166Y-112513250D01*
X79786833Y-112446583D01*
X79820166Y-112413250D01*
X79853500Y-112346583D01*
X79553500Y-112946583D02*
X79586833Y-112979916D01*
X79620166Y-112946583D01*
X79586833Y-112913250D01*
X79553500Y-112946583D01*
X79620166Y-112946583D01*
X79586833Y-113246583D02*
X79620166Y-113313250D01*
X79620166Y-113446583D01*
X79586833Y-113513250D01*
X79520166Y-113546583D01*
X79486833Y-113546583D01*
X79420166Y-113513250D01*
X79386833Y-113446583D01*
X79386833Y-113346583D01*
X79353500Y-113279916D01*
X79286833Y-113246583D01*
X79253500Y-113246583D01*
X79186833Y-113279916D01*
X79153500Y-113346583D01*
X79153500Y-113446583D01*
X79186833Y-113513250D01*
X79620166Y-113846583D02*
X78920166Y-113846583D01*
X79620166Y-114146583D02*
X79253500Y-114146583D01*
X79186833Y-114113250D01*
X79153500Y-114046583D01*
X79153500Y-113946583D01*
X79186833Y-113879916D01*
X79220166Y-113846583D01*
D11*
X80458571Y-84303919D02*
X81958571Y-84616419D01*
X80458571Y-85303919D01*
X80458571Y-85589633D02*
X80458571Y-86446776D01*
X81958571Y-85830705D02*
X80458571Y-86018205D01*
X81958571Y-87544991D02*
X81958571Y-86687848D01*
X81958571Y-87116419D02*
X80458571Y-87303919D01*
X80672857Y-87134276D01*
X80815714Y-86973562D01*
X80887142Y-86821776D01*
X80458571Y-88661062D02*
X80458571Y-88803919D01*
X80530000Y-88937848D01*
X80601428Y-89000348D01*
X80744285Y-89053919D01*
X81030000Y-89089633D01*
X81387142Y-89044991D01*
X81672857Y-88937848D01*
X81815714Y-88848562D01*
X81887142Y-88768205D01*
X81958571Y-88616419D01*
X81958571Y-88473562D01*
X81887142Y-88339633D01*
X81815714Y-88277133D01*
X81672857Y-88223562D01*
X81387142Y-88187848D01*
X81030000Y-88232491D01*
X80744285Y-88339633D01*
X80601428Y-88428919D01*
X80530000Y-88509276D01*
X80458571Y-88661062D01*
X80458571Y-90089633D02*
X80458571Y-90232491D01*
X80530000Y-90366419D01*
X80601428Y-90428919D01*
X80744285Y-90482491D01*
X81030000Y-90518205D01*
X81387142Y-90473562D01*
X81672857Y-90366419D01*
X81815714Y-90277133D01*
X81887142Y-90196776D01*
X81958571Y-90044991D01*
X81958571Y-89902133D01*
X81887142Y-89768205D01*
X81815714Y-89705705D01*
X81672857Y-89652133D01*
X81387142Y-89616419D01*
X81030000Y-89661062D01*
X80744285Y-89768205D01*
X80601428Y-89857491D01*
X80530000Y-89937848D01*
X80458571Y-90089633D01*
X81530000Y-92169991D02*
X81530000Y-92884276D01*
X81958571Y-91973562D02*
X80458571Y-92661062D01*
X81958571Y-92973562D01*
X80458571Y-93446776D02*
X80458571Y-94303919D01*
X81958571Y-93687848D02*
X80458571Y-93875348D01*
X80458571Y-94661062D02*
X81958571Y-95473562D01*
X80458571Y-95661062D02*
X81958571Y-94473562D01*
X81958571Y-97187848D02*
X80458571Y-97375348D01*
X80458571Y-97946776D01*
X80530000Y-98080705D01*
X80601428Y-98143205D01*
X80744285Y-98196776D01*
X80958571Y-98169991D01*
X81101428Y-98080705D01*
X81172857Y-98000348D01*
X81244285Y-97848562D01*
X81244285Y-97277133D01*
X80458571Y-99161062D02*
X80458571Y-99446776D01*
X80530000Y-99580705D01*
X80672857Y-99705705D01*
X80958571Y-99741419D01*
X81458571Y-99678919D01*
X81744285Y-99571776D01*
X81887142Y-99411062D01*
X81958571Y-99259276D01*
X81958571Y-98973562D01*
X81887142Y-98839633D01*
X81744285Y-98714633D01*
X81458571Y-98678919D01*
X80958571Y-98741419D01*
X80672857Y-98848562D01*
X80530000Y-99009276D01*
X80458571Y-99161062D01*
X80458571Y-100303919D02*
X81958571Y-100473562D01*
X80887142Y-100893205D01*
X81958571Y-101044991D01*
X80458571Y-101589633D01*
X81172857Y-102071776D02*
X81172857Y-102571776D01*
X81958571Y-102687848D02*
X81958571Y-101973562D01*
X80458571Y-102161062D01*
X80458571Y-102875348D01*
X81958571Y-104187848D02*
X81244285Y-103777133D01*
X81958571Y-103330705D02*
X80458571Y-103518205D01*
X80458571Y-104089633D01*
X80530000Y-104223562D01*
X80601428Y-104286062D01*
X80744285Y-104339633D01*
X80958571Y-104312848D01*
X81101428Y-104223562D01*
X81172857Y-104143205D01*
X81244285Y-103991419D01*
X81244285Y-103419991D01*
X81887142Y-105911062D02*
X81958571Y-106116419D01*
X81958571Y-106473562D01*
X81887142Y-106625348D01*
X81815714Y-106705705D01*
X81672857Y-106794991D01*
X81530000Y-106812848D01*
X81387142Y-106759276D01*
X81315714Y-106696776D01*
X81244285Y-106562848D01*
X81172857Y-106286062D01*
X81101428Y-106152133D01*
X81030000Y-106089633D01*
X80887142Y-106036062D01*
X80744285Y-106053919D01*
X80601428Y-106143205D01*
X80530000Y-106223562D01*
X80458571Y-106375348D01*
X80458571Y-106732491D01*
X80530000Y-106937848D01*
X80458571Y-107589633D02*
X81672857Y-107437848D01*
X81815714Y-107491419D01*
X81887142Y-107553919D01*
X81958571Y-107687848D01*
X81958571Y-107973562D01*
X81887142Y-108125348D01*
X81815714Y-108205705D01*
X81672857Y-108294991D01*
X80458571Y-108446776D01*
X81958571Y-108973562D02*
X80458571Y-109161062D01*
X80458571Y-109732491D01*
X80530000Y-109866419D01*
X80601428Y-109928919D01*
X80744285Y-109982491D01*
X80958571Y-109955705D01*
X81101428Y-109866419D01*
X81172857Y-109786062D01*
X81244285Y-109634276D01*
X81244285Y-109062848D01*
X81958571Y-110473562D02*
X80458571Y-110661062D01*
X80458571Y-111232491D01*
X80530000Y-111366419D01*
X80601428Y-111428919D01*
X80744285Y-111482491D01*
X80958571Y-111455705D01*
X81101428Y-111366419D01*
X81172857Y-111286062D01*
X81244285Y-111134276D01*
X81244285Y-110562848D01*
X81958571Y-112687848D02*
X81958571Y-111973562D01*
X80458571Y-112161062D01*
X81244285Y-113562848D02*
X81958571Y-113473562D01*
X80458571Y-113161062D02*
X81244285Y-113562848D01*
X80458571Y-114161062D01*
%TO.C,U2*%
G36*
X49231000Y-125733000D02*
G01*
X40481000Y-125733000D01*
X40481000Y-50733000D01*
X49231000Y-50733000D01*
X49231000Y-125733000D01*
G37*
D12*
X49231000Y-125733000D02*
X40481000Y-125733000D01*
X40481000Y-50733000D01*
X49231000Y-50733000D01*
X49231000Y-125733000D01*
%TD*%
D13*
%TO.C,U1*%
X64770000Y-54959000D03*
X67310000Y-54959000D03*
X72390000Y-54959000D03*
X74930000Y-54959000D03*
X77470000Y-54959000D03*
%TD*%
D14*
%TO.C,C1*%
X58674000Y-79268000D03*
X58674000Y-81768000D03*
%TD*%
D15*
%TO.C,J1*%
X79248000Y-65532000D03*
D16*
X79248000Y-68032000D03*
%TD*%
D17*
%TO.C,C3*%
X58674000Y-56073100D03*
D14*
X58674000Y-54073100D03*
%TD*%
D18*
%TO.C,U2*%
X45931000Y-54233000D03*
X45931000Y-58233000D03*
X45931000Y-62233000D03*
X45931000Y-66233000D03*
X45931000Y-70233000D03*
X45931000Y-74233000D03*
X45931000Y-78233000D03*
X45931000Y-82233000D03*
X45931000Y-86233000D03*
X45931000Y-90233000D03*
X45931000Y-94233000D03*
X45931000Y-98233000D03*
X45931000Y-102233000D03*
X45931000Y-106233000D03*
X45931000Y-110233000D03*
X45931000Y-114233000D03*
X45931000Y-118233000D03*
X45931000Y-122233000D03*
%TD*%
D19*
%TO.C,R1*%
X57912000Y-99252000D03*
X57912000Y-123252000D03*
%TD*%
D17*
%TO.C,C2*%
X65973900Y-69088000D03*
D14*
X67973900Y-69088000D03*
%TD*%
D20*
%TO.C,U3*%
X58674000Y-65786000D03*
D21*
X58674000Y-67056000D03*
X58674000Y-68326000D03*
%TD*%
D22*
%TO.C,J2*%
X76962000Y-76215240D03*
X76962000Y-122412760D03*
D23*
X69662040Y-76215240D03*
X69662040Y-80416400D03*
X69662040Y-84615020D03*
X69662040Y-88816180D03*
X69662040Y-93014800D03*
X69662040Y-97215960D03*
X69662040Y-101412040D03*
X69662040Y-105613200D03*
X69662040Y-109811820D03*
X69662040Y-114012980D03*
X69662040Y-118211600D03*
X69662040Y-122412760D03*
X64162940Y-76215240D03*
X64162940Y-80416400D03*
X64162940Y-84615020D03*
X64162940Y-88816180D03*
X64162940Y-93014800D03*
X64162940Y-97215960D03*
X64162940Y-101412040D03*
X64162940Y-105613200D03*
X64162940Y-109811820D03*
X64162940Y-114012980D03*
X64162940Y-118211600D03*
X64162940Y-122412760D03*
%TD*%
M02*
