M48
; DRILL file {KiCad (6.0.8-1)-1} date Saturday, October 29, 2022 at 11:09:29 AM
; FORMAT={-:-/ absolute / inch / decimal}
; #@! TF.CreationDate,2022-10-29T11:09:29-05:00
; #@! TF.GenerationSoftware,Kicad,Pcbnew,(6.0.8-1)-1
; #@! TF.FileFunction,MixedPlating,1,2
FMAT,2
INCH
; #@! TA.AperFunction,Plated,PTH,ComponentDrill
T1C0.0300
; #@! TA.AperFunction,Plated,PTH,ComponentDrill
T2C0.0315
; #@! TA.AperFunction,Plated,PTH,ComponentDrill
T3C0.0394
; #@! TA.AperFunction,Plated,PTH,ComponentDrill
T4C0.0472
; #@! TA.AperFunction,Plated,PTH,ComponentDrill
T5C0.0511
; #@! TA.AperFunction,Plated,PTH,ComponentDrill
T6C0.0708
; #@! TA.AperFunction,NonPlated,NPTH,ComponentDrill
T7C0.1181
%
G90
G05
T1
X1.9658Y-2.1352
X1.9658Y-2.2926
X1.9658Y-2.4501
X1.9658Y-2.6076
X1.9658Y-2.7651
X1.9658Y-2.9226
X1.9658Y-3.08
X1.9658Y-3.2375
X1.9658Y-3.395
X1.9658Y-3.5525
X1.9658Y-3.71
X1.9658Y-3.8674
X1.9658Y-4.0249
X1.9658Y-4.1824
X1.9658Y-4.3399
X1.9658Y-4.4974
X1.9658Y-4.6548
X1.9658Y-4.8123
T2
X2.2416Y-3.99
X2.4384Y-3.99
T3
X2.4437Y-4.24
X2.4437Y-4.34
X2.4437Y-4.44
X2.4437Y-4.54
X2.4437Y-4.84
X2.4437Y-4.94
T4
X2.75Y-4.5406
X2.75Y-4.8406
T5
X2.7477Y-4.0516
X2.7477Y-4.2485
T6
X2.1961Y-1.9506
X2.1961Y-2.116
X2.1961Y-2.2813
X2.1961Y-2.4467
X2.1961Y-2.612
X2.1961Y-2.7774
X2.1961Y-2.9426
X2.1961Y-3.108
X2.1961Y-3.2733
X2.1961Y-3.4387
X2.1961Y-3.604
X2.1961Y-3.7694
X2.4126Y-1.9506
X2.4126Y-2.116
X2.4126Y-2.2813
X2.4126Y-2.4467
X2.4126Y-2.612
X2.4126Y-2.7774
X2.4126Y-2.9426
X2.4126Y-3.108
X2.4126Y-3.2733
X2.4126Y-3.4387
X2.4126Y-3.604
X2.4126Y-3.7694
T7
X2.7Y-1.9506
X2.7Y-3.7694
T0
M30
