%TF.GenerationSoftware,KiCad,Pcbnew,(6.0.8-1)-1*%
%TF.CreationDate,2022-10-29T11:09:20-05:00*%
%TF.ProjectId,VT100_ATX_DCDC,56543130-305f-4415-9458-5f444344432e,rev?*%
%TF.SameCoordinates,Original*%
%TF.FileFunction,Soldermask,Bot*%
%TF.FilePolarity,Negative*%
%FSLAX46Y46*%
G04 Gerber Fmt 4.6, Leading zero omitted, Abs format (unit mm)*
G04 Created by KiCad (PCBNEW (6.0.8-1)-1) date 2022-10-29 11:09:20*
%MOMM*%
%LPD*%
G01*
G04 APERTURE LIST*
G04 Aperture macros list*
%AMRoundRect*
0 Rectangle with rounded corners*
0 $1 Rounding radius*
0 $2 $3 $4 $5 $6 $7 $8 $9 X,Y pos of 4 corners*
0 Add a 4 corners polygon primitive as box body*
4,1,4,$2,$3,$4,$5,$6,$7,$8,$9,$2,$3,0*
0 Add four circle primitives for the rounded corners*
1,1,$1+$1,$2,$3*
1,1,$1+$1,$4,$5*
1,1,$1+$1,$6,$7*
1,1,$1+$1,$8,$9*
0 Add four rect primitives between the rounded corners*
20,1,$1+$1,$2,$3,$4,$5,0*
20,1,$1+$1,$4,$5,$6,$7,0*
20,1,$1+$1,$6,$7,$8,$9,0*
20,1,$1+$1,$8,$9,$2,$3,0*%
G04 Aperture macros list end*
%ADD10C,0.175000*%
%ADD11C,0.375000*%
%ADD12C,0.120000*%
%ADD13C,2.000000*%
%ADD14C,1.600000*%
%ADD15RoundRect,0.101600X1.016000X-1.016000X1.016000X1.016000X-1.016000X1.016000X-1.016000X-1.016000X0*%
%ADD16C,2.235200*%
%ADD17RoundRect,0.120000X4.980000X1.080000X-4.980000X1.080000X-4.980000X-1.080000X4.980000X-1.080000X0*%
%ADD18C,2.400000*%
%ADD19O,2.400000X2.400000*%
%ADD20C,3.202940*%
%ADD21C,3.101340*%
%ADD22R,1.000000X1.500000*%
G04 APERTURE END LIST*
D10*
X70365166Y-61597583D02*
X69898500Y-61597583D01*
X69965166Y-61597583D02*
X69931833Y-61630916D01*
X69898500Y-61697583D01*
X69898500Y-61797583D01*
X69931833Y-61864250D01*
X69998500Y-61897583D01*
X70365166Y-61897583D01*
X69998500Y-61897583D02*
X69931833Y-61930916D01*
X69898500Y-61997583D01*
X69898500Y-62097583D01*
X69931833Y-62164250D01*
X69998500Y-62197583D01*
X70365166Y-62197583D01*
X70365166Y-62830916D02*
X69998500Y-62830916D01*
X69931833Y-62797583D01*
X69898500Y-62730916D01*
X69898500Y-62597583D01*
X69931833Y-62530916D01*
X70331833Y-62830916D02*
X70365166Y-62764250D01*
X70365166Y-62597583D01*
X70331833Y-62530916D01*
X70265166Y-62497583D01*
X70198500Y-62497583D01*
X70131833Y-62530916D01*
X70098500Y-62597583D01*
X70098500Y-62764250D01*
X70065166Y-62830916D01*
X70365166Y-63464250D02*
X69665166Y-63464250D01*
X70331833Y-63464250D02*
X70365166Y-63397583D01*
X70365166Y-63264250D01*
X70331833Y-63197583D01*
X70298500Y-63164250D01*
X70231833Y-63130916D01*
X70031833Y-63130916D01*
X69965166Y-63164250D01*
X69931833Y-63197583D01*
X69898500Y-63264250D01*
X69898500Y-63397583D01*
X69931833Y-63464250D01*
X70331833Y-64064250D02*
X70365166Y-63997583D01*
X70365166Y-63864250D01*
X70331833Y-63797583D01*
X70265166Y-63764250D01*
X69998500Y-63764250D01*
X69931833Y-63797583D01*
X69898500Y-63864250D01*
X69898500Y-63997583D01*
X69931833Y-64064250D01*
X69998500Y-64097583D01*
X70065166Y-64097583D01*
X70131833Y-63764250D01*
X70365166Y-64930916D02*
X69665166Y-64930916D01*
X69931833Y-64930916D02*
X69898500Y-64997583D01*
X69898500Y-65130916D01*
X69931833Y-65197583D01*
X69965166Y-65230916D01*
X70031833Y-65264250D01*
X70231833Y-65264250D01*
X70298500Y-65230916D01*
X70331833Y-65197583D01*
X70365166Y-65130916D01*
X70365166Y-64997583D01*
X70331833Y-64930916D01*
X69898500Y-65497583D02*
X70365166Y-65664250D01*
X69898500Y-65830916D02*
X70365166Y-65664250D01*
X70531833Y-65597583D01*
X70565166Y-65564250D01*
X70598500Y-65497583D01*
X70365166Y-66930916D02*
X69665166Y-66930916D01*
X70331833Y-66930916D02*
X70365166Y-66864250D01*
X70365166Y-66730916D01*
X70331833Y-66664250D01*
X70298500Y-66630916D01*
X70231833Y-66597583D01*
X70031833Y-66597583D01*
X69965166Y-66630916D01*
X69931833Y-66664250D01*
X69898500Y-66730916D01*
X69898500Y-66864250D01*
X69931833Y-66930916D01*
X70331833Y-67530916D02*
X70365166Y-67464250D01*
X70365166Y-67330916D01*
X70331833Y-67264250D01*
X70265166Y-67230916D01*
X69998500Y-67230916D01*
X69931833Y-67264250D01*
X69898500Y-67330916D01*
X69898500Y-67464250D01*
X69931833Y-67530916D01*
X69998500Y-67564250D01*
X70065166Y-67564250D01*
X70131833Y-67230916D01*
X70365166Y-67864250D02*
X69898500Y-67864250D01*
X70031833Y-67864250D02*
X69965166Y-67897583D01*
X69931833Y-67930916D01*
X69898500Y-67997583D01*
X69898500Y-68064250D01*
X70331833Y-68564250D02*
X70365166Y-68497583D01*
X70365166Y-68364250D01*
X70331833Y-68297583D01*
X70265166Y-68264250D01*
X69998500Y-68264250D01*
X69931833Y-68297583D01*
X69898500Y-68364250D01*
X69898500Y-68497583D01*
X69931833Y-68564250D01*
X69998500Y-68597583D01*
X70065166Y-68597583D01*
X70131833Y-68264250D01*
X70365166Y-68897583D02*
X69665166Y-68897583D01*
X70098500Y-68964250D02*
X70365166Y-69164250D01*
X69898500Y-69164250D02*
X70165166Y-68897583D01*
X70365166Y-70297583D02*
X69998500Y-70297583D01*
X69931833Y-70264250D01*
X69898500Y-70197583D01*
X69898500Y-70064250D01*
X69931833Y-69997583D01*
X70331833Y-70297583D02*
X70365166Y-70230916D01*
X70365166Y-70064250D01*
X70331833Y-69997583D01*
X70265166Y-69964250D01*
X70198500Y-69964250D01*
X70131833Y-69997583D01*
X70098500Y-70064250D01*
X70098500Y-70230916D01*
X70065166Y-70297583D01*
X70365166Y-70630916D02*
X69898500Y-70630916D01*
X70031833Y-70630916D02*
X69965166Y-70664250D01*
X69931833Y-70697583D01*
X69898500Y-70764250D01*
X69898500Y-70830916D01*
X69898500Y-71064250D02*
X70365166Y-71064250D01*
X69965166Y-71064250D02*
X69931833Y-71097583D01*
X69898500Y-71164250D01*
X69898500Y-71264250D01*
X69931833Y-71330916D01*
X69998500Y-71364250D01*
X70365166Y-71364250D01*
X70365166Y-71797583D02*
X70331833Y-71730916D01*
X70298500Y-71697583D01*
X70231833Y-71664250D01*
X70031833Y-71664250D01*
X69965166Y-71697583D01*
X69931833Y-71730916D01*
X69898500Y-71797583D01*
X69898500Y-71897583D01*
X69931833Y-71964250D01*
X69965166Y-71997583D01*
X70031833Y-72030916D01*
X70231833Y-72030916D01*
X70298500Y-71997583D01*
X70331833Y-71964250D01*
X70365166Y-71897583D01*
X70365166Y-71797583D01*
X70365166Y-72430916D02*
X70331833Y-72364250D01*
X70265166Y-72330916D01*
X69665166Y-72330916D01*
X70365166Y-72997583D02*
X69665166Y-72997583D01*
X70331833Y-72997583D02*
X70365166Y-72930916D01*
X70365166Y-72797583D01*
X70331833Y-72730916D01*
X70298500Y-72697583D01*
X70231833Y-72664250D01*
X70031833Y-72664250D01*
X69965166Y-72697583D01*
X69931833Y-72730916D01*
X69898500Y-72797583D01*
X69898500Y-72930916D01*
X69931833Y-72997583D01*
X70365166Y-73864250D02*
X69898500Y-73864250D01*
X69665166Y-73864250D02*
X69698500Y-73830916D01*
X69731833Y-73864250D01*
X69698500Y-73897583D01*
X69665166Y-73864250D01*
X69731833Y-73864250D01*
X69898500Y-74197583D02*
X70365166Y-74197583D01*
X69965166Y-74197583D02*
X69931833Y-74230916D01*
X69898500Y-74297583D01*
X69898500Y-74397583D01*
X69931833Y-74464250D01*
X69998500Y-74497583D01*
X70365166Y-74497583D01*
X69731833Y-75330916D02*
X69698500Y-75364250D01*
X69665166Y-75430916D01*
X69665166Y-75597583D01*
X69698500Y-75664250D01*
X69731833Y-75697583D01*
X69798500Y-75730916D01*
X69865166Y-75730916D01*
X69965166Y-75697583D01*
X70365166Y-75297583D01*
X70365166Y-75730916D01*
X69665166Y-76164250D02*
X69665166Y-76230916D01*
X69698500Y-76297583D01*
X69731833Y-76330916D01*
X69798500Y-76364250D01*
X69931833Y-76397583D01*
X70098500Y-76397583D01*
X70231833Y-76364250D01*
X70298500Y-76330916D01*
X70331833Y-76297583D01*
X70365166Y-76230916D01*
X70365166Y-76164250D01*
X70331833Y-76097583D01*
X70298500Y-76064250D01*
X70231833Y-76030916D01*
X70098500Y-75997583D01*
X69931833Y-75997583D01*
X69798500Y-76030916D01*
X69731833Y-76064250D01*
X69698500Y-76097583D01*
X69665166Y-76164250D01*
X69731833Y-76664250D02*
X69698500Y-76697583D01*
X69665166Y-76764250D01*
X69665166Y-76930916D01*
X69698500Y-76997583D01*
X69731833Y-77030916D01*
X69798500Y-77064250D01*
X69865166Y-77064250D01*
X69965166Y-77030916D01*
X70365166Y-76630916D01*
X70365166Y-77064250D01*
X69731833Y-77330916D02*
X69698500Y-77364250D01*
X69665166Y-77430916D01*
X69665166Y-77597583D01*
X69698500Y-77664250D01*
X69731833Y-77697583D01*
X69798500Y-77730916D01*
X69865166Y-77730916D01*
X69965166Y-77697583D01*
X70365166Y-77297583D01*
X70365166Y-77730916D01*
X71492166Y-67197583D02*
X70792166Y-67197583D01*
X71492166Y-67497583D02*
X71125500Y-67497583D01*
X71058833Y-67464250D01*
X71025500Y-67397583D01*
X71025500Y-67297583D01*
X71058833Y-67230916D01*
X71092166Y-67197583D01*
X71025500Y-67730916D02*
X71025500Y-67997583D01*
X70792166Y-67830916D02*
X71392166Y-67830916D01*
X71458833Y-67864250D01*
X71492166Y-67930916D01*
X71492166Y-67997583D01*
X71025500Y-68130916D02*
X71025500Y-68397583D01*
X70792166Y-68230916D02*
X71392166Y-68230916D01*
X71458833Y-68264250D01*
X71492166Y-68330916D01*
X71492166Y-68397583D01*
X71025500Y-68630916D02*
X71725500Y-68630916D01*
X71058833Y-68630916D02*
X71025500Y-68697583D01*
X71025500Y-68830916D01*
X71058833Y-68897583D01*
X71092166Y-68930916D01*
X71158833Y-68964250D01*
X71358833Y-68964250D01*
X71425500Y-68930916D01*
X71458833Y-68897583D01*
X71492166Y-68830916D01*
X71492166Y-68697583D01*
X71458833Y-68630916D01*
X71458833Y-69230916D02*
X71492166Y-69297583D01*
X71492166Y-69430916D01*
X71458833Y-69497583D01*
X71392166Y-69530916D01*
X71358833Y-69530916D01*
X71292166Y-69497583D01*
X71258833Y-69430916D01*
X71258833Y-69330916D01*
X71225500Y-69264250D01*
X71158833Y-69230916D01*
X71125500Y-69230916D01*
X71058833Y-69264250D01*
X71025500Y-69330916D01*
X71025500Y-69430916D01*
X71058833Y-69497583D01*
X71425500Y-69830916D02*
X71458833Y-69864250D01*
X71492166Y-69830916D01*
X71458833Y-69797583D01*
X71425500Y-69830916D01*
X71492166Y-69830916D01*
X71058833Y-69830916D02*
X71092166Y-69864250D01*
X71125500Y-69830916D01*
X71092166Y-69797583D01*
X71058833Y-69830916D01*
X71125500Y-69830916D01*
X70758833Y-70664250D02*
X71658833Y-70064250D01*
X70758833Y-71397583D02*
X71658833Y-70797583D01*
X71025500Y-71530916D02*
X71025500Y-71797583D01*
X71492166Y-71630916D02*
X70892166Y-71630916D01*
X70825500Y-71664250D01*
X70792166Y-71730916D01*
X70792166Y-71797583D01*
X71025500Y-72330916D02*
X71492166Y-72330916D01*
X71025500Y-72030916D02*
X71392166Y-72030916D01*
X71458833Y-72064250D01*
X71492166Y-72130916D01*
X71492166Y-72230916D01*
X71458833Y-72297583D01*
X71425500Y-72330916D01*
X71492166Y-72764250D02*
X71458833Y-72697583D01*
X71392166Y-72664250D01*
X70792166Y-72664250D01*
X71492166Y-73130916D02*
X71458833Y-73064250D01*
X71392166Y-73030916D01*
X70792166Y-73030916D01*
X71458833Y-73664250D02*
X71492166Y-73597583D01*
X71492166Y-73464250D01*
X71458833Y-73397583D01*
X71392166Y-73364250D01*
X71125500Y-73364250D01*
X71058833Y-73397583D01*
X71025500Y-73464250D01*
X71025500Y-73597583D01*
X71058833Y-73664250D01*
X71125500Y-73697583D01*
X71192166Y-73697583D01*
X71258833Y-73364250D01*
X71492166Y-73997583D02*
X71025500Y-73997583D01*
X71092166Y-73997583D02*
X71058833Y-74030916D01*
X71025500Y-74097583D01*
X71025500Y-74197583D01*
X71058833Y-74264250D01*
X71125500Y-74297583D01*
X71492166Y-74297583D01*
X71125500Y-74297583D02*
X71058833Y-74330916D01*
X71025500Y-74397583D01*
X71025500Y-74497583D01*
X71058833Y-74564250D01*
X71125500Y-74597583D01*
X71492166Y-74597583D01*
X71025500Y-74930916D02*
X71725500Y-74930916D01*
X71058833Y-74930916D02*
X71025500Y-74997583D01*
X71025500Y-75130916D01*
X71058833Y-75197583D01*
X71092166Y-75230916D01*
X71158833Y-75264250D01*
X71358833Y-75264250D01*
X71425500Y-75230916D01*
X71458833Y-75197583D01*
X71492166Y-75130916D01*
X71492166Y-74997583D01*
X71458833Y-74930916D01*
X71025500Y-75464250D02*
X71025500Y-75730916D01*
X70792166Y-75564250D02*
X71392166Y-75564250D01*
X71458833Y-75597583D01*
X71492166Y-75664250D01*
X71492166Y-75730916D01*
X71025500Y-75897583D02*
X71492166Y-76064250D01*
X71025500Y-76230916D02*
X71492166Y-76064250D01*
X71658833Y-75997583D01*
X71692166Y-75964250D01*
X71725500Y-75897583D01*
X71425500Y-76497583D02*
X71458833Y-76530916D01*
X71492166Y-76497583D01*
X71458833Y-76464250D01*
X71425500Y-76497583D01*
X71492166Y-76497583D01*
X71458833Y-76797583D02*
X71492166Y-76864250D01*
X71492166Y-76997583D01*
X71458833Y-77064250D01*
X71392166Y-77097583D01*
X71358833Y-77097583D01*
X71292166Y-77064250D01*
X71258833Y-76997583D01*
X71258833Y-76897583D01*
X71225500Y-76830916D01*
X71158833Y-76797583D01*
X71125500Y-76797583D01*
X71058833Y-76830916D01*
X71025500Y-76897583D01*
X71025500Y-76997583D01*
X71058833Y-77064250D01*
X71492166Y-77397583D02*
X70792166Y-77397583D01*
X71492166Y-77697583D02*
X71125500Y-77697583D01*
X71058833Y-77664250D01*
X71025500Y-77597583D01*
X71025500Y-77497583D01*
X71058833Y-77430916D01*
X71092166Y-77397583D01*
D11*
X72330571Y-47854919D02*
X73830571Y-48167419D01*
X72330571Y-48854919D01*
X72330571Y-49140633D02*
X72330571Y-49997776D01*
X73830571Y-49381705D02*
X72330571Y-49569205D01*
X73830571Y-51095991D02*
X73830571Y-50238848D01*
X73830571Y-50667419D02*
X72330571Y-50854919D01*
X72544857Y-50685276D01*
X72687714Y-50524562D01*
X72759142Y-50372776D01*
X72330571Y-52212062D02*
X72330571Y-52354919D01*
X72402000Y-52488848D01*
X72473428Y-52551348D01*
X72616285Y-52604919D01*
X72902000Y-52640633D01*
X73259142Y-52595991D01*
X73544857Y-52488848D01*
X73687714Y-52399562D01*
X73759142Y-52319205D01*
X73830571Y-52167419D01*
X73830571Y-52024562D01*
X73759142Y-51890633D01*
X73687714Y-51828133D01*
X73544857Y-51774562D01*
X73259142Y-51738848D01*
X72902000Y-51783491D01*
X72616285Y-51890633D01*
X72473428Y-51979919D01*
X72402000Y-52060276D01*
X72330571Y-52212062D01*
X72330571Y-53640633D02*
X72330571Y-53783491D01*
X72402000Y-53917419D01*
X72473428Y-53979919D01*
X72616285Y-54033491D01*
X72902000Y-54069205D01*
X73259142Y-54024562D01*
X73544857Y-53917419D01*
X73687714Y-53828133D01*
X73759142Y-53747776D01*
X73830571Y-53595991D01*
X73830571Y-53453133D01*
X73759142Y-53319205D01*
X73687714Y-53256705D01*
X73544857Y-53203133D01*
X73259142Y-53167419D01*
X72902000Y-53212062D01*
X72616285Y-53319205D01*
X72473428Y-53408491D01*
X72402000Y-53488848D01*
X72330571Y-53640633D01*
X73402000Y-55720991D02*
X73402000Y-56435276D01*
X73830571Y-55524562D02*
X72330571Y-56212062D01*
X73830571Y-56524562D01*
X72330571Y-56997776D02*
X72330571Y-57854919D01*
X73830571Y-57238848D02*
X72330571Y-57426348D01*
X72330571Y-58212062D02*
X73830571Y-59024562D01*
X72330571Y-59212062D02*
X73830571Y-58024562D01*
X73830571Y-60738848D02*
X72330571Y-60926348D01*
X72330571Y-61497776D01*
X72402000Y-61631705D01*
X72473428Y-61694205D01*
X72616285Y-61747776D01*
X72830571Y-61720991D01*
X72973428Y-61631705D01*
X73044857Y-61551348D01*
X73116285Y-61399562D01*
X73116285Y-60828133D01*
X72330571Y-62712062D02*
X72330571Y-62997776D01*
X72402000Y-63131705D01*
X72544857Y-63256705D01*
X72830571Y-63292419D01*
X73330571Y-63229919D01*
X73616285Y-63122776D01*
X73759142Y-62962062D01*
X73830571Y-62810276D01*
X73830571Y-62524562D01*
X73759142Y-62390633D01*
X73616285Y-62265633D01*
X73330571Y-62229919D01*
X72830571Y-62292419D01*
X72544857Y-62399562D01*
X72402000Y-62560276D01*
X72330571Y-62712062D01*
X72330571Y-63854919D02*
X73830571Y-64024562D01*
X72759142Y-64444205D01*
X73830571Y-64595991D01*
X72330571Y-65140633D01*
X73044857Y-65622776D02*
X73044857Y-66122776D01*
X73830571Y-66238848D02*
X73830571Y-65524562D01*
X72330571Y-65712062D01*
X72330571Y-66426348D01*
X73830571Y-67738848D02*
X73116285Y-67328133D01*
X73830571Y-66881705D02*
X72330571Y-67069205D01*
X72330571Y-67640633D01*
X72402000Y-67774562D01*
X72473428Y-67837062D01*
X72616285Y-67890633D01*
X72830571Y-67863848D01*
X72973428Y-67774562D01*
X73044857Y-67694205D01*
X73116285Y-67542419D01*
X73116285Y-66970991D01*
X73759142Y-69462062D02*
X73830571Y-69667419D01*
X73830571Y-70024562D01*
X73759142Y-70176348D01*
X73687714Y-70256705D01*
X73544857Y-70345991D01*
X73402000Y-70363848D01*
X73259142Y-70310276D01*
X73187714Y-70247776D01*
X73116285Y-70113848D01*
X73044857Y-69837062D01*
X72973428Y-69703133D01*
X72902000Y-69640633D01*
X72759142Y-69587062D01*
X72616285Y-69604919D01*
X72473428Y-69694205D01*
X72402000Y-69774562D01*
X72330571Y-69926348D01*
X72330571Y-70283491D01*
X72402000Y-70488848D01*
X72330571Y-71140633D02*
X73544857Y-70988848D01*
X73687714Y-71042419D01*
X73759142Y-71104919D01*
X73830571Y-71238848D01*
X73830571Y-71524562D01*
X73759142Y-71676348D01*
X73687714Y-71756705D01*
X73544857Y-71845991D01*
X72330571Y-71997776D01*
X73830571Y-72524562D02*
X72330571Y-72712062D01*
X72330571Y-73283491D01*
X72402000Y-73417419D01*
X72473428Y-73479919D01*
X72616285Y-73533491D01*
X72830571Y-73506705D01*
X72973428Y-73417419D01*
X73044857Y-73337062D01*
X73116285Y-73185276D01*
X73116285Y-72613848D01*
X73830571Y-74024562D02*
X72330571Y-74212062D01*
X72330571Y-74783491D01*
X72402000Y-74917419D01*
X72473428Y-74979919D01*
X72616285Y-75033491D01*
X72830571Y-75006705D01*
X72973428Y-74917419D01*
X73044857Y-74837062D01*
X73116285Y-74685276D01*
X73116285Y-74113848D01*
X73830571Y-76238848D02*
X73830571Y-75524562D01*
X72330571Y-75712062D01*
X73116285Y-77113848D02*
X73830571Y-77024562D01*
X72330571Y-76712062D02*
X73116285Y-77113848D01*
X72330571Y-77712062D01*
%TO.C,U2*%
G36*
X49231000Y-125733000D02*
G01*
X40481000Y-125733000D01*
X40481000Y-50733000D01*
X49231000Y-50733000D01*
X49231000Y-125733000D01*
G37*
D12*
X49231000Y-125733000D02*
X40481000Y-125733000D01*
X40481000Y-50733000D01*
X49231000Y-50733000D01*
X49231000Y-125733000D01*
%TD*%
D13*
%TO.C,U1*%
X62071000Y-125476000D03*
X62071000Y-122936000D03*
X62071000Y-115316000D03*
X62071000Y-112776000D03*
X62071000Y-110236000D03*
X62071000Y-107696000D03*
%TD*%
D14*
%TO.C,C1*%
X56936000Y-101346000D03*
X61936000Y-101346000D03*
%TD*%
D15*
%TO.C,J1*%
X69791580Y-107910630D03*
D16*
X69791580Y-102911910D03*
%TD*%
D17*
%TO.C,U2*%
X45931000Y-54233000D03*
X45931000Y-58233000D03*
X45931000Y-62233000D03*
X45931000Y-66233000D03*
X45931000Y-70233000D03*
X45931000Y-74233000D03*
X45931000Y-78233000D03*
X45931000Y-82233000D03*
X45931000Y-86233000D03*
X45931000Y-90233000D03*
X45931000Y-94233000D03*
X45931000Y-98233000D03*
X45931000Y-102233000D03*
X45931000Y-106233000D03*
X45931000Y-110233000D03*
X45931000Y-114233000D03*
X45931000Y-118233000D03*
X45931000Y-122233000D03*
%TD*%
D18*
%TO.C,R1*%
X69850000Y-122952000D03*
D19*
X69850000Y-115332000D03*
%TD*%
D20*
%TO.C,J2*%
X68580000Y-49545240D03*
X68580000Y-95742760D03*
D21*
X61280040Y-49545240D03*
X61280040Y-53746400D03*
X61280040Y-57945020D03*
X61280040Y-62146180D03*
X61280040Y-66344800D03*
X61280040Y-70545960D03*
X61280040Y-74742040D03*
X61280040Y-78943200D03*
X61280040Y-83141820D03*
X61280040Y-87342980D03*
X61280040Y-91541600D03*
X61280040Y-95742760D03*
X55780940Y-49545240D03*
X55780940Y-53746400D03*
X55780940Y-57945020D03*
X55780940Y-62146180D03*
X55780940Y-66344800D03*
X55780940Y-70545960D03*
X55780940Y-74742040D03*
X55780940Y-78943200D03*
X55780940Y-83141820D03*
X55780940Y-87342980D03*
X55780940Y-91541600D03*
X55780940Y-95742760D03*
%TD*%
D22*
%TO.C,JP1*%
X53340000Y-82296000D03*
X52040000Y-82296000D03*
%TD*%
M02*
