%TF.GenerationSoftware,KiCad,Pcbnew,(6.0.8-1)-1*%
%TF.CreationDate,2022-11-10T09:52:18-06:00*%
%TF.ProjectId,VT100_ATX_DCDC,56543130-305f-4415-9458-5f444344432e,rev?*%
%TF.SameCoordinates,Original*%
%TF.FileFunction,Copper,L2,Bot*%
%TF.FilePolarity,Positive*%
%FSLAX46Y46*%
G04 Gerber Fmt 4.6, Leading zero omitted, Abs format (unit mm)*
G04 Created by KiCad (PCBNEW (6.0.8-1)-1) date 2022-11-10 09:52:18*
%MOMM*%
%LPD*%
G01*
G04 APERTURE LIST*
G04 Aperture macros list*
%AMRoundRect*
0 Rectangle with rounded corners*
0 $1 Rounding radius*
0 $2 $3 $4 $5 $6 $7 $8 $9 X,Y pos of 4 corners*
0 Add a 4 corners polygon primitive as box body*
4,1,4,$2,$3,$4,$5,$6,$7,$8,$9,$2,$3,0*
0 Add four circle primitives for the rounded corners*
1,1,$1+$1,$2,$3*
1,1,$1+$1,$4,$5*
1,1,$1+$1,$6,$7*
1,1,$1+$1,$8,$9*
0 Add four rect primitives between the rounded corners*
20,1,$1+$1,$2,$3,$4,$5,0*
20,1,$1+$1,$4,$5,$6,$7,0*
20,1,$1+$1,$6,$7,$8,$9,0*
20,1,$1+$1,$8,$9,$2,$3,0*%
G04 Aperture macros list end*
%ADD10C,0.200000*%
%TA.AperFunction,NonConductor*%
%ADD11C,0.200000*%
%TD*%
%TA.AperFunction,ComponentPad*%
%ADD12C,2.000000*%
%TD*%
%TA.AperFunction,ComponentPad*%
%ADD13C,1.600000*%
%TD*%
%TA.AperFunction,ComponentPad*%
%ADD14RoundRect,0.250000X-0.750000X0.600000X-0.750000X-0.600000X0.750000X-0.600000X0.750000X0.600000X0*%
%TD*%
%TA.AperFunction,ComponentPad*%
%ADD15O,2.000000X1.700000*%
%TD*%
%TA.AperFunction,ComponentPad*%
%ADD16R,1.600000X1.600000*%
%TD*%
%TA.AperFunction,ComponentPad*%
%ADD17RoundRect,0.120000X4.980000X1.080000X-4.980000X1.080000X-4.980000X-1.080000X4.980000X-1.080000X0*%
%TD*%
%TA.AperFunction,ComponentPad*%
%ADD18RoundRect,0.437500X-0.437500X0.437500X-0.437500X-0.437500X0.437500X-0.437500X0.437500X0.437500X0*%
%TD*%
%TA.AperFunction,ComponentPad*%
%ADD19R,1.500000X1.050000*%
%TD*%
%TA.AperFunction,ComponentPad*%
%ADD20O,1.500000X1.050000*%
%TD*%
%TA.AperFunction,ComponentPad*%
%ADD21C,2.898140*%
%TD*%
%TA.AperFunction,Conductor*%
%ADD22C,0.250000*%
%TD*%
%TA.AperFunction,Conductor*%
%ADD23C,1.000000*%
%TD*%
G04 APERTURE END LIST*
D10*
D11*
X80458571Y-84303919D02*
X81958571Y-84616419D01*
X80458571Y-85303919D01*
X80458571Y-85589633D02*
X80458571Y-86446776D01*
X81958571Y-85830705D02*
X80458571Y-86018205D01*
X81958571Y-87544991D02*
X81958571Y-86687848D01*
X81958571Y-87116419D02*
X80458571Y-87303919D01*
X80672857Y-87134276D01*
X80815714Y-86973562D01*
X80887142Y-86821776D01*
X80458571Y-88661062D02*
X80458571Y-88803919D01*
X80530000Y-88937848D01*
X80601428Y-89000348D01*
X80744285Y-89053919D01*
X81030000Y-89089633D01*
X81387142Y-89044991D01*
X81672857Y-88937848D01*
X81815714Y-88848562D01*
X81887142Y-88768205D01*
X81958571Y-88616419D01*
X81958571Y-88473562D01*
X81887142Y-88339633D01*
X81815714Y-88277133D01*
X81672857Y-88223562D01*
X81387142Y-88187848D01*
X81030000Y-88232491D01*
X80744285Y-88339633D01*
X80601428Y-88428919D01*
X80530000Y-88509276D01*
X80458571Y-88661062D01*
X80458571Y-90089633D02*
X80458571Y-90232491D01*
X80530000Y-90366419D01*
X80601428Y-90428919D01*
X80744285Y-90482491D01*
X81030000Y-90518205D01*
X81387142Y-90473562D01*
X81672857Y-90366419D01*
X81815714Y-90277133D01*
X81887142Y-90196776D01*
X81958571Y-90044991D01*
X81958571Y-89902133D01*
X81887142Y-89768205D01*
X81815714Y-89705705D01*
X81672857Y-89652133D01*
X81387142Y-89616419D01*
X81030000Y-89661062D01*
X80744285Y-89768205D01*
X80601428Y-89857491D01*
X80530000Y-89937848D01*
X80458571Y-90089633D01*
X81530000Y-92169991D02*
X81530000Y-92884276D01*
X81958571Y-91973562D02*
X80458571Y-92661062D01*
X81958571Y-92973562D01*
X80458571Y-93446776D02*
X80458571Y-94303919D01*
X81958571Y-93687848D02*
X80458571Y-93875348D01*
X80458571Y-94661062D02*
X81958571Y-95473562D01*
X80458571Y-95661062D02*
X81958571Y-94473562D01*
X81958571Y-97187848D02*
X80458571Y-97375348D01*
X80458571Y-97946776D01*
X80530000Y-98080705D01*
X80601428Y-98143205D01*
X80744285Y-98196776D01*
X80958571Y-98169991D01*
X81101428Y-98080705D01*
X81172857Y-98000348D01*
X81244285Y-97848562D01*
X81244285Y-97277133D01*
X80458571Y-99161062D02*
X80458571Y-99446776D01*
X80530000Y-99580705D01*
X80672857Y-99705705D01*
X80958571Y-99741419D01*
X81458571Y-99678919D01*
X81744285Y-99571776D01*
X81887142Y-99411062D01*
X81958571Y-99259276D01*
X81958571Y-98973562D01*
X81887142Y-98839633D01*
X81744285Y-98714633D01*
X81458571Y-98678919D01*
X80958571Y-98741419D01*
X80672857Y-98848562D01*
X80530000Y-99009276D01*
X80458571Y-99161062D01*
X80458571Y-100303919D02*
X81958571Y-100473562D01*
X80887142Y-100893205D01*
X81958571Y-101044991D01*
X80458571Y-101589633D01*
X81172857Y-102071776D02*
X81172857Y-102571776D01*
X81958571Y-102687848D02*
X81958571Y-101973562D01*
X80458571Y-102161062D01*
X80458571Y-102875348D01*
X81958571Y-104187848D02*
X81244285Y-103777133D01*
X81958571Y-103330705D02*
X80458571Y-103518205D01*
X80458571Y-104089633D01*
X80530000Y-104223562D01*
X80601428Y-104286062D01*
X80744285Y-104339633D01*
X80958571Y-104312848D01*
X81101428Y-104223562D01*
X81172857Y-104143205D01*
X81244285Y-103991419D01*
X81244285Y-103419991D01*
X81887142Y-105911062D02*
X81958571Y-106116419D01*
X81958571Y-106473562D01*
X81887142Y-106625348D01*
X81815714Y-106705705D01*
X81672857Y-106794991D01*
X81530000Y-106812848D01*
X81387142Y-106759276D01*
X81315714Y-106696776D01*
X81244285Y-106562848D01*
X81172857Y-106286062D01*
X81101428Y-106152133D01*
X81030000Y-106089633D01*
X80887142Y-106036062D01*
X80744285Y-106053919D01*
X80601428Y-106143205D01*
X80530000Y-106223562D01*
X80458571Y-106375348D01*
X80458571Y-106732491D01*
X80530000Y-106937848D01*
X80458571Y-107589633D02*
X81672857Y-107437848D01*
X81815714Y-107491419D01*
X81887142Y-107553919D01*
X81958571Y-107687848D01*
X81958571Y-107973562D01*
X81887142Y-108125348D01*
X81815714Y-108205705D01*
X81672857Y-108294991D01*
X80458571Y-108446776D01*
X81958571Y-108973562D02*
X80458571Y-109161062D01*
X80458571Y-109732491D01*
X80530000Y-109866419D01*
X80601428Y-109928919D01*
X80744285Y-109982491D01*
X80958571Y-109955705D01*
X81101428Y-109866419D01*
X81172857Y-109786062D01*
X81244285Y-109634276D01*
X81244285Y-109062848D01*
X81958571Y-110473562D02*
X80458571Y-110661062D01*
X80458571Y-111232491D01*
X80530000Y-111366419D01*
X80601428Y-111428919D01*
X80744285Y-111482491D01*
X80958571Y-111455705D01*
X81101428Y-111366419D01*
X81172857Y-111286062D01*
X81244285Y-111134276D01*
X81244285Y-110562848D01*
X81958571Y-112687848D02*
X81958571Y-111973562D01*
X80458571Y-112161062D01*
X81244285Y-113562848D02*
X81958571Y-113473562D01*
X80458571Y-113161062D02*
X81244285Y-113562848D01*
X80458571Y-114161062D01*
D12*
%TO.P,U1,1,Vin*%
%TO.N,+3.3V*%
X64770000Y-54959000D03*
%TO.P,U1,2,GND*%
%TO.N,GND*%
X67310000Y-54959000D03*
%TO.P,U1,4,-Vo*%
%TO.N,Net-(C3-Pad2)*%
X72390000Y-54959000D03*
%TO.P,U1,5,0V*%
%TO.N,GND*%
X74930000Y-54959000D03*
%TO.P,U1,6,+Vo*%
%TO.N,unconnected-(U1-Pad6)*%
X77470000Y-54959000D03*
%TD*%
D13*
%TO.P,C1,1*%
%TO.N,GND*%
X58674000Y-79268000D03*
%TO.P,C1,2*%
%TO.N,-23V*%
X58674000Y-81768000D03*
%TD*%
D14*
%TO.P,J1,1,Pin_1*%
%TO.N,GND*%
X79248000Y-65532000D03*
D15*
%TO.P,J1,2,Pin_2*%
%TO.N,Net-(J1-Pad2)*%
X79248000Y-68032000D03*
%TD*%
D16*
%TO.P,C3,1*%
%TO.N,GND*%
X58674000Y-56073100D03*
D13*
%TO.P,C3,2*%
%TO.N,Net-(C3-Pad2)*%
X58674000Y-54073100D03*
%TD*%
D17*
%TO.P,U2,1,A_+12V*%
%TO.N,+12V*%
X45931000Y-54233000D03*
%TO.P,U2,2,B_GND*%
%TO.N,GND*%
X45931000Y-58233000D03*
%TO.P,U2,3,C_+12V*%
%TO.N,+12V*%
X45931000Y-62233000D03*
%TO.P,U2,4,D_GND*%
%TO.N,GND*%
X45931000Y-66233000D03*
%TO.P,U2,5,E_-12V*%
%TO.N,-12V*%
X45931000Y-70233000D03*
%TO.P,U2,6,F_-23V*%
%TO.N,-23V*%
X45931000Y-74233000D03*
%TO.P,U2,7,H_NC*%
%TO.N,unconnected-(U2-Pad7)*%
X45931000Y-78233000D03*
%TO.P,U2,8,J_GND_+12V*%
%TO.N,GND_+12V*%
X45931000Y-82233000D03*
%TO.P,U2,9,K_GND*%
%TO.N,GND*%
X45931000Y-86233000D03*
%TO.P,U2,10,L_GND*%
X45931000Y-90233000D03*
%TO.P,U2,11,M_GND*%
X45931000Y-94233000D03*
%TO.P,U2,12,N_GND*%
X45931000Y-98233000D03*
%TO.P,U2,13,P_GND*%
X45931000Y-102233000D03*
%TO.P,U2,14,R_+5V*%
%TO.N,+5V*%
X45931000Y-106233000D03*
%TO.P,U2,15,S_+5V*%
X45931000Y-110233000D03*
%TO.P,U2,16,T_+5V*%
X45931000Y-114233000D03*
%TO.P,U2,17,U_+5V*%
X45931000Y-118233000D03*
%TO.P,U2,18,V_+5V*%
X45931000Y-122233000D03*
%TD*%
D18*
%TO.P,R1,1*%
%TO.N,+5V*%
X57912000Y-99252000D03*
%TO.P,R1,2*%
%TO.N,GND*%
X57912000Y-123252000D03*
%TD*%
D16*
%TO.P,C2,1*%
%TO.N,+3.3V*%
X65973900Y-69088000D03*
D13*
%TO.P,C2,2*%
%TO.N,GND*%
X67973900Y-69088000D03*
%TD*%
D19*
%TO.P,U3,1,Ground*%
%TO.N,GND*%
X58674000Y-65786000D03*
D20*
%TO.P,U3,2,Input*%
%TO.N,Net-(C3-Pad2)*%
X58674000Y-67056000D03*
%TO.P,U3,3,Output*%
%TO.N,-23V*%
X58674000Y-68326000D03*
%TD*%
D21*
%TO.P,J2,1,+3.3V*%
%TO.N,+3.3V*%
X69662040Y-76215240D03*
%TO.P,J2,2,+3.3V*%
X69662040Y-80416400D03*
%TO.P,J2,3,GND*%
%TO.N,GND*%
X69662040Y-84615020D03*
%TO.P,J2,4,+5V*%
%TO.N,+5V*%
X69662040Y-88816180D03*
%TO.P,J2,5,GND*%
%TO.N,GND*%
X69662040Y-93014800D03*
%TO.P,J2,6,+5V*%
%TO.N,+5V*%
X69662040Y-97215960D03*
%TO.P,J2,7,GND*%
%TO.N,GND*%
X69662040Y-101412040D03*
%TO.P,J2,8,PWR_OK*%
%TO.N,unconnected-(J2-Pad8)*%
X69662040Y-105613200D03*
%TO.P,J2,9,+5VSB*%
%TO.N,unconnected-(J2-Pad9)*%
X69662040Y-109811820D03*
%TO.P,J2,10,+12V*%
%TO.N,+12V*%
X69662040Y-114012980D03*
%TO.P,J2,11,+12V*%
X69662040Y-118211600D03*
%TO.P,J2,12,+3.3V*%
%TO.N,+3.3V*%
X69662040Y-122412760D03*
%TO.P,J2,13,+3.3V*%
X64162940Y-76215240D03*
%TO.P,J2,14,-12V*%
%TO.N,-12V*%
X64162940Y-80416400D03*
%TO.P,J2,15,GND*%
%TO.N,GND*%
X64162940Y-84615020D03*
%TO.P,J2,16,PS_ON#*%
%TO.N,Net-(J1-Pad2)*%
X64162940Y-88816180D03*
%TO.P,J2,17,GND*%
%TO.N,GND*%
X64162940Y-93014800D03*
%TO.P,J2,18,GND*%
X64162940Y-97215960D03*
%TO.P,J2,19,GND*%
X64162940Y-101412040D03*
%TO.P,J2,20,NC*%
%TO.N,unconnected-(J2-Pad20)*%
X64162940Y-105613200D03*
%TO.P,J2,21,+5V*%
%TO.N,+5V*%
X64162940Y-109811820D03*
%TO.P,J2,22,+5V*%
X64162940Y-114012980D03*
%TO.P,J2,23,+5V*%
X64162940Y-118211600D03*
%TO.P,J2,24,GND*%
%TO.N,GND*%
X64162940Y-122412760D03*
%TD*%
D22*
%TO.N,+3.3V*%
X64162940Y-76215240D02*
X69662040Y-76215240D01*
D23*
%TO.N,+5V*%
X49931000Y-114233000D02*
X50151020Y-114012980D01*
X69662040Y-88816180D02*
X67462970Y-91015250D01*
X67462970Y-95016890D02*
X69662040Y-97215960D01*
X57912000Y-103560880D02*
X57912000Y-99252000D01*
X67462970Y-91015250D02*
X67462970Y-95016890D01*
X66362010Y-100515990D02*
X66362010Y-107612750D01*
X66362010Y-107612750D02*
X64162940Y-109811820D01*
X69662040Y-97215960D02*
X66362010Y-100515990D01*
X64162940Y-109811820D02*
X57912000Y-103560880D01*
X50151020Y-114012980D02*
X64162940Y-114012980D01*
%TO.N,+12V*%
X71882000Y-70804068D02*
X71882000Y-111793020D01*
X69662040Y-114012980D02*
X69662040Y-118211600D01*
X63310932Y-62233000D02*
X71882000Y-70804068D01*
X71882000Y-111793020D02*
X69662040Y-114012980D01*
X49931000Y-62233000D02*
X63310932Y-62233000D01*
D22*
%TO.N,-12V*%
X49931000Y-70233000D02*
X53979540Y-70233000D01*
X53979540Y-70233000D02*
X64162940Y-80416400D01*
%TO.N,Net-(C3-Pad2)*%
X72390000Y-54959000D02*
X71065000Y-53634000D01*
X71065000Y-53634000D02*
X59113100Y-53634000D01*
X59113100Y-53634000D02*
X58674000Y-54073100D01*
%TD*%
%TA.AperFunction,Conductor*%
%TO.N,+5V*%
G36*
X53490931Y-105049002D02*
G01*
X53511905Y-105065905D01*
X53938095Y-105492095D01*
X53972121Y-105554407D01*
X53975000Y-105581190D01*
X53975000Y-122891810D01*
X53954998Y-122959931D01*
X53938095Y-122980905D01*
X53511905Y-123407095D01*
X53449593Y-123441121D01*
X53422810Y-123444000D01*
X49955190Y-123444000D01*
X49887069Y-123423998D01*
X49866095Y-123407095D01*
X49439905Y-122980905D01*
X49405879Y-122918593D01*
X49403000Y-122891810D01*
X49403000Y-105581190D01*
X49423002Y-105513069D01*
X49439905Y-105492095D01*
X49866095Y-105065905D01*
X49928407Y-105031879D01*
X49955190Y-105029000D01*
X53422810Y-105029000D01*
X53490931Y-105049002D01*
G37*
%TD.AperFunction*%
%TD*%
%TA.AperFunction,Conductor*%
%TO.N,+12V*%
G36*
X53490931Y-53055202D02*
G01*
X53511905Y-53072105D01*
X53938095Y-53498295D01*
X53972121Y-53560607D01*
X53975000Y-53587390D01*
X53975000Y-62871610D01*
X53954998Y-62939731D01*
X53938095Y-62960705D01*
X53511905Y-63386895D01*
X53449593Y-63420921D01*
X53422810Y-63423800D01*
X49955190Y-63423800D01*
X49887069Y-63403798D01*
X49866095Y-63386895D01*
X49439905Y-62960705D01*
X49405879Y-62898393D01*
X49403000Y-62871610D01*
X49403000Y-60242190D01*
X49423002Y-60174069D01*
X49439905Y-60153095D01*
X49614595Y-59978405D01*
X49676907Y-59944379D01*
X49703690Y-59941500D01*
X50974470Y-59941500D01*
X50976916Y-59941308D01*
X50976929Y-59941307D01*
X50997344Y-59939700D01*
X51010100Y-59938696D01*
X51055300Y-59925564D01*
X51154978Y-59896605D01*
X51154979Y-59896604D01*
X51162591Y-59894393D01*
X51299274Y-59813559D01*
X51411559Y-59701274D01*
X51492393Y-59564591D01*
X51536696Y-59412100D01*
X51537700Y-59399344D01*
X51539307Y-59378929D01*
X51539308Y-59378916D01*
X51539500Y-59376470D01*
X51539500Y-57089530D01*
X51539308Y-57087084D01*
X51539307Y-57087071D01*
X51537201Y-57060319D01*
X51536696Y-57053900D01*
X51492393Y-56901409D01*
X51411559Y-56764726D01*
X51299274Y-56652441D01*
X51162591Y-56571607D01*
X51154979Y-56569396D01*
X51154978Y-56569395D01*
X51016285Y-56529101D01*
X51016286Y-56529101D01*
X51010100Y-56527304D01*
X50997344Y-56526300D01*
X50976929Y-56524693D01*
X50976916Y-56524692D01*
X50974470Y-56524500D01*
X49710690Y-56524500D01*
X49642569Y-56504498D01*
X49621595Y-56487595D01*
X49439905Y-56305905D01*
X49405879Y-56243593D01*
X49403000Y-56216810D01*
X49403000Y-53587390D01*
X49423002Y-53519269D01*
X49439905Y-53498295D01*
X49866095Y-53072105D01*
X49928407Y-53038079D01*
X49955190Y-53035200D01*
X53422810Y-53035200D01*
X53490931Y-53055202D01*
G37*
%TD.AperFunction*%
%TD*%
M02*
