M48
; DRILL file {KiCad (6.0.8-1)-1} date Monday, November 14, 2022 at 10:02:30 PM
; FORMAT={-:-/ absolute / inch / decimal}
; #@! TF.CreationDate,2022-11-14T22:02:30-06:00
; #@! TF.GenerationSoftware,Kicad,Pcbnew,(6.0.8-1)-1
; #@! TF.FileFunction,MixedPlating,1,2
FMAT,2
INCH
; #@! TA.AperFunction,Plated,PTH,ComponentDrill
T1C0.0295
; #@! TA.AperFunction,Plated,PTH,ComponentDrill
T2C0.0300
; #@! TA.AperFunction,Plated,PTH,ComponentDrill
T3C0.0315
; #@! TA.AperFunction,Plated,PTH,ComponentDrill
T4C0.0394
; #@! TA.AperFunction,Plated,PTH,ComponentDrill
T5C0.0708
; #@! TA.AperFunction,NonPlated,NPTH,ComponentDrill
T6C0.1181
%
G90
G05
T1
X2.24Y-2.66
X2.29Y-2.66
X2.34Y-2.66
T2
X1.9658Y-2.1741
X1.9658Y-2.3273
X1.9658Y-2.4804
X1.9658Y-2.6336
X1.9658Y-2.7867
X1.9658Y-2.9399
X1.9658Y-3.093
X1.9658Y-3.2462
X1.9658Y-3.3993
X1.9658Y-3.5481
X1.9658Y-3.7013
X1.9658Y-3.8544
X1.9658Y-4.0076
X1.9658Y-4.1607
X1.9658Y-4.3139
X1.9658Y-4.467
X1.9658Y-4.6202
X1.9658Y-4.7733
X2.2303Y-3.1201
X2.3445Y-2.9232
T3
X2.31Y-2.1289
X2.31Y-2.2076
X2.312Y-3.3308
X2.312Y-3.4292
X2.6424Y-2.61
X2.7211Y-2.61
T4
X2.28Y-3.9076
X2.28Y-4.8524
X2.55Y-2.1637
X2.65Y-2.1637
X2.85Y-2.1637
X2.95Y-2.1637
X3.05Y-2.1637
X3.12Y-2.58
X3.12Y-2.6784
T5
X2.5261Y-3.0006
X2.5261Y-3.166
X2.5261Y-3.3313
X2.5261Y-3.4967
X2.5261Y-3.662
X2.5261Y-3.8274
X2.5261Y-3.9926
X2.5261Y-4.158
X2.5261Y-4.3233
X2.5261Y-4.4887
X2.5261Y-4.654
X2.5261Y-4.8194
X2.7426Y-3.0006
X2.7426Y-3.166
X2.7426Y-3.3313
X2.7426Y-3.4967
X2.7426Y-3.662
X2.7426Y-3.8274
X2.7426Y-3.9926
X2.7426Y-4.158
X2.7426Y-4.3233
X2.7426Y-4.4887
X2.7426Y-4.654
X2.7426Y-4.8194
T6
X3.03Y-3.0006
X3.03Y-4.8194
T0
M30
