%TF.GenerationSoftware,KiCad,Pcbnew,(6.0.8-1)-1*%
%TF.CreationDate,2022-11-11T22:23:57-06:00*%
%TF.ProjectId,VT100_ATX_DCDC,56543130-305f-4415-9458-5f444344432e,rev?*%
%TF.SameCoordinates,Original*%
%TF.FileFunction,Soldermask,Top*%
%TF.FilePolarity,Negative*%
%FSLAX46Y46*%
G04 Gerber Fmt 4.6, Leading zero omitted, Abs format (unit mm)*
G04 Created by KiCad (PCBNEW (6.0.8-1)-1) date 2022-11-11 22:23:57*
%MOMM*%
%LPD*%
G01*
G04 APERTURE LIST*
G04 Aperture macros list*
%AMRoundRect*
0 Rectangle with rounded corners*
0 $1 Rounding radius*
0 $2 $3 $4 $5 $6 $7 $8 $9 X,Y pos of 4 corners*
0 Add a 4 corners polygon primitive as box body*
4,1,4,$2,$3,$4,$5,$6,$7,$8,$9,$2,$3,0*
0 Add four circle primitives for the rounded corners*
1,1,$1+$1,$2,$3*
1,1,$1+$1,$4,$5*
1,1,$1+$1,$6,$7*
1,1,$1+$1,$8,$9*
0 Add four rect primitives between the rounded corners*
20,1,$1+$1,$2,$3,$4,$5,0*
20,1,$1+$1,$4,$5,$6,$7,0*
20,1,$1+$1,$6,$7,$8,$9,0*
20,1,$1+$1,$8,$9,$2,$3,0*%
G04 Aperture macros list end*
%ADD10C,0.120000*%
%ADD11C,1.600000*%
%ADD12C,1.524000*%
%ADD13C,2.000000*%
%ADD14RoundRect,0.250000X-0.750000X0.600000X-0.750000X-0.600000X0.750000X-0.600000X0.750000X0.600000X0*%
%ADD15O,2.000000X1.700000*%
%ADD16R,1.600000X1.600000*%
%ADD17RoundRect,0.120000X4.980000X1.080000X-4.980000X1.080000X-4.980000X-1.080000X4.980000X-1.080000X0*%
%ADD18R,1.000000X1.500000*%
%ADD19RoundRect,0.437500X-0.437500X0.437500X-0.437500X-0.437500X0.437500X-0.437500X0.437500X0.437500X0*%
%ADD20R,1.050000X1.500000*%
%ADD21O,1.050000X1.500000*%
%ADD22C,3.202940*%
%ADD23C,3.101340*%
G04 APERTURE END LIST*
%TO.C,U2*%
G36*
X49231000Y-125733000D02*
G01*
X40481000Y-125733000D01*
X40481000Y-50733000D01*
X49231000Y-50733000D01*
X49231000Y-125733000D01*
G37*
D10*
X49231000Y-125733000D02*
X40481000Y-125733000D01*
X40481000Y-50733000D01*
X49231000Y-50733000D01*
X49231000Y-125733000D01*
%TD*%
D11*
%TO.C,C1*%
X58724800Y-84602000D03*
X58724800Y-87102000D03*
%TD*%
D12*
%TO.C,F1*%
X59550000Y-74250000D03*
X56650000Y-79250000D03*
%TD*%
D13*
%TO.C,U1*%
X64770000Y-54959000D03*
X67310000Y-54959000D03*
X72390000Y-54959000D03*
X74930000Y-54959000D03*
X77470000Y-54959000D03*
%TD*%
D14*
%TO.C,J1*%
X79248000Y-65532000D03*
D15*
X79248000Y-68032000D03*
%TD*%
D16*
%TO.C,C3*%
X58674000Y-56073100D03*
D11*
X58674000Y-54073100D03*
%TD*%
D17*
%TO.C,U2*%
X45931000Y-54233000D03*
X45931000Y-58233000D03*
X45931000Y-62233000D03*
X45931000Y-66233000D03*
X45931000Y-70233000D03*
X45931000Y-74233000D03*
X45931000Y-78233000D03*
X45931000Y-82233000D03*
X45931000Y-86233000D03*
X45931000Y-90233000D03*
X45931000Y-94233000D03*
X45931000Y-98233000D03*
X45931000Y-102233000D03*
X45931000Y-106233000D03*
X45931000Y-110233000D03*
X45931000Y-114233000D03*
X45931000Y-118233000D03*
X45931000Y-122233000D03*
%TD*%
D18*
%TO.C,JP1*%
X53370000Y-82169000D03*
X52070000Y-82169000D03*
%TD*%
D19*
%TO.C,R1*%
X57912000Y-99252000D03*
X57912000Y-123252000D03*
%TD*%
D16*
%TO.C,C2*%
X67116888Y-66294000D03*
D11*
X69116888Y-66294000D03*
%TD*%
D20*
%TO.C,U3*%
X59436000Y-67564000D03*
D21*
X58166000Y-67564000D03*
X56896000Y-67564000D03*
%TD*%
D22*
%TO.C,J2*%
X76962000Y-76215240D03*
X76962000Y-122412760D03*
D23*
X69662040Y-76215240D03*
X69662040Y-80416400D03*
X69662040Y-84615020D03*
X69662040Y-88816180D03*
X69662040Y-93014800D03*
X69662040Y-97215960D03*
X69662040Y-101412040D03*
X69662040Y-105613200D03*
X69662040Y-109811820D03*
X69662040Y-114012980D03*
X69662040Y-118211600D03*
X69662040Y-122412760D03*
X64162940Y-76215240D03*
X64162940Y-80416400D03*
X64162940Y-84615020D03*
X64162940Y-88816180D03*
X64162940Y-93014800D03*
X64162940Y-97215960D03*
X64162940Y-101412040D03*
X64162940Y-105613200D03*
X64162940Y-109811820D03*
X64162940Y-114012980D03*
X64162940Y-118211600D03*
X64162940Y-122412760D03*
%TD*%
M02*
