%TF.GenerationSoftware,KiCad,Pcbnew,(6.0.8-1)-1*%
%TF.CreationDate,2022-11-01T20:59:09-05:00*%
%TF.ProjectId,VT100_ATX_DCDC,56543130-305f-4415-9458-5f444344432e,rev?*%
%TF.SameCoordinates,Original*%
%TF.FileFunction,Copper,L2,Bot*%
%TF.FilePolarity,Positive*%
%FSLAX46Y46*%
G04 Gerber Fmt 4.6, Leading zero omitted, Abs format (unit mm)*
G04 Created by KiCad (PCBNEW (6.0.8-1)-1) date 2022-11-01 20:59:09*
%MOMM*%
%LPD*%
G01*
G04 APERTURE LIST*
G04 Aperture macros list*
%AMRoundRect*
0 Rectangle with rounded corners*
0 $1 Rounding radius*
0 $2 $3 $4 $5 $6 $7 $8 $9 X,Y pos of 4 corners*
0 Add a 4 corners polygon primitive as box body*
4,1,4,$2,$3,$4,$5,$6,$7,$8,$9,$2,$3,0*
0 Add four circle primitives for the rounded corners*
1,1,$1+$1,$2,$3*
1,1,$1+$1,$4,$5*
1,1,$1+$1,$6,$7*
1,1,$1+$1,$8,$9*
0 Add four rect primitives between the rounded corners*
20,1,$1+$1,$2,$3,$4,$5,0*
20,1,$1+$1,$4,$5,$6,$7,0*
20,1,$1+$1,$6,$7,$8,$9,0*
20,1,$1+$1,$8,$9,$2,$3,0*%
G04 Aperture macros list end*
%ADD10C,0.200000*%
%TA.AperFunction,NonConductor*%
%ADD11C,0.200000*%
%TD*%
%TA.AperFunction,ComponentPad*%
%ADD12C,2.000000*%
%TD*%
%TA.AperFunction,ComponentPad*%
%ADD13R,1.600000X1.600000*%
%TD*%
%TA.AperFunction,ComponentPad*%
%ADD14C,1.600000*%
%TD*%
%TA.AperFunction,ComponentPad*%
%ADD15C,1.879600*%
%TD*%
%TA.AperFunction,ComponentPad*%
%ADD16RoundRect,0.120000X4.980000X1.080000X-4.980000X1.080000X-4.980000X-1.080000X4.980000X-1.080000X0*%
%TD*%
%TA.AperFunction,ComponentPad*%
%ADD17C,2.400000*%
%TD*%
%TA.AperFunction,ComponentPad*%
%ADD18O,2.400000X2.400000*%
%TD*%
%TA.AperFunction,ComponentPad*%
%ADD19C,2.898140*%
%TD*%
%TA.AperFunction,SMDPad,CuDef*%
%ADD20R,1.000000X1.500000*%
%TD*%
%TA.AperFunction,ViaPad*%
%ADD21C,0.800000*%
%TD*%
%TA.AperFunction,Conductor*%
%ADD22C,0.500000*%
%TD*%
%TA.AperFunction,Conductor*%
%ADD23C,1.000000*%
%TD*%
G04 APERTURE END LIST*
D10*
D11*
X76140571Y-95098919D02*
X77640571Y-95411419D01*
X76140571Y-96098919D01*
X76140571Y-96384633D02*
X76140571Y-97241776D01*
X77640571Y-96625705D02*
X76140571Y-96813205D01*
X77640571Y-98339991D02*
X77640571Y-97482848D01*
X77640571Y-97911419D02*
X76140571Y-98098919D01*
X76354857Y-97929276D01*
X76497714Y-97768562D01*
X76569142Y-97616776D01*
X76140571Y-99456062D02*
X76140571Y-99598919D01*
X76212000Y-99732848D01*
X76283428Y-99795348D01*
X76426285Y-99848919D01*
X76712000Y-99884633D01*
X77069142Y-99839991D01*
X77354857Y-99732848D01*
X77497714Y-99643562D01*
X77569142Y-99563205D01*
X77640571Y-99411419D01*
X77640571Y-99268562D01*
X77569142Y-99134633D01*
X77497714Y-99072133D01*
X77354857Y-99018562D01*
X77069142Y-98982848D01*
X76712000Y-99027491D01*
X76426285Y-99134633D01*
X76283428Y-99223919D01*
X76212000Y-99304276D01*
X76140571Y-99456062D01*
X76140571Y-100884633D02*
X76140571Y-101027491D01*
X76212000Y-101161419D01*
X76283428Y-101223919D01*
X76426285Y-101277491D01*
X76712000Y-101313205D01*
X77069142Y-101268562D01*
X77354857Y-101161419D01*
X77497714Y-101072133D01*
X77569142Y-100991776D01*
X77640571Y-100839991D01*
X77640571Y-100697133D01*
X77569142Y-100563205D01*
X77497714Y-100500705D01*
X77354857Y-100447133D01*
X77069142Y-100411419D01*
X76712000Y-100456062D01*
X76426285Y-100563205D01*
X76283428Y-100652491D01*
X76212000Y-100732848D01*
X76140571Y-100884633D01*
X77212000Y-102964991D02*
X77212000Y-103679276D01*
X77640571Y-102768562D02*
X76140571Y-103456062D01*
X77640571Y-103768562D01*
X76140571Y-104241776D02*
X76140571Y-105098919D01*
X77640571Y-104482848D02*
X76140571Y-104670348D01*
X76140571Y-105456062D02*
X77640571Y-106268562D01*
X76140571Y-106456062D02*
X77640571Y-105268562D01*
X77640571Y-107982848D02*
X76140571Y-108170348D01*
X76140571Y-108741776D01*
X76212000Y-108875705D01*
X76283428Y-108938205D01*
X76426285Y-108991776D01*
X76640571Y-108964991D01*
X76783428Y-108875705D01*
X76854857Y-108795348D01*
X76926285Y-108643562D01*
X76926285Y-108072133D01*
X76140571Y-109956062D02*
X76140571Y-110241776D01*
X76212000Y-110375705D01*
X76354857Y-110500705D01*
X76640571Y-110536419D01*
X77140571Y-110473919D01*
X77426285Y-110366776D01*
X77569142Y-110206062D01*
X77640571Y-110054276D01*
X77640571Y-109768562D01*
X77569142Y-109634633D01*
X77426285Y-109509633D01*
X77140571Y-109473919D01*
X76640571Y-109536419D01*
X76354857Y-109643562D01*
X76212000Y-109804276D01*
X76140571Y-109956062D01*
X76140571Y-111098919D02*
X77640571Y-111268562D01*
X76569142Y-111688205D01*
X77640571Y-111839991D01*
X76140571Y-112384633D01*
X76854857Y-112866776D02*
X76854857Y-113366776D01*
X77640571Y-113482848D02*
X77640571Y-112768562D01*
X76140571Y-112956062D01*
X76140571Y-113670348D01*
X77640571Y-114982848D02*
X76926285Y-114572133D01*
X77640571Y-114125705D02*
X76140571Y-114313205D01*
X76140571Y-114884633D01*
X76212000Y-115018562D01*
X76283428Y-115081062D01*
X76426285Y-115134633D01*
X76640571Y-115107848D01*
X76783428Y-115018562D01*
X76854857Y-114938205D01*
X76926285Y-114786419D01*
X76926285Y-114214991D01*
X77569142Y-116706062D02*
X77640571Y-116911419D01*
X77640571Y-117268562D01*
X77569142Y-117420348D01*
X77497714Y-117500705D01*
X77354857Y-117589991D01*
X77212000Y-117607848D01*
X77069142Y-117554276D01*
X76997714Y-117491776D01*
X76926285Y-117357848D01*
X76854857Y-117081062D01*
X76783428Y-116947133D01*
X76712000Y-116884633D01*
X76569142Y-116831062D01*
X76426285Y-116848919D01*
X76283428Y-116938205D01*
X76212000Y-117018562D01*
X76140571Y-117170348D01*
X76140571Y-117527491D01*
X76212000Y-117732848D01*
X76140571Y-118384633D02*
X77354857Y-118232848D01*
X77497714Y-118286419D01*
X77569142Y-118348919D01*
X77640571Y-118482848D01*
X77640571Y-118768562D01*
X77569142Y-118920348D01*
X77497714Y-119000705D01*
X77354857Y-119089991D01*
X76140571Y-119241776D01*
X77640571Y-119768562D02*
X76140571Y-119956062D01*
X76140571Y-120527491D01*
X76212000Y-120661419D01*
X76283428Y-120723919D01*
X76426285Y-120777491D01*
X76640571Y-120750705D01*
X76783428Y-120661419D01*
X76854857Y-120581062D01*
X76926285Y-120429276D01*
X76926285Y-119857848D01*
X77640571Y-121268562D02*
X76140571Y-121456062D01*
X76140571Y-122027491D01*
X76212000Y-122161419D01*
X76283428Y-122223919D01*
X76426285Y-122277491D01*
X76640571Y-122250705D01*
X76783428Y-122161419D01*
X76854857Y-122081062D01*
X76926285Y-121929276D01*
X76926285Y-121357848D01*
X77640571Y-123482848D02*
X77640571Y-122768562D01*
X76140571Y-122956062D01*
X76926285Y-124357848D02*
X77640571Y-124268562D01*
X76140571Y-123956062D02*
X76926285Y-124357848D01*
X76140571Y-124956062D01*
%TO.C,JP1*%
G36*
X52940000Y-82096000D02*
G01*
X52440000Y-82096000D01*
X52440000Y-81696000D01*
X52940000Y-81696000D01*
X52940000Y-82096000D01*
G37*
G36*
X52940000Y-82896000D02*
G01*
X52440000Y-82896000D01*
X52440000Y-82496000D01*
X52940000Y-82496000D01*
X52940000Y-82896000D01*
G37*
%TD*%
D12*
%TO.P,U1,1,Vin*%
%TO.N,+3.3V*%
X59595000Y-53435000D03*
%TO.P,U1,2,GND*%
%TO.N,GND*%
X59595000Y-55975000D03*
%TO.P,U1,4,-Vo*%
%TO.N,-23V*%
X59595000Y-61055000D03*
%TO.P,U1,5,0V*%
%TO.N,GND*%
X59595000Y-63595000D03*
%TO.P,U1,6,+Vo*%
%TO.N,unconnected-(U1-Pad6)*%
X59595000Y-66135000D03*
%TD*%
D13*
%TO.P,C2,1*%
%TO.N,+3.3V*%
X66802000Y-64201113D03*
D14*
%TO.P,C2,2*%
%TO.N,GND*%
X66802000Y-62201113D03*
%TD*%
D13*
%TO.P,C1,1*%
%TO.N,-23V*%
X66802000Y-55880000D03*
D14*
%TO.P,C1,2*%
%TO.N,GND*%
X66802000Y-53880000D03*
%TD*%
D15*
%TO.P,J1,1,Pin_1*%
%TO.N,GND*%
X76200000Y-67310000D03*
%TO.P,J1,2,Pin_2*%
%TO.N,Net-(J1-Pad2)*%
X76200000Y-69850000D03*
%TD*%
D16*
%TO.P,U2,1,A_+12V*%
%TO.N,+12V*%
X45931000Y-54233000D03*
%TO.P,U2,2,B_GND*%
%TO.N,GND*%
X45931000Y-58233000D03*
%TO.P,U2,3,C_+12V*%
%TO.N,+12V*%
X45931000Y-62233000D03*
%TO.P,U2,4,D_GND*%
%TO.N,GND*%
X45931000Y-66233000D03*
%TO.P,U2,5,E_-12V*%
%TO.N,-12V*%
X45931000Y-70233000D03*
%TO.P,U2,6,F_-23V*%
%TO.N,-23V*%
X45931000Y-74233000D03*
%TO.P,U2,7,H_NC*%
%TO.N,unconnected-(U2-Pad7)*%
X45931000Y-78233000D03*
%TO.P,U2,8,J_GND_+12V*%
%TO.N,GND_+12V*%
X45931000Y-82233000D03*
%TO.P,U2,9,K_GND*%
%TO.N,GND*%
X45931000Y-86233000D03*
%TO.P,U2,10,L_GND*%
X45931000Y-90233000D03*
%TO.P,U2,11,M_GND*%
X45931000Y-94233000D03*
%TO.P,U2,12,N_GND*%
X45931000Y-98233000D03*
%TO.P,U2,13,P_GND*%
X45931000Y-102233000D03*
%TO.P,U2,14,R_+5V*%
%TO.N,+5V*%
X45931000Y-106233000D03*
%TO.P,U2,15,S_+5V*%
X45931000Y-110233000D03*
%TO.P,U2,16,T_+5V*%
X45931000Y-114233000D03*
%TO.P,U2,17,U_+5V*%
X45931000Y-118233000D03*
%TO.P,U2,18,V_+5V*%
X45931000Y-122233000D03*
%TD*%
D17*
%TO.P,R1,1*%
%TO.N,+5V*%
X74930000Y-54610000D03*
D18*
%TO.P,R1,2*%
%TO.N,GND*%
X74930000Y-62230000D03*
%TD*%
D19*
%TO.P,J2,1,+3.3V*%
%TO.N,+3.3V*%
X64328040Y-76215240D03*
%TO.P,J2,2,+3.3V*%
X64328040Y-80416400D03*
%TO.P,J2,3,GND*%
%TO.N,GND*%
X64328040Y-84615020D03*
%TO.P,J2,4,+5V*%
%TO.N,+5V*%
X64328040Y-88816180D03*
%TO.P,J2,5,GND*%
%TO.N,GND*%
X64328040Y-93014800D03*
%TO.P,J2,6,+5V*%
%TO.N,+5V*%
X64328040Y-97215960D03*
%TO.P,J2,7,GND*%
%TO.N,GND*%
X64328040Y-101412040D03*
%TO.P,J2,8,PWR_OK*%
%TO.N,unconnected-(J2-Pad8)*%
X64328040Y-105613200D03*
%TO.P,J2,9,+5VSB*%
%TO.N,unconnected-(J2-Pad9)*%
X64328040Y-109811820D03*
%TO.P,J2,10,+12V*%
%TO.N,+12V*%
X64328040Y-114012980D03*
%TO.P,J2,11,+12V*%
X64328040Y-118211600D03*
%TO.P,J2,12,+3.3V*%
%TO.N,+3.3V*%
X64328040Y-122412760D03*
%TO.P,J2,13,+3.3V*%
X58828940Y-76215240D03*
%TO.P,J2,14,-12V*%
%TO.N,-12V*%
X58828940Y-80416400D03*
%TO.P,J2,15,GND*%
%TO.N,GND*%
X58828940Y-84615020D03*
%TO.P,J2,16,PS_ON#*%
%TO.N,Net-(J1-Pad2)*%
X58828940Y-88816180D03*
%TO.P,J2,17,GND*%
%TO.N,GND*%
X58828940Y-93014800D03*
%TO.P,J2,18,GND*%
X58828940Y-97215960D03*
%TO.P,J2,19,GND*%
X58828940Y-101412040D03*
%TO.P,J2,20,NC*%
%TO.N,unconnected-(J2-Pad20)*%
X58828940Y-105613200D03*
%TO.P,J2,21,+5V*%
%TO.N,+5V*%
X58828940Y-109811820D03*
%TO.P,J2,22,+5V*%
X58828940Y-114012980D03*
%TO.P,J2,23,+5V*%
X58828940Y-118211600D03*
%TO.P,J2,24,GND*%
%TO.N,GND*%
X58828940Y-122412760D03*
%TD*%
D20*
%TO.P,JP1,1,A*%
%TO.N,GND*%
X53340000Y-82296000D03*
%TO.P,JP1,2,B*%
%TO.N,GND_+12V*%
X52040000Y-82296000D03*
%TD*%
D21*
%TO.N,Net-(J1-Pad2)*%
X66040000Y-69850000D03*
%TD*%
D22*
%TO.N,+3.3V*%
X63246000Y-57086000D02*
X63246000Y-61468000D01*
X65979113Y-64201113D02*
X66802000Y-64201113D01*
X59595000Y-53435000D02*
X63246000Y-57086000D01*
X63246000Y-61468000D02*
X65979113Y-64201113D01*
%TO.N,-12V*%
X54610000Y-76197460D02*
X54610000Y-73660000D01*
X58828940Y-80416400D02*
X54610000Y-76197460D01*
X54610000Y-73660000D02*
X51183000Y-70233000D01*
X51183000Y-70233000D02*
X49931000Y-70233000D01*
%TO.N,Net-(J1-Pad2)*%
X76200000Y-69850000D02*
X66040000Y-69850000D01*
D23*
%TO.N,+5V*%
X49931000Y-114233000D02*
X58608920Y-114233000D01*
X58608920Y-114233000D02*
X58828940Y-114012980D01*
%TO.N,GND*%
X53340000Y-82296000D02*
X53340000Y-85090000D01*
X53340000Y-85090000D02*
X52197000Y-86233000D01*
X52197000Y-86233000D02*
X49931000Y-86233000D01*
D22*
%TO.N,+3.3V*%
X64328040Y-122412760D02*
X62230000Y-120314720D01*
X62230000Y-120314720D02*
X62230000Y-82514440D01*
X62230000Y-82514440D02*
X64328040Y-80416400D01*
X64328040Y-80416400D02*
X64328040Y-76215240D01*
X58828940Y-76215240D02*
X64328040Y-76215240D01*
D23*
%TO.N,+12V*%
X64328040Y-118211600D02*
X64328040Y-114012980D01*
X49931000Y-62233000D02*
X49934000Y-62230000D01*
X52832000Y-62230000D02*
X55118000Y-64516000D01*
X67564000Y-110777020D02*
X64328040Y-114012980D01*
X49934000Y-62230000D02*
X52832000Y-62230000D01*
X55118000Y-64516000D02*
X55118000Y-69342000D01*
X57404000Y-71628000D02*
X66294000Y-71628000D01*
X55118000Y-69342000D02*
X57404000Y-71628000D01*
X66294000Y-71628000D02*
X67564000Y-72898000D01*
X67564000Y-72898000D02*
X67564000Y-110777020D01*
%TO.N,GND_+12V*%
X49931000Y-82233000D02*
X51977000Y-82233000D01*
X51977000Y-82233000D02*
X52040000Y-82296000D01*
%TD*%
%TA.AperFunction,Conductor*%
%TO.N,+5V*%
G36*
X53490931Y-105049002D02*
G01*
X53511905Y-105065905D01*
X53938095Y-105492095D01*
X53972121Y-105554407D01*
X53975000Y-105581190D01*
X53975000Y-122891810D01*
X53954998Y-122959931D01*
X53938095Y-122980905D01*
X53511905Y-123407095D01*
X53449593Y-123441121D01*
X53422810Y-123444000D01*
X49955190Y-123444000D01*
X49887069Y-123423998D01*
X49866095Y-123407095D01*
X49439905Y-122980905D01*
X49405879Y-122918593D01*
X49403000Y-122891810D01*
X49403000Y-105581190D01*
X49423002Y-105513069D01*
X49439905Y-105492095D01*
X49866095Y-105065905D01*
X49928407Y-105031879D01*
X49955190Y-105029000D01*
X53422810Y-105029000D01*
X53490931Y-105049002D01*
G37*
%TD.AperFunction*%
%TD*%
%TA.AperFunction,Conductor*%
%TO.N,+12V*%
G36*
X53490931Y-53055202D02*
G01*
X53511905Y-53072105D01*
X53938095Y-53498295D01*
X53972121Y-53560607D01*
X53975000Y-53587390D01*
X53975000Y-62871610D01*
X53954998Y-62939731D01*
X53938095Y-62960705D01*
X53511905Y-63386895D01*
X53449593Y-63420921D01*
X53422810Y-63423800D01*
X49955190Y-63423800D01*
X49887069Y-63403798D01*
X49866095Y-63386895D01*
X49439905Y-62960705D01*
X49405879Y-62898393D01*
X49403000Y-62871610D01*
X49403000Y-60242190D01*
X49423002Y-60174069D01*
X49439905Y-60153095D01*
X49614595Y-59978405D01*
X49676907Y-59944379D01*
X49703690Y-59941500D01*
X50974470Y-59941500D01*
X50976916Y-59941308D01*
X50976929Y-59941307D01*
X50997344Y-59939700D01*
X51010100Y-59938696D01*
X51055300Y-59925564D01*
X51154978Y-59896605D01*
X51154979Y-59896604D01*
X51162591Y-59894393D01*
X51299274Y-59813559D01*
X51411559Y-59701274D01*
X51492393Y-59564591D01*
X51536696Y-59412100D01*
X51537700Y-59399344D01*
X51539307Y-59378929D01*
X51539308Y-59378916D01*
X51539500Y-59376470D01*
X51539500Y-57089530D01*
X51539308Y-57087084D01*
X51539307Y-57087071D01*
X51537201Y-57060319D01*
X51536696Y-57053900D01*
X51492393Y-56901409D01*
X51411559Y-56764726D01*
X51299274Y-56652441D01*
X51162591Y-56571607D01*
X51154979Y-56569396D01*
X51154978Y-56569395D01*
X51016285Y-56529101D01*
X51016286Y-56529101D01*
X51010100Y-56527304D01*
X50997344Y-56526300D01*
X50976929Y-56524693D01*
X50976916Y-56524692D01*
X50974470Y-56524500D01*
X49710690Y-56524500D01*
X49642569Y-56504498D01*
X49621595Y-56487595D01*
X49439905Y-56305905D01*
X49405879Y-56243593D01*
X49403000Y-56216810D01*
X49403000Y-53587390D01*
X49423002Y-53519269D01*
X49439905Y-53498295D01*
X49866095Y-53072105D01*
X49928407Y-53038079D01*
X49955190Y-53035200D01*
X53422810Y-53035200D01*
X53490931Y-53055202D01*
G37*
%TD.AperFunction*%
%TD*%
M02*
