%TF.GenerationSoftware,KiCad,Pcbnew,(6.0.8-1)-1*%
%TF.CreationDate,2022-10-29T13:01:03-05:00*%
%TF.ProjectId,VT100_ATX_DCDC,56543130-305f-4415-9458-5f444344432e,rev?*%
%TF.SameCoordinates,Original*%
%TF.FileFunction,Legend,Top*%
%TF.FilePolarity,Positive*%
%FSLAX46Y46*%
G04 Gerber Fmt 4.6, Leading zero omitted, Abs format (unit mm)*
G04 Created by KiCad (PCBNEW (6.0.8-1)-1) date 2022-10-29 13:01:03*
%MOMM*%
%LPD*%
G01*
G04 APERTURE LIST*
%ADD10C,0.150000*%
%ADD11C,0.125000*%
%ADD12C,0.127000*%
%ADD13C,0.120000*%
%ADD14C,0.203200*%
%ADD15C,0.254000*%
G04 APERTURE END LIST*
D10*
X51816000Y-115250000D02*
X51816000Y-123500000D01*
X51816000Y-93340000D02*
X51816000Y-85090000D01*
X51816000Y-103439000D02*
X51816000Y-95189000D01*
X51816000Y-113250000D02*
X51816000Y-105000000D01*
D11*
X51943047Y-81597500D02*
X51895428Y-81573690D01*
X51824000Y-81573690D01*
X51752571Y-81597500D01*
X51704952Y-81645119D01*
X51681142Y-81692738D01*
X51657333Y-81787976D01*
X51657333Y-81859404D01*
X51681142Y-81954642D01*
X51704952Y-82002261D01*
X51752571Y-82049880D01*
X51824000Y-82073690D01*
X51871619Y-82073690D01*
X51943047Y-82049880D01*
X51966857Y-82026071D01*
X51966857Y-81859404D01*
X51871619Y-81859404D01*
X52181142Y-82073690D02*
X52181142Y-81573690D01*
X52466857Y-82073690D01*
X52466857Y-81573690D01*
X52704952Y-82073690D02*
X52704952Y-81573690D01*
X52824000Y-81573690D01*
X52895428Y-81597500D01*
X52943047Y-81645119D01*
X52966857Y-81692738D01*
X52990666Y-81787976D01*
X52990666Y-81859404D01*
X52966857Y-81954642D01*
X52943047Y-82002261D01*
X52895428Y-82049880D01*
X52824000Y-82073690D01*
X52704952Y-82073690D01*
X51252571Y-83069166D02*
X51228761Y-83045357D01*
X51181142Y-82973928D01*
X51157333Y-82926309D01*
X51133523Y-82854880D01*
X51109714Y-82735833D01*
X51109714Y-82640595D01*
X51133523Y-82521547D01*
X51157333Y-82450119D01*
X51181142Y-82402500D01*
X51228761Y-82331071D01*
X51252571Y-82307261D01*
X51443047Y-82688214D02*
X51824000Y-82688214D01*
X51633523Y-82878690D02*
X51633523Y-82497738D01*
X52324000Y-82878690D02*
X52038285Y-82878690D01*
X52181142Y-82878690D02*
X52181142Y-82378690D01*
X52133523Y-82450119D01*
X52085904Y-82497738D01*
X52038285Y-82521547D01*
X52514476Y-82426309D02*
X52538285Y-82402500D01*
X52585904Y-82378690D01*
X52704952Y-82378690D01*
X52752571Y-82402500D01*
X52776380Y-82426309D01*
X52800190Y-82473928D01*
X52800190Y-82521547D01*
X52776380Y-82592976D01*
X52490666Y-82878690D01*
X52800190Y-82878690D01*
X52943047Y-82378690D02*
X53109714Y-82878690D01*
X53276380Y-82378690D01*
X53395428Y-83069166D02*
X53419238Y-83045357D01*
X53466857Y-82973928D01*
X53490666Y-82926309D01*
X53514476Y-82854880D01*
X53538285Y-82735833D01*
X53538285Y-82640595D01*
X53514476Y-82521547D01*
X53490666Y-82450119D01*
X53466857Y-82402500D01*
X53419238Y-82331071D01*
X53395428Y-82307261D01*
X51189047Y-62265714D02*
X51570000Y-62265714D01*
X51379523Y-62456190D02*
X51379523Y-62075238D01*
X52070000Y-62456190D02*
X51784285Y-62456190D01*
X51927142Y-62456190D02*
X51927142Y-61956190D01*
X51879523Y-62027619D01*
X51831904Y-62075238D01*
X51784285Y-62099047D01*
X52260476Y-62003809D02*
X52284285Y-61980000D01*
X52331904Y-61956190D01*
X52450952Y-61956190D01*
X52498571Y-61980000D01*
X52522380Y-62003809D01*
X52546190Y-62051428D01*
X52546190Y-62099047D01*
X52522380Y-62170476D01*
X52236666Y-62456190D01*
X52546190Y-62456190D01*
X52689047Y-61956190D02*
X52855714Y-62456190D01*
X53022380Y-61956190D01*
X51435047Y-93984000D02*
X51387428Y-93960190D01*
X51316000Y-93960190D01*
X51244571Y-93984000D01*
X51196952Y-94031619D01*
X51173142Y-94079238D01*
X51149333Y-94174476D01*
X51149333Y-94245904D01*
X51173142Y-94341142D01*
X51196952Y-94388761D01*
X51244571Y-94436380D01*
X51316000Y-94460190D01*
X51363619Y-94460190D01*
X51435047Y-94436380D01*
X51458857Y-94412571D01*
X51458857Y-94245904D01*
X51363619Y-94245904D01*
X51673142Y-94460190D02*
X51673142Y-93960190D01*
X51958857Y-94460190D01*
X51958857Y-93960190D01*
X52196952Y-94460190D02*
X52196952Y-93960190D01*
X52316000Y-93960190D01*
X52387428Y-93984000D01*
X52435047Y-94031619D01*
X52458857Y-94079238D01*
X52482666Y-94174476D01*
X52482666Y-94245904D01*
X52458857Y-94341142D01*
X52435047Y-94388761D01*
X52387428Y-94436380D01*
X52316000Y-94460190D01*
X52196952Y-94460190D01*
X51189047Y-54285714D02*
X51570000Y-54285714D01*
X51379523Y-54476190D02*
X51379523Y-54095238D01*
X52070000Y-54476190D02*
X51784285Y-54476190D01*
X51927142Y-54476190D02*
X51927142Y-53976190D01*
X51879523Y-54047619D01*
X51831904Y-54095238D01*
X51784285Y-54119047D01*
X52260476Y-54023809D02*
X52284285Y-54000000D01*
X52331904Y-53976190D01*
X52450952Y-53976190D01*
X52498571Y-54000000D01*
X52522380Y-54023809D01*
X52546190Y-54071428D01*
X52546190Y-54119047D01*
X52522380Y-54190476D01*
X52236666Y-54476190D01*
X52546190Y-54476190D01*
X52689047Y-53976190D02*
X52855714Y-54476190D01*
X53022380Y-53976190D01*
X51395333Y-77958190D02*
X51728666Y-78458190D01*
X51728666Y-77958190D02*
X51395333Y-78458190D01*
X51435047Y-66044000D02*
X51387428Y-66020190D01*
X51316000Y-66020190D01*
X51244571Y-66044000D01*
X51196952Y-66091619D01*
X51173142Y-66139238D01*
X51149333Y-66234476D01*
X51149333Y-66305904D01*
X51173142Y-66401142D01*
X51196952Y-66448761D01*
X51244571Y-66496380D01*
X51316000Y-66520190D01*
X51363619Y-66520190D01*
X51435047Y-66496380D01*
X51458857Y-66472571D01*
X51458857Y-66305904D01*
X51363619Y-66305904D01*
X51673142Y-66520190D02*
X51673142Y-66020190D01*
X51958857Y-66520190D01*
X51958857Y-66020190D01*
X52196952Y-66520190D02*
X52196952Y-66020190D01*
X52316000Y-66020190D01*
X52387428Y-66044000D01*
X52435047Y-66091619D01*
X52458857Y-66139238D01*
X52482666Y-66234476D01*
X52482666Y-66305904D01*
X52458857Y-66401142D01*
X52435047Y-66448761D01*
X52387428Y-66496380D01*
X52316000Y-66520190D01*
X52196952Y-66520190D01*
X58221714Y-102359590D02*
X57936000Y-102359590D01*
X58078857Y-102359590D02*
X58078857Y-101859590D01*
X58031238Y-101931019D01*
X57983619Y-101978638D01*
X57936000Y-102002447D01*
X58436000Y-102026257D02*
X58436000Y-102526257D01*
X58674095Y-102288161D02*
X58697904Y-102335780D01*
X58745523Y-102359590D01*
X58436000Y-102288161D02*
X58459809Y-102335780D01*
X58507428Y-102359590D01*
X58602666Y-102359590D01*
X58650285Y-102335780D01*
X58674095Y-102288161D01*
X58674095Y-102026257D01*
X59126476Y-102097685D02*
X58959809Y-102097685D01*
X58959809Y-102359590D02*
X58959809Y-101859590D01*
X59197904Y-101859590D01*
X60007428Y-101859590D02*
X59769333Y-101859590D01*
X59745523Y-102097685D01*
X59769333Y-102073876D01*
X59816952Y-102050066D01*
X59936000Y-102050066D01*
X59983619Y-102073876D01*
X60007428Y-102097685D01*
X60031238Y-102145304D01*
X60031238Y-102264352D01*
X60007428Y-102311971D01*
X59983619Y-102335780D01*
X59936000Y-102359590D01*
X59816952Y-102359590D01*
X59769333Y-102335780D01*
X59745523Y-102311971D01*
X60340761Y-101859590D02*
X60388380Y-101859590D01*
X60436000Y-101883400D01*
X60459809Y-101907209D01*
X60483619Y-101954828D01*
X60507428Y-102050066D01*
X60507428Y-102169114D01*
X60483619Y-102264352D01*
X60459809Y-102311971D01*
X60436000Y-102335780D01*
X60388380Y-102359590D01*
X60340761Y-102359590D01*
X60293142Y-102335780D01*
X60269333Y-102311971D01*
X60245523Y-102264352D01*
X60221714Y-102169114D01*
X60221714Y-102050066D01*
X60245523Y-101954828D01*
X60269333Y-101907209D01*
X60293142Y-101883400D01*
X60340761Y-101859590D01*
X60650285Y-101859590D02*
X60816952Y-102359590D01*
X60983619Y-101859590D01*
X51173142Y-114285714D02*
X51554095Y-114285714D01*
X51363619Y-114476190D02*
X51363619Y-114095238D01*
X52030285Y-113976190D02*
X51792190Y-113976190D01*
X51768380Y-114214285D01*
X51792190Y-114190476D01*
X51839809Y-114166666D01*
X51958857Y-114166666D01*
X52006476Y-114190476D01*
X52030285Y-114214285D01*
X52054095Y-114261904D01*
X52054095Y-114380952D01*
X52030285Y-114428571D01*
X52006476Y-114452380D01*
X51958857Y-114476190D01*
X51839809Y-114476190D01*
X51792190Y-114452380D01*
X51768380Y-114428571D01*
X52196952Y-113976190D02*
X52363619Y-114476190D01*
X52530285Y-113976190D01*
X51435047Y-58000000D02*
X51387428Y-57976190D01*
X51316000Y-57976190D01*
X51244571Y-58000000D01*
X51196952Y-58047619D01*
X51173142Y-58095238D01*
X51149333Y-58190476D01*
X51149333Y-58261904D01*
X51173142Y-58357142D01*
X51196952Y-58404761D01*
X51244571Y-58452380D01*
X51316000Y-58476190D01*
X51363619Y-58476190D01*
X51435047Y-58452380D01*
X51458857Y-58428571D01*
X51458857Y-58261904D01*
X51363619Y-58261904D01*
X51673142Y-58476190D02*
X51673142Y-57976190D01*
X51958857Y-58476190D01*
X51958857Y-57976190D01*
X52196952Y-58476190D02*
X52196952Y-57976190D01*
X52316000Y-57976190D01*
X52387428Y-58000000D01*
X52435047Y-58047619D01*
X52458857Y-58095238D01*
X52482666Y-58190476D01*
X52482666Y-58261904D01*
X52458857Y-58357142D01*
X52435047Y-58404761D01*
X52387428Y-58452380D01*
X52316000Y-58476190D01*
X52196952Y-58476190D01*
X51189047Y-74285714D02*
X51570000Y-74285714D01*
X51784285Y-74023809D02*
X51808095Y-74000000D01*
X51855714Y-73976190D01*
X51974761Y-73976190D01*
X52022380Y-74000000D01*
X52046190Y-74023809D01*
X52070000Y-74071428D01*
X52070000Y-74119047D01*
X52046190Y-74190476D01*
X51760476Y-74476190D01*
X52070000Y-74476190D01*
X52236666Y-73976190D02*
X52546190Y-73976190D01*
X52379523Y-74166666D01*
X52450952Y-74166666D01*
X52498571Y-74190476D01*
X52522380Y-74214285D01*
X52546190Y-74261904D01*
X52546190Y-74380952D01*
X52522380Y-74428571D01*
X52498571Y-74452380D01*
X52450952Y-74476190D01*
X52308095Y-74476190D01*
X52260476Y-74452380D01*
X52236666Y-74428571D01*
X52689047Y-73976190D02*
X52855714Y-74476190D01*
X53022380Y-73976190D01*
X51189047Y-70285714D02*
X51570000Y-70285714D01*
X52070000Y-70476190D02*
X51784285Y-70476190D01*
X51927142Y-70476190D02*
X51927142Y-69976190D01*
X51879523Y-70047619D01*
X51831904Y-70095238D01*
X51784285Y-70119047D01*
X52260476Y-70023809D02*
X52284285Y-70000000D01*
X52331904Y-69976190D01*
X52450952Y-69976190D01*
X52498571Y-70000000D01*
X52522380Y-70023809D01*
X52546190Y-70071428D01*
X52546190Y-70119047D01*
X52522380Y-70190476D01*
X52236666Y-70476190D01*
X52546190Y-70476190D01*
X52689047Y-69976190D02*
X52855714Y-70476190D01*
X53022380Y-69976190D01*
%TO.C,U1*%
X56495190Y-107568952D02*
X56899952Y-107568952D01*
X56947571Y-107545142D01*
X56971380Y-107521333D01*
X56995190Y-107473714D01*
X56995190Y-107378476D01*
X56971380Y-107330857D01*
X56947571Y-107307047D01*
X56899952Y-107283238D01*
X56495190Y-107283238D01*
X56995190Y-106783238D02*
X56995190Y-107068952D01*
X56995190Y-106926095D02*
X56495190Y-106926095D01*
X56566619Y-106973714D01*
X56614238Y-107021333D01*
X56638047Y-107068952D01*
D10*
%TO.C,C1*%
X59269333Y-101118942D02*
X59221714Y-101166561D01*
X59078857Y-101214180D01*
X58983619Y-101214180D01*
X58840761Y-101166561D01*
X58745523Y-101071323D01*
X58697904Y-100976085D01*
X58650285Y-100785609D01*
X58650285Y-100642752D01*
X58697904Y-100452276D01*
X58745523Y-100357038D01*
X58840761Y-100261800D01*
X58983619Y-100214180D01*
X59078857Y-100214180D01*
X59221714Y-100261800D01*
X59269333Y-100309419D01*
X60221714Y-101214180D02*
X59650285Y-101214180D01*
X59936000Y-101214180D02*
X59936000Y-100214180D01*
X59840761Y-100357038D01*
X59745523Y-100452276D01*
X59650285Y-100499895D01*
D12*
%TO.C,J1*%
X64631751Y-108113830D02*
X65067180Y-108113830D01*
X65154265Y-108142858D01*
X65212322Y-108200915D01*
X65241351Y-108288001D01*
X65241351Y-108346058D01*
X65241351Y-107504230D02*
X65241351Y-107852572D01*
X65241351Y-107678401D02*
X64631751Y-107678401D01*
X64718837Y-107736458D01*
X64776894Y-107794515D01*
X64805922Y-107852572D01*
X74189771Y-110813487D02*
X73580171Y-110813487D01*
X73580171Y-110581258D01*
X73609200Y-110523201D01*
X73638228Y-110494172D01*
X73696285Y-110465144D01*
X73783371Y-110465144D01*
X73841428Y-110494172D01*
X73870457Y-110523201D01*
X73899485Y-110581258D01*
X73899485Y-110813487D01*
X74189771Y-110116801D02*
X74160742Y-110174858D01*
X74131714Y-110203887D01*
X74073657Y-110232915D01*
X73899485Y-110232915D01*
X73841428Y-110203887D01*
X73812400Y-110174858D01*
X73783371Y-110116801D01*
X73783371Y-110029715D01*
X73812400Y-109971658D01*
X73841428Y-109942630D01*
X73899485Y-109913601D01*
X74073657Y-109913601D01*
X74131714Y-109942630D01*
X74160742Y-109971658D01*
X74189771Y-110029715D01*
X74189771Y-110116801D01*
X73783371Y-109710401D02*
X74189771Y-109594287D01*
X73899485Y-109478172D01*
X74189771Y-109362058D01*
X73783371Y-109245944D01*
X74160742Y-108781487D02*
X74189771Y-108839544D01*
X74189771Y-108955658D01*
X74160742Y-109013715D01*
X74102685Y-109042744D01*
X73870457Y-109042744D01*
X73812400Y-109013715D01*
X73783371Y-108955658D01*
X73783371Y-108839544D01*
X73812400Y-108781487D01*
X73870457Y-108752458D01*
X73928514Y-108752458D01*
X73986571Y-109042744D01*
X74189771Y-108491201D02*
X73783371Y-108491201D01*
X73899485Y-108491201D02*
X73841428Y-108462172D01*
X73812400Y-108433144D01*
X73783371Y-108375087D01*
X73783371Y-108317030D01*
X74160742Y-107678401D02*
X74189771Y-107591315D01*
X74189771Y-107446172D01*
X74160742Y-107388115D01*
X74131714Y-107359087D01*
X74073657Y-107330058D01*
X74015600Y-107330058D01*
X73957542Y-107359087D01*
X73928514Y-107388115D01*
X73899485Y-107446172D01*
X73870457Y-107562287D01*
X73841428Y-107620344D01*
X73812400Y-107649372D01*
X73754342Y-107678401D01*
X73696285Y-107678401D01*
X73638228Y-107649372D01*
X73609200Y-107620344D01*
X73580171Y-107562287D01*
X73580171Y-107417144D01*
X73609200Y-107330058D01*
X73783371Y-107126858D02*
X74189771Y-107010744D01*
X73899485Y-106894630D01*
X74189771Y-106778515D01*
X73783371Y-106662401D01*
X74189771Y-106430172D02*
X73783371Y-106430172D01*
X73580171Y-106430172D02*
X73609200Y-106459201D01*
X73638228Y-106430172D01*
X73609200Y-106401144D01*
X73580171Y-106430172D01*
X73638228Y-106430172D01*
X73783371Y-106226972D02*
X73783371Y-105994744D01*
X73580171Y-106139887D02*
X74102685Y-106139887D01*
X74160742Y-106110858D01*
X74189771Y-106052801D01*
X74189771Y-105994744D01*
X74160742Y-105530287D02*
X74189771Y-105588344D01*
X74189771Y-105704458D01*
X74160742Y-105762515D01*
X74131714Y-105791544D01*
X74073657Y-105820572D01*
X73899485Y-105820572D01*
X73841428Y-105791544D01*
X73812400Y-105762515D01*
X73783371Y-105704458D01*
X73783371Y-105588344D01*
X73812400Y-105530287D01*
X74189771Y-105269030D02*
X73580171Y-105269030D01*
X74189771Y-105007772D02*
X73870457Y-105007772D01*
X73812400Y-105036801D01*
X73783371Y-105094858D01*
X73783371Y-105181944D01*
X73812400Y-105240001D01*
X73841428Y-105269030D01*
D10*
%TO.C,R1*%
X73096380Y-114847666D02*
X72620190Y-115181000D01*
X73096380Y-115419095D02*
X72096380Y-115419095D01*
X72096380Y-115038142D01*
X72144000Y-114942904D01*
X72191619Y-114895285D01*
X72286857Y-114847666D01*
X72429714Y-114847666D01*
X72524952Y-114895285D01*
X72572571Y-114942904D01*
X72620190Y-115038142D01*
X72620190Y-115419095D01*
X73096380Y-113895285D02*
X73096380Y-114466714D01*
X73096380Y-114181000D02*
X72096380Y-114181000D01*
X72239238Y-114276238D01*
X72334476Y-114371476D01*
X72382095Y-114466714D01*
D12*
%TO.C,J2*%
X58216800Y-95678171D02*
X58216800Y-96113600D01*
X58187771Y-96200685D01*
X58129714Y-96258742D01*
X58042628Y-96287771D01*
X57984571Y-96287771D01*
X58478057Y-95736228D02*
X58507085Y-95707200D01*
X58565142Y-95678171D01*
X58710285Y-95678171D01*
X58768342Y-95707200D01*
X58797371Y-95736228D01*
X58826400Y-95794285D01*
X58826400Y-95852342D01*
X58797371Y-95939428D01*
X58449028Y-96287771D01*
X58826400Y-96287771D01*
X56794400Y-51663600D02*
X57084685Y-51663600D01*
X56736342Y-51837771D02*
X56939542Y-51228171D01*
X57142742Y-51837771D01*
X57258857Y-51228171D02*
X57607200Y-51228171D01*
X57433028Y-51837771D02*
X57433028Y-51228171D01*
X57752342Y-51228171D02*
X58158742Y-51837771D01*
X58158742Y-51228171D02*
X57752342Y-51837771D01*
X58390971Y-51605542D02*
X58855428Y-51605542D01*
X59116685Y-51286228D02*
X59145714Y-51257200D01*
X59203771Y-51228171D01*
X59348914Y-51228171D01*
X59406971Y-51257200D01*
X59436000Y-51286228D01*
X59465028Y-51344285D01*
X59465028Y-51402342D01*
X59436000Y-51489428D01*
X59087657Y-51837771D01*
X59465028Y-51837771D01*
X59987542Y-51431371D02*
X59987542Y-51837771D01*
X59842400Y-51199142D02*
X59697257Y-51634571D01*
X60074628Y-51634571D01*
D13*
%TO.C,U1*%
X63341000Y-127381000D02*
X55721000Y-127381000D01*
X63341000Y-105791000D02*
X63341000Y-127381000D01*
X55721000Y-127381000D02*
X55721000Y-105791000D01*
X55721000Y-105791000D02*
X63341000Y-105791000D01*
%TO.C,C1*%
X54816000Y-99976000D02*
X54816000Y-102716000D01*
X54816000Y-102716000D02*
X64056000Y-102716000D01*
X54816000Y-99976000D02*
X64056000Y-99976000D01*
X64056000Y-99976000D02*
X64056000Y-102716000D01*
D14*
%TO.C,J1*%
X72090280Y-111009430D02*
X65592960Y-111009430D01*
X72090280Y-99813110D02*
X73091040Y-99813110D01*
X65592960Y-99813110D02*
X72090280Y-99813110D01*
X72090280Y-99813110D02*
X72090280Y-111009430D01*
X73091040Y-99813110D02*
X73091040Y-111009430D01*
X65592960Y-111009430D02*
X65592960Y-99813110D01*
X73091040Y-111009430D02*
X72090280Y-111009430D01*
D13*
%TO.C,R1*%
X66530000Y-119632000D02*
X66530000Y-126272000D01*
X73170000Y-119632000D02*
X66530000Y-119632000D01*
X73170000Y-126272000D02*
X73170000Y-119632000D01*
X66530000Y-126272000D02*
X73170000Y-126272000D01*
X69850000Y-119632000D02*
X69850000Y-116832000D01*
D15*
%TO.C,J2*%
X62641480Y-54846220D02*
X62641480Y-56845200D01*
X72039480Y-74343260D02*
X72039480Y-70944740D01*
X62641480Y-63246000D02*
X62641480Y-65244980D01*
X62641480Y-84142580D02*
X62641480Y-86141560D01*
X73037700Y-70944740D02*
X72039480Y-70944740D01*
X62641480Y-88442800D02*
X62641480Y-90441780D01*
X75039220Y-74343260D02*
X72039480Y-74343260D01*
X62641480Y-46746160D02*
X62641480Y-48646080D01*
X62641480Y-75841860D02*
X62641480Y-77843380D01*
X62641480Y-92643960D02*
X62641480Y-94642940D01*
X75178920Y-98541840D02*
X75178920Y-46746160D01*
X62641480Y-59044840D02*
X62641480Y-61046360D01*
X62641480Y-98541840D02*
X75178920Y-98541840D01*
X62641480Y-50645060D02*
X62641480Y-52644040D01*
X75178920Y-46746160D02*
X62641480Y-46746160D01*
X72039480Y-70944740D02*
X75039220Y-70944740D01*
X72039480Y-70944740D02*
X72039480Y-74343260D01*
X62641480Y-80043020D02*
X62641480Y-82042000D01*
X62641480Y-71645780D02*
X62641480Y-73642220D01*
X72039480Y-74343260D02*
X73037700Y-74343260D01*
X62641480Y-67444620D02*
X62641480Y-69446140D01*
X62641480Y-98541840D02*
X62641480Y-96641920D01*
X73037700Y-74343260D02*
X73037700Y-70944740D01*
%TD*%
M02*
